<svg width="256" height="256" viewBox="0 0 256 256" fill="none" xmlns="http://www.w3.org/2000/svg">
<path d="M202.6 38H53.3996C50.4175 38 48 40.4614 48 43.4978V212.502C48 215.539 50.4175 218 53.3996 218H202.6C205.583 218 208 215.539 208 212.502V43.4978C208 40.4614 205.583 38 202.6 38Z" fill="#DDE3E9" stroke="#011C3A" stroke-width="1.10721" stroke-linecap="round" stroke-linejoin="round"/>
<g opacity="0.5">
<path d="M204.778 98.0089H51.2219" stroke="#F4F5F7" stroke-width="1.10721" stroke-linecap="round" stroke-linejoin="round"/>
<path d="M204.778 118.003H51.2219" stroke="#F4F5F7" stroke-width="1.10721" stroke-linecap="round" stroke-linejoin="round"/>
<path d="M204.778 137.997H51.2219" stroke="#F4F5F7" stroke-width="1.10721" stroke-linecap="round" stroke-linejoin="round"/>
<path d="M204.778 157.992H51.2219" stroke="#F4F5F7" stroke-width="1.10721" stroke-linecap="round" stroke-linejoin="round"/>
<path d="M204.778 177.986H51.2219" stroke="#F4F5F7" stroke-width="1.10721" stroke-linecap="round" stroke-linejoin="round"/>
<path d="M204.778 197.993H51.2219" stroke="#F4F5F7" stroke-width="1.10721" stroke-linecap="round" stroke-linejoin="round"/>
<path d="M204.778 78.0016H51.2219" stroke="#F4F5F7" stroke-width="1.10721" stroke-linecap="round" stroke-linejoin="round"/>
<path d="M204.778 58.0074H51.2219" stroke="#F4F5F7" stroke-width="1.10721" stroke-linecap="round" stroke-linejoin="round"/>
<path d="M168.089 214.784V41.2029" stroke="#F4F5F7" stroke-width="1.10721" stroke-linecap="round" stroke-linejoin="round"/>
<path d="M148.044 214.784V41.2029" stroke="#F4F5F7" stroke-width="1.10721" stroke-linecap="round" stroke-linejoin="round"/>
<path d="M128 214.784V41.2029" stroke="#F4F5F7" stroke-width="1.10721" stroke-linecap="round" stroke-linejoin="round"/>
<path d="M107.955 214.784V41.2029" stroke="#F4F5F7" stroke-width="1.10721" stroke-linecap="round" stroke-linejoin="round"/>
<path d="M87.9109 214.784V41.2029" stroke="#F4F5F7" stroke-width="1.10721" stroke-linecap="round" stroke-linejoin="round"/>
<path d="M67.8789 214.784V41.2029" stroke="#F4F5F7" stroke-width="1.10721" stroke-linecap="round" stroke-linejoin="round"/>
<path d="M188.134 214.784V41.2029" stroke="#F4F5F7" stroke-width="1.10721" stroke-linecap="round" stroke-linejoin="round"/>
</g>
<path d="M122.397 182.835C124.111 173.812 126.456 164.924 129.414 156.241C130.012 154.49 130.687 152.727 131.426 150.847C133.17 146.309 136.749 137.038 135.399 134.276C135.264 133.982 135.055 133.73 134.794 133.545C134.532 133.361 134.226 133.25 133.909 133.226C133.841 133.222 133.773 133.233 133.71 133.258C133.646 133.282 133.588 133.32 133.54 133.368C129.566 136.675 127.007 145.842 125.147 152.533L124.523 154.789C122.057 163.784 120.311 172.969 119.302 182.252" stroke="#011C3A" stroke-width="1.10721" stroke-linecap="round" stroke-linejoin="round"/>
<path d="M128.293 183.263C129.939 174.769 132.165 166.403 134.953 158.225C135.514 156.552 136.227 154.802 136.902 152.96C139.691 145.738 143.154 136.791 140.658 131.669C140.038 130.392 139.086 129.313 137.905 128.549C136.723 127.786 135.359 127.367 133.96 127.339C132.482 127.325 131.048 127.844 129.91 128.804C124.523 133.277 121.798 143.067 119.608 150.925L118.984 153.168C116.518 162.086 114.759 171.192 113.724 180.397" stroke="#011C3A" stroke-width="1.10721" stroke-linecap="round" stroke-linejoin="round"/>
<path d="M134.329 182.68C135.882 175.041 137.92 167.514 140.429 160.144C143.46 151.34 150.286 138.101 145.854 129.024C142.225 121.595 132.725 118.833 126.243 124.227C118.831 130.373 115.889 142.704 113.393 151.534C111.038 160.036 109.306 168.704 108.21 177.467" stroke="#011C3A" stroke-width="1.10721" stroke-linecap="round" stroke-linejoin="round"/>
<path d="M140.671 180.89C142.056 174.528 143.808 168.254 145.918 162.102C146.415 160.636 147.051 159.003 147.726 157.252C151.343 147.878 155.851 136.195 151.05 126.366C149.465 123.123 147.03 120.389 144.014 118.466C140.998 116.544 137.518 115.509 133.96 115.474C129.808 115.461 125.781 116.924 122.575 119.611C114.349 126.444 111.114 138.23 108.427 147.683L107.816 149.874C105.67 157.572 104.04 165.408 102.938 173.331" stroke="#011C3A" stroke-width="1.10721" stroke-linecap="round" stroke-linejoin="round"/>
<path d="M147.446 177.48C148.63 172.734 149.929 168.339 151.394 164.06C151.878 162.672 152.476 161.103 153.113 159.457C156.934 149.498 162.193 135.91 156.246 123.747C154.182 119.516 151.006 115.951 147.072 113.447C143.138 110.943 138.599 109.598 133.96 109.562C128.469 109.542 123.144 111.478 118.907 115.034C109.254 123.047 105.701 135.78 102.836 146.075L102.225 148.254C100.428 154.68 98.9872 161.204 97.9078 167.794" stroke="#011C3A" stroke-width="1.10721" stroke-linecap="round" stroke-linejoin="round"/>
<path d="M154.437 171.71C155.711 162.218 163.224 150.964 163.963 137.803C164.638 125.744 160.741 118.016 157.978 114.139C157.321 113.184 156.903 112.08 156.761 110.922C156.619 109.765 156.757 108.591 157.163 107.5C159.01 101.975 158.947 95.9723 156.984 90.4882" stroke="#011C3A" stroke-width="1.10721" stroke-linecap="round" stroke-linejoin="round"/>
<path d="M136.787 72.7631C146.593 79.0129 152.96 88.8545 153.457 101.575C153.622 106.139 149.98 107.708 145.421 106.294C135.883 103.338 113.151 95.7656 99.2957 135.43C96.6411 143.66 94.6813 152.106 93.4377 160.676" stroke="#011C3A" stroke-width="1.10721" stroke-linecap="round" stroke-linejoin="round"/>
<path d="M117.303 73.4111C123.422 73.3269 129.469 74.7692 134.915 77.6123C144.224 82.7081 150.082 94.6891 147.09 97.7362C143.766 101.12 137.589 92.9516 118.704 100.835C109.624 104.621 103.18 112.336 98.7992 121.102C96.8235 125.105 95.1546 129.258 93.8072 133.524C92.051 139.01 90.6054 144.595 89.4773 150.25" stroke="#011C3A" stroke-width="1.10721" stroke-linecap="round" stroke-linejoin="round"/>
<path d="M106.567 80.7244C109.893 79.8317 113.316 79.3657 116.755 79.337C133.425 78.948 139.678 87.9985 137.844 90.2936C136.303 92.2256 132.877 91.1364 128.178 91.7199C114.616 93.4185 103.893 101.276 96.6724 112.894C93.1109 118.777 90.2711 125.083 88.2165 131.669C87.8345 132.849 87.4652 134.042 87.1086 135.235" stroke="#011C3A" stroke-width="1.10721" stroke-linecap="round" stroke-linejoin="round"/>
<path d="M98.7101 90.4882C104.266 85.9193 111.262 83.5601 118.398 83.8494C120.512 83.8494 125.733 84.5496 126.434 86.5853C127.363 89.2564 118.882 85.6258 106.593 93.9632C90.84 104.661 88.9297 114.8 88.9297 114.8" stroke="#011C3A" stroke-width="1.10721" stroke-linecap="round" stroke-linejoin="round"/>
<path d="M161.123 164.526C161.123 164.526 169.668 145.738 168.764 131.216C168.204 121.867 163.67 116.006 162.957 111.844C162.244 107.682 164.231 106.657 163.696 102.845" stroke="#011C3A" stroke-width="1.10721" stroke-linecap="round" stroke-linejoin="round"/>
<path d="M58.7736 76.0825V49.5532H84.829" stroke="#011C3A" stroke-width="1.10721" stroke-linecap="round" stroke-linejoin="round"/>
<path d="M84.829 206.447H58.7736V179.918" stroke="#011C3A" stroke-width="1.10721" stroke-linecap="round" stroke-linejoin="round"/>
<path d="M197.239 76.0825V49.5532H171.184" stroke="#011C3A" stroke-width="1.10721" stroke-linecap="round" stroke-linejoin="round"/>
<path d="M171.184 206.447H197.239V179.918" stroke="#011C3A" stroke-width="1.10721" stroke-linecap="round" stroke-linejoin="round"/>
</svg>
