<svg width="240" height="189" viewBox="0 0 240 189" fill="none" xmlns="http://www.w3.org/2000/svg">
<path d="M93.3716 56.085C128.47 39.0456 200.965 -38.0963 233.204 23.4391C260.183 74.9315 200.513 123.236 164.788 140.908C118.317 163.904 50.0115 154.823 13.2413 111.353C-2.57176 92.6357 -8.27737 66.173 19.3083 61.2484C28.6155 59.5832 44.4156 65.6502 54.9361 65.121C68.4192 64.4433 81.6247 61.7841 93.3716 56.085Z" fill="#023773"/>
<path opacity="0.9" d="M93.3716 56.085C128.47 39.0456 200.965 -38.0963 233.204 23.4391C260.183 74.9315 200.513 123.236 164.788 140.908C118.317 163.904 50.0115 154.823 13.2413 111.353C-2.57176 92.6357 -8.27737 66.173 19.3083 61.2484C28.6155 59.5832 44.4156 65.6502 54.9361 65.121C68.4192 64.4433 81.6247 61.7841 93.3716 56.085Z" fill="white"/>
<path d="M187.943 81.0049L121.522 84.8775C119.176 85.0157 116.873 85.5754 114.725 86.5298L42.5792 118.801C41.3133 119.358 40.2767 120.332 39.6424 121.56C39.0081 122.789 38.8145 124.198 39.0939 125.553L51.015 181.931C51.2165 182.839 51.623 183.689 52.2033 184.415C52.7836 185.142 53.5224 185.726 54.3632 186.124C55.204 186.521 56.1246 186.721 57.0544 186.708C57.9843 186.695 58.8989 186.469 59.7283 186.049L130.939 150.498L196.695 148.298C197.504 148.276 198.3 148.082 199.028 147.729C199.757 147.376 200.401 146.872 200.92 146.251C201.438 145.629 201.818 144.904 202.035 144.124C202.251 143.344 202.299 142.527 202.175 141.727L193.378 87.7432C192.919 84.955 190.802 80.921 187.943 81.0049Z" fill="#023773"/>
<path opacity="0.1" d="M187.943 81.0049L121.522 84.8775C119.176 85.0157 116.873 85.5754 114.725 86.5298L42.5792 118.801C41.3133 119.358 40.2767 120.332 39.6424 121.56C39.0081 122.789 38.8145 124.198 39.0939 125.553L51.015 181.931C51.2165 182.839 51.623 183.689 52.2033 184.415C52.7836 185.142 53.5224 185.726 54.3632 186.124C55.204 186.521 56.1246 186.721 57.0544 186.708C57.9843 186.695 58.8989 186.469 59.7283 186.049L130.939 150.498L196.695 148.298C197.504 148.276 198.3 148.082 199.028 147.729C199.757 147.376 200.401 146.872 200.92 146.251C201.438 145.629 201.818 144.904 202.035 144.124C202.251 143.344 202.299 142.527 202.175 141.727L193.378 87.7432C192.919 84.955 190.802 80.921 187.943 81.0049Z" fill="black"/>
<path d="M188.376 83.2962L122.864 86.9881C120.542 87.1154 118.264 87.6735 116.145 88.634L45.0577 120.725C43.8055 121.291 42.784 122.267 42.162 123.492C41.54 124.717 41.3548 126.118 41.6369 127.463L53.558 183.867C53.75 184.77 54.1463 185.616 54.7165 186.341C55.2866 187.066 56.0154 187.651 56.8469 188.051C57.6784 188.45 58.5904 188.654 59.5128 188.646C60.4353 188.638 61.3436 188.418 62.168 188.004L132.326 152.654L197.179 150.602C197.982 150.576 198.77 150.38 199.491 150.026C200.212 149.672 200.849 149.168 201.36 148.548C201.871 147.928 202.243 147.206 202.453 146.43C202.662 145.655 202.704 144.844 202.575 144.051L193.752 90.0733C193.294 87.2592 191.203 83.2188 188.376 83.2962Z" fill="#023773"/>
<path opacity="0.2" d="M125.53 96.8632L181.74 93.4037" stroke="black" stroke-width="2" stroke-linecap="round" stroke-linejoin="round"/>
<path opacity="0.2" d="M118.798 98.3155L129.067 145.484" stroke="black" stroke-width="2" stroke-linecap="round" stroke-linejoin="round"/>
<path opacity="0.2" d="M50.3311 140.901L57.5728 177.181C57.5728 177.181 63.1235 162.788 50.3311 140.901Z" fill="#FAFAFA"/>
<path opacity="0.2" d="M51.2803 141.327C51.532 141.972 115.604 114.477 115.604 114.477C115.778 120.711 114.219 126.87 111.101 132.271C107.984 137.672 103.43 142.103 97.9449 145.07C78.6595 155.881 51.2803 141.327 51.2803 141.327Z" fill="#FAFAFA"/>
<path d="M93.8393 142.398C95.3721 142.398 96.6147 141.156 96.6147 139.623C96.6147 138.09 95.3721 136.848 93.8393 136.848C92.3065 136.848 91.064 138.09 91.064 139.623C91.064 141.156 92.3065 142.398 93.8393 142.398Z" fill="#023773"/>
<path opacity="0.2" d="M115.635 114.477C115.635 114.477 123.581 126.437 121.657 146.807L115.635 114.477Z" fill="black"/>
<g opacity="0.2">
<path d="M47.2646 126.65L48.7427 125.998" stroke="#FAFAFA" stroke-linecap="round" stroke-linejoin="round"/>
<path d="M51.8086 124.643L111.64 98.1928" stroke="#FAFAFA" stroke-linecap="round" stroke-linejoin="round" stroke-dasharray="5.2 5.2"/>
<path d="M113.177 97.5151L114.648 96.8632" stroke="#FAFAFA" stroke-linecap="round" stroke-linejoin="round"/>
</g>
<path opacity="0.2" d="M127.415 107.468L183.626 104.002" stroke="black" stroke-width="2" stroke-linecap="round" stroke-linejoin="round"/>
<path opacity="0.2" d="M129.945 120.693L186.155 117.227" stroke="black" stroke-width="2" stroke-linecap="round" stroke-linejoin="round"/>
<path d="M151.057 126.335C150.569 126.38 150.117 126.615 149.8 126.989C149.483 127.363 149.325 127.847 149.361 128.336C149.397 128.825 149.623 129.281 149.992 129.605C150.36 129.929 150.841 130.095 151.331 130.068C151.82 130.041 152.28 129.823 152.611 129.461C152.941 129.098 153.116 128.62 153.098 128.13C153.08 127.64 152.87 127.176 152.514 126.839C152.157 126.502 151.683 126.319 151.192 126.328" fill="black"/>
<path d="M172.408 125.159C171.922 125.204 171.473 125.439 171.157 125.812C170.842 126.185 170.685 126.667 170.722 127.154C170.758 127.641 170.984 128.095 171.351 128.417C171.718 128.74 172.197 128.905 172.684 128.878C173.172 128.852 173.63 128.634 173.959 128.274C174.289 127.913 174.463 127.437 174.446 126.949C174.428 126.461 174.22 125.999 173.865 125.663C173.511 125.326 173.039 125.143 172.55 125.151" fill="black"/>
<path d="M173.449 141.83C172.998 140.427 172.318 139.108 171.437 137.927C170.459 136.665 169.236 135.616 167.841 134.841C166.154 133.851 164.223 133.355 162.269 133.409C160.314 133.463 158.414 134.065 156.784 135.147C155.437 136 154.274 137.114 153.364 138.425C152.548 139.655 151.944 141.012 151.575 142.441C151.575 142.336 151.586 142.231 151.61 142.129C151.656 141.835 151.72 141.544 151.801 141.258C152.097 140.204 152.559 139.203 153.17 138.294C154.069 136.925 155.244 135.759 156.62 134.871C158.291 133.745 160.247 133.117 162.261 133.061C164.274 133.005 166.262 133.523 167.993 134.555C169.413 135.361 170.649 136.456 171.622 137.768C172.284 138.643 172.802 139.619 173.158 140.657C173.253 140.939 173.331 141.226 173.393 141.517C173.42 141.619 173.439 141.724 173.449 141.83Z" fill="black"/>
<path d="M176.343 32.3476C176.343 32.3476 176.168 32.3476 175.833 32.3476C175.343 32.3185 174.851 32.3185 174.361 32.3476C172.466 32.4585 170.603 32.8952 168.856 33.6384C166.086 34.7995 163.675 36.6776 161.872 39.0794C160.76 40.5791 159.933 42.2702 159.432 44.0686C158.303 48.3524 158.913 52.9092 161.13 56.7449C161.734 57.8068 162.472 58.7872 163.324 59.6622C164.185 60.5892 165.187 61.3735 166.293 61.9858C167.429 62.6248 168.715 62.9479 170.017 62.9216C171.361 62.9055 172.648 62.3848 173.625 61.463C174.098 60.9681 174.468 60.3852 174.715 59.7473C174.962 59.1094 175.081 58.4291 175.065 57.7453C175.055 56.3245 174.604 54.942 173.774 53.7888C172.102 51.433 169.391 49.8517 166.506 48.9997C163.515 48.1595 160.355 48.115 157.341 48.8706C155.803 49.2708 154.32 49.8605 152.926 50.6262C151.52 51.4199 150.242 52.4232 149.138 53.6016C148.873 53.905 148.57 54.1825 148.331 54.5181L147.602 55.4992C147.158 56.1905 146.761 56.9107 146.414 57.6549C145.724 59.166 145.252 60.7677 145.013 62.4117C144.545 65.6962 144.992 69.0462 146.304 72.0932C147.559 75.0705 149.744 77.5613 152.533 79.1929C153.885 79.9654 155.394 80.4222 156.947 80.529C158.471 80.6142 159.986 80.2507 161.304 79.4834C162.613 78.76 163.647 77.626 164.247 76.2562C164.813 74.9063 164.853 73.3932 164.357 72.0158C163.847 70.6868 163.013 69.5065 161.93 68.5821C160.88 67.6747 159.67 66.972 158.361 66.5102C155.809 65.7055 153.078 65.6584 150.5 66.3747C148.087 67.0284 145.871 68.2627 144.045 69.9697C142.382 71.563 141.116 73.5237 140.347 75.6947C139.003 79.4617 139.064 83.5875 140.521 87.3125C141.658 90.0933 143.486 92.5373 145.833 94.4122C147.312 95.598 148.958 96.5573 150.719 97.2586C151.326 97.4845 151.797 97.6523 152.12 97.7426L152.597 97.8975C152.597 97.8975 152.429 97.8653 152.107 97.7749C151.63 97.6473 151.16 97.4943 150.7 97.3167C148.916 96.6463 147.248 95.7011 145.756 94.5155C143.369 92.6419 141.504 90.1859 140.341 87.3835C138.858 83.6234 138.782 79.4545 140.128 75.6431C140.898 73.4391 142.178 71.4486 143.865 69.8342C145.716 68.0929 147.965 66.83 150.416 66.1552C153.048 65.4208 155.837 65.4656 158.445 66.2843C159.792 66.7541 161.038 67.4746 162.117 68.4078C163.242 69.3625 164.108 70.5857 164.635 71.9641C165.165 73.4032 165.142 74.9881 164.57 76.4111C163.933 77.8348 162.853 79.0144 161.491 79.7738C160.124 80.5708 158.554 80.952 156.973 80.8711C155.382 80.76 153.837 80.2877 152.455 79.4898C149.603 77.8354 147.363 75.3014 146.072 72.2675C144.731 69.1647 144.271 65.7524 144.742 62.4053C144.989 60.728 145.471 59.0939 146.175 57.5516C146.53 56.7916 146.935 56.0563 147.389 55.3507L148.137 54.3503C148.376 54.0082 148.686 53.7049 148.957 53.408C150.088 52.2073 151.393 51.1845 152.83 50.3745C154.255 49.5942 155.773 48.9957 157.348 48.5931C160.419 47.8233 163.639 47.87 166.687 48.7286C169.63 49.6064 172.386 51.2135 174.122 53.6532C174.995 54.8546 175.469 56.2992 175.478 57.784C175.509 59.2452 174.959 60.6591 173.948 61.7147C172.916 62.684 171.556 63.23 170.14 63.2444C168.785 63.2751 167.447 62.9383 166.268 62.2697C165.135 61.6446 164.11 60.8404 163.234 59.8881C162.37 58.9935 161.622 57.9938 161.007 56.9127C158.751 53.0057 158.138 48.3627 159.303 44.0041C159.82 42.1849 160.667 40.4762 161.801 38.9632C163.637 36.5431 166.089 34.6598 168.901 33.5093C170.663 32.7805 172.54 32.3697 174.445 32.2959C174.939 32.2633 175.435 32.2633 175.93 32.2959L176.343 32.3476Z" fill="black" fill-opacity="0.92"/>
</svg>
