<svg width="256" height="256" viewBox="0 0 256 256" fill="none" xmlns="http://www.w3.org/2000/svg">
<path d="M256 195.789H0V195.917H256V195.789Z" fill="#EBEBEB"/>
<path d="M230.349 204.027H213.391V204.155H230.349V204.027Z" fill="#EBEBEB"/>
<path d="M169.585 205.42H165.135V205.548H169.585V205.42Z" fill="#EBEBEB"/>
<path d="M212.879 199.276H203.054V199.404H212.879V199.276Z" fill="#EBEBEB"/>
<path d="M48.9729 200.136H26.8596V200.264H48.9729V200.136Z" fill="#EBEBEB"/>
<path d="M56.7756 200.136H53.5347V200.264H56.7756V200.136Z" fill="#EBEBEB"/>
<path d="M115.277 202.296H67.3127V202.424H115.277V202.296Z" fill="#EBEBEB"/>
<path d="M121.344 172.954H22.4819C21.7074 172.952 20.9651 172.644 20.4179 172.096C19.8708 171.547 19.5635 170.805 19.5635 170.03V31.0579C19.5702 30.2879 19.8805 29.5516 20.4269 29.009C20.9734 28.4664 21.7118 28.1613 22.4819 28.16H121.344C122.119 28.16 122.863 28.468 123.411 29.0163C123.959 29.5645 124.267 30.3082 124.267 31.0835V170.03C124.267 170.805 123.959 171.549 123.411 172.097C122.863 172.646 122.119 172.954 121.344 172.954ZM22.4819 28.2624C21.7413 28.2638 21.0316 28.5589 20.5085 29.083C19.9853 29.6071 19.6915 30.3174 19.6915 31.0579V170.03C19.6915 170.771 19.9853 171.481 20.5085 172.005C21.0316 172.529 21.7413 172.824 22.4819 172.826H121.344C122.085 172.824 122.795 172.529 123.319 172.005C123.843 171.481 124.138 170.771 124.139 170.03V31.0579C124.138 30.3169 123.843 29.6067 123.319 29.0827C122.795 28.5587 122.085 28.2638 121.344 28.2624H22.4819Z" fill="#EBEBEB"/>
<path d="M232.095 172.954H133.227C132.453 172.952 131.71 172.644 131.162 172.096C130.614 171.548 130.305 170.805 130.304 170.03V31.0579C130.312 30.2874 130.623 29.5511 131.171 29.0087C131.718 28.4662 132.457 28.1613 133.227 28.16H232.095C232.864 28.1627 233.601 28.4684 234.146 29.0108C234.692 29.5533 235.001 30.2888 235.008 31.0579V170.03C235.008 170.804 234.701 171.546 234.155 172.094C233.609 172.642 232.868 172.951 232.095 172.954ZM133.227 28.2624C132.486 28.2638 131.776 28.5587 131.252 29.0827C130.728 29.6067 130.433 30.3169 130.432 31.0579V170.03C130.433 170.771 130.728 171.481 131.252 172.005C131.776 172.529 132.486 172.824 133.227 172.826H232.095C232.836 172.824 233.546 172.529 234.07 172.005C234.594 171.481 234.889 170.771 234.89 170.03V31.0579C234.889 30.3169 234.594 29.6067 234.07 29.0827C233.546 28.5587 232.836 28.2638 232.095 28.2624H133.227Z" fill="#EBEBEB"/>
<path d="M179.063 67.5781L166.794 51.9929C166.117 51.133 164.872 50.9847 164.012 51.6615L154.63 59.0469C153.77 59.7238 153.622 60.9696 154.299 61.8294L166.567 77.4146C167.244 78.2745 168.49 78.4228 169.35 77.7459L178.732 70.3606C179.592 69.6837 179.74 68.4379 179.063 67.5781Z" fill="#EBEBEB"/>
<path d="M172.457 75.3053L157.737 56.6062L155.4 58.4462L170.12 77.1453L172.457 75.3053Z" fill="#E0E0E0"/>
<path d="M169.703 69.9142L172.196 73.0803L173.024 72.4279L170.532 69.2618L169.703 69.9142Z" fill="#FAFAFA"/>
<path d="M167.79 67.4827L169.257 69.3454L170.085 68.693L168.619 66.8303L167.79 67.4827Z" fill="#FAFAFA"/>
<path d="M165.332 64.3731L166.799 66.2358L167.627 65.5834L166.161 63.7207L165.332 64.3731Z" fill="#FAFAFA"/>
<path d="M52.3995 113.539L63.2343 96.9245C63.8321 96.0078 63.5736 94.7802 62.657 94.1824L52.6559 87.6603C51.7392 87.0625 50.5116 87.321 49.9138 88.2376L39.079 104.852C38.4813 105.768 38.7397 106.996 39.6564 107.594L49.6575 114.116C50.5741 114.714 51.8018 114.455 52.3995 113.539Z" fill="#EBEBEB"/>
<path d="M42.971 109.749L55.9705 89.815L53.4788 88.1901L40.4793 108.124L42.971 109.749Z" fill="#E0E0E0"/>
<path d="M47.1942 105.432L44.9932 108.807L45.8766 109.383L48.0777 106.008L47.1942 105.432Z" fill="#FAFAFA"/>
<path d="M48.887 102.842L47.592 104.827L48.4755 105.403L49.7704 103.418L48.887 102.842Z" fill="#FAFAFA"/>
<path d="M51.0464 99.5215L49.7515 101.507L50.6349 102.083L51.9298 100.098L51.0464 99.5215Z" fill="#FAFAFA"/>
<path d="M202.001 156.352L190.807 172.726C190.189 173.629 190.421 174.862 191.324 175.48L201.181 182.219C202.084 182.836 203.317 182.605 203.935 181.701L215.129 165.327C215.747 164.424 215.515 163.191 214.612 162.573L204.755 155.835C203.852 155.217 202.619 155.449 202.001 156.352Z" fill="#EBEBEB"/>
<path d="M211.348 160.345L197.917 179.99L200.373 181.669L213.804 162.024L211.348 160.345Z" fill="#E0E0E0"/>
<path d="M207.024 164.58L209.298 161.253L208.427 160.658L206.154 163.985L207.024 164.58Z" fill="#FAFAFA"/>
<path d="M205.267 167.09L206.605 165.133L205.734 164.538L204.396 166.495L205.267 167.09Z" fill="#FAFAFA"/>
<path d="M203.035 170.36L204.373 168.403L203.503 167.808L202.165 169.765L203.035 170.36Z" fill="#FAFAFA"/>
<path d="M123.623 167.455L146.84 162.926C148.122 162.675 148.959 161.433 148.709 160.151L145.983 146.181C145.733 144.899 144.491 144.062 143.208 144.312L119.992 148.842C118.71 149.092 117.873 150.334 118.123 151.616L120.849 165.587C121.099 166.869 122.341 167.705 123.623 167.455Z" fill="#EBEBEB"/>
<path d="M119.019 156.236L146.879 150.8L146.199 147.317L118.339 152.753L119.019 156.236Z" fill="#E0E0E0"/>
<path d="M126.226 156.273L121.508 157.194L121.749 158.43L126.467 157.509L126.226 156.273Z" fill="#FAFAFA"/>
<path d="M129.844 155.57L127.07 156.111L127.311 157.347L130.085 156.806L129.844 155.57Z" fill="#FAFAFA"/>
<path d="M134.479 154.668L131.705 155.209L131.946 156.445L134.72 155.904L134.479 154.668Z" fill="#FAFAFA"/>
<path d="M125.358 43.6582C126.128 44.9948 126.485 46.5297 126.383 48.0689C126.281 49.6082 125.726 51.0827 124.786 52.3062C123.847 53.5297 122.566 54.4474 121.105 54.9431C119.644 55.4389 118.069 55.4905 116.579 55.0915C115.089 54.6926 113.751 53.8608 112.733 52.7015C111.715 51.5421 111.064 50.1072 110.862 48.5779C110.659 47.0486 110.915 45.4937 111.596 44.1096C112.277 42.7254 113.353 41.5742 114.688 40.8013C115.576 40.2866 116.556 39.9521 117.574 39.8171C118.591 39.6822 119.625 39.7493 120.616 40.0147C121.607 40.2802 122.536 40.7386 123.35 41.3639C124.164 41.9891 124.846 42.7688 125.358 43.6582Z" fill="#F0F0F0"/>
<path d="M116.634 46.8736C116.874 47.2883 117.361 47.2627 117.949 47.1194L117.059 45.5834C116.495 46.0288 116.413 46.4896 116.634 46.8736Z" fill="#E0E0E0"/>
<path d="M119.373 47.9437L120.264 49.4797C120.842 49.0189 120.94 48.5683 120.724 48.1946C120.509 47.8208 119.982 47.7901 119.373 47.9437Z" fill="#E0E0E0"/>
<path d="M115.272 41.7895C114.132 42.4483 113.214 43.4301 112.633 44.6108C112.051 45.7914 111.833 47.118 112.005 48.4227C112.177 49.7275 112.733 50.9519 113.601 51.9411C114.469 52.9304 115.61 53.6401 116.882 53.9807C118.153 54.3212 119.496 54.2772 120.743 53.8543C121.989 53.4313 123.082 52.6484 123.883 51.6045C124.685 50.5606 125.159 49.3025 125.245 47.9893C125.332 46.6761 125.027 45.3667 124.37 44.2266C123.933 43.4687 123.351 42.8045 122.657 42.2718C121.963 41.7391 121.171 41.3484 120.326 41.122C119.481 40.8957 118.6 40.8381 117.732 40.9526C116.865 41.0672 116.029 41.3515 115.272 41.7895ZM120.832 50.4269L121.395 51.4048L120.683 51.8144L120.125 50.8519C119.343 51.275 118.451 51.4533 117.565 51.3639L117.448 50.2579C118.172 50.3486 118.908 50.2296 119.567 49.9149L118.543 48.1792C117.448 48.5018 116.229 48.7834 115.533 47.575C115.021 46.6893 115.22 45.527 116.5 44.631L115.932 43.6531L116.644 43.2384L117.202 44.2061C117.832 43.8685 118.535 43.6926 119.25 43.6941L119.403 44.7795C118.826 44.7742 118.253 44.8911 117.724 45.1226L118.748 46.8787C119.844 46.5562 121.073 46.2541 121.769 47.4624C122.301 48.3635 122.091 49.5053 120.832 50.4269Z" fill="#E0E0E0"/>
<path d="M209.046 125.082C213.181 123.866 215.547 119.529 214.332 115.395C213.117 111.26 208.78 108.894 204.645 110.109C200.511 111.324 198.144 115.661 199.36 119.796C200.575 123.93 204.912 126.297 209.046 125.082Z" fill="#F0F0F0"/>
<path d="M204.877 116.931C205.117 117.35 205.604 117.325 206.193 117.181L205.297 115.645C204.738 116.086 204.657 116.552 204.877 116.931Z" fill="#E0E0E0"/>
<path d="M207.616 118.006L208.502 119.542C209.08 119.081 209.183 118.63 208.968 118.257C208.753 117.883 208.22 117.852 207.616 118.006Z" fill="#E0E0E0"/>
<path d="M203.515 111.852C202.375 112.51 201.456 113.491 200.874 114.672C200.291 115.852 200.072 117.179 200.244 118.484C200.416 119.789 200.971 121.014 201.839 122.004C202.707 122.994 203.849 123.704 205.12 124.045C206.392 124.385 207.736 124.342 208.982 123.919C210.229 123.496 211.322 122.712 212.123 121.668C212.925 120.624 213.399 119.365 213.485 118.052C213.571 116.738 213.266 115.429 212.608 114.289C212.171 113.531 211.589 112.868 210.896 112.336C210.202 111.803 209.411 111.413 208.566 111.187C207.722 110.96 206.841 110.902 205.975 111.017C205.108 111.131 204.272 111.414 203.515 111.852ZM209.05 120.489L209.613 121.462L208.896 121.856L208.338 120.888C207.557 121.316 206.664 121.495 205.778 121.4L205.66 120.3C206.385 120.387 207.12 120.268 207.78 119.956L206.756 118.216C205.655 118.538 204.442 118.825 203.745 117.617C203.233 116.731 203.428 115.569 204.708 114.673L204.145 113.69L204.856 113.28L205.415 114.243C206.046 113.913 206.75 113.746 207.463 113.756L207.611 114.842C207.035 114.837 206.464 114.954 205.937 115.185L206.961 116.936C208.062 116.618 209.29 116.311 209.987 117.519C210.545 118.42 210.335 119.562 209.05 120.489Z" fill="#E0E0E0"/>
<path d="M134.441 200.532C138.692 199.82 141.561 195.798 140.849 191.548C140.138 187.298 136.116 184.429 131.866 185.14C127.615 185.851 124.746 189.873 125.458 194.124C126.169 198.374 130.191 201.243 134.441 200.532Z" fill="#F0F0F0"/>
<path d="M133.867 190.884C133.448 191.114 133.463 191.601 133.596 192.189L135.158 191.324C134.712 190.756 134.251 190.669 133.867 190.884Z" fill="#E0E0E0"/>
<path d="M132.746 193.603L131.21 194.463C131.666 195.052 132.111 195.159 132.49 194.949C132.869 194.739 132.89 194.212 132.746 193.603Z" fill="#E0E0E0"/>
<path d="M138.972 189.604C138.333 188.453 137.367 187.518 136.197 186.916C135.026 186.314 133.703 186.073 132.396 186.223C131.088 186.372 129.854 186.907 128.85 187.758C127.846 188.609 127.116 189.738 126.754 191.004C126.392 192.269 126.413 193.614 126.815 194.867C127.217 196.121 127.981 197.227 129.012 198.046C130.042 198.865 131.292 199.36 132.604 199.469C133.916 199.577 135.23 199.294 136.382 198.656C137.146 198.232 137.82 197.661 138.364 196.977C138.908 196.292 139.312 195.507 139.552 194.667C139.793 193.826 139.866 192.946 139.766 192.078C139.667 191.209 139.397 190.368 138.972 189.604ZM130.243 194.995L129.26 195.543L128.86 194.821L129.833 194.284C129.422 193.497 129.26 192.604 129.367 191.724L130.473 191.626C130.373 192.349 130.479 193.086 130.78 193.751L132.531 192.778C132.229 191.672 131.968 190.454 133.187 189.773C134.083 189.261 135.235 189.491 136.11 190.797L137.103 190.249L137.503 190.966L136.53 191.508C136.851 192.153 137.006 192.868 136.981 193.587L135.895 193.72C135.911 193.143 135.805 192.569 135.583 192.036L133.811 193.024C134.113 194.13 134.395 195.359 133.176 196.04C132.28 196.526 131.144 196.296 130.243 194.995Z" fill="#E0E0E0"/>
<path d="M51.1039 176.09C55.2384 174.875 57.6049 170.538 56.3896 166.404C55.1743 162.269 50.8375 159.903 46.703 161.118C42.5685 162.333 40.202 166.67 41.4173 170.805C42.6325 174.939 46.9694 177.306 51.1039 176.09Z" fill="#F0F0F0"/>
<path d="M46.9248 167.936C47.1654 168.356 47.6467 168.33 48.2406 168.187L47.3446 166.651C46.7865 167.081 46.7046 167.547 46.9248 167.936Z" fill="#E0E0E0"/>
<path d="M49.6641 169.001L50.5498 170.537C51.1284 170.076 51.2308 169.626 51.0157 169.252C50.8007 168.878 50.2682 168.847 49.6641 169.001Z" fill="#E0E0E0"/>
<path d="M45.568 162.847C44.428 163.505 43.5088 164.486 42.9266 165.667C42.3444 166.848 42.1254 168.174 42.2972 169.48C42.469 170.785 43.0239 172.01 43.8918 172.999C44.7597 173.989 45.9016 174.699 47.1731 175.04C48.4446 175.381 49.7886 175.337 51.0352 174.914C52.2817 174.491 53.3748 173.708 54.1763 172.663C54.9778 171.619 55.4516 170.361 55.5379 169.047C55.6242 167.734 55.3191 166.424 54.6611 165.284C54.2241 164.527 53.6423 163.863 52.9488 163.331C52.2553 162.798 51.4638 162.408 50.6194 162.182C49.775 161.955 48.8942 161.898 48.0275 162.012C47.1608 162.126 46.325 162.41 45.568 162.847ZM51.0976 171.484L51.6608 172.457L50.9491 172.872L50.391 171.904C49.61 172.332 48.7166 172.511 47.831 172.416L47.7132 171.315C48.438 171.402 49.1727 171.284 49.8329 170.972L48.8089 169.236C47.7081 169.554 46.4947 169.841 45.7984 168.632C45.2864 167.747 45.4809 166.584 46.7609 165.688L46.1977 164.705L46.9094 164.296L47.4675 165.258C48.1001 164.931 48.8033 164.764 49.5155 164.772L49.664 165.857C49.0863 165.852 48.5139 165.969 47.9846 166.2L49.0086 167.951C50.1094 167.634 51.3382 167.327 52.0345 168.535C52.5926 169.416 52.3827 170.557 51.0976 171.484Z" fill="#E0E0E0"/>
<path d="M124.198 116.441C130.91 116.351 136.279 110.836 136.188 104.124C136.098 97.4115 130.584 92.0432 123.871 92.1334C117.159 92.2237 111.791 97.7382 111.881 104.451C111.971 111.163 117.486 116.531 124.198 116.441Z" fill="#F0F0F0"/>
<path d="M121.385 102.4C121.564 103.127 122.301 103.296 123.249 103.332L122.568 100.634C121.533 101.094 121.216 101.75 121.385 102.4Z" fill="#E0E0E0"/>
<path d="M125.03 105.196L125.701 107.878C126.766 107.438 127.109 106.803 126.945 106.153C126.756 105.405 126.003 105.226 125.03 105.196Z" fill="#E0E0E0"/>
<path d="M121.513 94.208C119.523 94.7069 117.726 95.7846 116.348 97.3049C114.971 98.8252 114.075 100.72 113.774 102.749C113.474 104.778 113.781 106.851 114.659 108.706C115.536 110.56 116.944 112.113 118.703 113.167C120.463 114.222 122.496 114.731 124.545 114.63C126.594 114.53 128.567 113.823 130.215 112.601C131.863 111.379 133.111 109.696 133.802 107.764C134.493 105.833 134.596 103.74 134.098 101.75C133.767 100.428 133.179 99.1847 132.367 98.0903C131.556 96.996 130.536 96.0723 129.368 95.372C128.199 94.6716 126.904 94.2084 125.556 94.0087C124.208 93.8089 122.834 93.8767 121.513 94.208ZM126.121 109.517L126.546 111.217L125.302 111.529L124.882 109.844C123.536 110.145 122.132 110.03 120.852 109.517L121.149 107.817C122.198 108.259 123.35 108.394 124.472 108.206L123.709 105.175C121.928 105.175 119.982 105.093 119.455 102.984C119.071 101.448 119.854 99.8093 122.163 98.9901L121.733 97.2749L122.977 96.9626L123.397 98.647C124.495 98.4188 125.633 98.4717 126.705 98.8006L126.469 100.485C125.605 100.234 124.698 100.166 123.807 100.285L124.575 103.357C126.362 103.357 128.328 103.414 128.855 105.523C129.239 107.075 128.435 108.692 126.116 109.532L126.121 109.517Z" fill="#E0E0E0"/>
<path d="M79.9284 71.1322C78.523 72.7103 76.6811 73.8362 74.6358 74.3676C72.5905 74.8989 70.4335 74.8119 68.4376 74.1175C66.4417 73.4231 64.6966 72.1525 63.4228 70.4663C62.149 68.7801 61.4038 66.7541 61.2814 64.6444C61.159 62.5348 61.6648 60.4362 62.7351 58.614C63.8053 56.7918 65.3918 55.3278 67.2939 54.4072C69.1961 53.4866 71.3285 53.1507 73.4216 53.442C75.5146 53.7332 77.4743 54.6386 79.0529 56.0435C80.1013 56.9766 80.9557 58.1072 81.5671 59.3705C82.1785 60.6339 82.5351 62.0053 82.6164 63.4065C82.6977 64.8077 82.5021 66.2111 82.0409 67.5367C81.5797 68.8623 80.8619 70.084 79.9284 71.1322Z" fill="#F0F0F0"/>
<path d="M71.9872 61.1789C71.552 61.6909 71.7926 62.2899 72.233 62.9914L73.856 61.1686C73.0265 60.631 72.3917 60.7283 71.9872 61.1789Z" fill="#E0E0E0"/>
<path d="M71.7773 65.1981L70.144 67.0157C70.994 67.5738 71.6237 67.5277 72.0128 67.0618C72.402 66.5958 72.2381 65.9251 71.7773 65.1981Z" fill="#E0E0E0"/>
<path d="M78.0084 57.216C76.6608 56.0177 74.9881 55.246 73.2018 54.9983C71.4156 54.7506 69.596 55.038 67.9731 55.8244C66.3503 56.6107 64.997 57.8606 64.0844 59.4159C63.1718 60.9713 62.7409 62.7624 62.8461 64.5626C62.9513 66.3629 63.588 68.0915 64.6756 69.53C65.7631 70.9685 67.2528 72.0521 68.9562 72.6441C70.6597 73.236 72.5003 73.3095 74.2456 72.8554C75.9908 72.4013 77.5622 71.4399 78.7611 70.0928C79.558 69.1983 80.1708 68.1555 80.5644 67.0239C80.9579 65.8924 81.1245 64.6943 81.0546 63.4983C80.9847 62.3024 80.6797 61.1319 80.157 60.0539C79.6343 58.9759 78.9042 58.0116 78.0084 57.216ZM69.1611 68.137L68.1371 69.2838L67.2974 68.5363L68.3214 67.3997C67.4413 66.5749 66.8294 65.5046 66.5652 64.3277L67.9476 63.703C68.1469 64.6827 68.619 65.5861 69.3095 66.3091L71.1374 64.2611C70.2414 62.9709 69.3505 61.5117 70.6254 60.0883C71.5572 59.0643 73.1291 58.8032 74.8699 60.0883L75.8939 58.9261L76.7335 59.6787L75.7095 60.8154C76.4216 61.5013 76.9497 62.3552 77.2455 63.2986L75.9041 63.959C75.6616 63.2015 75.2621 62.5037 74.7316 61.911L72.8884 63.959C73.7793 65.2493 74.7009 66.7136 73.4311 68.1421C72.4942 69.1866 70.9223 69.4067 69.1611 68.137Z" fill="#E0E0E0"/>
<path d="M128 218.911C182.826 218.911 227.272 216.316 227.272 213.115C227.272 209.914 182.826 207.319 128 207.319C73.1737 207.319 28.7283 209.914 28.7283 213.115C28.7283 216.316 73.1737 218.911 128 218.911Z" fill="#F5F5F5"/>
<path d="M203.776 201.016C203.776 201.016 204.488 195.809 207.816 195.241C211.144 194.673 210.145 192.169 211.011 191.176C211.876 190.182 214.149 193.075 212.204 195.86C210.258 198.646 211.85 197.775 211.011 200.366C210.171 202.957 203.448 205.338 203.776 201.016Z" fill="#263238"/>
<path opacity="0.2" d="M203.776 201.016C203.776 201.016 204.488 195.809 207.816 195.241C211.144 194.673 210.145 192.169 211.011 191.176C211.876 190.182 214.149 193.075 212.204 195.86C210.258 198.646 211.85 197.775 211.011 200.366C210.171 202.957 203.448 205.338 203.776 201.016Z" fill="white"/>
<path d="M204.862 204.575C204.824 204.575 204.788 204.566 204.755 204.548C204.722 204.531 204.693 204.506 204.672 204.475C204.651 204.444 204.638 204.409 204.633 204.372C204.629 204.335 204.633 204.297 204.647 204.262C204.647 204.206 206.695 198.728 204.728 190.382C204.12 187.985 203.262 185.658 202.168 183.439C200.243 179.261 198.584 175.657 201.047 168.924C201.805 166.845 202.583 164.9 203.361 163.021C206.183 156.088 208.415 150.61 206.06 145.541C206.035 145.485 206.033 145.422 206.054 145.365C206.075 145.307 206.117 145.261 206.172 145.234C206.2 145.22 206.23 145.212 206.26 145.211C206.291 145.209 206.321 145.214 206.35 145.224C206.379 145.235 206.405 145.251 206.427 145.272C206.45 145.293 206.467 145.318 206.48 145.347C208.917 150.595 206.654 156.155 203.792 163.195C203.029 165.069 202.256 167.009 201.477 169.083C199.081 175.636 200.627 178.99 202.588 183.245C203.699 185.492 204.574 187.847 205.2 190.275C207.222 198.769 205.118 204.375 205.097 204.431C205.079 204.478 205.046 204.517 205.004 204.543C204.961 204.569 204.911 204.58 204.862 204.575Z" fill="#263238"/>
<path d="M205.824 203.361C205.824 203.361 207.975 200.115 204.867 198.446C201.759 196.777 201.139 198.118 199.235 196.91C197.33 195.702 195.856 192.814 195.528 194.662C195.2 196.511 197.422 197.586 196.634 198.436C195.845 199.286 201.836 204.8 205.824 203.361Z" fill="#263238"/>
<path d="M207.36 148.07C207.36 148.07 208.942 141.548 204.175 141.793C199.409 142.039 205.143 147.569 207.36 148.07Z" fill="#263238"/>
<path d="M203.638 153.288C203.638 153.288 201.759 147.62 198.477 149.11C195.195 150.6 200.279 153.667 203.638 153.288Z" fill="#263238"/>
<path d="M209.408 153.329C209.408 153.329 208.533 148.756 212.106 148.378C215.68 147.999 214.405 152.182 209.408 153.329Z" fill="#263238"/>
<path d="M207.775 162.929C207.775 162.929 212.24 158.259 214.226 161.311C216.213 164.362 210.908 165.453 207.775 162.929Z" fill="#263238"/>
<path d="M199.209 162.852C199.209 162.852 197.734 155.807 194.028 158.346C190.321 160.886 195.881 163.84 199.209 162.852Z" fill="#263238"/>
<path d="M196.608 173.317C196.608 173.317 198.897 165.893 193.638 167.132C188.38 168.371 192.707 171.873 196.608 173.317Z" fill="#263238"/>
<path d="M204.99 175.227C204.99 175.227 209.06 169.564 212.634 170.972C216.207 172.38 213.822 177.869 204.99 175.227Z" fill="#263238"/>
<path d="M201.846 187.295C201.846 187.295 197.33 179.103 194.166 182.236C191.002 185.37 196.9 189.215 201.846 187.295Z" fill="#263238"/>
<path d="M207.36 186.368C207.36 186.368 205.824 179.845 209.654 180.07C213.483 180.296 212.833 184.402 207.36 186.368Z" fill="#263238"/>
<g opacity="0.2">
<path d="M207.36 148.07C207.36 148.07 208.942 141.548 204.175 141.793C199.409 142.039 205.143 147.569 207.36 148.07Z" fill="white"/>
<path d="M203.638 153.288C203.638 153.288 201.759 147.62 198.477 149.11C195.195 150.6 200.279 153.667 203.638 153.288Z" fill="white"/>
<path d="M209.408 153.329C209.408 153.329 208.533 148.756 212.106 148.378C215.68 147.999 214.405 152.182 209.408 153.329Z" fill="white"/>
<path d="M207.775 162.929C207.775 162.929 212.24 158.259 214.226 161.311C216.213 164.362 210.908 165.453 207.775 162.929Z" fill="white"/>
<path d="M199.209 162.852C199.209 162.852 197.734 155.807 194.028 158.346C190.321 160.886 195.881 163.84 199.209 162.852Z" fill="white"/>
<path d="M196.608 173.317C196.608 173.317 198.897 165.893 193.638 167.132C188.38 168.371 192.707 171.873 196.608 173.317Z" fill="white"/>
<path d="M204.99 175.227C204.99 175.227 209.06 169.564 212.634 170.972C216.207 172.38 213.822 177.869 204.99 175.227Z" fill="white"/>
<path d="M201.846 187.295C201.846 187.295 197.33 179.103 194.166 182.236C191.002 185.37 196.9 189.215 201.846 187.295Z" fill="white"/>
<path d="M207.36 186.368C207.36 186.368 205.824 179.845 209.654 180.07C213.483 180.296 212.833 184.402 207.36 186.368Z" fill="white"/>
</g>
<path d="M205.998 156.948H205.952C205.891 156.935 205.838 156.898 205.803 156.846C205.803 156.81 203.684 153.467 202.245 152.75C202.19 152.723 202.148 152.675 202.128 152.617C202.109 152.559 202.113 152.495 202.14 152.44C202.167 152.385 202.215 152.343 202.273 152.324C202.331 152.304 202.395 152.308 202.45 152.335C203.802 153.006 205.573 155.628 206.065 156.39C207.758 155.078 209.186 153.455 210.273 151.608C210.303 151.555 210.353 151.515 210.412 151.498C210.471 151.482 210.534 151.489 210.588 151.519C210.642 151.549 210.681 151.599 210.698 151.658C210.715 151.717 210.708 151.78 210.678 151.834C210.601 151.967 208.814 155.11 206.126 156.908C206.089 156.934 206.044 156.948 205.998 156.948Z" fill="#263238"/>
<path d="M202.348 166.129C202.315 166.126 202.283 166.115 202.255 166.099C202.226 166.082 202.202 166.059 202.184 166.031C202.184 165.996 199.583 162.371 196.552 160.911C196.504 160.88 196.469 160.832 196.454 160.777C196.439 160.722 196.445 160.663 196.47 160.611C196.495 160.56 196.538 160.52 196.59 160.497C196.643 160.475 196.702 160.473 196.756 160.492C199.521 161.838 201.83 164.767 202.429 165.581C206.295 162.278 211.415 161.997 211.466 161.997C211.527 161.995 211.586 162.017 211.631 162.058C211.676 162.1 211.703 162.156 211.707 162.217C211.709 162.247 211.705 162.277 211.695 162.306C211.686 162.334 211.67 162.36 211.65 162.383C211.63 162.405 211.606 162.423 211.579 162.436C211.551 162.449 211.522 162.456 211.492 162.458C211.441 162.458 206.305 162.744 202.547 166.093C202.519 166.113 202.486 166.127 202.451 166.133C202.417 166.14 202.381 166.138 202.348 166.129Z" fill="#263238"/>
<path d="M200.504 178.022C200.458 178.023 200.413 178.009 200.376 177.981C197.304 175.933 194.668 170.368 194.56 170.132C194.534 170.077 194.53 170.014 194.55 169.957C194.57 169.899 194.613 169.852 194.668 169.825C194.695 169.812 194.725 169.804 194.755 169.802C194.786 169.8 194.817 169.805 194.845 169.815C194.874 169.826 194.9 169.842 194.923 169.863C194.945 169.884 194.963 169.91 194.975 169.938C195 169.989 197.612 175.442 200.509 177.51C201.405 176.906 206.428 173.629 210.453 173.23C210.513 173.226 210.572 173.244 210.619 173.283C210.665 173.321 210.696 173.375 210.703 173.435C210.707 173.465 210.704 173.496 210.696 173.525C210.688 173.554 210.674 173.582 210.654 173.606C210.635 173.629 210.612 173.649 210.585 173.664C210.558 173.679 210.529 173.688 210.499 173.691C206.275 174.111 200.694 177.946 200.637 177.981C200.599 178.009 200.552 178.024 200.504 178.022Z" fill="#263238"/>
<path d="M204.861 189.819C204.828 189.82 204.795 189.813 204.764 189.799C204.734 189.785 204.708 189.764 204.687 189.737C202.884 187.894 200.562 186.644 198.031 186.153C198.001 186.147 197.973 186.135 197.948 186.118C197.923 186.1 197.901 186.078 197.885 186.052C197.869 186.026 197.858 185.997 197.853 185.967C197.848 185.937 197.85 185.906 197.857 185.876C197.863 185.847 197.875 185.819 197.892 185.794C197.909 185.77 197.931 185.749 197.956 185.732C197.982 185.716 198.01 185.705 198.039 185.7C198.069 185.695 198.099 185.696 198.129 185.702C200.685 186.205 203.037 187.452 204.887 189.286C206.853 187.75 209.162 182.211 209.188 182.154C209.199 182.126 209.216 182.1 209.237 182.078C209.259 182.057 209.284 182.04 209.313 182.028C209.341 182.017 209.371 182.011 209.402 182.012C209.432 182.012 209.462 182.019 209.49 182.031C209.518 182.043 209.543 182.06 209.564 182.082C209.586 182.103 209.603 182.129 209.614 182.157C209.625 182.185 209.631 182.215 209.631 182.245C209.631 182.276 209.625 182.306 209.613 182.333C209.51 182.579 207.099 188.349 205.005 189.788C204.962 189.815 204.911 189.826 204.861 189.819Z" fill="#263238"/>
<path d="M205.486 202.583C205.486 202.583 207.334 199.644 209.418 199.229C211.502 198.815 212.403 196.408 213.171 197.852C213.939 199.296 211.82 204.083 205.486 202.583Z" fill="#263238"/>
<path d="M215.071 214.118H194.908L193.557 201.687H216.417L215.071 214.118Z" fill="#034EA2"/>
<path d="M216.888 204.042H193.086L192.783 201.405H217.19L216.888 204.042Z" fill="#034EA2"/>
<path opacity="0.3" d="M216.888 204.042H193.086L192.783 201.405H217.19L216.888 204.042Z" fill="white"/>
<path d="M87.9359 73.0726V205.722C87.682 205.72 87.4309 205.669 87.1968 205.57C86.9628 205.472 86.7506 205.328 86.5722 205.147C86.3939 204.966 86.2529 204.752 86.1575 204.517C86.062 204.282 86.0139 204.03 86.0159 203.776V75.0029C86.0159 74.4927 86.2179 74.0033 86.5777 73.6416C86.9374 73.2799 87.4258 73.0754 87.9359 73.0726Z" fill="#263238"/>
<path d="M87.3012 70.5485H85.9752C85.5991 70.5485 85.2942 70.8534 85.2942 71.2294V77.993C85.2942 78.369 85.5991 78.6739 85.9752 78.6739H87.3012C87.6773 78.6739 87.9822 78.369 87.9822 77.993V71.2294C87.9822 70.8534 87.6773 70.5485 87.3012 70.5485Z" fill="#263238"/>
<g opacity="0.4">
<path d="M87.9873 71.2346V77.9981C87.986 78.1778 87.9136 78.3497 87.7861 78.4763C87.6585 78.6029 87.4861 78.6739 87.3064 78.6739H85.9752C85.7954 78.6739 85.623 78.6029 85.4954 78.4763C85.3679 78.3497 85.2955 78.1778 85.2942 77.9981V71.2346C85.2942 71.0535 85.3658 70.8797 85.4933 70.7512C85.6209 70.6227 85.7941 70.5498 85.9752 70.5485H87.3064C87.4874 70.5498 87.6606 70.6227 87.7882 70.7512C87.9157 70.8797 87.9873 71.0535 87.9873 71.2346Z" fill="white"/>
</g>
<g opacity="0.2">
<path d="M87.0094 71.2346V77.9981C87.008 78.1778 86.9357 78.3497 86.8081 78.4763C86.6806 78.6029 86.5081 78.6739 86.3284 78.6739H85.9752C85.7954 78.6739 85.623 78.6029 85.4954 78.4763C85.3679 78.3497 85.2955 78.1778 85.2942 77.9981V71.2346C85.2942 71.0535 85.3658 70.8797 85.4933 70.7512C85.6209 70.6227 85.7941 70.5498 85.9752 70.5485H86.3284C86.5095 70.5498 86.6827 70.6227 86.8103 70.7512C86.9378 70.8797 87.0094 71.0535 87.0094 71.2346Z" fill="white"/>
</g>
<path d="M85.934 77.6448H84.4799C84.1648 77.6455 83.8527 77.584 83.5613 77.4639C83.27 77.3438 83.0053 77.1674 82.7822 76.9448C82.5592 76.7222 82.3822 76.4579 82.2615 76.1668C82.1408 75.8758 82.0786 75.5637 82.0786 75.2486V73.897C82.08 73.261 82.3336 72.6515 82.7837 72.2023C83.2339 71.7531 83.8439 71.5008 84.4799 71.5008H85.9596C86.0125 71.5008 86.0648 71.5113 86.1136 71.5317C86.1624 71.5521 86.2066 71.5819 86.2438 71.6196C86.2809 71.6572 86.3103 71.7018 86.33 71.7509C86.3498 71.7999 86.3596 71.8524 86.3589 71.9053V72.5606C86.3596 72.6135 86.3498 72.666 86.33 72.715C86.3103 72.7641 86.2809 72.8087 86.2438 72.8463C86.2066 72.884 86.1624 72.9138 86.1136 72.9342C86.0648 72.9546 86.0125 72.9651 85.9596 72.9651H84.4799C84.2323 72.9651 83.9947 73.0631 83.8192 73.2377C83.6436 73.4123 83.5443 73.6494 83.5429 73.897V75.264C83.5429 75.3868 83.5672 75.5084 83.6144 75.6218C83.6615 75.7352 83.7306 75.8381 83.8177 75.9247C83.9047 76.0113 84.0081 76.0799 84.1217 76.1264C84.2354 76.1729 84.3571 76.1965 84.4799 76.1958H85.9596C86.066 76.1972 86.1675 76.2404 86.2423 76.3161C86.317 76.3918 86.3589 76.4939 86.3589 76.6003V77.2608C86.357 77.3142 86.3444 77.3666 86.3218 77.415C86.2992 77.4634 86.2672 77.5068 86.2276 77.5426C86.188 77.5784 86.1416 77.6059 86.0911 77.6234C86.0407 77.641 85.9873 77.6483 85.934 77.6448Z" fill="#263238"/>
<g opacity="0.6">
<path d="M85.934 77.6448H84.4799C84.1648 77.6455 83.8527 77.584 83.5613 77.4639C83.27 77.3438 83.0053 77.1674 82.7822 76.9448C82.5592 76.7222 82.3822 76.4579 82.2615 76.1668C82.1408 75.8758 82.0786 75.5637 82.0786 75.2486V73.897C82.08 73.261 82.3336 72.6515 82.7837 72.2023C83.2339 71.7531 83.8439 71.5008 84.4799 71.5008H85.9596C86.0125 71.5008 86.0648 71.5113 86.1136 71.5317C86.1624 71.5521 86.2066 71.5819 86.2438 71.6196C86.2809 71.6572 86.3103 71.7018 86.33 71.7509C86.3498 71.7999 86.3596 71.8524 86.3589 71.9053V72.5606C86.3596 72.6135 86.3498 72.666 86.33 72.715C86.3103 72.7641 86.2809 72.8087 86.2438 72.8463C86.2066 72.884 86.1624 72.9138 86.1136 72.9342C86.0648 72.9546 86.0125 72.9651 85.9596 72.9651H84.4799C84.2323 72.9651 83.9947 73.0631 83.8192 73.2377C83.6436 73.4123 83.5443 73.6494 83.5429 73.897V75.264C83.5429 75.3868 83.5672 75.5084 83.6144 75.6218C83.6615 75.7352 83.7306 75.8381 83.8177 75.9247C83.9047 76.0113 84.0081 76.0799 84.1217 76.1264C84.2354 76.1729 84.3571 76.1965 84.4799 76.1958H85.9596C86.066 76.1972 86.1675 76.2404 86.2423 76.3161C86.317 76.3918 86.3589 76.4939 86.3589 76.6003V77.2608C86.357 77.3142 86.3444 77.3666 86.3218 77.415C86.2992 77.4634 86.2672 77.5068 86.2276 77.5426C86.188 77.5784 86.1416 77.6059 86.0911 77.6234C86.0407 77.641 85.9873 77.6483 85.934 77.6448Z" fill="white"/>
</g>
<path d="M83.5891 199.951L86.6355 201.042V203.141L83.5891 203.74V199.951Z" fill="#263238"/>
<path d="M83.5891 194.002L86.6355 195.098V197.192L83.5891 197.796V194.002Z" fill="#263238"/>
<path d="M83.5891 188.058L86.6355 189.148V191.242L83.5891 191.846V188.058Z" fill="#263238"/>
<path d="M83.5891 182.108L86.6355 183.199V185.298L83.5891 185.897V182.108Z" fill="#263238"/>
<path d="M83.5891 176.159L86.6355 177.254V179.348L83.5891 179.953V176.159Z" fill="#263238"/>
<path d="M83.5891 170.214L86.6355 171.305V173.404L83.5891 174.003V170.214Z" fill="#263238"/>
<path d="M83.5891 164.265L86.6355 165.361V167.455L83.5891 168.059V164.265Z" fill="#263238"/>
<path d="M83.5891 158.321L86.6355 159.411V161.505L83.5891 162.109V158.321Z" fill="#263238"/>
<path d="M83.5891 152.371L86.6355 153.462V155.561L83.5891 156.16V152.371Z" fill="#263238"/>
<path d="M83.5891 146.422L86.6355 147.517V149.612L83.5891 150.216V146.422Z" fill="#263238"/>
<path d="M83.5891 140.477L86.6355 141.568V143.667L83.5891 144.266V140.477Z" fill="#263238"/>
<path d="M83.5891 134.528L86.6355 135.624V137.718L83.5891 138.317V134.528Z" fill="#263238"/>
<path d="M83.5891 128.579L86.6355 129.674V131.768L83.5891 132.372V128.579Z" fill="#263238"/>
<path d="M83.5891 122.634L86.6355 123.725V125.824L83.5891 126.423V122.634Z" fill="#263238"/>
<path d="M83.5891 116.685L86.6355 117.78V119.875L83.5891 120.479V116.685Z" fill="#263238"/>
<path d="M83.5891 110.74L86.6355 111.831V113.925L83.5891 114.529V110.74Z" fill="#263238"/>
<path d="M83.5891 104.791L86.6355 105.887V107.981L83.5891 108.58V104.791Z" fill="#263238"/>
<path d="M83.5891 98.8416L86.6355 99.9373V102.031L83.5891 102.636V98.8416Z" fill="#263238"/>
<path d="M83.5891 92.8973L86.6355 93.9878V96.087L83.5891 96.6861V92.8973Z" fill="#263238"/>
<path d="M83.5891 86.9478L86.6355 88.0435V90.1376L83.5891 90.7366V86.9478Z" fill="#263238"/>
<path d="M83.5891 81.0035L86.6355 82.0941V84.1882L83.5891 84.7923V81.0035Z" fill="#263238"/>
<path d="M84.1472 60.0934H80.4096C80.1434 60.0934 79.9795 60.416 80.0563 60.7898L82.7546 74.4448C82.8211 74.7878 83.0669 75.0541 83.3075 75.0541H85.7805C86.0211 75.0541 86.185 74.7878 86.1491 74.4448L84.7104 60.7898C84.6695 60.416 84.4135 60.0934 84.1472 60.0934ZM84.3213 72.8627C84.3426 72.9997 84.3248 73.1399 84.2701 73.2672C84.1852 73.1462 84.1276 73.0082 84.1011 72.8627L83.9475 71.8387C83.9261 71.7001 83.9438 71.5582 83.9987 71.4291C84.0843 71.5517 84.1419 71.6915 84.1677 71.8387L84.3213 72.8627ZM82.4679 61.353C82.729 61.353 82.9799 61.6499 83.0362 62.0134L83.1898 63.0118C83.2461 63.3754 83.0771 63.6723 82.8211 63.6723C82.56 63.6723 82.3091 63.3754 82.2528 63.0118L82.0992 62.0134C82.0429 61.6499 82.2119 61.353 82.4679 61.353Z" fill="#263238"/>
<path opacity="0.4" d="M84.1472 60.0934H80.4096C80.1434 60.0934 79.9795 60.416 80.0563 60.7898L82.7546 74.4448C82.8211 74.7878 83.0669 75.0541 83.3075 75.0541H85.7805C86.0211 75.0541 86.185 74.7878 86.1491 74.4448L84.7104 60.7898C84.6695 60.416 84.4135 60.0934 84.1472 60.0934ZM84.3213 72.8627C84.3426 72.9997 84.3248 73.1399 84.2701 73.2672C84.1852 73.1462 84.1276 73.0082 84.1011 72.8627L83.9475 71.8387C83.9261 71.7001 83.9438 71.5582 83.9987 71.4291C84.0843 71.5517 84.1419 71.6915 84.1677 71.8387L84.3213 72.8627ZM82.4679 61.353C82.729 61.353 82.9799 61.6499 83.0362 62.0134L83.1898 63.0118C83.2461 63.3754 83.0771 63.6723 82.8211 63.6723C82.56 63.6723 82.3091 63.3754 82.2528 63.0118L82.0992 62.0134C82.0429 61.6499 82.2119 61.353 82.4679 61.353Z" fill="white"/>
<path opacity="0.2" d="M82.7546 74.4448C82.8211 74.7878 83.0669 75.0541 83.3075 75.0541H85.0739C85.3197 75.0541 85.4784 74.7878 85.4426 74.4448L84.0039 60.7898C83.968 60.416 83.7069 60.0934 83.4407 60.0934H80.4096C80.1434 60.0934 79.9795 60.416 80.0563 60.7898L82.7546 74.4448ZM84.3213 72.8627C84.3725 73.2211 84.2138 73.513 83.9578 73.513C83.7018 73.513 83.4458 73.2211 83.3997 72.8627L83.2461 71.8387C83.1898 71.4752 83.3536 71.1834 83.6045 71.1834C83.8554 71.1834 84.1165 71.4752 84.1677 71.8387L84.3213 72.8627ZM81.7613 61.353H82.4679C82.729 61.353 82.9799 61.6499 83.0362 62.0134L83.1898 63.0118C83.2461 63.3754 83.0771 63.6723 82.8211 63.6723H82.1146C81.8535 63.6723 81.6026 63.3754 81.5463 63.0118L81.3927 62.0134C81.3363 61.6499 81.5053 61.353 81.7613 61.353Z" fill="white"/>
<path d="M85.934 76.1805H84.4799C84.3571 76.1812 84.2354 76.1576 84.1217 76.111C84.0081 76.0645 83.9048 75.996 83.8177 75.9094C83.7306 75.8228 83.6615 75.7198 83.6144 75.6064C83.5672 75.493 83.543 75.3714 83.543 75.2486V73.897C83.5436 73.6931 83.611 73.4951 83.7349 73.3333C83.8589 73.1715 84.0324 73.0547 84.229 73.001V72.5504L84.1522 72.3661C84.1522 72.3661 84.1522 72.3661 84.1522 72.3405V72.3149C84.1522 72.2688 84.0703 71.7158 84.0703 71.6698C84.0678 71.6391 84.0678 71.6083 84.0703 71.5776C83.5196 71.6736 83.02 71.9599 82.6588 72.3866C82.2976 72.8133 82.0977 73.3533 82.094 73.9123V75.264C82.094 75.5791 82.1561 75.8911 82.2769 76.1822C82.3976 76.4732 82.5746 76.7376 82.7976 76.9602C83.0207 77.1827 83.2854 77.3591 83.5767 77.4792C83.868 77.5994 84.1802 77.6608 84.4953 77.6602H85.975C86.0809 77.6602 86.1825 77.6181 86.2573 77.5432C86.3322 77.4683 86.3743 77.3667 86.3743 77.2608V76.6003C86.3767 76.5428 86.3668 76.4854 86.3453 76.432C86.3237 76.3785 86.291 76.3304 86.2493 76.2906C86.2076 76.2509 86.1579 76.2205 86.1035 76.2015C86.0492 76.1825 85.9914 76.1753 85.934 76.1805Z" fill="#263238"/>
<g opacity="0.6">
<path d="M85.934 76.1805H84.4799C84.3571 76.1812 84.2354 76.1576 84.1217 76.111C84.0081 76.0645 83.9048 75.996 83.8177 75.9094C83.7306 75.8228 83.6615 75.7198 83.6144 75.6064C83.5672 75.493 83.543 75.3714 83.543 75.2486V73.897C83.5436 73.6931 83.611 73.4951 83.7349 73.3333C83.8589 73.1715 84.0324 73.0547 84.229 73.001V72.5504L84.1522 72.3661C84.1522 72.3661 84.1522 72.3661 84.1522 72.3405V72.3149C84.1522 72.2688 84.0703 71.7158 84.0703 71.6698C84.0678 71.6391 84.0678 71.6083 84.0703 71.5776C83.5196 71.6736 83.02 71.9599 82.6588 72.3866C82.2976 72.8133 82.0977 73.3533 82.094 73.9123V75.264C82.094 75.5791 82.1561 75.8911 82.2769 76.1822C82.3976 76.4732 82.5746 76.7376 82.7976 76.9602C83.0207 77.1827 83.2854 77.3591 83.5767 77.4792C83.868 77.5994 84.1802 77.6608 84.4953 77.6602H85.975C86.0809 77.6602 86.1825 77.6181 86.2573 77.5432C86.3322 77.4683 86.3743 77.3667 86.3743 77.2608V76.6003C86.3767 76.5428 86.3668 76.4854 86.3453 76.432C86.3237 76.3785 86.291 76.3304 86.2493 76.2906C86.2076 76.2509 86.1579 76.2205 86.1035 76.2015C86.0492 76.1825 85.9914 76.1753 85.934 76.1805Z" fill="white"/>
</g>
<path d="M164.429 66.8877H92.3801C89.6711 66.8877 87.4751 69.0837 87.4751 71.7926V209.213C87.4751 211.922 89.6711 214.118 92.3801 214.118H164.429C167.138 214.118 169.334 211.922 169.334 209.213V71.7926C169.334 69.0837 167.138 66.8877 164.429 66.8877Z" fill="#263238"/>
<path opacity="0.3" d="M164.429 66.8877H92.3801C89.6711 66.8877 87.4751 69.0837 87.4751 71.7926V209.213C87.4751 211.922 89.6711 214.118 92.3801 214.118H164.429C167.138 214.118 169.334 211.922 169.334 209.213V71.7926C169.334 69.0837 167.138 66.8877 164.429 66.8877Z" fill="white"/>
<path d="M166.569 71.8182V208.922C166.568 209.188 166.515 209.453 166.411 209.698C166.307 209.944 166.156 210.167 165.965 210.354C165.775 210.541 165.549 210.688 165.301 210.786C165.053 210.885 164.788 210.933 164.521 210.929H92.0576C91.8159 210.932 91.5761 210.887 91.3523 210.796C91.1286 210.704 90.9256 210.569 90.7554 210.397C90.5853 210.226 90.4515 210.021 90.362 209.797C90.2726 209.572 90.2293 209.332 90.2349 209.091V71.68C90.2168 71.2534 90.3681 70.8368 90.6558 70.5213C90.9435 70.2058 91.3443 70.0168 91.7709 69.9955H109.891C110.145 69.9999 110.393 70.0801 110.602 70.2261C110.811 70.372 110.971 70.577 111.063 70.8147L111.811 72.6579C111.902 72.8924 112.062 73.0941 112.269 73.2373C112.476 73.3805 112.721 73.4587 112.973 73.4618H143.872C144.123 73.4605 144.369 73.3843 144.577 73.243C144.785 73.1016 144.946 72.9015 145.039 72.6682L145.787 70.8147C145.879 70.5782 146.039 70.3741 146.246 70.2283C146.454 70.0826 146.7 70.0015 146.954 69.9955H164.818C165.288 70.0166 165.732 70.2175 166.058 70.5568C166.384 70.8961 166.567 71.3478 166.569 71.8182Z" fill="#263238"/>
<path opacity="0.6" d="M128.389 70.144C128.389 70.3465 128.329 70.5445 128.216 70.7129C128.104 70.8813 127.944 71.0126 127.757 71.0901C127.57 71.1676 127.364 71.1878 127.165 71.1483C126.967 71.1088 126.784 71.0113 126.641 70.8681C126.498 70.7249 126.4 70.5424 126.361 70.3438C126.321 70.1451 126.342 69.9392 126.419 69.7521C126.497 69.565 126.628 69.4051 126.796 69.2926C126.965 69.1801 127.163 69.12 127.365 69.12C127.635 69.1265 127.891 69.2365 128.082 69.4271C128.273 69.6178 128.383 69.8745 128.389 70.144Z" fill="white"/>
<path opacity="0.6" d="M130.509 70.144C130.509 70.2767 130.47 70.4063 130.396 70.5166C130.322 70.6269 130.217 70.7129 130.095 70.7637C129.972 70.8144 129.837 70.8277 129.707 70.8018C129.577 70.776 129.458 70.7121 129.364 70.6183C129.27 70.5245 129.206 70.405 129.18 70.2748C129.154 70.1447 129.168 70.0099 129.219 69.8873C129.269 69.7648 129.355 69.66 129.466 69.5863C129.576 69.5126 129.706 69.4733 129.838 69.4733C129.926 69.4726 130.014 69.4895 130.096 69.5229C130.177 69.5564 130.252 69.6058 130.314 69.6682C130.376 69.7306 130.426 69.8048 130.459 69.8865C130.493 69.9682 130.51 70.0557 130.509 70.144Z" fill="white"/>
<path d="M165.468 78.7507H91.3357V204.534H165.468V78.7507Z" fill="#034EA2"/>
<path opacity="0.6" d="M165.468 78.7507H91.3357V204.534H165.468V78.7507Z" fill="white"/>
<path d="M161.439 176.364H95.3652C94.2511 176.364 93.3479 177.267 93.3479 178.381V189.655C93.3479 190.769 94.2511 191.672 95.3652 191.672H161.439C162.553 191.672 163.456 190.769 163.456 189.655V178.381C163.456 177.267 162.553 176.364 161.439 176.364Z" fill="#034EA2"/>
<path d="M161.439 154.271H95.3652C94.2511 154.271 93.3479 155.174 93.3479 156.288V171.74C93.3479 172.854 94.2511 173.757 95.3652 173.757H161.439C162.553 173.757 163.456 172.854 163.456 171.74V156.288C163.456 155.174 162.553 154.271 161.439 154.271Z" fill="white"/>
<path d="M161.439 98.3757H95.3652C94.2511 98.3757 93.3479 99.2789 93.3479 100.393V150.17C93.3479 151.284 94.2511 152.187 95.3652 152.187H161.439C162.553 152.187 163.456 151.284 163.456 150.17V100.393C163.456 99.2789 162.553 98.3757 161.439 98.3757Z" fill="white"/>
<path d="M161.439 81.1469H95.3652C94.2511 81.1469 93.3479 82.05 93.3479 83.1642V94.4384C93.3479 95.5525 94.2511 96.4557 95.3652 96.4557H161.439C162.553 96.4557 163.456 95.5525 163.456 94.4384V83.1642C163.456 82.05 162.553 81.1469 161.439 81.1469Z" fill="#034EA2"/>
<g opacity="0.5">
<path d="M128.932 163.697L129.598 164.065L129.372 164.46L128.691 164.065V164.818H128.246V164.07L127.575 164.46L127.34 164.065L128.01 163.697L127.34 163.323L127.575 162.924L128.246 163.318V162.57H128.691V163.328L129.372 162.929L129.598 163.328L128.932 163.697Z" fill="black"/>
<path d="M131.487 163.697L132.152 164.065L131.922 164.46L131.246 164.065V164.818H130.801V164.07L130.125 164.46L129.895 164.065L130.565 163.697L129.895 163.323L130.125 162.924L130.801 163.318V162.57H131.246V163.328L131.922 162.929L132.152 163.328L131.487 163.697Z" fill="black"/>
<path d="M134.037 163.697L134.707 164.065L134.477 164.46L133.796 164.065V164.818H133.351V164.07L132.675 164.46L132.439 164.065L133.115 163.697L132.455 163.328L132.69 162.929L133.366 163.323V162.575H133.811V163.328L134.492 162.929L134.723 163.328L134.037 163.697Z" fill="black"/>
<path d="M136.591 163.697L137.257 164.065L137.032 164.46L136.351 164.065V164.818H135.905V164.07L135.235 164.46L134.999 164.065L135.67 163.697L134.999 163.323L135.235 162.924L135.905 163.318V162.57H136.351V163.328L137.032 162.929L137.257 163.328L136.591 163.697Z" fill="black"/>
<path d="M140.641 163.697L141.312 164.065L141.082 164.46L140.401 164.065V164.818H139.955V164.07L139.279 164.46L139.044 164.065L139.72 163.697L139.059 163.328L139.295 162.929L139.971 163.323V162.575H140.416V163.328L141.097 162.929L141.327 163.328L140.641 163.697Z" fill="black"/>
<path d="M143.196 163.697L143.862 164.065L143.637 164.46L142.956 164.065V164.818H142.51V164.07L141.84 164.46L141.604 164.065L142.275 163.697L141.604 163.323L141.84 162.924L142.51 163.318V162.57H142.956V163.328L143.637 162.929L143.862 163.328L143.196 163.697Z" fill="black"/>
<path d="M145.746 163.697L146.417 164.065L146.186 164.46L145.505 164.065V164.818H145.06V164.07L144.384 164.46L144.149 164.065L144.825 163.697L144.149 163.323L144.384 162.924L145.06 163.318V162.57H145.505V163.323L146.186 162.924L146.417 163.323L145.746 163.697Z" fill="black"/>
<path d="M148.301 163.697L148.972 164.065L148.741 164.46L148.06 164.065V164.818H147.615V164.07L146.944 164.46L146.708 164.065L147.384 163.697L146.708 163.323L146.944 162.924L147.615 163.318V162.57H148.06V163.328L148.741 162.929L148.972 163.328L148.301 163.697Z" fill="black"/>
<path d="M152.351 163.697L153.022 164.065L152.791 164.46L152.115 164.065V164.818H151.67V164.07L150.994 164.46L150.759 164.065L151.434 163.697L150.759 163.323L150.994 162.924L151.67 163.318V162.57H152.115V163.328L152.791 162.929L153.022 163.328L152.351 163.697Z" fill="black"/>
<path d="M154.906 163.697L155.577 164.065L155.346 164.46L154.665 164.065V164.818H154.22V164.07L153.549 164.46L153.313 164.065L153.989 163.697L153.313 163.323L153.549 162.924L154.22 163.318V162.57H154.665V163.328L155.346 162.929L155.577 163.328L154.906 163.697Z" fill="black"/>
<path d="M157.46 163.697L158.126 164.065L157.901 164.46L157.22 164.065V164.818H156.774V164.07L156.104 164.46L155.868 164.065L156.539 163.697L155.868 163.323L156.104 162.924L156.774 163.318V162.57H157.22V163.328L157.901 162.929L158.126 163.328L157.46 163.697Z" fill="black"/>
</g>
<path d="M109.865 159.56H99.9169C99.1817 159.56 98.5857 160.156 98.5857 160.891V166.584C98.5857 167.32 99.1817 167.916 99.9169 167.916H109.865C110.6 167.916 111.196 167.32 111.196 166.584V160.891C111.196 160.156 110.6 159.56 109.865 159.56Z" fill="#034EA2"/>
<g opacity="0.5">
<path d="M111.196 164.065H98.5857V166.149H111.196V164.065Z" fill="black"/>
</g>
<g opacity="0.5">
<path d="M110.182 162.575C110.183 162.7 110.147 162.822 110.079 162.927C110.01 163.031 109.912 163.112 109.797 163.161C109.682 163.209 109.555 163.222 109.433 163.199C109.31 163.175 109.198 163.115 109.109 163.028C109.021 162.94 108.96 162.828 108.935 162.705C108.911 162.583 108.923 162.456 108.97 162.341C109.018 162.225 109.099 162.127 109.202 162.057C109.306 161.988 109.428 161.951 109.553 161.951C109.719 161.951 109.878 162.016 109.996 162.133C110.114 162.25 110.181 162.409 110.182 162.575Z" fill="black"/>
</g>
<path d="M109.363 162.575C109.364 162.7 109.328 162.822 109.26 162.927C109.191 163.031 109.093 163.112 108.978 163.161C108.863 163.209 108.736 163.222 108.614 163.199C108.491 163.175 108.379 163.115 108.29 163.028C108.201 162.94 108.141 162.828 108.116 162.705C108.092 162.583 108.104 162.456 108.151 162.341C108.199 162.225 108.279 162.127 108.383 162.057C108.487 161.988 108.609 161.951 108.733 161.951C108.9 161.951 109.059 162.016 109.177 162.133C109.295 162.25 109.362 162.409 109.363 162.575Z" fill="white"/>
<path d="M104.576 86.4256L103.194 90.5216H102.738L101.535 87.04L100.352 90.5267H99.8963L98.5139 86.4307H98.9594L100.142 89.9533L101.371 86.4307H101.775L102.979 89.9738L104.182 86.4307L104.576 86.4256Z" fill="black"/>
<path d="M103.368 90.7674H102.564L101.535 87.7773L100.5 90.7674H99.7018L98.1555 86.1798H99.1181L100.127 89.1955L101.176 86.1798H101.929L102.958 89.2109L103.987 86.1798H104.919L103.368 90.7674Z" fill="white"/>
<path d="M107.366 88.617V90.5267H106.972V90.0454C106.857 90.2182 106.697 90.3568 106.51 90.4469C106.322 90.5369 106.114 90.5751 105.907 90.5574C105.211 90.5574 104.786 90.1939 104.786 89.6614C104.786 89.129 105.088 88.791 105.974 88.791H106.952V88.576C106.952 88.064 106.655 87.7619 106.081 87.7619C105.708 87.7602 105.346 87.8887 105.057 88.1254L104.873 87.8131C105.231 87.5343 105.674 87.3878 106.127 87.3984C106.294 87.3752 106.463 87.3905 106.623 87.4432C106.782 87.4959 106.927 87.5846 107.047 87.7024C107.167 87.8201 107.258 87.9639 107.313 88.1225C107.369 88.2811 107.387 88.4502 107.366 88.617ZM106.952 89.6V89.088H105.984C105.39 89.088 105.195 89.3235 105.195 89.641C105.195 89.9584 105.482 90.2195 105.974 90.2195C106.181 90.233 106.388 90.1803 106.564 90.069C106.739 89.9577 106.875 89.7935 106.952 89.6Z" fill="black"/>
<path d="M105.907 90.7981C105.088 90.7981 104.54 90.3373 104.54 89.6563C104.54 89.3235 104.679 88.5402 105.974 88.5402H106.706C106.706 88.2893 106.599 88.0282 106.081 88.0282C105.766 88.0237 105.46 88.1307 105.216 88.3302L104.996 88.5248L104.551 87.7824L104.709 87.6493C105.111 87.331 105.61 87.1626 106.122 87.1731C106.32 87.1495 106.52 87.1702 106.708 87.2338C106.897 87.2973 107.068 87.402 107.211 87.5403C107.354 87.6787 107.464 87.8471 107.533 88.0333C107.603 88.2196 107.63 88.419 107.612 88.617V90.7674H106.727V90.624C106.472 90.7494 106.191 90.8093 105.907 90.7981ZM105.984 89.3389C105.436 89.3389 105.436 89.5386 105.436 89.6461C105.436 89.9379 105.774 89.984 105.948 89.984C106.1 89.9939 106.251 89.9576 106.382 89.8799C106.513 89.8022 106.617 89.6868 106.68 89.5488V89.3389H105.984Z" fill="white"/>
<path d="M108.498 86.1747H108.913V90.5267H108.498V86.1747Z" fill="black"/>
<path d="M109.158 85.9341H108.252V90.7674H109.158V85.9341Z" fill="white"/>
<path d="M110.08 86.1747H110.5V90.5267H110.08V86.1747Z" fill="black"/>
<path d="M110.735 85.9341H109.829V90.7674H110.735V85.9341Z" fill="white"/>
<path d="M114.33 89.1136H111.77C111.778 89.2639 111.816 89.411 111.882 89.5463C111.948 89.6817 112.04 89.8027 112.153 89.9023C112.266 90.0018 112.397 90.0779 112.54 90.1263C112.682 90.1746 112.833 90.1941 112.983 90.1837C113.16 90.1894 113.336 90.1562 113.499 90.0863C113.662 90.0164 113.807 89.9116 113.925 89.7792L114.161 90.0506C113.939 90.2818 113.654 90.4427 113.342 90.5133C113.029 90.5839 112.703 90.561 112.403 90.4475C112.103 90.334 111.844 90.1349 111.657 89.8749C111.469 89.615 111.363 89.3057 111.35 88.9856C111.338 88.7794 111.37 88.5732 111.443 88.3799C111.515 88.1867 111.627 88.0107 111.772 87.8632C111.917 87.7158 112.09 87.6001 112.282 87.5236C112.474 87.4471 112.679 87.4114 112.886 87.4189C113.089 87.4156 113.291 87.4545 113.478 87.5331C113.665 87.6117 113.834 87.7283 113.974 87.8755C114.114 88.0227 114.222 88.1974 114.291 88.3885C114.36 88.5795 114.389 88.7829 114.376 88.9856C114.335 89.0214 114.33 89.088 114.33 89.1136ZM111.77 88.8013H113.956C113.937 88.5243 113.813 88.2648 113.611 88.0753C113.408 87.8858 113.14 87.7805 112.863 87.7805C112.585 87.7805 112.318 87.8858 112.115 88.0753C111.912 88.2648 111.789 88.5243 111.77 88.8013Z" fill="black"/>
<path d="M112.952 90.7981C112.71 90.8079 112.468 90.768 112.242 90.6809C112.016 90.5938 111.81 90.4612 111.636 90.2914C111.463 90.1216 111.327 89.9182 111.235 89.6936C111.144 89.469 111.099 89.2281 111.104 88.9856C111.091 88.7487 111.127 88.5117 111.209 88.289C111.29 88.0663 111.417 87.8627 111.58 87.6904C111.743 87.5182 111.94 87.381 112.158 87.2873C112.375 87.1935 112.61 87.1452 112.847 87.1452C113.085 87.1452 113.319 87.1935 113.537 87.2873C113.755 87.381 113.952 87.5182 114.115 87.6904C114.278 87.8627 114.404 88.0663 114.486 88.289C114.568 88.5117 114.604 88.7487 114.591 88.9856V89.3542H112.067C112.135 89.5385 112.261 89.6955 112.427 89.8017C112.592 89.9079 112.787 89.9575 112.983 89.943C113.125 89.948 113.267 89.9216 113.398 89.8659C113.529 89.8102 113.646 89.7264 113.741 89.6205L113.925 89.4106L114.478 90.0454L114.345 90.2093C114.171 90.405 113.956 90.5594 113.715 90.6612C113.474 90.7631 113.214 90.8099 112.952 90.7981ZM112.056 88.576H113.664C113.601 88.4192 113.491 88.2858 113.349 88.1941C113.206 88.1025 113.039 88.057 112.871 88.064C112.698 88.051 112.526 88.0937 112.379 88.1859C112.233 88.2781 112.119 88.4148 112.056 88.576Z" fill="white"/>
<path d="M116.808 90.3373C116.624 90.485 116.393 90.5614 116.157 90.5523C116.036 90.5661 115.913 90.5524 115.798 90.5123C115.683 90.4722 115.578 90.4067 115.492 90.3207C115.405 90.2347 115.339 90.1303 115.298 90.0153C115.258 89.9003 115.243 89.7776 115.256 89.6563V87.7926H114.688V87.4445H115.241V86.7686H115.656V87.4445H116.593V87.7926H115.656V89.6358C115.649 89.7069 115.658 89.7784 115.681 89.846C115.703 89.9135 115.74 89.9755 115.788 90.0281C115.837 90.0806 115.895 90.1225 115.96 90.151C116.026 90.1796 116.096 90.1942 116.168 90.1939C116.333 90.198 116.494 90.1436 116.623 90.0403L116.808 90.3373Z" fill="black"/>
<path d="M116.157 90.7981C116.004 90.8112 115.849 90.7908 115.705 90.7381C115.56 90.6855 115.428 90.6019 115.319 90.4932C115.21 90.3845 115.126 90.2533 115.072 90.1088C115.019 89.9643 114.998 89.8099 115.01 89.6563V88.064H114.458V87.2243H115.01V86.528H115.917V87.2038H116.854V88.064H115.917V89.6614C115.917 89.9226 116.029 89.9789 116.203 89.9789C116.309 89.9831 116.413 89.9485 116.495 89.8816L116.736 89.6666L117.11 90.4192L116.971 90.5472C116.738 90.7236 116.45 90.8124 116.157 90.7981Z" fill="white"/>
<path d="M158.525 86.8506H153.472C153.395 86.8744 153.314 86.8798 153.235 86.8665C153.156 86.8532 153.081 86.8214 153.016 86.7739C152.952 86.7263 152.899 86.6642 152.863 86.5926C152.827 86.521 152.808 86.4418 152.808 86.3616C152.808 86.2814 152.827 86.2023 152.863 86.1306C152.899 86.059 152.952 85.9969 153.016 85.9494C153.081 85.9018 153.156 85.87 153.235 85.8567C153.314 85.8434 153.395 85.8488 153.472 85.8726H158.525C158.602 85.8488 158.683 85.8434 158.762 85.8567C158.841 85.87 158.916 85.9018 158.981 85.9494C159.046 85.9969 159.098 86.059 159.134 86.1306C159.17 86.2023 159.189 86.2814 159.189 86.3616C159.189 86.4418 159.17 86.521 159.134 86.5926C159.098 86.6642 159.046 86.7263 158.981 86.7739C158.916 86.8214 158.841 86.8532 158.762 86.8665C158.683 86.8798 158.602 86.8744 158.525 86.8506Z" fill="white"/>
<path d="M158.525 91.7299H153.472C153.395 91.7552 153.313 91.7619 153.233 91.7494C153.153 91.737 153.077 91.7057 153.012 91.6583C152.946 91.6108 152.893 91.5484 152.856 91.4764C152.819 91.4043 152.8 91.3245 152.8 91.2435C152.8 91.1626 152.819 91.0828 152.856 91.0107C152.893 90.9386 152.946 90.8763 153.012 90.8288C153.077 90.7813 153.153 90.7501 153.233 90.7376C153.313 90.7252 153.395 90.7318 153.472 90.7571H158.525C158.602 90.7318 158.684 90.7252 158.764 90.7376C158.844 90.7501 158.92 90.7813 158.985 90.8288C159.051 90.8763 159.104 90.9386 159.141 91.0107C159.178 91.0828 159.197 91.1626 159.197 91.2435C159.197 91.3245 159.178 91.4043 159.141 91.4764C159.104 91.5484 159.051 91.6108 158.985 91.6583C158.92 91.7057 158.844 91.737 158.764 91.7494C158.684 91.7619 158.602 91.7552 158.525 91.7299Z" fill="white"/>
<path d="M158.525 89.2928H153.472C153.395 89.3166 153.314 89.3221 153.235 89.3087C153.156 89.2954 153.081 89.2637 153.016 89.2161C152.952 89.1685 152.899 89.1064 152.863 89.0348C152.827 88.9632 152.808 88.8841 152.808 88.8038C152.808 88.7236 152.827 88.6445 152.863 88.5729C152.899 88.5013 152.952 88.4392 153.016 88.3916C153.081 88.344 153.156 88.3123 153.235 88.299C153.314 88.2856 153.395 88.2911 153.472 88.3149H158.525C158.602 88.2911 158.683 88.2856 158.762 88.299C158.841 88.3123 158.916 88.344 158.981 88.3916C159.046 88.4392 159.098 88.5013 159.134 88.5729C159.17 88.6445 159.189 88.7236 159.189 88.8038C159.189 88.8841 159.17 88.9632 159.134 89.0348C159.098 89.1064 159.046 89.1685 158.981 89.2161C158.916 89.2637 158.841 89.2954 158.762 89.3087C158.683 89.3221 158.602 89.3166 158.525 89.2928Z" fill="white"/>
<g opacity="0.3">
<path d="M121.114 130.493H99.5584C99.3914 130.504 99.2239 130.481 99.0664 130.424C98.9089 130.368 98.7646 130.28 98.6425 130.165C98.5204 130.051 98.423 129.912 98.3565 129.759C98.2899 129.605 98.2556 129.44 98.2556 129.272C98.2556 129.105 98.2899 128.939 98.3565 128.786C98.423 128.632 98.5204 128.494 98.6425 128.38C98.7646 128.265 98.9089 128.177 99.0664 128.12C99.2239 128.064 99.3914 128.04 99.5584 128.051H121.114C121.424 128.071 121.715 128.209 121.927 128.435C122.14 128.662 122.258 128.961 122.258 129.272C122.258 129.583 122.14 129.882 121.927 130.109C121.715 130.336 121.424 130.473 121.114 130.493Z" fill="black"/>
<path d="M130.391 137.329H99.5584C99.3914 137.339 99.2239 137.316 99.0664 137.259C98.9089 137.203 98.7646 137.115 98.6425 137C98.5204 136.886 98.423 136.748 98.3565 136.594C98.2899 136.44 98.2556 136.275 98.2556 136.108C98.2556 135.94 98.2899 135.775 98.3565 135.621C98.423 135.467 98.5204 135.329 98.6425 135.215C98.7646 135.1 98.9089 135.012 99.0664 134.956C99.2239 134.899 99.3914 134.876 99.5584 134.886H130.391C130.701 134.907 130.992 135.044 131.205 135.271C131.417 135.497 131.536 135.797 131.536 136.108C131.536 136.418 131.417 136.718 131.205 136.944C130.992 137.171 130.701 137.309 130.391 137.329Z" fill="black"/>
<path d="M157.246 137.329H148.874C148.564 137.309 148.273 137.171 148.061 136.944C147.848 136.718 147.73 136.418 147.73 136.108C147.73 135.797 147.848 135.497 148.061 135.271C148.273 135.044 148.564 134.907 148.874 134.886H157.246C157.413 134.876 157.58 134.899 157.738 134.956C157.895 135.012 158.039 135.1 158.161 135.215C158.284 135.329 158.381 135.467 158.447 135.621C158.514 135.775 158.548 135.94 158.548 136.108C158.548 136.275 158.514 136.44 158.447 136.594C158.381 136.748 158.284 136.886 158.161 137C158.039 137.115 157.895 137.203 157.738 137.259C157.58 137.316 157.413 137.339 157.246 137.329Z" fill="black"/>
<path d="M113.792 142.213H99.5584C99.3914 142.224 99.2239 142.2 99.0664 142.144C98.9089 142.087 98.7646 141.999 98.6425 141.885C98.5204 141.77 98.423 141.632 98.3565 141.479C98.2899 141.325 98.2556 141.159 98.2556 140.992C98.2556 140.825 98.2899 140.659 98.3565 140.506C98.423 140.352 98.5204 140.214 98.6425 140.099C98.7646 139.985 98.9089 139.897 99.0664 139.84C99.2239 139.784 99.3914 139.76 99.5584 139.771H113.792C114.102 139.791 114.393 139.928 114.606 140.155C114.818 140.382 114.937 140.681 114.937 140.992C114.937 141.303 114.818 141.602 114.606 141.829C114.393 142.056 114.102 142.193 113.792 142.213Z" fill="black"/>
<path d="M157.246 142.213H145.47C145.159 142.193 144.868 142.056 144.656 141.829C144.443 141.602 144.325 141.303 144.325 140.992C144.325 140.681 144.443 140.382 144.656 140.155C144.868 139.928 145.159 139.791 145.47 139.771H157.246C157.413 139.76 157.58 139.784 157.738 139.84C157.895 139.897 158.039 139.985 158.161 140.099C158.284 140.214 158.381 140.352 158.447 140.506C158.514 140.659 158.548 140.825 158.548 140.992C158.548 141.159 158.514 141.325 158.447 141.479C158.381 141.632 158.284 141.77 158.161 141.885C158.039 141.999 157.895 142.087 157.738 142.144C157.58 142.2 157.413 142.224 157.246 142.213Z" fill="black"/>
<path d="M127.488 147.092H99.584C99.2609 147.092 98.9509 146.964 98.7224 146.736C98.4939 146.507 98.3655 146.197 98.3655 145.874C98.3655 145.551 98.4939 145.241 98.7224 145.012C98.9509 144.784 99.2609 144.655 99.584 144.655H127.488C127.811 144.655 128.121 144.784 128.35 145.012C128.578 145.241 128.707 145.551 128.707 145.874C128.707 146.197 128.578 146.507 128.35 146.736C128.121 146.964 127.811 147.092 127.488 147.092Z" fill="black"/>
<path d="M157.246 147.092H150.339C150.015 147.092 149.706 146.964 149.477 146.736C149.248 146.507 149.12 146.197 149.12 145.874C149.12 145.551 149.248 145.241 149.477 145.012C149.706 144.784 150.015 144.655 150.339 144.655H157.246C157.569 144.655 157.879 144.784 158.107 145.012C158.336 145.241 158.464 145.551 158.464 145.874C158.464 146.197 158.336 146.507 158.107 146.736C157.879 146.964 157.569 147.092 157.246 147.092Z" fill="black"/>
</g>
<path d="M135.788 121.165C139.867 117.086 139.867 110.473 135.788 106.394C131.709 102.315 125.096 102.315 121.017 106.394C116.938 110.473 116.938 117.086 121.017 121.165C125.096 125.244 131.709 125.244 135.788 121.165Z" fill="#034EA2"/>
<path d="M130.34 116.388C129.959 116.385 129.583 116.3 129.239 116.137C128.895 115.975 128.59 115.739 128.346 115.447C128.102 115.154 127.925 114.812 127.828 114.444C127.73 114.076 127.713 113.691 127.78 113.316C127.914 112.699 128.259 112.149 128.755 111.759C129.251 111.37 129.868 111.165 130.499 111.181H133.386C133.402 111.181 133.418 111.174 133.43 111.163C133.441 111.151 133.448 111.136 133.448 111.119V109.583C133.448 109.41 133.379 109.243 133.256 109.12C133.133 108.997 132.966 108.928 132.792 108.928H123.392C123.306 108.928 123.221 108.945 123.142 108.978C123.063 109.011 122.991 109.059 122.93 109.12C122.87 109.181 122.822 109.253 122.79 109.333C122.757 109.412 122.741 109.498 122.742 109.583V118.011C122.742 118.184 122.81 118.35 122.932 118.472C123.054 118.595 123.219 118.665 123.392 118.666H132.762C132.935 118.666 133.102 118.597 133.225 118.474C133.348 118.351 133.417 118.185 133.417 118.011V116.475C133.416 116.459 133.409 116.444 133.398 116.433C133.386 116.421 133.371 116.415 133.355 116.413L130.34 116.388Z" fill="white"/>
<path d="M133.391 112.01H130.319C130.087 112.01 129.856 112.056 129.641 112.145C129.427 112.234 129.231 112.365 129.067 112.529C128.902 112.694 128.772 112.889 128.683 113.104C128.594 113.319 128.548 113.549 128.548 113.782C128.548 114.014 128.594 114.245 128.683 114.46C128.772 114.675 128.902 114.87 129.067 115.034C129.231 115.199 129.427 115.329 129.641 115.418C129.856 115.507 130.087 115.553 130.319 115.553H133.391C133.565 115.553 133.732 115.484 133.855 115.361C133.978 115.238 134.047 115.072 134.047 114.898V112.64C134.041 112.47 133.97 112.309 133.847 112.192C133.725 112.074 133.561 112.009 133.391 112.01ZM130.447 114.442C130.316 114.442 130.187 114.403 130.077 114.33C129.967 114.256 129.882 114.152 129.832 114.03C129.782 113.908 129.769 113.774 129.795 113.645C129.821 113.516 129.885 113.397 129.979 113.304C130.072 113.211 130.191 113.148 130.321 113.123C130.45 113.098 130.584 113.112 130.706 113.163C130.827 113.214 130.931 113.3 131.003 113.411C131.076 113.521 131.114 113.65 131.113 113.782C131.113 113.869 131.096 113.955 131.062 114.036C131.029 114.116 130.98 114.189 130.918 114.251C130.856 114.312 130.782 114.361 130.702 114.393C130.621 114.426 130.535 114.443 130.447 114.442Z" fill="white"/>
<path opacity="0.6" d="M98.6522 75.4995H99.5942V74.2451H98.6522V75.4995Z" fill="white"/>
<path opacity="0.6" d="M97.1111 75.4995H98.0532V73.8253H97.1111V75.4995Z" fill="white"/>
<path opacity="0.6" d="M95.575 75.4995H96.5171V73.4054H95.575V75.4995Z" fill="white"/>
<path opacity="0.6" d="M94.0391 75.4995H94.9812V72.9856H94.0391V75.4995Z" fill="white"/>
<path opacity="0.6" d="M157.927 73.7843H157.368V75.0387H157.927V73.7843Z" fill="white"/>
<path opacity="0.6" d="M158.31 75.4995H162.765V73.3235H158.31V75.4995Z" fill="white"/>
<path opacity="0.1" d="M162.616 69.975C155.863 88.6835 133.893 140.063 90.2349 161.019V71.68C90.2168 71.2534 90.3681 70.8368 90.6558 70.5213C90.9435 70.2058 91.3443 70.0168 91.7709 69.9955H109.891C110.145 69.9999 110.393 70.0801 110.602 70.2261C110.811 70.372 110.971 70.577 111.063 70.8147L111.811 72.6579C111.902 72.8924 112.062 73.0941 112.269 73.2373C112.476 73.3805 112.721 73.4587 112.973 73.4618H143.872C144.123 73.4605 144.369 73.3843 144.577 73.243C144.785 73.1016 144.946 72.9015 145.039 72.6682L145.787 70.8147C145.879 70.5782 146.039 70.3741 146.246 70.2283C146.454 70.0826 146.7 70.0015 146.954 69.9955L162.616 69.975Z" fill="white"/>
<path opacity="0.1" d="M166.335 137V208.731C166.334 208.998 166.28 209.262 166.177 209.508C166.073 209.754 165.921 209.977 165.731 210.163C165.54 210.35 165.314 210.497 165.066 210.596C164.818 210.695 164.553 210.743 164.287 210.738H91.8232C91.5816 210.742 91.3417 210.696 91.118 210.605C90.8942 210.514 90.6912 210.378 90.521 210.207C90.3509 210.035 90.2171 209.831 90.1276 209.606C90.0382 209.382 89.9949 209.142 90.0005 208.9V176.27C110.168 149.723 144.825 140.318 166.335 137Z" fill="white"/>
<path d="M204.478 54.1133H189.768C189.173 54.1133 188.584 54.2305 188.035 54.4583C187.485 54.6861 186.986 55.0199 186.566 55.4407C186.145 55.8616 185.812 56.3611 185.585 56.9108C185.358 57.4606 185.241 58.0497 185.242 58.6445V71.4445C185.241 72.0393 185.358 72.6284 185.585 73.1781C185.812 73.7278 186.145 74.2274 186.566 74.6482C186.986 75.069 187.485 75.4029 188.035 75.6307C188.584 75.8584 189.173 75.9757 189.768 75.9757H194.048L190.464 83.0874L197.12 75.9757H204.488C205.69 75.9757 206.842 75.4983 207.692 74.6485C208.542 73.7988 209.019 72.6462 209.019 71.4445V58.6445C209.019 58.0486 208.901 57.4585 208.673 56.9081C208.445 56.3577 208.11 55.8577 207.688 55.4368C207.266 55.0159 206.766 54.6824 206.215 54.4553C205.664 54.2281 205.073 54.1119 204.478 54.1133Z" fill="#034EA2"/>
<path opacity="0.7" d="M204.478 54.1133H189.768C189.173 54.1133 188.584 54.2305 188.035 54.4583C187.485 54.6861 186.986 55.0199 186.566 55.4407C186.145 55.8616 185.812 56.3611 185.585 56.9108C185.358 57.4606 185.241 58.0497 185.242 58.6445V71.4445C185.241 72.0393 185.358 72.6284 185.585 73.1781C185.812 73.7278 186.145 74.2274 186.566 74.6482C186.986 75.069 187.485 75.4029 188.035 75.6307C188.584 75.8584 189.173 75.9757 189.768 75.9757H194.048L190.464 83.0874L197.12 75.9757H204.488C205.69 75.9757 206.842 75.4983 207.692 74.6485C208.542 73.7988 209.019 72.6462 209.019 71.4445V58.6445C209.019 58.0486 208.901 57.4585 208.673 56.9081C208.445 56.3577 208.11 55.8577 207.688 55.4368C207.266 55.0159 206.766 54.6824 206.215 54.4553C205.664 54.2281 205.073 54.1119 204.478 54.1133Z" fill="white"/>
<path d="M196.357 68.2496C196.26 68.2498 196.164 68.2289 196.075 68.1882C195.987 68.1476 195.908 68.0881 195.845 68.0141L192.983 64.64C192.926 64.5728 192.883 64.4949 192.856 64.4109C192.829 64.3269 192.818 64.2384 192.825 64.1505C192.833 64.0625 192.857 63.9768 192.897 63.8983C192.937 63.8198 192.993 63.7499 193.06 63.6928C193.127 63.6356 193.205 63.5923 193.289 63.5652C193.373 63.5382 193.462 63.5279 193.55 63.535C193.637 63.5422 193.723 63.5665 193.802 63.6068C193.88 63.647 193.95 63.7024 194.007 63.7696L196.362 66.5446L200.248 61.9366C200.364 61.8008 200.529 61.7165 200.706 61.7021C200.884 61.6877 201.06 61.7444 201.196 61.8598C201.331 61.9753 201.416 62.1399 201.43 62.3175C201.445 62.4952 201.388 62.6712 201.272 62.807L196.874 67.9885C196.813 68.0673 196.734 68.1316 196.645 68.1768C196.556 68.2219 196.457 68.2468 196.357 68.2496Z" fill="white"/>
<path d="M202.286 70.1508C205.137 67.2995 205.137 62.6767 202.286 59.8254C199.435 56.9742 194.812 56.9742 191.961 59.8254C189.109 62.6767 189.109 67.2995 191.961 70.1508C194.812 73.002 199.435 73.002 202.286 70.1508Z" fill="#034EA2"/>
<path d="M186.092 100.951C187.73 104.678 189.573 109.143 191.616 112.338C191.423 112.217 191.203 112.145 190.976 112.128C190.505 112.128 190.464 112.282 190.536 112.236C191.324 111.724 191.934 110.807 192.584 109.891C193.713 108.197 194.756 106.447 195.707 104.648C195.853 104.373 196.097 104.163 196.391 104.06C196.684 103.956 197.006 103.967 197.292 104.091C197.578 104.214 197.807 104.44 197.933 104.725C198.06 105.009 198.075 105.331 197.975 105.626C197.258 107.668 196.403 109.659 195.415 111.585C194.391 113.592 192.205 117.325 189.379 115.548C187.925 114.442 187.11 112.835 186.184 111.452C184.504 108.703 182.999 105.912 181.545 103.04C180.117 99.968 184.617 97.8483 186.071 100.951H186.092Z" fill="#BE7545"/>
<path d="M184.643 99.2666C186.875 99.4048 190.607 106.435 190.607 106.435L183.767 111.503C183.767 111.503 182.549 101.13 182.549 101.115C182.549 101.1 184.643 99.2666 184.643 99.2666Z" fill="#263238"/>
<path opacity="0.7" d="M190.607 106.45L187.203 108.974L184.832 110.72L183.757 111.519C183.757 111.519 183.02 105.252 182.697 102.456C182.6 101.652 182.538 101.135 182.538 101.13C182.538 101.125 184.632 99.2717 184.632 99.2717C186.476 99.3843 189.348 104.218 190.29 105.892C190.495 106.24 190.607 106.45 190.607 106.45Z" fill="white"/>
<path d="M190.602 105.702L191.565 106.798L185.318 111.519L184.243 109.706L190.602 105.702Z" fill="#263238"/>
<path opacity="0.8" d="M191.56 106.798L187.423 109.926L185.318 111.519L184.842 110.72L184.243 109.706L186.88 108.042L190.3 105.892L190.602 105.702L191.56 106.798Z" fill="white"/>
<path d="M191.575 104.207C191.562 104.254 191.56 104.303 191.567 104.352C191.575 104.4 191.594 104.445 191.621 104.486C191.648 104.526 191.684 104.56 191.725 104.585C191.767 104.611 191.813 104.627 191.862 104.632L195.63 105.144C195.735 105.158 195.841 105.132 195.929 105.073C196.017 105.014 196.08 104.924 196.106 104.822L197.97 97.5104C197.984 97.4603 197.987 97.4079 197.981 97.3564C197.974 97.3049 197.957 97.2552 197.931 97.2103C197.904 97.1655 197.869 97.1263 197.828 97.0952C197.786 97.0641 197.739 97.0416 197.688 97.0291L193.92 96.5171C193.81 96.5196 193.704 96.5573 193.618 96.6246C193.531 96.6919 193.468 96.7852 193.439 96.8909L191.575 104.207Z" fill="#263238"/>
<path opacity="0.5" d="M193.864 96.9011L192 104.284C191.982 104.326 191.974 104.372 191.978 104.418C191.981 104.464 191.995 104.508 192.019 104.548C192.043 104.587 192.077 104.62 192.116 104.643C192.155 104.667 192.2 104.681 192.246 104.684L195.441 105.119C195.656 105.149 196.06 105.083 196.117 104.878L198.001 97.4643C198.057 97.2544 197.714 97.0394 197.489 97.0086L194.294 96.5683C194.193 96.5566 194.091 96.5849 194.011 96.6471C193.931 96.7093 193.878 96.8005 193.864 96.9011Z" fill="white"/>
<path d="M198.077 105.38L197.606 101.13L194.847 104.335C194.847 104.335 194.253 107.08 196.746 106.895L198.077 105.38Z" fill="#BE7545"/>
<path d="M194.924 100.332L194.012 103.455L194.847 104.335L197.606 101.13L194.924 100.332Z" fill="#BE7545"/>
<path opacity="0.1" d="M188.585 109.056L185.344 111.519L184.868 110.72L183.793 111.519C183.793 111.519 183.055 105.252 182.733 102.456C183.327 102.953 187.996 103.66 188.585 109.056Z" fill="black"/>
<path d="M169.882 176.579L171.254 179.2C171.254 179.2 172.431 178.575 174.3 177.551C174.838 177.26 175.432 176.937 176.067 176.579C177.838 175.606 179.963 174.423 182.211 173.153L183.68 172.308C191.468 167.849 197.852 163.569 197.852 161.229C197.852 157.307 195.011 149.847 190.996 142.382C188.314 137.395 186.081 133.381 186.081 133.381L176.548 139.218C176.548 139.218 179.794 143.56 183.122 148.342C187.003 153.917 190.991 160.082 190.08 160.696C189.384 161.162 185.836 163.937 181.914 167.04L181.202 167.598C179.087 169.272 176.901 171.003 175.017 172.503L173.481 173.706L169.882 176.579Z" fill="#BE7545"/>
<path opacity="0.2" d="M176.543 139.218C176.543 139.218 179.789 143.56 183.117 148.342L190.976 142.382C188.293 137.395 186.061 133.381 186.061 133.381L176.543 139.218Z" fill="black"/>
<path opacity="0.2" d="M173.491 173.706L174.3 177.551C176.645 176.271 180.076 174.377 183.675 172.308C183.066 170.455 182.364 168.366 181.908 167.04C178.98 169.349 175.836 171.848 173.491 173.706Z" fill="black"/>
<path d="M165.678 144.067L167.516 149.668L167.89 150.82L170.691 159.345L171.008 160.323L172.862 165.955L175.012 172.508L176.005 175.539C176.005 175.882 176.041 176.23 176.067 176.563C177.009 191.043 184.551 209.966 184.551 209.966L187.244 209.234C186.286 197.862 184.243 184.607 182.206 173.138C181.868 171.233 181.535 169.375 181.182 167.583C180.992 166.559 180.808 165.591 180.629 164.634C180.24 162.586 179.871 160.671 179.507 158.879C179.338 158.029 179.175 157.215 179.021 156.421C178.627 154.465 178.268 152.724 177.951 151.229C177.633 149.734 177.383 148.5 177.178 147.553C176.881 146.176 176.717 145.408 176.717 145.408L165.678 144.067Z" fill="#BE7545"/>
<path d="M173.128 173.768C173.476 173.768 173.266 178.068 173.266 178.068C173.266 178.068 170.619 180.751 170.056 183.327C169.492 185.902 167.931 184.489 167.885 181.622C167.839 178.755 167.808 176.568 167.777 174.531C167.747 172.493 169.503 173.737 173.128 173.768Z" fill="#263238"/>
<path d="M172.201 180.347C172.269 179.725 172.442 179.119 172.713 178.555L172.744 178.519H172.769C172.783 178.513 172.798 178.509 172.813 178.509C172.828 178.509 172.843 178.513 172.856 178.519C172.897 178.519 173.906 178.877 174.157 179.456C174.197 179.543 174.218 179.639 174.218 179.735C174.218 179.831 174.197 179.927 174.157 180.014C174.07 180.209 173.947 180.306 173.804 180.301C173.578 180.301 173.348 179.988 173.153 179.64C173.214 179.963 173.182 180.297 173.061 180.603C173.033 180.66 172.993 180.711 172.943 180.752C172.894 180.792 172.836 180.822 172.774 180.838C172.698 180.872 172.613 180.881 172.531 180.863C172.449 180.846 172.375 180.803 172.319 180.741C172.233 180.628 172.192 180.488 172.201 180.347ZM172.8 178.949C172.539 179.584 172.314 180.378 172.483 180.577C172.483 180.577 172.544 180.644 172.713 180.603C172.777 180.58 172.83 180.535 172.861 180.475C172.98 179.97 172.958 179.443 172.8 178.949ZM173.993 179.697C173.992 179.638 173.978 179.58 173.952 179.528C173.728 179.191 173.401 178.936 173.02 178.801C173.271 179.436 173.614 180.045 173.809 180.055C173.865 180.055 173.921 179.958 173.947 179.896C173.975 179.839 173.99 179.776 173.993 179.712V179.697Z" fill="#034EA2"/>
<path d="M183.808 208.763C183.808 208.415 188.109 208.686 188.109 208.686C188.109 208.686 190.751 211.374 193.316 211.978C195.881 212.582 194.447 214.118 191.58 214.118H184.463C182.426 214.118 183.695 212.383 183.808 208.763Z" fill="#263238"/>
<path d="M190.341 209.787C189.722 209.711 189.121 209.527 188.564 209.244L188.523 209.213V209.188C188.513 209.16 188.513 209.129 188.523 209.101C188.523 209.06 188.902 208.077 189.486 207.816C189.573 207.775 189.667 207.755 189.763 207.755C189.858 207.755 189.952 207.775 190.039 207.816C190.234 207.908 190.331 208.031 190.321 208.174C190.321 208.399 190.003 208.63 189.655 208.814C189.98 208.758 190.313 208.795 190.618 208.922C190.674 208.951 190.723 208.991 190.763 209.041C190.803 209.09 190.832 209.147 190.848 209.208C190.878 209.287 190.885 209.373 190.865 209.455C190.846 209.538 190.803 209.612 190.74 209.669C190.626 209.755 190.484 209.797 190.341 209.787ZM188.954 209.167C189.588 209.439 190.377 209.679 190.577 209.51C190.577 209.51 190.648 209.449 190.607 209.28C190.599 209.248 190.583 209.218 190.562 209.192C190.541 209.167 190.514 209.146 190.484 209.132C190.172 208.952 189.44 209.065 188.954 209.167ZM189.727 207.99C189.667 207.989 189.607 208.001 189.553 208.026C189.214 208.246 188.956 208.569 188.815 208.947C189.45 208.707 190.065 208.369 190.075 208.179C190.075 208.118 189.983 208.061 189.921 208.036C189.86 208.007 189.794 207.991 189.727 207.99Z" fill="#034EA2"/>
<path opacity="0.7" d="M180.736 147.169L181.361 147.753L190.628 141.466L189.44 138.609C189.457 139.616 189.31 140.618 189.005 141.578C188.488 142.771 182.349 146.258 180.736 147.169Z" fill="white"/>
<path opacity="0.2" d="M165.678 144.067L167.516 149.668C172.58 150.871 175.857 151.26 177.966 151.245C177.659 149.755 177.398 148.516 177.193 147.569C176.896 146.191 176.732 145.423 176.732 145.423L165.678 144.067Z" fill="black"/>
<path d="M190.602 141.471L181.33 147.758L180.736 147.174L178.632 145.188V150.159L165.832 147.866C163.891 139.274 164.137 132.91 164.977 128.538C165.365 126.336 166.064 124.2 167.05 122.194L167.214 120.571L184.53 122.368L184.699 123.5L185.534 129.096L189.43 138.619L190.602 141.471Z" fill="#034EA2"/>
<path opacity="0.2" d="M178.606 145.188V139.658C178.606 139.658 181.079 143.795 180.711 147.169L178.606 145.188Z" fill="black"/>
<path d="M180.291 147.169L190.182 139.991L191.022 141.368L181.064 148.342L180.291 147.169Z" fill="#034EA2"/>
<path opacity="0.7" d="M180.291 147.169L190.182 139.991L191.022 141.368L181.064 148.342L180.291 147.169Z" fill="white"/>
<path d="M165.269 146.739L178.867 149.14V150.477L165.678 148.342L165.269 146.739Z" fill="#034EA2"/>
<path opacity="0.7" d="M165.269 146.739L178.867 149.14V150.477L165.678 148.342L165.269 146.739Z" fill="white"/>
<path opacity="0.2" d="M170.701 122.665C170.701 122.665 169.426 127.355 164.956 128.538C165.345 126.336 166.043 124.2 167.03 122.194L170.701 122.665Z" fill="black"/>
<path opacity="0.2" d="M185.533 129.085C183.88 127.488 183.404 123.489 183.404 123.489H184.699L185.533 129.085Z" fill="black"/>
<path opacity="0.2" d="M179.144 123.208C179.144 123.352 179.087 123.49 178.985 123.591C178.883 123.693 178.745 123.75 178.601 123.75C178.457 123.75 178.319 123.693 178.217 123.591C178.116 123.49 178.058 123.352 178.058 123.208C178.058 123.064 178.116 122.926 178.217 122.824C178.319 122.722 178.457 122.665 178.601 122.665C178.745 122.665 178.883 122.722 178.985 122.824C179.087 122.926 179.144 123.064 179.144 123.208Z" fill="black"/>
<path d="M167.393 121.18C163.39 120.269 167.342 120.325 166.042 102.236C165.957 101.321 166.03 100.398 166.257 99.5072C166.463 98.8022 166.913 98.1933 167.526 97.7884C168.139 97.3835 168.876 97.2088 169.605 97.2954C170.302 97.3722 170.921 97.4438 171.059 97.449C171.433 97.449 171.817 97.4746 172.201 97.5002C174.811 97.606 177.411 97.9003 179.978 98.3808C180.613 98.5088 181.263 98.6624 181.898 98.8109C182.103 98.8621 184.458 99.2256 184.643 99.2768C184.643 99.2768 187.336 103.46 187.09 106.491C186.952 108.18 186.378 109.425 186.332 113.48C186.23 122.696 188.155 122.414 184.156 122.696L167.393 121.18Z" fill="#263238"/>
<path opacity="0.7" d="M186.332 113.469C186.23 122.685 188.155 122.409 184.156 122.685L167.393 121.196C164.096 120.453 166.195 120.356 166.308 110.218C166.308 108.477 166.308 106.445 166.165 104.074C166.129 103.491 166.088 102.881 166.042 102.257C165.957 101.343 166.03 100.422 166.257 99.5328C166.462 98.8263 166.911 98.2156 167.524 97.8095C168.137 97.4035 168.875 97.2285 169.605 97.3158C170.302 97.3926 170.921 97.4643 171.059 97.4643C171.428 97.4643 171.817 97.495 172.201 97.5206C174.811 97.6302 177.41 97.9228 179.978 98.3962C180.613 98.5344 181.258 98.6778 181.903 98.8314C182.108 98.8826 184.463 99.2461 184.643 99.3024C184.643 99.3024 187.336 103.48 187.095 106.506C186.952 108.17 186.368 109.414 186.332 113.469Z" fill="white"/>
<path opacity="0.1" d="M175.857 109.962C175.857 109.962 172.303 113.818 166.308 110.198C166.308 108.457 166.308 106.424 166.165 104.054C168.484 103.223 170.888 102.65 173.333 102.344L175.857 109.962Z" fill="black"/>
<path d="M183.537 101.888L187.269 99.7632L188.585 103.281C188.585 103.281 186.184 105.134 184.043 103.844L183.537 101.888Z" fill="#BE7545"/>
<path d="M190.326 99.6813L190.674 102.538L188.585 103.291L187.269 99.7734L190.326 99.6813Z" fill="#BE7545"/>
<path d="M171.223 100.081C172.217 104.042 173.785 107.837 175.877 111.345L175.985 111.524C175.875 111.363 175.736 111.224 175.575 111.114C175.392 110.977 175.178 110.884 174.952 110.844C174.727 110.804 174.494 110.818 174.275 110.884C175.882 110.039 177.152 108.524 178.494 107.228C180.086 105.574 181.683 103.844 183.255 102.108C183.464 101.891 183.744 101.757 184.044 101.73C184.344 101.704 184.643 101.787 184.887 101.965C185.13 102.142 185.3 102.402 185.367 102.696C185.433 102.99 185.39 103.297 185.247 103.562C183.471 106.741 181.374 109.729 178.99 112.481C178.147 113.496 177.114 114.336 175.949 114.954C175.284 115.281 174.521 115.345 173.811 115.136C173.101 114.926 172.495 114.458 172.114 113.823C169.302 109.984 167.329 105.597 166.323 100.946C165.811 97.6538 170.537 96.7782 171.223 100.045V100.081Z" fill="#BE7545"/>
<path d="M169.206 97.28C166.492 96.9574 164.833 100.116 165.688 107.372H174.172C174.172 107.372 173.67 97.792 169.206 97.28Z" fill="#263238"/>
<path opacity="0.7" d="M169.206 97.28C166.492 96.9574 164.833 100.116 165.688 107.372H174.172C174.172 107.372 173.67 97.792 169.206 97.28Z" fill="white"/>
<path d="M165.258 105.702L174.459 106.798L174.49 108.037H165.463L165.258 105.702Z" fill="#263238"/>
<path opacity="0.8" d="M165.258 105.702L174.459 106.798L174.49 108.037H165.463L165.258 105.702Z" fill="white"/>
<path d="M176.072 76.5747C176.072 76.5747 178.022 75.1667 181.32 76.247C184.617 77.3274 188.042 80.8806 186.532 85.975C185.021 91.0694 185.211 94.3206 185.211 94.3206C185.211 94.3206 173.875 92.4416 171.453 90.2246C169.032 88.0077 169.416 75.264 176.072 76.5747Z" fill="#263238"/>
<path d="M173.732 88.791C174.126 91.351 174.444 96.0512 172.626 97.5411C174.921 98.87 177.291 100.067 179.722 101.125C181.417 99.2 180.408 98.4115 180.408 98.4115C177.644 97.4234 177.792 95.3395 178.36 93.44L173.732 88.791Z" fill="#BE7545"/>
<path opacity="0.2" d="M175.616 90.6906L178.35 93.44C178.213 93.8863 178.116 94.3438 178.058 94.807C176.999 94.5306 175.58 93.184 175.498 92.0474C175.454 91.5917 175.494 91.1317 175.616 90.6906Z" fill="black"/>
<path d="M174.285 82.2323C173.466 86.2874 173.03 87.9872 174.449 90.665C176.579 94.6995 181.617 95.063 183.593 91.3971C185.38 88.0947 186.424 82.0122 183.045 79.191C182.34 78.5606 181.479 78.1303 180.552 77.9445C179.624 77.7588 178.664 77.8244 177.77 78.1346C176.877 78.4448 176.082 78.9883 175.47 79.7088C174.857 80.4293 174.448 81.3006 174.285 82.2323Z" fill="#BE7545"/>
<path d="M178.842 84.8179C178.76 85.1558 178.842 85.4835 179.072 85.5501C179.303 85.6166 179.523 85.4016 179.584 85.0381C179.646 84.6746 179.584 84.3725 179.354 84.3008C179.123 84.2291 178.929 84.48 178.842 84.8179Z" fill="#263238"/>
<path d="M182.979 86.016C182.897 86.3539 182.979 86.6816 183.209 86.7533C183.44 86.825 183.655 86.5997 183.721 86.2413C183.788 85.8829 183.721 85.5757 183.491 85.5091C183.26 85.4426 183.061 85.673 182.979 86.016Z" fill="#263238"/>
<path d="M183.414 85.504H184.243C184.243 85.504 183.69 86.016 183.414 85.504Z" fill="#263238"/>
<path d="M181.545 86.3488C181.64 87.2131 181.847 88.0615 182.16 88.873C181.961 88.9428 181.75 88.9661 181.541 88.9413C181.333 88.9164 181.132 88.844 180.956 88.7296L181.545 86.3488Z" fill="#D29A75"/>
<path d="M178.796 89.3798C178.96 89.4674 179.131 89.541 179.308 89.6C179.32 89.6048 179.333 89.6067 179.346 89.6058C179.359 89.6049 179.371 89.6012 179.382 89.5948C179.394 89.5884 179.403 89.5796 179.411 89.569C179.418 89.5584 179.423 89.5462 179.425 89.5334C179.433 89.5076 179.431 89.4797 179.419 89.4557C179.406 89.4317 179.385 89.4137 179.359 89.4054C178.946 89.2736 178.569 89.0511 178.253 88.7544C177.938 88.4576 177.693 88.094 177.536 87.6902C177.533 87.6772 177.528 87.665 177.52 87.6542C177.512 87.6434 177.502 87.6344 177.49 87.6277C177.479 87.621 177.466 87.6167 177.453 87.6151C177.439 87.6135 177.426 87.6147 177.413 87.6186C177.388 87.6278 177.368 87.6463 177.357 87.6702C177.345 87.694 177.344 87.7214 177.352 87.7466C177.614 88.4512 178.128 89.0333 178.796 89.3798Z" fill="#263238"/>
<path d="M178.765 82.5088C178.789 82.5202 178.815 82.5261 178.842 82.5261C178.868 82.5261 178.895 82.5202 178.919 82.5088C179.137 82.3962 179.38 82.3396 179.626 82.3441C179.872 82.3485 180.112 82.4139 180.327 82.5344C180.348 82.5491 180.372 82.5592 180.397 82.5641C180.422 82.569 180.448 82.5685 180.473 82.5627C180.498 82.5569 180.522 82.5459 180.543 82.5305C180.563 82.515 180.58 82.4954 180.593 82.473C180.62 82.4251 180.627 82.3687 180.614 82.3153C180.601 82.262 180.567 82.2158 180.521 82.1862C180.253 82.0283 179.949 81.9404 179.637 81.9305C179.326 81.9207 179.017 81.9892 178.739 82.1299C178.693 82.1568 178.659 82.2005 178.643 82.2519C178.628 82.3033 178.633 82.3586 178.657 82.4064C178.679 82.4531 178.717 82.4897 178.765 82.5088Z" fill="#263238"/>
<path d="M185.211 84.3315C185.234 84.3417 185.258 84.347 185.283 84.347C185.307 84.347 185.332 84.3417 185.354 84.3315C185.38 84.324 185.403 84.3114 185.423 84.2946C185.444 84.2777 185.46 84.257 185.472 84.2335C185.484 84.21 185.491 84.1844 185.493 84.1581C185.495 84.1318 185.491 84.1055 185.482 84.0806C185.407 83.7628 185.258 83.467 185.048 83.2164C184.839 82.9659 184.574 82.7674 184.274 82.6368C184.25 82.6282 184.224 82.6247 184.199 82.6265C184.173 82.6284 184.148 82.6356 184.125 82.6476C184.103 82.6597 184.083 82.6763 184.067 82.6965C184.051 82.7167 184.04 82.7399 184.033 82.7648C184.018 82.8171 184.024 82.8731 184.049 82.9216C184.073 82.97 184.115 83.0073 184.167 83.0259C184.401 83.1354 184.607 83.2963 184.77 83.4967C184.933 83.697 185.049 83.9317 185.109 84.183C185.114 84.2137 185.126 84.2429 185.143 84.2685C185.161 84.2942 185.184 84.3157 185.211 84.3315Z" fill="#263238"/>
<path d="M179.277 84.3162H180.111C180.111 84.3162 179.553 84.8384 179.277 84.3162Z" fill="#263238"/>
<path d="M175.227 85.2173C175.227 85.2173 178.217 83.3843 178.581 78.8582C178.581 78.8582 183.567 78.6995 185.318 83.1181C185.318 83.1181 184.694 76.7642 177.577 76.4979C170.46 76.2317 172.421 84.055 172.969 84.8691C173.517 85.6832 175.227 85.2173 175.227 85.2173Z" fill="#263238"/>
<path d="M172.129 85.0944C172.329 85.9445 172.857 86.6809 173.599 87.1424C174.566 87.7158 175.319 86.8147 175.273 85.6627C175.237 84.6387 174.689 83.072 173.609 82.9747C172.529 82.8774 171.873 84.009 172.129 85.0944Z" fill="#BE7545"/>
</svg>
