<svg width="44" height="44" viewBox="0 0 44 44" fill="none" xmlns="http://www.w3.org/2000/svg">
<path d="M32 26V2M15.9998 34.24L17.9998 26H6.33984C5.71886 26 5.10641 25.8554 4.55099 25.5777C3.99557 25.3 3.51243 24.8968 3.13984 24.4C2.76726 23.9032 2.51545 23.3265 2.40436 22.7155C2.29328 22.1046 2.32597 21.4761 2.49984 20.88L7.15984 4.88C7.40218 4.04914 7.90746 3.31929 8.59984 2.8C9.29223 2.28071 10.1344 2 10.9998 2H37.9998C39.0607 2 40.0781 2.42143 40.8283 3.17157C41.5784 3.92172 41.9998 4.93913 41.9998 6V22C41.9998 23.0609 41.5784 24.0783 40.8283 24.8284C40.0781 25.5786 39.0607 26 37.9998 26H32.4798C31.7357 26.0004 31.0064 26.2084 30.3739 26.6006C29.7415 26.9927 29.231 27.5536 28.8998 28.22L21.9998 42C21.0567 41.9883 20.1284 41.7637 19.2842 41.3428C18.4401 40.922 17.702 40.3158 17.125 39.5696C16.5481 38.8234 16.1472 37.9565 15.9524 37.0336C15.7575 36.1107 15.7738 35.1557 15.9998 34.24Z" stroke="#034EA2" stroke-width="4" stroke-linecap="round" stroke-linejoin="round"/>
</svg>
