<svg width="48" height="48" viewBox="0 0 48 48" fill="none" xmlns="http://www.w3.org/2000/svg">
<path d="M34.758 43.75H33.6196V43.7896H34.758V43.75Z" fill="#BDCBD9"/>
<path d="M45.8355 41.8472H43.3215V41.8868H45.8355V41.8472Z" fill="#BDCBD9"/>
<path d="M5.89419 42.1133H5.06494V42.1529H5.89419V42.1133Z" fill="#BDCBD9"/>
<path d="M20.8624 42.7827H8.59009V42.8224H20.8624V42.7827Z" fill="#BDCBD9"/>
<path d="M47.2817 13.7685V0.431152L33.1033 0.431152V13.7685L47.2817 13.7685Z" fill="#DDE3E9" fill-opacity="0.5"/>
<path d="M46.8508 0.984863H33.5317V13.2201H46.8508V0.984863Z" fill="#BDCBD9"/>
<path d="M39.9484 6.75098H38.3423V9.50092H39.9484V6.75098Z" fill="#DDE3E9" fill-opacity="0.5"/>
<path d="M42.0416 7.56299H40.3503V10.5064H42.0416V7.56299Z" fill="#DDE3E9" fill-opacity="0.5"/>
<path d="M41.6434 2.64384L39.9666 2.37695L39.6496 5.29526L41.3264 5.56215L41.6434 2.64384Z" fill="#DDE3E9" fill-opacity="0.5"/>
<path d="M45.7635 2.38184H44.0723V5.32526H45.7635V2.38184Z" fill="#DDE3E9" fill-opacity="0.5"/>
<path d="M43.7435 2.07275H42.0522V5.01618H43.7435V2.07275Z" fill="#DDE3E9" fill-opacity="0.5"/>
<path d="M35.739 1.98535H34.6897V3.25565H35.739V1.98535Z" fill="#DDE3E9" fill-opacity="0.5"/>
<path d="M37.2654 2.37294L36.2854 1.91895L35.9104 3.10535L36.8904 3.55935L37.2654 2.37294Z" fill="#DDE3E9" fill-opacity="0.5"/>
<path d="M35.2152 2.14729C35.2152 2.16203 35.2116 2.17644 35.2048 2.1887C35.198 2.20096 35.1884 2.21051 35.1772 2.21615C35.1659 2.2218 35.1535 2.22327 35.1416 2.2204C35.1297 2.21752 35.1187 2.21042 35.1101 2.2C35.1015 2.18957 35.0956 2.17629 35.0932 2.16183C35.0908 2.14737 35.0921 2.13239 35.0967 2.11877C35.1014 2.10515 35.1093 2.09351 35.1194 2.08532C35.1295 2.07713 35.1414 2.07275 35.1536 2.07275C35.1699 2.07275 35.1856 2.08061 35.1971 2.09458C35.2087 2.10856 35.2152 2.12752 35.2152 2.14729Z" fill="#DDE3E9" fill-opacity="0.5"/>
<path d="M36.4229 2.14729C36.4229 2.16203 36.4193 2.17644 36.4126 2.1887C36.4058 2.20096 36.3962 2.21051 36.3849 2.21615C36.3737 2.2218 36.3613 2.22327 36.3494 2.2204C36.3374 2.21752 36.3264 2.21042 36.3178 2.2C36.3092 2.18957 36.3034 2.17629 36.301 2.16183C36.2986 2.14737 36.2998 2.13239 36.3045 2.11877C36.3092 2.10515 36.317 2.09351 36.3272 2.08532C36.3373 2.07713 36.3492 2.07275 36.3614 2.07275C36.3777 2.07275 36.3934 2.08061 36.4049 2.09458C36.4165 2.10856 36.4229 2.12752 36.4229 2.14729Z" fill="#DDE3E9" fill-opacity="0.5"/>
<path d="M40.8194 5.20784C40.8194 5.22258 40.8158 5.23699 40.8091 5.24925C40.8023 5.2615 40.7927 5.27106 40.7814 5.2767C40.7702 5.28234 40.7578 5.28382 40.7459 5.28094C40.7339 5.27807 40.7229 5.27097 40.7143 5.26054C40.7057 5.25012 40.6998 5.23684 40.6975 5.22238C40.6951 5.20792 40.6963 5.19293 40.701 5.17931C40.7056 5.16569 40.7135 5.15405 40.7237 5.14586C40.7338 5.13767 40.7457 5.1333 40.7579 5.1333C40.7742 5.1333 40.7898 5.14115 40.8014 5.15513C40.8129 5.16911 40.8194 5.18807 40.8194 5.20784Z" fill="#DDE3E9" fill-opacity="0.5"/>
<path d="M39.2069 6.951C39.2069 6.97077 39.2004 6.98973 39.1888 7.00371C39.1773 7.01769 39.1616 7.02554 39.1453 7.02554C39.129 7.02554 39.1133 7.01769 39.1018 7.00371C39.0902 6.98973 39.0837 6.97077 39.0837 6.951C39.0837 6.93123 39.0902 6.91228 39.1018 6.8983C39.1133 6.88432 39.129 6.87646 39.1453 6.87646C39.1616 6.87646 39.1773 6.88432 39.1888 6.8983C39.2004 6.91228 39.2069 6.93123 39.2069 6.951Z" fill="#DDE3E9" fill-opacity="0.5"/>
<path d="M40.129 2.59309C40.129 2.60783 40.1254 2.62224 40.1186 2.6345C40.1119 2.64676 40.1022 2.65631 40.091 2.66195C40.0797 2.6676 40.0674 2.66907 40.0554 2.6662C40.0435 2.66332 40.0325 2.65622 40.0239 2.6458C40.0153 2.63537 40.0094 2.62209 40.007 2.60763C40.0047 2.59317 40.0059 2.57819 40.0105 2.56457C40.0152 2.55095 40.0231 2.53931 40.0332 2.53112C40.0434 2.52293 40.0553 2.51855 40.0674 2.51855C40.0838 2.51855 40.0994 2.52641 40.111 2.54039C40.1225 2.55437 40.129 2.57332 40.129 2.59309Z" fill="#DDE3E9" fill-opacity="0.5"/>
<path d="M42.9588 2.24104C42.9588 2.25578 42.9552 2.2702 42.9485 2.28245C42.9417 2.29471 42.9321 2.30426 42.9208 2.3099C42.9096 2.31555 42.8972 2.31702 42.8853 2.31415C42.8733 2.31127 42.8623 2.30417 42.8537 2.29375C42.8451 2.28332 42.8393 2.27004 42.8369 2.25558C42.8345 2.24112 42.8357 2.22614 42.8404 2.21252C42.845 2.1989 42.8529 2.18726 42.8631 2.17907C42.8732 2.17088 42.8851 2.1665 42.8973 2.1665C42.9136 2.1665 42.9293 2.17436 42.9408 2.18834C42.9523 2.20231 42.9588 2.22127 42.9588 2.24104Z" fill="#DDE3E9" fill-opacity="0.5"/>
<path d="M44.9801 2.51839C44.9801 2.53313 44.9765 2.54754 44.9697 2.5598C44.9629 2.57205 44.9533 2.58161 44.9421 2.58725C44.9308 2.59289 44.9184 2.59437 44.9065 2.59149C44.8945 2.58861 44.8836 2.58151 44.875 2.57109C44.8664 2.56067 44.8605 2.54738 44.8581 2.53293C44.8557 2.51847 44.857 2.50348 44.8616 2.48986C44.8663 2.47624 44.8742 2.4646 44.8843 2.45641C44.8944 2.44822 44.9063 2.44385 44.9185 2.44385C44.9348 2.44385 44.9505 2.4517 44.962 2.46568C44.9736 2.47966 44.9801 2.49862 44.9801 2.51839Z" fill="#DDE3E9" fill-opacity="0.5"/>
<path d="M46.0269 9.71338H42.6575V12.2698H46.0269V9.71338Z" fill="#DDE3E9" fill-opacity="0.5"/>
<path d="M37.8941 9.39014H34.9531V12.2003H37.8941V9.39014Z" fill="#DDE3E9" fill-opacity="0.5"/>
<path d="M0.483587 16.8154L21.4912 16.8154V0.000165939L0.483587 0.000165939V16.8154Z" fill="#DDE3E9" fill-opacity="0.5"/>
<path d="M1.20407 15.9048L20.772 15.9048V0.91013L1.20407 0.91013V15.9048Z" fill="#BDCBD9"/>
<path d="M10.6665 2.33452L10.3255 6.66667L6.6665 6.27877L6.98414 2L10.6665 2.33452Z" fill="#DDE3E9" fill-opacity="0.5"/>
<path d="M12.9998 14.0002C14.2885 14.0002 15.3332 12.9555 15.3332 11.6668C15.3332 10.3782 14.2885 9.3335 12.9998 9.3335C11.7112 9.3335 10.6665 10.3782 10.6665 11.6668C10.6665 12.9555 11.7112 14.0002 12.9998 14.0002Z" fill="#DDE3E9" fill-opacity="0.5"/>
<path d="M5.18195 8.6665L4.30379 10.0724L2.6665 10.1334L3.71088 11.416L3.26295 13.0182L4.78589 12.4051L6.14617 13.3332L6.04362 11.671L7.33317 10.6436L5.7454 10.2292L5.18195 8.6665Z" fill="#DDE3E9" fill-opacity="0.5"/>
<path d="M16.2367 2.6665L18.5694 3.14766L19.3332 5.48162L17.763 7.33317L15.4303 6.85076L14.6665 4.51806L16.2367 2.6665Z" fill="#DDE3E9" fill-opacity="0.5"/>
<path d="M24.7125 3.5874L30.9548 3.5874V0.0254769L24.7125 0.0254769V3.5874Z" fill="#DDE3E9" fill-opacity="0.5"/>
<path d="M24.7113 6.68604L29.7576 6.68604V4.58631L24.7113 4.58631V6.68604Z" fill="#DDE3E9" fill-opacity="0.5"/>
<path d="M24.7127 3.5874L30.3733 3.5874V0.0254769L24.7127 0.0254769V3.5874Z" fill="#BDCBD9"/>
<path d="M24.7114 6.68604L29.2874 6.68604V4.58631L24.7114 4.58631V6.68604Z" fill="#BDCBD9"/>
<path d="M31.7775 12.4399H22.6912V13.0045H31.7775V12.4399Z" fill="#DDE3E9" fill-opacity="0.5"/>
<path d="M23.5112 10.356H23.1104V12.4398H23.5112V10.356Z" fill="#BDCBD9"/>
<path d="M25.4463 10.356H25.0454V12.4398H25.4463V10.356Z" fill="#BDCBD9"/>
<path d="M27.6436 10.3023L27.2485 10.3848L27.5409 12.4383L27.936 12.3559L27.6436 10.3023Z" fill="#BDCBD9"/>
<path d="M24.0066 10.6304H23.6057V12.4399H24.0066V10.6304Z" fill="#BDCBD9"/>
<path d="M24.9275 10.6304H24.5266V12.4399H24.9275V10.6304Z" fill="#BDCBD9"/>
<path d="M27.2488 10.6304H26.8479V12.4399H27.2488V10.6304Z" fill="#BDCBD9"/>
<path d="M25.9729 10.5646L25.5815 10.6699L25.9058 12.4363L26.2971 12.3311L25.9729 10.5646Z" fill="#BDCBD9"/>
<path d="M24.3523 10.2529H24.1519V12.4399H24.3523V10.2529Z" fill="#BDCBD9"/>
<path d="M26.7341 10.2529H26.5337V12.4399H26.7341V10.2529Z" fill="#BDCBD9"/>
<path d="M30.9064 10.7905H28.9558V12.4208H30.9064V10.7905Z" fill="#BDCBD9"/>
<path d="M22.6925 17.2227H31.7788V16.6581H22.6925V17.2227Z" fill="#DDE3E9" fill-opacity="0.5"/>
<path d="M30.9588 16.6582H31.3596V14.5743H30.9588V16.6582Z" fill="#BDCBD9"/>
<path d="M29.0239 16.6582H29.4248V14.5743H29.0239V16.6582Z" fill="#BDCBD9"/>
<path d="M26.5356 16.5743L26.9307 16.6567L27.2231 14.6032L26.828 14.5207L26.5356 16.5743Z" fill="#BDCBD9"/>
<path d="M30.4636 16.6582H30.8645V14.8487H30.4636V16.6582Z" fill="#BDCBD9"/>
<path d="M29.5427 16.6582H29.9436V14.8487H29.5427V16.6582Z" fill="#BDCBD9"/>
<path d="M27.22 16.6582H27.6208V14.8487H27.22V16.6582Z" fill="#BDCBD9"/>
<path d="M28.1712 16.5554L28.5625 16.6606L28.8865 14.8942L28.4952 14.789L28.1712 16.5554Z" fill="#BDCBD9"/>
<path d="M30.1179 16.6582H30.3184V14.4713H30.1179V16.6582Z" fill="#BDCBD9"/>
<path d="M27.7361 16.6582H27.9365V14.4713H27.7361V16.6582Z" fill="#BDCBD9"/>
<path d="M23.5638 16.6406H25.5144V15.0103H23.5638V16.6406Z" fill="#BDCBD9"/>
<path d="M42.5369 18.6562H37.4409V40.6511H42.5369V18.6562Z" fill="#DDE3E9" fill-opacity="0.5"/>
<path d="M42.0981 19.2847H37.8811V40.1535H42.0981V19.2847Z" fill="#BDCBD9"/>
<path d="M41.3303 19.8965H38.6487V20.1122H41.3303V19.8965Z" fill="#DDE3E9" fill-opacity="0.5"/>
<path d="M41.3303 20.8276H38.6487V21.0433H41.3303V20.8276Z" fill="#DDE3E9" fill-opacity="0.5"/>
<path d="M41.3303 21.7568H38.6487V21.9725H41.3303V21.7568Z" fill="#DDE3E9" fill-opacity="0.5"/>
<path d="M41.3303 22.686H38.6487V22.9017H41.3303V22.686Z" fill="#DDE3E9" fill-opacity="0.5"/>
<path d="M41.3303 23.6157H38.6487V23.8314H41.3303V23.6157Z" fill="#DDE3E9" fill-opacity="0.5"/>
<path d="M41.3303 24.5464H38.6487V24.7621H41.3303V24.5464Z" fill="#DDE3E9" fill-opacity="0.5"/>
<path d="M41.3303 25.4761H38.6487V25.6918H41.3303V25.4761Z" fill="#DDE3E9" fill-opacity="0.5"/>
<path d="M41.3303 33.0376H38.6487V33.2533H41.3303V33.0376Z" fill="#DDE3E9" fill-opacity="0.5"/>
<path d="M41.3303 33.9668H38.6487V34.1825H41.3303V33.9668Z" fill="#DDE3E9" fill-opacity="0.5"/>
<path d="M41.3303 34.896H38.6487V35.1117H41.3303V34.896Z" fill="#DDE3E9" fill-opacity="0.5"/>
<path d="M41.3303 35.8252H38.6487V36.0409H41.3303V35.8252Z" fill="#DDE3E9" fill-opacity="0.5"/>
<path d="M41.3303 36.7563H38.6487V36.972H41.3303V36.7563Z" fill="#DDE3E9" fill-opacity="0.5"/>
<path d="M41.3303 37.6855H38.6487V37.9012H41.3303V37.6855Z" fill="#DDE3E9" fill-opacity="0.5"/>
<path d="M41.3303 38.6152H38.6487V38.8309H41.3303V38.6152Z" fill="#DDE3E9" fill-opacity="0.5"/>
<path d="M41.4627 28.6509C41.4629 28.7222 41.4457 28.7919 41.4132 28.8513C41.3807 28.9107 41.3343 28.9571 41.28 28.9846C41.2257 29.0121 41.1659 29.0195 41.1081 29.0058C41.0503 28.992 40.9972 28.9579 40.9555 28.9076C40.9138 28.8573 40.8853 28.7932 40.8737 28.7233C40.8621 28.6534 40.868 28.581 40.8904 28.5151C40.9129 28.4492 40.951 28.3929 40.9999 28.3533C41.0489 28.3136 41.1064 28.2925 41.1653 28.2925C41.2439 28.2925 41.3194 28.3302 41.3751 28.3974C41.4308 28.4645 41.4623 28.5557 41.4627 28.6509Z" fill="#DDE3E9" fill-opacity="0.5"/>
<path d="M37.2916 18.6562H32.1956V40.6511H37.2916V18.6562Z" fill="#DDE3E9" fill-opacity="0.5"/>
<path d="M36.8513 19.2847H32.6343V40.1535H36.8513V19.2847Z" fill="#BDCBD9"/>
<path d="M36.0837 19.8965H33.4021V20.1122H36.0837V19.8965Z" fill="#DDE3E9" fill-opacity="0.5"/>
<path d="M36.0837 20.8276H33.4021V21.0433H36.0837V20.8276Z" fill="#DDE3E9" fill-opacity="0.5"/>
<path d="M36.0837 21.7568H33.4021V21.9725H36.0837V21.7568Z" fill="#DDE3E9" fill-opacity="0.5"/>
<path d="M36.0837 22.686H33.4021V22.9017H36.0837V22.686Z" fill="#DDE3E9" fill-opacity="0.5"/>
<path d="M36.0837 23.6157H33.4021V23.8314H36.0837V23.6157Z" fill="#DDE3E9" fill-opacity="0.5"/>
<path d="M36.0837 24.5464H33.4021V24.7621H36.0837V24.5464Z" fill="#DDE3E9" fill-opacity="0.5"/>
<path d="M36.0837 25.4761H33.4021V25.6918H36.0837V25.4761Z" fill="#DDE3E9" fill-opacity="0.5"/>
<path d="M36.0837 33.0376H33.4021V33.2533H36.0837V33.0376Z" fill="#DDE3E9" fill-opacity="0.5"/>
<path d="M36.0837 33.9668H33.4021V34.1825H36.0837V33.9668Z" fill="#DDE3E9" fill-opacity="0.5"/>
<path d="M36.0837 34.896H33.4021V35.1117H36.0837V34.896Z" fill="#DDE3E9" fill-opacity="0.5"/>
<path d="M36.0837 35.8252H33.4021V36.0409H36.0837V35.8252Z" fill="#DDE3E9" fill-opacity="0.5"/>
<path d="M36.0837 36.7563H33.4021V36.972H36.0837V36.7563Z" fill="#DDE3E9" fill-opacity="0.5"/>
<path d="M36.0837 37.6855H33.4021V37.9012H36.0837V37.6855Z" fill="#DDE3E9" fill-opacity="0.5"/>
<path d="M36.0837 38.6152H33.4021V38.8309H36.0837V38.6152Z" fill="#DDE3E9" fill-opacity="0.5"/>
<path d="M36.2161 28.6509C36.2163 28.7222 36.1991 28.7921 36.1665 28.8515C36.1339 28.9109 36.0875 28.9573 36.0331 28.9848C35.9787 29.0122 35.9188 29.0195 35.861 29.0056C35.8032 28.9918 35.7501 28.9575 35.7084 28.907C35.6668 28.8566 35.6384 28.7923 35.627 28.7223C35.6156 28.6523 35.6216 28.5798 35.6442 28.514C35.6669 28.4481 35.7052 28.3919 35.7543 28.3525C35.8034 28.3131 35.8611 28.2922 35.92 28.2925C35.9984 28.2929 36.0735 28.3308 36.129 28.3979C36.1844 28.465 36.2157 28.556 36.2161 28.6509Z" fill="#DDE3E9" fill-opacity="0.5"/>
<path d="M47.7835 18.6562H42.6875V40.6511H47.7835V18.6562Z" fill="#DDE3E9" fill-opacity="0.5"/>
<path d="M47.3434 19.2847H43.1265V40.1535H47.3434V19.2847Z" fill="#BDCBD9"/>
<path d="M46.5757 19.8965H43.894V20.1122H46.5757V19.8965Z" fill="#DDE3E9" fill-opacity="0.5"/>
<path d="M46.5757 20.8276H43.894V21.0433H46.5757V20.8276Z" fill="#DDE3E9" fill-opacity="0.5"/>
<path d="M46.5757 21.7568H43.894V21.9725H46.5757V21.7568Z" fill="#DDE3E9" fill-opacity="0.5"/>
<path d="M46.5757 22.686H43.894V22.9017H46.5757V22.686Z" fill="#DDE3E9" fill-opacity="0.5"/>
<path d="M46.5757 23.6157H43.894V23.8314H46.5757V23.6157Z" fill="#DDE3E9" fill-opacity="0.5"/>
<path d="M46.5757 24.5464H43.894V24.7621H46.5757V24.5464Z" fill="#DDE3E9" fill-opacity="0.5"/>
<path d="M46.5757 25.4761H43.894V25.6918H46.5757V25.4761Z" fill="#DDE3E9" fill-opacity="0.5"/>
<path d="M46.5757 33.0376H43.894V33.2533H46.5757V33.0376Z" fill="#DDE3E9" fill-opacity="0.5"/>
<path d="M46.5757 33.9668H43.894V34.1825H46.5757V33.9668Z" fill="#DDE3E9" fill-opacity="0.5"/>
<path d="M46.5757 34.896H43.894V35.1117H46.5757V34.896Z" fill="#DDE3E9" fill-opacity="0.5"/>
<path d="M46.5757 35.8252H43.894V36.0409H46.5757V35.8252Z" fill="#DDE3E9" fill-opacity="0.5"/>
<path d="M46.5757 36.7563H43.894V36.972H46.5757V36.7563Z" fill="#DDE3E9" fill-opacity="0.5"/>
<path d="M46.5757 37.6855H43.894V37.9012H46.5757V37.6855Z" fill="#DDE3E9" fill-opacity="0.5"/>
<path d="M46.5757 38.6152H43.894V38.8309H46.5757V38.6152Z" fill="#DDE3E9" fill-opacity="0.5"/>
<path d="M46.412 29.0157C46.5755 29.0157 46.7081 28.8552 46.7081 28.6572C46.7081 28.4593 46.5755 28.2988 46.412 28.2988C46.2485 28.2988 46.116 28.4593 46.116 28.6572C46.116 28.8552 46.2485 29.0157 46.412 29.0157Z" fill="#DDE3E9" fill-opacity="0.5"/>
<path d="M5.8194 18.6562H0.723389V40.6511H5.8194V18.6562Z" fill="#DDE3E9" fill-opacity="0.5"/>
<path d="M5.37934 19.2847H1.16235V40.1535H5.37934V19.2847Z" fill="#BDCBD9"/>
<path d="M4.61156 19.8965H1.92993V20.1122H4.61156V19.8965Z" fill="#DDE3E9" fill-opacity="0.5"/>
<path d="M4.61156 20.8276H1.92993V21.0433H4.61156V20.8276Z" fill="#DDE3E9" fill-opacity="0.5"/>
<path d="M4.61156 21.7568H1.92993V21.9725H4.61156V21.7568Z" fill="#DDE3E9" fill-opacity="0.5"/>
<path d="M4.61156 22.686H1.92993V22.9017H4.61156V22.686Z" fill="#DDE3E9" fill-opacity="0.5"/>
<path d="M4.61156 23.6157H1.92993V23.8314H4.61156V23.6157Z" fill="#DDE3E9" fill-opacity="0.5"/>
<path d="M4.61156 24.5464H1.92993V24.7621H4.61156V24.5464Z" fill="#DDE3E9" fill-opacity="0.5"/>
<path d="M4.61156 25.4761H1.92993V25.6918H4.61156V25.4761Z" fill="#DDE3E9" fill-opacity="0.5"/>
<path d="M4.61156 33.0376H1.92993V33.2533H4.61156V33.0376Z" fill="#DDE3E9" fill-opacity="0.5"/>
<path d="M4.61156 33.9668H1.92993V34.1825H4.61156V33.9668Z" fill="#DDE3E9" fill-opacity="0.5"/>
<path d="M4.61156 34.896H1.92993V35.1117H4.61156V34.896Z" fill="#DDE3E9" fill-opacity="0.5"/>
<path d="M4.61156 35.8252H1.92993V36.0409H4.61156V35.8252Z" fill="#DDE3E9" fill-opacity="0.5"/>
<path d="M4.61156 36.7563H1.92993V36.972H4.61156V36.7563Z" fill="#DDE3E9" fill-opacity="0.5"/>
<path d="M4.61156 37.6855H1.92993V37.9012H4.61156V37.6855Z" fill="#DDE3E9" fill-opacity="0.5"/>
<path d="M4.61156 38.6152H1.92993V38.8309H4.61156V38.6152Z" fill="#DDE3E9" fill-opacity="0.5"/>
<path d="M4.74392 28.6509C4.74418 28.7222 4.72693 28.7921 4.69435 28.8515C4.66177 28.9109 4.61534 28.9573 4.56095 28.9848C4.50656 29.0122 4.44666 29.0195 4.38885 29.0056C4.33104 28.9918 4.27794 28.9575 4.23627 28.907C4.1946 28.8566 4.16625 28.7923 4.15482 28.7223C4.14339 28.6523 4.14939 28.5798 4.17206 28.514C4.19473 28.4481 4.23305 28.3919 4.28215 28.3525C4.33125 28.3131 4.38893 28.2922 4.44785 28.2925C4.52627 28.2929 4.60137 28.3308 4.65682 28.3979C4.71227 28.465 4.74358 28.556 4.74392 28.6509Z" fill="#DDE3E9" fill-opacity="0.5"/>
<path d="M11.0648 18.6562H5.96875V40.6511H11.0648V18.6562Z" fill="#DDE3E9" fill-opacity="0.5"/>
<path d="M10.6259 19.2847H6.40894V40.1535H10.6259V19.2847Z" fill="#BDCBD9"/>
<path d="M9.85814 19.8965H7.17651V20.1122H9.85814V19.8965Z" fill="#DDE3E9" fill-opacity="0.5"/>
<path d="M9.85814 20.8276H7.17651V21.0433H9.85814V20.8276Z" fill="#DDE3E9" fill-opacity="0.5"/>
<path d="M9.85814 21.7568H7.17651V21.9725H9.85814V21.7568Z" fill="#DDE3E9" fill-opacity="0.5"/>
<path d="M9.85814 22.686H7.17651V22.9017H9.85814V22.686Z" fill="#DDE3E9" fill-opacity="0.5"/>
<path d="M9.85814 23.6157H7.17651V23.8314H9.85814V23.6157Z" fill="#DDE3E9" fill-opacity="0.5"/>
<path d="M9.85814 24.5464H7.17651V24.7621H9.85814V24.5464Z" fill="#DDE3E9" fill-opacity="0.5"/>
<path d="M9.85814 25.4761H7.17651V25.6918H9.85814V25.4761Z" fill="#DDE3E9" fill-opacity="0.5"/>
<path d="M9.85814 33.0376H7.17651V33.2533H9.85814V33.0376Z" fill="#DDE3E9" fill-opacity="0.5"/>
<path d="M9.85814 33.9668H7.17651V34.1825H9.85814V33.9668Z" fill="#DDE3E9" fill-opacity="0.5"/>
<path d="M9.85814 34.896H7.17651V35.1117H9.85814V34.896Z" fill="#DDE3E9" fill-opacity="0.5"/>
<path d="M9.85814 35.8252H7.17651V36.0409H9.85814V35.8252Z" fill="#DDE3E9" fill-opacity="0.5"/>
<path d="M9.85814 36.7563H7.17651V36.972H9.85814V36.7563Z" fill="#DDE3E9" fill-opacity="0.5"/>
<path d="M9.85814 37.6855H7.17651V37.9012H9.85814V37.6855Z" fill="#DDE3E9" fill-opacity="0.5"/>
<path d="M9.85814 38.6152H7.17651V38.8309H9.85814V38.6152Z" fill="#DDE3E9" fill-opacity="0.5"/>
<path d="M9.98935 28.6509C9.98935 28.7218 9.97198 28.7911 9.93945 28.85C9.90692 28.909 9.86068 28.9549 9.80658 28.982C9.75248 29.0092 9.69295 29.0163 9.63552 29.0024C9.57809 28.9886 9.52534 28.9545 9.48393 28.9043C9.44253 28.8542 9.41433 28.7903 9.40291 28.7208C9.39148 28.6513 9.39734 28.5792 9.41975 28.5137C9.44216 28.4482 9.48011 28.3923 9.5288 28.3529C9.57749 28.3135 9.63473 28.2925 9.69328 28.2925C9.7717 28.2929 9.8468 28.3308 9.90225 28.3979C9.9577 28.465 9.989 28.556 9.98935 28.6509Z" fill="#DDE3E9" fill-opacity="0.5"/>
<path d="M24 47.9998C37.2548 47.9998 48 47.1822 48 46.1737C48 45.1652 37.2548 44.3477 24 44.3477C10.7452 44.3477 0 45.1652 0 46.1737C0 47.1822 10.7452 47.9998 24 47.9998Z" fill="#BDCBD9"/>
<path d="M13.272 21.7037L12.3345 21.8389L14.191 36.1001L15.1285 35.965L13.272 21.7037Z" fill="black" fill-opacity="0.92"/>
<path d="M7.40942 21.7042L6.47192 21.8394L8.32842 36.1006L9.26591 35.9655L7.40942 21.7042Z" fill="black" fill-opacity="0.92"/>
<g opacity="0.3">
<path d="M13.272 21.7037L12.3345 21.8389L14.191 36.1001L15.1285 35.965L13.272 21.7037Z" fill="#DDE3E9" fill-opacity="0.5"/>
</g>
<g opacity="0.4">
<path d="M7.40942 21.7047L6.47192 21.8398L8.32842 36.1011L9.26591 35.9659L7.40942 21.7047Z" fill="#DDE3E9" fill-opacity="0.5"/>
</g>
<path d="M13.9089 26.5388H6.83961C6.65345 26.5386 6.47372 26.4671 6.334 26.3377C6.19428 26.2082 6.10414 26.0297 6.08041 25.8354L5.5784 21.7107C5.56787 21.623 5.57519 21.5339 5.59988 21.4493C5.62457 21.3648 5.66606 21.2867 5.72159 21.2204C5.77713 21.154 5.84545 21.1008 5.92201 21.0643C5.99857 21.0278 6.08163 21.0089 6.16568 21.0088H13.235C13.4213 21.0086 13.6011 21.08 13.7409 21.2095C13.8807 21.339 13.9708 21.5177 13.9942 21.7122L14.4962 25.8325C14.5074 25.9206 14.5005 26.0101 14.4762 26.0952C14.4518 26.1803 14.4104 26.2589 14.3548 26.3257C14.2992 26.3926 14.2306 26.4462 14.1537 26.483C14.0768 26.5197 13.9934 26.5387 13.9089 26.5388Z" fill="black" fill-opacity="0.92"/>
<path opacity="0.6" d="M13.9089 26.5388H6.83961C6.65345 26.5386 6.47372 26.4671 6.334 26.3377C6.19428 26.2082 6.10414 26.0297 6.08041 25.8354L5.5784 21.7107C5.56787 21.623 5.57519 21.5339 5.59988 21.4493C5.62457 21.3648 5.66606 21.2867 5.72159 21.2204C5.77713 21.154 5.84545 21.1008 5.92201 21.0643C5.99857 21.0278 6.08163 21.0089 6.16568 21.0088H13.235C13.4213 21.0086 13.6011 21.08 13.7409 21.2095C13.8807 21.339 13.9708 21.5177 13.9942 21.7122L14.4962 25.8325C14.5074 25.9206 14.5005 26.0101 14.4762 26.0952C14.4518 26.1803 14.4104 26.2589 14.3548 26.3257C14.2992 26.3926 14.2306 26.4462 14.1537 26.483C14.0768 26.5197 13.9934 26.5387 13.9089 26.5388Z" fill="#DDE3E9" fill-opacity="0.5"/>
<path d="M13.9764 46.4675H15.2953L15.4576 39.1328L15.525 36.0342H13.748L13.8154 39.1328L13.9764 46.4675Z" fill="black" fill-opacity="0.92"/>
<path opacity="0.4" d="M13.9764 46.4675H15.2953L15.4576 39.1328L15.525 36.0342H13.748L13.8154 39.1328L13.9764 46.4675Z" fill="#DDE3E9" fill-opacity="0.5"/>
<path opacity="0.2" d="M15.525 36.0342L15.4576 39.2181H13.8154L13.748 36.0342H15.525Z" fill="black" fill-opacity="0.92"/>
<path d="M20.7101 46.4677L20.1366 36.2529H18.592L19.3939 46.4677H20.7101Z" fill="black" fill-opacity="0.92"/>
<path opacity="0.5" d="M19.3925 46.4674H20.7087L20.2218 37.7651L20.1366 36.2324H18.592L18.7117 37.7651L19.3925 46.4674Z" fill="#DDE3E9" fill-opacity="0.5"/>
<path opacity="0.2" d="M18.592 36.2324L18.7103 37.8244H20.2218L20.1366 36.2324H18.592Z" fill="black" fill-opacity="0.92"/>
<path d="M9.87774 46.4677L10.681 36.2529H9.13505L8.56152 46.4677H9.87774Z" fill="black" fill-opacity="0.92"/>
<path opacity="0.5" d="M9.87921 46.4674L10.56 37.7651L10.6797 36.2324H9.13514L9.04987 37.7651L8.56299 46.4674H9.87921Z" fill="#DDE3E9" fill-opacity="0.5"/>
<path opacity="0.2" d="M10.6796 36.2324L10.5599 37.8244H9.0498L9.13508 36.2324H10.6796Z" fill="black" fill-opacity="0.92"/>
<path d="M8.98099 34.5073H20.2892C20.4679 34.5073 20.6393 34.582 20.7657 34.715C20.8921 34.848 20.9631 35.0284 20.9631 35.2165V36.8345H8.30982V35.2179C8.30945 35.0301 8.37991 34.8498 8.50574 34.7166C8.63157 34.5833 8.80249 34.5081 8.98099 34.5073Z" fill="black" fill-opacity="0.92"/>
<path d="M21.3 35.6709H7.97139C7.82175 35.6709 7.70044 35.7985 7.70044 35.956V36.5494C7.70044 36.7068 7.82175 36.8345 7.97139 36.8345H21.3C21.4496 36.8345 21.5709 36.7068 21.5709 36.5494V35.956C21.5709 35.7985 21.4496 35.6709 21.3 35.6709Z" fill="black" fill-opacity="0.92"/>
<path opacity="0.6" d="M21.3 35.6709H7.97139C7.82175 35.6709 7.70044 35.7985 7.70044 35.956V36.5494C7.70044 36.7068 7.82175 36.8345 7.97139 36.8345H21.3C21.4496 36.8345 21.5709 36.7068 21.5709 36.5494V35.956C21.5709 35.7985 21.4496 35.6709 21.3 35.6709Z" fill="#DDE3E9" fill-opacity="0.5"/>
<path d="M21.6371 12.4237L21.4253 10.1616L23.3095 10.2861C23.3095 10.2861 23.6685 11.8462 22.637 12.6017L21.6371 12.4237Z" fill="#C56C31"/>
<path d="M22.0112 8.6665L23.3948 9.11226L23.3095 10.286L21.4253 10.1615L22.0112 8.6665Z" fill="#C56C31"/>
<path d="M18.0845 19.039C18.0845 19.039 20.3744 16.6438 20.6977 15.6713C21.0209 14.6987 21.6068 12.2861 21.6068 12.2861L22.7194 12.5206C22.7194 12.5206 22.3068 15.3789 22.0799 16.1387C21.853 16.8985 19.3979 20.4805 19.3979 20.4805L18.0845 19.039Z" fill="#C56C31"/>
<path opacity="0.2" d="M19.647 17.2676L20.8243 18.3357L20.4048 18.9811L19.0886 17.9203L19.647 17.2676Z" fill="black" fill-opacity="0.92"/>
<path d="M20.7389 18.8003L19.0486 17.4312L19.0183 17.4558C19.0087 17.463 18.9963 17.4746 18.9812 17.4847C18.9317 17.5252 18.8588 17.5846 18.7722 17.6613L18.6869 17.7336L18.6649 17.7539L18.5755 17.8349L18.4572 17.9464C18.2371 18.1533 17.0653 19.1867 16.8797 19.4385C16.848 19.4848 16.8164 19.5282 16.7889 19.5731C16.73 19.6601 16.6789 19.7526 16.6362 19.8495C16.6306 19.8641 16.626 19.8791 16.6225 19.8944C16.6178 19.9039 16.6146 19.9142 16.6128 19.9248C16.6055 19.9453 16.6004 19.9667 16.5977 19.9885C16.5937 20.0042 16.5905 20.0201 16.5881 20.0362C16.5881 20.0492 16.5881 20.0608 16.5881 20.0753C16.5881 20.0898 16.5881 20.1274 16.5798 20.1563C16.5716 20.1853 16.5798 20.2157 16.5798 20.249C16.5798 20.2822 16.5798 20.3097 16.5798 20.3416C16.5798 20.3503 16.5798 20.359 16.5798 20.3676C16.5798 20.3922 16.5798 20.4154 16.5798 20.4386C16.5798 20.4617 16.5798 20.508 16.5895 20.5428C16.5991 20.5775 16.5895 20.6122 16.6005 20.6484C16.6115 20.6846 16.6087 20.7222 16.6156 20.7584C16.771 21.7715 18.266 22.3229 18.6993 22.0725C19.5685 21.5689 20.4157 19.6194 20.6702 18.9898C20.7128 18.8726 20.7389 18.8003 20.7389 18.8003Z" fill="#224874"/>
<path opacity="0.6" d="M16.5647 20.2635C16.5647 20.2925 16.5647 20.3243 16.5647 20.3562C16.5634 20.3643 16.5634 20.3726 16.5647 20.3808C16.5647 20.4054 16.5647 20.4285 16.5647 20.4531C16.5647 20.4777 16.5647 20.5212 16.5744 20.5559C16.584 20.5906 16.5744 20.6268 16.5854 20.6615C16.5964 20.6963 16.595 20.7339 16.6005 20.7715C16.7284 21.6138 17.7751 22.1348 18.3788 22.1464C18.4838 22.1533 18.5888 22.1324 18.6842 22.0856C18.9855 21.8858 19.2447 21.6233 19.4461 21.3142C19.4791 21.2694 19.5108 21.2231 19.5424 21.1768C19.9788 20.4923 20.3519 19.7653 20.6564 19.0059L20.7335 18.8061L19.0431 17.4399L19.0129 17.4631L18.9757 17.492C18.9276 17.5311 18.8547 17.5919 18.7681 17.6672L18.6828 17.7395C18.6828 17.7482 18.669 17.7511 18.6622 17.7598C18.6319 17.7844 18.603 17.8104 18.5714 17.8408L18.4545 17.9508C18.2331 18.1607 17.0612 19.1926 16.8756 19.4429C16.8439 19.4907 16.8123 19.5327 16.7848 19.5804C16.7258 19.6668 16.6746 19.7589 16.6321 19.8554C16.6321 19.8713 16.6211 19.8858 16.617 19.9003C16.6134 19.9101 16.6107 19.9203 16.6088 19.9307C16.6019 19.9514 16.5969 19.9727 16.5936 19.9943C16.5936 20.0088 16.5936 20.0262 16.584 20.0421C16.5744 20.058 16.584 20.0667 16.584 20.0812C16.584 20.0957 16.584 20.1333 16.5757 20.1637C16.5675 20.1941 16.5675 20.223 16.5647 20.2635Z" fill="#DDE3E9" fill-opacity="0.5"/>
<path d="M20.8835 18.6989L19.1808 17.1416L18.9373 17.3225L18.8521 17.3847L18.9731 17.4918L18.9855 17.5034L20.6606 18.9984L20.706 19.039L20.8835 18.6989Z" fill="#224874"/>
<path opacity="0.2" d="M18.3843 22.1448C18.4893 22.1517 18.5943 22.1308 18.6896 22.084C18.9909 21.8842 19.2502 21.6217 19.4516 21.3126C19.1944 20.9616 18.8653 20.6762 18.4888 20.4775C18.0625 21.0246 18.2206 21.5977 18.3843 22.1448Z" fill="black" fill-opacity="0.92"/>
<path d="M24.8595 33.2164C23.4718 31.2901 18.1547 31.0947 18.1547 31.0947C18.1547 31.0947 11.1403 34.3872 15.1179 34.6058C15.7423 34.6405 16.7367 34.5985 17.3047 34.6275C20.3511 34.7896 21.8709 34.9835 22.3275 35.671C22.7332 36.286 21.3221 45.2778 21.3221 45.2778H22.5558C22.5558 45.2778 26.1317 34.9878 24.8595 33.2164Z" fill="#C56C31"/>
<path d="M22.9093 44.5857L21.2052 44.4743C21.177 44.4711 21.1486 44.4797 21.1265 44.4985C21.1043 44.5172 21.0901 44.5444 21.087 44.5742L20.9192 45.9881C20.9164 46.0621 20.9406 46.1344 20.9869 46.1901C21.0332 46.2458 21.0981 46.2807 21.1681 46.2877C21.7623 46.3167 22.0483 46.2993 22.7979 46.3413C23.2586 46.3702 24.165 46.4744 24.8004 46.4093C25.4358 46.3442 25.3574 45.6857 25.0837 45.6538C24.4332 45.5757 23.5708 45.0749 23.1651 44.6914C23.0933 44.6274 23.0033 44.5903 22.9093 44.5857Z" fill="black" fill-opacity="0.92"/>
<path d="M23.432 44.893C23.2955 44.881 23.1608 44.8528 23.0304 44.809C23.0236 44.8078 23.0174 44.8044 23.0127 44.7991C23.008 44.7939 23.005 44.7872 23.0042 44.7801C23.0038 44.7729 23.0051 44.7656 23.0079 44.7591C23.0108 44.7525 23.0152 44.7468 23.0207 44.7425C23.0716 44.7092 23.52 44.4299 23.7084 44.5181C23.7286 44.5286 23.7461 44.544 23.7593 44.5632C23.7725 44.5824 23.781 44.6047 23.7841 44.6281C23.7942 44.6645 23.7942 44.7031 23.7842 44.7395C23.7742 44.7759 23.7546 44.8085 23.7277 44.8336C23.6401 44.893 23.5341 44.9143 23.432 44.893ZM23.6713 44.592C23.575 44.5442 23.3137 44.6614 23.1308 44.7685C23.399 44.8423 23.5984 44.8467 23.6809 44.7772C23.696 44.7599 23.707 44.7391 23.7127 44.7164C23.7185 44.6937 23.7189 44.6699 23.7139 44.647C23.7126 44.6353 23.7085 44.6241 23.702 44.6145C23.6955 44.6049 23.6868 44.5972 23.6768 44.592H23.6713Z" fill="#224874"/>
<path d="M23.0372 44.8101C23.0348 44.8112 23.0322 44.8117 23.0296 44.8117C23.027 44.8117 23.0244 44.8112 23.022 44.8101C23.0172 44.8067 23.0131 44.8022 23.01 44.7969C23.0069 44.7917 23.0049 44.7858 23.0042 44.7797C23.0042 44.7652 23.0042 44.2992 23.1596 44.1516C23.1808 44.1334 23.2057 44.1203 23.2323 44.1133C23.2589 44.1063 23.2867 44.1055 23.3136 44.1111C23.3437 44.1142 23.372 44.1276 23.3942 44.1493C23.4163 44.171 23.431 44.1998 23.436 44.2312C23.4594 44.4078 23.2132 44.7276 23.0564 44.8101C23.0534 44.8116 23.0501 44.8123 23.0468 44.8123C23.0435 44.8123 23.0402 44.8116 23.0372 44.8101ZM23.2833 44.1892C23.2693 44.1878 23.2551 44.1897 23.2418 44.1947C23.2285 44.1997 23.2164 44.2077 23.2063 44.2182C23.1087 44.3036 23.0825 44.567 23.077 44.7175C23.2146 44.6089 23.3741 44.3658 23.3645 44.25C23.3645 44.2269 23.3507 44.2008 23.3012 44.1907L23.2833 44.1892Z" fill="#224874"/>
<path d="M20.702 35.671C19.72 35.5263 17.7133 35.1819 16.177 35.0994L14.3891 35.0067C10.4102 34.7868 18.7187 30.5391 18.7187 30.5391C18.7187 30.5391 21.5382 30.8372 23.6191 31.7128C22.5381 32.8069 21.5107 34.7766 20.702 35.671Z" fill="#224874"/>
<path d="M10.5187 29.7793C10.5187 29.7793 8.75823 35.0256 13.7535 35.0256C18.7488 35.0256 19.1463 32.9777 18.7241 30.5666L10.5187 29.7793Z" fill="#224874"/>
<path d="M10.04 30.8053C10.04 30.8053 10.9533 23.7484 11.5901 22.2997C12.2269 20.851 13.2543 18.8726 17.7049 20.0189C17.7049 20.0189 19.3925 20.5182 19.105 22.7079C18.8176 24.8976 18.7213 30.5766 18.7213 30.5766L10.04 30.8053Z" fill="#224874"/>
<path opacity="0.6" d="M19.1036 22.708C19.0184 23.352 18.9496 24.3 18.896 25.3131C18.885 25.5475 18.8726 25.7892 18.8602 26.0294C18.8355 26.5866 18.8134 27.1482 18.7956 27.6764C18.7956 27.7676 18.7956 27.8602 18.7846 27.95C18.7392 29.4247 18.7199 30.5796 18.7199 30.5796L10.04 30.8068C10.04 30.8068 10.9533 23.7457 11.5901 22.3013C12.2269 20.857 13.2543 18.8728 17.7049 20.0204C17.7022 20.0204 19.3925 20.5183 19.1036 22.708Z" fill="#DDE3E9" fill-opacity="0.5"/>
<path d="M17.0269 21.3302L17.5427 20.4517L18.251 21.3302C18.251 21.3302 18.0516 18.9987 15.4755 18.9451C15.1918 18.9245 14.9096 19.0035 14.6731 19.1698C14.4366 19.3361 14.2593 19.5803 14.1689 19.8641C14.6214 20.6312 15.8194 21.4662 15.8194 21.4662L16.2952 20.7064L17.0269 21.3302Z" fill="#224874"/>
<path d="M15.0217 16.9692C15.0924 17.4993 15.1131 18.0355 15.0836 18.5699C15.072 18.9289 14.995 19.2821 14.8567 19.6105C14.8567 19.6105 15.5444 20.3124 16.166 20.4615L16.8537 20.997L16.8083 20.2733C16.8083 20.2733 16.8083 20.2357 16.8001 20.1706C16.7836 19.8811 16.8001 18.9983 17.5689 18.6654C18.6183 18.1965 15.0217 16.9692 15.0217 16.9692Z" fill="#C56C31"/>
<path opacity="0.2" d="M15.0217 16.9692C15.0924 17.4993 15.1131 18.0355 15.0836 18.5699C15.5196 19.253 16.0794 19.9072 16.7987 20.1619C16.7822 19.8724 16.7987 18.9896 17.5675 18.6567C18.6183 18.1965 15.0217 16.9692 15.0217 16.9692Z" fill="black" fill-opacity="0.92"/>
<path opacity="0.2" d="M18.8958 25.3099C18.8848 25.5444 18.8725 25.7861 18.8601 26.0263C18.8353 26.5835 18.8133 27.1451 18.7954 27.6733C18.7954 27.7645 18.7954 27.8571 18.7844 27.9468C13.1248 27.6748 12.2405 23.2751 12.2405 23.2751C12.2405 23.2751 13.7094 21.6614 14.5332 21.8365C15.357 22.0116 17.2262 24.3852 17.2262 24.3852L17.1478 24.7137C17.3623 24.9612 18.4103 25.2072 18.8958 25.3099Z" fill="black" fill-opacity="0.92"/>
<path d="M22.1318 21.8249L21.7996 21.96L23.316 26.0911L23.6483 25.956L22.1318 21.8249Z" fill="black" fill-opacity="0.92"/>
<path d="M23.623 24.6211L23.1458 24.4098C23.0575 24.3703 22.9614 24.3536 22.8657 24.3611C22.77 24.3687 22.6774 24.4003 22.5956 24.4532L21.8199 24.9554C21.6674 25.0544 21.5396 25.1904 21.4472 25.3521C21.3548 25.5137 21.3006 25.6963 21.2891 25.8845L21.2739 26.1204C22.0414 26.5286 23.1582 26.3752 23.1582 26.3752L23.48 26.3679C23.5463 26.3687 23.6121 26.3556 23.6736 26.3294C23.7351 26.3031 23.791 26.2643 23.8381 26.2152C23.8851 26.166 23.9225 26.1075 23.9479 26.0431C23.9733 25.9786 23.9863 25.9095 23.9861 25.8397V25.1667C23.9826 25.0484 23.9464 24.9338 23.8819 24.8369C23.8174 24.74 23.7275 24.665 23.623 24.6211Z" fill="#C56C31"/>
<path d="M14.957 22.7397C14.957 22.7397 17.5124 25.2884 18.0543 25.2594L21.6591 25.0684L21.5381 26.1697C21.5532 26.1697 18.3018 26.7935 17.434 26.6792C16.5689 26.8413 13.7439 23.8541 13.7439 23.8541L14.957 22.7397Z" fill="#C56C31"/>
<path opacity="0.2" d="M16.3241 26.1897L17.1892 24.7612L16.701 24.3589L15.7671 25.7598L16.3241 26.1897Z" fill="black" fill-opacity="0.92"/>
<path d="M12.9983 20.7958C14.2664 19.5642 16.8397 24.1549 16.8397 24.1549L15.2828 26.1738C15.2828 26.1738 10.2504 23.4631 12.9983 20.7958Z" fill="#224874"/>
<path opacity="0.6" d="M12.9983 20.7958C14.2664 19.5642 16.8397 24.1549 16.8397 24.1549L15.2828 26.1738C15.2828 26.1738 10.2504 23.4631 12.9983 20.7958Z" fill="#DDE3E9" fill-opacity="0.5"/>
<path d="M14.957 26.2651L16.8399 23.854L17.1892 24.3895L15.5608 26.6646L14.957 26.2651Z" fill="#224874"/>
<path d="M17.6981 12.7549C17.6981 12.7549 18.7792 13.4004 18.5949 14.7014C18.4106 16.0025 16.3943 13.7897 16.3943 13.7897L17.6981 12.7549Z" fill="black" fill-opacity="0.92"/>
<path d="M13.5553 16.1692C14.3145 17.7236 14.6721 18.6773 15.8701 19.1042C17.6732 19.7526 19.4872 18.0666 19.2424 16.2835C19.0306 14.6771 17.8231 12.4092 15.8879 12.5279C13.9528 12.6466 12.7989 14.6192 13.5553 16.1692Z" fill="#C56C31"/>
<path d="M16.5042 15.9666C16.5565 16.1316 16.6844 16.2373 16.7875 16.1982C16.8907 16.1591 16.9251 15.997 16.8755 15.832C16.826 15.667 16.694 15.5628 16.5908 15.6005C16.4877 15.6381 16.4561 15.8016 16.5042 15.9666Z" fill="black" fill-opacity="0.92"/>
<path d="M18.0171 15.1112C18.0707 15.2762 18.1986 15.3818 18.3004 15.3427C18.4022 15.3037 18.4379 15.1401 18.3884 14.9751C18.3389 14.8101 18.2082 14.7074 18.1051 14.7436C18.0019 14.7798 17.9662 14.9462 18.0171 15.1112Z" fill="black" fill-opacity="0.92"/>
<path d="M16.4658 14.6539C16.4734 14.6342 16.4758 14.6126 16.4726 14.5916C16.4639 14.5658 16.4459 14.5446 16.4226 14.5324C16.3992 14.5203 16.3723 14.5182 16.3475 14.5265C16.199 14.5729 16.0635 14.6567 15.9527 14.7707C15.842 14.8847 15.7594 15.0254 15.7121 15.1807C15.7088 15.1936 15.7079 15.2071 15.7096 15.2204C15.7112 15.2336 15.7154 15.2464 15.7218 15.258C15.7282 15.2696 15.7367 15.2797 15.7468 15.2878C15.757 15.2959 15.7685 15.3018 15.7808 15.3051C15.8058 15.3115 15.8321 15.3075 15.8544 15.294C15.8766 15.2806 15.8931 15.2586 15.9005 15.2328C15.9411 15.11 16.0093 14.9994 16.0994 14.9104C16.1894 14.8214 16.2986 14.7568 16.4176 14.7219C16.4295 14.7145 16.4399 14.7046 16.4482 14.693C16.4564 14.6813 16.4624 14.668 16.4658 14.6539Z" fill="black" fill-opacity="0.92"/>
<path d="M18.3801 13.8694C18.3975 13.8585 18.4114 13.8424 18.42 13.8231C18.4278 13.797 18.4256 13.7687 18.4137 13.7443C18.4019 13.72 18.3814 13.7015 18.3567 13.6928C18.2105 13.6391 18.0542 13.6233 17.901 13.6468C17.7477 13.6702 17.6021 13.7322 17.4765 13.8274C17.4663 13.8358 17.4578 13.8462 17.4515 13.858C17.4452 13.8699 17.4412 13.8829 17.4398 13.8964C17.4384 13.9099 17.4396 13.9236 17.4433 13.9366C17.447 13.9496 17.4531 13.9617 17.4614 13.9722C17.4782 13.9926 17.5017 14.0055 17.5272 14.0085C17.5527 14.0115 17.5783 14.0042 17.5989 13.9881C17.7004 13.9139 17.8175 13.8667 17.9402 13.8506C18.0628 13.8345 18.1873 13.8499 18.3031 13.8955C18.3169 13.8971 18.331 13.8956 18.3442 13.8911C18.3575 13.8866 18.3697 13.8792 18.3801 13.8694Z" fill="black" fill-opacity="0.92"/>
<path d="M17.793 15.6973L18.372 15.9042C18.372 15.9042 18.317 16.143 17.8975 16.3514L17.793 15.6973Z" fill="#992A16"/>
<path d="M13.0412 15.0707C13.0412 15.0707 12.2683 14.1054 13.2613 13.2544C13.7055 12.8752 14.7301 11.0951 14.7301 11.0951C14.9168 11.2278 15.0497 11.4291 15.1029 11.6595C15.498 11.3144 15.8635 10.9333 16.1949 10.5205C16.1949 10.5205 17.3997 11.3136 17.441 11.8766L18.2057 11.1718C18.2057 11.1718 18.1328 13.279 17.1356 13.6162C16.1385 13.9534 15.1056 13.8275 15.4467 15.2574C15.7878 16.6873 15.074 17.1808 15.074 17.1808L15.0203 18.6049C15.0203 18.6049 13.7825 18.4819 13.1636 17.0447C12.5447 15.6076 13.0412 15.0707 13.0412 15.0707Z" fill="black" fill-opacity="0.92"/>
<path d="M15.2582 16.7048C15.2582 16.7048 14.6008 15.9074 14.2349 16.3502C13.8691 16.7931 14.4261 18.3055 15.1 18.0797C15.774 17.8539 15.7134 17.0999 15.2582 16.7048Z" fill="#C56C31"/>
<path d="M18.2153 16.8492C18.1692 17.0878 18.1398 17.3297 18.1272 17.5728L18.0048 17.5858C17.4547 17.6423 17.1796 17.4758 17.0421 17.2732C16.9427 17.1138 16.8994 16.9229 16.9197 16.7334C17.2305 16.8883 17.7449 16.8781 18.0282 16.8608C18.1424 16.8593 18.2153 16.8492 18.2153 16.8492Z" fill="black" fill-opacity="0.92"/>
<path d="M18.0255 16.8652L17.9939 17.0793C17.4726 17.13 17.0985 17.0924 16.9197 16.9433C16.9106 16.8751 16.9106 16.806 16.9197 16.7378C17.2278 16.8926 17.7422 16.8825 18.0255 16.8652Z" fill="#DDE3E9" fill-opacity="0.5"/>
<path d="M18.0047 17.5901C17.4546 17.6465 17.1795 17.4801 17.042 17.2775C17.2531 17.2604 17.4655 17.283 17.6692 17.3441C17.8025 17.3876 17.9197 17.4736 18.0047 17.5901Z" fill="#EF4123"/>
<path opacity="0.2" d="M17.5359 31.0947L20.6992 31.9804L20.3361 32.3987C20.3361 32.3987 20.6112 32.5072 21.0816 33.3828C21.5519 34.2584 21.3374 34.7968 21.3374 34.7968L20.6992 35.6652L17.6363 35.273L17.5359 31.0947Z" fill="black" fill-opacity="0.92"/>
<path d="M20.5548 33.8793C19.7777 32.7996 17.364 31.8141 15.741 31.5405L13.9861 34.7013C16.4383 34.807 17.9086 35.4322 17.965 35.671C18.2277 36.8158 16.3875 45.2779 16.3875 45.2779H17.8797C17.8797 45.2779 21.9425 35.8056 20.5548 33.8793Z" fill="#C56C31"/>
<path d="M16.7367 35.953C15.2489 35.7008 13.7814 35.3307 12.3466 34.8459C11.9656 34.7142 11.6245 33.3393 11.718 32.6576C12.0426 30.2639 16.8619 30.6836 16.8619 30.6836C17.9338 31.1865 18.9751 31.7588 19.9798 32.3971C19.0267 33.5781 17.6252 34.7619 16.7367 35.953Z" fill="#224874"/>
<path d="M18.1767 44.5857L16.474 44.4743C16.4456 44.471 16.4171 44.4797 16.3947 44.4984C16.3723 44.5171 16.3578 44.5443 16.3543 44.5742L16.1879 45.9881C16.183 46.0624 16.2063 46.1357 16.2527 46.1919C16.2992 46.2481 16.3649 46.2825 16.4355 46.2877C17.031 46.3167 17.3157 46.2993 18.0666 46.3413C18.526 46.3702 19.4337 46.4744 20.0678 46.4093C20.7018 46.3442 20.6248 45.6857 20.3511 45.6538C19.7006 45.5757 18.8382 45.0749 18.4325 44.6914C18.3606 44.6274 18.2707 44.5903 18.1767 44.5857Z" fill="black" fill-opacity="0.92"/>
<path d="M18.7047 44.893C18.5682 44.881 18.4335 44.8528 18.3031 44.809C18.2965 44.8078 18.2905 44.8043 18.286 44.799C18.2815 44.7938 18.2788 44.7871 18.2783 44.7801C18.2776 44.773 18.2786 44.7658 18.2812 44.7592C18.2839 44.7526 18.2881 44.7469 18.2934 44.7425C18.3443 44.7092 18.7927 44.4299 18.9742 44.5181C18.9944 44.5286 19.0119 44.544 19.0251 44.5632C19.0383 44.5824 19.0468 44.6047 19.0499 44.6281C19.06 44.6644 19.0602 44.7029 19.0504 44.7392C19.0407 44.7755 19.0214 44.8083 18.9949 44.8336C18.9084 44.8905 18.805 44.9116 18.7047 44.893ZM18.944 44.592C18.8477 44.5442 18.5878 44.6614 18.4035 44.7685C18.6717 44.8423 18.8725 44.8467 18.9536 44.7772C18.9695 44.7605 18.9809 44.7396 18.9867 44.7167C18.9925 44.6939 18.9925 44.6698 18.9866 44.647C18.9855 44.6352 18.9815 44.6239 18.975 44.6143C18.9685 44.6046 18.9597 44.5969 18.9495 44.592H18.944Z" fill="#224874"/>
<path d="M18.3046 44.8101C18.3025 44.8112 18.3001 44.8117 18.2977 44.8117C18.2954 44.8117 18.293 44.8112 18.2909 44.8101C18.2858 44.8069 18.2815 44.8025 18.2784 44.7972C18.2753 44.7919 18.2735 44.7859 18.273 44.7797C18.273 44.7652 18.2661 44.2992 18.427 44.1516C18.4483 44.1334 18.4731 44.1203 18.4998 44.1133C18.5264 44.1063 18.5541 44.1055 18.5811 44.1111C18.6112 44.1142 18.6395 44.1276 18.6616 44.1493C18.6838 44.171 18.6985 44.1998 18.7035 44.2312C18.7269 44.4078 18.4807 44.7276 18.3239 44.8101C18.3208 44.8115 18.3176 44.8122 18.3143 44.8122C18.3109 44.8122 18.3077 44.8115 18.3046 44.8101ZM18.5522 44.1892C18.5379 44.1877 18.5235 44.1895 18.5099 44.1945C18.4964 44.1995 18.484 44.2076 18.4738 44.2182C18.3761 44.3036 18.35 44.567 18.3459 44.7175C18.4834 44.6089 18.6416 44.3658 18.632 44.25C18.632 44.2269 18.6196 44.2008 18.5687 44.1907L18.5522 44.1892Z" fill="#224874"/>
<path d="M26.6076 23.6853C26.1414 23.6676 24.9778 23.7676 24.9778 23.7676L24.4387 23.5337C24.4387 23.5337 21.7182 24.0305 21.4129 24.0079C21.1075 23.9854 20.2727 24.3644 20.2727 24.3644L26.2761 24.6806L26.6076 23.6853Z" fill="#224874"/>
<path opacity="0.9" d="M26.6076 23.6853C26.1414 23.6676 24.9778 23.7676 24.9778 23.7676L24.4387 23.5337C24.4387 23.5337 21.7182 24.0305 21.4129 24.0079C21.1075 23.9854 20.2727 24.3644 20.2727 24.3644L26.2761 24.6806L26.6076 23.6853Z" fill="#DDE3E9" fill-opacity="0.5"/>
<path d="M27.9197 24.3579C27.9197 24.3579 26.8717 23.1916 25.8979 23.9159C25.8979 23.9159 24.5954 23.0416 23.2613 23.9159L21.4844 24.2837L27.9197 24.3579Z" fill="#224874"/>
<path opacity="0.7" d="M27.9197 24.3579C27.9197 24.3579 26.8717 23.1916 25.8979 23.9159C25.8979 23.9159 24.5954 23.0416 23.2613 23.9159L21.4844 24.2837L27.9197 24.3579Z" fill="#DDE3E9" fill-opacity="0.5"/>
<path d="M18.9291 46.3544H18.262L17.9705 25.6646H19.2207L18.9291 46.3544Z" fill="#224874"/>
<path opacity="0.7" d="M18.9291 46.3544H18.262L17.9705 25.6646H19.2207L18.9291 46.3544Z" fill="#DDE3E9" fill-opacity="0.5"/>
<path d="M26.2858 46.3544H25.6187L25.3271 25.6646H26.5773L26.2858 46.3544Z" fill="#224874"/>
<path opacity="0.4" d="M26.2858 46.3544H25.6187L25.3271 25.6646H26.5773L26.2858 46.3544Z" fill="#DDE3E9" fill-opacity="0.5"/>
<path d="M31.1724 25.3179H18.5947V30.1847H31.1724V25.3179Z" fill="#224874"/>
<path opacity="0.3" d="M31.1724 25.3179H18.5947V30.1847H31.1724V25.3179Z" fill="#DDE3E9" fill-opacity="0.5"/>
<path d="M38.5484 25.3179H31.1724V30.1847H38.5484V25.3179Z" fill="#224874"/>
<path opacity="0.5" d="M38.5484 25.3179H31.1724V30.1847H38.5484V25.3179Z" fill="#DDE3E9" fill-opacity="0.5"/>
<path d="M38.8634 46.3544H38.1977L37.9048 25.6646H39.1564L38.8634 46.3544Z" fill="#224874"/>
<path opacity="0.4" d="M38.8634 46.3544H38.1977L37.9048 25.6646H39.1564L38.8634 46.3544Z" fill="#DDE3E9" fill-opacity="0.5"/>
<path d="M39.5538 24.2773H29.7241C29.5228 24.2773 29.3596 24.4687 29.3596 24.7048V25.2372C29.3596 25.4732 29.5228 25.6646 29.7241 25.6646H39.5538C39.7551 25.6646 39.9182 25.4732 39.9182 25.2372V24.7048C39.9182 24.4687 39.7551 24.2773 39.5538 24.2773Z" fill="black" fill-opacity="0.92"/>
<path opacity="0.4" d="M39.5538 24.2773H29.7241C29.5228 24.2773 29.3596 24.4687 29.3596 24.7048V25.2372C29.3596 25.4732 29.5228 25.6646 29.7241 25.6646H39.5538C39.7551 25.6646 39.9182 25.4732 39.9182 25.2372V24.7048C39.9182 24.4687 39.7551 24.2773 39.5538 24.2773Z" fill="#DDE3E9" fill-opacity="0.5"/>
<path d="M30.6388 24.2773H17.2978C17.0965 24.2773 16.9333 24.4687 16.9333 24.7048V25.2372C16.9333 25.4732 17.0965 25.6646 17.2978 25.6646H30.6388C30.8401 25.6646 31.0033 25.4732 31.0033 25.2372V24.7048C31.0033 24.4687 30.8401 24.2773 30.6388 24.2773Z" fill="black" fill-opacity="0.92"/>
<path opacity="0.3" d="M30.6388 24.2773H17.2978C17.0965 24.2773 16.9333 24.4687 16.9333 24.7048V25.2372C16.9333 25.4732 17.0965 25.6646 17.2978 25.6646H30.6388C30.8401 25.6646 31.0033 25.4732 31.0033 25.2372V24.7048C31.0033 24.4687 30.8401 24.2773 30.6388 24.2773Z" fill="#DDE3E9" fill-opacity="0.5"/>
<path d="M31.5067 46.3544H30.8397L30.5481 25.6646H31.7983L31.5067 46.3544Z" fill="#224874"/>
<path opacity="0.7" d="M31.5067 46.3544H30.8397L30.5481 25.6646H31.7983L31.5067 46.3544Z" fill="#DDE3E9" fill-opacity="0.5"/>
</svg>
