<svg width="48" height="49" viewBox="0 0 48 49" fill="none" xmlns="http://www.w3.org/2000/svg">
<path d="M24.7353 49.0001C37.584 49.0001 48 48.3074 48 47.4529C48 46.5984 37.584 45.9058 24.7353 45.9058C11.8866 45.9058 1.4707 46.5984 1.4707 47.4529C1.4707 48.3074 11.8866 49.0001 24.7353 49.0001Z" fill="#DDE3E9" fill-opacity="0.5"/>
<path d="M5.17171 45.2173H0.743408V45.2515H5.17171V45.2173Z" fill="#DDE3E9"/>
<path d="M15.8079 44.1826H9.98511V44.2168H15.8079V44.1826Z" fill="#DDE3E9"/>
<path d="M24.7942 44.4106H20.2095V44.4448H24.7942V44.4106Z" fill="#DDE3E9"/>
<path d="M32.4782 44.4106H25.9841V44.4448H32.4782V44.4106Z" fill="#DDE3E9"/>
<path d="M43.2989 44.9878H30.7734V45.022H43.2989V44.9878Z" fill="#DDE3E9"/>
<path d="M14.5123 11.8018H3.41479V42.9635H14.5123V11.8018Z" fill="#DDE3E9" fill-opacity="0.5"/>
<path d="M15.5097 11.748H2.67407V42.9098H15.5097V11.748Z" fill="#DDE3E9"/>
<path d="M13.373 35.5762H2.73682V41.2208H13.373V35.5762Z" fill="#DDE3E9" fill-opacity="0.5"/>
<path d="M13.373 28.1724H2.73682V33.8184H13.373V28.1724Z" fill="#DDE3E9" fill-opacity="0.5"/>
<path d="M13.373 20.7705H2.73682V26.4165H13.373V20.7705Z" fill="#DDE3E9" fill-opacity="0.5"/>
<path d="M13.373 13.3682H2.73682V19.0142H13.373V13.3682Z" fill="#DDE3E9" fill-opacity="0.5"/>
<path opacity="0.05" d="M4.95899 13.3682H2.73682V19.0142H4.95899V13.3682Z" fill="black" fill-opacity="0.92"/>
<path opacity="0.05" d="M4.95899 20.7705H2.73682V26.4165H4.95899V20.7705Z" fill="black" fill-opacity="0.92"/>
<path opacity="0.05" d="M4.95899 28.1724H2.73682V33.8184H4.95899V28.1724Z" fill="black" fill-opacity="0.92"/>
<path opacity="0.05" d="M4.95899 35.5762H2.73682V41.2208H4.95899V35.5762Z" fill="black" fill-opacity="0.92"/>
<path d="M2.93616 41.2546C2.93616 41.2546 2.19944 40.6054 1.69003 39.1197C1.18061 37.6341 0 35.9311 0 35.9311C0 35.9311 1.54429 36.6774 2.08847 38.0974C2.08847 38.0974 1.41994 35.219 0 34.1667C0 34.1667 2.54039 35.0031 3.17816 37.7106C3.17816 37.7106 3.60201 35.5607 2.91075 33.4245C2.91075 33.4245 4.2117 35.096 4.36412 37.1694C4.36412 37.1694 4.54462 33.579 5.70117 32.5225C5.70117 32.5225 5.33749 35.7726 5.70117 37.4127C5.70117 37.4127 6.21593 34.5343 8.51699 34.1325C8.51699 34.1325 7.03287 35.9585 7.09437 37.5671C7.35322 37.0114 7.74881 36.534 8.24242 36.1816C8.73602 35.8291 9.31071 35.6138 9.91019 35.5566C9.91019 35.5566 8.26295 36.7361 8.11454 38.655C7.96613 40.5739 7.96212 41.1616 6.96334 41.4405C5.96457 41.7193 2.93616 41.2546 2.93616 41.2546Z" fill="#596F88"/>
<path d="M1.33838 39.4985V43.2379C1.33838 43.2379 1.80902 44.5774 4.83208 44.7496C7.85515 44.9218 8.56111 43.2721 8.56111 43.2721V39.4985H1.33838Z" fill="#DDE3E9"/>
<path d="M46.6817 28.3774H27.7424V43.1314H46.6817V28.3774Z" fill="#DDE3E9" fill-opacity="0.5"/>
<path d="M41.9659 28.3774H23.0266V43.1314H41.9659V28.3774Z" fill="#DDE3E9"/>
<path d="M41.0232 29.7432H23.7031V35.2088H41.0232V29.7432Z" stroke="#DDE3E9" stroke-opacity="0.5" stroke-miterlimit="10"/>
<path d="M41.0232 36.1187H23.7031V41.5843H41.0232V36.1187Z" stroke="#DDE3E9" stroke-opacity="0.5" stroke-miterlimit="10"/>
<path d="M32.3633 32.9713C32.6313 32.9713 32.8486 32.7491 32.8486 32.4751C32.8486 32.2011 32.6313 31.979 32.3633 31.979C32.0952 31.979 31.8779 32.2011 31.8779 32.4751C31.8779 32.7491 32.0952 32.9713 32.3633 32.9713Z" fill="#DDE3E9" fill-opacity="0.5"/>
<path d="M32.3633 39.7637C32.6313 39.7637 32.8486 39.5416 32.8486 39.2676C32.8486 38.9936 32.6313 38.7715 32.3633 38.7715C32.0952 38.7715 31.8779 38.9936 31.8779 39.2676C31.8779 39.5416 32.0952 39.7637 32.3633 39.7637Z" fill="#DDE3E9" fill-opacity="0.5"/>
<path d="M47.3864 27.5903H22.1924V28.3776H47.3864V27.5903Z" fill="#DDE3E9" fill-opacity="0.5"/>
<path opacity="0.05" d="M47.3862 27.5903H42.6812V28.3776H47.3862V27.5903Z" fill="black" fill-opacity="0.92"/>
<path d="M46.4677 5.65137H26.1445V17.6787H46.4677V5.65137Z" fill="#DDE3E9" fill-opacity="0.5"/>
<path d="M45.6656 5.65137H25.6099V17.6787H45.6656V11.665V5.65137Z" fill="#DDE3E9"/>
<path d="M45.6828 6.50146H26.408V16.8518H45.6828V6.50146Z" fill="#BDCBD9"/>
<path d="M26.6179 6.50146H26.408V16.8518H26.6179V6.50146Z" fill="#DDE3E9" fill-opacity="0.5"/>
<path d="M44.6593 9.78061L42.2222 8.84521L41.4744 10.8809L43.9115 11.8163L44.6593 9.78061Z" fill="#DDE3E9" fill-opacity="0.5"/>
<path d="M42.4057 9.35512C42.4567 9.35512 42.498 9.31289 42.498 9.26081C42.498 9.20873 42.4567 9.1665 42.4057 9.1665C42.3548 9.1665 42.3135 9.20873 42.3135 9.26081C42.3135 9.31289 42.3548 9.35512 42.4057 9.35512Z" fill="#DDE3E9"/>
<path d="M32.9368 12.4482L38.1219 12.9813L37.805 15.0888L32.8125 14.4779L32.9368 12.4482Z" fill="#DDE3E9" fill-opacity="0.5"/>
<path d="M37.8505 13.3682C37.8505 13.3869 37.8451 13.4051 37.835 13.4206C37.8248 13.4361 37.8104 13.4482 37.7936 13.4554C37.7767 13.4625 37.7582 13.4644 37.7403 13.4607C37.7224 13.4571 37.7059 13.4481 37.693 13.4349C37.6801 13.4217 37.6713 13.4049 37.6678 13.3866C37.6642 13.3683 37.6661 13.3494 37.673 13.3321C37.68 13.3149 37.6918 13.3002 37.707 13.2898C37.7222 13.2795 37.74 13.2739 37.7583 13.2739C37.7827 13.2739 37.8062 13.2839 37.8235 13.3015C37.8408 13.3192 37.8505 13.3432 37.8505 13.3682Z" fill="#DDE3E9"/>
<path d="M35.7715 27.5903L36.9173 21.604H42.2829L41.1678 27.5903H35.7715Z" fill="#DDE3E9"/>
<path d="M36.5884 26.8401L37.4468 22.3545H41.4673L40.6316 26.8401H36.5884Z" fill="#DDE3E9" fill-opacity="0.5"/>
<path d="M37.654 22.3545L36.8224 26.8401H36.5884L37.4468 22.3545H37.654Z" fill="#DDE3E9"/>
<path d="M42.2828 21.604H42.5048L41.4672 27.5903H41.1677L42.2828 21.604Z" fill="#DDE3E9"/>
<path d="M42.1251 23.7881L42.8859 27.5904H41.4673L42.1251 23.7881Z" fill="#DDE3E9" fill-opacity="0.5"/>
<path d="M39.5117 10.2048C40.0755 9.64324 40.0871 8.72082 39.5377 8.14455C38.9884 7.56827 38.086 7.55636 37.5222 8.11794C36.9585 8.67952 36.9468 9.60193 37.4962 10.1782C38.0456 10.7545 38.9479 10.7664 39.5117 10.2048Z" fill="#DDE3E9" fill-opacity="0.5"/>
<path d="M33.3192 4.26904V20.6413C33.3194 20.9072 33.2683 21.1706 33.1688 21.4163C33.0694 21.662 32.9236 21.8853 32.7397 22.0734C32.5558 22.2615 32.3374 22.4108 32.0971 22.5126C31.8568 22.6144 31.5992 22.6668 31.339 22.6668H29.7493V4.26904H33.3192Z" fill="#022D5E"/>
<path opacity="0.8" d="M33.3192 4.26904V20.6413C33.3194 20.9072 33.2683 21.1706 33.1688 21.4163C33.0694 21.662 32.9236 21.8853 32.7397 22.0734C32.5558 22.2615 32.3374 22.4108 32.0971 22.5126C31.8568 22.6144 31.5992 22.6668 31.339 22.6668H29.7493V4.26904H33.3192Z" fill="#DDE3E9"/>
<path d="M33.3192 3.02551V20.6415C33.3194 20.9074 33.2683 21.1708 33.1689 21.4165C33.0694 21.6622 32.9236 21.8855 32.7397 22.0736C32.5558 22.2617 32.3375 22.411 32.0971 22.5128C31.8568 22.6146 31.5992 22.667 31.3391 22.667H3.35065C2.82512 22.667 2.32112 22.4536 1.94951 22.0737C1.57791 21.6939 1.36914 21.1787 1.36914 20.6415V3.02551C1.36897 2.75947 1.4201 2.496 1.51962 2.25017C1.61913 2.00434 1.76508 1.78098 1.94912 1.59286C2.13315 1.40474 2.35166 1.25555 2.59215 1.15382C2.83264 1.05209 3.09038 0.999821 3.35065 1H31.3391C31.5992 1 31.8568 1.0524 32.0971 1.15421C32.3375 1.25602 32.5558 1.40524 32.7397 1.59334C32.9236 1.78145 33.0694 2.00475 33.1689 2.25049C33.2683 2.49623 33.3194 2.75958 33.3192 3.02551Z" fill="#DDE3E9" stroke="#022D5E" stroke-miterlimit="10"/>
<path d="M33.2282 2.41731H1.45996C1.58657 2.00619 1.83818 1.64706 2.17819 1.39217C2.5182 1.13727 2.9289 0.999887 3.35055 1H31.339C31.7604 1.00018 32.1708 1.13769 32.5105 1.39257C32.8503 1.64745 33.1017 2.00641 33.2282 2.41731Z" fill="#022D5E"/>
<path d="M5.407 1.9964C5.56207 1.9964 5.68778 1.86789 5.68778 1.70938C5.68778 1.55087 5.56207 1.42236 5.407 1.42236C5.25193 1.42236 5.12622 1.55087 5.12622 1.70938C5.12622 1.86789 5.25193 1.9964 5.407 1.9964Z" fill="#DDE3E9"/>
<path d="M6.40969 1.9964C6.56476 1.9964 6.69047 1.86789 6.69047 1.70938C6.69047 1.55087 6.56476 1.42236 6.40969 1.42236C6.25462 1.42236 6.12891 1.55087 6.12891 1.70938C6.12891 1.86789 6.25462 1.9964 6.40969 1.9964Z" fill="#DDE3E9"/>
<path d="M7.69192 1.70928C7.69192 1.76638 7.67534 1.82219 7.64428 1.86964C7.61322 1.9171 7.56908 1.95406 7.51745 1.97584C7.46582 1.99763 7.40903 2.00326 7.35427 1.99202C7.29951 1.98078 7.24924 1.95318 7.20984 1.91271C7.17044 1.87225 7.14368 1.82073 7.13294 1.7647C7.12221 1.70867 7.12799 1.65065 7.14955 1.59797C7.1711 1.5453 7.20747 1.50036 7.25404 1.46884C7.30061 1.43731 7.35528 1.42063 7.41114 1.4209C7.44812 1.4209 7.48475 1.42837 7.5189 1.44288C7.55305 1.45739 7.58406 1.47865 7.61016 1.50545C7.63625 1.53225 7.6569 1.56405 7.67093 1.59903C7.68496 1.63401 7.6921 1.67148 7.69192 1.70928Z" fill="#DDE3E9"/>
<path d="M33.3192 3.02568V4.26942H1.36377V3.02568C1.36375 2.81941 1.3944 2.61433 1.45469 2.41748H33.2229C33.285 2.61405 33.3175 2.81913 33.3192 3.02568Z" fill="#022D5E"/>
<path opacity="0.5" d="M33.3192 3.02568V4.26942H1.36377V3.02568C1.36375 2.81941 1.3944 2.61433 1.45469 2.41748H33.2229C33.285 2.61405 33.3175 2.81913 33.3192 3.02568Z" fill="#DDE3E9"/>
<path d="M5.12758 4.26904V22.6668H3.30652C2.87826 22.6704 2.45993 22.535 2.11177 22.28C1.76361 22.0251 1.50358 21.6638 1.36914 21.2481V4.26904H5.12758Z" fill="#022D5E"/>
<path opacity="0.1" d="M5.12758 4.26904V22.6668H3.30652C2.87826 22.6704 2.45993 22.535 2.11177 22.28C1.76361 22.0251 1.50358 21.6638 1.36914 21.2481V4.26904H5.12758Z" fill="black" fill-opacity="0.92"/>
<path opacity="0.1" d="M28.4964 5.57324H6.40967V20.8111H28.4964V5.57324Z" fill="#022D5E"/>
<path opacity="0.2" d="M2.89462 6.34131H1.94531V7.3117H2.89462V6.34131Z" fill="black" fill-opacity="0.92"/>
<path opacity="0.2" d="M4.33212 6.34131H3.38281V7.3117H4.33212V6.34131Z" fill="black" fill-opacity="0.92"/>
<path d="M19.6626 13.1312C20.4715 12.0597 20.9996 10.6533 20.89 9.27974C20.787 7.9909 19.7695 7.20502 18.5341 7.5139C18.0127 7.65058 17.5353 7.91026 17.054 8.15491C16.2518 8.56493 15.4068 8.91482 14.5136 9.02552C13.6205 9.13623 12.7367 9.02552 11.8662 9.37404C10.3514 9.97814 9.9302 11.9572 10.5145 13.3923C11.0333 14.6661 12.2687 15.6501 13.583 15.9235" stroke="#011C3A" stroke-width="0.5" stroke-linecap="round" stroke-linejoin="round"/>
<path opacity="0.2" d="M2.89462 7.88037H1.94531V8.85076H2.89462V7.88037Z" fill="black" fill-opacity="0.92"/>
<path opacity="0.2" d="M4.33212 7.88037H3.38281V8.85076H4.33212V7.88037Z" fill="black" fill-opacity="0.92"/>
<path opacity="0.2" d="M2.89462 9.41895H1.94531V10.3893H2.89462V9.41895Z" fill="black" fill-opacity="0.92"/>
<path opacity="0.2" d="M4.33212 9.41895H3.38281V10.3893H4.33212V9.41895Z" fill="black" fill-opacity="0.92"/>
<path opacity="0.2" d="M2.89462 10.958H1.94531V11.9284H2.89462V10.958Z" fill="black" fill-opacity="0.92"/>
<path opacity="0.2" d="M4.33212 10.958H3.38281V11.9284H4.33212V10.958Z" fill="black" fill-opacity="0.92"/>
<path opacity="0.2" d="M2.89462 12.4956H1.94531V13.466H2.89462V12.4956Z" fill="black" fill-opacity="0.92"/>
<path opacity="0.2" d="M4.33212 12.4956H3.38281V13.466H4.33212V12.4956Z" fill="black" fill-opacity="0.92"/>
<path opacity="0.2" d="M2.89462 14.0347H1.94531V15.0051H2.89462V14.0347Z" fill="black" fill-opacity="0.92"/>
<path opacity="0.2" d="M4.33212 14.0347H3.38281V15.0051H4.33212V14.0347Z" fill="black" fill-opacity="0.92"/>
<path d="M2.86382 15.5297C2.86382 15.5516 2.85743 15.5731 2.84547 15.5913C2.83351 15.6095 2.81652 15.6237 2.79665 15.6321C2.77678 15.6404 2.75494 15.6425 2.73389 15.6381C2.71285 15.6337 2.69356 15.6231 2.67846 15.6074C2.66337 15.5918 2.65316 15.572 2.64914 15.5504C2.64511 15.5288 2.64745 15.5065 2.65585 15.4863C2.66425 15.4661 2.67834 15.4489 2.69633 15.4369C2.71431 15.4249 2.73538 15.4187 2.75686 15.419C2.77102 15.419 2.78503 15.4218 2.7981 15.4274C2.81116 15.433 2.82302 15.4412 2.83297 15.4515C2.84292 15.4618 2.85077 15.474 2.85606 15.4874C2.86136 15.5008 2.864 15.5152 2.86382 15.5297Z" fill="#011C3A"/>
<path d="M3.25298 15.5297C3.25298 15.5516 3.24663 15.573 3.23473 15.5912C3.22283 15.6094 3.20591 15.6236 3.18612 15.6319C3.16633 15.6403 3.14456 15.6425 3.12355 15.6382C3.10254 15.634 3.08324 15.6234 3.0681 15.6079C3.05295 15.5925 3.04264 15.5727 3.03846 15.5513C3.03428 15.5298 3.03642 15.5075 3.04462 15.4873C3.05282 15.4671 3.0667 15.4498 3.08451 15.4376C3.10232 15.4254 3.12326 15.419 3.14468 15.419C3.15895 15.4188 3.17311 15.4215 3.18633 15.427C3.19956 15.4325 3.21157 15.4407 3.22166 15.451C3.23175 15.4613 3.23972 15.4736 3.2451 15.4871C3.25048 15.5006 3.25316 15.5151 3.25298 15.5297Z" fill="#011C3A"/>
<path d="M3.64067 15.5297C3.64067 15.5516 3.63429 15.5731 3.62232 15.5913C3.61036 15.6095 3.59337 15.6237 3.5735 15.6321C3.55364 15.6404 3.53179 15.6425 3.51075 15.6381C3.4897 15.6337 3.47041 15.6231 3.45532 15.6074C3.44023 15.5918 3.43002 15.572 3.42599 15.5504C3.42197 15.5288 3.4243 15.5065 3.43271 15.4863C3.44111 15.4661 3.4552 15.4489 3.47318 15.4369C3.49117 15.4249 3.51224 15.4187 3.53371 15.419C3.54787 15.419 3.56189 15.4218 3.57495 15.4274C3.58802 15.433 3.59987 15.4412 3.60982 15.4515C3.61977 15.4618 3.62762 15.474 3.63292 15.4874C3.63821 15.5008 3.64085 15.5152 3.64067 15.5297Z" fill="#011C3A"/>
<path d="M16.86 14.4924L16.6902 14.614L16.5886 13.8555L17.2077 14.2409L17.0539 14.3475L17.2932 14.7083L17.1047 14.8669L16.86 14.4924Z" fill="#011C3A"/>
<path d="M29.8295 22.831C29.8295 22.831 29.1476 26.196 28.6864 27.0556C28.2251 27.9153 25.5804 27.8757 25.5804 27.8757L22.5186 27.7199C22.5186 27.7199 21.9356 25.7695 24.4319 26.7809C24.4319 26.7809 26.5377 26.3709 27.3413 25.6875L28.1836 22.1572L29.8295 22.831Z" fill="#F58672"/>
<path d="M38.9415 47.9163H38.1246L35.9078 35.5897L35.8315 35.1646L36.6204 35.0156L36.7234 35.5897L38.9415 47.9163Z" fill="#022D5E"/>
<path opacity="0.5" d="M38.9415 47.9163H38.1246L35.9078 35.5897L35.8315 35.1646L36.6204 35.0156L36.7234 35.5897L38.9415 47.9163Z" fill="#DDE3E9"/>
<path d="M35.4186 47.9166H34.6123L33.5052 35.59L33.3876 34.2779L33.3608 33.9868L34.1591 33.9116L34.1925 34.2779L34.3101 35.59L35.4186 47.9166Z" fill="#022D5E"/>
<path opacity="0.5" d="M35.4186 47.9166H34.6123L33.5052 35.59L33.3876 34.2779L33.3608 33.9868L34.1591 33.9116L34.1925 34.2779L34.3101 35.59L35.4186 47.9166Z" fill="#DDE3E9"/>
<path d="M27.1741 34.4336L27.0886 35.5898L26.1714 47.9165H25.3665L26.2823 35.5898L26.3733 34.3721L27.1741 34.4336Z" fill="#022D5E"/>
<path opacity="0.5" d="M27.1741 34.4336L27.0886 35.5898L26.1714 47.9165H25.3665L26.2823 35.5898L26.3733 34.3721L27.1741 34.4336Z" fill="#DDE3E9"/>
<path d="M24.849 34.4704L24.6685 35.5897L22.6804 47.9164H21.8674L23.857 35.5897L24.0589 34.3364L24.849 34.4704Z" fill="#022D5E"/>
<path opacity="0.5" d="M24.849 34.4704L24.6685 35.5897L22.6804 47.9164H21.8674L23.857 35.5897L24.0589 34.3364L24.849 34.4704Z" fill="#DDE3E9"/>
<path d="M37.9614 34.0851L37.8879 34.2778L37.5362 35.1867C37.491 35.3059 37.4115 35.4083 37.3081 35.4803C37.2047 35.5523 37.0824 35.5905 36.9573 35.5899H23.7125C23.584 35.5901 23.4585 35.5498 23.3532 35.4745C23.248 35.3991 23.168 35.2924 23.1242 35.1689L22.8127 34.2778L22.7391 34.0659C22.7054 33.9699 22.6949 33.8669 22.7083 33.7658C22.7218 33.6646 22.7588 33.5683 22.8164 33.4849C22.874 33.4015 22.9504 33.3335 23.0391 33.2867C23.1278 33.2398 23.2263 33.2155 23.3261 33.2158H37.3825C37.484 33.2157 37.5839 33.2409 37.6736 33.2894C37.7633 33.3378 37.8401 33.408 37.8972 33.4937C37.9543 33.5794 37.99 33.6781 38.0012 33.7812C38.0124 33.8843 37.9987 33.9886 37.9614 34.0851Z" fill="#022D5E"/>
<path opacity="0.3" d="M37.888 34.2778L37.5363 35.1867C37.4911 35.3059 37.4115 35.4083 37.3082 35.4803C37.2048 35.5523 37.0825 35.5905 36.9574 35.5899H23.7126C23.5841 35.5902 23.4586 35.5499 23.3533 35.4745C23.248 35.3992 23.168 35.2925 23.1243 35.1689L22.8127 34.2778H37.888Z" fill="black" fill-opacity="0.92"/>
<path d="M24.4746 42.1366L25.1004 40.6838C25.1367 40.5991 25.2018 40.5308 25.2837 40.4916C25.3656 40.4524 25.4587 40.4449 25.5456 40.4706L26.535 40.7576C26.5867 40.7727 26.6347 40.7991 26.6756 40.8349C26.7165 40.8706 26.7495 40.9149 26.7721 40.9648C26.7948 41.0147 26.8068 41.069 26.8072 41.1241C26.8075 41.1791 26.7963 41.2336 26.7743 41.2838C26.5069 41.9015 25.9988 43.0523 25.8384 43.4637C25.6205 44.0364 25.4373 44.7266 25.1458 44.9193C25.128 44.9314 25.1092 44.9419 25.0897 44.9507C25.0283 44.9766 24.9612 44.985 24.8955 44.9752C24.8298 44.9655 24.7679 44.9378 24.7163 44.8952C24.6646 44.8526 24.6251 44.7966 24.6019 44.733C24.5786 44.6695 24.5726 44.6007 24.5843 44.5339C24.6618 44.0528 24.746 43.1535 24.4626 42.4277C24.4453 42.3809 24.4375 42.331 24.4395 42.2809C24.4416 42.2309 24.4535 42.1818 24.4746 42.1366Z" fill="#011C3A"/>
<path d="M29.8778 28.3271C29.8778 28.3271 23.119 27.384 21.0773 29.3467C21.0773 29.3467 19.8125 31.1111 20.4208 34.5649C20.8187 36.6964 21.6831 38.7083 22.9492 40.4501L24.7235 38.9084C24.7235 38.9084 23.1444 34.9325 23.6792 32.4724L26.134 32.3234L29.6545 29.8633L30.0235 28.8437L29.8778 28.3271Z" fill="#011C3A"/>
<path d="M23.1123 41.1443L22.4504 40.3229L24.8758 38.2837L25.3345 38.7716L23.1123 41.1443Z" fill="#022D5E"/>
<path d="M36.5215 28.252C36.5215 28.252 36.7087 30.2201 36.0977 31.6606C35.4866 33.1012 33.3273 33.6287 31.8713 33.5331C30.4152 33.4374 28.5367 33.3144 27.7384 33.544C27.7384 33.544 26.7049 39.5344 24.9199 43.9026L22.7593 43.7112C22.7593 43.7112 23.9332 35.2565 24.1217 33.2925C24.3103 31.3285 24.2153 31.036 25.3893 30.0766C26.5632 29.1171 32.5759 27.8201 36.5215 28.252Z" fill="#011C3A"/>
<path d="M24.3704 44.6935L24.1659 45.6079L22.4504 46.2215L22.9492 44.2739L24.3704 44.6935Z" fill="#F58672"/>
<path d="M22.4278 46.1641L23.8852 45.6106C23.9701 45.5786 24.0634 45.5791 24.148 45.612C24.2325 45.6449 24.3026 45.708 24.3451 45.7896L24.8318 46.7149C24.8582 46.7636 24.874 46.8176 24.8779 46.8731C24.8818 46.9287 24.8738 46.9844 24.8544 47.0365C24.8351 47.0885 24.8048 47.1357 24.7658 47.1745C24.7268 47.2134 24.68 47.2431 24.6286 47.2616C24.0069 47.4926 22.8476 47.9245 22.4505 48.0967C21.897 48.3372 21.2846 48.683 20.9464 48.6024C20.9255 48.5979 20.9049 48.592 20.8848 48.5846C20.8239 48.5573 20.7713 48.5138 20.7324 48.4586C20.6936 48.4035 20.6699 48.3386 20.6639 48.2709C20.6579 48.2032 20.6697 48.1351 20.6983 48.0737C20.7268 48.0122 20.7709 47.9598 20.826 47.9217C21.2178 47.6484 21.9077 47.0798 22.2192 46.3664C22.2388 46.32 22.2674 46.2781 22.3032 46.2434C22.3391 46.2086 22.3815 46.1816 22.4278 46.1641Z" fill="#011C3A"/>
<path d="M29.8296 28.7791C29.8296 28.7791 28.9498 22.831 28.76 21.3837C28.5701 19.9363 28.76 19.1969 29.2948 18.7226C29.8296 18.2484 32.2818 17.2356 33.9277 17.5089C35.5736 17.7823 36.3771 19.1914 36.6018 20.7891L36.2194 20.9846C36.2194 20.9846 36.7087 26.5281 36.5309 28.4456L29.8296 28.7791Z" fill="#022D5E"/>
<path d="M29.2934 18.7188C29.2934 18.7188 27.9924 19.8928 27.9924 22.1616L30.0207 22.9557L29.2934 18.7188Z" fill="#022D5E"/>
<path d="M36.2501 20.9629C36.2501 20.9629 36.9868 23.6253 36.7849 24.7255C36.583 25.8258 34.7499 27.3018 32.2015 27.7939C32.2015 27.7939 31.069 27.9962 30.4165 27.4467L29.4258 27.157L29.7092 26.259C30.4643 26.2727 31.2078 26.4512 31.89 26.7825C31.89 26.7825 34.3247 25.6536 35.0895 24.7857C35.0895 24.7857 35.0039 23.0198 34.5801 21.7788L36.2501 20.9629Z" fill="#F58672"/>
<path d="M25.2208 43.9022L22.3769 43.4648L22.2739 44.3792L24.8544 44.9177L25.2208 43.9022Z" fill="#022D5E"/>
<path d="M27.8681 15.053C27.692 15.5783 27.7139 16.1519 27.9296 16.6616C27.8294 16.2551 27.848 15.8274 27.9831 15.4316C28.1168 15.0571 28.3374 14.7277 28.5085 14.3723C28.6797 14.017 28.796 13.6028 28.6823 13.2243C28.6583 13.1491 28.6048 13.0616 28.5286 13.0739C28.4524 13.0862 28.4363 13.1518 28.4149 13.2106C28.3412 13.3663 28.2847 13.53 28.2465 13.6985C28.2278 13.8284 28.2465 13.9568 28.2278 14.0894C28.1649 14.4229 27.9791 14.7263 27.8681 15.053Z" fill="#011C3A"/>
<path d="M28.6558 13.9011C28.5531 13.9408 28.4633 14.009 28.3967 14.0982C28.33 14.1873 28.2892 14.2938 28.2787 14.4055C28.0794 14.2742 27.9312 14.0759 27.8597 13.8449C27.7881 13.6138 27.7978 13.3644 27.887 13.1399C28.1958 12.3198 28.6143 11.1567 29.8605 11.3262C31.1066 11.4957 33.7192 11.8729 32.7832 14.7185C31.8473 17.564 30.9194 14.0884 30.9194 14.0884L28.6558 13.9011Z" fill="#011C3A"/>
<path d="M31.3819 19.2191C30.2468 19.1467 30.7281 18.1462 30.7803 17.7758C30.7941 17.6143 30.7596 17.4522 30.6813 17.3111C30.6284 17.2064 30.5638 17.1082 30.4888 17.0187C29.9914 17.0187 29.4406 16.9503 29.0461 16.6086C28.6049 16.2328 28.4297 15.5316 28.3575 14.9754C28.3009 14.4608 28.2911 13.9419 28.3281 13.4255C28.3281 13.349 28.3388 13.2738 28.3415 13.1986C28.3589 12.902 28.3776 12.6068 28.3883 12.3171C28.3883 12.3171 29.4887 12.0697 30.4714 12.2993C31.1988 12.4688 31.7095 13.0865 31.9301 14.0583C32.0114 14.4284 32.0522 14.8066 32.0518 15.1859C32.0719 16.8014 32.6909 17.0843 32.9329 17.5585C33.1749 18.0328 32.5198 19.2875 31.3819 19.2191Z" fill="#F58672"/>
<path d="M29.3537 15.3252L29.0863 14.2852L28.9031 15.3786C28.9031 15.3786 29.0515 15.5029 29.3537 15.3252Z" fill="#EF4123"/>
<path d="M30.1397 15.5029C30.1397 15.5029 29.9726 15.8692 29.4404 15.9335" stroke="#011C3A" stroke-width="0.2" stroke-linecap="round" stroke-linejoin="round"/>
<path d="M30.0837 13.7408C30.0111 13.6592 29.9158 13.6023 29.8105 13.5778C29.7053 13.5534 29.5953 13.5626 29.4954 13.6041" stroke="#011C3A" stroke-width="0.4" stroke-linecap="round" stroke-linejoin="round"/>
<path d="M29.6611 14.251C29.6704 14.3562 29.7306 14.4369 29.7948 14.4314C29.859 14.4259 29.9044 14.3357 29.8964 14.2305C29.8884 14.1252 29.8269 14.0446 29.7627 14.0501C29.6985 14.0555 29.6531 14.1457 29.6611 14.251Z" fill="#011C3A"/>
<path d="M28.4792 14.549C28.4886 14.6542 28.5488 14.7348 28.613 14.7294C28.6771 14.7239 28.7226 14.6337 28.7146 14.5285C28.7065 14.4232 28.645 14.3412 28.5809 14.3481C28.5167 14.3549 28.4792 14.4437 28.4792 14.549Z" fill="#011C3A"/>
<path d="M28.3081 13.2146C28.7369 13.1145 29.1396 12.921 29.4887 12.6474C29.8818 13.9759 31.5558 14.0238 31.9743 14.0238C31.755 13.052 31.2282 12.3768 30.5035 12.2074C29.5221 11.9777 28.3643 12.2429 28.3643 12.2429C28.3536 12.534 28.3242 12.9194 28.3081 13.2146Z" fill="#011C3A"/>
<path d="M29.7629 14.0499L29.4888 13.9966C29.4888 13.9966 29.5596 14.2002 29.7629 14.0499Z" fill="#011C3A"/>
<path d="M28.6357 14.3532L28.3616 14.3013C28.3616 14.3013 28.4324 14.5035 28.6357 14.3532Z" fill="#011C3A"/>
<path d="M32.2539 11.5384C32.3903 10.9609 32.0201 10.3742 31.4272 10.2279C30.8343 10.0816 30.2431 10.4311 30.1068 11.0086C29.9704 11.5861 30.3405 12.1728 30.9334 12.3191C31.5264 12.4654 32.1175 12.1158 32.2539 11.5384Z" fill="#011C3A"/>
<path d="M29.1304 12.8419L28.9084 13.1399C28.9084 13.1399 29.4954 13.036 29.6251 12.626C29.7548 12.216 29.2654 12.5371 29.2654 12.5371L29.1304 12.8419Z" fill="#011C3A"/>
<path opacity="0.1" d="M31.2389 16.6934C31.0951 16.9352 30.9056 17.1452 30.6813 17.3111C30.6284 17.2063 30.5638 17.1082 30.4888 17.0186C30.7533 16.9491 31.0061 16.8395 31.2389 16.6934Z" fill="black" fill-opacity="0.92"/>
<path d="M28.2278 14.0816C28.2583 13.9843 28.3215 13.9012 28.4061 13.847C28.4908 13.7927 28.5915 13.7708 28.6904 13.785" stroke="#011C3A" stroke-width="0.4" stroke-linecap="round" stroke-linejoin="round"/>
<path d="M31.632 14.1905C31.6686 14.1347 31.7102 14.0825 31.7563 14.0347C31.9128 13.872 32.1682 13.6588 32.4048 13.7777C32.6909 13.9144 32.6308 14.3313 32.5506 14.5827C32.4859 14.8078 32.3382 14.9984 32.1387 15.1144C31.8566 15.2634 31.4368 15.1841 31.4395 14.7959C31.4439 14.5792 31.5109 14.3685 31.632 14.1905Z" fill="#F58672"/>
<path d="M31.9302 13.7439C31.9302 13.7439 31.4622 14.5503 31.6534 15.2638C31.8446 15.9772 31.739 16.3134 31.6066 16.692C31.6066 16.692 31.6587 15.6082 31.4395 15.2173C31.1052 14.62 31.5732 13.7412 31.5732 13.7412L31.9302 13.7439Z" fill="#011C3A"/>
<path d="M30.1223 11.3383C30.1223 11.3383 31.3337 11.486 32.0624 11.9944C32.0624 11.9876 31.4299 11.1279 30.1223 11.3383Z" fill="#022D5E"/>
<path d="M15.1675 27.4004H22.7887C22.8661 27.4005 22.9425 27.3825 23.0121 27.3479C23.0817 27.3132 23.1426 27.2628 23.1903 27.2005C23.238 27.1382 23.2712 27.0656 23.2873 26.9882C23.3034 26.9108 23.3021 26.8307 23.2834 26.7539L21.9277 21.2309C21.9002 21.1181 21.8366 21.0179 21.7469 20.9463C21.6572 20.8747 21.5467 20.8359 21.433 20.8359H13.8118C13.7344 20.8359 13.658 20.8539 13.5884 20.8885C13.5188 20.9231 13.4579 20.9735 13.4102 21.0358C13.3625 21.0981 13.3293 21.1708 13.3132 21.2481C13.2971 21.3255 13.2984 21.4056 13.3171 21.4824L14.6648 27.0054C14.6926 27.1196 14.7574 27.2209 14.8487 27.2926C14.94 27.3643 15.0524 27.4023 15.1675 27.4004Z" fill="#011C3A"/>
<path d="M27.7051 27.381H22.5254V26.9709H27.4404C27.5113 26.9709 27.5793 26.9997 27.6294 27.051C27.6796 27.1023 27.7078 27.1718 27.7078 27.2443V27.3892L27.7051 27.381Z" fill="#011C3A"/>
<path opacity="0.3" d="M15.1675 27.4004H22.7887C22.8661 27.4005 22.9425 27.3825 23.0121 27.3479C23.0817 27.3132 23.1426 27.2628 23.1903 27.2005C23.238 27.1382 23.2712 27.0656 23.2873 26.9882C23.3034 26.9108 23.3021 26.8307 23.2834 26.7539L21.9277 21.2309C21.9002 21.1181 21.8366 21.0179 21.7469 20.9463C21.6572 20.8747 21.5467 20.8359 21.433 20.8359H13.8118C13.7344 20.8359 13.658 20.8539 13.5884 20.8885C13.5188 20.9231 13.4579 20.9735 13.4102 21.0358C13.3625 21.0981 13.3293 21.1708 13.3132 21.2481C13.2971 21.3255 13.2984 21.4056 13.3171 21.4824L14.6648 27.0054C14.6926 27.1196 14.7574 27.2209 14.8487 27.2926C14.94 27.3643 15.0524 27.4023 15.1675 27.4004Z" fill="black" fill-opacity="0.92"/>
<path d="M14.7678 27.4004H22.3889C22.4663 27.4005 22.5427 27.3825 22.6123 27.3479C22.6819 27.3132 22.7429 27.2628 22.7905 27.2005C22.8382 27.1382 22.8714 27.0656 22.8875 26.9882C22.9037 26.9108 22.9023 26.8307 22.8836 26.7539L21.5265 21.2309C21.4991 21.1181 21.4354 21.0179 21.3458 20.9463C21.2561 20.8747 21.1456 20.8359 21.0318 20.8359H13.4107C13.3333 20.8359 13.2569 20.8539 13.1873 20.8885C13.1177 20.9231 13.0567 20.9735 13.0091 21.0358C12.9614 21.0981 12.9282 21.1708 12.9121 21.2481C12.8959 21.3255 12.8973 21.4056 12.916 21.4824L14.2637 27.0054C14.2918 27.1198 14.3568 27.221 14.4484 27.2927C14.5399 27.3645 14.6525 27.4024 14.7678 27.4004Z" fill="#011C3A"/>
<path opacity="0.2" d="M14.7678 27.4004H22.3889C22.4663 27.4005 22.5427 27.3825 22.6123 27.3479C22.6819 27.3132 22.7429 27.2628 22.7905 27.2005C22.8382 27.1382 22.8714 27.0656 22.8875 26.9882C22.9037 26.9108 22.9023 26.8307 22.8836 26.7539L21.5265 21.2309C21.4991 21.1181 21.4354 21.0179 21.3458 20.9463C21.2561 20.8747 21.1456 20.8359 21.0318 20.8359H13.4107C13.3333 20.8359 13.2569 20.8539 13.1873 20.8885C13.1177 20.9231 13.0567 20.9735 13.0091 21.0358C12.9614 21.0981 12.9282 21.1708 12.9121 21.2481C12.8959 21.3255 12.8973 21.4056 12.916 21.4824L14.2637 27.0054C14.2918 27.1198 14.3568 27.221 14.4484 27.2927C14.5399 27.3645 14.6525 27.4024 14.7678 27.4004Z" fill="#DDE3E9"/>
<path opacity="0.3" d="M18.2386 23.9563C18.3442 24.4169 18.1317 24.8638 17.7626 24.9527C17.3936 25.0415 17.0059 24.7408 16.8989 24.2802C16.7919 23.8196 17.0059 23.3727 17.3749 23.2839C17.7439 23.195 18.1317 23.5025 18.2386 23.9563Z" fill="black" fill-opacity="0.92"/>
<path d="M12.9185 27.8799L10.1067 45.705H9.48364L12.3115 27.7788L12.9185 27.8799Z" fill="#022D5E"/>
<path opacity="0.5" d="M12.9185 27.8799L10.1067 45.705H9.48364L12.3115 27.7788L12.9185 27.8799Z" fill="#DDE3E9"/>
<path d="M17.0554 45.7052H16.431L13.7141 27.8788L14.3225 27.7817L17.0554 45.7052Z" fill="#022D5E"/>
<path opacity="0.5" d="M17.0554 45.7052H16.431L13.7141 27.8788L14.3225 27.7817L17.0554 45.7052Z" fill="#DDE3E9"/>
<path d="M23.5429 27.8799L20.7311 45.705H20.1067L22.9345 27.7788L23.5429 27.8799Z" fill="#022D5E"/>
<path opacity="0.5" d="M23.5429 27.8799L20.7311 45.705H20.1067L22.9345 27.7788L23.5429 27.8799Z" fill="#DDE3E9"/>
<path d="M32.9275 45.7052H32.3044L29.5862 27.8788L30.1945 27.7817L32.9275 45.7052Z" fill="#022D5E"/>
<path opacity="0.5" d="M32.9275 45.7052H32.3044L29.5862 27.8788L30.1945 27.7817L32.9275 45.7052Z" fill="#DDE3E9"/>
<path d="M33.6937 27.272H7.85522V28.1016H33.6937V27.272Z" fill="#022D5E"/>
<path opacity="0.3" d="M33.7058 27.272H23.2915V28.1016H33.7058V27.272Z" fill="black" fill-opacity="0.92"/>
<path d="M32.7671 27.2716H28.4993C28.4993 27.2071 28.5243 27.1452 28.569 27.0996C28.6136 27.054 28.6741 27.0283 28.7373 27.0283H32.5278C32.591 27.0283 32.6517 27.0539 32.6966 27.0995C32.7414 27.1451 32.7668 27.207 32.7671 27.2716Z" fill="#011C3A"/>
<path d="M31.2173 24.9469L30.6424 26.3574C30.5368 26.3355 30.4419 26.3205 30.375 26.3109L30.974 24.8416C30.9877 24.8081 31.0138 24.7815 31.0466 24.7677C31.0795 24.7538 31.1164 24.7539 31.1492 24.7678C31.182 24.7818 31.208 24.8085 31.2215 24.8421C31.2351 24.8757 31.235 24.9134 31.2214 24.9469H31.2173Z" fill="#011C3A"/>
<path d="M31.6239 23.8426C32.3623 23.8426 32.961 23.134 32.961 22.2599C32.961 21.3858 32.3623 20.6772 31.6239 20.6772C30.8855 20.6772 30.2869 21.3858 30.2869 22.2599C30.2869 23.134 30.8855 23.8426 31.6239 23.8426Z" fill="#011C3A"/>
<path d="M34.5802 21.7736L34.4893 21.4442L36.5363 20.4014L36.6058 20.7964L34.5802 21.7736Z" fill="#011C3A"/>
<path opacity="0.1" d="M34.4893 21.444L33.8689 20.4941L34.8543 22.8477L34.4893 21.444Z" fill="black" fill-opacity="0.92"/>
<path d="M28.9163 22.5224L28.8602 22.1657L27.9924 21.8281V22.1657L28.9163 22.5224Z" fill="#011C3A"/>
<path opacity="0.1" d="M28.9165 22.5223C28.8991 22.454 28.6865 20.9629 28.6865 20.9629V22.4335L28.9165 22.5223Z" fill="black" fill-opacity="0.92"/>
<path d="M30.6452 18.0272C30.6452 18.0272 30.0595 19.3639 31.4394 19.3215C32.8192 19.2791 33.1668 18.2377 33.2364 17.4627L32.8058 17.311C32.8058 17.311 32.5571 18.4044 31.6239 18.6217C30.6906 18.8391 30.7682 17.8441 30.7682 17.8441L30.6452 18.0272Z" fill="#011C3A"/>
<path opacity="0.1" d="M22.8047 44.8358L24.2607 45.1857L24.3436 44.8126L22.8889 44.5078L22.8047 44.8358Z" fill="black" fill-opacity="0.92"/>
</svg>
