<svg width="42" height="42" viewBox="0 0 42 42" fill="none" xmlns="http://www.w3.org/2000/svg">
<path d="M22 12V20M22 28H22.02M13.8 36.0001C17.6172 37.9582 22.0082 38.4886 26.1818 37.4956C30.3554 36.5027 34.0371 34.0518 36.5635 30.5845C39.0899 27.1171 40.2948 22.8615 39.9612 18.5844C39.6275 14.3073 37.7772 10.29 34.7436 7.25648C31.7101 4.22293 27.6928 2.3726 23.4157 2.03893C19.1386 1.70526 14.8829 2.91019 11.4156 5.43659C7.94834 7.96299 5.49738 11.6447 4.50445 15.8183C3.51151 19.9919 4.04188 24.3829 6 28.2001L2 40.0001L13.8 36.0001Z" stroke="#034EA2" stroke-width="4" stroke-linecap="round" stroke-linejoin="round"/>
</svg>
