<svg width="40" height="30" viewBox="0 0 40 30" fill="none" xmlns="http://www.w3.org/2000/svg">
<path d="M19.1999 23.5999C18.9898 24.3616 18.6318 25.0744 18.1462 25.6977C17.6606 26.321 17.0569 26.8425 16.3698 27.2325C15.6826 27.6225 14.9254 27.8733 14.1413 27.9707C13.3572 28.0681 12.5616 28.01 11.7999 27.7999C11.0383 27.5898 10.3255 27.2317 9.70217 26.7461C9.07889 26.2605 8.55736 25.6569 8.16735 24.9698C7.77735 24.2826 7.52651 23.5254 7.42915 22.7413C7.33179 21.9572 7.38983 21.1616 7.59995 20.3999M2 12L38 2V26L2 18V12Z" stroke="#034EA2" stroke-width="4" stroke-linecap="round" stroke-linejoin="round"/>
</svg>
