<svg width="48" height="48" viewBox="0 0 48 48" fill="none" xmlns="http://www.w3.org/2000/svg">
<path d="M47.4081 41.7451H1.5144V41.7797H47.4081V41.7451Z" fill="#DDE3E9"/>
<path d="M48 43.9736H44V44.0083H48V43.9736Z" fill="#DDE3E9"/>
<path d="M33.6667 44.3506H32.6172V44.3852H33.6667V44.3506Z" fill="#DDE3E9"/>
<path d="M43.8792 42.6885H41.5615V42.7231H43.8792V42.6885Z" fill="#DDE3E9"/>
<path d="M5.21618 42.9209H0V42.9555H5.21618V42.9209Z" fill="#DDE3E9"/>
<path d="M7.05673 42.9209H6.29224V42.9555H7.05673V42.9209Z" fill="#DDE3E9"/>
<path d="M20.8562 43.5054H9.54224V43.54H20.8562V43.5054Z" fill="#DDE3E9"/>
<path d="M15.3333 19.3335L42 19.3335V1.3335L15.3333 1.3335L15.3333 19.3335Z" fill="#DDE3E9"/>
<path d="M14.6667 19.3335L42 19.3335V1.3335L14.6667 1.3335L14.6667 19.3335Z" fill="#F4F5F7"/>
<path d="M42 19.3333V2L15.3333 2V19.3333L42 19.3333Z" fill="#F4F5F7"/>
<path d="M15.9709 21.3932L15.9709 2.05664H15.6437L15.6437 21.3932H15.9709Z" fill="#DDE3E9"/>
<path d="M15.1872 16.7256L42.5266 16.7256V15.3807L15.1872 15.3807V16.7256Z" fill="#F4F5F7"/>
<g opacity="0.4">
<path d="M16.5098 0.00146484H13.9976V18.0541H16.5098V0.00146484Z" fill="#DDE3E9"/>
<path d="M16.5109 16.604H17.7561V0.0015049H16.5109V16.604Z" fill="#F4F5F7"/>
<path d="M20.2683 0.00146484H17.7561V18.0541H20.2683V0.00146484Z" fill="#DDE3E9"/>
<path d="M20.2694 16.604H21.5146V0.0015049H20.2694V16.604Z" fill="#F4F5F7"/>
<path d="M24.0269 0.00146484H21.5146V18.0541H24.0269V0.00146484Z" fill="#DDE3E9"/>
<path d="M24.0282 16.604H25.2734V0.0015049H24.0282V16.604Z" fill="#F4F5F7"/>
<path d="M27.7857 0.00146484H25.2734V18.0541H27.7857V0.00146484Z" fill="#DDE3E9"/>
<path d="M27.7868 16.604H29.032V0.0015049H27.7868V16.604Z" fill="#F4F5F7"/>
<path d="M31.5442 0.00146484H29.032V18.0541H31.5442V0.00146484Z" fill="#DDE3E9"/>
<path d="M31.5441 16.604H32.7893V0.0015049H31.5441V16.604Z" fill="#F4F5F7"/>
<path d="M35.3015 0.00146484H32.7893V18.0541H35.3015V0.00146484Z" fill="#DDE3E9"/>
<path d="M35.3029 16.604H36.5481V0.0015049H35.3029V16.604Z" fill="#F4F5F7"/>
<path d="M39.0603 0.00146484H36.5481V18.0541H39.0603V0.00146484Z" fill="#DDE3E9"/>
<path d="M39.0614 16.604H40.3066V0.0015049H39.0614V16.604Z" fill="#F4F5F7"/>
<path d="M43.302 0H40.2827V18.0055H43.302V0Z" fill="#DDE3E9"/>
</g>
<path d="M4.77544 41.6899H9.8479L9.8479 27.147H4.77544L4.77544 41.6899Z" fill="#DDE3E9"/>
<path d="M4.83941 41.7452H3.66309V38.7715H6.07371L4.83941 41.7452Z" fill="#F4F5F7"/>
<path d="M38.9542 41.6899H43.302V27.147H38.9542V41.6899Z" fill="#DDE3E9"/>
<path d="M5.25841 39.8892L40.041 39.8892V27.1468L5.25841 27.1468V39.8892Z" fill="#F4F5F7"/>
<path d="M38.8236 36.3174H28.0421C28.0159 36.3174 27.9907 36.3054 27.9721 36.2841C27.9535 36.2628 27.9431 36.2339 27.9431 36.2038V28.1165C27.9431 28.0864 27.9535 28.0575 27.9721 28.0362C27.9907 28.0149 28.0159 28.003 28.0421 28.003H30.0325C30.0538 28.0024 30.0747 28.0103 30.0917 28.0251C30.3875 28.2732 30.7156 28.4662 31.0639 28.5971C31.4838 28.7566 31.9235 28.837 32.3658 28.8354H34.4987C35.3145 28.8518 36.1137 28.5694 36.7801 28.0293C36.7967 28.0146 36.8171 28.0068 36.838 28.0071H38.8296C38.8559 28.0071 38.881 28.0191 38.8996 28.0404C38.9182 28.0617 38.9286 28.0906 38.9286 28.1207V36.2038C38.9286 36.2193 38.9259 36.2347 38.9206 36.2489C38.9152 36.2632 38.9074 36.276 38.8975 36.2866C38.8877 36.2973 38.876 36.3055 38.8633 36.3108C38.8506 36.3161 38.8371 36.3183 38.8236 36.3174ZM28.1412 36.0902H38.7245V28.2343H36.8646C36.1712 28.7884 35.3437 29.0791 34.4987 29.0653H32.3658C31.9021 29.067 31.4412 28.9823 31.0011 28.8146C30.6439 28.6802 30.3067 28.484 30.0011 28.2329H28.1412V36.0902Z" fill="#DDE3E9"/>
<path d="M27.2391 36.3174H16.4565C16.4302 36.3174 16.405 36.3054 16.3864 36.2841C16.3679 36.2628 16.3574 36.2339 16.3574 36.2038V28.1165C16.3574 28.0864 16.3679 28.0575 16.3864 28.0362C16.405 28.0149 16.4302 28.003 16.4565 28.003H18.3393C18.3607 28.0024 18.3815 28.0103 18.3985 28.0251C18.6922 28.273 19.0183 28.4661 19.3647 28.5971C19.7846 28.7566 20.2243 28.837 20.6666 28.8354H22.7995C23.6126 28.8491 24.4083 28.5653 25.0712 28.0251C25.0883 28.0106 25.1091 28.0029 25.1304 28.003H27.2391C27.2521 28.0028 27.2651 28.0056 27.2772 28.0112C27.2892 28.0169 27.3002 28.0252 27.3095 28.0358C27.3187 28.0464 27.326 28.059 27.3309 28.0728C27.3358 28.0867 27.3383 28.1016 27.3381 28.1165V36.1996C27.3386 36.2149 27.3364 36.2301 27.3316 36.2444C27.3269 36.2586 27.3197 36.2717 27.3104 36.2826C27.3012 36.2936 27.2901 36.3024 27.2778 36.3083C27.2656 36.3143 27.2524 36.3174 27.2391 36.3174ZM16.5567 36.0902H27.14V28.2343H25.169C24.4765 28.7882 23.6498 29.0789 22.8055 29.0653H20.6726C20.2089 29.067 19.748 28.9823 19.3079 28.8146C18.95 28.681 18.6123 28.4848 18.3067 28.2329H16.5555L16.5567 36.0902Z" fill="#DDE3E9"/>
<path d="M15.6534 36.3174H4.87199C4.84573 36.3174 4.82053 36.3054 4.80196 36.2841C4.78339 36.2628 4.77296 36.2339 4.77296 36.2038V28.1165C4.77279 28.1016 4.77524 28.0867 4.78016 28.0728C4.78508 28.059 4.79237 28.0464 4.8016 28.0358C4.81083 28.0252 4.82181 28.0169 4.8339 28.0112C4.84599 28.0056 4.85894 28.0028 4.87199 28.003H6.75484C6.77579 28.0026 6.79622 28.0105 6.81281 28.0251C7.10683 28.2725 7.43285 28.4655 7.779 28.5971C8.19934 28.7566 8.6394 28.837 9.08214 28.8354H11.215C12.0288 28.8489 12.8253 28.5651 13.4891 28.0251C13.5061 28.0103 13.527 28.0024 13.5483 28.003H15.6474C15.6736 28.003 15.6988 28.0149 15.7174 28.0362C15.736 28.0575 15.7464 28.0864 15.7464 28.1165V36.1996C15.7474 36.2293 15.7382 36.2582 15.7208 36.2802C15.7034 36.3022 15.6792 36.3156 15.6534 36.3174ZM4.97102 36.0902H15.5544V28.2343H13.5918C12.8988 28.7882 12.0717 29.0789 11.2271 29.0653H9.08817C8.62441 29.0672 8.16347 28.9825 7.72344 28.8146C7.36555 28.681 7.02782 28.4848 6.72223 28.2329H4.97102V36.0902Z" fill="#DDE3E9"/>
<path d="M38.8564 41.7452H40.0327V38.7715H37.6233L38.8564 41.7452Z" fill="#F4F5F7"/>
<path d="M11.0483 24.7007H10.0712C10.0785 23.9251 10.0712 21.9555 10.0024 17.4445C9.88161 9.27271 9.65576 8.76855 9.65576 8.76855L10.814 12.8046C11.089 13.7538 11.2491 14.7417 11.2898 15.7409C11.4178 18.8877 10.9347 21.4001 11.0483 24.7007Z" fill="#DDE3E9"/>
<path d="M11.7911 11.5873C13.0942 9.32552 15.6957 8.14546 18.3551 7.03466C19.3986 6.59837 16.4686 12.0097 14.3382 14.464C12.6836 16.3698 11.0773 16.3269 10.6027 18.2036C10.5109 16.0236 10.6679 13.536 11.7911 11.5873Z" fill="#DDE3E9"/>
<path d="M10.6593 12.4324C9.97146 10.5613 8.23386 8.13459 6.28078 6.42506C5.51402 5.75398 7.40612 11.5194 8.74042 13.8765C9.77957 15.7144 10.7488 16.8331 10.9 18.144C11.5554 16.504 11.3464 14.3026 10.6593 12.4324Z" fill="#DDE3E9"/>
<path d="M10.3949 27.1467C10.9472 27.1466 11.4786 26.9043 11.8801 26.4693C12.2817 26.0344 12.5229 25.4397 12.5543 24.8073L12.7464 22.5649H8.04346L8.23428 24.8073C8.26603 25.4398 8.5075 26.0345 8.90921 26.4694C9.31092 26.9043 9.84245 27.1466 10.3949 27.1467Z" fill="#DDE3E9"/>
<path d="M7.73909 22.5776H13.0507L13.2029 21.7812H7.58691L7.73909 22.5776Z" fill="#DDE3E9"/>
<path d="M8.00121 23.9434H12.7886L12.9263 23.147H7.86353L8.00121 23.9434Z" fill="#DDE3E9"/>
<path d="M23.8176 48C36.0686 48 46 47.298 46 46.4321C46 45.5662 36.0686 44.8643 23.8176 44.8643C11.5666 44.8643 1.63525 45.5662 1.63525 46.4321C1.63525 47.298 11.5666 48 23.8176 48Z" fill="#F4F5F7"/>
<path d="M43.3321 32.8711H4.66675V37.3463H43.3321V32.8711Z" fill="#022D5E"/>
<path opacity="0.3" d="M43.3334 32.8711H35.0393V37.3463H43.3334V32.8711Z" fill="black" fill-opacity="0.92"/>
<path d="M8.93578 37.3462H4.66675V45.3331H8.93578V37.3462Z" fill="#022D5E"/>
<path opacity="0.3" d="M4.66797 37.3462V37.7929L7.69078 38.7259V45.3331H8.93576V37.3462H4.66797Z" fill="black" fill-opacity="0.92"/>
<path d="M43.3332 37.3462H39.0642V45.3331H43.3332V37.3462Z" fill="#022D5E"/>
<path opacity="0.2" d="M43.3332 37.3462H39.0642V45.3331H43.3332V37.3462Z" fill="black" fill-opacity="0.92"/>
<path opacity="0.3" d="M39.0642 37.3462V37.7929L42.0883 38.7259V45.3331H43.3332V37.3462H39.0642Z" fill="black" fill-opacity="0.92"/>
<path d="M35.0393 37.3462H30.7703V45.3331H35.0393V37.3462Z" fill="#022D5E"/>
<path opacity="0.3" d="M30.7703 37.3462V37.7929L33.7943 38.7259V45.3331H35.0393V37.3462H30.7703Z" fill="black" fill-opacity="0.92"/>
<path d="M17.23 37.3462H12.9609V45.3331H17.23V37.3462Z" fill="#022D5E"/>
<path opacity="0.2" d="M17.23 37.3462H12.9609V45.3331H17.23V37.3462Z" fill="black" fill-opacity="0.92"/>
<path opacity="0.3" d="M12.9609 37.3462V37.7929L15.985 38.7259V45.3331H17.23V37.3462H12.9609Z" fill="black" fill-opacity="0.92"/>
<path d="M37.5061 32.0519H15.5327C15.4642 32.0525 15.3964 32.0384 15.3335 32.0107C15.2705 31.983 15.2139 31.9422 15.1672 31.8909C15.1204 31.8397 15.0845 31.779 15.0618 31.7128C15.0391 31.6466 15.03 31.5763 15.0351 31.5063L15.94 16.7859C15.9515 16.6392 16.0158 16.5021 16.1203 16.4013C16.2249 16.3004 16.3624 16.243 16.5059 16.2402H38.4782C38.5467 16.2397 38.6145 16.2538 38.6774 16.2815C38.7403 16.3092 38.797 16.35 38.8437 16.4012C38.8905 16.4525 38.9264 16.5132 38.9491 16.5794C38.9718 16.6456 38.9809 16.7159 38.9758 16.7859L38.0708 31.5063C38.0594 31.6528 37.9953 31.7897 37.891 31.8905C37.7866 31.9914 37.6495 32.0489 37.5061 32.0519Z" fill="#011C3A"/>
<path opacity="0.6" d="M37.5061 32.0519H15.5327C15.4642 32.0525 15.3964 32.0384 15.3335 32.0107C15.2705 31.983 15.2139 31.9422 15.1672 31.8909C15.1204 31.8397 15.0845 31.779 15.0618 31.7128C15.0391 31.6466 15.03 31.5763 15.0351 31.5063L15.94 16.7859C15.9515 16.6392 16.0158 16.5021 16.1203 16.4013C16.2249 16.3004 16.3624 16.243 16.5059 16.2402H38.4782C38.5467 16.2397 38.6145 16.2538 38.6774 16.2815C38.7403 16.3092 38.797 16.35 38.8437 16.4012C38.8905 16.4525 38.9264 16.5132 38.9491 16.5794C38.9718 16.6456 38.9809 16.7159 38.9758 16.7859L38.0708 31.5063C38.0594 31.6528 37.9953 31.7897 37.891 31.8905C37.7866 31.9914 37.6495 32.0489 37.5061 32.0519Z" fill="black" fill-opacity="0.92"/>
<path d="M37.3421 32.0519H15.3698C15.3012 32.0526 15.2332 32.0387 15.1702 32.0111C15.1071 31.9834 15.0504 31.9427 15.0035 31.8914C14.9566 31.8401 14.9206 31.7794 14.8978 31.7131C14.875 31.6468 14.8659 31.5764 14.871 31.5063L15.776 16.7859C15.7874 16.6392 15.8517 16.5021 15.9563 16.4013C16.0609 16.3004 16.1983 16.243 16.3419 16.2403H38.3141C38.3827 16.2396 38.4506 16.2535 38.5136 16.2811C38.5766 16.3088 38.6333 16.3495 38.6801 16.4009C38.7269 16.4522 38.7627 16.5129 38.7854 16.5792C38.8081 16.6455 38.817 16.7159 38.8117 16.7859L37.9068 31.5063C37.8953 31.6528 37.8312 31.7897 37.7269 31.8905C37.6226 31.9914 37.4854 32.0489 37.3421 32.0519Z" fill="#011C3A"/>
<path d="M37.3142 32.2393H11.1689C11.0486 32.2382 10.9304 32.272 10.828 32.3369C10.7256 32.4017 10.6432 32.495 10.5903 32.6058C10.5769 32.6346 10.5709 32.6664 10.5729 32.6983C10.5748 32.7301 10.5847 32.7609 10.6015 32.7877C10.6183 32.8146 10.6415 32.8366 10.6689 32.8517C10.6963 32.8668 10.727 32.8744 10.7581 32.8739H37.7192C37.7503 32.8744 37.781 32.8668 37.8084 32.8517C37.8358 32.8366 37.8591 32.8146 37.8759 32.7877C37.8927 32.7609 37.9025 32.7301 37.9044 32.6983C37.9064 32.6664 37.9004 32.6346 37.887 32.6058C37.8348 32.4957 37.7533 32.4029 37.652 32.3381C37.5507 32.2733 37.4336 32.239 37.3142 32.2393Z" fill="#011C3A"/>
<path opacity="0.6" d="M37.3142 32.2393H33.596C33.4765 32.2388 33.3594 32.273 33.258 32.3379C33.1567 32.4027 33.0753 32.4956 33.0232 32.6058C33.0098 32.6345 33.0038 32.6662 33.0057 32.6979C33.0076 32.7297 33.0173 32.7604 33.034 32.7872C33.0507 32.814 33.0737 32.836 33.101 32.8512C33.1282 32.8664 33.1588 32.8742 33.1898 32.8739H37.7192C37.7503 32.8744 37.781 32.8667 37.8084 32.8516C37.8359 32.8366 37.8591 32.8146 37.8759 32.7877C37.8927 32.7609 37.9025 32.7301 37.9045 32.6982C37.9064 32.6664 37.9004 32.6346 37.887 32.6058C37.8348 32.4957 37.7533 32.4029 37.652 32.3381C37.5507 32.2732 37.4336 32.239 37.3142 32.2393Z" fill="black" fill-opacity="0.92"/>
<path d="M35.0089 32.702H34.0484C34.0262 32.7017 34.005 32.6924 33.9894 32.6762C33.9738 32.66 33.9651 32.6382 33.9651 32.6154C33.9651 32.5926 33.9738 32.5708 33.9894 32.5546C34.005 32.5384 34.0262 32.5291 34.0484 32.5288H35.0089C35.02 32.5288 35.031 32.531 35.0412 32.5354C35.0515 32.5398 35.0608 32.5461 35.0686 32.5542C35.0765 32.5622 35.0827 32.5718 35.087 32.5823C35.0912 32.5928 35.0934 32.604 35.0934 32.6154C35.0934 32.6268 35.0912 32.638 35.087 32.6485C35.0827 32.6591 35.0765 32.6686 35.0686 32.6766C35.0608 32.6847 35.0515 32.6911 35.0412 32.6954C35.031 32.6998 35.02 32.702 35.0089 32.702Z" fill="#022D5E"/>
<path opacity="0.7" d="M22.6578 32.702H21.6985C21.6761 32.702 21.6546 32.6929 21.6388 32.6766C21.6229 32.6604 21.614 32.6384 21.614 32.6154C21.614 32.604 21.6162 32.5928 21.6204 32.5823C21.6247 32.5718 21.6309 32.5622 21.6388 32.5542C21.6466 32.5461 21.6559 32.5398 21.6662 32.5354C21.6764 32.531 21.6874 32.5288 21.6985 32.5288H22.6578C22.6689 32.5288 22.6799 32.531 22.6902 32.5354C22.7004 32.5398 22.7097 32.5461 22.7176 32.5542C22.7254 32.5622 22.7316 32.5718 22.7359 32.5823C22.7401 32.5928 22.7423 32.604 22.7423 32.6154C22.7423 32.6384 22.7334 32.6604 22.7176 32.6766C22.7017 32.6929 22.6802 32.702 22.6578 32.702Z" fill="#F4F5F7"/>
<path d="M36.003 32.5288H35.3746C35.3363 32.5288 35.3052 32.5607 35.3052 32.6V32.6308C35.3052 32.6701 35.3363 32.702 35.3746 32.702H36.003C36.0413 32.702 36.0724 32.6701 36.0724 32.6308V32.6C36.0724 32.5607 36.0413 32.5288 36.003 32.5288Z" fill="#022D5E"/>
<path d="M15.3661 30.9751L16.2063 17.3176C16.2106 17.2606 16.2356 17.2074 16.2763 17.1683C16.3169 17.1292 16.3704 17.1072 16.4262 17.1065H38.123C38.1496 17.1061 38.176 17.1113 38.2005 17.122C38.2249 17.1326 38.247 17.1484 38.2652 17.1683C38.2834 17.1881 38.2973 17.2117 38.3061 17.2374C38.3149 17.2631 38.3184 17.2905 38.3163 17.3176L37.4773 30.9751C37.4727 31.0321 37.4475 31.0854 37.4066 31.1245C37.3657 31.1635 37.3121 31.1855 37.2563 31.1862H15.5606C15.534 31.1864 15.5076 31.181 15.4832 31.1703C15.4587 31.1597 15.4367 31.1439 15.4184 31.1241C15.4002 31.1043 15.3861 31.0808 15.3771 31.0552C15.3681 31.0295 15.3644 31.0022 15.3661 30.9751Z" fill="#F4F5F7"/>
<path opacity="0.1" d="M27.7093 16.6851L20.4824 30.766H15.1511C15.1243 30.7664 15.0978 30.7611 15.0732 30.7504C15.0486 30.7397 15.0264 30.7238 15.0081 30.7039C14.9898 30.6839 14.9758 30.6602 14.9669 30.6343C14.958 30.6085 14.9545 30.581 14.9566 30.5536L15.7968 16.8974C15.8011 16.8403 15.826 16.7869 15.8667 16.7476C15.9073 16.7084 15.9608 16.6861 16.0167 16.6851H27.7093Z" fill="#022D5E"/>
<path opacity="0.1" d="M34.038 16.6851L26.8111 30.766H25.1262L32.3531 16.6851H34.038Z" fill="#022D5E"/>
<path opacity="0.1" d="M37.9067 16.8975L37.0666 30.5537C37.0625 30.6109 37.0377 30.6645 36.997 30.7038C36.9562 30.7431 36.9026 30.7653 36.8467 30.7661H28.6304L35.8573 16.6851H37.7088C37.7358 16.6844 37.7626 16.6895 37.7876 16.7C37.8125 16.7105 37.8351 16.7263 37.8537 16.7463C37.8723 16.7663 37.8867 16.7901 37.8958 16.8161C37.9049 16.8422 37.9087 16.8699 37.9067 16.8975Z" fill="#022D5E"/>
<path opacity="0.4" d="M27.4558 16.6992C27.4526 16.7422 27.4339 16.7825 27.4033 16.8121C27.3727 16.8418 27.3324 16.8586 27.2903 16.8594C27.2702 16.8596 27.2503 16.8555 27.2318 16.8474C27.2133 16.8393 27.1967 16.8273 27.1829 16.8123C27.1692 16.7972 27.1587 16.7794 27.1521 16.7599C27.1455 16.7404 27.1429 16.7198 27.1445 16.6992C27.1474 16.6561 27.1661 16.6157 27.1967 16.586C27.2274 16.5563 27.2678 16.5396 27.31 16.5391C27.3301 16.5388 27.35 16.5429 27.3685 16.551C27.387 16.5591 27.4036 16.5711 27.4174 16.5862C27.4311 16.6012 27.4416 16.6191 27.4482 16.6385C27.4548 16.658 27.4574 16.6787 27.4558 16.6992Z" fill="#F4F5F7"/>
<path d="M23.8706 13.4242C23.2376 14.1668 22.8719 16.4432 23.3406 17.563C23.8093 18.6829 18.3715 19.8039 22.8581 21.6236C27.3446 23.4433 30.9332 21.333 29.6348 19.448C28.3364 17.563 29.7748 14.4242 28.2716 13.6353C26.913 12.9164 25.139 11.9354 23.8706 13.4242Z" fill="#011C3A"/>
<path d="M22.5294 22.5903C22.2922 23.4207 22.0399 24.2511 21.7784 25.0814C21.5169 25.9118 21.2449 26.7327 20.9568 27.5572L20.8468 27.868L20.7913 28.0234L20.7739 28.0696L20.7462 28.1396C20.7288 28.1847 20.7022 28.2333 20.679 28.2796C20.5659 28.4914 20.3971 28.6665 20.1918 28.785C20.0055 28.8887 19.7975 28.9448 19.5855 28.9487C19.2881 28.9501 18.9934 28.8909 18.7187 28.7743C18.4938 28.6807 18.276 28.5701 18.0672 28.4433C17.3084 27.965 16.613 27.3885 15.998 26.728L16.4968 26.1254C16.6646 26.2357 16.844 26.3531 17.0176 26.4634C17.1911 26.5738 17.3728 26.6805 17.5487 26.7861C17.8934 26.9929 18.2492 27.1794 18.6145 27.3448C18.781 27.4201 18.9528 27.4823 19.1283 27.5311C19.2498 27.5724 19.3782 27.5877 19.5056 27.5762C19.538 27.5762 19.5322 27.5572 19.5056 27.5679C19.479 27.5785 19.4501 27.6094 19.4489 27.6058C19.4477 27.6023 19.4489 27.6058 19.4489 27.5987C19.4494 27.5964 19.4494 27.5939 19.4489 27.5916L19.4582 27.5619L19.5021 27.4089L19.5912 27.1005L20.2983 24.6093C20.539 23.7789 20.7867 22.9485 21.0412 22.1182L22.5294 22.5903Z" fill="#945125"/>
<path d="M16.4609 26.1068L15.1162 25.5967L15.6497 27.0534C15.6497 27.0534 16.5986 27.1934 16.9666 26.6821L16.6669 26.2705C16.6149 26.1968 16.5434 26.14 16.4609 26.1068Z" fill="#945125"/>
<path d="M13.9302 26.0201L14.4417 27.2147L15.6556 27.051L15.121 25.5942L13.9302 26.0201Z" fill="#945125"/>
<path d="M21.5481 20.4422C20.9325 20.6023 20.5066 23.1967 20.5066 23.1967L22.2019 24.383C22.2019 24.383 23.822 21.7661 23.3534 21.0733C22.8558 20.3461 22.4449 20.2085 21.5481 20.4422Z" fill="#022D5E"/>
<path opacity="0.5" d="M21.5481 20.4422C20.9325 20.6023 20.5066 23.1967 20.5066 23.1967L22.2019 24.383C22.2019 24.383 23.822 21.7661 23.3534 21.0733C22.8558 20.3461 22.4449 20.2085 21.5481 20.4422Z" fill="#F4F5F7"/>
<path opacity="0.2" d="M21.4925 21.3853L22.8082 21.6972L22.9344 23.0175C22.7115 23.4837 22.4654 23.9378 22.1972 24.3782L21.1685 23.6664C21.2136 23.0555 21.3247 21.8004 21.4925 21.3853Z" fill="black" fill-opacity="0.92"/>
<path d="M21.5481 20.4419C21.5481 20.4419 20.8364 20.6982 22.261 29.6734H28.3202C28.2184 27.1455 28.2161 25.5856 29.3941 20.3981C28.546 20.2183 27.6862 20.1021 26.8216 20.0505C25.8021 19.9995 24.9701 19.9663 24.0697 20.0505C22.8882 20.1608 21.5481 20.4419 21.5481 20.4419Z" fill="#022D5E"/>
<path opacity="0.5" d="M21.5481 20.4419C21.5481 20.4419 20.8364 20.6982 22.261 29.6734H28.3202C28.2184 27.1455 28.2161 25.5856 29.3941 20.3981C28.546 20.2183 27.6862 20.1021 26.8216 20.0505C25.8021 19.9995 24.9701 19.9663 24.0697 20.0505C22.8882 20.1608 21.5481 20.4419 21.5481 20.4419Z" fill="#F4F5F7"/>
<path opacity="0.2" d="M27.9685 22.8062L28.7508 23.4894C28.5842 24.3969 28.4719 25.1502 28.4036 25.8252C28.2543 25.1514 27.8817 23.3222 27.9685 22.8062Z" fill="black" fill-opacity="0.92"/>
<path d="M26.5486 16.874C26.375 17.7815 26.2014 19.4447 26.8217 20.0508C26.8217 20.0508 26.2431 21.4103 24.7097 21.4103C23.1764 21.4103 24.0698 20.0508 24.0698 20.0508C25.0569 19.8136 25.0314 19.0579 24.8602 18.3533L26.5486 16.874Z" fill="#945125"/>
<path d="M26.6247 19.7112C26.4789 20.0137 26.0091 20.7053 24.6968 20.9521C24.6603 20.9589 24.6226 20.9513 24.5915 20.9307C24.3461 20.7551 24.1934 20.3838 24.301 19.9532C24.3081 19.9268 24.3079 19.8988 24.3003 19.8725C24.2928 19.8461 24.2782 19.8225 24.2582 19.8042C24.2382 19.786 24.2136 19.7738 24.1873 19.7691C24.1609 19.7644 24.1337 19.7674 24.1089 19.7777C24.0081 19.8209 23.9113 19.8733 23.8196 19.9343C23.7995 19.9479 23.7831 19.9667 23.7722 19.9888C23.6761 20.1739 23.2873 21.0802 24.4607 21.6389C24.4794 21.6471 24.4994 21.6519 24.5197 21.6531C25.2141 21.6674 26.428 21.5274 27.1952 20.111C27.2089 20.0854 27.215 20.0563 27.2128 20.0272C27.2105 19.9981 27.2 19.9703 27.1825 19.9473C27.0794 19.8316 26.9596 19.7328 26.8272 19.6543C26.8106 19.6433 26.7918 19.6361 26.7723 19.633C26.7527 19.6299 26.7327 19.6311 26.7136 19.6365C26.6945 19.6419 26.6767 19.6513 26.6614 19.6642C26.6461 19.6771 26.6336 19.6931 26.6247 19.7112Z" fill="#F4F5F7"/>
<path d="M26.9465 23.4459L25.3842 23.3996C25.3679 23.3997 25.3518 23.3963 25.3368 23.3895C25.3219 23.3827 25.3085 23.3728 25.2976 23.3604C25.2866 23.3479 25.2784 23.3333 25.2734 23.3173C25.2684 23.3014 25.2667 23.2846 25.2685 23.2679L25.2836 23.0698C25.2881 23.0365 25.3044 23.006 25.3293 22.9842C25.3543 22.9623 25.3862 22.9506 25.419 22.9512L26.9812 22.9975C26.9977 22.9973 27.0139 23.0008 27.029 23.0076C27.044 23.0145 27.0574 23.0245 27.0684 23.0371C27.0793 23.0496 27.0875 23.0645 27.0925 23.0805C27.0974 23.0966 27.0989 23.1136 27.0969 23.1303L27.0819 23.3272C27.0774 23.3606 27.0611 23.391 27.0362 23.4129C27.0112 23.4347 26.9793 23.4465 26.9465 23.4459Z" fill="#F4F5F7"/>
<path opacity="0.2" d="M25.86 17.4775L24.8601 18.3518C24.903 18.5158 24.9317 18.6833 24.9457 18.8524C25.3218 18.7967 25.8403 18.372 25.8808 17.9675C25.9029 17.8042 25.8959 17.6382 25.86 17.4775Z" fill="black" fill-opacity="0.92"/>
<path d="M27.7149 15.1573C27.436 16.6484 27.3492 17.2855 26.5114 17.9581C25.2512 18.9711 23.5258 18.2926 23.3661 16.7469C23.2214 15.3554 23.7017 13.1513 25.2176 12.7433C25.5498 12.6528 25.8991 12.6507 26.2323 12.7372C26.5655 12.8238 26.8716 12.9961 27.1217 13.2378C27.3717 13.4796 27.5575 13.7827 27.6613 14.1186C27.7651 14.4545 27.7836 14.8121 27.7149 15.1573Z" fill="#945125"/>
<path d="M26.8876 14.0539C26.7071 14.9875 26.6642 16.2248 27.4986 16.2248C28.333 16.2248 28.9868 14.7692 28.267 13.6292C27.5472 12.4892 26.9929 13.5035 26.8876 14.0539Z" fill="#011C3A"/>
<path d="M28.3296 14.1692C28.3296 15.1846 27.0821 14.6828 26.5301 14.2451C25.9781 13.8074 25.9515 13.8548 24.9285 13.8536C23.9055 13.8524 23.7006 13.7801 23.3986 13.2795C23.0966 12.7789 23.1243 12.4491 23.8048 12.5547C24.4852 12.6602 23.9136 11.9485 24.4204 11.5535C24.9273 11.1584 25.5279 11.2581 26.2211 12.1596C26.9143 13.0612 28.3296 12.4099 28.3296 14.1692Z" fill="#011C3A"/>
<path d="M27.9632 16.4842C28.0945 16.0253 27.9657 15.5826 27.6756 15.4954C27.3855 15.4082 27.044 15.7096 26.9127 16.1685C26.7815 16.6275 26.9102 17.0702 27.2003 17.1574C27.4904 17.2446 27.832 16.9432 27.9632 16.4842Z" fill="#F4F5F7"/>
<path d="M25.6472 17.6319C25.3786 17.6319 25.1128 17.5758 24.866 17.467C24.8608 17.4648 24.8559 17.4616 24.8519 17.4574C24.8479 17.4533 24.8447 17.4484 24.8425 17.443C24.8404 17.4375 24.8393 17.4317 24.8394 17.4259C24.8394 17.4201 24.8406 17.4143 24.8429 17.4089C24.8477 17.3981 24.8564 17.3896 24.8672 17.3852C24.878 17.3807 24.89 17.3808 24.9008 17.3852C25.1333 17.4875 25.3835 17.5409 25.6365 17.5423C25.8895 17.5438 26.1403 17.4932 26.3739 17.3935C26.6011 17.2982 26.8074 17.1572 26.9807 16.979C27.154 16.8007 27.2908 16.5887 27.383 16.3555C27.7302 15.3365 28.0843 14.0648 27.6746 13.2712C27.5922 13.1168 27.4782 12.9824 27.3404 12.8774C27.2025 12.7723 27.0442 12.6991 26.8761 12.6627C26.865 12.6596 26.8555 12.6522 26.8496 12.642C26.8438 12.6317 26.8421 12.6196 26.8449 12.6081C26.8479 12.5967 26.8551 12.5869 26.8651 12.5809C26.8751 12.5749 26.8869 12.5732 26.8981 12.5761C27.0777 12.6157 27.2468 12.6944 27.3939 12.807C27.5411 12.9196 27.6629 13.0634 27.751 13.2285C28.1769 14.0482 27.8216 15.3448 27.464 16.3828C27.367 16.6277 27.2231 16.8503 27.0409 17.0373C26.8586 17.2244 26.6417 17.3721 26.4028 17.4718C26.1635 17.5749 25.9068 17.6293 25.6472 17.6319Z" fill="#F4F5F7"/>
<path opacity="0.6" d="M27.9209 16.4884C27.8179 16.8443 27.5818 17.0946 27.3932 17.0389C27.2045 16.9831 27.1351 16.6438 27.2381 16.2832C27.3411 15.9226 27.5772 15.6758 27.7658 15.7328C27.9544 15.7897 28.0239 16.1278 27.9209 16.4884Z" fill="#022D5E"/>
<path d="M24.9861 17.2705L24.5327 17.1809C24.453 17.1651 24.376 17.2186 24.3606 17.3003L24.3555 17.3271C24.3402 17.4088 24.3923 17.4878 24.472 17.5035L24.9254 17.5932C25.0051 17.609 25.0822 17.5555 25.0975 17.4738L25.1026 17.447C25.1179 17.3653 25.0658 17.2863 24.9861 17.2705Z" fill="#F4F5F7"/>
<path d="M24.3937 15.2817C24.3937 15.2817 24.1252 15.7812 23.8706 16.0054C24.0083 16.1774 24.2861 16.1442 24.2861 16.1442L24.3937 15.2817Z" fill="#832413"/>
<path d="M24.6495 16.7828H24.6599C24.9222 16.804 25.1827 16.7226 25.3889 16.555C25.3932 16.5506 25.3955 16.5446 25.3955 16.5384C25.3955 16.5322 25.3932 16.5263 25.3889 16.5218C25.3869 16.5197 25.3845 16.518 25.3818 16.5169C25.3791 16.5157 25.3762 16.5151 25.3733 16.5151C25.3704 16.5151 25.3675 16.5157 25.3648 16.5169C25.3622 16.518 25.3597 16.5197 25.3577 16.5218C25.1608 16.6805 24.9131 16.7579 24.6633 16.7389C24.6604 16.7384 24.6573 16.7385 24.6544 16.7393C24.6515 16.74 24.6487 16.7414 24.6463 16.7433C24.644 16.7452 24.642 16.7476 24.6405 16.7503C24.6391 16.753 24.6382 16.756 24.6379 16.7591C24.6373 16.7638 24.6381 16.7685 24.6401 16.7727C24.6422 16.777 24.6454 16.7805 24.6495 16.7828Z" fill="#011C3A"/>
<path d="M25.9734 14.6944C25.9799 14.6982 25.9873 14.7001 25.9948 14.7001C26.0023 14.7001 26.0097 14.6982 26.0162 14.6944C26.0261 14.6876 26.0331 14.6772 26.0357 14.6652C26.0383 14.6533 26.0363 14.6408 26.0301 14.6304C25.9748 14.5354 25.8981 14.4552 25.8066 14.3967C25.715 14.3381 25.6111 14.3027 25.5036 14.2935C25.4915 14.2935 25.4799 14.2983 25.4712 14.3069C25.4626 14.3156 25.4576 14.3273 25.4573 14.3397C25.4573 14.3518 25.4619 14.3634 25.4701 14.372C25.4783 14.3807 25.4895 14.3857 25.5013 14.386C25.5939 14.395 25.6832 14.4264 25.7619 14.4775C25.8405 14.5287 25.9062 14.5981 25.9537 14.6802C25.9589 14.6867 25.9657 14.6916 25.9734 14.6944Z" fill="#011C3A"/>
<path d="M25.3104 15.3023C25.2907 15.4209 25.2109 15.5123 25.1322 15.4992C25.0535 15.4862 25.0084 15.3806 25.028 15.2525C25.0477 15.1244 25.1287 15.0425 25.2062 15.0556C25.2838 15.0686 25.3312 15.1801 25.3104 15.3023Z" fill="#011C3A"/>
<path d="M23.9608 15.0671C23.9411 15.1857 23.8613 15.2771 23.7826 15.264C23.7039 15.251 23.6588 15.1394 23.6784 15.0173C23.6981 14.8951 23.7791 14.8061 23.8566 14.8203C23.9342 14.8346 23.9816 14.9437 23.9608 15.0671Z" fill="#011C3A"/>
<path d="M23.8903 14.8335L23.6172 14.6982C23.6172 14.6982 23.726 14.9533 23.8903 14.8335Z" fill="#011C3A"/>
<path d="M25.2397 15.0686L24.9666 14.9346C24.9666 14.9346 25.0753 15.1896 25.2397 15.0686Z" fill="#011C3A"/>
<path d="M23.5028 14.2405C23.5098 14.2448 23.5178 14.2471 23.5259 14.2471C23.5341 14.2471 23.5421 14.2448 23.5491 14.2405C23.6205 14.179 23.7053 14.1361 23.7964 14.1154C23.8875 14.0948 23.9821 14.097 24.0721 14.1219C24.0835 14.126 24.096 14.1253 24.1068 14.12C24.1177 14.1146 24.126 14.1051 24.13 14.0934C24.134 14.0818 24.1333 14.069 24.1281 14.0579C24.1229 14.0468 24.1136 14.0382 24.1022 14.0341C23.9984 14.0038 23.8889 13.9996 23.7831 14.0219C23.6774 14.0442 23.5784 14.0924 23.4947 14.1622C23.4898 14.1657 23.4858 14.1702 23.4827 14.1754C23.4797 14.1806 23.4777 14.1864 23.4769 14.1924C23.4762 14.1985 23.4766 14.2046 23.4783 14.2104C23.4799 14.2162 23.4828 14.2216 23.4866 14.2263C23.4904 14.2326 23.4961 14.2376 23.5028 14.2405Z" fill="#011C3A"/>
<path d="M22.0307 31.1863C22.0307 31.1863 22.0145 30.3369 22.2622 29.6738H28.3203C28.3203 29.6738 28.8653 30.5754 29.0065 31.1863H22.0307Z" fill="#022D5E"/>
<path d="M28.4116 29.3093L28.4591 29.8645C28.481 29.9084 28.4313 29.9523 28.3607 29.9523H22.2274C22.173 29.9523 22.1279 29.925 22.1244 29.8894L22.0688 29.3331C22.0688 29.2951 22.1128 29.2619 22.173 29.2619H28.3063C28.3264 29.2597 28.3466 29.2629 28.3651 29.2713C28.3836 29.2796 28.3996 29.2927 28.4116 29.3093Z" fill="#022D5E"/>
<path opacity="0.3" d="M28.4116 29.3093L28.4591 29.8645C28.481 29.9084 28.4313 29.9523 28.3607 29.9523H22.2274C22.173 29.9523 22.1279 29.925 22.1244 29.8894L22.0688 29.3331C22.0688 29.2951 22.1128 29.2619 22.173 29.2619H28.3063C28.3264 29.2597 28.3466 29.2629 28.3651 29.2713C28.3836 29.2796 28.3996 29.2927 28.4116 29.3093Z" fill="#F4F5F7"/>
<path d="M27.5865 30.0117H27.7508C27.7844 30.0117 27.8087 29.9951 27.8064 29.9738L27.73 29.2513C27.73 29.23 27.6988 29.2134 27.6664 29.2134H27.4986C27.465 29.2134 27.4407 29.23 27.443 29.2513L27.5194 29.9738C27.5252 29.9951 27.5541 30.0117 27.5865 30.0117Z" fill="#022D5E"/>
<path d="M22.6926 30.0117H22.8569C22.8893 30.0117 22.9148 29.9951 22.9125 29.9738L22.8349 29.2513C22.8349 29.23 22.8048 29.2134 22.7713 29.2134H22.607C22.5746 29.2134 22.5491 29.23 22.5514 29.2513L22.6289 29.9738C22.6313 29.9951 22.6602 30.0117 22.6926 30.0117Z" fill="#022D5E"/>
<path d="M25.1401 30.0117H25.2998C25.3322 30.0117 25.3577 29.9951 25.3553 29.9738L25.2778 29.2513C25.2778 29.23 25.2466 29.2134 25.2142 29.2134H25.0498C25.0174 29.2134 24.992 29.23 24.9943 29.2513L25.0718 29.9738C25.0788 29.9951 25.1065 30.0117 25.1401 30.0117Z" fill="#022D5E"/>
<path d="M29.9124 22.1562C30.1786 23.042 30.4343 23.9325 30.6797 24.8277L31.0488 26.1634L31.2328 26.8277L31.2791 26.9915L31.3023 27.0733L31.3081 27.0923L31.2895 27.0626C31.2603 27.0197 31.2243 26.982 31.1831 26.9511C31.0925 26.8836 30.9848 26.8444 30.8729 26.8384C30.7884 26.8343 30.7042 26.8514 30.6276 26.8883C30.5443 26.9345 30.5524 26.9452 30.5593 26.9369C30.5789 26.9194 30.5968 26.8999 30.6126 26.8788C30.6671 26.8089 30.7174 26.7356 30.763 26.6593C30.8648 26.4885 30.9655 26.2963 31.0604 26.0994C31.2571 25.7055 31.4342 25.288 31.6136 24.868C31.7929 24.4481 31.9607 24.0234 32.1343 23.5952C32.3079 23.1669 32.4734 22.7363 32.6446 22.3117L33.3841 22.537C33.192 23.4623 32.9675 24.371 32.6898 25.2761C32.5532 25.7305 32.4016 26.1801 32.2269 26.6356C32.1366 26.8633 32.0406 27.0911 31.9214 27.3272C31.8578 27.4549 31.7867 27.5785 31.7085 27.6973C31.6598 27.7718 31.6056 27.8424 31.5464 27.9084C31.4525 28.0176 31.3385 28.1067 31.2108 28.1706C31.0835 28.2341 30.9427 28.2643 30.8012 28.2584C30.6334 28.2488 30.4722 28.1881 30.3383 28.084C30.2529 28.018 30.179 27.9378 30.1196 27.8467C30.082 27.7883 30.0491 27.7268 30.0212 27.6629C30.0108 27.6368 29.9992 27.6095 29.9911 27.5858L29.9691 27.5276L29.9391 27.4434L29.8789 27.2762C29.8002 27.0543 29.7203 26.8325 29.6474 26.6107C29.4993 26.167 29.3512 25.7245 29.2123 25.2797C28.9284 24.3908 28.6638 23.4975 28.4185 22.5999L29.9124 22.1562Z" fill="#945125"/>
<path d="M29.3941 20.3985C30.0017 20.5871 30.9309 23.0296 30.9309 23.0296L28.576 24.7556C28.576 24.7556 27.5171 22.6678 27.7717 21.8635C28.0379 21.026 28.7021 20.1826 29.3941 20.3985Z" fill="#022D5E"/>
<path opacity="0.5" d="M29.3941 20.3985C30.0017 20.5871 30.9309 23.0296 30.9309 23.0296L28.576 24.7556C28.576 24.7556 27.5171 22.6678 27.7717 21.8635C28.0379 21.026 28.7021 20.1826 29.3941 20.3985Z" fill="#F4F5F7"/>
<path d="M32.6715 22.6368L32.3486 21.1777L33.691 21.9037C33.691 21.9037 33.7072 22.886 33.1656 23.1956L32.6715 22.6368Z" fill="#945125"/>
<path d="M32.911 20.02L33.7674 20.6428L33.691 21.9038L32.3486 21.1778L32.911 20.02Z" fill="#945125"/>
<path d="M9.28627 9.29207H18.6447C18.8233 9.28996 19.0004 9.33231 19.1648 9.41645C19.3291 9.5006 19.4771 9.62469 19.5993 9.7809C19.7216 9.93711 19.8155 10.122 19.8751 10.324C19.9347 10.5259 19.9587 10.7405 19.9456 10.9541L19.6845 16.0317C19.6558 16.4787 19.489 16.8967 19.2168 17.2041C18.9445 17.5115 18.5865 17.6861 18.2126 17.6937H17.1288L17.5713 19.4375L15.4547 17.6937H8.85764C8.67896 17.6958 8.50186 17.6535 8.33754 17.5693C8.17321 17.4852 8.02524 17.3611 7.90297 17.2049C7.7807 17.0487 7.6868 16.8638 7.62719 16.6618C7.56759 16.4599 7.54359 16.2453 7.55671 16.0317L7.81551 10.9541C7.8442 10.5074 8.01081 10.0895 8.28279 9.78214C8.55477 9.47479 8.91256 9.30005 9.28627 9.29207Z" fill="#022D5E"/>
<path d="M17.7873 11.9515H9.87315C9.83954 11.9513 9.80635 11.9427 9.77566 11.9263C9.74497 11.9099 9.71745 11.886 9.69486 11.8562C9.67227 11.8264 9.65509 11.7913 9.64441 11.7531C9.63373 11.7149 9.62979 11.6744 9.63283 11.6343C9.63801 11.5502 9.6692 11.4715 9.72028 11.4136C9.77137 11.3557 9.83866 11.3228 9.90896 11.3213H17.8243C17.8577 11.3214 17.8908 11.3297 17.9214 11.3458C17.952 11.3618 17.9796 11.3852 18.0023 11.4146C18.0251 11.444 18.0426 11.4786 18.0537 11.5164C18.0648 11.5542 18.0693 11.5943 18.0669 11.6343C18.0628 11.7199 18.0316 11.8004 17.9796 11.8594C17.9276 11.9183 17.8589 11.9513 17.7873 11.9515Z" fill="#F4F5F7"/>
<path d="M13.099 13.8057H9.77851C9.74489 13.806 9.71158 13.798 9.68068 13.7821C9.64977 13.7662 9.62195 13.7428 9.59894 13.7135C9.57594 13.6841 9.55826 13.6493 9.54701 13.6113C9.53576 13.5733 9.53119 13.5329 9.53358 13.4927C9.53877 13.4084 9.57013 13.3295 9.62145 13.2716C9.67278 13.2136 9.74036 13.1809 9.81086 13.1797H13.1348C13.1685 13.1792 13.202 13.1871 13.233 13.2029C13.2641 13.2187 13.292 13.2421 13.3152 13.2715C13.3383 13.3009 13.3561 13.3358 13.3674 13.3738C13.3787 13.4119 13.3833 13.4524 13.3809 13.4927C13.3754 13.5778 13.3433 13.6573 13.291 13.7154C13.2388 13.7734 13.1702 13.8057 13.099 13.8057Z" fill="#F4F5F7"/>
<path d="M15.9444 15.6602H9.68354C9.64992 15.6605 9.61661 15.6525 9.58571 15.6366C9.5548 15.6207 9.52697 15.5973 9.50397 15.5679C9.48097 15.5385 9.46328 15.5038 9.45204 15.4658C9.44079 15.4278 9.43621 15.3874 9.43861 15.3472C9.44354 15.2628 9.47481 15.1837 9.5262 15.1257C9.57759 15.0677 9.64531 15.035 9.71589 15.0342H15.9768C16.0104 15.0337 16.0438 15.0416 16.0748 15.0574C16.1058 15.0732 16.1337 15.0966 16.1567 15.126C16.1798 15.1555 16.1974 15.1904 16.2086 15.2284C16.2198 15.2665 16.2243 15.307 16.2217 15.3472C16.2165 15.4315 16.1851 15.5104 16.1338 15.5684C16.0825 15.6263 16.0149 15.6591 15.9444 15.6602Z" fill="#F4F5F7"/>
<path d="M15.538 13.8057H14.229C14.1953 13.806 14.162 13.798 14.1311 13.7821C14.1002 13.7662 14.0724 13.7429 14.0494 13.7135C14.0264 13.6841 14.0087 13.6493 13.9974 13.6113C13.9862 13.5733 13.9816 13.5329 13.984 13.4927C13.9895 13.4086 14.0209 13.3298 14.0722 13.2719C14.1234 13.2141 14.1909 13.1812 14.2613 13.1797H15.5692C15.6028 13.1792 15.6362 13.1871 15.6672 13.2029C15.6982 13.2187 15.7261 13.2421 15.7491 13.2716C15.7722 13.301 15.7898 13.3359 15.801 13.3739C15.8122 13.412 15.8167 13.4525 15.8141 13.4927C15.8089 13.5768 15.7777 13.6555 15.7266 13.7134C15.6756 13.7713 15.6083 13.8042 15.538 13.8057Z" fill="#F4F5F7"/>
<path d="M22.3174 0.164604H17.2154C16.9244 0.169839 16.6456 0.305325 16.4338 0.54444C16.2219 0.783554 16.0923 1.10901 16.0704 1.45685L15.8717 5.40976C15.8618 5.57595 15.8807 5.74281 15.9273 5.8998C15.9738 6.0568 16.047 6.20052 16.1422 6.32193C16.2374 6.44334 16.3526 6.53979 16.4804 6.6052C16.6082 6.67061 16.746 6.70357 16.8849 6.702H17.7203L17.2373 8.05934L19.0235 6.702H21.9835C22.2745 6.69677 22.5533 6.56128 22.7651 6.32217C22.977 6.08305 23.1066 5.7576 23.1285 5.40976L23.3307 1.45685C23.3406 1.29065 23.3216 1.1238 23.2751 0.966804C23.2285 0.80981 23.1553 0.666082 23.0602 0.544676C22.965 0.423271 22.8498 0.326821 22.722 0.261407C22.5942 0.195993 22.4564 0.163033 22.3174 0.164604Z" fill="#022D5E"/>
<g opacity="0.5">
<path d="M22.3174 0.164604H17.2154C16.9244 0.169839 16.6456 0.305325 16.4338 0.54444C16.2219 0.783554 16.0923 1.10901 16.0704 1.45685L15.8717 5.40976C15.8618 5.57595 15.8807 5.74281 15.9273 5.8998C15.9738 6.0568 16.047 6.20052 16.1422 6.32193C16.2374 6.44334 16.3526 6.53979 16.4804 6.6052C16.6082 6.67061 16.746 6.70357 16.8849 6.702H17.7203L17.2373 8.05934L19.0235 6.702H21.9835C22.2745 6.69677 22.5533 6.56128 22.7651 6.32217C22.977 6.08305 23.1066 5.7576 23.1285 5.40976L23.3307 1.45685C23.3406 1.29065 23.3216 1.1238 23.2751 0.966804C23.2285 0.80981 23.1553 0.666082 23.0602 0.544676C22.965 0.423271 22.8498 0.326821 22.722 0.261407C22.5942 0.195993 22.4564 0.163033 22.3174 0.164604Z" fill="#F4F5F7"/>
</g>
<path d="M19.8578 4.08004C19.8402 4.1671 19.7988 4.24457 19.7401 4.30006C19.6815 4.35556 19.609 4.38586 19.5343 4.38614H19.2327C19.2327 4.28364 19.2397 4.22132 19.2408 4.19916C19.2452 3.99952 19.2879 3.80378 19.3656 3.62714C19.4748 3.43022 19.6134 3.25928 19.7746 3.12298C19.9031 3.01134 20.0244 2.88818 20.1374 2.75456C20.1973 2.66953 20.2329 2.56371 20.239 2.45262C20.2436 2.37902 20.234 2.30515 20.2109 2.23672C20.1879 2.16828 20.152 2.10709 20.1062 2.05788C19.9941 1.94277 19.8491 1.8842 19.7018 1.89445C19.5469 1.88938 19.3954 1.95022 19.2743 2.06619C19.2023 2.13737 19.1434 2.22553 19.101 2.3252C19.0698 2.398 19.0214 2.45813 18.9618 2.49805C18.9021 2.53797 18.834 2.55589 18.766 2.54957C18.717 2.5423 18.6703 2.52034 18.6303 2.48572C18.5903 2.4511 18.5582 2.40493 18.537 2.3515C18.5158 2.29806 18.5062 2.23908 18.509 2.18001C18.5119 2.12094 18.5272 2.06369 18.5534 2.01356C18.6231 1.8733 18.7126 1.74864 18.8179 1.64514C19.0683 1.40385 19.3831 1.27938 19.7041 1.29472C20.0819 1.29472 20.3754 1.41245 20.5868 1.6493C20.6858 1.75131 20.7637 1.87945 20.8144 2.02363C20.8651 2.16782 20.8873 2.32414 20.8791 2.48032C20.8685 2.65784 20.8173 2.82842 20.7312 2.9734C20.5689 3.21295 20.3813 3.42619 20.1732 3.60774C20.0653 3.69801 19.9721 3.81113 19.8982 3.94154C19.8794 3.98522 19.8658 4.03184 19.8578 4.08004ZM19.1981 5.0745V5.03018C19.2041 4.93009 19.2414 4.83639 19.3023 4.76764C19.3633 4.69889 19.4436 4.66012 19.5273 4.65899H19.5689C19.609 4.65829 19.6487 4.66758 19.6856 4.68626C19.7225 4.70494 19.7557 4.73262 19.7832 4.76752C19.8107 4.80242 19.8318 4.8438 19.8452 4.88902C19.8587 4.93423 19.8641 4.98231 19.8612 5.03018V5.0745C19.8552 5.17473 19.818 5.26859 19.757 5.33756C19.6961 5.40653 19.6158 5.44561 19.532 5.44708H19.495C19.4545 5.44858 19.4141 5.43984 19.3766 5.42142C19.3391 5.40301 19.3052 5.37532 19.2772 5.34018C19.2492 5.30504 19.2277 5.26322 19.214 5.21744C19.2004 5.17167 19.195 5.12297 19.1981 5.0745Z" fill="#F4F5F7"/>
</svg>
