<svg width="48" height="48" viewBox="0 0 48 48" fill="none" xmlns="http://www.w3.org/2000/svg">
<path d="M11.4238 30.2565L9.57656 31.9267L12.2147 36.0632L14.3167 34.794C15.4434 35.9642 16.7643 36.894 18.2099 37.5344L17.9965 40.119L22.5619 41.032L23.2168 38.5339C24.7762 38.4947 26.3147 38.1375 27.7515 37.481L29.296 39.4786L33.1212 36.633L31.9475 34.3584C33.0299 33.1408 33.8897 31.7128 34.4816 30.1498L36.8717 30.3791L37.7133 25.445L35.4032 24.7354C35.367 23.0491 35.0366 21.3854 34.4296 19.8316L36.2768 18.1614L33.6453 14.0263L31.542 15.2941C30.4157 14.124 29.0953 13.1943 27.6502 12.5537L27.8636 9.96767L23.2981 9.05469L22.6419 11.5528C21.0826 11.5928 19.5443 11.95 18.1072 12.6056L16.5574 10.6037L12.7335 13.4494L13.9059 15.7225C12.8239 16.941 11.9641 18.3693 11.3718 19.9325L8.98038 19.7018L8.13745 24.6373L10.4462 25.3469C10.483 27.0355 10.8147 28.7012 11.4238 30.2565ZM16.7494 23.8051C16.9751 22.4832 17.5583 21.2634 18.4251 20.3C19.2919 19.3365 20.4034 18.6726 21.6191 18.3923C22.8349 18.112 24.1002 18.2279 25.255 18.7253C26.4098 19.2226 27.4023 20.0792 28.1069 21.1866C28.8116 22.2939 29.1967 23.6024 29.2136 24.9465C29.2306 26.2906 28.8785 27.6099 28.202 28.7377C27.5255 29.8654 26.555 30.7508 25.4131 31.282C24.2712 31.8132 23.0093 31.9663 21.787 31.7219C20.1483 31.3943 18.697 30.3762 17.7523 28.8916C16.8076 27.4069 16.4469 25.5773 16.7494 23.8051Z" fill="#DDE3E9"/>
<path d="M34.7843 44.2251H33.6252V44.261H34.7843V44.2251Z" fill="#F4F5F7"/>
<path d="M46.0624 42.4946H43.5029V42.5306H46.0624V42.4946Z" fill="#F4F5F7"/>
<path d="M5.39797 42.7368H4.55371V42.7728H5.39797V42.7368Z" fill="#F4F5F7"/>
<path d="M20.6374 43.3457H8.14282V43.3817H20.6374V43.3457Z" fill="#F4F5F7"/>
<path d="M41.3642 29.4237L42.8059 29.7121L43.014 28.9217C43.5074 28.9098 43.9943 28.7972 44.4491 28.59L44.9373 29.2203L46.1456 28.3217L45.7749 27.6006C46.1162 27.2154 46.3876 26.7643 46.5751 26.2708L47.33 26.3429L47.5968 24.7823L46.8672 24.5588C46.8558 24.0251 46.7513 23.4986 46.5591 23.0069L47.1433 22.479L46.3137 21.1723L45.6468 21.5732C45.2898 21.2045 44.8723 20.911 44.4158 20.7078L44.4838 19.8915L43.0407 19.603L42.8326 20.392C42.3391 20.4044 41.8522 20.5175 41.3975 20.7251L40.9094 20.0934L39.701 20.9934L40.0718 21.7146C39.7296 22.0996 39.4581 22.5514 39.2715 23.0458L38.5153 22.9722L38.2485 24.5328L38.9781 24.7578C38.9903 25.2914 39.0948 25.8178 39.2862 26.3097L38.7113 26.8347L39.5423 28.1415L40.2091 27.7405C40.5655 28.1102 40.9831 28.4038 41.4402 28.6059L41.3642 29.4237ZM40.9707 24.2674C41.0421 23.8498 41.2264 23.4644 41.5004 23.1601C41.7743 22.8557 42.1255 22.646 42.5096 22.5575C42.8938 22.4689 43.2935 22.5056 43.6584 22.6627C44.0233 22.8199 44.3369 23.0905 44.5595 23.4404C44.7822 23.7903 44.9039 24.2037 44.9093 24.6284C44.9147 25.053 44.8036 25.4699 44.5899 25.8263C44.3762 26.1826 44.0696 26.4625 43.7089 26.6304C43.3481 26.7984 42.9494 26.8469 42.5632 26.7698C42.3066 26.7188 42.0618 26.6136 41.8428 26.4602C41.6239 26.3068 41.435 26.1081 41.2871 25.8757C41.1392 25.6433 41.0351 25.3816 40.9808 25.1056C40.9265 24.8297 40.9231 24.5448 40.9707 24.2674Z" fill="#DDE3E9"/>
<path d="M4.10298 32.0837L5.20198 32.3029L5.3607 31.7015C5.73625 31.6912 6.10671 31.6051 6.45304 31.4477L6.82515 31.9279L7.74677 31.2429L7.46402 30.6948C7.72425 30.4028 7.93106 30.0603 8.07354 29.6852L8.64972 29.74L8.85245 28.5515L8.29627 28.3813C8.288 27.9746 8.20834 27.5732 8.06153 27.1986L8.507 26.7962L7.87214 25.801L7.36665 26.101C7.09588 25.8207 6.7793 25.5972 6.43303 25.4419L6.48505 24.8203L5.38471 24.5996L5.22732 25.2011C4.85134 25.2114 4.48045 25.2975 4.13365 25.4549L3.76287 24.9746L2.83725 25.6684L3.12001 26.2164C2.85949 26.5081 2.65264 26.8508 2.51048 27.226L1.93564 27.1683L1.73291 28.3568L2.28908 28.527C2.29727 28.9327 2.37647 29.333 2.52249 29.7068L2.07702 30.1092L2.71055 31.1044L3.21737 30.7986C3.4875 31.0802 3.80422 31.3043 4.15099 31.4592L4.10298 32.0837ZM3.80288 28.1563C3.85744 27.8383 3.99796 27.545 4.20668 27.3133C4.4154 27.0816 4.68294 26.9221 4.97549 26.8549C5.26804 26.7876 5.57246 26.8157 5.85027 26.9355C6.12808 27.0553 6.3668 27.2615 6.53626 27.528C6.70571 27.7945 6.7983 28.1094 6.80231 28.4328C6.80631 28.7562 6.72157 29.0736 6.55877 29.3449C6.39598 29.6162 6.16246 29.8293 5.88772 29.9571C5.61298 30.0849 5.30937 30.1218 5.01526 30.0631C4.62076 29.9839 4.27148 29.7386 4.04415 29.381C3.81682 29.0235 3.73004 28.583 3.80288 28.1563Z" fill="#DDE3E9"/>
<path d="M21.3375 5.66537L22.1698 5.83123L22.2885 5.37546C22.5734 5.36929 22.8545 5.30418 23.1167 5.18364L23.3982 5.54854L24.0944 5.02931L23.881 4.61537C24.078 4.39319 24.2345 4.13289 24.3424 3.84806L24.7772 3.88989L24.9306 2.99134L24.5105 2.86153C24.5035 2.55409 24.4433 2.25079 24.3331 1.9673L24.6692 1.66297L24.1904 0.910093L23.8076 1.14086C23.6025 0.926279 23.3618 0.7555 23.0981 0.637498L23.1367 0.165865L22.3045 0L22.1858 0.455767C21.9013 0.461799 21.6206 0.526923 21.3589 0.647594L21.0774 0.282691L20.3799 0.80192L20.5946 1.21586C20.3972 1.43771 20.2406 1.6981 20.1331 1.98317L19.697 1.94134L19.5503 2.84422L19.9704 2.97403C19.9774 3.28146 20.0376 3.58477 20.1478 3.86826L19.8117 4.17258L20.2919 4.92546L20.6746 4.69469C20.8794 4.90793 21.1198 5.07726 21.3829 5.19373L21.3375 5.66537ZM21.1121 2.69278C21.1533 2.45215 21.2596 2.23014 21.4174 2.05481C21.5753 1.87948 21.7777 1.7587 21.9991 1.70775C22.2204 1.65679 22.4507 1.67795 22.661 1.76854C22.8712 1.85913 23.0518 2.01509 23.1801 2.2167C23.3084 2.41831 23.3785 2.65652 23.3816 2.90121C23.3847 3.14591 23.3206 3.3861 23.1975 3.59142C23.0744 3.79675 22.8977 3.95799 22.6898 4.05476C22.482 4.15152 22.2523 4.17948 22.0297 4.13508C21.8819 4.10559 21.7408 4.04488 21.6147 3.95642C21.4886 3.86796 21.3798 3.75349 21.2946 3.61954C21.2093 3.4856 21.1494 3.33481 21.1181 3.17579C21.0868 3.01677 21.0847 2.85264 21.1121 2.69278Z" fill="#DDE3E9"/>
<path d="M41.8346 14.8429L42.3894 14.9539L42.4694 14.651C42.6589 14.6461 42.8458 14.6026 43.0203 14.5227L43.2083 14.765L43.6738 14.4203L43.5311 14.1433C43.6626 13.996 43.7668 13.8226 43.8378 13.6328L44.1286 13.6602L44.2313 13.0602L43.9512 12.9736C43.9466 12.7688 43.9063 12.5667 43.8325 12.378L44.0566 12.1746L43.7365 11.6727L43.4817 11.8256C43.3446 11.6838 43.184 11.5712 43.0083 11.4938L43.0349 11.1794L42.4801 11.0684L42.4001 11.3727C42.2107 11.3771 42.0238 11.4201 41.8492 11.4996L41.6612 11.2573L41.1957 11.6035L41.3384 11.8789C41.2068 12.0269 41.1027 12.2007 41.0316 12.391L40.7409 12.3635L40.6382 12.9621L40.9183 13.0486C40.9228 13.254 40.9631 13.4566 41.037 13.6458L40.8129 13.8477L41.133 14.351L41.3878 14.1967C41.5248 14.3389 41.6855 14.452 41.8612 14.5299L41.8346 14.8429ZM41.6905 12.8611C41.7179 12.7003 41.7887 12.5519 41.8941 12.4346C41.9995 12.3174 42.1346 12.2365 42.2825 12.2024C42.4304 12.1682 42.5843 12.1823 42.7248 12.2427C42.8653 12.3032 42.986 12.4074 43.0717 12.5421C43.1574 12.6768 43.2043 12.836 43.2063 12.9995C43.2084 13.163 43.1655 13.3234 43.0832 13.4606C43.0008 13.5977 42.8827 13.7054 42.7438 13.7699C42.6049 13.8345 42.4514 13.853 42.3027 13.8232C42.1036 13.7832 41.9274 13.6595 41.8126 13.4791C41.6978 13.2987 41.6539 13.0765 41.6905 12.8611Z" fill="#DDE3E9"/>
<path d="M35.0685 34.7263C35.0762 35.0844 35.1464 35.4376 35.2752 35.7676L34.8885 36.1181L35.4473 36.995L35.8928 36.7253C36.1321 36.9719 36.4121 37.1676 36.7184 37.3022L36.673 37.8503L37.6413 38.0436L37.7747 37.5142C38.1058 37.5056 38.4324 37.4297 38.7376 37.2907L39.0644 37.7133L39.8753 37.1104L39.6273 36.6287C39.8555 36.3701 40.0365 36.0671 40.1607 35.7359L40.6676 35.7849L40.8463 34.7378L40.3568 34.5936C40.3497 34.2354 40.2796 33.882 40.1501 33.5522L40.5422 33.1989L39.9847 32.3219L39.5379 32.5902C39.2995 32.3431 39.0197 32.1473 38.7136 32.0133L38.7577 31.4638L37.7907 31.2705L37.6573 31.8013C37.3263 31.8091 36.9996 31.8845 36.6943 32.0234L36.3662 31.6008L35.5553 32.2037L35.8047 32.6854C35.577 32.9444 35.3961 33.2472 35.2712 33.5782L34.7644 33.5292L34.5857 34.5763L35.0685 34.7263ZM36.4023 34.4003C36.4498 34.1195 36.5733 33.8602 36.7572 33.6554C36.9411 33.4505 37.177 33.3093 37.4352 33.2495C37.6933 33.1898 37.9621 33.2143 38.2074 33.3198C38.4527 33.4254 38.6635 33.6073 38.8131 33.8425C38.9627 34.0777 39.0444 34.3557 39.0478 34.6411C39.0513 34.9266 38.9763 35.2068 38.8324 35.4461C38.6885 35.6855 38.4822 35.8732 38.2395 35.9857C37.9968 36.0981 37.7288 36.1301 37.4693 36.0777C37.1226 36.0073 36.8159 35.7913 36.6162 35.4769C36.4165 35.1626 36.34 34.7755 36.4036 34.4003H36.4023Z" fill="#DDE3E9"/>
<path d="M10.8956 15.5955C11.017 16.2446 10.2901 16.9527 9.27247 17.1749C8.25482 17.397 7.33187 17.0494 7.2105 16.4003C7.08913 15.7513 7.81602 15.0417 8.83367 14.8138C9.85132 14.5859 10.7743 14.9451 10.8956 15.5955Z" fill="#DDE3E9"/>
<path d="M11.2892 13.2635C11.3702 13.1402 11.4033 12.9874 11.3812 12.838C11.2625 12.1991 9.91407 11.9568 8.36159 12.2943C6.80911 12.6318 5.65409 13.4251 5.77279 14.0626C5.80753 14.2091 5.893 14.3356 6.01153 14.4159C5.99322 14.4853 5.99002 14.5584 6.0022 14.6294C6.03661 14.7746 6.12297 14.8991 6.24227 14.9755C6.2218 15.047 6.21768 15.1227 6.23027 15.1962C6.24779 15.2681 6.27856 15.3354 6.32073 15.3942C6.3629 15.4529 6.4156 15.5018 6.47568 15.538C6.45269 15.6098 6.44718 15.6868 6.45967 15.7616C6.47748 15.8336 6.50881 15.9008 6.55172 15.9592C6.59464 16.0175 6.6482 16.0656 6.70908 16.1005C6.68288 16.173 6.67595 16.2519 6.68908 16.3284C6.78777 16.8592 7.91212 17.0611 9.19918 16.7799C10.4862 16.4986 11.4505 15.8409 11.3519 15.3101C11.3355 15.2342 11.3005 15.1644 11.2505 15.1082C11.2943 15.051 11.3266 14.9844 11.3452 14.9129C11.3638 14.8414 11.3683 14.7664 11.3585 14.6928C11.3439 14.6181 11.3112 14.549 11.2638 14.4924C11.3059 14.4336 11.3367 14.3663 11.3543 14.2945C11.3719 14.2226 11.3761 14.1477 11.3665 14.0741C11.3519 14.0014 11.3213 13.9336 11.2772 13.8765C11.3597 13.756 11.3947 13.6051 11.3745 13.4568C11.3599 13.3862 11.3307 13.3201 11.2892 13.2635Z" fill="#F4F5F7"/>
<path d="M12.5549 7.08767C12.3885 6.17978 12.0123 5.33224 11.4612 4.62409C10.9101 3.91594 10.2021 3.37024 9.40328 3.0379C8.60448 2.70555 7.74085 2.59737 6.89295 2.72346C6.04504 2.84954 5.24047 3.20578 4.55427 3.75895C3.86806 4.31211 3.32258 5.0442 2.96869 5.88692C2.61479 6.72964 2.46401 7.65556 2.53041 8.57832C2.59681 9.50108 2.87823 10.3906 3.34842 11.164C3.8186 11.9374 4.46224 12.5694 5.21932 13.0011C5.34063 13.0688 5.44463 13.1677 5.52211 13.2892C5.59958 13.4108 5.64813 13.5511 5.66345 13.6977C5.66345 13.7122 5.66345 13.7266 5.66345 13.741C5.78483 14.3901 7.15858 14.6367 8.73107 14.2934C10.3036 13.9501 11.4799 13.1396 11.3586 12.4977C11.3586 12.4833 11.3585 12.4703 11.3492 12.4559C11.311 12.3129 11.3059 12.1618 11.3345 12.0162C11.3632 11.8705 11.4245 11.7347 11.5133 11.6208C11.9855 10.9952 12.3239 10.2643 12.504 9.48052C12.6841 8.69674 12.7015 7.87957 12.5549 7.08767Z" fill="#F4F5F7"/>
<path d="M9.43927 13.2329H9.42727C9.41121 13.2337 9.3955 13.2276 9.38353 13.216C9.37156 13.2044 9.36428 13.1882 9.36324 13.1709C9.36324 13.0642 9.23921 10.6526 10.1995 9.49734L9.46327 9.65743C9.45168 9.66053 9.43948 9.65955 9.42844 9.65462C9.4174 9.64969 9.40811 9.64107 9.40192 9.63003L9.03648 9.05311L8.71371 10.4449C8.71069 10.4569 8.70477 10.4677 8.69656 10.4763C8.68835 10.485 8.67815 10.4911 8.66703 10.494C8.6557 10.4966 8.64394 10.4956 8.63308 10.4913C8.62222 10.487 8.61272 10.4794 8.60568 10.4695L7.80543 9.31561L7.45332 10.5545C7.45086 10.5664 7.44503 10.577 7.43665 10.585C7.42827 10.5931 7.41777 10.598 7.40664 10.5993C7.39597 10.6012 7.38502 10.6002 7.37477 10.5964C7.36453 10.5927 7.35532 10.5862 7.34796 10.5776L6.57972 9.57955L6.44634 10.2719C6.44451 10.2845 6.439 10.2963 6.43061 10.3053C6.42222 10.3144 6.41138 10.3204 6.39966 10.3223L5.59941 10.4954C5.99954 10.8055 7.28127 11.9031 7.5907 13.5617C7.59227 13.5702 7.5923 13.5789 7.59077 13.5873C7.58925 13.5957 7.5862 13.6038 7.5818 13.6109C7.5774 13.6181 7.57175 13.6243 7.56515 13.6291C7.55855 13.6339 7.55114 13.6372 7.54335 13.6389C7.53555 13.6406 7.52753 13.6406 7.51972 13.639C7.51192 13.6373 7.50449 13.634 7.49787 13.6293C7.49124 13.6245 7.48554 13.6184 7.4811 13.6113C7.47667 13.6041 7.47357 13.5961 7.47199 13.5877C7.11455 11.6781 5.43136 10.5286 5.41402 10.5185C5.40366 10.5115 5.39547 10.5012 5.39051 10.4892C5.38556 10.4771 5.38406 10.4636 5.38621 10.4506C5.38836 10.4376 5.39406 10.4256 5.40258 10.4161C5.4111 10.4066 5.42206 10.4 5.43403 10.3973L6.32897 10.2026L6.47835 9.4209C6.48037 9.40877 6.4856 9.39754 6.49342 9.38858C6.50123 9.37961 6.51129 9.3733 6.52237 9.37042C6.53342 9.36695 6.54518 9.36716 6.55612 9.37102C6.56706 9.37488 6.57668 9.3822 6.58372 9.39205L7.35729 10.3916L7.72007 9.14686C7.72312 9.13506 7.72919 9.12443 7.73759 9.1162C7.74599 9.10798 7.75637 9.10249 7.76753 9.10038C7.77869 9.09827 7.79018 9.09962 7.80066 9.10427C7.81115 9.10892 7.8202 9.11669 7.82677 9.12667L8.62702 10.2805L8.95245 8.8858C8.95537 8.87371 8.96145 8.86279 8.96997 8.85435C8.97849 8.8459 8.98907 8.8403 9.00047 8.83821C9.01186 8.83565 9.0237 8.8369 9.03442 8.8418C9.04514 8.84669 9.05423 8.855 9.06049 8.86561L9.47928 9.5233L10.3729 9.32859C10.386 9.32521 10.3998 9.3268 10.4119 9.3331C10.4241 9.33941 10.4338 9.35004 10.4396 9.3632C10.4454 9.37601 10.4472 9.39051 10.4448 9.40454C10.4424 9.41857 10.4359 9.43138 10.4262 9.44109C9.35257 10.4752 9.48328 13.1392 9.48462 13.1666C9.48509 13.1815 9.48087 13.1962 9.47264 13.2083C9.46441 13.2203 9.45264 13.229 9.43927 13.2329Z" fill="#DDE3E9"/>
<path d="M24 47.9998C37.2548 47.9998 48 47.3505 48 46.5495C48 45.7485 37.2548 45.0991 24 45.0991C10.7452 45.0991 0 45.7485 0 46.5495C0 47.3505 10.7452 47.9998 24 47.9998Z" fill="#F4F5F7"/>
<path d="M38.4194 12.114C38.4194 11.3645 38.0406 10.6867 37.4291 10.1998C37.4494 10.1008 37.4598 9.99995 37.4601 9.89876C37.4601 8.8994 36.4785 8.0871 35.2567 8.06404C34.8854 7.09671 33.7813 6.39844 32.4717 6.39844C31.4294 6.39844 30.5147 6.84431 29.996 7.51439C29.8652 7.49586 29.7332 7.48644 29.6012 7.4862C28.3559 7.4862 27.3459 8.30875 27.3459 9.32349C27.3458 9.49531 27.3751 9.66579 27.4325 9.82701C26.6391 10.2588 26.1155 10.9942 26.1155 11.8296C26.1155 12.6342 26.6007 13.3453 27.3459 13.7822V13.8078C27.3459 14.7931 28.2965 15.6015 29.4922 15.6425C30.1508 16.3088 31.1608 16.7354 32.2934 16.7354C33.0371 16.742 33.7695 16.5468 34.4175 16.1691C34.5194 16.1809 34.6219 16.1869 34.7245 16.187C35.9697 16.187 36.9798 15.3645 36.9798 14.3498V14.3318C37.8512 13.8449 38.4194 13.0339 38.4194 12.114Z" fill="#022D5E"/>
<path d="M26.0177 17.5092C26.0177 17.6771 25.8296 17.8129 25.5981 17.8129C25.3666 17.8129 25.1785 17.6771 25.1785 17.5092C25.1785 17.3414 25.3666 17.2056 25.5981 17.2056C25.8296 17.2056 26.0177 17.3414 26.0177 17.5092Z" fill="#022D5E"/>
<path d="M28.924 16.7842C28.924 17.2698 28.3782 17.6631 27.7048 17.6631C27.0314 17.6631 26.4893 17.2723 26.4893 16.7842C26.4893 16.296 27.0351 15.9053 27.7085 15.9053C28.3819 15.9053 28.924 16.3025 28.924 16.7842Z" fill="#022D5E"/>
<path opacity="0.7" d="M38.4194 12.114C38.4194 11.3645 38.0406 10.6867 37.4291 10.1998C37.4494 10.1008 37.4598 9.99995 37.4601 9.89876C37.4601 8.8994 36.4785 8.0871 35.2567 8.06404C34.8854 7.09671 33.7813 6.39844 32.4717 6.39844C31.4294 6.39844 30.5147 6.84431 29.996 7.51439C29.8652 7.49586 29.7332 7.48644 29.6012 7.4862C28.3559 7.4862 27.3459 8.30875 27.3459 9.32349C27.3458 9.49531 27.3751 9.66579 27.4325 9.82701C26.6391 10.2588 26.1155 10.9942 26.1155 11.8296C26.1155 12.6342 26.6007 13.3453 27.3459 13.7822V13.8078C27.3459 14.7931 28.2965 15.6015 29.4922 15.6425C30.1508 16.3088 31.1608 16.7354 32.2934 16.7354C33.0371 16.742 33.7695 16.5468 34.4175 16.1691C34.5194 16.1809 34.6219 16.1869 34.7245 16.187C35.9697 16.187 36.9798 15.3645 36.9798 14.3498V14.3318C37.8512 13.8449 38.4194 13.0339 38.4194 12.114Z" fill="#F4F5F7"/>
<path opacity="0.7" d="M26.0177 17.5092C26.0177 17.6771 25.8296 17.8129 25.5981 17.8129C25.3666 17.8129 25.1785 17.6771 25.1785 17.5092C25.1785 17.3414 25.3666 17.2056 25.5981 17.2056C25.8296 17.2056 26.0177 17.3414 26.0177 17.5092Z" fill="#F4F5F7"/>
<path opacity="0.7" d="M28.924 16.7842C28.924 17.2698 28.3782 17.6631 27.7048 17.6631C27.0314 17.6631 26.4893 17.2723 26.4893 16.7842C26.4893 16.296 27.0351 15.9053 27.7085 15.9053C28.3819 15.9053 28.924 16.3025 28.924 16.7842Z" fill="#F4F5F7"/>
<path d="M32.3293 8.25391C33.5337 8.25391 34.2789 8.83943 34.2789 9.88107C34.2789 11.2904 32.895 11.4711 32.895 12.5588H31.7005C31.7005 11.1277 32.8059 11.0431 32.8059 10.1514C32.8059 9.76704 32.572 9.58382 32.1771 9.58382C31.7364 9.58382 31.5025 9.85288 31.4938 10.4115H30.2634C30.2721 9.04442 31.0445 8.25391 32.3293 8.25391ZM33.0498 14.0668C33.0498 14.2779 32.9688 14.4802 32.8246 14.6295C32.6805 14.7787 32.4849 14.8625 32.2811 14.8625C32.0772 14.8625 31.8817 14.7787 31.7375 14.6295C31.5934 14.4802 31.5124 14.2779 31.5124 14.0668C31.5124 13.8558 31.5934 13.6535 31.7375 13.5042C31.8817 13.355 32.0772 13.2712 32.2811 13.2712C32.4849 13.2712 32.6805 13.355 32.8246 13.5042C32.9688 13.6535 33.0498 13.8558 33.0498 14.0668Z" fill="#022D5E"/>
<path d="M5.3414 38.1268C5.3414 38.1268 4.53311 37.1313 4.01694 37.5964C3.50077 38.0615 3.76071 39.0455 4.35734 39.0775C4.71272 39.0992 5.06388 38.9888 5.34759 38.7662L5.3414 38.1268Z" fill="#022D5E"/>
<path opacity="0.2" d="M5.3414 38.1268C5.3414 38.1268 4.53311 37.1313 4.01694 37.5964C3.50077 38.0615 3.76071 39.0455 4.35734 39.0775C4.71272 39.0992 5.06388 38.9888 5.34759 38.7662L5.3414 38.1268Z" fill="#F4F5F7"/>
<path d="M8.63892 35.6031C8.63892 35.6031 9.31724 34.8664 9.7381 34.9919C10.159 35.1175 10.1094 36.8741 8.81097 36.163L8.63892 35.6031Z" fill="#022D5E"/>
<path opacity="0.3" d="M8.63892 35.6031C8.63892 35.6031 9.31724 34.8664 9.7381 34.9919C10.159 35.1175 10.1094 36.8741 8.81097 36.163L8.63892 35.6031Z" fill="#F4F5F7"/>
<path d="M6.21402 41.0928C6.21402 41.0928 3.98596 37.9345 5.79441 37.2952C7.60285 36.6559 7.92716 39.8359 7.40357 40.7212C6.87997 41.6065 6.21402 41.0928 6.21402 41.0928Z" fill="#022D5E"/>
<path d="M7.24876 34.6266C7.24876 34.6266 8.63263 31.3018 6.58281 31.2019C4.53299 31.1019 4.31018 34.4985 6.66822 34.9917L7.24876 34.6266Z" fill="#022D5E"/>
<path opacity="0.3" d="M6.21402 41.0928C6.21402 41.0928 3.98596 37.9345 5.79441 37.2952C7.60285 36.6559 7.92716 39.8359 7.40357 40.7212C6.87997 41.6065 6.21402 41.0928 6.21402 41.0928Z" fill="#F4F5F7"/>
<path opacity="0.3" d="M7.24876 34.6266C7.24876 34.6266 8.63263 31.3018 6.58281 31.2019C4.53299 31.1019 4.31018 34.4985 6.66822 34.9917L7.24876 34.6266Z" fill="#F4F5F7"/>
<path d="M6.75741 37.3494C6.75741 37.3494 6.08528 34.4141 7.37632 34.1796C8.66736 33.9452 9.94602 36.5973 7.2711 37.9311C7.27234 37.9311 6.81435 37.6364 6.75741 37.3494Z" fill="#022D5E"/>
<path opacity="0.2" d="M6.75741 37.3494C6.75741 37.3494 6.08528 34.4141 7.37632 34.1796C8.66736 33.9452 9.94602 36.5973 7.2711 37.9311C7.27234 37.9311 6.81435 37.6364 6.75741 37.3494Z" fill="#F4F5F7"/>
<path d="M6.56061 34.3894C5.78822 33.8052 5.25472 32.6777 5.709 31.7271C5.69043 31.8155 5.66815 31.9115 5.64711 32C5.49486 32.8968 5.97141 33.7604 6.56061 34.3894Z" fill="#022D5E"/>
<path d="M6.06548 31.5364C6.94804 31.7145 7.35157 32.7074 7.24388 33.5594C7.22408 33.6799 7.20675 33.8016 7.18447 33.9195C7.19582 33.6786 7.19293 33.4373 7.1758 33.1968C7.1201 32.4883 6.7438 31.7965 6.06177 31.5312L6.06548 31.5364Z" fill="#022D5E"/>
<path d="M7.63236 34.3897C8.17452 34.5883 8.48645 35.2276 8.44065 35.7991C8.39609 36.2193 8.16833 36.5973 7.91582 36.9125C7.7122 37.1662 7.4799 37.3938 7.22388 37.5902C7.33776 37.4749 7.44916 37.3596 7.5519 37.2366C7.85888 36.8779 8.16214 36.4832 8.29459 36.0194C8.37769 35.7095 8.3577 35.3796 8.23781 35.0829C8.11793 34.7861 7.90511 34.5397 7.63359 34.3833L7.63236 34.3897Z" fill="#022D5E"/>
<path d="M7.24884 34.6265C7.38253 35.0557 7.49641 35.5707 7.2835 35.9935C7.10278 36.2677 7.08422 36.6265 7.07926 36.9532C7.07926 37.0672 7.07926 37.18 7.08669 37.2953C7.03365 37.0711 7.00951 36.8406 7.0149 36.6098C7.01108 36.3718 7.07384 36.1378 7.19562 35.9359C7.39491 35.54 7.2996 35.0557 7.24884 34.6265Z" fill="#022D5E"/>
<path d="M6.33887 37.5967C6.86123 37.8888 7.06794 39.7222 7.04937 40.3219C7.03328 40.2027 7.01595 40.0848 6.99367 39.967C6.89465 39.3802 6.79191 38.7908 6.64213 38.2168C6.57158 38.0003 6.52702 37.7376 6.33887 37.5967Z" fill="#022D5E"/>
<path d="M5.70522 37.6978C5.57948 38.1204 5.56021 38.5694 5.64925 39.0019C5.73829 39.4345 5.93268 39.8363 6.21397 40.1692C6.13147 40.0961 6.05335 40.0178 5.98002 39.9348C5.72796 39.6305 5.56759 39.2565 5.51875 38.8589C5.46991 38.4613 5.53474 38.0576 5.70522 37.6978Z" fill="#022D5E"/>
<path d="M9.15991 35.9605C9.39015 35.9214 9.60485 35.8152 9.77882 35.6543C9.73673 35.9298 9.39881 36.0592 9.15991 35.9605Z" fill="#022D5E"/>
<path d="M9.02637 35.4762C9.13777 35.2405 9.52149 35.0919 9.68117 35.3481C9.45341 35.2443 9.23061 35.3737 9.02637 35.4762Z" fill="#022D5E"/>
<path d="M4.97243 38.2755C4.71249 38.0859 4.44264 37.763 4.10596 37.9308C4.38075 37.5939 4.84865 37.9731 4.97243 38.2755Z" fill="#022D5E"/>
<path d="M4.97246 38.7648C4.62959 38.8929 3.95745 38.9057 3.90918 38.4111C4.10475 38.8134 4.60236 38.725 4.97246 38.7648Z" fill="#022D5E"/>
<path d="M3.45361 39.79H10.3817L9.80237 44.3781H4.03167L3.45361 39.79Z" fill="#011C3A"/>
<g opacity="0.2">
<path d="M10.3817 39.79L10.1787 41.3941L10.1663 41.4954L10.0512 42.4076L10.0215 42.6446L9.93605 43.3198L9.86797 43.8605L9.80237 44.3781H4.03167L3.96607 43.8605L3.89799 43.3198L3.81382 42.6446L3.78287 42.4076L3.66899 41.4954L3.65538 41.3941L3.45361 39.79H10.3817Z" fill="#F4F5F7"/>
</g>
<path opacity="0.2" d="M9.93601 43.3198L9.86793 43.8605H3.96603L3.89795 43.3198H9.93601Z" fill="#F4F5F7"/>
<path opacity="0.2" d="M10.0513 42.4077L10.0215 42.6447H3.8139L3.78296 42.4077H10.0513Z" fill="#F4F5F7"/>
<path opacity="0.2" d="M10.1786 41.394L10.1662 41.4953H3.66889L3.65527 41.394H10.1786Z" fill="#F4F5F7"/>
<path d="M40.1174 37.5234H38.6729V40.5894H40.1174V37.5234Z" fill="#011C3A"/>
<path d="M43.4806 42.4088C43.4806 41.3429 42.6921 40.4101 41.5125 39.8951V39.248H37.2767V39.8951C36.0971 40.4076 35.3098 41.3429 35.3098 42.4088C35.3163 42.9072 35.4822 43.3893 35.7814 43.7798V44.323H43.009V43.7798C43.3083 43.3893 43.4741 42.9072 43.4806 42.4088Z" fill="#011C3A"/>
<path opacity="0.6" d="M43.4806 42.4088C43.4806 41.3429 42.6921 40.4101 41.5125 39.8951V39.248H37.2767V39.8951C36.0971 40.4076 35.3098 41.3429 35.3098 42.4088C35.3163 42.9072 35.4822 43.3893 35.7814 43.7798V44.323H43.009V43.7798C43.3083 43.3893 43.4741 42.9072 43.4806 42.4088Z" fill="#F4F5F7"/>
<path d="M41.619 39.868H37.1703C37.103 39.868 37.0384 39.8404 36.9908 39.7911C36.9432 39.7419 36.9165 39.675 36.9165 39.6054V32.4805H37.0403V39.6054C37.0394 39.6233 37.0422 39.6412 37.0484 39.6579C37.0546 39.6747 37.0641 39.6899 37.0764 39.7026C37.0886 39.7152 37.1033 39.7251 37.1195 39.7316C37.1357 39.738 37.153 39.7408 37.1703 39.7399H41.619C41.6358 39.7399 41.6524 39.7364 41.6678 39.7296C41.6832 39.7228 41.6972 39.7127 41.7088 39.7002C41.7203 39.6876 41.7293 39.6727 41.7352 39.6564C41.741 39.6401 41.7436 39.6227 41.7427 39.6054V32.4805H41.8665V39.6054C41.8665 39.674 41.8407 39.7398 41.7944 39.7889C41.7481 39.838 41.6852 39.8664 41.619 39.868Z" fill="#011C3A"/>
<path d="M43.7257 38.4114H35.0647L36.9647 30.7983H41.8256L43.7257 38.4114Z" fill="#022D5E"/>
<path opacity="0.2" d="M43.0091 43.7783H35.7815V44.3216H43.0091V43.7783Z" fill="#011C3A"/>
<path opacity="0.2" d="M41.5124 39.2466H37.2766V39.8936H41.5124V39.2466Z" fill="#011C3A"/>
<path opacity="0.6" d="M43.7257 38.4114H35.0647L36.9647 30.7983H41.8256L43.7257 38.4114Z" fill="#F4F5F7"/>
<path d="M44.1628 44.3218H2.20337V46.3461H44.1628V44.3218Z" fill="#022D5E"/>
<path opacity="0.2" d="M44.1628 44.3218H2.20337V46.3461H44.1628V44.3218Z" fill="#F4F5F7"/>
<path d="M44.7903 44.3218H1.69581C1.56556 44.3218 1.44055 44.3749 1.34787 44.4696C1.2552 44.5643 1.20231 44.6931 1.20068 44.8279C1.20231 44.9627 1.2552 45.0914 1.34787 45.1861C1.44055 45.2808 1.56556 45.334 1.69581 45.3339H44.7903C44.9195 45.3323 45.0429 45.2784 45.1343 45.1839C45.2256 45.0893 45.2777 44.9616 45.2793 44.8279C45.2777 44.6942 45.2256 44.5664 45.1343 44.4718C45.0429 44.3773 44.9195 44.3234 44.7903 44.3218Z" fill="#022D5E"/>
<path opacity="0.4" d="M44.7903 44.3218H1.69581C1.56556 44.3218 1.44055 44.3749 1.34787 44.4696C1.2552 44.5643 1.20231 44.6931 1.20068 44.8279C1.20231 44.9627 1.2552 45.0914 1.34787 45.1861C1.44055 45.2808 1.56556 45.334 1.69581 45.3339H44.7903C44.9195 45.3323 45.0429 45.2784 45.1343 45.1839C45.2256 45.0893 45.2777 44.9616 45.2793 44.8279C45.2777 44.6942 45.2256 44.5664 45.1343 44.4718C45.0429 44.3773 44.9195 44.3234 44.7903 44.3218Z" fill="#F4F5F7"/>
<path d="M26.7593 25.5873C27.9197 27.2024 29.1574 28.899 30.6557 30.1268C30.922 30.3503 31.2218 30.5235 31.5424 30.639C31.5647 30.646 31.5424 30.6587 31.5162 30.6783C31.49 30.698 31.5005 30.6952 31.5005 30.7064C31.5005 30.7176 31.4599 30.7457 31.4494 30.7555C31.3146 30.8909 31.2311 31.0747 31.215 31.2719C31.215 31.3112 31.2228 31.3084 31.2228 31.2831C31.1429 30.6376 30.7775 30.002 30.4684 29.4C29.2177 27.1365 27.6447 25.0218 26.1346 22.9169L27.3134 21.6792C28.6403 22.8883 29.8915 24.1896 31.0591 25.5747C31.9602 26.6552 32.8403 27.789 33.524 29.0926C34.2037 30.3401 34.6097 32.1097 33.3996 33.2084C32.8638 33.6891 32.1875 33.9528 31.4887 33.9535C29.1967 33.9199 27.1012 31.6045 25.6959 29.9402C25.0968 29.2086 24.5375 28.4407 24.0208 27.6403L26.7554 25.5873H26.7593Z" fill="#C9916C"/>
<path d="M23.4274 20.1959L24.8091 20.1243C24.9628 20.1171 25.1147 20.1612 25.2439 20.2506L27.384 21.7367L27.0291 23.335C25.6958 24.2359 24.5576 23.4079 24.2093 23.1006C24.1287 23.0289 24.0343 22.9772 23.9329 22.9491L23.1759 22.7316C23.0069 22.6832 22.8595 22.5718 22.7601 22.4176C22.6607 22.2633 22.6159 22.0761 22.6337 21.8896L22.728 20.9073C22.7451 20.7184 22.8253 20.5425 22.9538 20.4118C23.0822 20.2811 23.2504 20.2044 23.4274 20.1959Z" fill="#C9916C"/>
<path d="M30.8167 30.1239L29.4311 34.8543C29.4311 34.8543 29.2752 34.7659 29.0211 34.613C28.3519 34.2102 26.9976 33.3655 25.997 32.5277C25.4155 32.0422 24.9492 31.5595 24.8183 31.1666C24.3533 29.8475 27.1207 25.1704 27.1207 25.1704C27.9904 25.4034 29.046 27.0929 29.046 27.0929C29.046 27.0929 30.4828 29.2637 30.8167 30.1239Z" fill="#022D5E"/>
<path opacity="0.2" d="M29.021 34.6132C28.3518 34.2104 26.9975 33.3657 25.9969 32.5279C25.9713 31.8609 26.0192 31.193 26.1397 30.5381C26.1397 30.5381 28.3636 31.888 29.021 34.6132Z" fill="#011C3A"/>
<path d="M27.1195 25.172C27.1195 25.172 29.8018 32.5756 27.2073 46.3458L14.9799 46.3135C14.9 44.3027 15.75 34.8868 13.9609 25.4049C13.9609 25.4049 14.4626 24.7482 18.4074 24.4689C19.9686 24.3581 22.233 24.3455 23.6056 24.483C24.7919 24.614 25.9668 24.8443 27.1195 25.172Z" fill="#011C3A"/>
<path opacity="0.6" d="M28.3113 36.6451C28.2943 37.1461 28.2707 37.6611 28.2393 38.1887C28.2118 38.6195 28.1816 39.0615 28.145 39.5134C28.0991 40.0522 28.0467 40.6065 27.9813 41.1748C27.9315 41.6426 27.8747 42.1159 27.811 42.5949C27.7333 43.1777 27.646 43.7737 27.5491 44.3827C27.4469 45.0198 27.3343 45.6737 27.2072 46.3472L14.9798 46.315C14.9615 45.8772 14.9877 45.0885 15.0217 44.0263C15.0361 43.6053 15.0505 43.131 15.065 42.623C15.0741 42.2539 15.0833 41.861 15.0911 41.4527C15.099 40.998 15.1069 40.5195 15.1095 40.0185C15.1095 39.6303 15.1095 39.229 15.1095 38.8145C15.1095 38.336 15.1029 37.8421 15.0925 37.3355C15.0925 36.9594 15.0767 36.5777 15.065 36.189C15.0217 34.8068 14.9445 33.3432 14.8161 31.8291C14.6389 29.6726 14.3526 27.5281 13.9583 25.405C13.9583 25.405 14.4612 24.7482 18.4112 24.469C19.9724 24.3581 22.2356 24.3441 23.6108 24.483C24.797 24.615 25.9718 24.8453 27.1247 25.172C27.1247 25.172 28.5549 29.1306 28.3113 36.6451Z" fill="#F4F5F7"/>
<path opacity="0.2" d="M16.3393 31.2282C16.3393 31.2282 16.2306 34.3547 15.065 36.1915C15.0218 34.8093 14.9445 33.3457 14.8162 31.8316C15.2942 31.4401 15.8142 31.2086 16.3393 31.2282Z" fill="#011C3A"/>
<g opacity="0.6">
<path d="M28.3113 36.6448C28.2943 37.1458 28.2707 37.6608 28.2393 38.1884L26.9557 39.8078L25.1117 37.484L23.2702 39.812L21.4275 37.4882L19.5847 39.812L17.742 37.4882L15.8966 39.812L15.1108 38.8143C15.1108 38.3358 15.1042 37.8418 15.0938 37.3352L15.9018 38.354L17.7433 36.0288L19.586 38.354L21.4288 36.0288L23.2715 38.354L25.113 36.0288L26.9571 38.354L28.3113 36.6448Z" fill="#F4F5F7"/>
</g>
<g opacity="0.6">
<path d="M28.145 39.5175C28.0992 40.0564 28.0468 40.6106 27.9813 41.179L26.9558 42.4756L25.1117 40.1504L23.2703 42.4756L21.4275 40.1504L19.5848 42.4756L17.742 40.1504L15.8966 42.4756L15.0859 41.4526C15.0938 40.9979 15.1017 40.5194 15.1043 40.0185L15.8966 41.0162L17.7381 38.6924L19.5808 41.0162L21.4236 38.6924L23.2664 41.0162L25.1078 38.6924L26.9519 41.0162L28.145 39.5175Z" fill="#F4F5F7"/>
</g>
<g opacity="0.6">
<path d="M27.815 42.595C27.7373 43.1778 27.65 43.7737 27.5531 44.3827L26.9598 45.1321L25.1157 42.8097L23.2704 45.1363L21.4276 42.8139L19.5849 45.1363L17.7421 42.8139L15.8967 45.1363L15.0166 44.0263C15.031 43.6053 15.0454 43.131 15.0598 42.623L15.8967 43.6797L17.7382 41.3545L19.5809 43.6797L21.4237 41.3545L23.2664 43.6797L25.1079 41.3545L26.9519 43.6797L27.815 42.595Z" fill="#F4F5F7"/>
</g>
<path d="M18.2542 18.689C18.7361 20.4416 19.3478 23.6776 18.2869 24.9854C19.9463 25.5467 21.1407 25.9256 22.6089 27.0903C22.994 25.9466 23.4642 24.4634 23.4642 24.4634C21.5651 24.1743 21.4839 22.6939 21.6869 21.2752L18.2542 18.689Z" fill="#C9916C"/>
<path opacity="0.2" d="M19.6476 19.7456L21.679 21.2766C21.6263 21.6065 21.6017 21.941 21.6056 22.2757C20.8866 22.2378 19.8388 21.5011 19.6934 20.7125C19.6235 20.3958 19.608 20.0682 19.6476 19.7456Z" fill="#011C3A"/>
<path d="M16.8594 24.602L18.0316 23.4219L21.1722 24.5768L22.5448 26.8374L23.0569 24.5459L23.7668 23.8597L25.0097 24.675L24.8171 26.1274L23.9187 25.6559L22.8329 27.5601L20.4061 26.0333L19.7289 26.7294L16.8594 24.602Z" fill="#022D5E"/>
<path opacity="0.2" d="M22.8328 27.5601L23.4667 25.1802L24.817 26.1274L23.9185 25.6559L22.8328 27.5601Z" fill="#011C3A"/>
<path opacity="0.2" d="M22.8328 27.5602L20.694 25.3149L19.7288 26.7294L20.4059 26.0334L22.8328 27.5602Z" fill="#011C3A"/>
<path d="M17.6596 29.1934C18.4454 30.2079 19.5193 31.6168 20.3156 32.585C21.2652 33.7161 22.2095 34.9173 23.3581 35.7845C23.4026 35.814 23.3515 35.7845 23.3293 35.7845C23.3171 35.7797 23.3043 35.7768 23.2913 35.7761C23.2808 35.7761 23.2913 35.7761 23.2913 35.7831C23.8073 35.9052 24.3875 35.7761 24.9389 35.6961C26.6193 35.393 28.2721 34.8836 29.9551 34.4191L30.6165 36.0427C29.9786 36.4637 29.3434 36.8215 28.6833 37.1653C27.0292 37.996 24.0169 39.4961 22.1911 38.7608C21.5166 38.4253 20.8878 37.9928 20.3222 37.4754C19.4525 36.7001 18.63 35.8658 17.8599 34.9776C17.1042 34.1174 16.3891 33.2376 15.7002 32.3198C15.4684 32.0139 15.251 31.7136 15.0205 31.3853L17.6596 29.1934Z" fill="#C9916C"/>
<path d="M12.8764 27.0271C11.5366 31.5764 17.556 36.0304 17.556 36.0304L20.7726 32.1125C20.7726 32.1125 19.3555 29.306 17.7498 26.811C16.0695 24.2009 13.5824 24.6331 12.8764 27.0271Z" fill="#022D5E"/>
<path d="M29.6917 34.6298L31.9548 32.1123L33.6653 34.5568C33.6653 34.5568 32.315 36.5607 30.4775 36.0386L29.6917 34.6298Z" fill="#C9916C"/>
<path d="M34.1617 31.3403L35.03 33.4901L33.6653 34.5566L31.9548 32.1121L34.1617 31.3403Z" fill="#C9916C"/>
<path d="M22.622 12.179C23.7864 12.6688 24.5866 16.0703 23.1708 16.8898C21.755 17.7093 20.4152 11.2529 22.622 12.179Z" fill="#011C3A"/>
<path d="M17.5992 16.1825C18.2017 18.5681 18.4427 19.984 19.8257 21.0097C21.9003 22.5533 24.4752 20.9396 24.5498 18.4404C24.6179 16.1951 23.6199 12.6744 21.2232 12.1257C18.8631 11.5826 16.9994 13.8026 17.5992 16.1825Z" fill="#C9916C"/>
<path d="M19.5874 13.1152L19.3411 11.0215C18.8593 11.3025 18.307 11.4135 17.7629 11.3386C15.4055 10.905 13.7225 12.6156 14.8816 13.9403C13.8155 14.5198 14.5123 16.0887 15.3033 17.0653C16.4022 18.4251 17.5298 19.0299 18.2371 18.3283C18.8919 17.934 18.8552 15.4418 18.5815 14.5395C18.1676 13.1727 19.5874 13.1152 19.5874 13.1152Z" fill="#011C3A"/>
<path d="M17.2064 18.7226C17.5919 19.1731 18.1112 19.4667 18.6759 19.5533C19.3897 19.6446 19.5154 18.9317 19.1238 18.2722C18.7702 17.6786 17.9726 16.9166 17.3492 17.1299C16.7257 17.3432 16.7179 18.1571 17.2064 18.7226Z" fill="#C9916C"/>
<path d="M21.0111 16.2274C21.0491 16.4224 21.1775 16.5642 21.298 16.5417C21.4185 16.5193 21.4853 16.3424 21.4473 16.1474C21.4093 15.9523 21.2809 15.8106 21.1604 15.8317C21.04 15.8527 20.9745 16.0309 21.0111 16.2274Z" fill="#011C3A"/>
<path d="M23.0909 15.8459C23.1288 16.0424 23.2559 16.1827 23.3764 16.1602C23.4969 16.1378 23.5637 15.9624 23.5257 15.7659C23.4877 15.5695 23.3594 15.4291 23.2402 15.4516C23.121 15.474 23.0529 15.6522 23.0909 15.8459Z" fill="#011C3A"/>
<path d="M22.5957 16.0645C22.5957 16.0645 23.2322 17.1169 23.798 17.5786C23.5361 17.9617 22.9533 17.9154 22.9533 17.9154L22.5957 16.0645Z" fill="#945125"/>
<path d="M21.6777 15.2003C21.6951 15.2076 21.7105 15.2197 21.7222 15.2354C21.7311 15.2476 21.7376 15.2616 21.7414 15.2766C21.7452 15.2916 21.7463 15.3072 21.7444 15.3226C21.7426 15.3379 21.738 15.3528 21.7308 15.3662C21.7236 15.3797 21.714 15.3915 21.7025 15.401C21.5689 15.5179 21.4104 15.5976 21.2411 15.6331C21.0718 15.6686 20.897 15.6588 20.7321 15.6045C20.7184 15.5994 20.7058 15.5915 20.6951 15.5812C20.6843 15.5709 20.6756 15.5583 20.6695 15.5443C20.6634 15.5303 20.66 15.5151 20.6595 15.4996C20.659 15.4842 20.6614 15.4687 20.6666 15.4543C20.6766 15.4252 20.697 15.4015 20.7232 15.3884C20.7494 15.3752 20.7794 15.3737 20.8067 15.3841C20.9367 15.4247 21.0741 15.4305 21.2067 15.4012C21.3393 15.3718 21.4632 15.3082 21.5676 15.2157C21.5829 15.2025 21.6012 15.1941 21.6206 15.1914C21.64 15.1887 21.6598 15.1918 21.6777 15.2003Z" fill="#011C3A"/>
<path d="M23.6906 14.7777C23.6734 14.7827 23.6552 14.783 23.6378 14.7786C23.6205 14.7742 23.6044 14.7652 23.5911 14.7525C23.4885 14.65 23.3655 14.5739 23.2314 14.5299C23.0973 14.4859 22.9556 14.4752 22.817 14.4985C22.8026 14.5042 22.7872 14.5065 22.7718 14.5054C22.7564 14.5043 22.7414 14.4997 22.7278 14.492C22.7142 14.4843 22.7022 14.4736 22.6927 14.4607C22.6832 14.4477 22.6763 14.4327 22.6726 14.4167C22.6688 14.4007 22.6682 14.3841 22.6708 14.3678C22.6734 14.3515 22.6792 14.336 22.6877 14.3223C22.6963 14.3086 22.7074 14.2969 22.7205 14.2881C22.7335 14.2793 22.7481 14.2735 22.7633 14.2712C22.9362 14.2378 23.1139 14.248 23.2823 14.3011C23.4508 14.3542 23.6054 14.4487 23.7338 14.5771C23.7556 14.5976 23.7689 14.6265 23.7709 14.6576C23.7728 14.6886 23.7633 14.7192 23.7443 14.7427C23.7298 14.7595 23.7112 14.7716 23.6906 14.7777Z" fill="#011C3A"/>
<path d="M17.6384 11.6121C17.6384 11.6121 19.2651 8.24427 22.2931 8.93327C22.2931 8.93327 21.7142 9.0736 21.468 9.30794C21.468 9.30794 24.111 9.06097 24.9348 11.0508L24.4292 10.7323C24.4292 10.7323 25.1024 12.3811 24.314 13.4672L24.166 12.9213C24.166 12.9213 23.0842 14.3597 21.4693 13.9513L22.0272 13.6482C22.0272 13.6482 19.2454 13.557 18.5565 12.7965C17.8676 12.0359 17.6384 11.6121 17.6384 11.6121Z" fill="#011C3A"/>
<path d="M23.2309 18.9442C23.2187 18.9442 23.2066 18.9416 23.1954 18.9365C23.1841 18.9315 23.174 18.9241 23.1654 18.9147C22.7555 18.439 22.0365 18.6214 22.0299 18.6228C22.0083 18.6259 21.9863 18.6203 21.9682 18.6072C21.9502 18.594 21.9372 18.5742 21.9319 18.5515C21.9266 18.5289 21.9292 18.5049 21.9393 18.4841C21.9494 18.4634 21.9663 18.4473 21.9867 18.439C22.0207 18.4306 22.8131 18.2285 23.2964 18.7856C23.3126 18.8034 23.3217 18.8274 23.3217 18.8523C23.3217 18.8772 23.3126 18.9011 23.2964 18.9189C23.2876 18.9276 23.2773 18.9342 23.266 18.9386C23.2548 18.9429 23.2428 18.9448 23.2309 18.9442Z" fill="#011C3A"/>
</svg>
