<svg width="44" height="44" viewBox="0 0 44 44" fill="none" xmlns="http://www.w3.org/2000/svg">
<path d="M12 18V42M28 9.76L26 18H37.66C38.281 18 38.8934 18.1446 39.4489 18.4223C40.0043 18.7 40.4874 19.1032 40.86 19.6C41.2326 20.0968 41.4844 20.6735 41.5955 21.2845C41.7066 21.8954 41.6739 22.5239 41.5 23.12L36.84 39.12C36.5977 39.9509 36.0924 40.6807 35.4 41.2C34.7076 41.7193 33.8655 42 33 42H6C4.93913 42 3.92172 41.5786 3.17157 40.8284C2.42143 40.0783 2 39.0609 2 38V22C2 20.9391 2.42143 19.9217 3.17157 19.1716C3.92172 18.4214 4.93913 18 6 18H11.52C12.2642 17.9996 12.9935 17.7916 13.6259 17.3994C14.2583 17.0073 14.7688 16.4464 15.1 15.78L22 2C22.9432 2.01168 23.8715 2.23634 24.7156 2.65719C25.5597 3.07805 26.2979 3.68421 26.8748 4.43041C27.4518 5.1766 27.8526 6.04352 28.0475 6.9664C28.2423 7.88929 28.2261 8.84427 28 9.76Z" stroke="#034EA2" stroke-width="4" stroke-linecap="round" stroke-linejoin="round"/>
</svg>
