<svg width="48" height="49" viewBox="0 0 48 49" fill="none" xmlns="http://www.w3.org/2000/svg">
<g filter="url(#filter0_d_1655_1184)">
<path d="M52 44.7539H48V44.789H52V44.7539Z" fill="#BDCBD9"/>
<path d="M37.6667 45.1353H36.6172V45.1703H37.6667V45.1353Z" fill="#BDCBD9"/>
<path d="M47.8792 43.4531H45.5615V43.4882H47.8792V43.4531Z" fill="#BDCBD9"/>
<path d="M9.21619 43.6885H4V43.7235H9.21619V43.6885Z" fill="#BDCBD9"/>
<path d="M11.0567 43.6885H10.2922V43.7235H11.0567V43.6885Z" fill="#BDCBD9"/>
<path d="M24.8562 44.2803H13.5422V44.3153H24.8562V44.2803Z" fill="#BDCBD9"/>
<path d="M7.50358 17.3457H7.65546C7.70562 17.3457 7.75373 17.3614 7.7892 17.3893C7.82467 17.4173 7.84459 17.4552 7.84459 17.4947V40.0586H7.31445V17.4947C7.31445 17.4552 7.33438 17.4173 7.36985 17.3893C7.40532 17.3614 7.45342 17.3457 7.50358 17.3457Z" fill="#BDCBD9"/>
<path d="M8.75978 18.5358C10.1355 17.8743 10.8146 16.1157 10.2767 14.6079C9.73867 13.1001 8.18728 12.4141 6.81155 13.0756C5.43581 13.7372 4.75668 15.4957 5.29467 17.0035C5.83266 18.5113 7.38405 19.1973 8.75978 18.5358Z" fill="#BDCBD9"/>
<path d="M8.85518 16.2242C8.85542 16.2847 8.84015 16.344 8.81131 16.3945C8.78248 16.445 8.74137 16.4844 8.69321 16.5077C8.64505 16.531 8.59201 16.5371 8.54083 16.5254C8.48965 16.5137 8.44262 16.4845 8.40573 16.4417C8.36883 16.3989 8.34373 16.3443 8.33361 16.2848C8.32349 16.2254 8.32881 16.1639 8.34889 16.108C8.36896 16.052 8.4029 16.0043 8.44638 15.9708C8.48986 15.9374 8.54093 15.9196 8.5931 15.9199C8.66251 15.9203 8.72899 15.9525 8.77807 16.0094C8.82715 16.0664 8.85486 16.1436 8.85518 16.2242Z" fill="#BDCBD9"/>
<path d="M6.72212 16.2242C6.72236 16.2847 6.70713 16.3439 6.67834 16.3943C6.64956 16.4448 6.60852 16.4842 6.56043 16.5075C6.51235 16.5309 6.45937 16.5371 6.40822 16.5255C6.35707 16.5139 6.31004 16.4849 6.2731 16.4422C6.23616 16.3995 6.21096 16.345 6.2007 16.2857C6.19045 16.2264 6.19559 16.1649 6.21548 16.1089C6.23537 16.053 6.26912 16.0052 6.31244 15.9715C6.35576 15.9379 6.40672 15.9199 6.45884 15.9199C6.52836 15.9203 6.59496 15.9524 6.64424 16.0094C6.69351 16.0663 6.72149 16.1435 6.72212 16.2242Z" fill="#BDCBD9"/>
<path d="M9.09309 14.3135H5.8141C5.76947 14.3135 5.72664 14.334 5.69497 14.3705C5.66329 14.407 5.64534 14.4566 5.64502 14.5084V16.2245H6.03512C6.03512 16.0943 6.07965 15.9695 6.15892 15.8775C6.2382 15.7855 6.34571 15.7338 6.45782 15.7338C6.56993 15.7338 6.67745 15.7855 6.75672 15.8775C6.83599 15.9695 6.88053 16.0943 6.88053 16.2245H8.17159C8.17159 16.0943 8.21612 15.9695 8.2954 15.8775C8.37467 15.7855 8.48219 15.7338 8.5943 15.7338C8.7064 15.7338 8.81392 15.7855 8.89319 15.8775C8.97247 15.9695 9.017 16.0943 9.017 16.2245H9.44575V14.7173C9.44559 14.6638 9.43632 14.611 9.41849 14.5617C9.40065 14.5124 9.37459 14.4677 9.34181 14.4302C9.30903 14.3927 9.27018 14.363 9.22749 14.343C9.1848 14.323 9.13913 14.3129 9.09309 14.3135Z" fill="#BDCBD9"/>
<path d="M6.2391 14.707H5.83813V15.6029H6.2391V14.707Z" fill="#BDCBD9"/>
<path d="M6.85507 14.707H6.4541V15.1725H6.85507V14.707Z" fill="#BDCBD9"/>
<path d="M7.47226 14.707H7.07129V15.1725H7.47226V14.707Z" fill="#BDCBD9"/>
<path d="M8.08822 14.707H7.68726V15.1725H8.08822V14.707Z" fill="#BDCBD9"/>
<path d="M9.44076 14.707H9.03979V15.1725H9.44076V14.707Z" fill="#BDCBD9"/>
<path d="M8.70541 14.707H8.30444V15.6029H8.70541V14.707Z" fill="#BDCBD9"/>
<path d="M33.0942 25.5659H29.4299V40.1666H33.0942V25.5659Z" fill="#BDCBD9"/>
<path d="M37.4203 26.0215H32.8828V40.1679H37.4203V26.0215Z" fill="#BDCBD9"/>
<path d="M35.4661 26.7759H34.8369V27.5063H35.4661V26.7759Z" fill="#F4F5F7"/>
<path d="M34.1124 28.105H33.4832V28.8354H34.1124V28.105Z" fill="#F4F5F7"/>
<path d="M35.4661 29.4341H34.8369V30.1645H35.4661V29.4341Z" fill="#F4F5F7"/>
<path d="M36.8201 29.4341H36.1909V30.1645H36.8201V29.4341Z" fill="#F4F5F7"/>
<path d="M34.1124 30.7632H33.4832V31.4936H34.1124V30.7632Z" fill="#F4F5F7"/>
<path d="M36.8201 30.7632H36.1909V31.4936H36.8201V30.7632Z" fill="#F4F5F7"/>
<path d="M35.4661 32.0923H34.8369V32.8227H35.4661V32.0923Z" fill="#F4F5F7"/>
<path d="M35.4661 34.7505H34.8369V35.4809H35.4661V34.7505Z" fill="#F4F5F7"/>
<path d="M36.8201 34.7505H36.1909V35.4809H36.8201V34.7505Z" fill="#F4F5F7"/>
<path d="M34.1124 36.0796H33.4832V36.81H34.1124V36.0796Z" fill="#F4F5F7"/>
<path d="M36.8201 36.0796H36.1909V36.81H36.8201V36.0796Z" fill="#F4F5F7"/>
<path d="M30.0302 40.1668H25.0266V29.9376L30.0302 27.7393V40.1668Z" fill="#BDCBD9"/>
<path d="M27.8973 29.8618H27.1594V30.7185H27.8973V29.8618Z" fill="#F4F5F7"/>
<path d="M29.4855 29.8618H28.7476V30.7185H29.4855V29.8618Z" fill="#F4F5F7"/>
<path d="M26.3104 31.4209H25.5725V32.2775H26.3104V31.4209Z" fill="#F4F5F7"/>
<path d="M27.8973 32.98H27.1594V33.8366H27.8973V32.98Z" fill="#F4F5F7"/>
<path d="M29.4855 32.98H28.7476V33.8366H29.4855V32.98Z" fill="#F4F5F7"/>
<path d="M26.3104 34.5376H25.5725V35.3942H26.3104V34.5376Z" fill="#F4F5F7"/>
<path d="M27.1605 37.3022H27.8984V36.4456H27.1605V37.3022Z" fill="#F4F5F7"/>
<path d="M25.5712 37.3022H26.3091V36.4456H25.5712V37.3022Z" fill="#F4F5F7"/>
<path d="M28.7477 38.8599H29.4856V38.0032H28.7477V38.8599Z" fill="#F4F5F7"/>
<path d="M42.9651 23.5779V20.7402H42.3793V17.5716H41.8866V16.1401H39.9083V17.5716H39.4156V20.7402H38.8298V23.5779H38.2368V40.1667H43.5581V23.5779H42.9651Z" fill="#BDCBD9"/>
<path d="M41.267 24.4624H40.5291V25.319H41.267V24.4624Z" fill="#F4F5F7"/>
<path d="M42.8539 24.4624H42.116V25.319H42.8539V24.4624Z" fill="#F4F5F7"/>
<path d="M39.6788 27.5806H38.9409V28.4372H39.6788V27.5806Z" fill="#F4F5F7"/>
<path d="M42.8539 27.5806H42.116V28.4372H42.8539V27.5806Z" fill="#F4F5F7"/>
<path d="M41.267 29.1382H40.5291V29.9948H41.267V29.1382Z" fill="#F4F5F7"/>
<path d="M39.6788 30.6973H38.9409V31.5539H39.6788V30.6973Z" fill="#F4F5F7"/>
<path d="M41.267 30.6973H40.5291V31.5539H41.267V30.6973Z" fill="#F4F5F7"/>
<path d="M42.8539 32.2563H42.116V33.113H42.8539V32.2563Z" fill="#F4F5F7"/>
<path d="M39.6788 33.8154H38.9409V34.6721H39.6788V33.8154Z" fill="#F4F5F7"/>
<path d="M41.267 35.3745H40.5291V36.2312H41.267V35.3745Z" fill="#F4F5F7"/>
<path d="M42.8539 35.3745H42.116V36.2312H42.8539V35.3745Z" fill="#F4F5F7"/>
<path d="M48.3298 40.1668H44.3745V24.8931L48.3298 27.0788V40.1668Z" fill="#BDCBD9"/>
<path d="M45.8019 27.2285H45.064V28.0852H45.8019V27.2285Z" fill="#F4F5F7"/>
<path d="M47.3888 28.7876H46.6509V29.6442H47.3888V28.7876Z" fill="#F4F5F7"/>
<path d="M45.8019 30.3467H45.064V31.2033H45.8019V30.3467Z" fill="#F4F5F7"/>
<path d="M47.3888 31.9058H46.6509V32.7624H47.3888V31.9058Z" fill="#F4F5F7"/>
<path d="M47.3888 33.4648H46.6509V34.3215H47.3888V33.4648Z" fill="#F4F5F7"/>
<path d="M45.8019 35.0225H45.064V35.8791H45.8019V35.0225Z" fill="#F4F5F7"/>
<path d="M47.3888 38.1406H46.6509V38.9973H47.3888V38.1406Z" fill="#F4F5F7"/>
<path d="M13.1968 33.2422H8.88403V35.4279H13.1968V33.2422Z" fill="#BDCBD9"/>
<path d="M8.53369 33.9854H8.88393V34.6864H8.53369C8.46707 34.6864 8.40317 34.6556 8.35606 34.601C8.30895 34.5463 8.28248 34.4721 8.28248 34.3947V34.2798C8.28216 34.2412 8.28843 34.203 8.30091 34.1673C8.31339 34.1316 8.33184 34.0991 8.3552 34.0718C8.37856 34.0444 8.40636 34.0226 8.437 34.0078C8.46763 33.993 8.5005 33.9853 8.53369 33.9854Z" fill="#BDCBD9"/>
<path d="M13.5459 34.6836H13.1957V33.9826H13.5459C13.6125 33.9826 13.6764 34.0133 13.7235 34.068C13.7706 34.1227 13.7971 34.1969 13.7971 34.2742V34.3892C13.7974 34.4277 13.7912 34.4659 13.7787 34.5016C13.7662 34.5373 13.7477 34.5698 13.7244 34.5972C13.701 34.6246 13.6732 34.6463 13.6426 34.6611C13.612 34.676 13.5791 34.6836 13.5459 34.6836Z" fill="#BDCBD9"/>
<path d="M9.18349 32.939H8.58325V35.729H9.18349V32.939Z" fill="#BDCBD9"/>
<path d="M13.4965 32.939H12.8962V35.729H13.4965V32.939Z" fill="#BDCBD9"/>
<path d="M12.1992 39.4096H9.88159V31.8597C9.88159 31.683 9.91159 31.508 9.96987 31.3448C10.0282 31.1816 10.1136 31.0333 10.2213 30.9085C10.3289 30.7836 10.4568 30.6846 10.5974 30.6171C10.7381 30.5496 10.8888 30.515 11.041 30.5151C11.3482 30.5151 11.6428 30.6568 11.86 30.9089C12.0772 31.1611 12.1992 31.5031 12.1992 31.8597V39.4096Z" fill="#BDCBD9"/>
<path d="M10.2066 38.9595H11.8757C12.0727 38.9595 12.2616 39.0503 12.4009 39.212C12.5402 39.3737 12.6185 39.593 12.6185 39.8217V40.3391H9.46387V39.8203C9.46419 39.5919 9.54258 39.3729 9.68184 39.2115C9.8211 39.0501 10.0098 38.9595 10.2066 38.9595Z" fill="#BDCBD9"/>
<path d="M12.0055 34.5916C12.1313 33.9729 11.8012 33.353 11.2682 33.2069C10.7353 33.0609 10.2012 33.4441 10.0754 34.0628C9.94963 34.6815 10.2797 35.3015 10.8127 35.4475C11.3457 35.5935 11.8797 35.2104 12.0055 34.5916Z" fill="#F4F5F7"/>
<path d="M11.2765 34.3301C11.2777 34.3862 11.2644 34.4413 11.2383 34.4885C11.2122 34.5357 11.1746 34.5727 11.1302 34.5948C11.0858 34.6168 11.0368 34.623 10.9893 34.6124C10.9419 34.6018 10.8983 34.575 10.8642 34.5353C10.8301 34.4957 10.8069 34.4451 10.7978 34.3901C10.7887 34.335 10.794 34.2781 10.813 34.2266C10.832 34.175 10.8639 34.1313 10.9046 34.1011C10.9452 34.0708 10.9927 34.0553 11.041 34.0567C11.1029 34.0585 11.162 34.0879 11.2058 34.1388C11.2496 34.1897 11.2749 34.2582 11.2765 34.3301Z" fill="#BDCBD9"/>
<path d="M9.46363 32.2422C9.46347 32.1963 9.47114 32.1508 9.48619 32.1084C9.50125 32.0659 9.52339 32.0274 9.55135 31.9949C9.57931 31.9625 9.61252 31.9367 9.64908 31.9193C9.68564 31.9018 9.72481 31.8929 9.76435 31.8931H12.3175C12.3569 31.8931 12.396 31.9021 12.4324 31.9197C12.4688 31.9372 12.5019 31.963 12.5297 31.9954C12.5575 32.0278 12.5796 32.0663 12.5946 32.1087C12.6095 32.151 12.6172 32.1964 12.617 32.2422C12.617 32.3345 12.5855 32.4231 12.5294 32.4885C12.4732 32.554 12.397 32.5909 12.3175 32.5913H9.76435C9.68459 32.5913 9.6081 32.5545 9.55171 32.489C9.49531 32.4236 9.46363 32.3348 9.46363 32.2422Z" fill="#BDCBD9"/>
<path d="M10.5363 36.1064C10.6161 36.1064 10.6926 36.1432 10.749 36.2087C10.8054 36.2742 10.837 36.363 10.837 36.4555V38.2572C10.8367 38.3496 10.8049 38.4382 10.7486 38.5036C10.6923 38.569 10.616 38.6059 10.5363 38.6063C10.4567 38.6059 10.3804 38.569 10.324 38.5036C10.2677 38.4382 10.2359 38.3496 10.2356 38.2572V36.4555C10.2356 36.363 10.2673 36.2742 10.3237 36.2087C10.3801 36.1432 10.4566 36.1064 10.5363 36.1064Z" fill="#BDCBD9"/>
<path d="M11.5446 36.1064C11.6243 36.1068 11.7006 36.1437 11.7569 36.2091C11.8132 36.2745 11.845 36.3631 11.8453 36.4555V38.2572C11.845 38.3496 11.8132 38.4382 11.7569 38.5036C11.7006 38.569 11.6243 38.6059 11.5446 38.6063C11.465 38.6059 11.3887 38.569 11.3323 38.5036C11.276 38.4382 11.2442 38.3496 11.2439 38.2572V36.4555C11.2439 36.363 11.2756 36.2742 11.332 36.2087C11.3884 36.1432 11.4649 36.1064 11.5446 36.1064Z" fill="#BDCBD9"/>
<path d="M8.50733 40.1987H5.59155V42.442H8.50733V40.1987Z" fill="#BDCBD9"/>
<path d="M13.3225 40.1567H8.32495V42.4981H13.3225V40.1567Z" fill="#BDCBD9"/>
<path d="M18.1992 40.1567H13.2017V42.4981H18.1992V40.1567Z" fill="#BDCBD9"/>
<path d="M23.052 40.1567H18.0544V42.4981H23.052V40.1567Z" fill="#BDCBD9"/>
<path d="M27.93 40.1567H22.9324V42.4981H27.93V40.1567Z" fill="#BDCBD9"/>
<path d="M32.7827 40.1567H27.7852V42.4981H32.7827V40.1567Z" fill="#BDCBD9"/>
<path d="M37.6607 40.1567H32.6631V42.4981H37.6607V40.1567Z" fill="#BDCBD9"/>
<path d="M42.5132 40.1567H37.5156V42.4981H42.5132V40.1567Z" fill="#BDCBD9"/>
<path d="M47.3914 40.1567H42.3938V42.4981H47.3914V40.1567Z" fill="#BDCBD9"/>
<path d="M50.1233 40.1987H47.2075V42.442H50.1233V40.1987Z" fill="#BDCBD9"/>
<path d="M27.8575 47.9999C40.1546 47.9999 50.1234 47.2893 50.1234 46.4128C50.1234 45.5363 40.1546 44.8257 27.8575 44.8257C15.5603 44.8257 5.59155 45.5363 5.59155 46.4128C5.59155 47.2893 15.5603 47.9999 27.8575 47.9999Z" fill="#DDE3E9"/>
<path d="M40.0823 6.49879H36.5062C36.3696 6.50117 36.234 6.47563 36.1085 6.42387C35.9831 6.3721 35.8705 6.2953 35.7785 6.19859C35.6864 6.10187 35.6169 5.98746 35.5746 5.86299C35.5323 5.73851 35.5182 5.60682 35.5332 5.47671L35.839 2.05015C35.8692 1.77195 36.0052 1.51412 36.2211 1.32587C36.437 1.13762 36.7176 1.03211 37.0095 1.02948H40.5798C40.7164 1.02689 40.8519 1.05224 40.9774 1.10385C41.1029 1.15545 41.2154 1.23212 41.3075 1.32873C41.3996 1.42533 41.4692 1.53966 41.5115 1.66407C41.5538 1.78847 41.5679 1.9201 41.5529 2.05015L41.2412 5.47671C41.2113 5.75316 41.077 6.00961 40.8636 6.19784C40.6502 6.38606 40.3723 6.49309 40.0823 6.49879Z" fill="#023773"/>
<path d="M40.2784 6.32493H36.7022C36.5656 6.32731 36.4301 6.30177 36.3046 6.25001C36.1791 6.19824 36.0666 6.12145 35.9745 6.02473C35.8824 5.92802 35.8129 5.81361 35.7706 5.68913C35.7283 5.56465 35.7142 5.43297 35.7292 5.30285L36.0423 1.8763C36.072 1.59963 36.2065 1.34298 36.4203 1.15489C36.6341 0.966808 36.9124 0.860335 37.2027 0.855619H40.7773C40.9138 0.853258 41.0492 0.878767 41.1746 0.930448C41.3 0.982129 41.4124 1.0588 41.5045 1.15536C41.5965 1.25191 41.6661 1.36614 41.7085 1.49045C41.7509 1.61475 41.7652 1.74629 41.7504 1.8763L41.4373 5.30285C41.408 5.57953 41.2738 5.83633 41.0603 6.02467C40.8467 6.21301 40.5686 6.31983 40.2784 6.32493Z" fill="#023773"/>
<path opacity="0.5" d="M40.2784 6.32493H36.7022C36.5656 6.32731 36.4301 6.30177 36.3046 6.25001C36.1791 6.19824 36.0666 6.12145 35.9745 6.02473C35.8824 5.92802 35.8129 5.81361 35.7706 5.68913C35.7283 5.56465 35.7142 5.43297 35.7292 5.30285L36.0423 1.8763C36.072 1.59963 36.2065 1.34298 36.4203 1.15489C36.6341 0.966808 36.9124 0.860335 37.2027 0.855619H40.7773C40.9138 0.853258 41.0492 0.878767 41.1746 0.930448C41.3 0.982129 41.4124 1.0588 41.5045 1.15536C41.5965 1.25191 41.6661 1.36614 41.7085 1.49045C41.7509 1.61475 41.7652 1.74629 41.7504 1.8763L41.4373 5.30285C41.408 5.57953 41.2738 5.83633 41.0603 6.02467C40.8467 6.21301 40.5686 6.31983 40.2784 6.32493Z" fill="#F4F5F7"/>
<path d="M38.8811 2.04443C37.7646 2.04443 36.796 2.73423 36.7184 3.58666C36.702 3.83 36.7568 4.0729 36.8764 4.2881C36.9961 4.5033 37.176 4.68231 37.3959 4.80503C37.2577 5.0505 37.0816 5.27455 36.8735 5.46959C37.1728 5.46845 37.4685 5.40682 37.7412 5.28872C37.8743 5.2315 38.0012 5.162 38.1202 5.08122C38.2777 5.11188 38.438 5.12738 38.5987 5.12749C39.7151 5.12749 40.6838 4.43769 40.7613 3.58526C40.8389 2.73283 39.999 2.04443 38.8811 2.04443Z" fill="#F4F5F7"/>
<path d="M40.8623 2.371C40.7038 2.37372 40.5465 2.34404 40.401 2.28394C40.2554 2.22383 40.1249 2.13469 40.0182 2.02245C39.9114 1.9102 39.8309 1.77744 39.7819 1.63302C39.7329 1.48859 39.7166 1.33582 39.7341 1.18488C39.7684 0.864056 39.9241 0.566372 40.1719 0.348086C40.4197 0.1298 40.7423 0.00603158 41.0788 0.000168866H41.3159C41.4742 -0.00252862 41.6313 0.027119 41.7767 0.0871388C41.9222 0.147159 42.0526 0.236174 42.1593 0.348258C42.2661 0.460343 42.3467 0.592926 42.3957 0.737182C42.4448 0.881438 42.4613 1.03406 42.444 1.18488C42.4102 1.50479 42.2557 1.80186 42.0094 2.02027C41.7631 2.23868 41.4421 2.36341 41.1066 2.371H40.8623Z" fill="#023773"/>
<path d="M41.4067 1.18196C41.4273 1.20656 41.4425 1.23486 41.4516 1.26519C41.4606 1.29553 41.4633 1.32729 41.4593 1.35861C41.4533 1.41105 41.4325 1.46094 41.3993 1.50302C41.3622 1.55184 41.3115 1.58972 41.253 1.61238C41.1815 1.64204 41.1041 1.6564 41.0262 1.65444C40.9589 1.65474 40.8919 1.64577 40.8272 1.6278C40.7692 1.61355 40.7146 1.58881 40.6663 1.5549L40.7687 1.38946C40.8046 1.41736 40.8459 1.43831 40.8901 1.45115C40.9373 1.46616 40.9867 1.47374 41.0365 1.47358C41.0839 1.47503 41.1308 1.46438 41.1725 1.44273C41.1885 1.43325 41.202 1.42034 41.2119 1.40501C41.2218 1.38968 41.2279 1.37236 41.2296 1.35441C41.2296 1.27729 41.1784 1.23944 41.0584 1.23944H40.9604L40.9735 1.09924L41.193 0.881922H40.7804L40.7965 0.709473H41.4754L41.4623 0.849675L41.2223 1.08802C41.2937 1.09654 41.3593 1.12999 41.4067 1.18196Z" fill="#F4F5F7"/>
<path d="M45.7348 11.5166H43.2591C43.1224 11.5193 42.9867 11.4939 42.8611 11.4422C42.7355 11.3905 42.6229 11.3137 42.5308 11.2169C42.4386 11.1202 42.3691 11.0057 42.3269 10.8811C42.2847 10.7565 42.2708 10.6247 42.286 10.4946L42.5026 8.12233C42.5319 7.84565 42.666 7.58885 42.8795 7.40051C43.0931 7.21217 43.3713 7.10535 43.6614 7.10025H46.1387C46.2753 7.09787 46.4109 7.12341 46.5363 7.17517C46.6618 7.22694 46.7744 7.30373 46.8664 7.40045C46.9585 7.49716 47.028 7.61157 47.0703 7.73605C47.1126 7.86053 47.1267 7.99221 47.1117 8.12233L46.8952 10.4946C46.8655 10.7714 46.7311 11.0282 46.5174 11.2165C46.3036 11.4048 46.0252 11.5116 45.7348 11.5166Z" fill="#023773"/>
<path d="M45.8943 11.376H43.4171C43.2805 11.3784 43.1449 11.3529 43.0194 11.3011C42.8939 11.2494 42.7814 11.1726 42.6893 11.0758C42.5973 10.9791 42.5278 10.8647 42.4855 10.7402C42.4432 10.6158 42.429 10.4841 42.444 10.354L42.6606 7.98174C42.6902 7.70493 42.8246 7.44812 43.0384 7.2598C43.2522 7.07149 43.5306 6.96471 43.8209 6.95966H46.2967C46.4334 6.95704 46.5691 6.98243 46.6947 7.03412C46.8203 7.0858 46.9329 7.1626 47.025 7.25937C47.1171 7.35613 47.1866 7.47064 47.2288 7.59521C47.2711 7.71979 47.285 7.85157 47.2698 7.98174L47.0532 10.354C47.0239 10.6306 46.8898 10.8874 46.6763 11.0758C46.4627 11.2641 46.1845 11.3709 45.8943 11.376Z" fill="#023773"/>
<path opacity="0.5" d="M45.8943 11.376H43.4171C43.2805 11.3784 43.1449 11.3529 43.0194 11.3011C42.8939 11.2494 42.7814 11.1726 42.6893 11.0758C42.5973 10.9791 42.5278 10.8647 42.4855 10.7402C42.4432 10.6158 42.429 10.4841 42.444 10.354L42.6606 7.98174C42.6902 7.70493 42.8246 7.44812 43.0384 7.2598C43.2522 7.07149 43.5306 6.96471 43.8209 6.95966H46.2967C46.4334 6.95704 46.5691 6.98243 46.6947 7.03412C46.8203 7.0858 46.9329 7.1626 47.025 7.25937C47.1171 7.35613 47.1866 7.47064 47.2288 7.59521C47.2711 7.71979 47.285 7.85157 47.2698 7.98174L47.0532 10.354C47.0239 10.6306 46.8898 10.8874 46.6763 11.0758C46.4627 11.2641 46.1845 11.3709 45.8943 11.376Z" fill="#F4F5F7"/>
<path d="M46.5746 8.02262C46.4326 8.02502 46.2916 7.99841 46.1611 7.94457C46.0306 7.89073 45.9136 7.81089 45.8178 7.71036C45.7221 7.60983 45.6497 7.49091 45.6056 7.36152C45.5615 7.23212 45.5467 7.09521 45.562 6.95989C45.5928 6.67193 45.7326 6.40476 45.9551 6.20892C46.1775 6.01308 46.4672 5.90216 46.7692 5.89715H46.9814C47.1235 5.89453 47.2645 5.92098 47.3951 5.97475C47.5257 6.02851 47.6428 6.10835 47.7387 6.20893C47.8345 6.30951 47.9068 6.42852 47.9509 6.55802C47.9949 6.68752 48.0096 6.82452 47.9939 6.95989C47.9632 7.24784 47.8234 7.51501 47.6009 7.71085C47.3785 7.90669 47.0888 8.01761 46.7868 8.02262H46.5746Z" fill="#023773"/>
<path d="M47.1336 6.91889C47.1604 6.94233 47.1808 6.97171 47.1931 7.00446C47.2053 7.03721 47.209 7.07233 47.2038 7.10676C47.2004 7.15731 47.1821 7.20591 47.1511 7.24696C47.1177 7.29094 47.0728 7.32575 47.0209 7.34791C46.9563 7.37455 46.8864 7.38746 46.816 7.38576C46.7557 7.38571 46.6956 7.37769 46.6375 7.36193C46.5847 7.34932 46.535 7.32693 46.4912 7.29603L46.5834 7.14742C46.6156 7.17315 46.6529 7.19224 46.6931 7.2035C46.7357 7.21643 46.7801 7.22304 46.8248 7.22313C46.8672 7.22471 46.9093 7.215 46.9463 7.19509C46.9608 7.18655 46.9729 7.17487 46.9818 7.16099C46.9907 7.1471 46.9961 7.13141 46.9975 7.11517C46.9997 7.09956 46.9974 7.08366 46.9906 7.06929C46.9839 7.05491 46.9731 7.04263 46.9594 7.03385C46.9113 7.01141 46.8577 7.00172 46.8043 7.00581H46.5819L46.6697 6.53613H47.2009L47.1862 6.69176H46.8234L46.7956 6.85019H46.8658C46.9608 6.84173 47.0557 6.8661 47.1336 6.91889Z" fill="#F4F5F7"/>
<path d="M45.6278 8.10122H44.2817C44.0576 8.10459 43.8426 8.1867 43.6775 8.33196C43.5124 8.47721 43.4087 8.67549 43.3862 8.88915L43.335 9.44997C43.3235 9.55029 43.3345 9.65181 43.3672 9.74775C43.3999 9.8437 43.4535 9.93187 43.5245 10.0064C43.5955 10.081 43.6823 10.1402 43.779 10.1801C43.8758 10.22 43.9803 10.2397 44.0856 10.2379H45.4332C45.6572 10.2342 45.8721 10.152 46.0371 10.0068C46.2021 9.86162 46.3059 9.66351 46.3287 9.44997L46.3785 8.88915C46.3902 8.78878 46.3793 8.68718 46.3467 8.59113C46.3142 8.49508 46.2605 8.40681 46.1895 8.33222C46.1184 8.25763 46.0316 8.19844 45.9347 8.1586C45.8378 8.11876 45.7332 8.0992 45.6278 8.10122ZM44.5026 9.76262L44.6124 8.5737L45.5371 9.16816L44.5026 9.76262Z" fill="#F4F5F7"/>
<path d="M30.9708 1.39401H27.5249L24.0591 43.3581H27.505C28.2912 43.3429 29.045 43.0235 29.6237 42.4603C30.2025 41.8972 30.5662 41.1293 30.6461 40.3017L33.6069 4.44762C33.6471 4.05871 33.6085 3.6652 33.4936 3.2933C33.3788 2.9214 33.1905 2.57963 32.9411 2.29074C32.6917 2.00185 32.387 1.77246 32.0473 1.61784C31.7075 1.46322 31.3406 1.38692 30.9708 1.39401Z" fill="#023773"/>
<path d="M26.8767 43.358H12.6954C12.3255 43.365 11.9584 43.2884 11.6187 43.1336C11.2789 42.9787 10.9742 42.749 10.7249 42.4598C10.4756 42.1706 10.2874 41.8286 10.1729 41.4564C10.0583 41.0843 10.0201 40.6906 10.0606 40.3016L13.0254 4.44754C13.1053 3.62012 13.4691 2.85235 14.0479 2.28942C14.6267 1.72649 15.3804 1.40741 16.1665 1.39252H30.3478C30.7176 1.38561 31.0845 1.46209 31.4242 1.61688C31.7638 1.77167 32.0684 2.00122 32.3177 2.29025C32.567 2.57927 32.7552 2.92115 32.8698 3.29312C32.9845 3.6651 33.0229 4.05863 32.9826 4.44754L30.0177 40.3016C29.9379 41.1292 29.5742 41.8971 28.9954 42.4603C28.4166 43.0234 27.6629 43.3428 26.8767 43.358Z" fill="#011C3A"/>
<path opacity="0.2" d="M11.7463 43.1828C12.0505 43.2998 12.3717 43.3591 12.6953 43.3581H26.8766C27.6628 43.3428 28.4165 43.0235 28.9953 42.4603C29.574 41.8971 29.9377 41.1292 30.0176 40.3017L32.9825 4.4476C33.0419 3.86733 32.9257 3.28207 32.6506 2.77613C32.3755 2.2702 31.9557 1.86969 31.4517 1.63232L11.7463 43.1828Z" fill="#F4F5F7"/>
<path d="M24.7177 2.58578C24.6242 2.58764 24.5347 2.62559 24.4658 2.69248C24.397 2.75936 24.3536 2.85056 24.3439 2.94891L24.2989 3.49289C24.2727 3.7589 24.1554 4.00557 23.9691 4.18637C23.7828 4.36716 23.5404 4.46959 23.2876 4.47431H22.7164C22.5975 4.47661 22.4794 4.45213 22.3701 4.40248C22.2608 4.35283 22.1627 4.27915 22.0824 4.18633C22.002 4.09352 21.9413 3.98369 21.9041 3.86414C21.8669 3.74458 21.8543 3.61803 21.8669 3.49289L21.9119 2.94891C21.9168 2.90269 21.9124 2.8559 21.8988 2.81166C21.8853 2.76742 21.8629 2.72675 21.8333 2.69237C21.8037 2.658 21.7675 2.6307 21.7271 2.61232C21.6867 2.59394 21.6431 2.58489 21.5991 2.58578H16.0684C15.5891 2.59476 15.1295 2.78913 14.7764 3.13218C14.4233 3.47523 14.2012 3.94319 14.152 4.44768L11.1872 40.3017C11.1633 40.5387 11.1873 40.7783 11.2576 41.0048C11.3278 41.2312 11.4428 41.4393 11.5948 41.6152C11.7467 41.7911 11.9323 41.9308 12.1392 42.0251C12.3461 42.1194 12.5696 42.1662 12.7948 42.1622H26.9761C27.4558 42.1529 27.9156 41.958 28.2687 41.6144C28.6218 41.2709 28.8437 40.8024 28.8926 40.2975L31.856 4.44768C31.8802 4.21012 31.8562 3.96984 31.7857 3.74285C31.7152 3.51585 31.5999 3.30734 31.4473 3.13119C31.2947 2.95504 31.1083 2.8153 30.9007 2.72125C30.6931 2.62721 30.4689 2.58103 30.2431 2.58578H24.7177Z" fill="#023773"/>
<path opacity="0.6" d="M24.7177 2.58578C24.6242 2.58764 24.5347 2.62559 24.4658 2.69248C24.397 2.75936 24.3536 2.85056 24.3439 2.94891L24.2989 3.49289C24.2727 3.7589 24.1554 4.00557 23.9691 4.18637C23.7828 4.36716 23.5404 4.46959 23.2876 4.47431H22.7164C22.5975 4.47661 22.4794 4.45213 22.3701 4.40248C22.2608 4.35283 22.1627 4.27915 22.0824 4.18633C22.002 4.09352 21.9413 3.98369 21.9041 3.86414C21.8669 3.74458 21.8543 3.61803 21.8669 3.49289L21.9119 2.94891C21.9168 2.90269 21.9124 2.8559 21.8988 2.81166C21.8853 2.76742 21.8629 2.72675 21.8333 2.69237C21.8037 2.658 21.7675 2.6307 21.7271 2.61232C21.6867 2.59394 21.6431 2.58489 21.5991 2.58578H16.0684C15.5891 2.59476 15.1295 2.78913 14.7764 3.13218C14.4233 3.47523 14.2012 3.94319 14.152 4.44768L11.1872 40.3017C11.1633 40.5387 11.1873 40.7783 11.2576 41.0048C11.3278 41.2312 11.4428 41.4393 11.5948 41.6152C11.7467 41.7911 11.9323 41.9308 12.1392 42.0251C12.3461 42.1194 12.5696 42.1662 12.7948 42.1622H26.9761C27.4558 42.1529 27.9156 41.958 28.2687 41.6144C28.6218 41.2709 28.8437 40.8024 28.8926 40.2975L31.856 4.44768C31.8802 4.21012 31.8562 3.96984 31.7857 3.74285C31.7152 3.51585 31.5999 3.30734 31.4473 3.13119C31.2947 2.95504 31.1083 2.8153 30.9007 2.72125C30.6931 2.62721 30.4689 2.58103 30.2431 2.58578H24.7177Z" fill="#F4F5F7"/>
<path opacity="0.3" d="M23.7646 3.18549C23.7477 3.37476 23.6656 3.55083 23.5338 3.68012C23.4021 3.8094 23.2299 3.88287 23.0503 3.88651C22.9656 3.88814 22.8817 3.87057 22.804 3.83498C22.7263 3.79939 22.6567 3.7466 22.6 3.68018C22.5432 3.61375 22.5006 3.53523 22.4749 3.44989C22.4492 3.36456 22.4412 3.27441 22.4512 3.18549C22.4681 2.99623 22.5503 2.82016 22.682 2.69087C22.8138 2.56158 22.9859 2.48811 23.1656 2.48448C23.2502 2.48284 23.3342 2.50041 23.4119 2.53601C23.4895 2.5716 23.5591 2.62438 23.6159 2.69081C23.6726 2.75724 23.7153 2.83576 23.7409 2.92109C23.7666 3.00642 23.7747 3.09658 23.7646 3.18549Z" fill="#011C3A"/>
<path opacity="0.7" d="M23.4399 3.18553C23.4308 3.28052 23.3891 3.36868 23.3227 3.43329C23.2562 3.4979 23.1697 3.53446 23.0794 3.53604C23.037 3.53691 22.9948 3.52819 22.9558 3.51046C22.9168 3.49273 22.8819 3.46639 22.8533 3.43321C22.8247 3.40003 22.8031 3.36077 22.79 3.31805C22.7769 3.27534 22.7725 3.23016 22.7772 3.18553C22.7863 3.09054 22.828 3.00238 22.8945 2.93777C22.9609 2.87316 23.0475 2.8366 23.1377 2.83502C23.1802 2.83414 23.2223 2.84286 23.2613 2.8606C23.3003 2.87833 23.3353 2.90467 23.3639 2.93785C23.3925 2.97103 23.4141 3.01029 23.4272 3.053C23.4403 3.09572 23.4446 3.1409 23.4399 3.18553Z" fill="#011C3A"/>
<path d="M20.2419 40.9886H19.7223C19.6546 40.9899 19.5874 40.9759 19.5252 40.9474C19.4631 40.9189 19.4074 40.8767 19.3619 40.8236C19.3165 40.7704 19.2823 40.7076 19.2617 40.6394C19.2411 40.5711 19.2346 40.499 19.2425 40.4278L19.2876 39.8768C19.3012 39.7255 19.367 39.5847 19.4723 39.4813C19.5776 39.3779 19.7152 39.3191 19.8588 39.316H20.3797C20.4474 39.3147 20.5146 39.3288 20.5768 39.3572C20.6389 39.3857 20.6946 39.4279 20.7401 39.481C20.7855 39.5342 20.8197 39.597 20.8403 39.6652C20.8609 39.7335 20.8674 39.8057 20.8595 39.8768L20.8131 40.4278C20.7997 40.5792 20.7341 40.7202 20.6287 40.8236C20.5233 40.9271 20.3856 40.9858 20.2419 40.9886ZM19.8363 39.6076C19.7646 39.6091 19.696 39.6385 19.6437 39.6903C19.5913 39.7421 19.5589 39.8125 19.5527 39.888L19.5076 40.439C19.5032 40.4744 19.5061 40.5105 19.5161 40.5446C19.5261 40.5787 19.5429 40.6102 19.5654 40.6368C19.5879 40.6634 19.6156 40.6846 19.6466 40.6989C19.6776 40.7131 19.7111 40.7201 19.7449 40.7194H20.2657C20.3372 40.7179 20.4057 40.6885 20.4578 40.6367C20.51 40.5849 20.5421 40.5144 20.548 40.439L20.5944 39.888C20.5986 39.8525 20.5955 39.8165 20.5854 39.7823C20.5752 39.7482 20.5583 39.7168 20.5357 39.6902C20.513 39.6636 20.4853 39.6425 20.4542 39.6282C20.4232 39.614 20.3897 39.6069 20.3558 39.6076H19.8363Z" fill="#023773"/>
<path d="M13.8882 40.8483C13.8712 40.8486 13.8544 40.8451 13.8388 40.838C13.8233 40.8309 13.8093 40.8203 13.7979 40.8071C13.7865 40.7938 13.7779 40.7781 13.7727 40.761C13.7674 40.744 13.7657 40.7259 13.7676 40.7081L13.859 39.6075C13.8623 39.5696 13.8787 39.5342 13.9052 39.5083C13.9316 39.4825 13.9662 39.4678 14.0022 39.4673C14.0192 39.467 14.036 39.4705 14.0517 39.4776C14.0673 39.4847 14.0813 39.4952 14.0928 39.5085C14.1044 39.5217 14.1131 39.5374 14.1185 39.5545C14.1239 39.5715 14.1258 39.5896 14.1241 39.6075L14.0327 40.7081C14.0288 40.746 14.012 40.7812 13.9854 40.807C13.9588 40.8328 13.9243 40.8475 13.8882 40.8483Z" fill="#023773"/>
<path d="M14.5415 40.8483C14.5246 40.8486 14.5077 40.8451 14.4922 40.838C14.4766 40.8309 14.4626 40.8203 14.4512 40.8071C14.4398 40.7938 14.4312 40.7781 14.426 40.761C14.4207 40.744 14.419 40.7259 14.4209 40.7081L14.511 39.6075C14.5149 39.5696 14.5317 39.5344 14.5583 39.5086C14.5849 39.4828 14.6194 39.4681 14.6555 39.4673C14.6725 39.467 14.6893 39.4705 14.7048 39.4776C14.7204 39.4847 14.7344 39.4953 14.7458 39.5085C14.7572 39.5218 14.7658 39.5375 14.771 39.5546C14.7763 39.5716 14.778 39.5897 14.7761 39.6075L14.686 40.7081C14.6821 40.7461 14.6653 40.7812 14.6387 40.807C14.6122 40.8328 14.5776 40.8475 14.5415 40.8483Z" fill="#023773"/>
<path d="M15.1936 40.8483C15.1767 40.8486 15.1598 40.8451 15.1443 40.838C15.1287 40.8309 15.1147 40.8203 15.1033 40.8071C15.0919 40.7938 15.0833 40.7781 15.0781 40.761C15.0728 40.744 15.0711 40.7259 15.073 40.7081L15.1645 39.6075C15.168 39.5694 15.1847 39.5341 15.2114 39.5082C15.238 39.4824 15.2728 39.4678 15.3089 39.4673C15.3259 39.467 15.3427 39.4705 15.3583 39.4776C15.3738 39.4847 15.3878 39.4953 15.3992 39.5085C15.4106 39.5218 15.4192 39.5375 15.4245 39.5546C15.4297 39.5716 15.4314 39.5897 15.4295 39.6075L15.3381 40.7081C15.3345 40.7462 15.3178 40.7815 15.2911 40.8074C15.2645 40.8332 15.2298 40.8478 15.1936 40.8483Z" fill="#023773"/>
<path d="M26.0018 40.8904L25.3696 40.1571L26.1224 39.4253C26.1348 39.4121 26.1494 39.4017 26.1656 39.3946C26.1817 39.3875 26.199 39.3838 26.2165 39.3838C26.234 39.3838 26.2513 39.3875 26.2675 39.3946C26.2837 39.4017 26.2983 39.4121 26.3106 39.4253C26.3218 39.4394 26.3302 39.4558 26.3354 39.4734C26.3405 39.491 26.3424 39.5095 26.3408 39.5279C26.3392 39.5462 26.3342 39.5641 26.326 39.5804C26.3179 39.5967 26.3068 39.6112 26.2934 39.6229L25.7447 40.1571L26.2059 40.6927C26.2171 40.7069 26.2255 40.7232 26.2307 40.7408C26.2358 40.7584 26.2377 40.777 26.2361 40.7953C26.2345 40.8137 26.2295 40.8315 26.2213 40.8478C26.2132 40.8642 26.2021 40.8786 26.1887 40.8904C26.1639 40.9165 26.1303 40.9312 26.0953 40.9312C26.0602 40.9312 26.0267 40.9165 26.0018 40.8904Z" fill="#023773"/>
<path d="M14.9592 22.263C14.7838 22.2665 14.6097 22.2304 14.4485 22.1571C14.2873 22.0838 14.1428 21.975 14.0245 21.838C13.9062 21.7009 13.8169 21.5388 13.7626 21.3623C13.7083 21.1859 13.6901 20.9992 13.7094 20.8147C13.7475 20.4227 13.9199 20.059 14.1941 19.7922C14.4683 19.5254 14.8253 19.3739 15.1977 19.3664H28.3426C28.5179 19.3631 28.6918 19.3994 28.8528 19.4727C29.0138 19.5461 29.1582 19.6549 29.2763 19.792C29.3945 19.929 29.4836 20.0911 29.5379 20.2675C29.5922 20.4438 29.6103 20.6304 29.591 20.8147C29.5535 21.207 29.3812 21.571 29.1069 21.8379C28.8326 22.1049 28.4753 22.2561 28.1027 22.263H14.9592Z" fill="#F4F5F7"/>
<path d="M33.1018 5.60263C33.1095 5.52314 33.1446 5.44943 33.2003 5.39543C33.2559 5.34143 33.3284 5.3109 33.4039 5.30961C33.4394 5.30897 33.4745 5.31634 33.507 5.33121C33.5395 5.34608 33.5687 5.36812 33.5925 5.39585C33.6163 5.42358 33.6343 5.45637 33.6452 5.49202C33.6561 5.52768 33.6597 5.56539 33.6558 5.60263L33.4238 8.40669C33.4161 8.48594 33.3812 8.55947 33.3258 8.61343C33.2704 8.6674 33.1983 8.69808 33.123 8.69971C33.0875 8.70032 33.0523 8.69295 33.0197 8.67809C32.9871 8.66323 32.9579 8.64123 32.934 8.61352C32.9101 8.58582 32.892 8.55306 32.8809 8.5174C32.8698 8.48174 32.8661 8.44401 32.8698 8.40669L33.1018 5.60263Z" fill="#023773"/>
<path opacity="0.3" d="M33.1018 5.60263C33.1095 5.52314 33.1446 5.44943 33.2003 5.39543C33.2559 5.34143 33.3284 5.3109 33.4039 5.30961C33.4394 5.30897 33.4745 5.31634 33.507 5.33121C33.5395 5.34608 33.5687 5.36812 33.5925 5.39585C33.6163 5.42358 33.6343 5.45637 33.6452 5.49202C33.6561 5.52768 33.6597 5.56539 33.6558 5.60263L33.4238 8.40669C33.4161 8.48594 33.3812 8.55947 33.3258 8.61343C33.2704 8.6674 33.1983 8.69808 33.123 8.69971C33.0875 8.70032 33.0523 8.69295 33.0197 8.67809C32.9871 8.66323 32.9579 8.64123 32.934 8.61352C32.9101 8.58582 32.892 8.55306 32.8809 8.5174C32.8698 8.48174 32.8661 8.44401 32.8698 8.40669L33.1018 5.60263Z" fill="#F4F5F7"/>
<path d="M15.2388 4.17012H15.6364L15.6708 3.74951H15.2732L15.2388 4.17012Z" fill="#023773"/>
<path d="M16.0684 3.74922L16.0339 4.16983H16.4315L16.466 3.74922L16.5005 3.32861H16.1029L16.0684 3.74922Z" fill="#023773"/>
<path d="M16.9338 2.9082L16.898 3.32881L16.8636 3.74942L16.8291 4.17003H17.2267L17.2612 3.74942L17.2956 3.32881L17.3314 2.9082H16.9338Z" fill="#023773"/>
<path d="M29.5803 3.24463L29.5604 3.47596H29.4147L29.3762 3.93863H29.522L29.5035 4.16997H30.8156L30.8924 3.24463H29.5803ZM30.1105 3.94564H29.6731L29.7115 3.48297H30.1489L30.1105 3.94564Z" fill="#023773"/>
<path d="M29.6665 5.569H16.1572C15.8946 5.57405 15.6428 5.68068 15.4494 5.86873C15.256 6.05678 15.1344 6.31325 15.1076 6.58967L14.376 15.4225C14.3626 15.5525 14.3755 15.684 14.4139 15.8083C14.4523 15.9326 14.5153 16.0468 14.5987 16.1434C14.6821 16.2399 14.7839 16.3166 14.8975 16.3683C15.0111 16.42 15.1337 16.4455 15.2573 16.4431H28.7666C29.0293 16.4381 29.2811 16.3314 29.4745 16.1434C29.6679 15.9553 29.7895 15.6989 29.8163 15.4225L30.5479 6.58967C30.5613 6.45967 30.5483 6.32813 30.5099 6.20383C30.4715 6.07952 30.4086 5.96529 30.3252 5.86873C30.2418 5.77218 30.1399 5.69551 30.0264 5.64383C29.9128 5.59215 29.7902 5.56664 29.6665 5.569Z" fill="#F4F5F7"/>
<path d="M17.1712 7.29785C17.1772 7.28115 17.1812 7.26373 17.1831 7.24598L17.2322 6.65713C17.2344 6.63032 17.2303 6.60334 17.2203 6.57861L16.759 6.93473L17.1712 7.29785Z" fill="#023773"/>
<path d="M16.4501 6.98794C16.4666 7.00091 16.4866 7.00792 16.5071 7.00792C16.5276 7.00792 16.5476 7.00091 16.5641 6.98794L17.1764 6.51546C17.1486 6.49173 17.114 6.47886 17.0783 6.47901H16.018C15.9804 6.47948 15.9439 6.49221 15.9133 6.51546L16.4501 6.98794Z" fill="#023773"/>
<path d="M15.8618 6.57861C15.8481 6.60255 15.8395 6.62934 15.8366 6.65713L15.7889 7.24598C15.7862 7.26316 15.7862 7.28068 15.7889 7.29785L16.2607 6.93473L15.8618 6.57861Z" fill="#023773"/>
<path d="M16.6926 6.98682L16.6064 7.05271C16.5753 7.07702 16.5377 7.09027 16.4991 7.09057C16.4619 7.09083 16.4259 7.07745 16.397 7.05271L16.3228 6.98682L15.8245 7.36957C15.839 7.38749 15.8572 7.40181 15.8775 7.4115C15.8979 7.42119 15.9201 7.42602 15.9424 7.42565H17.0027C17.05 7.42531 17.0953 7.40514 17.1286 7.36957L16.6926 6.98682Z" fill="#023773"/>
<path d="M15.8497 8.49639C15.8058 8.49705 15.7623 8.48785 15.722 8.46939C15.6817 8.45093 15.6456 8.42364 15.6161 8.38931C15.5865 8.35499 15.5641 8.31442 15.5505 8.27028C15.5369 8.22614 15.5322 8.17943 15.5369 8.13326C15.5469 8.03541 15.5902 7.94473 15.6587 7.87817C15.7272 7.8116 15.8163 7.7737 15.9094 7.77154H27.2133C27.2571 7.77068 27.3006 7.77969 27.3409 7.79799C27.3812 7.81629 27.4173 7.84345 27.4469 7.87767C27.4765 7.91189 27.4989 7.95238 27.5125 7.99645C27.5262 8.04052 27.5308 8.08716 27.5261 8.13326C27.5167 8.23149 27.4736 8.32267 27.405 8.38958C27.3364 8.45649 27.247 8.49449 27.1536 8.49639H15.8497Z" fill="#011C3A"/>
<path opacity="0.5" d="M15.8497 8.49639C15.8058 8.49705 15.7623 8.48785 15.722 8.46939C15.6817 8.45093 15.6456 8.42364 15.6161 8.38931C15.5865 8.35499 15.5641 8.31442 15.5505 8.27028C15.5369 8.22614 15.5322 8.17943 15.5369 8.13326C15.5469 8.03541 15.5902 7.94473 15.6587 7.87817C15.7272 7.8116 15.8163 7.7737 15.9094 7.77154H27.2133C27.2571 7.77068 27.3006 7.77969 27.3409 7.79799C27.3812 7.81629 27.4173 7.84345 27.4469 7.87767C27.4765 7.91189 27.4989 7.95238 27.5125 7.99645C27.5262 8.04052 27.5308 8.08716 27.5261 8.13326C27.5167 8.23149 27.4736 8.32267 27.405 8.38958C27.3364 8.45649 27.247 8.49449 27.1536 8.49639H15.8497Z" fill="#F4F5F7"/>
<path d="M15.7305 9.94487C15.6865 9.94576 15.6429 9.93671 15.6025 9.91833C15.5621 9.89995 15.5259 9.87265 15.4963 9.83828C15.4667 9.8039 15.4444 9.76323 15.4308 9.71899C15.4173 9.67475 15.4128 9.62796 15.4177 9.58174C15.426 9.48145 15.4695 9.38809 15.5397 9.32009C15.6099 9.25209 15.7016 9.21438 15.7968 9.21441H26.0841C26.128 9.21355 26.1715 9.22256 26.2118 9.24086C26.252 9.25916 26.2882 9.28632 26.3178 9.32054C26.3474 9.35476 26.3697 9.39525 26.3834 9.43932C26.397 9.48339 26.4016 9.53003 26.3969 9.57614C26.3873 9.67425 26.3441 9.76526 26.2755 9.83211C26.207 9.89896 26.1177 9.93706 26.0245 9.93926L15.7305 9.94487Z" fill="#011C3A"/>
<path opacity="0.5" d="M15.7305 9.94487C15.6865 9.94576 15.6429 9.93671 15.6025 9.91833C15.5621 9.89995 15.5259 9.87265 15.4963 9.83828C15.4667 9.8039 15.4444 9.76323 15.4308 9.71899C15.4173 9.67475 15.4128 9.62796 15.4177 9.58174C15.426 9.48145 15.4695 9.38809 15.5397 9.32009C15.6099 9.25209 15.7016 9.21438 15.7968 9.21441H26.0841C26.128 9.21355 26.1715 9.22256 26.2118 9.24086C26.252 9.25916 26.2882 9.28632 26.3178 9.32054C26.3474 9.35476 26.3697 9.39525 26.3834 9.43932C26.397 9.48339 26.4016 9.53003 26.3969 9.57614C26.3873 9.67425 26.3441 9.76526 26.2755 9.83211C26.207 9.89896 26.1177 9.93706 26.0245 9.93926L15.7305 9.94487Z" fill="#F4F5F7"/>
<path d="M15.6098 11.3933C15.5659 11.394 15.5225 11.3848 15.4822 11.3664C15.442 11.3479 15.406 11.3206 15.3765 11.2862C15.347 11.2519 15.3248 11.2113 15.3113 11.1671C15.2979 11.123 15.2934 11.0763 15.2983 11.0302C15.3077 10.9324 15.3506 10.8415 15.419 10.7749C15.4874 10.7082 15.5765 10.6704 15.6694 10.6685H26.5545C26.5983 10.6678 26.6416 10.677 26.6817 10.6954C26.7219 10.7138 26.7578 10.741 26.7873 10.7752C26.8167 10.8093 26.839 10.8498 26.8525 10.8937C26.8661 10.9377 26.8707 10.9842 26.866 11.0302C26.8569 11.1286 26.8139 11.2199 26.7452 11.2869C26.6765 11.3539 26.587 11.3917 26.4936 11.3933H15.6098Z" fill="#011C3A"/>
<path opacity="0.5" d="M15.6098 11.3933C15.5659 11.394 15.5225 11.3848 15.4822 11.3664C15.442 11.3479 15.406 11.3206 15.3765 11.2862C15.347 11.2519 15.3248 11.2113 15.3113 11.1671C15.2979 11.123 15.2934 11.0763 15.2983 11.0302C15.3077 10.9324 15.3506 10.8415 15.419 10.7749C15.4874 10.7082 15.5765 10.6704 15.6694 10.6685H26.5545C26.5983 10.6678 26.6416 10.677 26.6817 10.6954C26.7219 10.7138 26.7578 10.741 26.7873 10.7752C26.8167 10.8093 26.839 10.8498 26.8525 10.8937C26.8661 10.9377 26.8707 10.9842 26.866 11.0302C26.8569 11.1286 26.8139 11.2199 26.7452 11.2869C26.6765 11.3539 26.587 11.3917 26.4936 11.3933H15.6098Z" fill="#F4F5F7"/>
<path d="M15.3699 14.2898C15.3262 14.2905 15.2828 14.2813 15.2427 14.2629C15.2026 14.2446 15.1666 14.2174 15.1371 14.1832C15.1077 14.149 15.0855 14.1085 15.0719 14.0646C15.0583 14.0206 15.0537 13.9741 15.0584 13.9281C15.0675 13.8298 15.1105 13.7384 15.1792 13.6714C15.2479 13.6045 15.3375 13.5666 15.4309 13.565H27.6069C27.6507 13.5643 27.6942 13.5735 27.7344 13.592C27.7746 13.6104 27.8107 13.6377 27.8401 13.6721C27.8696 13.7065 27.8918 13.7471 27.9053 13.7912C27.9188 13.8353 27.9232 13.882 27.9183 13.9281C27.9089 14.026 27.866 14.1168 27.7976 14.1834C27.7293 14.2501 27.6402 14.2879 27.5472 14.2898H15.3699Z" fill="#011C3A"/>
<path opacity="0.5" d="M15.3699 14.2898C15.3262 14.2905 15.2828 14.2813 15.2427 14.2629C15.2026 14.2446 15.1666 14.2174 15.1371 14.1832C15.1077 14.149 15.0855 14.1085 15.0719 14.0646C15.0583 14.0206 15.0537 13.9741 15.0584 13.9281C15.0675 13.8298 15.1105 13.7384 15.1792 13.6714C15.2479 13.6045 15.3375 13.5666 15.4309 13.565H27.6069C27.6507 13.5643 27.6942 13.5735 27.7344 13.592C27.7746 13.6104 27.8107 13.6377 27.8401 13.6721C27.8696 13.7065 27.8918 13.7471 27.9053 13.7912C27.9188 13.8353 27.9232 13.882 27.9183 13.9281C27.9089 14.026 27.866 14.1168 27.7976 14.1834C27.7293 14.2501 27.6402 14.2879 27.5472 14.2898H15.3699Z" fill="#F4F5F7"/>
<path d="M15.2506 15.7381C15.2068 15.7389 15.1633 15.7299 15.123 15.7116C15.0827 15.6933 15.0466 15.6662 15.017 15.6319C14.9874 15.5977 14.965 15.5572 14.9514 15.5132C14.9377 15.4691 14.9331 15.4225 14.9378 15.3763C14.9475 15.2782 14.9906 15.1872 15.0592 15.1204C15.1278 15.0535 15.217 15.0154 15.3102 15.0132H22.2909C22.3347 15.0125 22.3782 15.0217 22.4184 15.0402C22.4587 15.0587 22.4947 15.086 22.5242 15.1203C22.5536 15.1547 22.5758 15.1953 22.5893 15.2394C22.6028 15.2836 22.6072 15.3302 22.6023 15.3763C22.5929 15.4744 22.5498 15.5655 22.4812 15.6321C22.4125 15.6988 22.3231 15.7365 22.2299 15.7381H15.2506Z" fill="#011C3A"/>
<path opacity="0.5" d="M15.2506 15.7381C15.2068 15.7389 15.1633 15.7299 15.123 15.7116C15.0827 15.6933 15.0466 15.6662 15.017 15.6319C14.9874 15.5977 14.965 15.5572 14.9514 15.5132C14.9377 15.4691 14.9331 15.4225 14.9378 15.3763C14.9475 15.2782 14.9906 15.1872 15.0592 15.1204C15.1278 15.0535 15.217 15.0154 15.3102 15.0132H22.2909C22.3347 15.0125 22.3782 15.0217 22.4184 15.0402C22.4587 15.0587 22.4947 15.086 22.5242 15.1203C22.5536 15.1547 22.5758 15.1953 22.5893 15.2394C22.6028 15.2836 22.6072 15.3302 22.6023 15.3763C22.5929 15.4744 22.5498 15.5655 22.4812 15.6321C22.4125 15.6988 22.3231 15.7365 22.2299 15.7381H15.2506Z" fill="#F4F5F7"/>
<path d="M16.5469 12.1588C16.4807 12.0827 16.3974 12.0255 16.3047 11.9927C16.212 11.9598 16.1129 11.9523 16.0168 11.9709C15.8872 11.9934 15.7662 12.0539 15.6675 12.1457C15.5689 12.2374 15.4965 12.3566 15.4588 12.4896C15.4215 12.6199 15.4243 12.7593 15.4668 12.8878L15.3939 13.0911C15.3891 13.1049 15.3874 13.1197 15.389 13.1343C15.3906 13.1489 15.3955 13.163 15.4031 13.1752C15.4115 13.187 15.4226 13.1963 15.4354 13.2022C15.4482 13.2081 15.4622 13.2104 15.476 13.2089L15.6974 13.1935C15.7896 13.2527 15.8956 13.2837 16.0035 13.2832C16.0355 13.2836 16.0674 13.2813 16.0989 13.2762C16.233 13.2531 16.358 13.1895 16.4586 13.0929C16.5593 12.9964 16.6314 12.8711 16.6662 12.7322C16.6923 12.6336 16.6951 12.5297 16.6743 12.4297C16.6535 12.3297 16.6098 12.2366 16.5469 12.1588ZM16.5747 12.7196C16.5453 12.8359 16.4848 12.9408 16.4004 13.0217C16.316 13.1025 16.2113 13.1558 16.0989 13.1752C15.9773 13.196 15.8527 13.1686 15.7491 13.0981L15.7371 13.0883L15.4986 13.1065L15.5781 12.8822V12.864C15.5375 12.7517 15.5337 12.6283 15.5675 12.5135C15.5996 12.402 15.6603 12.3023 15.7429 12.2253C15.8256 12.1483 15.9268 12.0971 16.0353 12.0774C16.1155 12.0628 16.198 12.0696 16.275 12.0973C16.3521 12.125 16.4214 12.1726 16.4767 12.2359C16.5296 12.3016 16.5663 12.3802 16.5834 12.4646C16.6005 12.5491 16.5975 12.6367 16.5747 12.7196Z" fill="#023773"/>
<path d="M16.1679 12.7067C16.1429 12.7415 16.127 12.7825 16.1216 12.8259C16.0601 12.8048 16.0051 12.7665 15.9625 12.7151C15.9158 12.664 15.8841 12.5997 15.8711 12.53C15.9109 12.528 15.9494 12.5144 15.9824 12.4908C16.0142 12.4599 15.9983 12.3842 15.9453 12.3225C15.8923 12.2608 15.822 12.237 15.7902 12.2678C15.768 12.2966 15.7528 12.3307 15.7461 12.3672C15.7394 12.4036 15.7413 12.4413 15.7518 12.4768C15.7465 12.5374 15.7542 12.5986 15.7744 12.6556C15.7946 12.7127 15.8267 12.7642 15.8684 12.8062C15.9045 12.8553 15.9511 12.8947 16.0043 12.9213C16.0575 12.9478 16.1158 12.9607 16.1746 12.959C16.2057 12.9693 16.2387 12.9722 16.271 12.9673C16.3033 12.9625 16.3342 12.9501 16.3614 12.931C16.3933 12.8988 16.3774 12.8231 16.3243 12.7614C16.2713 12.6997 16.2011 12.6758 16.1679 12.7067Z" fill="#023773"/>
<path d="M28.7388 6.62615L28.6792 7.32716H28.5201L28.5678 6.74953H28.4353L28.4459 6.61914L28.7388 6.62615Z" fill="#023773"/>
<path d="M29.2822 6.95148C29.3025 6.97167 29.3181 6.99669 29.3275 7.02447C29.337 7.05226 29.3401 7.08203 29.3365 7.11132C29.3329 7.15556 29.3179 7.19791 29.2932 7.23376C29.2684 7.26961 29.2348 7.29757 29.196 7.31461C29.1462 7.33711 29.0924 7.34811 29.0383 7.34686C28.9935 7.34626 28.949 7.33967 28.9058 7.32723C28.8658 7.31571 28.8281 7.29672 28.7944 7.27115L28.866 7.14496C28.8907 7.16628 28.9191 7.18245 28.9495 7.19263C28.9825 7.2039 29.0169 7.20957 29.0516 7.20946C29.0846 7.211 29.1173 7.20223 29.1457 7.18422C29.1571 7.17629 29.1665 7.16547 29.1729 7.15274C29.1794 7.14001 29.1828 7.12577 29.1828 7.11132C29.1849 7.09809 29.1833 7.08449 29.1781 7.07225C29.1729 7.06001 29.1644 7.04969 29.1536 7.04262C29.1165 7.02361 29.0754 7.01538 29.0343 7.01878H28.8634L28.9309 6.62061H29.3392L29.3286 6.75099H29.0502L29.029 6.8912H29.0834C29.1543 6.88605 29.2246 6.90739 29.2822 6.95148Z" fill="#023773"/>
<path d="M28.4405 12.6172C28.4546 12.6358 28.465 12.6571 28.4711 12.68C28.4773 12.7029 28.479 12.7268 28.4763 12.7504C28.4726 12.792 28.4584 12.8317 28.4352 12.8654C28.41 12.9022 28.3756 12.9309 28.3358 12.9481C28.2865 12.9706 28.2331 12.9816 28.1794 12.9803C28.1346 12.9798 28.0901 12.9732 28.0469 12.9607C28.0068 12.9495 27.9691 12.9304 27.9355 12.9046L28.0058 12.7785C28.0312 12.7995 28.0599 12.8157 28.0906 12.8261C28.1232 12.8369 28.1572 12.8421 28.1913 12.8415C28.2241 12.8435 28.2567 12.8357 28.2854 12.8191C28.2967 12.8118 28.3062 12.8018 28.3132 12.7898C28.3201 12.7779 28.3242 12.7644 28.3252 12.7504C28.3252 12.6929 28.2907 12.6635 28.2072 12.6635H28.1357L28.145 12.5555L28.296 12.3901H28.0111L28.0217 12.2583H28.4909L28.4829 12.3649L28.3159 12.5471C28.364 12.5541 28.4082 12.5789 28.4405 12.6172Z" fill="#023773"/>
<path d="M29.0143 12.5791C29.0352 12.5989 29.051 12.6239 29.0605 12.6518C29.07 12.6797 29.0728 12.7096 29.0687 12.7389C29.0651 12.7811 29.0515 12.8217 29.0289 12.8567C29.0035 12.8945 28.9686 12.9241 28.9282 12.9422C28.8784 12.9647 28.8246 12.9757 28.7705 12.9745C28.7257 12.9739 28.6812 12.9673 28.6379 12.9549C28.5981 12.943 28.5604 12.9241 28.5266 12.8988L28.5982 12.7726C28.6236 12.7937 28.6523 12.8098 28.683 12.8203C28.7156 12.8312 28.7496 12.8364 28.7837 12.8357C28.8166 12.8377 28.8493 12.8294 28.8778 12.8119C28.8889 12.8047 28.8981 12.7949 28.9048 12.7832C28.9115 12.7714 28.9154 12.7582 28.9163 12.7446C28.9184 12.7313 28.9168 12.7177 28.9116 12.7055C28.9064 12.6932 28.8979 12.6829 28.8871 12.6759C28.8502 12.6565 28.8089 12.6483 28.7678 12.652H28.5969L28.6644 12.2524H29.0727L29.0621 12.3842H28.7824L28.7612 12.5244H28.8155C28.8858 12.5175 28.9561 12.5369 29.0143 12.5791Z" fill="#023773"/>
<path d="M21.2863 36.9366H19.0425C18.9188 36.9387 18.7961 36.913 18.6826 36.8612C18.569 36.8093 18.4672 36.7325 18.3838 36.6359C18.3004 36.5392 18.2375 36.4249 18.1991 36.3005C18.1607 36.1761 18.1477 36.0446 18.1611 35.9145L18.3573 33.5408C18.3841 33.2642 18.5059 33.0075 18.6996 32.8194C18.8933 32.6314 19.1454 32.5249 19.4083 32.5202H21.6508C21.7744 32.5178 21.897 32.5433 22.0106 32.595C22.1242 32.6467 22.226 32.7233 22.3094 32.8199C22.3928 32.9165 22.4557 33.0307 22.4942 33.155C22.5326 33.2793 22.5455 33.4108 22.5321 33.5408L22.336 35.9145C22.3092 36.191 22.1876 36.4477 21.9942 36.636C21.8009 36.8242 21.5491 36.9312 21.2863 36.9366Z" fill="#023773"/>
<path d="M20.9815 33.9993C20.9537 34.3357 20.6621 34.7479 20.3453 34.7479C20.0286 34.7479 19.8046 34.3357 19.8324 33.9993C19.8483 33.8348 19.9206 33.6822 20.0356 33.5704C20.1506 33.4585 20.3004 33.3951 20.4567 33.3922C20.5302 33.3907 20.6032 33.4059 20.6708 33.4366C20.7384 33.4673 20.799 33.5129 20.8487 33.5703C20.8983 33.6277 20.9359 33.6957 20.9588 33.7697C20.9817 33.8436 20.9894 33.9219 20.9815 33.9993Z" fill="#F4F5F7"/>
<path d="M21.448 35.9233C21.4337 35.6699 21.3271 35.4322 21.1506 35.2602C20.9742 35.0882 20.7416 34.9952 20.5017 35.0007H20.1465C19.8933 35.0058 19.6486 35.0989 19.4503 35.2656C19.252 35.4323 19.111 35.6634 19.0491 35.9233C19.0446 35.9397 19.0437 35.957 19.0466 35.9739C19.0496 35.9908 19.0562 36.0066 19.066 36.0203C19.0758 36.0339 19.0885 36.0449 19.1031 36.0524C19.1176 36.0599 19.1337 36.0637 19.1498 36.0635H21.3221C21.3561 36.0617 21.3881 36.0461 21.4116 36.02C21.435 35.9939 21.4481 35.9593 21.448 35.9233Z" fill="#F4F5F7"/>
<path d="M26.919 36.9366H24.6765C24.5528 36.9387 24.4301 36.913 24.3166 36.8612C24.203 36.8093 24.1012 36.7325 24.0178 36.6359C23.9345 36.5392 23.8715 36.4249 23.8331 36.3005C23.7947 36.1761 23.7818 36.0446 23.7951 35.9145L23.9913 33.5408C24.0182 33.2642 24.14 33.0075 24.3336 32.8194C24.5273 32.6314 24.7794 32.5249 25.0423 32.5202H27.2848C27.4084 32.5178 27.5311 32.5433 27.6446 32.595C27.7582 32.6467 27.86 32.7233 27.9434 32.8199C28.0268 32.9165 28.0898 33.0307 28.1282 33.155C28.1666 33.2793 28.1795 33.4108 28.1662 33.5408L27.97 35.9145C27.9432 36.1913 27.8214 36.4481 27.6278 36.6364C27.4341 36.8247 27.182 36.9315 26.919 36.9366Z" fill="#023773"/>
<path d="M27.2995 35.4395C27.3121 35.4067 27.3206 35.3723 27.3247 35.3372L27.4215 34.1595C27.4266 34.106 27.4188 34.0519 27.3989 34.0024L26.4712 34.7133L27.2995 35.4395Z" fill="#F4F5F7"/>
<path d="M25.8575 34.8182C25.8902 34.8454 25.9305 34.8602 25.9721 34.8602C26.0137 34.8602 26.0541 34.8454 26.0868 34.8182L27.3101 33.8747C27.2544 33.8274 27.1852 33.8017 27.1139 33.8018H24.9933C24.9181 33.8027 24.845 33.8282 24.7839 33.8747L25.8575 34.8182Z" fill="#F4F5F7"/>
<path d="M24.6767 34.0024C24.6494 34.0502 24.6327 34.1039 24.6277 34.1595L24.5309 35.3372C24.5255 35.3711 24.5255 35.4056 24.5309 35.4395L25.4746 34.7119L24.6767 34.0024Z" fill="#F4F5F7"/>
<path d="M26.3412 34.8169L26.1703 34.9487C26.1081 34.9973 26.0329 35.0238 25.9555 35.0244C25.8813 35.025 25.8091 34.9983 25.7514 34.9487L25.603 34.8169L24.6077 35.5838C24.637 35.6189 24.6731 35.647 24.7136 35.6661C24.7541 35.6852 24.7979 35.6949 24.8423 35.6946H26.9562C27.0509 35.6934 27.1415 35.6538 27.2093 35.5838L26.3412 34.8169Z" fill="#F4F5F7"/>
<path d="M27.5128 33.8493C27.3842 33.8517 27.2565 33.8251 27.1383 33.7712C27.0201 33.7174 26.9141 33.6376 26.8274 33.537C26.7406 33.4365 26.6751 33.3176 26.6351 33.1882C26.5952 33.0588 26.5817 32.9219 26.5957 32.7865C26.6235 32.4986 26.7502 32.2314 26.9516 32.0356C27.1531 31.8397 27.4155 31.7288 27.6891 31.7238H27.8813C28.01 31.7212 28.1377 31.7476 28.256 31.8014C28.3743 31.8552 28.4804 31.935 28.5672 32.0356C28.654 32.1362 28.7195 32.2552 28.7594 32.3847C28.7993 32.5142 28.8126 32.6512 28.7984 32.7865C28.7706 33.0745 28.6439 33.3417 28.4424 33.5375C28.2409 33.7334 27.9786 33.8443 27.705 33.8493H27.5128Z" fill="#011C3A"/>
<path d="M27.5275 32.3618L27.4585 33.196H27.2756L27.3313 32.5174H27.1736L27.1868 32.3618H27.5275Z" fill="#F4F5F7"/>
<path d="M28.1675 32.746C28.1919 32.7694 28.2104 32.7988 28.2215 32.8315C28.2326 32.8643 28.2359 32.8995 28.2311 32.9339C28.228 32.9845 28.2115 33.0331 28.1834 33.0741C28.1531 33.1181 28.1124 33.1529 28.0654 33.1751C28.0069 33.2018 27.9436 33.2147 27.8799 33.2129C27.8274 33.2122 27.7753 33.2042 27.7248 33.1891C27.677 33.1765 27.632 33.1541 27.5923 33.1232L27.6758 32.9746C27.7054 32.9995 27.7391 33.0185 27.7752 33.0306C27.8138 33.0436 27.854 33.0502 27.8945 33.0503C27.9329 33.0519 27.971 33.0422 28.0045 33.0222C28.0176 33.0137 28.0286 33.002 28.0367 32.9881C28.0447 32.9743 28.0496 32.9586 28.0509 32.9423C28.0532 32.9267 28.0512 32.9107 28.0451 32.8962C28.039 32.8818 28.029 32.8695 28.0164 32.861C27.9728 32.8386 27.9243 32.8289 27.8759 32.833H27.6745L27.754 32.3633H28.2351L28.2218 32.5189H27.8931L27.868 32.6773H27.9316C28.0154 32.6703 28.0989 32.6946 28.1675 32.746Z" fill="#F4F5F7"/>
<path d="M16.2592 29.6001H14.0167C13.893 29.6025 13.7702 29.577 13.6566 29.5252C13.5429 29.4735 13.441 29.3967 13.3576 29.2999C13.2742 29.2032 13.2112 29.0888 13.1729 28.9643C13.1346 28.8399 13.1218 28.7082 13.1354 28.5781L13.3315 26.2058C13.3581 25.9291 13.4795 25.6723 13.673 25.484C13.8664 25.2957 14.1184 25.1888 14.3812 25.1837H16.625C16.7488 25.1814 16.8716 25.2069 16.9852 25.2587C17.0989 25.3104 17.2008 25.3872 17.2842 25.4839C17.3676 25.5807 17.4306 25.6951 17.4689 25.8195C17.5072 25.944 17.52 26.0757 17.5064 26.2058L17.3102 28.5781C17.2837 28.855 17.162 29.112 16.9683 29.3003C16.7746 29.4887 16.5223 29.5954 16.2592 29.6001Z" fill="#023773"/>
<path d="M16.3137 26.4592C16.1828 26.3084 16.0182 26.1949 15.835 26.129C15.6518 26.0631 15.4559 26.047 15.2653 26.0821C15.0062 26.1268 14.7642 26.2477 14.5669 26.4309C14.3696 26.614 14.2249 26.8522 14.1494 27.1182C14.075 27.3791 14.0801 27.6582 14.1639 27.9159L14.0208 28.3211C14.0101 28.3485 14.0062 28.3783 14.0094 28.4078C14.0127 28.4372 14.023 28.4653 14.0394 28.4894C14.0556 28.5128 14.0774 28.5315 14.1024 28.5435C14.1275 28.5556 14.1551 28.5606 14.1825 28.5581L14.6265 28.5258C14.8103 28.6463 15.0226 28.7095 15.2388 28.7081C15.3027 28.7078 15.3665 28.7026 15.4297 28.6926C15.6976 28.6469 15.9473 28.5198 16.1484 28.327C16.3496 28.1341 16.4935 27.8837 16.5628 27.6061C16.6149 27.4081 16.6193 27.1995 16.5758 26.9992C16.5323 26.7989 16.4422 26.6133 16.3137 26.4592ZM16.3693 27.5724C16.3111 27.8055 16.1902 28.0156 16.0213 28.1774C15.8524 28.3392 15.6427 28.4456 15.4177 28.4837C15.1749 28.5262 14.9258 28.4712 14.7193 28.3295L14.6941 28.3113L14.2183 28.3463L14.3773 27.8991L14.3641 27.8626C14.2833 27.6381 14.2754 27.3915 14.3415 27.1616C14.4065 26.9394 14.5282 26.7404 14.6934 26.5868C14.8585 26.4331 15.0606 26.3307 15.2772 26.291C15.4382 26.2598 15.604 26.2727 15.7589 26.3285C15.9137 26.3843 16.0525 26.4811 16.162 26.6097C16.2715 26.7383 16.3481 26.8944 16.3843 27.0632C16.4206 27.232 16.4155 27.4078 16.3693 27.5738V27.5724Z" fill="#F4F5F7"/>
<path d="M15.5583 27.5685C15.5061 27.6363 15.4735 27.7186 15.4642 27.8055C15.3404 27.7593 15.2296 27.6809 15.142 27.5775C15.0545 27.4741 14.993 27.349 14.9632 27.2138C15.0425 27.2101 15.1192 27.1829 15.1845 27.1353C15.2508 27.0722 15.2163 26.9208 15.1103 26.7974C15.0043 26.674 14.8651 26.6264 14.8002 26.6894C14.7559 26.7476 14.7258 26.8164 14.7126 26.8897C14.6994 26.9631 14.7036 27.0388 14.7246 27.1101C14.714 27.2316 14.7294 27.3541 14.7698 27.4685C14.8102 27.5828 14.8745 27.686 14.9579 27.7704C15.0304 27.8679 15.1233 27.9461 15.2294 27.9989C15.3355 28.0517 15.4517 28.0777 15.5689 28.0746C15.6313 28.0947 15.6972 28.1 15.7618 28.09C15.8264 28.0801 15.8882 28.0552 15.9426 28.0172C16.0076 27.9541 15.9744 27.8027 15.8684 27.6793C15.7624 27.5559 15.6232 27.504 15.5583 27.5685Z" fill="#F4F5F7"/>
<path d="M16.877 26.2462C16.7483 26.2489 16.6205 26.2224 16.5022 26.1686C16.3839 26.1149 16.2778 26.035 16.191 25.9344C16.1042 25.8339 16.0387 25.7149 15.9988 25.5854C15.959 25.4559 15.9457 25.3189 15.9598 25.1835C15.9877 24.8958 16.1141 24.6288 16.3153 24.433C16.5165 24.2372 16.7786 24.1261 17.0519 24.1208H17.2454C17.3741 24.1184 17.5018 24.145 17.6199 24.1988C17.7381 24.2527 17.8441 24.3325 17.9309 24.433C18.0176 24.5336 18.0832 24.6525 18.1231 24.7819C18.1631 24.9113 18.1765 25.0482 18.1626 25.1835C18.1347 25.4714 18.0081 25.7386 17.8066 25.9345C17.6051 26.1303 17.3427 26.2412 17.0692 26.2462H16.877Z" fill="#011C3A"/>
<path d="M16.9711 25.1806C16.9878 25.2023 17.0002 25.2275 17.0075 25.2545C17.0148 25.2815 17.0168 25.3097 17.0135 25.3376C17.0107 25.3882 16.9941 25.4369 16.9658 25.4778C16.9357 25.5213 16.8949 25.5552 16.8478 25.5759C16.7897 25.6021 16.7268 25.6145 16.6636 25.6124C16.609 25.6127 16.5546 25.6052 16.5019 25.59C16.4543 25.5769 16.4093 25.5545 16.3694 25.5241L16.4529 25.3754C16.4827 25.4001 16.5163 25.4191 16.5523 25.4315C16.5909 25.4445 16.6311 25.4511 16.6716 25.4512C16.71 25.453 16.7481 25.4432 16.7816 25.4231C16.7949 25.4148 16.8061 25.4032 16.8142 25.3893C16.8223 25.3754 16.827 25.3595 16.828 25.3432C16.828 25.2759 16.7869 25.2408 16.6954 25.2408H16.6119L16.6225 25.1133L16.8014 24.9198H16.4595L16.4728 24.7642H17.0254L17.0148 24.8889L16.8187 25.1049C16.8767 25.1089 16.9311 25.1359 16.9711 25.1806Z" fill="#F4F5F7"/>
<path d="M17.6521 25.1429C17.6765 25.1663 17.6951 25.1957 17.7062 25.2285C17.7173 25.2612 17.7206 25.2964 17.7158 25.3308C17.7126 25.3814 17.6961 25.43 17.668 25.471C17.6384 25.5156 17.5975 25.5506 17.5501 25.572C17.4919 25.5982 17.4291 25.6107 17.3659 25.6084C17.3108 25.6087 17.256 25.6012 17.2028 25.586C17.1552 25.5729 17.1103 25.5505 17.0703 25.5201L17.1551 25.3715C17.1849 25.3962 17.2186 25.4152 17.2545 25.4276C17.2927 25.4405 17.3324 25.4472 17.3725 25.4472C17.4115 25.4492 17.4503 25.439 17.4838 25.4177C17.4954 25.4084 17.5046 25.3963 17.5109 25.3824C17.5171 25.3685 17.5201 25.3532 17.5196 25.3378C17.5223 25.3222 17.5205 25.306 17.5143 25.2915C17.5082 25.277 17.498 25.2648 17.4851 25.2565C17.442 25.234 17.3939 25.2243 17.346 25.2285H17.1445L17.2227 24.7588H17.7038L17.6919 24.9144H17.3632L17.3367 25.0728H17.4017C17.4905 25.062 17.58 25.087 17.6521 25.1429Z" fill="#F4F5F7"/>
<path d="M21.8934 29.6001H19.6496C19.5258 29.6025 19.403 29.577 19.2894 29.5252C19.1757 29.4735 19.0738 29.3967 18.9904 29.2999C18.907 29.2032 18.844 29.0888 18.8057 28.9643C18.7674 28.8399 18.7546 28.7082 18.7682 28.5781L18.9644 26.2058C18.9909 25.9291 19.1124 25.6723 19.3058 25.484C19.4992 25.2957 19.7512 25.1888 20.014 25.1837H22.2579C22.3816 25.1814 22.5044 25.2069 22.618 25.2587C22.7317 25.3104 22.8336 25.3872 22.917 25.4839C23.0004 25.5807 23.0634 25.6951 23.1017 25.8195C23.14 25.944 23.1528 26.0757 23.1392 26.2058L22.9431 28.5781C22.9165 28.8547 22.7951 29.1115 22.6016 29.2999C22.4082 29.4882 22.1562 29.595 21.8934 29.6001Z" fill="#023773"/>
<path d="M21.4547 26.0709H20.6714C20.4517 26.0755 20.2411 26.1647 20.0793 26.322C19.9175 26.4792 19.8156 26.6936 19.7927 26.9247L19.7251 27.7533C19.7138 27.862 19.7245 27.9719 19.7564 28.0758C19.7884 28.1797 19.8409 28.2753 19.9105 28.356C19.9801 28.4368 20.0652 28.501 20.16 28.5443C20.2549 28.5876 20.3574 28.609 20.4606 28.6072H21.2453C21.4648 28.6026 21.6752 28.5133 21.8368 28.356C21.9984 28.1987 22.1 27.9844 22.1226 27.7533L22.1916 26.9247C22.2027 26.816 22.1918 26.7061 22.1596 26.6022C22.1275 26.4982 22.0748 26.4027 22.0052 26.322C21.9355 26.2413 21.8503 26.1771 21.7554 26.1338C21.6605 26.0905 21.558 26.0691 21.4547 26.0709ZM21.9106 27.7533C21.8941 27.9237 21.8192 28.0819 21.7 28.1978C21.5809 28.3138 21.4257 28.3796 21.2638 28.3829H20.4792C20.4028 28.3853 20.3267 28.3702 20.2563 28.3386C20.1859 28.3071 20.1228 28.2597 20.0713 28.1999C20.0198 28.1401 19.9812 28.0693 19.958 27.9922C19.9349 27.9151 19.9277 27.8336 19.9371 27.7533L20.0047 26.9247C20.0212 26.7541 20.0963 26.5958 20.2158 26.4798C20.3352 26.3638 20.4907 26.2981 20.6528 26.2952H21.4361C21.5123 26.2938 21.588 26.3095 21.658 26.3413C21.7281 26.3732 21.7909 26.4205 21.8423 26.4801C21.8937 26.5396 21.9325 26.6101 21.9562 26.6868C21.9798 26.7634 21.9878 26.8446 21.9795 26.9247L21.9106 27.7533Z" fill="#F4F5F7"/>
<path d="M21.0054 26.7593C20.8564 26.7626 20.7136 26.8234 20.604 26.9303C20.4944 27.0373 20.4255 27.1829 20.4103 27.3398C20.4028 27.4135 20.4102 27.488 20.432 27.5585C20.4538 27.629 20.4895 27.6937 20.5367 27.7485C20.584 27.8032 20.6417 27.8467 20.706 27.8761C20.7704 27.9055 20.8399 27.92 20.91 27.9188C21.0591 27.9159 21.202 27.8554 21.3118 27.7488C21.4217 27.6421 21.4909 27.4966 21.5064 27.3398C21.5137 27.2659 21.5061 27.1913 21.4842 27.1207C21.4623 27.0502 21.4265 26.9854 21.3791 26.9305C21.3318 26.8757 21.274 26.8321 21.2096 26.8026C21.1452 26.7731 21.0756 26.7583 21.0054 26.7593ZM20.9285 27.6945C20.8856 27.6951 20.8431 27.6861 20.8037 27.6681C20.7643 27.6501 20.729 27.6234 20.7001 27.5899C20.6712 27.5564 20.6493 27.5168 20.6359 27.4737C20.6225 27.4305 20.6179 27.3849 20.6224 27.3398C20.6317 27.2436 20.6739 27.1544 20.741 27.0888C20.8081 27.0233 20.8955 26.9859 20.9869 26.9836C21.0299 26.9827 21.0727 26.9916 21.1123 27.0096C21.1519 27.0277 21.1874 27.0544 21.2164 27.0882C21.2454 27.1219 21.2672 27.1618 21.2804 27.2052C21.2936 27.2486 21.2979 27.2945 21.293 27.3398C21.2836 27.4358 21.2414 27.5248 21.1743 27.5901C21.1072 27.6555 21.0197 27.6926 20.9285 27.6945Z" fill="#F4F5F7"/>
<path d="M21.6018 26.4986C21.5537 26.499 21.5074 26.5183 21.4719 26.5528C21.4364 26.5872 21.4142 26.6343 21.4096 26.685C21.4072 26.7089 21.4095 26.733 21.4166 26.7557C21.4237 26.7785 21.4352 26.7994 21.4505 26.817C21.4658 26.8347 21.4845 26.8487 21.5054 26.8581C21.5262 26.8675 21.5487 26.8721 21.5713 26.8715C21.6193 26.8704 21.6653 26.8509 21.7006 26.8166C21.736 26.7823 21.7584 26.7355 21.7635 26.685C21.766 26.6612 21.7636 26.6371 21.7565 26.6144C21.7495 26.5916 21.7379 26.5707 21.7226 26.553C21.7073 26.5354 21.6886 26.5214 21.6678 26.512C21.6469 26.5026 21.6244 26.498 21.6018 26.4986Z" fill="#F4F5F7"/>
<path d="M22.5096 26.2462C22.3808 26.2489 22.2531 26.2224 22.1348 26.1686C22.0165 26.1149 21.9104 26.035 21.8236 25.9344C21.7368 25.8339 21.6713 25.7149 21.6314 25.5854C21.5915 25.4559 21.5782 25.3189 21.5924 25.1835C21.6202 24.8958 21.7467 24.6288 21.9479 24.433C22.1491 24.2372 22.4111 24.1261 22.6845 24.1208H22.878C23.0067 24.1184 23.1343 24.145 23.2525 24.1988C23.3707 24.2527 23.4767 24.3325 23.5634 24.433C23.6502 24.5336 23.7157 24.6525 23.7557 24.7819C23.7956 24.9113 23.8091 25.0482 23.7951 25.1835C23.7673 25.4714 23.6407 25.7386 23.4392 25.9345C23.2377 26.1303 22.9753 26.2412 22.7017 26.2462H22.5096Z" fill="#011C3A"/>
<path d="M23.0438 24.7656L23.0332 24.8918L22.6886 25.5998H22.4898L22.8291 24.9241H22.564L22.5521 25.0643H22.3904L22.4142 24.7712L23.0438 24.7656Z" fill="#F4F5F7"/>
<path d="M27.5249 29.6001H25.2824C25.1586 29.6025 25.0359 29.577 24.9222 29.5252C24.8085 29.4735 24.7066 29.3967 24.6232 29.2999C24.5398 29.2032 24.4768 29.0888 24.4385 28.9643C24.4002 28.8399 24.3874 28.7082 24.401 28.5781L24.5972 26.2058C24.6237 25.9291 24.7452 25.6723 24.9386 25.484C25.132 25.2957 25.384 25.1888 25.6468 25.1837H27.8907C28.0144 25.1814 28.1372 25.2069 28.2508 25.2587C28.3645 25.3104 28.4664 25.3872 28.5498 25.4839C28.6332 25.5807 28.6962 25.6951 28.7345 25.8195C28.7728 25.944 28.7856 26.0757 28.772 26.2058L28.5759 28.5781C28.5493 28.855 28.4276 29.112 28.2339 29.3003C28.0402 29.4887 27.7879 29.5954 27.5249 29.6001Z" fill="#023773"/>
<path d="M27.151 27.2474H27.7342L27.6891 27.7844H27.1232L26.9734 29.6H26.3107L26.4618 27.7844H26.1106L26.1543 27.2474H26.5056L26.5148 27.1408C26.5254 26.8926 26.6266 26.6584 26.7971 26.4875C26.9831 26.3199 27.2224 26.2337 27.4664 26.2463C27.5601 26.2458 27.6536 26.2571 27.7448 26.28C27.821 26.2977 27.8934 26.3306 27.9581 26.3767L27.7434 26.8815C27.6666 26.8224 27.5733 26.7922 27.4784 26.7959C27.2782 26.7959 27.1696 26.9123 27.1497 27.145L27.151 27.2474Z" fill="#F4F5F7"/>
<path d="M28.1424 26.2462C28.0136 26.2489 27.8859 26.2224 27.7676 26.1686C27.6493 26.1149 27.5432 26.035 27.4564 25.9344C27.3696 25.8339 27.3041 25.7149 27.2642 25.5854C27.2244 25.4559 27.2111 25.3189 27.2252 25.1835C27.253 24.8958 27.3795 24.6288 27.5807 24.433C27.7819 24.2372 28.044 24.1261 28.3173 24.1208H28.5108C28.6395 24.1184 28.7671 24.145 28.8853 24.1988C29.0035 24.2527 29.1095 24.3325 29.1963 24.433C29.283 24.5336 29.3485 24.6525 29.3885 24.7819C29.4284 24.9113 29.4419 25.0482 29.428 25.1835C29.4001 25.4714 29.2735 25.7386 29.072 25.9345C28.8705 26.1303 28.6081 26.2412 28.3345 26.2462H28.1424Z" fill="#011C3A"/>
<path d="M28.3066 24.7656L28.296 24.8918L27.9435 25.5998H27.746L28.084 24.9241H27.8189L27.8083 25.0643H27.6453L27.6704 24.7712L28.3066 24.7656Z" fill="#F4F5F7"/>
<path d="M28.4684 25.5634C28.4189 25.5268 28.3813 25.4749 28.361 25.4147C28.3361 25.3407 28.3279 25.2614 28.3372 25.1834C28.3416 25.1024 28.3629 25.0234 28.3995 24.9521C28.4299 24.8906 28.4758 24.8392 28.532 24.8035C28.5857 24.7684 28.6478 24.7504 28.7109 24.7516C28.7712 24.7498 28.8305 24.7679 28.8806 24.8035C28.9311 24.8392 28.9693 24.8914 28.9893 24.9521C29.0129 25.0265 29.021 25.1054 29.0131 25.1834C29.0074 25.2642 28.9862 25.3429 28.9508 25.4147C28.9196 25.4756 28.8739 25.5269 28.8183 25.5634C28.7642 25.5974 28.7023 25.6154 28.6394 25.6152C28.5788 25.6161 28.5193 25.5981 28.4684 25.5634ZM28.7719 25.3853C28.808 25.3248 28.8277 25.255 28.8289 25.1834C28.8399 25.1146 28.8316 25.044 28.805 24.9801C28.7948 24.9597 28.7792 24.9428 28.7602 24.9314C28.7412 24.92 28.7195 24.9145 28.6977 24.9156C28.6745 24.9152 28.6516 24.9209 28.631 24.9322C28.6105 24.9434 28.5928 24.9599 28.5797 24.9801C28.5434 25.0411 28.5232 25.1113 28.5214 25.1834C28.5106 25.2519 28.5193 25.3222 28.5466 25.3853C28.5563 25.406 28.5715 25.4232 28.5904 25.4349C28.6092 25.4466 28.6308 25.4523 28.6526 25.4512C28.6761 25.4514 28.6992 25.4455 28.72 25.434C28.7408 25.4225 28.7586 25.4058 28.7719 25.3853Z" fill="#F4F5F7"/>
<path d="M15.6536 36.9366H13.4111C13.2875 36.9387 13.1648 36.913 13.0512 36.8612C12.9376 36.8093 12.8358 36.7325 12.7525 36.6359C12.6691 36.5392 12.6061 36.4249 12.5677 36.3005C12.5293 36.1761 12.5164 36.0446 12.5298 35.9145L12.7259 33.5408C12.7528 33.2642 12.8746 33.0075 13.0682 32.8194C13.2619 32.6314 13.514 32.5249 13.7769 32.5202H16.0194C16.143 32.5178 16.2657 32.5433 16.3792 32.595C16.4928 32.6467 16.5947 32.7233 16.678 32.8199C16.7614 32.9165 16.8244 33.0307 16.8628 33.155C16.9012 33.2793 16.9142 33.4108 16.9008 33.5408L16.7046 35.9145C16.6778 36.1913 16.556 36.4481 16.3624 36.6364C16.1687 36.8247 15.9166 36.9315 15.6536 36.9366Z" fill="#023773"/>
<path d="M14.8172 33.481C13.9995 33.481 13.2917 34.0418 13.2347 34.7246C13.2236 34.9206 13.264 35.1161 13.3515 35.2894C13.439 35.4626 13.5701 35.6068 13.7304 35.706C13.6292 35.9041 13.5006 36.0851 13.3487 36.243C13.5677 36.2413 13.784 36.1911 13.9836 36.0957C14.0811 36.0496 14.1743 35.9938 14.2619 35.9289C14.3772 35.9527 14.4943 35.9649 14.6118 35.9654C15.4282 35.9654 16.1373 35.4045 16.1942 34.7204C16.2512 34.0362 15.6336 33.481 14.8172 33.481Z" fill="#F4F5F7"/>
<path d="M16.2474 33.8493C16.1188 33.8517 15.9911 33.8251 15.8729 33.7712C15.7547 33.7174 15.6487 33.6376 15.562 33.537C15.4752 33.4365 15.4097 33.3176 15.3697 33.1882C15.3298 33.0588 15.3163 32.9219 15.3303 32.7865C15.3581 32.4986 15.4848 32.2314 15.6863 32.0356C15.8878 31.8397 16.1501 31.7288 16.4237 31.7238H16.6159C16.7446 31.7212 16.8724 31.7476 16.9907 31.8014C17.1089 31.8552 17.215 31.935 17.3018 32.0356C17.3886 32.1362 17.4542 32.2552 17.494 32.3847C17.5339 32.5142 17.5472 32.6512 17.533 32.7865C17.5052 33.0745 17.3785 33.3417 17.177 33.5375C16.9756 33.7334 16.7132 33.8443 16.4396 33.8493H16.2474Z" fill="#011C3A"/>
<path d="M16.69 32.7841C16.707 32.8057 16.7196 32.8308 16.7269 32.8579C16.7342 32.8849 16.7361 32.9132 16.7324 32.9411C16.7291 32.9914 16.7131 33.0398 16.686 33.0813C16.6555 33.1244 16.6149 33.1583 16.5681 33.1794C16.51 33.2061 16.4471 33.219 16.3838 33.2173C16.3291 33.2173 16.2747 33.2092 16.2221 33.1935C16.1743 33.1809 16.1293 33.1585 16.0896 33.1276L16.1718 32.979C16.2019 33.0039 16.236 33.0229 16.2725 33.035C16.3111 33.048 16.3513 33.0546 16.3918 33.0547C16.4302 33.0563 16.4683 33.0465 16.5018 33.0266C16.5151 33.0184 16.5263 33.0067 16.5344 32.9928C16.5425 32.9789 16.5472 32.963 16.5482 32.9467C16.5482 32.8794 16.5071 32.8444 16.409 32.8444H16.3268L16.3374 32.7168L16.515 32.5233H16.1797L16.193 32.3677H16.7443L16.7337 32.4939L16.5389 32.7084C16.5964 32.7127 16.6503 32.7397 16.69 32.7841Z" fill="#F4F5F7"/>
<path opacity="0.2" d="M12.7895 42.1623H26.9708C27.4505 42.1532 27.9105 41.9584 28.2637 41.6148C28.6168 41.2712 28.8387 40.8026 28.8872 40.2976L31.8507 4.44771C31.8845 4.11227 31.8223 3.77382 31.6719 3.47631C31.5216 3.17879 31.2902 2.93595 31.0078 2.7793L12.3508 42.1062C12.4942 42.1447 12.6416 42.1636 12.7895 42.1623Z" fill="#F4F5F7"/>
<path d="M29.2864 43.2549L28.2871 45.3397L29.0903 46.0055L30.5627 43.7495L29.2864 43.2549Z" fill="#C9916C"/>
<path d="M29.5302 45.8088C29.5249 45.8061 29.5206 45.8018 29.5177 45.7965C29.5149 45.7912 29.5137 45.7851 29.5143 45.7791C29.5147 45.7731 29.517 45.7674 29.5208 45.7628C29.5246 45.7582 29.5298 45.7549 29.5355 45.7535C29.5567 45.7535 30.0365 45.6336 30.2181 45.7535C30.2515 45.7739 30.2757 45.8068 30.2857 45.8451C30.2936 45.8667 30.2946 45.8903 30.2887 45.9125C30.2827 45.9348 30.2701 45.9546 30.2525 45.9691C30.185 46.019 30.0259 46.0001 29.8801 45.957C29.7595 45.9181 29.6424 45.8685 29.5302 45.8088ZM29.631 45.798C29.8417 45.8923 30.1399 45.9786 30.2168 45.9179C30.2274 45.9098 30.2393 45.895 30.2287 45.8532C30.2265 45.8412 30.2216 45.8299 30.2142 45.8203C30.2068 45.8107 30.1972 45.803 30.1863 45.798C30.1703 45.7876 30.1529 45.7799 30.1346 45.7751C29.9668 45.751 29.796 45.7588 29.631 45.798Z" fill="#023773"/>
<path d="M29.5156 45.8037C29.5131 45.7992 29.5117 45.7941 29.5117 45.7889C29.5117 45.7837 29.5131 45.7786 29.5156 45.7741C29.5156 45.7592 29.6482 45.4466 29.8337 45.3698C29.8603 45.3581 29.8889 45.3521 29.9179 45.3521C29.9468 45.3521 29.9755 45.3581 30.002 45.3698C30.0776 45.4008 30.0895 45.4466 30.0829 45.4803C30.0683 45.6231 29.7105 45.797 29.5527 45.8185C29.5489 45.8198 29.5447 45.8198 29.5408 45.8185C29.5358 45.8183 29.5308 45.8168 29.5264 45.8142C29.5221 45.8116 29.5184 45.808 29.5156 45.8037ZM29.9623 45.4129C29.9283 45.3988 29.8902 45.3988 29.8562 45.4129C29.7368 45.4881 29.644 45.5999 29.5912 45.7323C29.7621 45.6878 30.006 45.5409 30.0232 45.4628C30.0232 45.4547 30.0232 45.4331 29.9768 45.4142H29.9596L29.9623 45.4129Z" fill="#023773"/>
<path d="M29.4586 45.6015L28.173 45.216C28.1496 45.2089 28.1245 45.2101 28.1019 45.2194C28.0792 45.2287 28.0604 45.2456 28.0484 45.2673L27.5077 46.2605C27.4842 46.3027 27.4782 46.3526 27.4909 46.3993C27.5035 46.4461 27.5339 46.4858 27.5753 46.5098L27.6097 46.5246C28.0763 46.6594 28.4951 46.7538 29.0676 46.9289C29.7489 47.1338 29.5514 47.1648 30.3479 47.4168C30.829 47.5677 31.0782 47.0368 30.8781 46.9478C29.9768 46.5435 29.9636 46.2308 29.7025 45.7821C29.6448 45.6944 29.5584 45.6304 29.4586 45.6015Z" fill="#011C3A"/>
<path opacity="0.1" d="M28.5972 44.6929L29.5687 45.2724L30.5627 43.7495L29.2864 43.2549L28.5972 44.6929Z" fill="#011C3A"/>
<path d="M40.3252 44.1L41.3948 46.1472L42.3649 45.6674L41.469 43.3413L40.3252 44.1Z" fill="#C9916C"/>
<path d="M42.5783 45.6014C42.5725 45.6028 42.5665 45.6025 42.5609 45.6006C42.5553 45.5987 42.5503 45.5952 42.5465 45.5906C42.5426 45.5856 42.5405 45.5794 42.5405 45.5731C42.5405 45.5667 42.5426 45.5606 42.5465 45.5556C42.5584 45.538 42.8421 45.1283 43.0515 45.092C43.0708 45.0879 43.0907 45.0878 43.1101 45.0918C43.1294 45.0957 43.1478 45.1036 43.1641 45.1149C43.1838 45.1259 43.1997 45.1428 43.2096 45.1633C43.2196 45.1837 43.2231 45.2068 43.2198 45.2294C43.2012 45.3116 43.07 45.406 42.9322 45.472C42.8182 45.5257 42.6998 45.569 42.5783 45.6014ZM42.6459 45.5259C42.8646 45.4531 43.1442 45.317 43.1628 45.2186C43.1628 45.2065 43.1628 45.1876 43.1297 45.1634C43.12 45.1559 43.1087 45.1508 43.0967 45.1485C43.0848 45.1462 43.0725 45.1466 43.0607 45.1499C43.0425 45.1537 43.0247 45.1596 43.0077 45.1674C42.866 45.2638 42.7433 45.3863 42.6459 45.5286V45.5259Z" fill="#023773"/>
<path d="M42.569 45.6096C42.5639 45.6087 42.5592 45.6065 42.5552 45.6032C42.5513 45.5999 42.5483 45.5956 42.5465 45.5907C42.5465 45.5759 42.4312 45.2578 42.5173 45.0719C42.5294 45.0448 42.5468 45.0206 42.5684 45.0006C42.5901 44.9807 42.6155 44.9655 42.6432 44.956C42.7188 44.929 42.7585 44.956 42.7758 44.9843C42.8579 45.1002 42.7042 45.4721 42.5982 45.5961C42.5954 45.5994 42.5917 45.6017 42.5876 45.6028C42.5825 45.6074 42.5758 45.6098 42.569 45.6096ZM42.6485 45.0153C42.6152 45.031 42.5884 45.0582 42.573 45.0921C42.5355 45.229 42.5401 45.3743 42.5862 45.5085C42.6856 45.3603 42.7718 45.0853 42.7294 45.0112C42.7294 45.0112 42.7121 44.9883 42.6631 45.0112L42.6485 45.0193V45.0153Z" fill="#023773"/>
<path d="M42.3915 45.5005L41.1775 46.0786C41.1554 46.0893 41.1376 46.1072 41.1267 46.1294C41.1159 46.1517 41.1128 46.177 41.1178 46.2013L41.3617 47.3104C41.3727 47.3569 41.4013 47.3971 41.4412 47.4223C41.4811 47.4475 41.5292 47.4557 41.5751 47.4452C41.5874 47.4424 41.5994 47.4383 41.6109 47.4331C42.0442 47.2174 42.422 47.0072 42.9667 46.7484C43.6095 46.4425 43.4823 46.5988 44.243 46.2498C44.7016 46.0396 44.5425 45.4735 44.3371 45.5396C43.4014 45.8468 43.1854 45.6191 42.6963 45.4601C42.5933 45.4353 42.4849 45.4497 42.3915 45.5005Z" fill="#011C3A"/>
<path opacity="0.1" d="M42.125 45.045L41.5869 43.6475L40.9375 43.6946L40.3252 44.1003L41.1098 45.6002L42.125 45.045Z" fill="#011C3A"/>
<path d="M38.9734 16.7869L39.3418 15.8907L39.7766 14.5013C39.7949 14.442 39.8265 14.3878 39.8687 14.3429C39.911 14.298 39.9629 14.2637 40.0204 14.2425L40.532 14.0538C40.6204 14.021 40.7174 14.0211 40.8058 14.0542C40.8941 14.0873 40.9681 14.1511 41.0144 14.2344L41.314 14.7735C41.3638 14.8636 41.3778 14.9696 41.3532 15.0699C41.3285 15.1701 41.2671 15.257 41.1814 15.3126L40.0814 16.0444L39.9343 17.0888L38.9734 16.7869Z" fill="#C9916C"/>
<path d="M34.6912 24.0117H36.7296C36.7296 24.0117 37.4678 26.7071 34.344 37.8659C34.3068 37.9995 34.2501 38.1267 34.1756 38.2432L29.9623 44.8468L28.7695 44.1393C28.7695 44.1393 29.9451 40.9844 31.1856 38.6044C31.4746 38.0478 31.7502 37.5977 31.9027 37.1112C31.9968 36.8106 32.0617 36.6044 32.0829 35.8484C32.1293 34.1422 32.2314 31.1652 32.4023 29.8323C32.4023 29.8323 30.7589 26.796 31.4547 24.0158L34.6912 24.0117Z" fill="#023773"/>
<path opacity="0.2" d="M34.6912 24.0117H36.7296C36.7296 24.0117 37.4678 26.7071 34.344 37.8659C34.3068 37.9995 34.2501 38.1267 34.1756 38.2432L29.9623 44.8468L28.7695 44.1393C28.7695 44.1393 29.9451 40.9844 31.1856 38.6044C31.4746 38.0478 31.7502 37.5977 31.9027 37.1112C31.9968 36.8106 32.0617 36.6044 32.0829 35.8484C32.1293 34.1422 32.2314 31.1652 32.4023 29.8323C32.4023 29.8323 30.7589 26.796 31.4547 24.0158L34.6912 24.0117Z" fill="#011C3A"/>
<path d="M36.0894 14.9201C36.4406 15.1681 37.1059 16.0292 38.0191 18.2489C38.036 18.2905 38.0651 18.3258 38.1025 18.3501C38.1398 18.3743 38.1836 18.3863 38.2279 18.3844C38.2722 18.3825 38.3148 18.3668 38.35 18.3394C38.3852 18.312 38.4112 18.2743 38.4246 18.2313L39.0449 16.222L40.1237 16.4255C40.1237 16.4255 39.7407 20.9631 38.418 20.9981C37.0953 21.0332 35.4267 16.9659 35.4267 16.9659C35.4267 16.9659 35.1921 15.6398 35.5658 15.0266C35.5928 14.9839 35.6278 14.9472 35.669 14.9187C35.7101 14.8901 35.7565 14.8703 35.8054 14.8604C35.8542 14.8504 35.9046 14.8506 35.9533 14.8609C36.0021 14.8711 36.0484 14.8913 36.0894 14.9201Z" fill="#023773"/>
<path opacity="0.2" d="M36.0894 14.9201C36.4406 15.1681 37.1059 16.0292 38.0191 18.2489C38.036 18.2905 38.0651 18.3258 38.1025 18.3501C38.1398 18.3743 38.1836 18.3863 38.2279 18.3844C38.2722 18.3825 38.3148 18.3668 38.35 18.3394C38.3852 18.312 38.4112 18.2743 38.4246 18.2313L39.0449 16.222L40.1237 16.4255C40.1237 16.4255 39.7407 20.9631 38.418 20.9981C37.0953 21.0332 35.4267 16.9659 35.4267 16.9659C35.4267 16.9659 35.1921 15.6398 35.5658 15.0266C35.5928 14.9839 35.6278 14.9472 35.669 14.9187C35.7101 14.8901 35.7565 14.8703 35.8054 14.8604C35.8542 14.8504 35.9046 14.8506 35.9533 14.8609C36.0021 14.8711 36.0484 14.8913 36.0894 14.9201Z" fill="#011C3A"/>
<path d="M31.1112 24.0117H35.188L35.5604 25.9335L42.0971 44.6339L40.8035 45.3414C40.8035 45.3414 38.0203 40.6583 36.7029 37.5074C36.4895 36.9966 36.3888 36.5034 36.2059 36.1435C36.0535 35.843 35.8865 35.7325 35.4107 35.0654C34.634 33.9657 33.5711 32.4266 32.7003 30.6019C32.5771 30.3445 32.5042 30.0628 32.3531 29.8296C32.1895 29.631 32.0377 29.4227 31.8985 29.2057C31.3511 28.3122 30.5652 26.5063 31.1112 24.0117Z" fill="#023773"/>
<path d="M40.3252 44.9584L42.0641 44.0137L42.2655 44.6552L40.7228 45.515L40.3252 44.9584Z" fill="#023773"/>
<path opacity="0.5" d="M40.3252 44.9584L42.0641 44.0137L42.2655 44.6552L40.7228 45.515L40.3252 44.9584Z" fill="#F4F5F7"/>
<path d="M28.7256 43.6499L30.3995 44.7092L29.9529 45.2078L28.45 44.2793L28.7256 43.6499Z" fill="#023773"/>
<path opacity="0.5" d="M28.7256 43.6499L30.3995 44.7092L29.9529 45.2078L28.45 44.2793L28.7256 43.6499Z" fill="#F4F5F7"/>
<path d="M29.5965 15.3544C29.471 15.4573 29.3791 15.5965 29.3332 15.7537C29.2873 15.9109 29.2895 16.0785 29.3394 16.2344C29.7025 17.3516 30.5508 20.0254 30.7019 21.0753C30.7973 21.7397 30.4514 23.1426 30.7019 23.7706C30.8366 24.0153 31.0446 24.2098 31.2956 24.3259C32.5772 24.7302 36.6686 24.3259 36.6686 24.3259C36.6686 24.3259 37.0225 24.1385 37.0662 24.0186C37.1749 23.6776 36.6686 22.6386 36.6686 22.6386C36.6686 22.6386 36.711 20.0632 36.6686 19.2074C36.6328 18.4864 36.5175 16.9621 36.4406 15.973C36.4179 15.6694 36.3106 15.3788 36.1313 15.1351C35.952 14.8914 35.708 14.7047 35.4281 14.597C34.1438 14.0983 31.7489 13.5903 29.5965 15.3544Z" fill="#023773"/>
<path opacity="0.5" d="M29.5951 15.3554C29.4701 15.4583 29.3787 15.5974 29.333 15.7543C29.2873 15.9112 29.2895 16.0785 29.3393 16.2341C29.7025 17.3499 30.5507 20.0251 30.7018 21.0749C30.7972 21.7393 30.4513 23.1423 30.7018 23.7703C30.8365 24.0149 31.0445 24.2095 31.2955 24.3255C32.389 24.6746 35.5274 24.428 36.426 24.3484C36.6237 24.3334 36.8122 24.2578 36.9667 24.1315C37.0069 24.1019 37.0396 24.0631 37.0622 24.0183C37.1708 23.6773 36.6646 22.6382 36.6646 22.6382C36.6646 22.6382 36.707 20.0628 36.6646 19.207C36.6288 18.486 36.5135 16.9618 36.4366 15.9726C36.4139 15.6695 36.3068 15.3791 36.1277 15.1357C35.9486 14.8922 35.7049 14.7057 35.4253 14.598C34.1451 14.098 31.7488 13.5899 29.5951 15.3554Z" fill="#F4F5F7"/>
<path d="M34.1623 16.6519C34.1623 16.6519 31.5182 16.2476 31.0769 14.6708C30.6355 13.0941 34.0231 13.2558 34.6725 14.5536C35.322 15.8514 34.1623 16.6519 34.1623 16.6519Z" fill="#023773"/>
<path opacity="0.2" d="M34.1623 16.6519C34.1623 16.6519 31.5182 16.2476 31.0769 14.6708C30.6355 13.0941 34.0231 13.2558 34.6725 14.5536C35.322 15.8514 34.1623 16.6519 34.1623 16.6519Z" fill="#011C3A"/>
<path d="M34.0456 16.2043C34.0456 16.2043 32.2829 15.897 32.0046 14.8566C31.7262 13.8162 33.8017 13.9604 34.3014 14.8566C34.6897 15.5574 34.0456 16.2043 34.0456 16.2043Z" fill="#C9916C"/>
<path d="M31.4931 24.188L32.3612 24.8834C32.6405 24.8691 32.9205 24.8754 33.1989 24.9023C33.3659 24.9579 33.5289 25.0254 33.6866 25.1044L32.7337 26.3295C32.6144 26.2646 32.4985 26.1935 32.3864 26.1165C32.1882 25.9309 31.9993 25.7352 31.8205 25.5303L30.9709 25.0438L31.4931 24.188Z" fill="#C9916C"/>
<path d="M35.2929 9.44434C35.2929 9.44434 35.7992 10.16 34.9867 10.1182C34.1743 10.0764 35.2929 9.44434 35.2929 9.44434Z" fill="#011C3A"/>
<path d="M32.1079 14.5848L32.2139 14.8813C32.7573 15.167 33.3127 15.4298 33.8799 15.663C34.1741 15.5039 34.0641 15.3328 34.1622 15.1886L34.2165 14.8557C33.7686 14.6225 33.6519 14.0767 33.697 13.6563C33.7098 13.527 33.7306 13.3987 33.7593 13.2722L32.8316 12.4824L32.1477 11.9097C32.316 12.6725 32.4962 13.9406 32.1079 14.5848Z" fill="#C9916C"/>
<path opacity="0.2" d="M33.7593 13.2722C33.7306 13.3987 33.7098 13.527 33.697 13.6563C33.3471 13.5862 32.8249 13.2695 32.7759 12.8692C32.7787 12.7385 32.797 12.6087 32.8302 12.4824L33.7593 13.2722Z" fill="#011C3A"/>
<path d="M32.218 10.2089C32.0762 11.3436 31.9344 11.9986 32.3877 12.694C33.0583 13.7398 34.499 13.5215 34.9642 12.4595C35.3896 11.5067 35.5394 9.80996 34.5533 9.13208C34.3416 8.97947 34.0943 8.88595 33.836 8.86085C33.5777 8.83575 33.3174 8.87994 33.0811 8.98903C32.8448 9.09812 32.6408 9.26828 32.4894 9.48255C32.3379 9.69682 32.2444 9.94772 32.218 10.2102V10.2089Z" fill="#C9916C"/>
<path d="M33.8297 10.9002C33.8138 10.9932 33.8469 11.0767 33.9052 11.0889C33.9635 11.101 34.0245 11.039 34.047 10.9446C34.0696 10.8503 34.0298 10.7695 33.9715 10.7573C33.9132 10.7452 33.8469 10.8099 33.8297 10.9002Z" fill="#011C3A"/>
<path d="M34.8819 11.1008C34.8647 11.1911 34.8991 11.276 34.9574 11.2882C35.0157 11.3003 35.0754 11.2369 35.0979 11.144C35.1205 11.051 35.082 10.9688 35.0237 10.9553C34.9654 10.9418 34.8938 11.0119 34.8819 11.1008Z" fill="#011C3A"/>
<path d="M34.4671 11.0898C34.5162 11.3486 34.594 11.6009 34.6991 11.8418C34.6376 11.8698 34.571 11.8843 34.5036 11.8843C34.4362 11.8843 34.3696 11.8698 34.3081 11.8418L34.4671 11.0898Z" fill="#593116"/>
<path d="M34.1544 12.4631C34.0498 12.4578 33.9474 12.4313 33.8532 12.385C33.7589 12.3387 33.6748 12.2736 33.6057 12.1936C33.6013 12.1881 33.5989 12.1812 33.5989 12.1741C33.5989 12.167 33.6013 12.1601 33.6057 12.1545C33.6106 12.15 33.617 12.1475 33.6236 12.1475C33.6302 12.1475 33.6366 12.15 33.6415 12.1545C33.7168 12.2422 33.811 12.3109 33.9167 12.3554C34.0225 12.3998 34.137 12.4187 34.2511 12.4106C34.2578 12.4102 34.2643 12.4123 34.2694 12.4165C34.2746 12.4208 34.278 12.4268 34.279 12.4335C34.279 12.4406 34.2764 12.4474 34.2718 12.4526C34.2671 12.4578 34.2607 12.4611 34.2538 12.4618L34.1544 12.4631Z" fill="#011C3A"/>
<path d="M33.5977 10.5172C33.5891 10.5174 33.5806 10.5146 33.5738 10.5091C33.5626 10.501 33.5548 10.4887 33.5524 10.4748C33.5499 10.461 33.5528 10.4467 33.5606 10.435C33.6082 10.3655 33.6717 10.3088 33.7455 10.2696C33.8193 10.2304 33.9014 10.21 33.9847 10.21C33.9916 10.2103 33.9984 10.212 34.0046 10.2151C34.0109 10.2181 34.0164 10.2224 34.021 10.2277C34.0256 10.233 34.0291 10.2392 34.0312 10.2458C34.0334 10.2525 34.0343 10.2596 34.0337 10.2666C34.0324 10.2807 34.0257 10.2938 34.0151 10.3031C34.0045 10.3124 33.9907 10.3172 33.9768 10.3164C33.9104 10.3154 33.8448 10.3312 33.786 10.3625C33.7272 10.3938 33.677 10.4396 33.6401 10.4957C33.6355 10.5027 33.6292 10.5084 33.6217 10.5122C33.6143 10.516 33.606 10.5177 33.5977 10.5172Z" fill="#011C3A"/>
<path d="M35.3644 10.7518C35.3558 10.7509 35.3475 10.748 35.3401 10.7434C35.3328 10.7387 35.3266 10.7324 35.322 10.7249C35.2901 10.6637 35.2446 10.6109 35.1892 10.5707C35.1337 10.5304 35.0698 10.5039 35.0026 10.4931C34.9956 10.4926 34.9888 10.4907 34.9826 10.4875C34.9763 10.4843 34.9708 10.4799 34.9662 10.4745C34.9616 10.4691 34.9582 10.4629 34.956 10.4561C34.9538 10.4493 34.953 10.4422 34.9535 10.4351C34.9549 10.4212 34.9614 10.4083 34.9717 10.399C34.982 10.3898 34.9954 10.3849 35.0092 10.3853C35.0933 10.3974 35.1734 10.43 35.2426 10.4801C35.3118 10.5303 35.3681 10.5967 35.4068 10.6737C35.4106 10.6796 35.4132 10.6863 35.4144 10.6934C35.4156 10.7004 35.4154 10.7076 35.4138 10.7145C35.4122 10.7214 35.4092 10.728 35.4051 10.7337C35.4009 10.7394 35.3956 10.7442 35.3896 10.7478C35.3816 10.751 35.373 10.7524 35.3644 10.7518Z" fill="#011C3A"/>
<path d="M32.0802 11.051C32.0802 11.051 33.0968 11.5496 32.7005 9.83809C32.7005 9.83809 33.8443 10.2842 34.3241 9.74644C34.3241 9.74644 35.9317 9.94051 35.7144 9.24106C35.7144 9.24106 35.8204 8.80846 35.1842 8.97153C35.1842 8.97153 35.2227 8.45537 34.5732 8.51871C34.5732 8.51871 34.4168 8.15349 33.8231 8.31656C33.8231 8.31656 33.7621 7.84217 32.9696 8.27478C32.9696 8.27478 31.9676 8.26669 32.128 8.94862C32.128 8.94862 30.792 8.9621 31.3407 9.79361C31.3407 9.79361 30.9272 10.1575 31.4176 10.4149C31.4202 10.4095 31.171 11.3798 32.0802 11.051Z" fill="#011C3A"/>
<path d="M31.6018 11.164C31.664 11.4393 31.8181 11.6841 32.0378 11.8567C32.3215 12.0683 32.5348 11.8123 32.5189 11.4524C32.5044 11.1276 32.3413 10.625 32.0286 10.5589C31.7158 10.4929 31.5262 10.8163 31.6018 11.164Z" fill="#C9916C"/>
<path d="M29.4691 15.4281C29.2914 15.549 29.1435 15.71 29.0371 15.8985C28.6156 16.6559 27.5129 18.8715 27.6534 21.11C27.8283 23.87 31.5486 25.4225 31.5486 25.4225L32.1026 24.5007C32.1026 24.5007 28.4619 21.5736 30.1146 18.5602C30.1185 18.5615 32.0695 13.6613 29.4691 15.4281Z" fill="#023773"/>
<path opacity="0.2" d="M29.4691 15.4281C29.2914 15.549 29.1435 15.71 29.0371 15.8985C28.6156 16.6559 27.5129 18.8715 27.6534 21.11C27.8283 23.87 31.5486 25.4225 31.5486 25.4225L32.1026 24.5007C32.1026 24.5007 28.4619 21.5736 30.1146 18.5602C30.1185 18.5615 32.0695 13.6613 29.4691 15.4281Z" fill="#011C3A"/>
<path d="M33.9105 16.4971L34.0761 16.5227L33.9025 18.1507L33.6838 18.1722L33.9105 16.4971Z" fill="#023773"/>
<path d="M34.2432 16.4135L34.3757 16.2896C34.5893 16.5049 34.7585 16.7613 34.8737 17.0438C34.9888 17.3263 35.0475 17.6293 35.0463 17.9351L34.8648 18.0146C34.8648 18.0146 34.7654 16.803 34.2432 16.4135Z" fill="#023773"/>
<path d="M33.5646 24.8608L32.2207 26.6775L32.7893 27.0077L34.1504 25.1439L33.5646 24.8608Z" fill="#023773"/>
<path opacity="0.2" d="M33.5646 24.8608L32.2207 26.6775L32.7893 27.0077L34.1504 25.1439L33.5646 24.8608Z" fill="#011C3A"/>
<path opacity="0.1" d="M36.3491 22.7031C35.0839 22.9169 33.7996 22.9905 32.5188 22.9228C32.5188 22.9228 35.6214 23.7179 36.3491 22.7031Z" fill="#011C3A"/>
<path d="M39.9421 15.8178H39.363C39.3423 15.8176 39.3219 15.812 39.3039 15.8017C39.2858 15.7914 39.2706 15.7767 39.2597 15.7588C39.2487 15.7409 39.2423 15.7206 39.2412 15.6995C39.24 15.6785 39.244 15.6575 39.253 15.6385L40.3437 13.365C40.368 13.3147 40.4058 13.2725 40.4527 13.2432C40.4996 13.2138 40.5537 13.1986 40.6088 13.1992H41.1893C41.21 13.1991 41.2304 13.2043 41.2485 13.2144C41.2666 13.2246 41.2818 13.2393 41.2928 13.2572C41.3037 13.275 41.3099 13.2954 41.3108 13.3165C41.3117 13.3375 41.3073 13.3584 41.298 13.3771L40.2072 15.6507C40.1834 15.7014 40.1457 15.7441 40.0988 15.7737C40.0518 15.8033 39.9974 15.8186 39.9421 15.8178Z" fill="#023773"/>
<path opacity="0.2" d="M41.2954 13.2691C41.2859 13.2474 41.2705 13.2291 41.251 13.2161C41.2315 13.2032 41.2087 13.1963 41.1854 13.1963H40.6049C40.5498 13.1957 40.4957 13.2109 40.4488 13.2402C40.4019 13.2696 40.3641 13.3118 40.3398 13.3621L39.5208 15.0696L41.2954 13.2691Z" fill="#F4F5F7"/>
<path d="M41.1854 13.1963H41.1655C41.1644 13.209 41.1608 13.2214 41.1549 13.2327L40.0641 15.5062C40.0403 15.5569 40.0027 15.5997 39.9557 15.6293C39.9087 15.6589 39.8543 15.6742 39.7991 15.6733H39.2424C39.2409 15.6904 39.243 15.7076 39.2484 15.7238C39.2537 15.74 39.2624 15.7549 39.2737 15.7676C39.285 15.7802 39.2988 15.7904 39.3142 15.7973C39.3296 15.8043 39.3462 15.808 39.363 15.8081H39.9422C39.9975 15.809 40.0518 15.7937 40.0988 15.764C40.1458 15.7344 40.1834 15.6917 40.2073 15.641L41.298 13.3675C41.306 13.3487 41.3092 13.3281 41.3074 13.3077C41.3055 13.2873 41.2987 13.2677 41.2875 13.2507C41.2763 13.2337 41.2611 13.2198 41.2432 13.2103C41.2254 13.2008 41.2055 13.196 41.1854 13.1963Z" fill="#023773"/>
<path opacity="0.2" d="M41.1854 13.1963H41.1655C41.1644 13.209 41.1608 13.2214 41.1549 13.2327L40.0641 15.5062C40.0403 15.5569 40.0027 15.5997 39.9557 15.6293C39.9087 15.6589 39.8543 15.6742 39.7991 15.6733H39.2424C39.2409 15.6904 39.243 15.7076 39.2484 15.7238C39.2537 15.74 39.2624 15.7549 39.2737 15.7676C39.285 15.7802 39.2988 15.7904 39.3142 15.7973C39.3296 15.8043 39.3462 15.808 39.363 15.8081H39.9422C39.9975 15.809 40.0518 15.7937 40.0988 15.764C40.1458 15.7344 40.1834 15.6917 40.2073 15.641L41.298 13.3675C41.306 13.3487 41.3092 13.3281 41.3074 13.3077C41.3055 13.2873 41.2987 13.2677 41.2875 13.2507C41.2763 13.2337 41.2611 13.2198 41.2432 13.2103C41.2254 13.2008 41.2055 13.196 41.1854 13.1963Z" fill="#011C3A"/>
<path d="M40.9694 14.2354L40.7984 14.1316C40.7573 14.1063 40.7106 14.092 40.6626 14.0901C40.6145 14.0881 40.5668 14.0987 40.5239 14.1206C40.481 14.1426 40.4442 14.1753 40.4171 14.2156C40.39 14.256 40.3735 14.3026 40.369 14.3513L40.2802 15.2785C40.2728 15.3546 40.2952 15.4306 40.3425 15.4901L40.426 15.5925C40.4374 15.607 40.4524 15.6182 40.4695 15.6248C40.4866 15.6314 40.5051 15.6332 40.5231 15.63C40.5411 15.6269 40.558 15.6188 40.5719 15.6068C40.5858 15.5947 40.5963 15.5791 40.6022 15.5615L41.0131 14.3594C41.0208 14.3367 41.0207 14.3121 41.0127 14.2896C41.0048 14.267 40.9895 14.2479 40.9694 14.2354Z" fill="#C9916C"/>
</g>
<defs>
<filter id="filter0_d_1655_1184" x="0" y="0" width="56" height="56" filterUnits="userSpaceOnUse" color-interpolation-filters="sRGB">
<feFlood flood-opacity="0" result="BackgroundImageFix"/>
<feColorMatrix in="SourceAlpha" type="matrix" values="0 0 0 0 0 0 0 0 0 0 0 0 0 0 0 0 0 0 127 0" result="hardAlpha"/>
<feOffset dy="4"/>
<feGaussianBlur stdDeviation="2"/>
<feComposite in2="hardAlpha" operator="out"/>
<feColorMatrix type="matrix" values="0 0 0 0 0 0 0 0 0 0 0 0 0 0 0 0 0 0 0.25 0"/>
<feBlend mode="normal" in2="BackgroundImageFix" result="effect1_dropShadow_1655_1184"/>
<feBlend mode="normal" in="SourceGraphic" in2="effect1_dropShadow_1655_1184" result="shape"/>
</filter>
</defs>
</svg>
