<svg width="40" height="44" viewBox="0 0 40 44" fill="none" xmlns="http://www.w3.org/2000/svg">
<path d="M30 8L24 2H6C4.93913 2 3.92172 2.42143 3.17157 3.17157C2.42143 3.92172 2 4.93913 2 6V38C2 39.0609 2.42143 40.0783 3.17157 40.8284C3.92172 41.5786 4.93913 42 6 42H30C31.0609 42 32.0783 41.5786 32.8284 40.8284C33.5786 40.0783 34 39.0609 34 38M10 34H12M30.8 17.2002C31.5956 16.4045 32.6748 15.9575 33.8 15.9575C34.9252 15.9575 36.0043 16.4045 36.8 17.2002C37.5956 17.9958 38.0426 19.0749 38.0426 20.2002C38.0426 21.3254 37.5956 22.4045 36.8 23.2002L28 32.0002L20 34.0002L22 26.0002L30.8 17.2002Z" stroke="#034EA2" stroke-width="4" stroke-linecap="round" stroke-linejoin="round"/>
</svg>
