<svg width="168" height="79" viewBox="0 0 518 242" fill="none" xmlns="http://www.w3.org/2000/svg">
<path d="M349.301 72.4176C349.301 95.7929 333.19 110.468 313.277 110.468C304.753 110.468 297.841 107.894 292.82 102.727V135.61H267.081V35.6073H291.603V42.9358C296.473 37.0916 303.667 34.3669 313.277 34.3669C333.19 34.3669 349.301 49.0424 349.301 72.4176ZM323.299 72.4176C323.299 61.2748 316.518 54.8862 307.863 54.8862C299.208 54.8862 292.427 61.2748 292.427 72.4176C292.427 83.5605 299.208 89.949 307.863 89.949C316.518 89.949 323.299 83.5416 323.299 72.4176Z" fill="#007932"/>
<path d="M355.671 13.717C355.671 5.97584 361.908 0 371.388 0C380.866 0 387.105 5.56238 387.105 13.3225C387.105 21.478 380.866 27.453 371.388 27.453C361.908 27.4341 355.671 21.459 355.671 13.717ZM358.518 35.5892H384.257V109.229H358.518V35.5892Z" fill="#007932"/>
<path d="M395.402 108.383C415.766 107.03 436.56 94.647 457.391 80.761C477.21 67.9458 497.086 53.8152 516.513 51.8423V39.3468C476.705 43.5557 435.117 95.3424 395.421 96.6951V108.383H395.402Z" fill="#EF4123"/>
<path d="M395.402 83.6557C415.766 82.3031 436.56 69.9197 457.391 56.0337C477.21 43.2189 497.086 29.088 516.513 27.1155V14.6196C476.705 18.8289 435.117 70.6152 395.421 71.9683V83.6557H395.402Z" fill="#FDB913"/>
<path d="M453.679 109.172C454.915 108.364 456.151 107.537 457.388 106.71C477.208 93.8952 497.083 79.765 516.51 77.7917V65.2962C489.384 68.1709 461.434 93.1245 433.803 109.172H453.679Z" fill="#007932"/>
<path d="M464.397 13.9991C441.243 29.3885 418.013 46.5064 395.402 47.277V58.9458C415.766 57.5928 436.56 45.21 457.391 31.324C466.608 25.3674 475.824 19.1475 485.003 13.9801H464.397V13.9991Z" fill="#034EA2"/>
<path d="M0.750977 193.127C0.750977 165.205 21.9942 144.818 50.6563 144.818C65.1931 144.818 77.819 149.816 86.4363 159.53L77.6878 168.023C70.4194 160.338 61.5402 156.824 51.199 156.824C29.9558 156.824 14.2012 172.214 14.2012 193.127C14.2012 214.041 29.9368 229.412 51.199 229.412C61.5587 229.412 70.4383 225.766 77.6878 218.081L86.4363 226.574C77.819 236.289 65.1931 241.419 50.5247 241.419C22.0127 241.438 0.750977 221.069 0.750977 193.127Z" fill="#034EA2"/>
<path d="M97.1667 146.715C97.1667 141.999 100.932 138.222 105.915 138.222C110.898 138.222 114.663 141.868 114.663 146.452C114.663 151.301 111.029 155.096 105.915 155.096C100.932 155.077 97.1667 151.451 97.1667 146.715ZM99.4521 168.851H112.359V240.367H99.4521V168.851Z" fill="#034EA2"/>
<path d="M197.224 240.367H184.841V229.037C179.052 237.135 169.911 241.175 159.42 241.175C138.57 241.175 123.378 226.463 123.378 204.609C123.378 182.756 138.57 168.175 159.42 168.175C169.517 168.175 178.378 171.951 184.298 179.636V140.233H197.224V240.367ZM184.448 204.609C184.448 189.37 174.088 179.505 160.507 179.505C146.794 179.505 136.435 189.351 136.435 204.609C136.435 219.848 146.794 229.845 160.507 229.845C174.088 229.826 184.448 219.848 184.448 204.609Z" fill="#034EA2"/>
<path d="M271.201 197.187V240.367H258.968V230.915C254.659 237.398 246.735 241.175 235.57 241.175C219.422 241.175 209.213 232.531 209.213 220.13C209.213 208.667 216.612 199.216 237.855 199.216H258.294V196.66C258.294 185.724 251.98 179.392 239.186 179.392C230.718 179.392 222.101 182.361 216.593 187.077L211.217 177.363C218.617 171.425 229.238 168.193 240.666 168.193C260.167 168.174 271.201 177.626 271.201 197.187ZM258.275 218.495V208.517H238.362C225.586 208.517 221.951 213.515 221.951 219.585C221.951 226.744 227.871 231.178 237.687 231.178C247.391 231.178 255.053 226.725 258.275 218.495Z" fill="#034EA2"/>
<path d="M355.781 240.367H343.399V229.037C337.61 237.135 328.469 241.175 317.978 241.175C297.128 241.175 281.935 226.463 281.935 204.609C281.935 182.756 297.128 168.175 317.978 168.175C328.075 168.175 336.936 171.951 342.855 179.636V140.233H355.781V240.367ZM343.005 204.609C343.005 189.37 332.646 179.505 319.064 179.505C305.352 179.505 294.992 189.351 294.992 204.609C294.992 219.848 305.352 229.845 319.064 229.845C332.646 229.826 343.005 219.848 343.005 204.609Z" fill="#034EA2"/>
<path d="M429.738 197.186V240.366H417.505V230.915C413.197 237.397 405.273 241.174 394.108 241.174C377.959 241.174 367.75 232.53 367.75 220.129C367.75 208.667 375.149 199.215 396.393 199.215H416.831V196.66C416.831 185.724 410.517 179.391 397.723 179.391C389.255 179.391 380.638 182.36 375.131 187.077L369.754 177.362C377.154 171.424 387.776 168.192 399.203 168.192C418.704 168.173 429.738 177.625 429.738 197.186ZM384.816 157.388H377.548C377.809 147.41 382.924 140.927 390.735 140.927C399.353 140.927 403.643 150.097 408.626 150.097C412.522 150.097 415.22 146.996 415.482 141.998H422.75C422.488 151.582 417.374 158.045 409.562 158.045C400.945 158.045 396.655 149.007 391.672 149.007C387.776 149.007 385.078 152.126 384.816 157.388ZM416.831 218.494V208.516H396.917C384.142 208.516 380.507 213.515 380.507 219.584C380.507 226.743 386.427 231.178 396.243 231.178C405.928 231.178 413.59 226.724 416.831 218.494Z" fill="#034EA2"/>
<path d="M443.172 204.608C443.172 183.3 458.908 168.174 480.301 168.174C501.694 168.174 517.299 183.281 517.299 204.608C517.299 225.936 501.694 241.175 480.301 241.175C458.908 241.175 443.172 225.917 443.172 204.608ZM504.242 204.608C504.242 189.37 494.014 179.504 480.301 179.504C466.589 179.504 456.229 189.351 456.229 204.608C456.229 219.848 466.589 229.844 480.301 229.844C494.014 229.826 504.242 219.848 504.242 204.608Z" fill="#034EA2"/>
<path d="M98.428 73.2261C98.428 51.7674 114.276 36.5473 135.819 36.5473C157.363 36.5473 173.061 51.7674 173.061 73.2261C173.061 94.6848 157.344 110.036 135.819 110.036C114.295 110.036 98.428 94.6848 98.428 73.2261ZM159.929 73.2261C159.929 57.8744 149.644 47.9532 135.819 47.9532C122.013 47.9532 111.579 57.8744 111.579 73.2261C111.579 88.5777 122.013 98.6305 135.819 98.6305C149.644 98.6305 159.929 88.5777 159.929 73.2261Z" fill="#011B39"/>
<path d="M249.885 37.2239L218.469 109.229H205.187L173.754 37.2239H187.297L211.951 94.9667L237.146 37.2239H249.885Z" fill="#011B39"/>
<path d="M239.731 100.679C239.731 95.2487 243.927 91.434 248.947 91.434C253.818 91.434 257.883 95.2297 257.883 100.679C257.883 106.109 253.818 110.055 248.947 110.055C243.927 110.036 239.731 106.109 239.731 100.679Z" fill="#011B39"/>
<path d="M86.5333 61.1674V98.3112C77.0429 106.346 63.8732 110.429 50.5924 110.429C21.4227 110.429 0 89.8832 0 61.7152C0 33.5471 21.4227 12.9978 50.8732 12.9997C65.9372 12.9997 78.6739 18.0428 87.3604 27.6945L78.9565 36.1244C71.0967 28.5056 62.1297 25.0984 51.4175 25.0984C29.4523 25.0984 13.5821 40.4708 13.5821 61.6962C13.5805 82.6564 29.4523 98.2922 51.2859 98.2938C59.2963 98.2925 66.7433 96.5246 73.5352 92.1777V72.5541H51.5561V61.1536C63.2096 61.1536 74.8992 61.1674 86.5333 61.1674Z" fill="#011B39"/>
</svg>
