<svg width="65" height="24" viewBox="0 0 65 24" fill="none" xmlns="http://www.w3.org/2000/svg">
<path d="M6.96433 14.9968C8.51299 14.9968 9.74717 13.6903 9.74717 11.7561C9.86691 10.2377 8.73403 8.9101 7.21564 8.78905C7.13275 8.78247 7.04854 8.77984 6.96433 8.78115C5.34594 8.78115 4.49859 10.2088 4.49859 11.9258C4.49728 13.885 5.65778 14.9968 6.96433 14.9968ZM13.9537 16.8586C13.9537 22.0335 11.4406 23.7019 6.3604 23.7019C4.72359 23.7059 3.09599 23.4374 1.54734 22.9046L1.76444 19.4691C3.07099 20.1757 4.53675 20.5335 6.02225 20.5099C8.53798 20.5099 9.8919 19.3257 9.8919 16.8586V16.1797H9.84322C8.89587 17.577 7.29722 18.3902 5.61041 18.3323C2.15127 18.3323 0 15.7218 0 11.9942C0 8.24432 1.76444 5.44043 5.68278 5.44043C7.46959 5.4549 9.10771 6.43646 9.96296 8.00485H10.013V5.73384H13.9537V16.8573V16.8586Z" fill="white"/>
<path d="M31.5045 18.318H36.3478L40.9016 5.7959H36.6715L34.1031 14.7168H34.0557L31.5071 5.7959H26.9414L31.5045 18.318Z" fill="white"/>
<path d="M24.1128 12.0604C24.1128 10.1867 23.2957 8.52884 21.301 8.52884C19.3063 8.52884 18.4905 10.1867 18.4905 12.0604C18.4905 13.9103 19.3076 15.5682 21.301 15.5682C23.2944 15.5682 24.1128 13.9103 24.1128 12.0604ZM14.0222 12.0604C14.0222 7.90386 17.1682 5.50391 21.301 5.50391C25.4338 5.50391 28.5798 7.90649 28.5798 12.0604C28.5798 16.1932 25.4338 18.5944 21.301 18.5944C17.1682 18.5944 14.0222 16.1932 14.0222 12.0604Z" fill="white"/>
<path d="M41.3912 16.548C41.3912 17.6822 40.4714 18.6006 39.3373 18.6006C38.2031 18.6006 37.2847 17.6809 37.2847 16.5467C37.2847 15.4139 38.2031 14.4955 39.3373 14.4941C40.4701 14.4928 41.3898 15.4112 41.3912 16.5441C41.3912 16.5454 41.3912 16.5467 41.3912 16.548Z" fill="white"/>
<path d="M48.7517 8.82877C47.1662 8.82877 46.1083 10.2208 46.1083 12.0958C46.1083 13.9221 47.3109 15.2931 48.7517 15.2931C50.3858 15.2931 51.3714 13.9221 51.3714 11.9274C51.3714 10.2708 50.4345 8.82877 48.7517 8.82877ZM41.7834 0.297363H46.1346V7.41169H46.1833C47.2241 6.11698 48.828 5.4091 50.4858 5.51436C53.9463 5.51436 55.8423 8.80509 55.8423 11.834C55.8423 15.5339 53.8489 18.6115 50.1227 18.6115C48.3201 18.6812 46.6399 17.6957 45.8215 16.0878H45.7728V18.3246H41.7808V0.298679H41.7834V0.297363Z" fill="white"/>
<path d="M64.7801 9.2617C64.3012 9.14196 63.8078 9.09328 63.3144 9.11828C61.296 9.11828 60.1684 10.584 60.1684 13.0353V18.3234H55.8408V5.79598H59.7855V8.10383H59.8342C60.3802 6.53149 61.871 5.48677 63.5341 5.50914C64.0262 5.51704 64.5156 5.56572 64.9998 5.65256L64.7801 9.2617Z" fill="white"/>
</svg>
