<svg width="64" height="30" viewBox="0 0 518 242" fill="none" xmlns="http://www.w3.org/2000/svg">
<path d="M371.388 0C361.908 0 355.671 5.97584 355.671 13.717C355.671 21.459 361.908 27.4341 371.388 27.453C380.866 27.453 387.105 21.478 387.105 13.3225C387.105 5.56238 380.866 0 371.388 0Z" fill="white"/>
<path d="M384.257 35.5892H358.518V109.229H384.257V35.5892Z" fill="white"/>
<path fill-rule="evenodd" clip-rule="evenodd" d="M349.301 72.4176C349.301 95.7929 333.19 110.468 313.277 110.468C304.753 110.468 297.841 107.894 292.82 102.727V135.61H267.081V35.6073H291.603V42.9358C296.473 37.0916 303.667 34.3669 313.277 34.3669C333.19 34.3669 349.301 49.0424 349.301 72.4176ZM323.299 72.4176C323.299 61.2748 316.518 54.8862 307.863 54.8862C299.208 54.8862 292.427 61.2748 292.427 72.4176C292.427 83.5605 299.208 89.949 307.863 89.949C316.518 89.949 323.299 83.5416 323.299 72.4176Z" fill="white"/>
<path fill-rule="evenodd" clip-rule="evenodd" d="M98.428 73.2261C98.428 51.7674 114.276 36.5473 135.819 36.5473C157.363 36.5473 173.061 51.7674 173.061 73.2261C173.061 94.6848 157.344 110.036 135.819 110.036C114.295 110.036 98.428 94.6848 98.428 73.2261ZM159.929 73.2261C159.929 57.8744 149.644 47.9532 135.819 47.9532C122.013 47.9532 111.579 57.8744 111.579 73.2261C111.579 88.5777 122.013 98.6305 135.819 98.6305C149.644 98.6305 159.929 88.5777 159.929 73.2261Z" fill="white"/>
<path d="M249.885 37.2239L218.469 109.229H205.187L173.754 37.2239H187.297L211.951 94.9667L237.146 37.2239H249.885Z" fill="white"/>
<path d="M248.947 91.434C243.927 91.434 239.731 95.2487 239.731 100.679C239.731 106.109 243.927 110.036 248.947 110.055C253.818 110.055 257.883 106.109 257.883 100.679C257.883 95.2297 253.818 91.434 248.947 91.434Z" fill="white"/>
<path d="M395.402 108.383L395.421 108.381V108.383H395.402Z" fill="white"/>
<path d="M395.421 108.381V96.6951C415.847 95.9991 436.773 81.95 457.7 67.9003C477.444 54.6454 497.188 41.39 516.513 39.3468V51.8423C498.976 53.6233 481.073 65.3116 463.176 76.996C461.247 78.2552 459.319 79.5143 457.391 80.761C436.566 94.6426 415.779 107.022 395.421 108.381Z" fill="white"/>
<path d="M395.421 83.6545L395.402 83.6557H395.421V83.6545Z" fill="white"/>
<path d="M395.421 83.6545C415.779 82.2954 436.566 69.9154 457.391 56.0337C459.32 54.7865 461.249 53.5268 463.179 52.2671C481.075 40.5835 498.977 28.896 516.513 27.1155V14.6196C497.188 16.663 477.444 29.9184 457.7 43.1733C436.773 57.2229 415.847 71.272 395.421 71.9683V83.6545Z" fill="white"/>
<path d="M453.679 109.172C454.915 108.364 456.151 107.537 457.388 106.71C459.313 105.465 461.239 104.208 463.165 102.951L463.172 102.946C481.069 91.2618 498.973 79.5731 516.51 77.7917V65.2962C497.187 67.344 477.446 80.5955 457.699 93.8505C449.726 99.2028 441.751 104.556 433.803 109.172H453.679Z" fill="white"/>
<path d="M457.777 18.4294L457.779 18.4279C459.986 16.9463 462.192 15.4649 464.397 13.9991V13.9801H485.003C477.697 18.093 470.368 22.8727 463.033 27.6557C461.152 28.882 459.272 30.1085 457.391 31.324C436.56 45.21 415.766 57.5928 395.402 58.9458V47.2771C415.859 46.5798 436.822 32.5021 457.777 18.4294Z" fill="white"/>
<path d="M0.750946 193.127C0.750946 165.205 21.9941 144.818 50.6563 144.818C65.1931 144.818 77.819 149.816 86.4363 159.53L77.6878 168.023C70.4193 160.338 61.5401 156.824 51.1989 156.824C29.9557 156.824 14.2012 172.214 14.2012 193.127C14.2012 214.041 29.9368 229.412 51.1989 229.412C61.5587 229.412 70.4383 225.766 77.6878 218.081L86.4363 226.574C77.819 236.289 65.1931 241.419 50.5247 241.419C22.0127 241.438 0.750946 221.069 0.750946 193.127Z" fill="white"/>
<path d="M105.915 138.222C100.932 138.222 97.1667 141.999 97.1667 146.715C97.1667 151.451 100.932 155.077 105.915 155.096C111.029 155.096 114.663 151.301 114.663 146.452C114.663 141.868 110.898 138.222 105.915 138.222Z" fill="white"/>
<path d="M112.359 168.851H99.4521V240.367H112.359V168.851Z" fill="white"/>
<path fill-rule="evenodd" clip-rule="evenodd" d="M197.224 240.367H184.841V229.037C179.052 237.135 169.911 241.175 159.42 241.175C138.57 241.175 123.378 226.463 123.378 204.609C123.378 182.756 138.57 168.175 159.42 168.175C169.517 168.175 178.378 171.951 184.298 179.636V140.233H197.224V240.367ZM184.448 204.609C184.448 189.37 174.088 179.505 160.507 179.505C146.794 179.505 136.435 189.351 136.435 204.609C136.435 219.848 146.794 229.845 160.507 229.845C174.088 229.826 184.448 219.848 184.448 204.609Z" fill="white"/>
<path fill-rule="evenodd" clip-rule="evenodd" d="M271.201 240.367V197.187C271.201 177.626 260.167 168.174 240.666 168.193C229.239 168.193 218.617 171.425 211.217 177.363L216.593 187.077C222.101 182.361 230.718 179.392 239.186 179.392C251.98 179.392 258.294 185.724 258.294 196.66V199.216H237.855C216.612 199.216 209.213 208.667 209.213 220.13C209.213 232.531 219.422 241.175 235.57 241.175C246.735 241.175 254.659 237.398 258.968 230.915V240.367H271.201ZM258.275 208.517V218.495C255.053 226.725 247.391 231.178 237.687 231.178C227.871 231.178 221.951 226.744 221.951 219.585C221.951 213.515 225.586 208.517 238.362 208.517H258.275Z" fill="white"/>
<path fill-rule="evenodd" clip-rule="evenodd" d="M355.781 240.367H343.399V229.037C337.61 237.135 328.469 241.175 317.978 241.175C297.128 241.175 281.935 226.463 281.935 204.609C281.935 182.756 297.128 168.175 317.978 168.175C328.075 168.175 336.936 171.951 342.855 179.636V140.233H355.781V240.367ZM343.005 204.609C343.005 189.37 332.646 179.505 319.064 179.505C305.352 179.505 294.992 189.351 294.992 204.609C294.992 219.848 305.352 229.845 319.064 229.845C332.646 229.826 343.005 219.848 343.005 204.609Z" fill="white"/>
<path fill-rule="evenodd" clip-rule="evenodd" d="M429.738 240.366V197.186C429.738 177.625 418.704 168.173 399.203 168.192C387.776 168.192 377.154 171.424 369.754 177.362L375.131 187.077C380.638 182.36 389.255 179.391 397.723 179.391C410.517 179.391 416.831 185.724 416.831 196.66V199.215H396.393C375.149 199.215 367.75 208.667 367.75 220.129C367.75 232.53 377.959 241.174 394.108 241.174C405.273 241.174 413.197 237.397 417.505 230.915V240.366H429.738ZM416.831 208.516V218.494C413.59 226.724 405.928 231.178 396.243 231.178C386.427 231.178 380.507 226.743 380.507 219.584C380.507 213.515 384.142 208.516 396.917 208.516H416.831Z" fill="white"/>
<path d="M377.548 157.388H384.816C385.078 152.126 387.776 149.007 391.672 149.007C393.825 149.007 395.848 150.694 398.146 152.609C401.169 155.129 404.667 158.045 409.562 158.045C417.374 158.045 422.488 151.582 422.75 141.998H415.482C415.22 146.996 412.522 150.097 408.626 150.097C406.473 150.097 404.45 148.386 402.152 146.442C399.129 143.886 395.63 140.927 390.735 140.927C382.924 140.927 377.809 147.41 377.548 157.388Z" fill="white"/>
<path fill-rule="evenodd" clip-rule="evenodd" d="M443.172 204.608C443.172 183.3 458.908 168.174 480.301 168.174C501.694 168.174 517.299 183.281 517.299 204.608C517.299 225.936 501.694 241.175 480.301 241.175C458.908 241.175 443.172 225.917 443.172 204.608ZM504.242 204.608C504.242 189.37 494.014 179.504 480.301 179.504C466.589 179.504 456.229 189.351 456.229 204.608C456.229 219.848 466.589 229.844 480.301 229.844C494.014 229.826 504.242 219.848 504.242 204.608Z" fill="white"/>
<path d="M86.5333 98.3112V61.1674C80.7187 61.1674 74.8902 61.164 69.0593 61.1605C63.2235 61.157 57.3853 61.1536 51.5561 61.1536V72.5541H73.5352V92.1777C66.7433 96.5246 59.2963 98.2925 51.2859 98.2938C29.4523 98.2922 13.5805 82.6564 13.5821 61.6962C13.5821 40.4708 29.4523 25.0984 51.4175 25.0984C62.1297 25.0984 71.0967 28.5056 78.9565 36.1244L87.3604 27.6945C78.6739 18.0428 65.9372 12.9997 50.8732 12.9997C21.4227 12.9978 0 33.5471 0 61.7152C0 89.8832 21.4227 110.429 50.5924 110.429C63.8732 110.429 77.0429 106.346 86.5333 98.3112Z" fill="white"/>
</svg>
