<svg width="84" height="20" viewBox="0 0 84 20" fill="none" xmlns="http://www.w3.org/2000/svg">
<path d="M11.8116 9.01471H13.9032V14.4851C12.3782 15.6684 10.2624 16.2697 8.12854 16.2697C3.4419 16.2697 0 13.2436 0 9.09507C0 4.94657 3.4419 1.92041 8.17375 1.92041C10.5939 1.92041 12.6404 2.6631 14.0358 4.08473L12.6856 5.32623C11.4228 4.20389 9.98211 3.7023 8.26116 3.7023C4.73186 3.7023 2.18208 5.96638 2.18208 9.0923C2.18208 12.1794 4.73185 14.4823 8.24006 14.4823C9.527 14.4823 10.7235 14.2218 11.8146 13.5817V9.01471H11.8116Z" fill="#F8F8F8"/>
<path d="M15.8201 10.7995C15.8201 7.63481 18.3698 5.39014 21.8359 5.39014C25.3019 5.39014 27.8275 7.63481 27.8275 10.7995C27.8275 13.9643 25.2988 16.2283 21.8359 16.2283C18.3729 16.2283 15.8201 13.9643 15.8201 10.7995ZM25.7148 10.7995C25.7148 8.53546 24.0601 7.07226 21.8359 7.07226C19.6146 7.07226 17.9358 8.53546 17.9358 10.7995C17.9358 13.0636 19.6146 14.5462 21.8359 14.5462C24.0601 14.5462 25.7148 13.0636 25.7148 10.7995Z" fill="#F8F8F8"/>
<path d="M40.1875 5.48975L35.1332 16.109H32.9963L27.939 5.48975H30.118L34.0844 14.0057L38.1381 5.48975H40.1875Z" fill="#F8F8F8"/>
<path d="M38.554 14.8483C38.554 14.0474 39.2291 13.4849 40.0368 13.4849C40.8204 13.4849 41.4744 14.0447 41.4744 14.8483C41.4744 15.6492 40.8204 16.2311 40.0368 16.2311C39.2291 16.2284 38.554 15.6492 38.554 14.8483Z" fill="#F8F8F8"/>
<path d="M56.1822 10.6805C56.1822 14.1279 53.5902 16.2922 50.3864 16.2922C49.0151 16.2922 47.903 15.9126 47.0952 15.1505V20.0001H42.9541V5.25175H46.8993V6.33252C47.6829 5.47067 48.8403 5.06885 50.3864 5.06885C53.5902 5.06885 56.1822 7.23316 56.1822 10.6805ZM51.9989 10.6805C51.9989 9.03722 50.9078 8.09501 49.5154 8.09501C48.123 8.09501 47.0319 9.03722 47.0319 10.6805C47.0319 12.3239 48.123 13.2661 49.5154 13.2661C50.9078 13.2661 51.9989 12.3211 51.9989 10.6805Z" fill="#F8F8F8"/>
<path d="M57.207 2.02299C57.207 0.88125 58.2107 0 59.7357 0C61.2607 0 62.2644 0.820277 62.2644 1.96479C62.2644 3.16749 61.2607 4.04874 59.7357 4.04874C58.2107 4.04597 57.207 3.16473 57.207 2.02299ZM57.6651 5.24867H61.8063V16.109H57.6651V5.24867Z" fill="#F8F8F8"/>
<path d="M63.5999 15.9846C66.876 15.7851 70.2214 13.9589 73.5729 11.911C76.7617 10.021 79.9594 7.93705 83.0849 7.64607V5.80322C76.6803 6.42397 69.9894 14.0614 63.6029 14.261V15.9846H63.5999Z" fill="#F8F8F8"/>
<path d="M63.5999 12.3377C66.876 12.1382 70.2214 10.3119 73.5729 8.264C76.7617 6.37403 79.9594 4.29008 83.0849 3.9991V2.15625C76.6803 2.777 69.9894 10.4145 63.6029 10.614V12.3377H63.5999Z" fill="#F8F8F8"/>
<path d="M72.9761 16.1011C73.175 15.982 73.3739 15.8601 73.5729 15.7381C76.7616 13.8482 79.9593 11.7642 83.0848 11.4732V9.63037C78.7206 10.0544 74.2239 13.7345 69.7783 16.1011H72.9761Z" fill="#F8F8F8"/>
<path d="M74.7001 2.06479C70.9749 4.33441 67.2377 6.85897 63.5999 6.97259V8.69351C66.876 8.49399 70.2214 6.66776 73.5729 4.61984C75.0558 3.74137 76.5386 2.82409 78.0154 2.06201H74.7001V2.06479Z" fill="#F8F8F8"/>
</svg>
