<svg width="360" height="176" viewBox="0 0 360 176" fill="none" xmlns="http://www.w3.org/2000/svg">
<rect width="360" height="176" fill="#DDE3E9"/>
<mask id="path-1-inside-1_3293_27489" fill="white">
<path d="M260 157.181H246.667V157.298H260V157.181Z"/>
</mask>
<path d="M260 157.181H246.667V157.298H260V157.181Z" fill="#BDCBD9"/>
<path d="M246.667 157.181V156.181H245.667V157.181H246.667ZM260 157.181H261V156.181H260V157.181ZM260 157.298V158.298H261V157.298H260ZM246.667 157.298H245.667V158.298H246.667V157.298ZM246.667 158.181H260V156.181H246.667V158.181ZM259 157.181V157.298H261V157.181H259ZM260 156.298H246.667V158.298H260V156.298ZM247.667 157.298V157.181H245.667V157.298H247.667Z" fill="#023773" mask="url(#path-1-inside-1_3293_27489)"/>
<path d="M212.222 158.452H208.724V158.569H212.222V158.452Z" fill="#BDCBD9"/>
<path d="M246.264 152.844H238.539V152.961H246.264V152.844Z" fill="#BDCBD9"/>
<path d="M117.387 153.629H100V153.746H117.387V153.629Z" fill="#BDCBD9"/>
<path d="M123.523 153.629H120.974V153.746H123.523V153.629Z" fill="#BDCBD9"/>
<path d="M169.521 155.601H131.808V155.718H169.521V155.601Z" fill="#BDCBD9"/>
<path d="M111.679 65.8201H112.185C112.352 65.8201 112.513 65.8724 112.631 65.9655C112.749 66.0586 112.816 66.1849 112.816 66.3166V141.53H111.048V66.3166C111.048 66.1849 111.115 66.0586 111.233 65.9655C111.351 65.8724 111.512 65.8201 111.679 65.8201Z" fill="#BDCBD9"/>
<path d="M115.866 69.7869C120.452 67.5818 122.716 61.7199 120.922 56.694C119.129 51.6681 113.958 49.3814 109.372 51.5864C104.786 53.7915 102.522 59.6534 104.316 64.6793C106.109 69.7053 111.28 71.992 115.866 69.7869Z" fill="#BDCBD9"/>
<path d="M116.184 62.0815C116.184 62.2834 116.134 62.481 116.037 62.6493C115.941 62.8176 115.804 62.9489 115.644 63.0266C115.483 63.1042 115.306 63.1248 115.136 63.0856C114.965 63.0465 114.808 62.9494 114.685 62.8066C114.562 62.6638 114.479 62.4819 114.445 62.2838C114.411 62.0857 114.429 61.8805 114.496 61.6942C114.563 61.5078 114.676 61.3487 114.821 61.2371C114.966 61.1256 115.136 61.0665 115.31 61.0674C115.541 61.0686 115.763 61.1759 115.927 61.3658C116.09 61.5557 116.183 61.8129 116.184 62.0815Z" fill="#BDCBD9"/>
<path d="M109.074 62.0815C109.075 62.2832 109.024 62.4806 108.928 62.6488C108.832 62.817 108.695 62.9483 108.535 63.0261C108.375 63.1039 108.198 63.1248 108.028 63.086C107.857 63.0472 107.7 62.9505 107.577 62.8083C107.454 62.666 107.37 62.4844 107.336 62.2867C107.302 62.0889 107.319 61.8838 107.385 61.6974C107.452 61.511 107.564 61.3516 107.708 61.2394C107.853 61.1273 108.023 61.0674 108.196 61.0674C108.428 61.0686 108.65 61.1757 108.814 61.3655C108.979 61.5553 109.072 61.8125 109.074 62.0815Z" fill="#BDCBD9"/>
<path d="M116.977 55.7115H106.047C105.898 55.7115 105.755 55.7798 105.65 55.9015C105.544 56.0232 105.484 56.1884 105.483 56.3611V62.0814H106.783C106.783 61.6476 106.932 61.2315 107.196 60.9248C107.46 60.618 107.819 60.4457 108.192 60.4457C108.566 60.4457 108.925 60.618 109.189 60.9248C109.453 61.2315 109.601 61.6476 109.601 62.0814H113.905C113.905 61.6476 114.053 61.2315 114.318 60.9248C114.582 60.618 114.94 60.4457 115.314 60.4457C115.688 60.4457 116.046 60.618 116.31 60.9248C116.575 61.2315 116.723 61.6476 116.723 62.0814H118.152V57.0574C118.152 56.8793 118.121 56.703 118.061 56.5388C118.002 56.3745 117.915 56.2256 117.806 56.1004C117.696 55.9753 117.567 55.8766 117.425 55.8098C117.282 55.7431 117.13 55.7096 116.977 55.7115Z" fill="#BDCBD9"/>
<path d="M107.464 57.0247H106.127V60.011H107.464V57.0247Z" fill="#BDCBD9"/>
<path d="M109.517 57.0247H108.18V58.5762H109.517V57.0247Z" fill="#BDCBD9"/>
<path d="M111.574 57.0247H110.238V58.5762H111.574V57.0247Z" fill="#BDCBD9"/>
<path d="M113.627 57.0247H112.291V58.5762H113.627V57.0247Z" fill="#BDCBD9"/>
<path d="M118.136 57.0247H116.8V58.5762H118.136V57.0247Z" fill="#BDCBD9"/>
<path d="M115.684 57.0247H114.348V60.011H115.684V57.0247Z" fill="#BDCBD9"/>
<path d="M196.981 93.2205H184.767V141.89H196.981V93.2205Z" fill="#BDCBD9"/>
<path d="M211.401 94.7395H196.276V141.894H211.401V94.7395Z" fill="#BDCBD9"/>
<path d="M204.887 97.2537H202.79V99.6885H204.887V97.2537Z" fill="#F4F5F7"/>
<path d="M200.374 101.684H198.277V104.119H200.374V101.684Z" fill="#F4F5F7"/>
<path d="M204.887 106.115H202.79V108.549H204.887V106.115Z" fill="#F4F5F7"/>
<path d="M209.4 106.115H207.303V108.549H209.4V106.115Z" fill="#F4F5F7"/>
<path d="M200.374 110.545H198.277V112.98H200.374V110.545Z" fill="#F4F5F7"/>
<path d="M209.4 110.545H207.303V112.98H209.4V110.545Z" fill="#F4F5F7"/>
<path d="M204.887 114.975H202.79V117.41H204.887V114.975Z" fill="#F4F5F7"/>
<path d="M204.887 123.836H202.79V126.271H204.887V123.836Z" fill="#F4F5F7"/>
<path d="M209.4 123.836H207.303V126.271H209.4V123.836Z" fill="#F4F5F7"/>
<path d="M200.374 128.267H198.277V130.701H200.374V128.267Z" fill="#F4F5F7"/>
<path d="M209.4 128.267H207.303V130.701H209.4V128.267Z" fill="#F4F5F7"/>
<path d="M186.767 141.89H170.089V107.792L186.767 100.464V141.89Z" fill="#BDCBD9"/>
<path d="M179.658 107.54H177.198V110.395H179.658V107.54Z" fill="#F4F5F7"/>
<path d="M184.952 107.54H182.492V110.395H184.952V107.54Z" fill="#F4F5F7"/>
<path d="M174.368 112.737H171.908V115.592H174.368V112.737Z" fill="#F4F5F7"/>
<path d="M179.658 117.934H177.198V120.789H179.658V117.934Z" fill="#F4F5F7"/>
<path d="M184.952 117.934H182.492V120.789H184.952V117.934Z" fill="#F4F5F7"/>
<path d="M174.368 123.126H171.908V125.981H174.368V123.126Z" fill="#F4F5F7"/>
<path d="M177.202 132.342H179.662V129.486H177.202V132.342Z" fill="#F4F5F7"/>
<path d="M171.904 132.342H174.364V129.486H171.904V132.342Z" fill="#F4F5F7"/>
<path d="M182.492 137.534H184.952V134.678H182.492V137.534Z" fill="#F4F5F7"/>
<path d="M229.883 86.5936V77.1345H227.931V66.5726H226.288V61.801H219.694V66.5726H218.052V77.1345H216.099V86.5936H214.122V141.89H231.86V86.5936H229.883Z" fill="#BDCBD9"/>
<path d="M224.223 89.5425H221.763V92.3979H224.223V89.5425Z" fill="#F4F5F7"/>
<path d="M229.513 89.5425H227.053V92.3979H229.513V89.5425Z" fill="#F4F5F7"/>
<path d="M218.929 99.9363H216.469V102.792H218.929V99.9363Z" fill="#F4F5F7"/>
<path d="M229.513 99.9363H227.053V102.792H229.513V99.9363Z" fill="#F4F5F7"/>
<path d="M224.223 105.128H221.763V107.984H224.223V105.128Z" fill="#F4F5F7"/>
<path d="M218.929 110.325H216.469V113.181H218.929V110.325Z" fill="#F4F5F7"/>
<path d="M224.223 110.325H221.763V113.181H224.223V110.325Z" fill="#F4F5F7"/>
<path d="M229.513 115.522H227.053V118.378H229.513V115.522Z" fill="#F4F5F7"/>
<path d="M218.929 120.719H216.469V123.574H218.929V120.719Z" fill="#F4F5F7"/>
<path d="M224.223 125.916H221.763V128.771H224.223V125.916Z" fill="#F4F5F7"/>
<path d="M229.513 125.916H227.053V128.771H229.513V125.916Z" fill="#F4F5F7"/>
<path d="M247.766 141.89H234.581V90.9773L247.766 98.2632V141.89Z" fill="#BDCBD9"/>
<path d="M239.34 98.7632H236.88V101.619H239.34V98.7632Z" fill="#F4F5F7"/>
<path d="M244.63 103.96H242.17V106.815H244.63V103.96Z" fill="#F4F5F7"/>
<path d="M239.34 109.157H236.88V112.012H239.34V109.157Z" fill="#F4F5F7"/>
<path d="M244.63 114.354H242.17V117.209H244.63V114.354Z" fill="#F4F5F7"/>
<path d="M244.63 119.551H242.17V122.406H244.63V119.551Z" fill="#F4F5F7"/>
<path d="M239.34 124.743H236.88V127.598H239.34V124.743Z" fill="#F4F5F7"/>
<path d="M244.63 135.136H242.17V137.992H244.63V135.136Z" fill="#F4F5F7"/>
<path d="M130.656 118.808H116.28V126.093H130.656V118.808Z" fill="#BDCBD9"/>
<path d="M115.113 121.284H116.28V123.621H115.113C114.891 123.621 114.678 123.519 114.521 123.336C114.364 123.154 114.275 122.907 114.275 122.649V122.266C114.274 122.137 114.295 122.01 114.337 121.891C114.378 121.772 114.44 121.664 114.518 121.572C114.596 121.481 114.688 121.409 114.79 121.359C114.893 121.31 115.002 121.284 115.113 121.284Z" fill="#BDCBD9"/>
<path d="M131.82 123.612H130.652V121.275H131.82C132.042 121.275 132.255 121.378 132.412 121.56C132.569 121.742 132.657 121.989 132.657 122.247V122.63C132.658 122.759 132.637 122.886 132.596 123.005C132.554 123.124 132.492 123.233 132.415 123.324C132.337 123.415 132.244 123.488 132.142 123.537C132.04 123.586 131.93 123.612 131.82 123.612Z" fill="#BDCBD9"/>
<path d="M117.279 117.798H115.278V127.098H117.279V117.798Z" fill="#BDCBD9"/>
<path d="M131.655 117.798H129.654V127.098H131.655V117.798Z" fill="#BDCBD9"/>
<path d="M127.331 139.366H119.606V114.199C119.606 113.61 119.706 113.027 119.9 112.483C120.094 111.939 120.379 111.445 120.738 111.029C121.097 110.612 121.523 110.282 121.992 110.057C122.46 109.832 122.963 109.717 123.47 109.718C124.494 109.718 125.476 110.19 126.2 111.03C126.924 111.871 127.331 113.011 127.331 114.199V139.366Z" fill="#BDCBD9"/>
<path d="M120.688 137.866H126.252C126.909 137.866 127.538 138.169 128.003 138.708C128.467 139.247 128.728 139.978 128.728 140.74V142.464H118.213V140.735C118.214 139.974 118.475 139.244 118.939 138.706C119.403 138.168 120.032 137.866 120.688 137.866Z" fill="#BDCBD9"/>
<path d="M126.685 123.306C127.104 121.244 126.004 119.177 124.227 118.69C122.451 118.204 120.671 119.481 120.251 121.543C119.832 123.606 120.932 125.672 122.709 126.159C124.486 126.646 126.266 125.368 126.685 123.306Z" fill="#F4F5F7"/>
<path d="M124.255 122.434C124.259 122.621 124.215 122.805 124.128 122.962C124.041 123.119 123.916 123.243 123.768 123.316C123.62 123.39 123.456 123.41 123.298 123.375C123.14 123.34 122.995 123.25 122.881 123.118C122.767 122.986 122.69 122.817 122.66 122.634C122.629 122.45 122.647 122.261 122.71 122.089C122.774 121.917 122.88 121.771 123.016 121.671C123.151 121.57 123.309 121.518 123.47 121.523C123.677 121.529 123.874 121.627 124.02 121.796C124.166 121.966 124.25 122.194 124.255 122.434Z" fill="#BDCBD9"/>
<path d="M118.212 115.475C118.212 115.322 118.238 115.171 118.288 115.029C118.338 114.888 118.412 114.759 118.505 114.651C118.598 114.543 118.709 114.457 118.831 114.399C118.953 114.341 119.083 114.311 119.215 114.312H127.725C127.857 114.312 127.987 114.342 128.108 114.4C128.23 114.459 128.34 114.545 128.433 114.653C128.526 114.761 128.599 114.889 128.649 115.03C128.699 115.171 128.724 115.323 128.724 115.475C128.724 115.783 128.619 116.078 128.432 116.296C128.244 116.515 127.991 116.638 127.725 116.639H119.215C118.949 116.639 118.694 116.516 118.506 116.298C118.318 116.08 118.212 115.784 118.212 115.475Z" fill="#BDCBD9"/>
<path d="M121.787 128.355C122.053 128.355 122.308 128.478 122.496 128.696C122.684 128.914 122.79 129.21 122.79 129.519V135.524C122.789 135.833 122.683 136.128 122.495 136.346C122.307 136.564 122.053 136.687 121.787 136.688C121.522 136.687 121.268 136.564 121.08 136.346C120.892 136.128 120.786 135.833 120.785 135.524V129.519C120.785 129.21 120.891 128.914 121.079 128.696C121.267 128.478 121.522 128.355 121.787 128.355Z" fill="#BDCBD9"/>
<path d="M125.149 128.355C125.414 128.356 125.669 128.479 125.857 128.697C126.044 128.915 126.15 129.211 126.151 129.519V135.524C126.15 135.833 126.044 136.128 125.857 136.346C125.669 136.564 125.414 136.687 125.149 136.688C124.883 136.687 124.629 136.564 124.441 136.346C124.254 136.128 124.148 135.833 124.147 135.524V129.519C124.147 129.21 124.252 128.914 124.44 128.696C124.628 128.478 124.883 128.355 125.149 128.355Z" fill="#BDCBD9"/>
<path d="M115.025 141.997H105.305V149.475H115.025V141.997Z" fill="#BDCBD9"/>
<path d="M131.075 141.857H114.416V149.661H131.075V141.857Z" fill="#BDCBD9"/>
<path d="M147.331 141.857H130.672V149.661H147.331V141.857Z" fill="#BDCBD9"/>
<path d="M163.506 141.857H146.848V149.661H163.506V141.857Z" fill="#BDCBD9"/>
<path d="M179.766 141.857H163.108V149.661H179.766V141.857Z" fill="#BDCBD9"/>
<path d="M195.942 141.857H179.284V149.661H195.942V141.857Z" fill="#BDCBD9"/>
<path d="M212.202 141.857H195.543V149.661H212.202V141.857Z" fill="#BDCBD9"/>
<path d="M228.378 141.857H211.719V149.661H228.378V141.857Z" fill="#BDCBD9"/>
<path d="M244.638 141.857H227.979V149.661H244.638V141.857Z" fill="#BDCBD9"/>
<path d="M253.745 141.997H244.025V149.475H253.745V141.997Z" fill="#BDCBD9"/>
<path d="M179.525 168C220.515 168 253.745 165.632 253.745 162.71C253.745 159.788 220.515 157.419 179.525 157.419C138.535 157.419 105.305 159.788 105.305 162.71C105.305 165.632 138.535 168 179.525 168Z" fill="#DDE3E9"/>
<path d="M218.844 29.6618H208.047C207.634 29.6698 207.225 29.5846 206.846 29.4121C206.467 29.2395 206.127 28.9835 205.849 28.6612C205.571 28.3388 205.362 27.9574 205.234 27.5425C205.106 27.1276 205.063 26.6886 205.109 26.2549L206.032 14.833C206.123 13.9057 206.534 13.0463 207.186 12.4188C207.838 11.7912 208.685 11.4396 209.566 11.4308H220.346C220.758 11.4221 221.167 11.5067 221.546 11.6787C221.925 11.8507 222.265 12.1062 222.543 12.4283C222.821 12.7503 223.031 13.1314 223.159 13.5461C223.286 13.9608 223.329 14.3995 223.284 14.833L222.343 26.2549C222.252 27.1764 221.847 28.0312 221.203 28.6587C220.558 29.2861 219.719 29.6428 218.844 29.6618Z" fill="#023773"/>
<path d="M219.436 29.0824H208.639C208.226 29.0903 207.817 29.0052 207.438 28.8326C207.059 28.6601 206.719 28.4041 206.441 28.0817C206.163 27.7593 205.953 27.378 205.826 26.963C205.698 26.5481 205.655 26.1092 205.701 25.6754L206.646 14.2536C206.736 13.3314 207.142 12.4759 207.787 11.8489C208.433 11.222 209.273 10.8671 210.149 10.8513H220.942C221.354 10.8435 221.763 10.9285 222.142 11.1008C222.52 11.273 222.86 11.5286 223.138 11.8505C223.416 12.1723 223.626 12.5531 223.754 12.9674C223.882 13.3818 223.925 13.8202 223.88 14.2536L222.935 25.6754C222.846 26.5977 222.441 27.4537 221.797 28.0815C221.152 28.7093 220.312 29.0654 219.436 29.0824Z" fill="#023773"/>
<path opacity="0.5" d="M219.436 29.0824H208.639C208.226 29.0903 207.817 29.0052 207.438 28.8326C207.059 28.6601 206.719 28.4041 206.441 28.0817C206.163 27.7593 205.953 27.378 205.826 26.963C205.698 26.5481 205.655 26.1092 205.701 25.6754L206.646 14.2536C206.736 13.3314 207.142 12.4759 207.787 11.8489C208.433 11.222 209.273 10.8671 210.149 10.8513H220.942C221.354 10.8435 221.763 10.9285 222.142 11.1008C222.52 11.273 222.86 11.5286 223.138 11.8505C223.416 12.1723 223.626 12.5531 223.754 12.9674C223.882 13.3818 223.925 13.8202 223.88 14.2536L222.935 25.6754C222.846 26.5977 222.441 27.4537 221.797 28.0815C221.152 28.7093 220.312 29.0654 219.436 29.0824Z" fill="#F4F5F7"/>
<path d="M215.217 14.8145C211.846 14.8145 208.921 17.1138 208.687 19.9552C208.638 20.7664 208.803 21.576 209.164 22.2933C209.526 23.0107 210.069 23.6074 210.733 24.0164C210.315 24.8347 209.784 25.5815 209.155 26.2316C210.059 26.2278 210.952 26.0224 211.775 25.6288C212.177 25.438 212.56 25.2064 212.919 24.9371C213.395 25.0393 213.879 25.091 214.364 25.0913C217.735 25.0913 220.659 22.792 220.894 19.9505C221.128 17.1091 218.592 14.8145 215.217 14.8145Z" fill="#F4F5F7"/>
<path d="M221.199 15.9033C220.72 15.9124 220.245 15.8135 219.806 15.6131C219.366 15.4128 218.972 15.1156 218.65 14.7415C218.328 14.3673 218.085 13.9248 217.937 13.4434C217.789 12.962 217.74 12.4527 217.792 11.9496C217.896 10.8802 218.366 9.88791 219.114 9.16029C219.862 8.43267 220.836 8.02011 221.852 8.00056H222.568C223.046 7.99157 223.52 8.0904 223.96 8.29046C224.399 8.49053 224.792 8.78725 225.115 9.16086C225.437 9.53448 225.68 9.97642 225.828 10.4573C225.977 10.9381 226.026 11.4469 225.974 11.9496C225.872 13.016 225.406 14.0062 224.662 14.7342C223.918 15.4623 222.949 15.878 221.936 15.9033H221.199Z" fill="#023773"/>
<path d="M222.842 11.9402C222.904 12.0222 222.95 12.1165 222.978 12.2176C223.005 12.3188 223.013 12.4246 223.001 12.529C222.983 12.7038 222.92 12.8701 222.82 13.0104C222.708 13.1731 222.555 13.2994 222.378 13.3749C222.162 13.4738 221.928 13.5216 221.693 13.5151C221.49 13.5161 221.288 13.4862 221.092 13.4263C220.917 13.3788 220.752 13.2964 220.607 13.1833L220.916 12.6318C221.024 12.7249 221.149 12.7947 221.282 12.8375C221.425 12.8875 221.574 12.9128 221.724 12.9123C221.867 12.9171 222.009 12.8816 222.135 12.8094C222.183 12.7778 222.224 12.7348 222.254 12.6837C222.284 12.6326 222.302 12.5749 222.307 12.515C222.307 12.258 222.153 12.1318 221.79 12.1318H221.494L221.534 11.6645L222.197 10.9401H220.951L221 10.3652H223.05L223.01 10.8326L222.285 11.6271C222.501 11.6555 222.699 11.7669 222.842 11.9402Z" fill="#F4F5F7"/>
<path d="M235.91 46.3881H228.435C228.022 46.3968 227.613 46.3122 227.233 46.1399C226.854 45.9676 226.514 45.7116 226.236 45.389C225.958 45.0665 225.748 44.6848 225.621 44.2695C225.493 43.8543 225.451 43.415 225.497 42.9811L226.151 35.0737C226.239 34.1514 226.644 33.2954 227.289 32.6676C227.934 32.0398 228.774 31.6838 229.65 31.6668H237.129C237.542 31.6588 237.951 31.744 238.33 31.9165C238.709 32.0891 239.048 32.3451 239.326 32.6674C239.604 32.9898 239.814 33.3712 239.942 33.7861C240.07 34.201 240.112 34.64 240.067 35.0737L239.413 42.9811C239.324 43.9038 238.918 44.7599 238.272 45.3876C237.627 46.0153 236.787 46.3712 235.91 46.3881Z" fill="#023773"/>
<path d="M236.391 45.9206H228.912C228.5 45.9286 228.09 45.8435 227.711 45.6709C227.333 45.4984 226.993 45.2424 226.715 44.92C226.437 44.5976 226.227 44.2162 226.099 43.8013C225.972 43.3864 225.929 42.9474 225.974 42.5137L226.628 34.6063C226.718 33.6836 227.123 32.8275 227.769 32.1998C228.414 31.5721 229.255 31.2162 230.131 31.1993H237.606C238.019 31.1906 238.429 31.2753 238.808 31.4475C239.187 31.6198 239.527 31.8758 239.805 32.1984C240.083 32.5209 240.293 32.9026 240.421 33.3179C240.548 33.7331 240.59 34.1724 240.544 34.6063L239.89 42.5137C239.802 43.436 239.397 44.292 238.752 44.9198C238.108 45.5476 237.268 45.9037 236.391 45.9206Z" fill="#023773"/>
<path opacity="0.5" d="M236.391 45.9206H228.912C228.5 45.9286 228.09 45.8435 227.711 45.6709C227.333 45.4984 226.993 45.2424 226.715 44.92C226.437 44.5976 226.227 44.2162 226.099 43.8013C225.972 43.3864 225.929 42.9474 225.974 42.5137L226.628 34.6063C226.718 33.6836 227.123 32.8275 227.769 32.1998C228.414 31.5721 229.255 31.2162 230.131 31.1993H237.606C238.019 31.1906 238.429 31.2753 238.808 31.4475C239.187 31.6198 239.527 31.8758 239.805 32.1984C240.083 32.5209 240.293 32.9026 240.421 33.3179C240.548 33.7331 240.59 34.1724 240.544 34.6063L239.89 42.5137C239.802 43.436 239.397 44.292 238.752 44.9198C238.108 45.5476 237.268 45.9037 236.391 45.9206Z" fill="#F4F5F7"/>
<path d="M238.446 34.742C238.017 34.75 237.591 34.6613 237.197 34.4818C236.803 34.3023 236.45 34.0362 236.161 33.7011C235.872 33.366 235.653 32.9696 235.52 32.5383C235.387 32.107 235.342 31.6506 235.389 31.1995C235.481 30.2397 235.904 29.3491 236.575 28.6963C237.247 28.0435 238.121 27.6738 239.033 27.6571H239.674C240.103 27.6483 240.529 27.7365 240.923 27.9157C241.317 28.095 241.671 28.3611 241.96 28.6964C242.25 29.0316 242.468 29.4283 242.601 29.86C242.734 30.2916 242.778 30.7483 242.731 31.1995C242.638 32.1594 242.216 33.05 241.544 33.7028C240.873 34.3556 239.998 34.7253 239.086 34.742H238.446Z" fill="#023773"/>
<path d="M240.133 31.0639C240.214 31.1421 240.276 31.24 240.313 31.3492C240.35 31.4583 240.361 31.5754 240.345 31.6902C240.335 31.8587 240.28 32.0207 240.186 32.1575C240.085 32.3041 239.95 32.4201 239.793 32.494C239.598 32.5828 239.387 32.6259 239.175 32.6202C238.992 32.62 238.811 32.5933 238.636 32.5407C238.476 32.4987 238.326 32.4241 238.194 32.3211L238.472 31.8257C238.569 31.9115 238.682 31.9751 238.804 32.0126C238.932 32.0557 239.066 32.0778 239.201 32.0781C239.329 32.0833 239.456 32.051 239.568 31.9846C239.612 31.9562 239.648 31.9172 239.675 31.8709C239.702 31.8247 239.718 31.7723 239.722 31.7182C239.729 31.6662 239.722 31.6132 239.702 31.5653C239.681 31.5173 239.649 31.4764 239.608 31.4472C239.462 31.3723 239.301 31.3401 239.139 31.3537H238.468L238.733 29.7881H240.337L240.292 30.3068H239.197L239.113 30.8349H239.325C239.612 30.8067 239.898 30.888 240.133 31.0639Z" fill="#F4F5F7"/>
<path d="M235.587 35.0036H231.523C230.846 35.0149 230.197 35.2886 229.699 35.7728C229.2 36.257 228.887 36.9179 228.819 37.6301L228.665 39.4995C228.63 39.8339 228.663 40.1723 228.762 40.4921C228.861 40.8119 229.023 41.1058 229.237 41.3543C229.451 41.6028 229.713 41.8001 230.005 41.9331C230.298 42.0662 230.613 42.1319 230.931 42.126H235C235.676 42.1137 236.325 41.8396 236.823 41.3557C237.321 40.8717 237.635 40.2113 237.704 39.4995L237.854 37.6301C237.889 37.2955 237.856 36.9568 237.758 36.6367C237.66 36.3165 237.498 36.0223 237.283 35.7737C237.069 35.525 236.806 35.3277 236.514 35.1949C236.221 35.0621 235.906 34.9969 235.587 35.0036ZM232.19 40.5417L232.521 36.5786L235.314 38.5601L232.19 40.5417Z" fill="#F4F5F7"/>
<path d="M189.902 12.646H178.416L166.863 152.526H178.35C180.971 152.476 183.483 151.411 185.412 149.534C187.341 147.657 188.554 145.097 188.82 142.338L198.69 22.8248C198.823 21.5284 198.695 20.2167 198.312 18.977C197.929 17.7373 197.301 16.5981 196.47 15.6351C195.639 14.6722 194.623 13.9075 193.491 13.3921C192.358 12.8767 191.135 12.6224 189.902 12.646Z" fill="#023773"/>
<path d="M176.256 152.526H128.985C127.752 152.549 126.528 152.294 125.396 151.778C124.263 151.262 123.248 150.496 122.417 149.532C121.586 148.568 120.958 147.428 120.576 146.188C120.195 144.947 120.067 143.635 120.202 142.338L130.085 22.8247C130.351 20.0667 131.564 17.5074 133.493 15.631C135.422 13.7546 137.935 12.691 140.555 12.6413H187.826C189.059 12.6183 190.282 12.8732 191.414 13.3892C192.546 13.9052 193.562 14.6703 194.393 15.6338C195.223 16.5972 195.851 17.7368 196.233 18.9767C196.615 20.2166 196.743 21.5284 196.609 22.8247L186.726 142.338C186.46 145.097 185.247 147.657 183.318 149.534C181.389 151.411 178.877 152.476 176.256 152.526Z" fill="#011C3A"/>
<path opacity="0.2" d="M125.822 151.942C126.835 152.332 127.906 152.53 128.985 152.526H176.256C178.877 152.476 181.389 151.411 183.318 149.534C185.247 147.656 186.46 145.097 186.726 142.338L196.609 22.8247C196.807 20.8905 196.42 18.9396 195.503 17.2531C194.586 15.5667 193.186 14.2317 191.506 13.4404L125.822 151.942Z" fill="#F4F5F7"/>
<path d="M169.059 16.6183C168.748 16.6245 168.449 16.751 168.22 16.9739C167.99 17.1969 167.846 17.5009 167.813 17.8287L167.663 19.642C167.576 20.5287 167.185 21.3509 166.564 21.9536C165.943 22.5562 165.135 22.8977 164.292 22.9134H162.388C161.992 22.9211 161.598 22.8394 161.234 22.6739C160.869 22.5084 160.542 22.2629 160.275 21.9535C160.007 21.6441 159.804 21.278 159.68 20.8795C159.557 20.481 159.514 20.0591 159.556 19.642L159.707 17.8287C159.723 17.6747 159.708 17.5187 159.663 17.3712C159.618 17.2237 159.543 17.0882 159.444 16.9736C159.346 16.859 159.225 16.768 159.09 16.7068C158.956 16.6455 158.81 16.6153 158.664 16.6183H140.228C138.63 16.6482 137.098 17.2961 135.921 18.4396C134.744 19.5831 134.004 21.143 133.84 22.8246L123.957 142.338C123.878 143.128 123.958 143.927 124.192 144.682C124.426 145.436 124.809 146.13 125.316 146.716C125.823 147.303 126.441 147.768 127.131 148.083C127.82 148.397 128.565 148.553 129.316 148.54H176.587C178.186 148.509 179.719 147.859 180.896 146.714C182.073 145.569 182.813 144.007 182.975 142.324L192.854 22.8246C192.934 22.0327 192.854 21.2318 192.619 20.4752C192.384 19.7185 192 19.0235 191.491 18.4363C190.982 17.8492 190.361 17.3833 189.669 17.0699C188.977 16.7564 188.23 16.6025 187.477 16.6183H169.059Z" fill="#023773"/>
<path opacity="0.6" d="M169.059 16.6183C168.748 16.6245 168.449 16.751 168.22 16.9739C167.99 17.1969 167.846 17.5009 167.813 17.8287L167.663 19.642C167.576 20.5287 167.185 21.3509 166.564 21.9536C165.943 22.5562 165.135 22.8977 164.292 22.9134H162.388C161.992 22.9211 161.598 22.8394 161.234 22.6739C160.869 22.5084 160.542 22.2629 160.275 21.9535C160.007 21.6441 159.804 21.278 159.68 20.8795C159.557 20.481 159.514 20.0591 159.556 19.642L159.707 17.8287C159.723 17.6747 159.708 17.5187 159.663 17.3712C159.618 17.2237 159.543 17.0882 159.444 16.9736C159.346 16.859 159.225 16.768 159.09 16.7068C158.956 16.6455 158.81 16.6153 158.664 16.6183H140.228C138.63 16.6482 137.098 17.2961 135.921 18.4396C134.744 19.5831 134.004 21.143 133.84 22.8246L123.957 142.338C123.878 143.128 123.958 143.927 124.192 144.682C124.426 145.436 124.809 146.13 125.316 146.716C125.823 147.303 126.441 147.768 127.131 148.083C127.82 148.397 128.565 148.553 129.316 148.54H176.587C178.186 148.509 179.719 147.859 180.896 146.714C182.073 145.569 182.813 144.007 182.975 142.324L192.854 22.8246C192.934 22.0327 192.854 21.2318 192.619 20.4752C192.384 19.7185 192 19.0235 191.491 18.4363C190.982 17.8492 190.361 17.3833 189.669 17.0699C188.977 16.7564 188.23 16.6025 187.477 16.6183H169.059Z" fill="#F4F5F7"/>
<path opacity="0.3" d="M165.883 18.6186C165.826 19.2494 165.552 19.8363 165.113 20.2673C164.674 20.6983 164.1 20.9432 163.501 20.9553C163.219 20.9607 162.939 20.9022 162.68 20.7835C162.422 20.6649 162.19 20.4889 162 20.2675C161.811 20.0461 161.669 19.7843 161.584 19.4999C161.498 19.2155 161.471 18.9149 161.505 18.6186C161.561 17.9877 161.835 17.4008 162.274 16.9698C162.713 16.5389 163.287 16.294 163.886 16.2818C164.168 16.2764 164.448 16.335 164.707 16.4536C164.966 16.5722 165.198 16.7482 165.387 16.9696C165.576 17.191 165.718 17.4528 165.804 17.7372C165.889 18.0217 165.916 18.3222 165.883 18.6186Z" fill="#011C3A"/>
<path opacity="0.7" d="M164.8 18.6188C164.77 18.9354 164.631 19.2293 164.409 19.4446C164.188 19.66 163.899 19.7819 163.599 19.7871C163.457 19.79 163.317 19.761 163.187 19.7019C163.057 19.6428 162.94 19.555 162.845 19.4444C162.749 19.3337 162.677 19.2029 162.634 19.0605C162.59 18.9181 162.576 18.7675 162.591 18.6188C162.622 18.3021 162.761 18.0082 162.982 17.7929C163.204 17.5775 163.492 17.4557 163.793 17.4504C163.935 17.4475 164.075 17.4765 164.205 17.5356C164.335 17.5948 164.452 17.6825 164.547 17.7932C164.642 17.9038 164.714 18.0346 164.758 18.177C164.802 18.3194 164.816 18.47 164.8 18.6188Z" fill="#011C3A"/>
<path d="M154.14 144.628H152.408C152.182 144.632 151.958 144.586 151.751 144.491C151.544 144.396 151.358 144.255 151.207 144.078C151.055 143.901 150.942 143.692 150.873 143.464C150.804 143.236 150.782 142.996 150.809 142.759L150.959 140.922C151.005 140.418 151.224 139.949 151.575 139.604C151.926 139.259 152.384 139.063 152.863 139.053H154.599C154.825 139.048 155.049 139.095 155.256 139.19C155.464 139.285 155.649 139.426 155.801 139.603C155.952 139.78 156.066 139.989 156.135 140.217C156.203 140.444 156.225 140.685 156.199 140.922L156.044 142.759C156 143.264 155.781 143.733 155.43 144.078C155.078 144.423 154.619 144.619 154.14 144.628ZM152.788 140.025C152.549 140.03 152.321 140.128 152.146 140.3C151.971 140.473 151.863 140.708 151.843 140.96L151.693 142.796C151.678 142.914 151.688 143.034 151.721 143.148C151.754 143.262 151.81 143.367 151.885 143.455C151.96 143.544 152.053 143.615 152.156 143.662C152.259 143.71 152.371 143.733 152.483 143.731H154.22C154.458 143.726 154.686 143.628 154.86 143.455C155.034 143.282 155.141 143.048 155.161 142.796L155.315 140.96C155.329 140.841 155.319 140.721 155.285 140.607C155.251 140.493 155.195 140.389 155.119 140.3C155.044 140.211 154.951 140.141 154.848 140.093C154.745 140.046 154.633 140.023 154.52 140.025H152.788Z" fill="#023773"/>
<path d="M132.961 144.161C132.904 144.162 132.848 144.15 132.796 144.127C132.745 144.103 132.698 144.068 132.66 144.024C132.622 143.979 132.593 143.927 132.576 143.87C132.558 143.813 132.553 143.753 132.559 143.694L132.864 140.025C132.875 139.899 132.929 139.781 133.018 139.694C133.106 139.608 133.221 139.559 133.341 139.558C133.398 139.557 133.454 139.568 133.506 139.592C133.558 139.616 133.605 139.651 133.643 139.695C133.681 139.739 133.711 139.791 133.729 139.848C133.747 139.905 133.753 139.965 133.747 140.025L133.442 143.694C133.43 143.82 133.374 143.937 133.285 144.023C133.196 144.109 133.081 144.158 132.961 144.161Z" fill="#023773"/>
<path d="M135.139 144.161C135.082 144.162 135.026 144.15 134.974 144.127C134.923 144.103 134.876 144.068 134.838 144.024C134.8 143.979 134.771 143.927 134.754 143.87C134.736 143.813 134.731 143.753 134.737 143.694L135.037 140.025C135.05 139.899 135.106 139.781 135.195 139.695C135.283 139.609 135.399 139.56 135.519 139.558C135.575 139.557 135.631 139.568 135.683 139.592C135.735 139.616 135.782 139.651 135.82 139.695C135.858 139.739 135.887 139.792 135.904 139.849C135.921 139.905 135.927 139.966 135.921 140.025L135.62 143.694C135.608 143.82 135.552 143.937 135.463 144.023C135.374 144.109 135.259 144.158 135.139 144.161Z" fill="#023773"/>
<path d="M137.313 144.161C137.256 144.162 137.2 144.15 137.148 144.127C137.096 144.103 137.05 144.068 137.012 144.024C136.974 143.979 136.945 143.927 136.927 143.87C136.91 143.813 136.904 143.753 136.91 143.694L137.215 140.025C137.227 139.898 137.283 139.78 137.372 139.694C137.461 139.608 137.576 139.559 137.697 139.558C137.753 139.557 137.809 139.568 137.861 139.592C137.913 139.616 137.96 139.651 137.998 139.695C138.036 139.739 138.065 139.792 138.082 139.849C138.099 139.905 138.105 139.966 138.099 140.025L137.794 143.694C137.782 143.821 137.726 143.938 137.638 144.025C137.549 144.111 137.433 144.159 137.313 144.161Z" fill="#023773"/>
<path d="M173.34 144.301L171.233 141.857L173.742 139.417C173.783 139.373 173.832 139.339 173.886 139.315C173.94 139.291 173.997 139.279 174.056 139.279C174.114 139.279 174.172 139.291 174.226 139.315C174.279 139.339 174.328 139.373 174.369 139.417C174.407 139.465 174.435 139.519 174.452 139.578C174.469 139.636 174.475 139.698 174.47 139.759C174.465 139.821 174.448 139.88 174.421 139.934C174.394 139.989 174.357 140.037 174.312 140.076L172.483 141.857L174.02 143.642C174.058 143.689 174.086 143.744 174.103 143.803C174.12 143.861 174.126 143.923 174.121 143.984C174.116 144.045 174.099 144.105 174.072 144.159C174.045 144.214 174.008 144.262 173.963 144.301C173.88 144.388 173.768 144.437 173.651 144.437C173.535 144.437 173.423 144.388 173.34 144.301Z" fill="#023773"/>
<path d="M136.531 82.21C135.946 82.2217 135.366 82.1013 134.828 81.857C134.291 81.6127 133.809 81.2501 133.415 80.7932C133.021 80.3363 132.723 79.7958 132.542 79.2076C132.361 78.6194 132.3 77.9972 132.365 77.3823C132.492 76.0756 133.066 74.8632 133.98 73.9738C134.894 73.0845 136.084 72.5797 137.326 72.5546H181.142C181.726 72.5436 182.306 72.6644 182.843 72.909C183.379 73.1536 183.861 73.5164 184.254 73.9732C184.648 74.43 184.945 74.9703 185.126 75.5581C185.307 76.146 185.368 76.7678 185.304 77.3823C185.178 78.6898 184.604 79.9033 183.69 80.7931C182.775 81.6828 181.584 82.1869 180.342 82.21H136.531Z" fill="#F4F5F7"/>
<path d="M197.006 26.6756C197.032 26.4106 197.149 26.1649 197.335 25.9849C197.52 25.8049 197.762 25.7032 198.014 25.6989C198.132 25.6967 198.249 25.7213 198.357 25.7709C198.466 25.8204 198.563 25.8939 198.642 25.9863C198.722 26.0788 198.782 26.1881 198.818 26.3069C198.854 26.4258 198.866 26.5515 198.853 26.6756L198.08 36.0225C198.054 36.2866 197.938 36.5317 197.753 36.7116C197.568 36.8915 197.328 36.9938 197.077 36.9992C196.959 37.0012 196.841 36.9767 196.733 36.9271C196.624 36.8776 196.527 36.8042 196.447 36.7119C196.367 36.6196 196.307 36.5103 196.27 36.3915C196.233 36.2726 196.221 36.1468 196.233 36.0225L197.006 26.6756Z" fill="#023773"/>
<path opacity="0.3" d="M197.006 26.6756C197.032 26.4106 197.149 26.1649 197.335 25.9849C197.52 25.8049 197.762 25.7032 198.014 25.6989C198.132 25.6967 198.249 25.7213 198.357 25.7709C198.466 25.8204 198.563 25.8939 198.642 25.9863C198.722 26.0788 198.782 26.1881 198.818 26.3069C198.854 26.4258 198.866 26.5515 198.853 26.6756L198.08 36.0225C198.054 36.2866 197.938 36.5317 197.753 36.7116C197.568 36.8915 197.328 36.9938 197.077 36.9992C196.959 37.0012 196.841 36.9767 196.733 36.9271C196.624 36.8776 196.527 36.8042 196.447 36.7119C196.367 36.6196 196.307 36.5103 196.27 36.3915C196.233 36.2726 196.221 36.1468 196.233 36.0225L197.006 26.6756Z" fill="#F4F5F7"/>
<path d="M137.463 21.8993H138.788L138.903 20.4973H137.578L137.463 21.8993Z" fill="#023773"/>
<path d="M140.228 20.4972L140.113 21.8993H141.439L141.554 20.4972L141.668 19.0952H140.343L140.228 20.4972Z" fill="#023773"/>
<path d="M143.113 17.6934L142.994 19.0954L142.879 20.4974L142.764 21.8994H144.089L144.204 20.4974L144.319 19.0954L144.438 17.6934H143.113Z" fill="#023773"/>
<path d="M185.268 18.8149L185.202 19.5861H184.716L184.588 21.1283H185.074L185.012 21.8994H189.386L189.642 18.8149H185.268ZM187.035 21.1517H185.577L185.706 19.6094H187.163L187.035 21.1517Z" fill="#023773"/>
<path d="M185.555 26.5635H140.524C139.649 26.5803 138.809 26.9358 138.165 27.5626C137.52 28.1894 137.115 29.0443 137.025 29.9657L134.587 59.4083C134.542 59.8417 134.585 60.2801 134.713 60.6945C134.841 61.1088 135.051 61.4896 135.329 61.8115C135.607 62.1333 135.947 62.3889 136.325 62.5612C136.704 62.7334 137.113 62.8185 137.525 62.8106H182.556C183.431 62.7937 184.27 62.4383 184.915 61.8115C185.56 61.1846 185.965 60.3298 186.055 59.4083L188.493 29.9657C188.538 29.5324 188.495 29.0939 188.367 28.6796C188.239 28.2652 188.029 27.8845 187.751 27.5626C187.473 27.2408 187.133 26.9852 186.755 26.8129C186.376 26.6406 185.967 26.5556 185.555 26.5635Z" fill="#F4F5F7"/>
<path d="M143.904 32.3257C143.924 32.27 143.937 32.2119 143.944 32.1528L144.107 30.1899C144.115 30.1006 144.101 30.0106 144.067 29.9282L142.53 31.1153L143.904 32.3257Z" fill="#023773"/>
<path d="M141.501 31.2929C141.556 31.3361 141.622 31.3595 141.691 31.3595C141.759 31.3595 141.826 31.3361 141.881 31.2929L143.922 29.7179C143.829 29.6389 143.714 29.5959 143.595 29.5964H140.06C139.935 29.598 139.813 29.6404 139.711 29.7179L141.501 31.2929Z" fill="#023773"/>
<path d="M139.539 29.9282C139.494 30.008 139.465 30.0973 139.455 30.1899L139.296 32.1528C139.287 32.21 139.287 32.2684 139.296 32.3257L140.869 31.1153L139.539 29.9282Z" fill="#023773"/>
<path d="M142.309 31.2883L142.022 31.508C141.918 31.589 141.793 31.6332 141.664 31.6342C141.54 31.635 141.42 31.5904 141.324 31.508L141.077 31.2883L139.415 32.5642C139.464 32.6239 139.524 32.6716 139.592 32.7039C139.66 32.7362 139.734 32.7524 139.809 32.7511H143.343C143.501 32.75 143.652 32.6828 143.763 32.5642L142.309 31.2883Z" fill="#023773"/>
<path d="M139.499 36.3216C139.353 36.3238 139.208 36.2932 139.074 36.2316C138.939 36.1701 138.819 36.0791 138.72 35.9647C138.622 35.8503 138.547 35.715 138.502 35.5679C138.457 35.4208 138.441 35.2651 138.457 35.1112C138.49 34.785 138.634 34.4828 138.863 34.2609C139.091 34.039 139.388 33.9127 139.698 33.9055H177.378C177.524 33.9026 177.669 33.9326 177.803 33.9936C177.938 34.0546 178.058 34.1452 178.157 34.2592C178.255 34.3733 178.33 34.5083 178.375 34.6552C178.421 34.8021 178.436 34.9575 178.421 35.1112C178.389 35.4386 178.246 35.7426 178.017 35.9656C177.788 36.1886 177.49 36.3153 177.179 36.3216H139.499Z" fill="#011C3A"/>
<path opacity="0.5" d="M139.499 36.3216C139.353 36.3238 139.208 36.2932 139.074 36.2316C138.939 36.1701 138.819 36.0791 138.72 35.9647C138.622 35.8503 138.547 35.715 138.502 35.5679C138.457 35.4208 138.441 35.2651 138.457 35.1112C138.49 34.785 138.634 34.4828 138.863 34.2609C139.091 34.039 139.388 33.9127 139.698 33.9055H177.378C177.524 33.9026 177.669 33.9326 177.803 33.9936C177.938 34.0546 178.058 34.1452 178.157 34.2592C178.255 34.3733 178.33 34.5083 178.375 34.6552C178.421 34.8021 178.436 34.9575 178.421 35.1112C178.389 35.4386 178.246 35.7426 178.017 35.9656C177.788 36.1886 177.49 36.3153 177.179 36.3216H139.499Z" fill="#F4F5F7"/>
<path d="M139.102 41.1492C138.955 41.1521 138.81 41.122 138.675 41.0607C138.541 40.9994 138.42 40.9084 138.321 40.7939C138.222 40.6793 138.148 40.5437 138.103 40.3962C138.058 40.2488 138.043 40.0928 138.059 39.9387C138.087 39.6044 138.232 39.2932 138.466 39.0666C138.7 38.8399 139.005 38.7142 139.323 38.7143H173.614C173.76 38.7114 173.905 38.7415 174.039 38.8025C174.174 38.8635 174.294 38.954 174.393 39.0681C174.491 39.1821 174.566 39.3171 174.611 39.464C174.657 39.6109 174.672 39.7664 174.657 39.92C174.624 40.2471 174.48 40.5505 174.252 40.7733C174.023 40.9961 173.726 41.1231 173.415 41.1305L139.102 41.1492Z" fill="#011C3A"/>
<path opacity="0.5" d="M139.102 41.1492C138.955 41.1521 138.81 41.122 138.675 41.0607C138.541 40.9994 138.42 40.9084 138.321 40.7939C138.222 40.6793 138.148 40.5437 138.103 40.3962C138.058 40.2488 138.043 40.0928 138.059 39.9387C138.087 39.6044 138.232 39.2932 138.466 39.0666C138.7 38.8399 139.005 38.7142 139.323 38.7143H173.614C173.76 38.7114 173.905 38.7415 174.039 38.8025C174.174 38.8635 174.294 38.954 174.393 39.0681C174.491 39.1821 174.566 39.3171 174.611 39.464C174.657 39.6109 174.672 39.7664 174.657 39.92C174.624 40.2471 174.48 40.5505 174.252 40.7733C174.023 40.9961 173.726 41.1231 173.415 41.1305L139.102 41.1492Z" fill="#F4F5F7"/>
<path d="M138.7 45.9768C138.554 45.9791 138.409 45.9485 138.275 45.8869C138.14 45.8253 138.02 45.7342 137.922 45.6197C137.824 45.5052 137.75 45.3699 137.705 45.2228C137.66 45.0756 137.645 44.9201 137.662 44.7664C137.693 44.4402 137.836 44.1375 138.064 43.9153C138.292 43.6931 138.589 43.567 138.898 43.5607H175.182C175.328 43.5584 175.472 43.589 175.606 43.6503C175.74 43.7116 175.86 43.8022 175.958 43.9162C176.056 44.0302 176.13 44.1649 176.176 44.3115C176.221 44.4581 176.236 44.6131 176.22 44.7664C176.19 45.0942 176.047 45.3987 175.818 45.622C175.589 45.8452 175.29 45.9715 174.979 45.9768H138.7Z" fill="#011C3A"/>
<path opacity="0.5" d="M138.7 45.9768C138.554 45.9791 138.409 45.9485 138.275 45.8869C138.14 45.8253 138.02 45.7342 137.922 45.6197C137.824 45.5052 137.75 45.3699 137.705 45.2228C137.66 45.0756 137.645 44.9201 137.662 44.7664C137.693 44.4402 137.836 44.1375 138.064 43.9153C138.292 43.6931 138.589 43.567 138.898 43.5607H175.182C175.328 43.5584 175.472 43.589 175.606 43.6503C175.74 43.7116 175.86 43.8022 175.958 43.9162C176.056 44.0302 176.13 44.1649 176.176 44.3115C176.221 44.4581 176.236 44.6131 176.22 44.7664C176.19 45.0942 176.047 45.3987 175.818 45.622C175.589 45.8452 175.29 45.9715 174.979 45.9768H138.7Z" fill="#F4F5F7"/>
<path d="M137.9 55.6321C137.754 55.6343 137.61 55.6038 137.476 55.5425C137.342 55.4812 137.222 55.3905 137.124 55.2766C137.026 55.1626 136.952 55.0278 136.907 54.8813C136.862 54.7347 136.846 54.5796 136.862 54.4264C136.892 54.0986 137.036 53.794 137.264 53.5708C137.493 53.3476 137.792 53.2213 138.103 53.2159H178.69C178.836 53.2136 178.981 53.2443 179.115 53.3059C179.249 53.3674 179.369 53.4585 179.468 53.573C179.566 53.6875 179.64 53.8229 179.685 53.97C179.73 54.1171 179.745 54.2727 179.728 54.4264C179.697 54.7525 179.554 55.0553 179.326 55.2775C179.098 55.4996 178.801 55.6258 178.491 55.6321H137.9Z" fill="#011C3A"/>
<path opacity="0.5" d="M137.9 55.6321C137.754 55.6343 137.61 55.6038 137.476 55.5425C137.342 55.4812 137.222 55.3905 137.124 55.2766C137.026 55.1626 136.952 55.0278 136.907 54.8813C136.862 54.7347 136.846 54.5796 136.862 54.4264C136.892 54.0986 137.036 53.794 137.264 53.5708C137.493 53.3476 137.792 53.2213 138.103 53.2159H178.69C178.836 53.2136 178.981 53.2443 179.115 53.3059C179.249 53.3674 179.369 53.4585 179.468 53.573C179.566 53.6875 179.64 53.8229 179.685 53.97C179.73 54.1171 179.745 54.2727 179.728 54.4264C179.697 54.7525 179.554 55.0553 179.326 55.2775C179.098 55.4996 178.801 55.6258 178.491 55.6321H137.9Z" fill="#F4F5F7"/>
<path d="M137.502 60.4597C137.356 60.4626 137.211 60.4326 137.077 60.3716C136.943 60.3106 136.822 60.22 136.724 60.106C136.625 59.9919 136.551 59.8569 136.505 59.71C136.46 59.5631 136.444 59.4077 136.46 59.254C136.492 58.927 136.636 58.6236 136.864 58.4007C137.093 58.1779 137.391 58.0509 137.701 58.0436H160.97C161.116 58.0413 161.261 58.0719 161.395 58.1335C161.529 58.1951 161.649 58.2861 161.748 58.4007C161.846 58.5152 161.92 58.6505 161.965 58.7976C162.01 58.9448 162.025 59.1003 162.008 59.254C161.977 59.581 161.833 59.8844 161.604 60.1066C161.375 60.3289 161.077 60.4545 160.767 60.4597H137.502Z" fill="#011C3A"/>
<path opacity="0.5" d="M137.502 60.4597C137.356 60.4626 137.211 60.4326 137.077 60.3716C136.943 60.3106 136.822 60.22 136.724 60.106C136.625 59.9919 136.551 59.8569 136.505 59.71C136.46 59.5631 136.444 59.4077 136.46 59.254C136.492 58.927 136.636 58.6236 136.864 58.4007C137.093 58.1779 137.391 58.0509 137.701 58.0436H160.97C161.116 58.0413 161.261 58.0719 161.395 58.1335C161.529 58.1951 161.649 58.2861 161.748 58.4007C161.846 58.5152 161.92 58.6505 161.965 58.7976C162.01 58.9448 162.025 59.1003 162.008 59.254C161.977 59.581 161.833 59.8844 161.604 60.1066C161.375 60.3289 161.077 60.4545 160.767 60.4597H137.502Z" fill="#F4F5F7"/>
<path d="M141.823 48.5285C141.602 48.2749 141.325 48.0844 141.016 47.9749C140.707 47.8654 140.377 47.8404 140.056 47.9023C139.624 47.9773 139.221 48.1792 138.892 48.4849C138.563 48.7906 138.322 49.1879 138.196 49.6315C138.072 50.0657 138.081 50.5305 138.223 50.9587L137.98 51.6364C137.964 51.6824 137.958 51.7318 137.963 51.7805C137.969 51.8292 137.985 51.8759 138.011 51.9168C138.038 51.956 138.075 51.987 138.118 52.0066C138.161 52.0263 138.207 52.034 138.253 52.0289L138.991 51.9775C139.299 52.175 139.652 52.2785 140.012 52.2766C140.118 52.2782 140.225 52.2703 140.33 52.2533C140.777 52.1763 141.193 51.9642 141.529 51.6424C141.864 51.3207 142.105 50.903 142.221 50.44C142.308 50.1113 142.317 49.765 142.248 49.4317C142.178 49.0983 142.033 48.7882 141.823 48.5285ZM141.916 50.3979C141.818 50.7858 141.616 51.1354 141.335 51.4049C141.053 51.6743 140.704 51.8521 140.33 51.9168C139.924 51.9861 139.509 51.8946 139.164 51.6597L139.124 51.627L138.329 51.6878L138.594 50.94V50.8793C138.458 50.505 138.446 50.0935 138.558 49.7109C138.665 49.3395 138.868 49.0069 139.143 48.7502C139.419 48.4936 139.756 48.323 140.118 48.2575C140.385 48.2086 140.66 48.2314 140.917 48.3236C141.174 48.4159 141.405 48.5747 141.589 48.7856C141.765 49.0047 141.888 49.2667 141.945 49.5481C142.002 49.8295 141.992 50.1215 141.916 50.3979Z" fill="#023773"/>
<path d="M140.56 50.3558C140.476 50.4717 140.423 50.6086 140.405 50.753C140.2 50.6829 140.017 50.5553 139.875 50.3838C139.719 50.2136 139.613 49.9993 139.57 49.7669C139.703 49.7601 139.831 49.7149 139.941 49.6361C140.047 49.5332 139.994 49.2809 139.817 49.0753C139.641 48.8696 139.407 48.7902 139.301 48.893C139.226 48.9888 139.176 49.1025 139.153 49.2241C139.131 49.3456 139.138 49.4711 139.172 49.5893C139.155 49.7916 139.18 49.9954 139.248 50.1856C139.315 50.3758 139.422 50.5474 139.561 50.6876C139.682 50.8512 139.837 50.9825 140.014 51.071C140.191 51.1595 140.386 51.2027 140.582 51.197C140.686 51.2313 140.795 51.2407 140.903 51.2245C141.011 51.2083 141.114 51.167 141.205 51.1035C141.311 50.996 141.258 50.7437 141.081 50.538C140.904 50.3324 140.67 50.253 140.56 50.3558Z" fill="#023773"/>
<path d="M182.463 30.0873L182.264 32.424H181.734L181.893 30.4986H181.451L181.486 30.064L182.463 30.0873Z" fill="#023773"/>
<path d="M184.274 31.1715C184.342 31.2388 184.394 31.3222 184.425 31.4148C184.457 31.5075 184.467 31.6067 184.455 31.7043C184.443 31.8518 184.393 31.993 184.311 32.1125C184.228 32.2319 184.116 32.3252 183.987 32.3819C183.821 32.457 183.642 32.4936 183.461 32.4894C183.312 32.4875 183.164 32.4655 183.019 32.424C182.886 32.3856 182.761 32.3223 182.648 32.2371L182.887 31.8165C182.969 31.8875 183.064 31.9414 183.165 31.9754C183.275 32.0129 183.39 32.0318 183.505 32.0314C183.616 32.0366 183.725 32.0073 183.819 31.9473C183.857 31.9209 183.888 31.8848 183.91 31.8424C183.932 31.8 183.943 31.7525 183.943 31.7043C183.95 31.6602 183.945 31.6149 183.927 31.5741C183.91 31.5333 183.882 31.4989 183.846 31.4753C183.722 31.4119 183.585 31.3845 183.448 31.3959H182.878L183.103 30.0686H184.464L184.429 30.5032H183.501L183.43 30.9706H183.611C183.848 30.9534 184.082 31.0245 184.274 31.1715Z" fill="#023773"/>
<path d="M181.469 50.0567C181.516 50.1186 181.55 50.1897 181.571 50.266C181.591 50.3422 181.597 50.422 181.588 50.5007C181.576 50.6392 181.529 50.7716 181.451 50.8839C181.367 51.0067 181.252 51.1022 181.12 51.1597C180.955 51.2347 180.778 51.2714 180.598 51.2672C180.449 51.2652 180.301 51.2432 180.157 51.2017C180.023 51.1642 179.897 51.1008 179.786 51.0148L180.02 50.5942C180.104 50.6645 180.2 50.7183 180.303 50.7531C180.411 50.7891 180.524 50.8064 180.638 50.8045C180.747 50.8109 180.856 50.785 180.952 50.7297C180.99 50.7054 181.021 50.672 181.044 50.6321C181.067 50.5923 181.081 50.5473 181.084 50.5007C181.084 50.3091 180.97 50.211 180.691 50.211H180.453L180.484 49.8511L180.987 49.2996H180.037L180.073 48.8604H181.637L181.61 49.2155L181.054 49.8231C181.214 49.8463 181.361 49.9291 181.469 50.0567Z" fill="#023773"/>
<path d="M183.382 49.9307C183.451 49.9968 183.504 50.08 183.536 50.173C183.567 50.266 183.577 50.3658 183.563 50.4635C183.551 50.6042 183.505 50.7393 183.43 50.856C183.345 50.9821 183.229 51.0808 183.095 51.1411C182.929 51.2161 182.749 51.2528 182.569 51.2486C182.42 51.2466 182.271 51.2246 182.127 51.1832C181.994 51.1438 181.869 51.0806 181.756 50.9962L181.995 50.5756C182.079 50.6459 182.175 50.6998 182.277 50.7345C182.386 50.7709 182.499 50.7882 182.613 50.7859C182.723 50.7925 182.832 50.7649 182.927 50.7065C182.963 50.6827 182.994 50.6499 183.017 50.6108C183.039 50.5718 183.052 50.5277 183.055 50.4822C183.062 50.4381 183.057 50.3928 183.039 50.3519C183.022 50.3111 182.994 50.2767 182.958 50.2532C182.834 50.1887 182.697 50.1612 182.56 50.1737H181.99L182.215 48.8418H183.576L183.541 49.2811H182.609L182.538 49.7484H182.719C182.953 49.7255 183.188 49.79 183.382 49.9307Z" fill="#023773"/>
<path d="M157.621 131.122H150.142C149.73 131.129 149.321 131.043 148.942 130.871C148.564 130.698 148.224 130.442 147.946 130.12C147.668 129.797 147.459 129.416 147.331 129.002C147.203 128.587 147.159 128.149 147.204 127.715L147.858 119.803C147.947 118.881 148.353 118.025 148.999 117.398C149.645 116.771 150.485 116.416 151.361 116.401H158.836C159.248 116.393 159.657 116.478 160.036 116.65C160.414 116.822 160.754 117.078 161.032 117.4C161.31 117.722 161.519 118.102 161.648 118.517C161.776 118.931 161.819 119.37 161.774 119.803L161.12 127.715C161.031 128.637 160.626 129.492 159.981 130.12C159.337 130.748 158.497 131.104 157.621 131.122Z" fill="#023773"/>
<path d="M156.605 121.331C156.512 122.453 155.541 123.827 154.485 123.827C153.429 123.827 152.682 122.453 152.775 121.331C152.828 120.783 153.069 120.275 153.452 119.902C153.836 119.529 154.335 119.317 154.856 119.308C155.101 119.303 155.344 119.353 155.57 119.456C155.795 119.558 155.997 119.71 156.163 119.901C156.328 120.093 156.453 120.319 156.529 120.566C156.606 120.812 156.632 121.073 156.605 121.331Z" fill="#F4F5F7"/>
<path d="M158.16 127.743C158.112 126.899 157.757 126.106 157.169 125.533C156.581 124.96 155.806 124.65 155.006 124.668H153.822C152.978 124.685 152.162 124.995 151.501 125.551C150.84 126.107 150.37 126.877 150.164 127.743C150.149 127.798 150.146 127.856 150.156 127.912C150.165 127.968 150.188 128.021 150.22 128.067C150.253 128.112 150.295 128.149 150.344 128.174C150.392 128.199 150.446 128.211 150.5 128.21H157.741C157.854 128.204 157.961 128.153 158.039 128.066C158.117 127.979 158.16 127.863 158.16 127.743Z" fill="#F4F5F7"/>
<path d="M176.397 131.122H168.922C168.51 131.129 168.101 131.043 167.722 130.871C167.344 130.698 167.004 130.442 166.727 130.12C166.449 129.797 166.239 129.416 166.111 129.002C165.983 128.587 165.94 128.149 165.984 127.715L166.638 119.803C166.728 118.881 167.134 118.025 167.779 117.398C168.425 116.771 169.265 116.416 170.141 116.401H177.616C178.028 116.393 178.437 116.478 178.816 116.65C179.194 116.822 179.534 117.078 179.812 117.4C180.09 117.722 180.3 118.102 180.428 118.517C180.556 118.931 180.599 119.37 180.554 119.803L179.9 127.715C179.811 128.638 179.405 129.494 178.76 130.121C178.114 130.749 177.274 131.105 176.397 131.122Z" fill="#023773"/>
<path d="M177.665 126.131C177.707 126.021 177.735 125.907 177.749 125.79L178.071 121.864C178.088 121.686 178.063 121.506 177.996 121.341L174.904 123.71L177.665 126.131Z" fill="#F4F5F7"/>
<path d="M172.858 124.061C172.967 124.151 173.102 124.2 173.241 124.2C173.379 124.2 173.514 124.151 173.623 124.061L177.7 120.915C177.515 120.758 177.284 120.672 177.047 120.672H169.978C169.727 120.676 169.484 120.76 169.28 120.915L172.858 124.061Z" fill="#F4F5F7"/>
<path d="M168.922 121.341C168.831 121.5 168.775 121.679 168.759 121.864L168.436 125.79C168.418 125.903 168.418 126.018 168.436 126.131L171.582 123.705L168.922 121.341Z" fill="#F4F5F7"/>
<path d="M174.471 124.056L173.901 124.495C173.694 124.657 173.443 124.746 173.185 124.748C172.938 124.75 172.697 124.66 172.505 124.495L172.01 124.056L168.692 126.612C168.79 126.729 168.911 126.823 169.046 126.887C169.18 126.95 169.327 126.983 169.474 126.981H176.521C176.836 126.978 177.139 126.845 177.365 126.612L174.471 124.056Z" fill="#F4F5F7"/>
<path d="M178.376 120.831C177.947 120.839 177.522 120.75 177.128 120.571C176.734 120.391 176.381 120.125 176.092 119.79C175.802 119.455 175.584 119.059 175.451 118.627C175.318 118.196 175.273 117.74 175.319 117.289C175.412 116.329 175.834 115.438 176.506 114.785C177.177 114.133 178.052 113.763 178.964 113.746H179.604C180.034 113.737 180.459 113.826 180.854 114.005C181.248 114.184 181.602 114.45 181.891 114.785C182.18 115.121 182.399 115.517 182.532 115.949C182.665 116.381 182.709 116.837 182.662 117.289C182.569 118.249 182.147 119.139 181.475 119.792C180.803 120.445 179.929 120.814 179.017 120.831H178.376Z" fill="#011C3A"/>
<path d="M178.425 115.873L178.195 118.653H177.586L177.771 116.391H177.245L177.29 115.873H178.425Z" fill="#F4F5F7"/>
<path d="M180.559 117.153C180.64 117.231 180.702 117.329 180.739 117.438C180.776 117.548 180.787 117.665 180.771 117.78C180.76 117.948 180.705 118.11 180.612 118.247C180.511 118.393 180.375 118.509 180.219 118.583C180.024 118.673 179.812 118.716 179.6 118.71C179.425 118.707 179.251 118.681 179.083 118.63C178.924 118.588 178.774 118.513 178.641 118.41L178.92 117.915C179.018 117.998 179.131 118.062 179.251 118.102C179.38 118.145 179.514 118.167 179.649 118.167C179.777 118.173 179.904 118.14 180.015 118.074C180.059 118.046 180.096 118.007 180.123 117.96C180.15 117.914 180.166 117.862 180.17 117.808C180.178 117.755 180.171 117.702 180.151 117.654C180.13 117.606 180.097 117.565 180.055 117.537C179.91 117.462 179.748 117.429 179.587 117.443H178.915L179.18 115.877H180.784L180.74 116.396H179.644L179.56 116.924H179.772C180.052 116.901 180.33 116.982 180.559 117.153Z" fill="#F4F5F7"/>
<path d="M140.864 106.666H133.389C132.977 106.674 132.568 106.589 132.189 106.416C131.81 106.244 131.47 105.988 131.192 105.665C130.914 105.343 130.704 104.961 130.577 104.547C130.449 104.132 130.406 103.693 130.452 103.259L131.105 95.3515C131.194 94.4293 131.599 93.5733 132.244 92.9455C132.888 92.3177 133.728 91.9616 134.604 91.9446H142.084C142.496 91.9367 142.905 92.0218 143.284 92.1943C143.663 92.3669 144.003 92.6229 144.281 92.9453C144.559 93.2676 144.769 93.649 144.897 94.0639C145.024 94.4789 145.067 94.9178 145.022 95.3515L144.368 103.259C144.279 104.182 143.874 105.039 143.228 105.667C142.582 106.294 141.741 106.65 140.864 106.666Z" fill="#023773"/>
<path d="M141.046 96.1976C140.609 95.6951 140.061 95.3165 139.45 95.0969C138.839 94.8772 138.186 94.8234 137.551 94.9405C136.687 95.0896 135.881 95.4925 135.223 96.1031C134.565 96.7137 134.083 97.5076 133.831 98.3941C133.583 99.264 133.6 100.194 133.88 101.053L133.403 102.404C133.367 102.495 133.354 102.595 133.365 102.693C133.376 102.791 133.41 102.885 133.465 102.965C133.519 103.043 133.591 103.105 133.675 103.145C133.758 103.185 133.85 103.202 133.942 103.194L135.422 103.086C136.034 103.488 136.742 103.699 137.463 103.694C137.676 103.693 137.888 103.676 138.099 103.642C138.992 103.49 139.824 103.066 140.495 102.424C141.165 101.781 141.645 100.946 141.876 100.02C142.05 99.3605 142.065 98.6652 141.919 97.9976C141.774 97.33 141.474 96.7113 141.046 96.1976ZM141.231 99.9083C141.037 100.685 140.634 101.386 140.071 101.925C139.508 102.464 138.809 102.819 138.059 102.946C137.25 103.088 136.419 102.904 135.731 102.432L135.647 102.371L134.061 102.488L134.591 100.997L134.547 100.876C134.278 100.127 134.251 99.3052 134.472 98.539C134.688 97.7981 135.094 97.135 135.645 96.6228C136.195 96.1106 136.869 95.7694 137.591 95.6368C138.127 95.5328 138.68 95.5759 139.196 95.7618C139.713 95.9478 140.175 96.2705 140.54 96.6992C140.905 97.128 141.16 97.6484 141.281 98.2109C141.402 98.7735 141.385 99.3595 141.231 99.913V99.9083Z" fill="#F4F5F7"/>
<path d="M138.527 99.8943C138.354 100.12 138.245 100.395 138.214 100.684C137.801 100.53 137.432 100.269 137.14 99.9244C136.848 99.5797 136.643 99.1627 136.544 98.7119C136.808 98.6997 137.064 98.609 137.282 98.4502C137.502 98.2399 137.388 97.7352 137.034 97.3239C136.681 96.9127 136.217 96.7538 136 96.9641C135.853 97.1579 135.752 97.3872 135.709 97.6317C135.665 97.8763 135.678 98.1285 135.749 98.3661C135.713 98.7713 135.765 99.1797 135.899 99.5608C136.034 99.942 136.248 100.286 136.526 100.567C136.768 100.892 137.078 101.153 137.431 101.329C137.785 101.505 138.172 101.591 138.563 101.581C138.771 101.648 138.991 101.666 139.206 101.633C139.421 101.6 139.627 101.517 139.809 101.39C140.025 101.18 139.915 100.675 139.561 100.264C139.208 99.8523 138.744 99.6793 138.527 99.8943Z" fill="#F4F5F7"/>
<path d="M142.923 95.4873C142.494 95.496 142.068 95.4078 141.674 95.2286C141.28 95.0494 140.926 94.7833 140.637 94.448C140.347 94.1127 140.129 93.716 139.996 93.2844C139.863 92.8527 139.819 92.396 139.866 91.9448C139.959 90.9857 140.38 90.0958 141.051 89.4431C141.722 88.7904 142.595 88.4202 143.506 88.4023H144.151C144.58 88.3944 145.006 88.4831 145.4 88.6625C145.794 88.842 146.147 89.1081 146.436 89.4432C146.725 89.7783 146.944 90.1747 147.077 90.606C147.21 91.0374 147.255 91.4937 147.208 91.9448C147.116 92.9046 146.693 93.7952 146.022 94.448C145.35 95.1008 144.476 95.4706 143.564 95.4873H142.923Z" fill="#011C3A"/>
<path d="M143.237 91.9354C143.293 92.008 143.334 92.0918 143.358 92.1818C143.383 92.2717 143.389 92.366 143.378 92.4588C143.369 92.6275 143.314 92.7898 143.219 92.9261C143.119 93.071 142.983 93.1842 142.826 93.2533C142.632 93.3404 142.422 93.3818 142.212 93.3748C142.03 93.3758 141.849 93.3507 141.673 93.3C141.514 93.2564 141.364 93.1819 141.231 93.0804L141.509 92.585C141.609 92.6673 141.721 92.7306 141.841 92.7719C141.969 92.815 142.103 92.8371 142.238 92.8373C142.367 92.8434 142.494 92.811 142.605 92.7439C142.65 92.7163 142.687 92.6776 142.714 92.6312C142.741 92.5847 142.757 92.5319 142.76 92.4775C142.76 92.2532 142.623 92.1363 142.318 92.1363H142.04L142.075 91.711L142.671 91.0661H141.532L141.576 90.5474H143.418L143.383 90.9633L142.729 91.683C142.922 91.6964 143.104 91.7865 143.237 91.9354Z" fill="#F4F5F7"/>
<path d="M145.508 91.8091C145.589 91.887 145.651 91.9849 145.688 92.0941C145.725 92.2034 145.736 92.3205 145.72 92.4353C145.709 92.6038 145.654 92.7658 145.561 92.9027C145.462 93.0514 145.326 93.1679 145.167 93.2392C144.974 93.3267 144.764 93.3682 144.553 93.3607C144.37 93.3617 144.187 93.3366 144.01 93.2859C143.851 93.2422 143.701 93.1678 143.568 93.0662L143.851 92.5708C143.95 92.6532 144.062 92.7165 144.182 92.7578C144.309 92.8011 144.442 92.8231 144.575 92.8232C144.706 92.8301 144.835 92.7959 144.947 92.7251C144.985 92.6939 145.016 92.6535 145.037 92.6071C145.057 92.5608 145.067 92.5099 145.066 92.4587C145.075 92.4065 145.069 92.3527 145.048 92.3042C145.028 92.2558 144.994 92.2152 144.951 92.1876C144.807 92.1125 144.647 92.0802 144.487 92.0942H143.816L144.076 90.5286H145.68L145.64 91.0473H144.545L144.456 91.5754H144.673C144.969 91.5393 145.267 91.6227 145.508 91.8091Z" fill="#F4F5F7"/>
<path d="M159.645 106.666H152.165C151.753 106.674 151.344 106.589 150.965 106.416C150.586 106.244 150.246 105.988 149.968 105.665C149.69 105.343 149.48 104.961 149.352 104.547C149.225 104.132 149.182 103.693 149.227 103.259L149.881 95.3515C149.97 94.4293 150.375 93.5733 151.019 92.9455C151.664 92.3177 152.504 91.9616 153.38 91.9446H160.86C161.272 91.9367 161.681 92.0218 162.06 92.1943C162.439 92.3669 162.779 92.6229 163.057 92.9453C163.335 93.2676 163.545 93.649 163.672 94.0639C163.8 94.4789 163.843 94.9178 163.797 95.3515L163.144 103.259C163.055 104.181 162.65 105.037 162.005 105.665C161.361 106.293 160.521 106.649 159.645 106.666Z" fill="#023773"/>
<path d="M158.182 94.9029H155.571C154.839 94.9181 154.137 95.2157 153.598 95.7398C153.059 96.264 152.719 96.9785 152.642 97.7491L152.417 100.511C152.379 100.873 152.415 101.24 152.522 101.586C152.628 101.932 152.803 102.251 153.035 102.52C153.267 102.789 153.551 103.003 153.867 103.148C154.183 103.292 154.525 103.363 154.869 103.357H157.484C158.216 103.342 158.917 103.044 159.456 102.52C159.995 101.996 160.334 101.281 160.409 100.511L160.639 97.7491C160.676 97.3867 160.639 97.0202 160.532 96.6738C160.425 96.3274 160.25 96.0091 160.017 95.7399C159.785 95.4708 159.501 95.2569 159.185 95.1126C158.869 94.9683 158.527 94.8969 158.182 94.9029ZM159.702 100.511C159.647 101.079 159.398 101.606 159 101.993C158.603 102.379 158.086 102.599 157.546 102.609H154.931C154.676 102.618 154.423 102.567 154.188 102.462C153.953 102.357 153.743 102.199 153.571 102C153.4 101.8 153.271 101.564 153.194 101.307C153.116 101.05 153.093 100.779 153.124 100.511L153.349 97.7491C153.404 97.1803 153.655 96.6526 154.053 96.2659C154.451 95.8792 154.969 95.6603 155.51 95.6507H158.121C158.375 95.6458 158.627 95.6982 158.86 95.8044C159.094 95.9107 159.303 96.0683 159.474 96.2668C159.646 96.4654 159.775 96.7002 159.854 96.9558C159.933 97.2114 159.959 97.4818 159.932 97.7491L159.702 100.511Z" fill="#F4F5F7"/>
<path d="M156.685 97.1977C156.188 97.2086 155.712 97.4114 155.347 97.7677C154.981 98.1241 154.752 98.6095 154.701 99.1325C154.676 99.3782 154.701 99.6267 154.773 99.8616C154.846 100.096 154.965 100.312 155.122 100.495C155.28 100.677 155.472 100.822 155.687 100.92C155.901 101.018 156.133 101.067 156.367 101.063C156.864 101.053 157.34 100.851 157.706 100.496C158.072 100.14 158.303 99.6554 158.355 99.1325C158.379 98.8863 158.354 98.6375 158.281 98.4023C158.208 98.1672 158.088 97.9511 157.93 97.7684C157.773 97.5856 157.58 97.4402 157.365 97.3418C157.151 97.2435 156.919 97.1943 156.685 97.1977ZM156.428 100.315C156.285 100.317 156.144 100.287 156.012 100.227C155.881 100.167 155.763 100.078 155.667 99.9663C155.571 99.8546 155.498 99.7225 155.453 99.5788C155.408 99.435 155.393 99.2829 155.408 99.1325C155.439 98.812 155.58 98.5146 155.803 98.2961C156.027 98.0775 156.318 97.9528 156.623 97.9454C156.767 97.9424 156.909 97.972 157.041 98.032C157.173 98.0921 157.291 98.1814 157.388 98.2938C157.485 98.4063 157.557 98.5393 157.601 98.6839C157.646 98.8285 157.66 98.9815 157.643 99.1325C157.612 99.4524 157.471 99.7493 157.248 99.9671C157.024 100.185 156.733 100.309 156.428 100.315Z" fill="#F4F5F7"/>
<path d="M158.673 96.3283C158.512 96.3298 158.358 96.3942 158.24 96.509C158.121 96.6237 158.047 96.7808 158.032 96.9498C158.024 97.0292 158.032 97.1095 158.055 97.1854C158.079 97.2613 158.117 97.331 158.169 97.3898C158.22 97.4487 158.282 97.4953 158.351 97.5266C158.421 97.5579 158.496 97.5732 158.571 97.5714C158.731 97.5678 158.884 97.5028 159.002 97.3884C159.12 97.274 159.195 97.1181 159.212 96.9498C159.22 96.8704 159.212 96.7901 159.189 96.7143C159.165 96.6384 159.126 96.5687 159.075 96.5098C159.024 96.451 158.962 96.4044 158.893 96.3731C158.823 96.3417 158.748 96.3265 158.673 96.3283Z" fill="#F4F5F7"/>
<path d="M161.699 95.4873C161.27 95.496 160.844 95.4078 160.45 95.2286C160.055 95.0494 159.702 94.7833 159.412 94.448C159.123 94.1127 158.905 93.716 158.772 93.2844C158.639 92.8527 158.595 92.396 158.642 91.9448C158.735 90.9857 159.156 90.0958 159.827 89.4431C160.498 88.7904 161.371 88.4202 162.282 88.4023H162.927C163.356 88.3944 163.782 88.4831 164.176 88.6625C164.569 88.842 164.923 89.1081 165.212 89.4432C165.501 89.7783 165.72 90.1747 165.853 90.606C165.986 91.0374 166.031 91.4937 165.984 91.9448C165.891 92.9046 165.469 93.7952 164.798 94.448C164.126 95.1008 163.252 95.4706 162.34 95.4873H161.699Z" fill="#011C3A"/>
<path d="M163.479 90.552L163.444 90.9726L162.295 93.3327H161.633L162.764 91.0801H161.88L161.84 91.5474H161.301L161.381 90.5707L163.479 90.552Z" fill="#F4F5F7"/>
<path d="M178.416 106.666H170.941C170.529 106.674 170.119 106.589 169.74 106.416C169.362 106.244 169.022 105.988 168.744 105.665C168.466 105.343 168.256 104.961 168.128 104.547C168.001 104.132 167.958 103.693 168.003 103.259L168.657 95.3515C168.746 94.4293 169.15 93.5733 169.795 92.9455C170.44 92.3177 171.28 91.9616 172.156 91.9446H179.635C180.048 91.9367 180.457 92.0218 180.836 92.1943C181.215 92.3669 181.555 92.6229 181.833 92.9453C182.111 93.2676 182.32 93.649 182.448 94.0639C182.576 94.4789 182.619 94.9178 182.573 95.3515L181.919 103.259C181.831 104.182 181.425 105.039 180.78 105.667C180.134 106.294 179.293 106.65 178.416 106.666Z" fill="#023773"/>
<path d="M177.17 98.824H179.114L178.964 100.614H177.077L176.578 106.666H174.369L174.873 100.614H173.702L173.848 98.824H175.019L175.05 98.4689C175.085 97.6414 175.422 96.8606 175.991 96.2911C176.611 95.7325 177.408 95.445 178.222 95.4872C178.534 95.4855 178.845 95.5231 179.149 95.5994C179.404 95.6586 179.645 95.768 179.861 95.9219L179.145 97.6043C178.889 97.4073 178.578 97.3069 178.261 97.3192C177.594 97.3192 177.232 97.7071 177.166 98.4829L177.17 98.824Z" fill="#F4F5F7"/>
<path d="M180.475 95.4873C180.046 95.496 179.62 95.4078 179.226 95.2286C178.831 95.0494 178.478 94.7833 178.188 94.448C177.899 94.1127 177.681 93.716 177.548 93.2844C177.415 92.8527 177.37 92.396 177.418 91.9448C177.51 90.9857 177.932 90.0958 178.603 89.4431C179.273 88.7904 180.147 88.4202 181.058 88.4023H181.703C182.132 88.3944 182.557 88.4831 182.951 88.6625C183.345 88.842 183.699 89.1081 183.988 89.4432C184.277 89.7783 184.495 90.1747 184.629 90.606C184.762 91.0374 184.807 91.4937 184.76 91.9448C184.667 92.9046 184.245 93.7952 183.574 94.448C182.902 95.1008 182.027 95.4706 181.115 95.4873H180.475Z" fill="#011C3A"/>
<path d="M181.023 90.552L180.987 90.9726L179.812 93.3327H179.154L180.28 91.0801H179.397L179.362 91.5474H178.818L178.902 90.5707L181.023 90.552Z" fill="#F4F5F7"/>
<path d="M181.562 93.2112C181.396 93.0894 181.271 92.9163 181.204 92.7158C181.121 92.4689 181.093 92.2048 181.124 91.9447C181.139 91.6746 181.21 91.4114 181.332 91.1736C181.433 90.9687 181.586 90.7974 181.774 90.6782C181.953 90.5614 182.16 90.5014 182.37 90.5053C182.571 90.4994 182.769 90.5598 182.936 90.6782C183.104 90.7973 183.231 90.9712 183.298 91.1736C183.377 91.4215 183.404 91.6846 183.377 91.9447C183.358 92.214 183.288 92.4763 183.17 92.7158C183.066 92.9188 182.913 93.0895 182.728 93.2112C182.547 93.3248 182.341 93.3845 182.131 93.3841C181.93 93.3871 181.731 93.327 181.562 93.2112ZM182.573 92.6177C182.694 92.4159 182.759 92.1832 182.763 91.9447C182.8 91.7154 182.772 91.4799 182.684 91.267C182.649 91.199 182.598 91.1427 182.534 91.1046C182.471 91.0666 182.399 91.0483 182.326 91.0521C182.249 91.0508 182.172 91.0698 182.104 91.1073C182.035 91.1448 181.976 91.1997 181.933 91.267C181.811 91.4703 181.744 91.7044 181.738 91.9447C181.702 92.1728 181.731 92.4072 181.822 92.6177C181.855 92.6866 181.905 92.744 181.968 92.783C182.031 92.822 182.103 92.8409 182.176 92.8373C182.254 92.838 182.331 92.8183 182.4 92.78C182.47 92.7417 182.529 92.6859 182.573 92.6177Z" fill="#F4F5F7"/>
<path d="M138.845 131.122H131.37C130.958 131.129 130.549 131.043 130.171 130.871C129.792 130.698 129.453 130.442 129.175 130.12C128.897 129.797 128.687 129.416 128.559 129.002C128.431 128.587 128.388 128.149 128.433 127.715L129.086 119.803C129.176 118.881 129.582 118.025 130.228 117.398C130.873 116.771 131.714 116.416 132.59 116.401H140.065C140.477 116.393 140.886 116.478 141.264 116.65C141.643 116.822 141.982 117.078 142.26 117.4C142.538 117.722 142.748 118.102 142.876 118.517C143.004 118.931 143.047 119.37 143.003 119.803L142.349 127.715C142.259 128.638 141.854 129.494 141.208 130.121C140.563 130.749 139.722 131.105 138.845 131.122Z" fill="#023773"/>
<path d="M136.058 119.602C133.332 119.602 130.973 121.471 130.783 123.747C130.746 124.401 130.88 125.053 131.172 125.63C131.464 126.208 131.901 126.688 132.435 127.019C132.098 127.679 131.669 128.283 131.163 128.809C131.893 128.803 132.614 128.636 133.279 128.318C133.604 128.164 133.915 127.978 134.207 127.762C134.591 127.841 134.982 127.882 135.373 127.883C138.094 127.883 140.458 126.014 140.648 123.733C140.838 121.453 138.779 119.602 136.058 119.602Z" fill="#F4F5F7"/>
<path d="M140.825 120.831C140.396 120.839 139.97 120.75 139.576 120.571C139.182 120.391 138.829 120.125 138.54 119.79C138.251 119.455 138.032 119.059 137.899 118.627C137.766 118.196 137.721 117.74 137.768 117.289C137.86 116.329 138.283 115.438 138.954 114.785C139.626 114.133 140.5 113.763 141.412 113.746H142.053C142.482 113.737 142.908 113.826 143.302 114.005C143.696 114.184 144.05 114.45 144.339 114.785C144.629 115.121 144.847 115.517 144.98 115.949C145.113 116.381 145.157 116.837 145.11 117.289C145.017 118.249 144.595 119.139 143.923 119.792C143.252 120.445 142.377 120.814 141.465 120.831H140.825Z" fill="#011C3A"/>
<path d="M142.3 117.279C142.357 117.351 142.399 117.435 142.423 117.525C142.448 117.615 142.454 117.71 142.442 117.803C142.431 117.97 142.377 118.132 142.287 118.27C142.185 118.414 142.05 118.527 141.894 118.597C141.7 118.686 141.491 118.729 141.28 118.723C141.097 118.723 140.916 118.697 140.741 118.644C140.581 118.602 140.431 118.527 140.299 118.424L140.573 117.929C140.673 118.012 140.787 118.075 140.909 118.116C141.037 118.159 141.171 118.181 141.306 118.181C141.434 118.187 141.561 118.154 141.673 118.088C141.717 118.06 141.755 118.022 141.782 117.975C141.809 117.929 141.824 117.876 141.828 117.821C141.828 117.597 141.691 117.48 141.364 117.48H141.09L141.125 117.055L141.717 116.41H140.599L140.644 115.891H142.481L142.446 116.312L141.797 117.027C141.988 117.042 142.168 117.132 142.3 117.279Z" fill="#F4F5F7"/>
<path opacity="0.2" d="M129.299 148.54H176.569C178.169 148.51 179.702 147.861 180.879 146.715C182.056 145.57 182.796 144.008 182.958 142.324L192.836 22.8248C192.949 21.7067 192.741 20.5785 192.24 19.5868C191.739 18.5951 190.968 17.7856 190.026 17.2634L127.836 148.353C128.314 148.482 128.806 148.544 129.299 148.54Z" fill="#F4F5F7"/>
<path d="M184.287 152.573L180.956 159.329L183.634 161.486L188.542 154.175L184.287 152.573Z" fill="#C9916C"/>
<path d="M185.1 160.849C185.083 160.84 185.068 160.826 185.059 160.809C185.049 160.792 185.045 160.772 185.047 160.753C185.049 160.733 185.056 160.715 185.069 160.7C185.082 160.685 185.099 160.674 185.118 160.67C185.189 160.67 186.788 160.281 187.393 160.67C187.504 160.736 187.585 160.842 187.618 160.967C187.645 161.037 187.648 161.113 187.628 161.185C187.609 161.257 187.566 161.321 187.508 161.368C187.283 161.53 186.753 161.469 186.267 161.329C185.864 161.203 185.474 161.042 185.1 160.849ZM185.436 160.814C186.138 161.119 187.132 161.399 187.389 161.202C187.424 161.176 187.464 161.128 187.428 160.993C187.421 160.954 187.405 160.917 187.38 160.886C187.355 160.855 187.324 160.83 187.287 160.814C187.234 160.78 187.176 160.755 187.115 160.739C186.555 160.661 185.986 160.687 185.436 160.814Z" fill="#023773"/>
<path d="M185.052 160.831C185.043 160.816 185.039 160.8 185.039 160.783C185.039 160.766 185.043 160.749 185.052 160.735C185.052 160.687 185.493 159.674 186.112 159.425C186.2 159.387 186.296 159.367 186.392 159.367C186.489 159.367 186.584 159.387 186.673 159.425C186.925 159.525 186.965 159.674 186.942 159.783C186.894 160.246 185.701 160.809 185.175 160.879C185.162 160.883 185.149 160.883 185.136 160.879C185.119 160.878 185.102 160.873 185.088 160.865C185.073 160.857 185.061 160.845 185.052 160.831ZM186.54 159.564C186.427 159.519 186.3 159.519 186.187 159.564C185.789 159.808 185.48 160.171 185.303 160.599C185.873 160.455 186.686 159.979 186.744 159.726C186.744 159.7 186.744 159.63 186.589 159.569H186.532L186.54 159.564Z" fill="#023773"/>
<path d="M184.862 160.176L180.576 158.927C180.498 158.904 180.415 158.907 180.339 158.938C180.264 158.968 180.201 159.023 180.161 159.093L178.359 162.312C178.28 162.448 178.26 162.61 178.303 162.761C178.345 162.913 178.446 163.042 178.584 163.119L178.699 163.167C180.254 163.604 181.65 163.91 183.558 164.478C185.829 165.142 185.171 165.242 187.826 166.059C189.43 166.548 190.26 164.827 189.593 164.539C186.589 163.229 186.545 162.215 185.675 160.761C185.482 160.477 185.194 160.269 184.862 160.176Z" fill="#011C3A"/>
<path opacity="0.1" d="M181.99 157.232L185.228 159.11L188.542 154.175L184.287 152.573L181.99 157.232Z" fill="#011C3A"/>
<path d="M221.083 155.311L224.649 161.945L227.883 160.39L224.896 152.852L221.083 155.311Z" fill="#C9916C"/>
<path d="M228.594 160.176C228.575 160.181 228.555 160.18 228.536 160.173C228.517 160.167 228.501 160.156 228.488 160.141C228.475 160.125 228.468 160.105 228.468 160.084C228.468 160.064 228.475 160.044 228.488 160.028C228.528 159.971 229.473 158.643 230.171 158.525C230.236 158.512 230.302 158.512 230.367 158.525C230.431 158.537 230.492 158.563 230.547 158.599C230.612 158.635 230.665 158.69 230.698 158.756C230.731 158.823 230.743 158.897 230.732 158.971C230.67 159.237 230.233 159.543 229.774 159.757C229.394 159.931 228.999 160.071 228.594 160.176ZM228.819 159.931C229.548 159.696 230.48 159.255 230.542 158.936C230.542 158.896 230.542 158.835 230.432 158.757C230.399 158.732 230.362 158.716 230.322 158.708C230.282 158.701 230.241 158.702 230.202 158.713C230.141 158.725 230.082 158.744 230.025 158.77C229.553 159.082 229.144 159.479 228.819 159.94V159.931Z" fill="#023773"/>
<path d="M228.563 160.202C228.546 160.199 228.53 160.192 228.517 160.181C228.504 160.171 228.494 160.157 228.488 160.141C228.488 160.093 228.104 159.062 228.391 158.46C228.431 158.372 228.489 158.293 228.561 158.229C228.633 158.164 228.718 158.115 228.81 158.084C229.062 157.997 229.195 158.084 229.252 158.176C229.526 158.551 229.014 159.757 228.66 160.158C228.651 160.169 228.639 160.177 228.625 160.18C228.608 160.195 228.586 160.203 228.563 160.202ZM228.828 158.276C228.717 158.327 228.628 158.415 228.576 158.525C228.451 158.969 228.467 159.44 228.62 159.875C228.952 159.394 229.239 158.503 229.098 158.263C229.098 158.263 229.04 158.189 228.877 158.263L228.828 158.289V158.276Z" fill="#023773"/>
<path d="M227.971 159.848L223.924 161.722C223.851 161.757 223.791 161.815 223.755 161.887C223.719 161.959 223.709 162.041 223.725 162.119L224.538 165.714C224.575 165.864 224.67 165.995 224.803 166.076C224.937 166.158 225.097 166.185 225.25 166.151C225.291 166.141 225.331 166.128 225.369 166.111C226.814 165.412 228.073 164.731 229.888 163.893C232.031 162.901 231.607 163.408 234.143 162.277C235.671 161.595 235.141 159.761 234.456 159.975C231.337 160.971 230.617 160.233 228.987 159.717C228.644 159.637 228.282 159.684 227.971 159.848Z" fill="#011C3A"/>
<path opacity="0.1" d="M227.083 158.372L225.289 153.843L223.125 153.996L221.083 155.311L223.699 160.171L227.083 158.372Z" fill="#011C3A"/>
<path d="M216.577 66.7985L217.805 63.8942L219.254 59.3915C219.316 59.1994 219.421 59.0238 219.562 58.8784C219.703 58.7329 219.876 58.6216 220.067 58.553L221.773 57.9416C222.067 57.8352 222.391 57.8356 222.685 57.9427C222.98 58.0499 223.226 58.2569 223.381 58.5268L224.379 60.2737C224.545 60.5656 224.592 60.9092 224.51 61.2341C224.428 61.559 224.223 61.8404 223.937 62.0206L220.271 64.3921L219.78 67.7767L216.577 66.7985Z" fill="#C9916C"/>
<path d="M202.303 90.2117H209.098C209.098 90.2117 211.559 98.9463 201.146 135.108C201.022 135.541 200.833 135.953 200.585 136.33L186.54 157.73L182.564 155.437C182.564 155.437 186.483 145.213 190.618 137.501C191.581 135.697 192.5 134.238 193.008 132.662C193.322 131.688 193.538 131.02 193.609 128.57C193.764 123.041 194.104 113.393 194.674 109.074C194.674 109.074 189.196 99.2345 191.515 90.2248L202.303 90.2117Z" fill="#023773"/>
<path opacity="0.2" d="M202.303 90.2117H209.098C209.098 90.2117 211.559 98.9463 201.146 135.108C201.022 135.541 200.833 135.953 200.585 136.33L186.54 157.73L182.564 155.437C182.564 155.437 186.483 145.213 190.618 137.501C191.581 135.697 192.5 134.238 193.008 132.662C193.322 131.688 193.538 131.02 193.609 128.57C193.764 123.041 194.104 113.393 194.674 109.074C194.674 109.074 189.196 99.2345 191.515 90.2248L202.303 90.2117Z" fill="#011C3A"/>
<path d="M206.964 60.7501C208.135 61.5537 210.353 64.3444 213.396 71.5373C213.453 71.6722 213.55 71.7868 213.675 71.8653C213.799 71.9439 213.945 71.9827 214.093 71.9765C214.24 71.9703 214.382 71.9194 214.499 71.8307C214.617 71.742 214.704 71.6197 214.748 71.4805L216.816 64.9689L220.412 65.6283C220.412 65.6283 219.135 80.3331 214.726 80.4466C210.317 80.5602 204.755 67.3796 204.755 67.3796C204.755 67.3796 203.973 63.0822 205.219 61.0951C205.309 60.9569 205.426 60.838 205.563 60.7455C205.7 60.6529 205.855 60.5887 206.018 60.5565C206.18 60.5243 206.348 60.5248 206.511 60.5581C206.673 60.5913 206.828 60.6566 206.964 60.7501Z" fill="#023773"/>
<path opacity="0.2" d="M206.964 60.7501C208.135 61.5537 210.353 64.3444 213.396 71.5373C213.453 71.6722 213.55 71.7868 213.675 71.8653C213.799 71.9439 213.945 71.9827 214.093 71.9765C214.24 71.9703 214.382 71.9194 214.499 71.8307C214.617 71.742 214.704 71.6197 214.748 71.4805L216.816 64.9689L220.412 65.6283C220.412 65.6283 219.135 80.3331 214.726 80.4466C210.317 80.5602 204.755 67.3796 204.755 67.3796C204.755 67.3796 203.973 63.0822 205.219 61.0951C205.309 60.9569 205.426 60.838 205.563 60.7455C205.7 60.6529 205.855 60.5887 206.018 60.5565C206.18 60.5243 206.348 60.5248 206.511 60.5581C206.673 60.5913 206.828 60.6566 206.964 60.7501Z" fill="#011C3A"/>
<path d="M190.371 90.2117H203.96L205.201 96.4394L226.99 157.04L222.678 159.333C222.678 159.333 213.401 144.157 209.01 133.946C208.298 132.291 207.963 130.692 207.353 129.526C206.845 128.552 206.288 128.194 204.702 126.032C202.113 122.469 198.57 117.481 195.668 111.568C195.257 110.734 195.014 109.821 194.51 109.065C193.965 108.422 193.459 107.746 192.995 107.043C191.17 104.148 188.551 98.2955 190.371 90.2117Z" fill="#023773"/>
<path d="M221.083 158.093L226.88 155.031L227.551 157.11L222.409 159.896L221.083 158.093Z" fill="#023773"/>
<path opacity="0.5" d="M221.083 158.093L226.88 155.031L227.551 157.11L222.409 159.896L221.083 158.093Z" fill="#F4F5F7"/>
<path d="M182.419 153.852L187.998 157.285L186.51 158.901L181.5 155.892L182.419 153.852Z" fill="#023773"/>
<path opacity="0.5" d="M182.419 153.852L187.998 157.285L186.51 158.901L181.5 155.892L182.419 153.852Z" fill="#F4F5F7"/>
<path d="M185.321 62.1561C184.903 62.4895 184.597 62.9408 184.444 63.4502C184.29 63.9595 184.298 64.5028 184.464 65.008C185.675 68.6285 188.502 77.2932 189.006 80.6953C189.324 82.8484 188.171 87.3948 189.006 89.4299C189.455 90.2227 190.148 90.8531 190.985 91.2293C195.257 92.5395 208.895 91.2293 208.895 91.2293C208.895 91.2293 210.074 90.6222 210.22 90.2335C210.582 89.1286 208.895 85.7614 208.895 85.7614C208.895 85.7614 209.036 77.4155 208.895 74.6423C208.776 72.3057 208.391 67.3663 208.135 64.1607C208.059 63.1772 207.702 62.2353 207.104 61.4456C206.506 60.6558 205.693 60.0509 204.76 59.7017C200.479 58.0858 192.496 56.4393 185.321 62.1561Z" fill="#023773"/>
<path opacity="0.5" d="M185.317 62.1606C184.9 62.4943 184.595 62.945 184.443 63.4534C184.291 63.9618 184.298 64.5039 184.464 65.0081C185.675 68.6242 188.502 77.2933 189.006 80.6955C189.324 82.8485 188.171 87.3949 189.006 89.4301C189.455 90.2229 190.148 90.8532 190.985 91.2294C194.63 92.3605 205.091 91.5613 208.086 91.3036C208.745 91.255 209.374 91.0098 209.889 90.6005C210.023 90.5047 210.132 90.379 210.207 90.2336C210.569 89.1287 208.881 85.7615 208.881 85.7615C208.881 85.7615 209.023 77.4156 208.881 74.6424C208.762 72.3059 208.378 67.3664 208.122 64.1608C208.046 63.1784 207.689 62.2376 207.092 61.4487C206.495 60.6597 205.683 60.0553 204.751 59.7062C200.483 58.0859 192.496 56.4395 185.317 62.1606Z" fill="#F4F5F7"/>
<path d="M200.54 66.362C200.54 66.362 191.727 65.0518 190.256 59.942C188.785 54.8323 200.077 55.3564 202.241 59.5621C204.406 63.7678 200.54 66.362 200.54 66.362Z" fill="#023773"/>
<path opacity="0.2" d="M200.54 66.362C200.54 66.362 191.727 65.0518 190.256 59.942C188.785 54.8323 200.077 55.3564 202.241 59.5621C204.406 63.7678 200.54 66.362 200.54 66.362Z" fill="#011C3A"/>
<path d="M200.152 64.912C200.152 64.912 194.276 63.9162 193.348 60.5447C192.421 57.1731 199.339 57.6404 201.005 60.5447C202.299 62.8157 200.152 64.912 200.152 64.912Z" fill="#C9916C"/>
<path d="M191.643 90.7839L194.537 93.0375C195.468 92.991 196.401 93.0115 197.329 93.0986C197.886 93.2788 198.429 93.4977 198.955 93.7537L195.778 97.7236C195.381 97.5133 194.994 97.283 194.621 97.0336C193.96 96.4321 193.33 95.798 192.734 95.1338L189.902 93.5572L191.643 90.7839Z" fill="#C9916C"/>
<path d="M204.309 43.0056C204.309 43.0056 205.997 45.3247 203.288 45.1893C200.58 45.0539 204.309 43.0056 204.309 43.0056Z" fill="#011C3A"/>
<path d="M193.693 59.6628L194.046 60.6236C195.858 61.5494 197.709 62.4011 199.6 63.1566C200.58 62.6413 200.214 62.0866 200.541 61.6193L200.722 60.5406C199.228 59.785 198.84 58.0163 198.99 56.6537C199.033 56.2349 199.102 55.8192 199.198 55.409L196.105 52.8498L193.825 50.9937C194.387 53.4655 194.987 57.5752 193.693 59.6628Z" fill="#C9916C"/>
<path opacity="0.2" d="M199.198 55.4088C199.102 55.819 199.033 56.2347 198.99 56.6535C197.824 56.4264 196.083 55.4001 195.919 54.103C195.929 53.6796 195.99 53.2587 196.101 52.8496L199.198 55.4088Z" fill="#011C3A"/>
<path d="M194.06 45.4819C193.587 49.1592 193.114 51.2817 194.625 53.5352C196.861 56.9243 201.663 56.2168 203.213 52.7753C204.632 49.6876 205.131 44.1892 201.844 41.9924C201.138 41.4979 200.314 41.1948 199.453 41.1135C198.592 41.0322 197.724 41.1754 196.937 41.5289C196.149 41.8824 195.469 42.4338 194.964 43.1282C194.459 43.8226 194.147 44.6356 194.06 45.4863V45.4819Z" fill="#C9916C"/>
<path d="M199.432 47.7223C199.379 48.0237 199.489 48.2944 199.684 48.3337C199.878 48.373 200.081 48.1721 200.156 47.8664C200.231 47.5607 200.099 47.2987 199.904 47.2594C199.71 47.2201 199.489 47.4297 199.432 47.7223Z" fill="#011C3A"/>
<path d="M202.939 48.3728C202.882 48.6654 202.997 48.9406 203.191 48.9799C203.386 49.0192 203.584 48.8139 203.66 48.5126C203.735 48.2112 203.607 47.9448 203.412 47.9012C203.218 47.8575 202.979 48.0846 202.939 48.3728Z" fill="#011C3A"/>
<path d="M201.557 48.3381C201.72 49.1768 201.98 49.9943 202.33 50.7751C202.125 50.8658 201.903 50.9127 201.678 50.9127C201.454 50.9127 201.232 50.8658 201.027 50.7751L201.557 48.3381Z" fill="#593116"/>
<path d="M200.514 52.7882C200.166 52.771 199.824 52.6848 199.51 52.5348C199.196 52.3848 198.915 52.1739 198.685 51.9147C198.67 51.8968 198.662 51.8744 198.662 51.8514C198.662 51.8283 198.67 51.8059 198.685 51.788C198.701 51.7733 198.723 51.7651 198.745 51.7651C198.767 51.7651 198.788 51.7733 198.804 51.788C199.055 52.0721 199.369 52.2949 199.722 52.4388C200.074 52.5828 200.456 52.6441 200.836 52.6178C200.859 52.6165 200.88 52.6234 200.897 52.6371C200.915 52.6509 200.926 52.6705 200.929 52.6921C200.929 52.715 200.921 52.737 200.905 52.754C200.89 52.771 200.868 52.7816 200.845 52.7838L200.514 52.7882Z" fill="#011C3A"/>
<path d="M198.659 46.4818C198.63 46.4825 198.602 46.4732 198.579 46.4556C198.541 46.4292 198.516 46.3893 198.507 46.3444C198.499 46.2995 198.509 46.2532 198.535 46.2154C198.694 45.9902 198.905 45.8063 199.151 45.6793C199.397 45.5524 199.671 45.4861 199.949 45.4861C199.972 45.4872 199.994 45.4928 200.015 45.5027C200.036 45.5126 200.054 45.5265 200.07 45.5436C200.085 45.5607 200.096 45.5807 200.104 45.6023C200.111 45.6239 200.114 45.6468 200.112 45.6695C200.108 45.7155 200.085 45.7579 200.05 45.788C200.015 45.8181 199.969 45.8336 199.922 45.8311C199.701 45.8276 199.482 45.879 199.286 45.9804C199.09 46.0819 198.923 46.2302 198.8 46.4119C198.785 46.4348 198.763 46.4532 198.739 46.4655C198.714 46.4777 198.686 46.4834 198.659 46.4818Z" fill="#011C3A"/>
<path d="M204.548 47.2419C204.519 47.239 204.491 47.2296 204.467 47.2144C204.442 47.1993 204.421 47.1788 204.406 47.1546C204.3 46.9563 204.148 46.7851 203.964 46.6548C203.779 46.5244 203.566 46.4383 203.341 46.4034C203.318 46.4018 203.296 46.3956 203.275 46.3852C203.254 46.3749 203.235 46.3606 203.22 46.3431C203.205 46.3257 203.194 46.3054 203.186 46.2835C203.179 46.2617 203.176 46.2386 203.178 46.2156C203.182 46.1705 203.204 46.1286 203.239 46.0987C203.273 46.0687 203.318 46.0527 203.364 46.054C203.644 46.0934 203.911 46.1988 204.142 46.3615C204.372 46.5241 204.56 46.7392 204.689 46.9886C204.702 47.008 204.71 47.0297 204.714 47.0524C204.718 47.0751 204.718 47.0984 204.712 47.1209C204.707 47.1434 204.697 47.1645 204.683 47.1831C204.669 47.2016 204.652 47.2172 204.631 47.2288C204.605 47.2391 204.576 47.2436 204.548 47.2419Z" fill="#011C3A"/>
<path d="M193.6 48.2115C193.6 48.2115 196.989 49.8274 195.668 44.2809C195.668 44.2809 199.48 45.7265 201.08 43.9839C201.08 43.9839 206.438 44.6128 205.714 42.3462C205.714 42.3462 206.067 40.9443 203.947 41.4727C203.947 41.4727 204.075 39.8 201.91 40.0053C201.91 40.0053 201.389 38.8217 199.41 39.3502C199.41 39.3502 199.206 37.8129 196.564 39.2148C196.564 39.2148 193.225 39.1886 193.759 41.3985C193.759 41.3985 189.306 41.4421 191.135 44.1368C191.135 44.1368 189.757 45.3159 191.391 46.1501C191.4 46.1326 190.569 49.2771 193.6 48.2115Z" fill="#011C3A"/>
<path d="M192.005 48.5783C192.213 49.4702 192.726 50.2635 193.459 50.8231C194.404 51.5087 195.116 50.6789 195.063 49.5129C195.014 48.4603 194.471 46.8313 193.428 46.6173C192.385 46.4033 191.754 47.4515 192.005 48.5783Z" fill="#C9916C"/>
<path d="M184.897 62.3962C184.304 62.7878 183.812 63.3094 183.457 63.9203C182.052 66.3748 178.376 73.5546 178.844 80.8087C179.428 89.7529 191.829 94.7841 191.829 94.7841L193.675 91.7968C193.675 91.7968 181.539 82.3111 187.048 72.5458C187.062 72.5501 193.565 56.6706 184.897 62.3962Z" fill="#023773"/>
<path opacity="0.2" d="M184.897 62.3962C184.304 62.7878 183.812 63.3094 183.457 63.9203C182.052 66.3748 178.376 73.5546 178.844 80.8087C179.428 89.7529 191.829 94.7841 191.829 94.7841L193.675 91.7968C193.675 91.7968 181.539 82.3111 187.048 72.5458C187.062 72.5501 193.565 56.6706 184.897 62.3962Z" fill="#011C3A"/>
<path d="M199.701 65.8596L200.253 65.9426L199.675 71.2183L198.946 71.2882L199.701 65.8596Z" fill="#023773"/>
<path d="M200.81 65.5888L201.252 65.187C201.964 65.8848 202.528 66.7156 202.912 67.6311C203.296 68.5466 203.491 69.5285 203.487 70.5195L202.882 70.7772C202.882 70.7772 202.551 66.851 200.81 65.5888Z" fill="#023773"/>
<path d="M198.548 92.9631L194.068 98.8502L195.964 99.9202L200.501 93.8803L198.548 92.9631Z" fill="#023773"/>
<path opacity="0.2" d="M198.548 92.9631L194.068 98.8502L195.964 99.9202L200.501 93.8803L198.548 92.9631Z" fill="#011C3A"/>
<path opacity="0.1" d="M207.83 85.9712C203.613 86.6639 199.332 86.9026 195.062 86.6831C195.062 86.6831 205.405 89.2598 207.83 85.9712Z" fill="#011C3A"/>
<path d="M219.807 63.6588H217.876C217.807 63.6581 217.739 63.6402 217.679 63.6068C217.619 63.5734 217.568 63.5256 217.532 63.4677C217.495 63.4098 217.474 63.3438 217.47 63.2757C217.466 63.2076 217.48 63.1396 217.509 63.078L221.145 55.7103C221.226 55.5474 221.352 55.4105 221.509 55.3155C221.665 55.2204 221.845 55.1711 222.029 55.1732H223.964C224.033 55.1726 224.101 55.1895 224.161 55.2224C224.222 55.2553 224.272 55.303 224.309 55.3609C224.345 55.4187 224.366 55.4849 224.369 55.553C224.372 55.6211 224.357 55.6888 224.326 55.7496L220.69 63.1173C220.611 63.2816 220.485 63.42 220.329 63.516C220.172 63.612 219.991 63.6616 219.807 63.6588Z" fill="#023773"/>
<path opacity="0.2" d="M224.317 55.4C224.286 55.3298 224.234 55.2703 224.169 55.2284C224.104 55.1866 224.028 55.1642 223.951 55.1641H222.016C221.832 55.162 221.652 55.2114 221.495 55.3064C221.339 55.4015 221.213 55.5384 221.132 55.7013L218.402 61.2347L224.317 55.4Z" fill="#F4F5F7"/>
<path d="M223.951 55.1641H223.884C223.881 55.2054 223.869 55.2455 223.849 55.282L220.213 62.6497C220.134 62.814 220.008 62.9524 219.852 63.0484C219.695 63.1444 219.514 63.194 219.33 63.1912H217.474C217.469 63.2465 217.476 63.3021 217.494 63.3547C217.512 63.4072 217.541 63.4556 217.578 63.4966C217.616 63.5376 217.662 63.5705 217.713 63.5931C217.765 63.6157 217.82 63.6275 217.876 63.6279H219.807C219.991 63.6307 220.172 63.5811 220.329 63.4852C220.485 63.3892 220.611 63.2508 220.69 63.0864L224.326 55.7188C224.353 55.6578 224.364 55.5913 224.357 55.5252C224.351 55.4591 224.329 55.3956 224.291 55.3404C224.254 55.2853 224.203 55.2403 224.144 55.2095C224.084 55.1787 224.018 55.1631 223.951 55.1641Z" fill="#023773"/>
<path opacity="0.2" d="M223.951 55.1641H223.884C223.881 55.2054 223.869 55.2455 223.849 55.282L220.213 62.6497C220.134 62.814 220.008 62.9524 219.852 63.0484C219.695 63.1444 219.514 63.194 219.33 63.1912H217.474C217.469 63.2465 217.476 63.3021 217.494 63.3547C217.512 63.4072 217.541 63.4556 217.578 63.4966C217.616 63.5376 217.662 63.5705 217.713 63.5931C217.765 63.6157 217.82 63.6275 217.876 63.6279H219.807C219.991 63.6307 220.172 63.5811 220.329 63.4852C220.485 63.3892 220.611 63.2508 220.69 63.0864L224.326 55.7188C224.353 55.6578 224.364 55.5913 224.357 55.5252C224.351 55.4591 224.329 55.3956 224.291 55.3404C224.254 55.2853 224.203 55.2403 224.144 55.2095C224.084 55.1787 224.018 55.1631 223.951 55.1641Z" fill="#011C3A"/>
<path d="M223.231 58.5315L222.661 58.1952C222.524 58.1131 222.368 58.0668 222.208 58.0605C222.048 58.0543 221.889 58.0884 221.746 58.1595C221.603 58.2307 221.48 58.3366 221.39 58.4674C221.3 58.5981 221.244 58.7494 221.229 58.9071L220.933 61.9118C220.909 62.1584 220.983 62.4047 221.141 62.5974L221.419 62.9294C221.457 62.9764 221.508 63.0126 221.564 63.034C221.621 63.0553 221.683 63.0612 221.743 63.0509C221.803 63.0407 221.859 63.0147 221.906 62.9756C221.952 62.9365 221.987 62.8859 222.007 62.8289L223.377 58.9333C223.402 58.8599 223.402 58.7801 223.375 58.707C223.349 58.6339 223.298 58.572 223.231 58.5315Z" fill="#C9916C"/>
</svg>
