<svg width="227" height="207" viewBox="0 0 227 207" fill="none" xmlns="http://www.w3.org/2000/svg">
<path d="M227 172.939H0V173.061H227V172.939Z" fill="#DDE3E9"/>
<path d="M204.255 180.799H189.218V180.921H204.255V180.799Z" fill="#DDE3E9"/>
<path d="M136.854 180.863H132.909V180.985H136.854V180.863Z" fill="#DDE3E9"/>
<path d="M188.76 176.266H160.866V176.388H188.76V176.266Z" fill="#DDE3E9"/>
<path d="M102.214 179.148H96.4523V179.27H102.214V179.148Z" fill="#DDE3E9"/>
<path d="M92.4117 179.148H75.6909V179.27H92.4117V179.148Z" fill="#DDE3E9"/>
<path d="M35.3621 177.086H23.8168V177.208H35.3621V177.086Z" fill="#DDE3E9"/>
<path d="M72.0861 177.086H38.0861V177.208H72.0861V177.086Z" fill="#DDE3E9"/>
<path d="M107.598 151.151H19.9352C19.2484 151.15 18.5902 150.855 18.105 150.332C17.6198 149.809 17.3474 149.101 17.3474 148.362V15.765C17.3533 15.0303 17.6285 14.3278 18.113 13.8101C18.5975 13.2924 19.2523 13.0013 19.9352 13H107.598C108.286 13 108.945 13.2939 109.431 13.817C109.917 14.3401 110.19 15.0496 110.19 15.7894V148.362C110.19 149.102 109.917 149.811 109.431 150.334C108.945 150.857 108.286 151.151 107.598 151.151ZM19.9352 13.0977C19.2785 13.099 18.6492 13.3806 18.1853 13.8807C17.7214 14.3807 17.4608 15.0584 17.4609 15.765V148.362C17.4608 149.068 17.7214 149.746 18.1853 150.246C18.6492 150.746 19.2785 151.028 19.9352 151.029H107.598C108.255 151.028 108.885 150.746 109.349 150.246C109.814 149.746 110.076 149.069 110.077 148.362V15.765C110.076 15.058 109.814 14.3803 109.349 13.8804C108.885 13.3804 108.255 13.099 107.598 13.0977H19.9352Z" fill="#DDE3E9"/>
<path d="M205.803 151.151H118.135C117.448 151.15 116.79 150.856 116.304 150.333C115.818 149.81 115.544 149.101 115.543 148.362V15.765C115.55 15.0298 115.826 14.3273 116.312 13.8098C116.797 13.2922 117.452 13.0012 118.135 13H205.803C206.485 13.0025 207.138 13.2942 207.622 13.8118C208.106 14.3293 208.38 15.0311 208.386 15.765V148.362C208.386 149.1 208.114 149.808 207.63 150.331C207.146 150.854 206.489 151.149 205.803 151.151ZM118.135 13.0977C117.478 13.099 116.849 13.3804 116.384 13.8804C115.919 14.3803 115.658 15.058 115.657 15.765V148.362C115.658 149.069 115.919 149.746 116.384 150.246C116.849 150.746 117.478 151.028 118.135 151.029H205.803C206.46 151.028 207.09 150.746 207.554 150.246C208.019 149.746 208.28 149.069 208.282 148.362V15.765C208.28 15.058 208.019 14.3803 207.554 13.8804C207.09 13.3804 206.46 13.099 205.803 13.0977H118.135Z" fill="#DDE3E9"/>
<path d="M86.6141 108.021L196.954 108.021V21.295L86.6141 21.295L86.6141 108.021Z" fill="#E6E6E6"/>
<path d="M81.7381 108.021L195.824 108.021V21.295L81.7381 21.295L81.7381 108.021Z" fill="#F0F0F0"/>
<path d="M188.991 100.673V28.6421L88.5617 28.6421V100.673H188.991Z" fill="#FAFAFA"/>
<path d="M164.58 100.668L141.716 28.6421H119.883L142.747 100.668H164.58Z" fill="#F4F5F7"/>
<path d="M138.057 100.668L115.193 28.6421H106.685L129.549 100.668H138.057Z" fill="#F4F5F7"/>
<path d="M89.4335 100.673V28.6421H88.5663V100.673H89.4335Z" fill="#E6E6E6"/>
<path d="M29.3148 84.4302H68.277V24.9929L29.3148 24.9929L29.3148 84.4302Z" fill="#E0E0E0"/>
<path d="M26.559 84.4302H66.7198V24.9929L26.559 24.9929L26.559 84.4302Z" fill="#F5F5F5"/>
<path d="M62.7564 79.7404V29.6729L30.5224 29.6729V79.7404H62.7564Z" fill="#F4F5F7"/>
<path d="M44.4602 126.042C47.3522 118.362 54.2303 115.504 56.6092 110.654C59.7191 104.303 59.701 94.772 57.0632 91.3378C54.7569 88.3481 47.1297 108.553 46.2717 110.81C43.9176 116.901 42.4447 123.344 41.9042 129.916C41.9677 125.172 42.0268 120.815 42.0767 117.454C42.2401 106.491 42.4399 102.964 42.5307 101.88C42.8485 101.347 43.2253 100.732 43.4387 100.414C45.2865 97.6151 49.3816 94.2786 51.4291 90.2093C54.4164 84.2641 53.9352 77.1514 51.8377 74.5036C49.6449 71.7338 45.7723 78.2798 43.7156 84.7624C41.659 91.2449 42.5352 97.4637 41.9587 102.837C41.8406 103.893 41.7135 107.903 41.6 113.472C40.9735 107.483 39.7295 103.472 37.4277 99.7304C34.5948 95.1335 32.1477 89.5352 29.8142 90.2582C27.4806 90.9812 28.7336 98.3919 30.5814 103.59C32.234 108.221 40.3379 112.842 41.5319 116.565C41.3912 124.107 41.264 133.662 41.1778 142.568C40.5376 137.971 40.978 137.585 38.3539 130.546C36.7967 126.364 30.418 121.205 29.6462 124.078C28.8744 126.95 30.0412 132.383 32.4519 136.193C34.3996 139.261 38.7171 139.256 39.7159 141.161C39.9474 141.606 40.7192 143.311 41.1596 144.288C41.0552 155.152 41.0098 164.746 41.0597 168.015L41.4774 168.049C41.4774 167.204 41.5092 161.698 41.5909 154.37C42.6397 150.462 49.6994 148.21 51.8786 144.161C54.1486 139.925 55.8011 134.981 54.8205 131.674C54.0033 128.914 47.5565 132.651 44.9641 137.238C43.2253 140.287 42.163 143.535 41.6681 147.903C41.7271 142.92 41.7952 137.566 41.8588 132.514C42.39 131.244 43.584 128.343 44.4602 126.042Z" fill="#E6E6E6"/>
<path d="M48.6052 172.939H33.7685C33.3764 172.938 32.9965 172.792 32.693 172.525C32.3894 172.258 32.1808 171.887 32.1024 171.473L31.0491 165.904H51.3293L50.276 171.488C50.1931 171.899 49.9822 172.266 49.6783 172.53C49.3744 172.794 48.9958 172.938 48.6052 172.939Z" fill="#F0F0F0"/>
<path d="M51.756 168.049H30.6223C30.3775 168.048 30.1415 167.951 29.959 167.775C29.7766 167.6 29.6604 167.358 29.6326 167.096L29.1786 162.968C29.1633 162.818 29.1775 162.667 29.2202 162.523C29.2629 162.38 29.3332 162.247 29.4266 162.135C29.5199 162.023 29.6342 161.933 29.762 161.871C29.8898 161.809 30.0282 161.777 30.1683 161.776H52.16C52.3004 161.776 52.4391 161.808 52.5673 161.869C52.6954 161.931 52.81 162.021 52.9034 162.133C52.9969 162.246 53.0672 162.379 53.1097 162.523C53.1521 162.666 53.1658 162.818 53.1498 162.968L52.6958 167.096C52.6692 167.349 52.5602 167.583 52.3881 167.758C52.2161 167.932 51.9921 168.035 51.756 168.049Z" fill="#F0F0F0"/>
<path d="M184.156 169.377H188.691V116.867H184.156V169.377Z" fill="#F0F0F0"/>
<path d="M91.7352 172.875H186.953V169.378H91.7352V172.875Z" fill="#F0F0F0"/>
<path d="M184.161 116.867H89.9964V169.378H184.161V116.867Z" fill="#F5F5F5"/>
<path d="M185.227 116.867H189.913V113.555H185.227V116.867Z" fill="#E0E0E0"/>
<path d="M185.227 113.555H88.7751V116.867H185.227V113.555Z" fill="#DDE3E9"/>
<path d="M177.4 139.525H96.7519C95.7887 139.525 94.8649 139.113 94.1837 138.38C93.5026 137.647 93.1199 136.653 93.1199 135.617V124.381C93.1199 123.344 93.5026 122.35 94.1837 121.617C94.8649 120.884 95.7887 120.473 96.7519 120.473H177.4C178.364 120.473 179.288 120.884 179.969 121.617C180.65 122.35 181.032 123.344 181.032 124.381V135.617C181.032 136.653 180.65 137.647 179.969 138.38C179.288 139.113 178.364 139.525 177.4 139.525ZM96.7519 121.45C96.0295 121.45 95.3366 121.758 94.8258 122.308C94.3149 122.858 94.0279 123.603 94.0279 124.381V135.617C94.0279 136.394 94.3149 137.139 94.8258 137.689C95.3366 138.239 96.0295 138.548 96.7519 138.548H177.4C178.123 138.548 178.816 138.239 179.327 137.689C179.838 137.139 180.124 136.394 180.124 135.617V124.381C180.124 123.603 179.838 122.858 179.327 122.308C178.816 121.758 178.123 121.45 177.4 121.45H96.7519Z" fill="#F4F5F7"/>
<path d="M177.4 163.066H96.7519C95.7887 163.066 94.8649 162.654 94.1837 161.921C93.5026 161.188 93.1199 160.194 93.1199 159.158V147.922C93.1199 146.886 93.5026 145.891 94.1837 145.159C94.8649 144.426 95.7887 144.014 96.7519 144.014H177.4C178.364 144.014 179.288 144.426 179.969 145.159C180.65 145.891 181.032 146.886 181.032 147.922V159.158C181.032 160.194 180.65 161.188 179.969 161.921C179.288 162.654 178.364 163.066 177.4 163.066ZM96.7519 144.952C96.0295 144.952 95.3366 145.261 94.8258 145.81C94.3149 146.36 94.0279 147.106 94.0279 147.883V159.119C94.0279 159.896 94.3149 160.642 94.8258 161.191C95.3366 161.741 96.0295 162.05 96.7519 162.05H177.4C178.123 162.05 178.816 161.741 179.327 161.191C179.838 160.642 180.124 159.896 180.124 159.119V147.883C180.124 147.106 179.838 146.36 179.327 145.81C178.816 145.261 178.123 144.952 177.4 144.952H96.7519Z" fill="#F4F5F7"/>
<path d="M159.073 131.708H115.08C114.768 131.708 114.468 131.575 114.247 131.338C114.026 131.101 113.901 130.779 113.9 130.443V129.515C113.901 129.179 114.026 128.857 114.247 128.62C114.468 128.383 114.768 128.25 115.08 128.25H159.073C159.385 128.25 159.684 128.383 159.906 128.62C160.127 128.857 160.252 129.179 160.253 129.515V130.443C160.252 130.779 160.127 131.101 159.906 131.338C159.684 131.575 159.385 131.708 159.073 131.708ZM115.08 129.266C115.009 129.267 114.941 129.298 114.89 129.351C114.839 129.405 114.81 129.478 114.808 129.554V130.482C114.81 130.559 114.839 130.631 114.89 130.685C114.941 130.739 115.009 130.769 115.08 130.77H159.073C159.144 130.77 159.213 130.74 159.264 130.686C159.315 130.632 159.344 130.559 159.345 130.482V129.554C159.344 129.477 159.315 129.404 159.264 129.35C159.213 129.296 159.144 129.266 159.073 129.266H115.08Z" fill="#F4F5F7"/>
<path d="M159.073 155.25H115.08C114.768 155.25 114.468 155.117 114.247 154.879C114.026 154.642 113.901 154.32 113.9 153.984V153.056C113.901 152.72 114.026 152.398 114.247 152.161C114.468 151.924 114.768 151.791 115.08 151.791H159.073C159.385 151.791 159.684 151.924 159.906 152.161C160.127 152.398 160.252 152.72 160.253 153.056V153.984C160.252 154.32 160.127 154.642 159.906 154.879C159.684 155.117 159.385 155.25 159.073 155.25ZM115.08 152.768C115.009 152.769 114.941 152.8 114.89 152.854C114.839 152.907 114.81 152.98 114.808 153.056V153.984C114.81 154.061 114.839 154.134 114.89 154.187C114.941 154.241 115.009 154.271 115.08 154.273H159.073C159.144 154.273 159.213 154.242 159.264 154.189C159.315 154.135 159.344 154.061 159.345 153.984V153.056C159.344 152.979 159.315 152.906 159.264 152.852C159.213 152.798 159.144 152.768 159.073 152.768H115.08Z" fill="#F4F5F7"/>
<path d="M111.23 195C159.845 195 199.256 192.524 199.256 189.47C199.256 186.416 159.845 183.94 111.23 183.94C62.6145 183.94 23.2039 186.416 23.2039 189.47C23.2039 192.524 62.6145 195 111.23 195Z" fill="#F5F5F5"/>
<path d="M170.155 68.0811L169.982 70.9573L170.435 70.9888L170.608 68.1126L170.155 68.0811Z" fill="#023773"/>
<path d="M170.844 56.3994L170.277 65.8521L170.73 65.8835L171.297 56.4309L170.844 56.3994Z" fill="#023773"/>
<path d="M165.456 42.6722H112.088C110.718 42.698 109.405 43.2724 108.407 44.2831C107.409 45.2938 106.797 46.6684 106.69 48.1386L99.7937 162.695C99.7434 163.397 99.8292 164.103 100.046 164.767C100.262 165.432 100.605 166.041 101.052 166.555C101.499 167.07 102.041 167.479 102.642 167.756C103.244 168.033 103.893 168.173 104.547 168.166H157.906C159.279 168.141 160.594 167.567 161.594 166.556C162.595 165.544 163.209 164.167 163.317 162.695L170.209 48.1386C170.26 47.4366 170.174 46.7311 169.957 46.0667C169.74 45.4024 169.398 44.7938 168.951 44.2797C168.503 43.7656 167.962 43.3572 167.36 43.0804C166.759 42.8037 166.11 42.6646 165.456 42.6722Z" fill="#023773"/>
<path opacity="0.7" d="M163.762 42.6722H112.088C110.718 42.698 109.405 43.2724 108.407 44.2831C107.409 45.2938 106.797 46.6684 106.69 48.1386L99.7937 162.695C99.7434 163.397 99.8292 164.103 100.046 164.767C100.262 165.432 100.605 166.041 101.052 166.555C101.499 167.07 102.041 167.479 102.642 167.756C103.244 168.033 103.893 168.173 104.547 168.166H156.212C157.585 168.141 158.9 167.567 159.901 166.556C160.901 165.544 161.516 164.167 161.624 162.695L168.516 48.1386C168.566 47.4366 168.48 46.7311 168.264 46.0667C168.047 45.4024 167.704 44.7938 167.257 44.2797C166.81 43.7656 166.269 43.3572 165.667 43.0804C165.065 42.8037 164.417 42.6646 163.762 42.6722Z" fill="#F4F5F7"/>
<path d="M159.404 159.7H102.563C102.351 159.701 102.14 159.654 101.945 159.564C101.75 159.473 101.574 159.34 101.428 159.173C101.283 159.007 101.171 158.81 101.099 158.594C101.027 158.379 100.997 158.15 101.01 157.922L107.248 54.2598C107.274 53.8364 107.448 53.4393 107.735 53.149C108.023 52.8586 108.402 52.6969 108.797 52.6965H165.642C165.855 52.6967 166.065 52.7439 166.26 52.835C166.456 52.9261 166.631 53.0594 166.777 53.2265C166.922 53.3935 167.035 53.5909 167.106 53.8065C167.178 54.022 167.208 54.2511 167.195 54.4796L160.957 158.137C160.931 158.561 160.756 158.959 160.468 159.249C160.18 159.54 159.799 159.701 159.404 159.7Z" fill="#F4F5F7"/>
<path d="M146.774 49.3061H126.112C126.006 49.3071 125.9 49.2844 125.803 49.2393C125.705 49.1941 125.617 49.1277 125.545 49.0441C125.472 48.9605 125.416 48.8616 125.381 48.7536C125.346 48.6457 125.332 48.5311 125.34 48.417C125.361 48.1801 125.462 47.9595 125.623 47.7967C125.784 47.6339 125.995 47.5401 126.217 47.5328H146.878C146.984 47.5311 147.089 47.5532 147.187 47.5978C147.285 47.6423 147.373 47.7083 147.445 47.7916C147.518 47.8748 147.574 47.9734 147.609 48.0811C147.644 48.1888 147.658 48.3032 147.65 48.417C147.63 48.6548 147.53 48.8766 147.368 49.0404C147.207 49.2042 146.995 49.2987 146.774 49.3061Z" fill="#F4F5F7"/>
<path d="M130.648 164.053C130.614 164.638 130.376 165.188 129.981 165.593C129.586 165.997 129.063 166.225 128.518 166.231C128.257 166.234 127.997 166.179 127.756 166.068C127.515 165.958 127.298 165.796 127.118 165.592C126.937 165.387 126.798 165.145 126.709 164.88C126.619 164.616 126.582 164.334 126.598 164.053C126.632 163.468 126.871 162.919 127.266 162.516C127.661 162.113 128.183 161.885 128.727 161.879C128.989 161.876 129.248 161.93 129.489 162.04C129.73 162.149 129.948 162.311 130.128 162.515C130.308 162.719 130.447 162.961 130.537 163.226C130.626 163.49 130.664 163.772 130.648 164.053Z" fill="#F4F5F7"/>
<path opacity="0.2" d="M153.211 81.3916H104.674L101.587 132.637H153.211C154.558 132.634 155.85 132.057 156.803 131.033C157.756 130.008 158.293 128.62 158.296 127.17V86.8776C158.297 85.4248 157.762 84.0308 156.809 83.0022C155.856 81.9735 154.562 81.3942 153.211 81.3916Z" fill="#023773"/>
<path d="M148.69 76.8535H89.2064C86.3982 76.8535 84.1216 79.3031 84.1216 82.3248V122.632C84.1216 125.654 86.3982 128.103 89.2064 128.103H148.69C151.498 128.103 153.774 125.654 153.774 122.632V82.3248C153.774 79.3031 151.498 76.8535 148.69 76.8535Z" fill="#023773"/>
<path d="M82.4964 76.2624C82.3773 76.2619 82.2631 76.211 82.1786 76.1207L81.3614 75.2463C81.2759 75.1543 81.2278 75.0295 81.2278 74.8995C81.2278 74.7694 81.2759 74.6446 81.3614 74.5526C81.4469 74.4606 81.5628 74.4089 81.6837 74.4089C81.8046 74.4089 81.9206 74.4606 82.006 74.5526L82.8187 75.4319C82.9033 75.5235 82.9507 75.6473 82.9507 75.7763C82.9507 75.9054 82.9033 76.0292 82.8187 76.1207C82.7763 76.166 82.726 76.2018 82.6707 76.2261C82.6153 76.2504 82.5561 76.2628 82.4964 76.2624Z" fill="#023773"/>
<path d="M81.266 79.3303H80.1174C79.997 79.3303 79.8815 79.2788 79.7964 79.1872C79.7112 79.0956 79.6634 78.9713 79.6634 78.8418C79.6634 78.7122 79.7112 78.588 79.7964 78.4964C79.8815 78.4047 79.997 78.3533 80.1174 78.3533H81.266C81.3864 78.3533 81.5019 78.4047 81.587 78.4964C81.6722 78.588 81.72 78.7122 81.72 78.8418C81.72 78.9713 81.6722 79.0956 81.587 79.1872C81.5019 79.2788 81.3864 79.3303 81.266 79.3303Z" fill="#023773"/>
<path d="M85.3883 74.9434C85.2733 74.9437 85.1623 74.897 85.0781 74.8126C84.9938 74.7283 84.9424 74.6126 84.9344 74.4891L84.8526 73.2531C84.8483 73.189 84.8558 73.1245 84.8747 73.0634C84.8936 73.0024 84.9235 72.9459 84.9628 72.8974C85.002 72.8488 85.0498 72.8091 85.1033 72.7804C85.1569 72.7518 85.2152 72.7348 85.2749 72.7304C85.3946 72.7224 85.5124 72.7657 85.6026 72.8508C85.6927 72.9359 85.7479 73.056 85.7561 73.1848L85.8423 74.4207C85.8467 74.4849 85.8392 74.5493 85.8203 74.6104C85.8014 74.6715 85.7714 74.7279 85.7322 74.7765C85.693 74.825 85.6452 74.8648 85.5916 74.8934C85.5381 74.9221 85.4798 74.9391 85.4201 74.9434H85.3883Z" fill="#023773"/>
<path d="M124.028 122.832L142.293 142.48V122.832H124.028Z" fill="#023773"/>
<path d="M129.036 114.225L128.128 110.077C127.899 108.987 127.899 107.855 128.128 106.765L129.39 100.859C129.906 98.3404 129.627 95.7084 128.596 93.3802C127.564 91.052 125.84 89.1607 123.697 88.0062C123.737 87.8976 123.772 87.7867 123.801 87.6741C123.876 87.3158 123.884 86.9452 123.825 86.5835C123.767 86.2218 123.643 85.876 123.46 85.566C123.277 85.2559 123.039 84.9876 122.76 84.7764C122.481 84.5652 122.166 84.4153 121.833 84.3351C121.5 84.2549 121.156 84.2461 120.82 84.3091C120.484 84.3721 120.162 84.5058 119.874 84.7024C119.586 84.8991 119.337 85.1548 119.14 85.4552C118.944 85.7555 118.805 86.0945 118.73 86.4528C118.708 86.567 118.694 86.683 118.689 86.7996C116.293 86.8601 113.984 87.7789 112.128 89.4106C110.272 91.0422 108.975 93.2934 108.442 95.8078L107.212 101.719C106.986 102.807 106.536 103.827 105.896 104.704L103.448 108.05C103.209 108.378 103.051 108.766 102.988 109.178C102.926 109.59 102.962 110.012 103.092 110.405C103.222 110.798 103.442 111.149 103.732 111.426C104.023 111.703 104.373 111.896 104.751 111.987L126.316 117.185C126.693 117.273 127.085 117.257 127.455 117.138C127.824 117.02 128.16 116.803 128.431 116.508C128.702 116.213 128.9 115.849 129.006 115.45C129.111 115.051 129.122 114.629 129.036 114.225Z" fill="#F4F5F7"/>
<path d="M112.751 115.505C112.587 115.466 112.416 115.471 112.255 115.52C112.093 115.569 111.945 115.66 111.824 115.785C111.703 115.91 111.612 116.065 111.56 116.237C111.508 116.409 111.496 116.592 111.525 116.77C111.649 117.555 111.987 118.282 112.496 118.86C113.006 119.437 113.664 119.838 114.386 120.012C115.108 120.186 115.861 120.125 116.551 119.836C117.241 119.548 117.835 119.045 118.258 118.392C118.355 118.244 118.416 118.074 118.437 117.895C118.458 117.716 118.438 117.535 118.378 117.366C118.318 117.198 118.221 117.048 118.095 116.929C117.969 116.811 117.817 116.727 117.654 116.687L112.751 115.505Z" fill="#F4F5F7"/>
<path d="M96.189 107.283C96.0765 107.284 95.9656 107.254 95.8664 107.197C95.7673 107.14 95.6831 107.057 95.6215 106.956C93.4772 103.499 92.6969 99.2672 93.4521 95.1913C94.2073 91.1155 96.4361 87.5294 99.6485 85.2217C99.799 85.1142 99.983 85.0754 100.16 85.1139C100.337 85.1523 100.493 85.2649 100.593 85.4269C100.693 85.5888 100.729 85.7869 100.693 85.9774C100.657 86.168 100.553 86.3355 100.402 86.443C97.4941 88.5388 95.4781 91.791 94.7971 95.4851C94.1161 99.1792 94.8257 103.013 96.7701 106.145C96.8705 106.306 96.9074 106.504 96.8725 106.694C96.8376 106.885 96.7338 107.053 96.584 107.161C96.4669 107.244 96.3291 107.286 96.189 107.283Z" fill="#F4F5F7"/>
<path d="M99.0719 105.202C98.9603 105.201 98.8506 105.171 98.7524 105.114C98.6543 105.057 98.5706 104.974 98.5089 104.874C96.8768 102.241 96.2828 99.0185 96.8574 95.9143C97.432 92.8101 99.1282 90.0782 101.573 88.3188C101.648 88.2652 101.732 88.228 101.819 88.2092C101.907 88.1904 101.998 88.1904 102.086 88.2092C102.174 88.228 102.257 88.2653 102.332 88.3189C102.406 88.3725 102.47 88.4413 102.52 88.5215C102.57 88.6017 102.604 88.6917 102.622 88.7862C102.639 88.8808 102.639 88.9782 102.622 89.0728C102.604 89.1674 102.57 89.2573 102.52 89.3375C102.47 89.4176 102.406 89.4865 102.332 89.5401C100.185 91.0812 98.696 93.4767 98.1911 96.1994C97.6862 98.9221 98.2072 101.749 99.6394 104.059C99.7398 104.22 99.7766 104.418 99.7417 104.608C99.7068 104.799 99.603 104.966 99.4532 105.075C99.3403 105.156 99.2077 105.2 99.0719 105.202Z" fill="#F4F5F7"/>
<path d="M101.959 103.126C101.848 103.126 101.738 103.097 101.64 103.041C101.542 102.985 101.458 102.903 101.396 102.803C100.84 101.907 100.454 100.902 100.259 99.8444C100.064 98.7872 100.065 97.6992 100.262 96.6424C100.458 95.5856 100.846 94.5809 101.404 93.6858C101.962 92.7907 102.678 92.0227 103.512 91.4257C103.662 91.3255 103.842 91.2919 104.015 91.3319C104.187 91.3718 104.339 91.4823 104.437 91.64C104.535 91.7978 104.573 91.9904 104.542 92.1773C104.511 92.3643 104.413 92.5309 104.27 92.6421C103.586 93.1334 102.999 93.7649 102.542 94.5005C102.085 95.2361 101.767 96.0613 101.606 96.9292C101.445 97.797 101.445 98.6904 101.606 99.5583C101.766 100.426 102.084 101.252 102.54 101.987C102.64 102.149 102.676 102.346 102.641 102.536C102.606 102.727 102.503 102.894 102.354 103.003C102.237 103.086 102.099 103.129 101.959 103.126Z" fill="#F4F5F7"/>
<path d="M135.451 117.586C135.299 117.585 135.151 117.53 135.031 117.429C134.912 117.327 134.827 117.186 134.791 117.026C134.755 116.867 134.769 116.7 134.832 116.55C134.895 116.401 135.003 116.279 135.138 116.203C138.248 114.474 140.593 111.486 141.657 107.897C142.722 104.308 142.418 100.411 140.813 97.0632C140.764 96.9773 140.732 96.8814 140.719 96.7816C140.706 96.6819 140.713 96.5803 140.738 96.4834C140.763 96.3864 140.807 96.2961 140.866 96.218C140.925 96.14 140.999 96.0759 141.082 96.0298C141.165 95.9837 141.256 95.9565 141.35 95.95C141.443 95.9435 141.537 95.9578 141.625 95.9919C141.713 96.0261 141.793 96.0794 141.862 96.1486C141.93 96.2178 141.984 96.3013 142.02 96.394C142.897 98.2235 143.43 100.221 143.589 102.272C143.749 104.324 143.531 106.389 142.948 108.349C142.365 110.31 141.429 112.128 140.194 113.699C138.958 115.271 137.447 116.565 135.746 117.507C135.654 117.556 135.553 117.583 135.451 117.586Z" fill="#F4F5F7"/>
<path d="M133.857 114.269C133.705 114.268 133.557 114.213 133.438 114.112C133.318 114.01 133.233 113.869 133.197 113.71C133.161 113.55 133.176 113.383 133.239 113.233C133.302 113.084 133.409 112.962 133.544 112.886C134.68 112.256 135.69 111.391 136.515 110.341C137.34 109.29 137.964 108.075 138.353 106.765C138.741 105.454 138.886 104.075 138.778 102.704C138.67 101.334 138.313 99.9996 137.725 98.778C137.642 98.605 137.627 98.4036 137.681 98.2181C137.736 98.0326 137.858 97.8781 138.018 97.7887C138.179 97.6994 138.366 97.6823 138.539 97.7414C138.711 97.8005 138.855 97.9309 138.938 98.1038C139.607 99.4964 140.014 101.017 140.137 102.579C140.259 104.142 140.095 105.714 139.652 107.208C139.209 108.701 138.497 110.086 137.557 111.284C136.616 112.481 135.466 113.467 134.171 114.186C134.074 114.241 133.967 114.27 133.857 114.269Z" fill="#F4F5F7"/>
<path d="M132.264 110.952C132.112 110.949 131.965 110.892 131.847 110.79C131.728 110.688 131.645 110.547 131.609 110.388C131.573 110.23 131.587 110.063 131.649 109.913C131.711 109.764 131.817 109.642 131.951 109.564C132.682 109.16 133.331 108.604 133.862 107.928C134.393 107.253 134.795 106.472 135.045 105.629C135.295 104.787 135.389 103.899 135.319 103.018C135.25 102.136 135.02 101.278 134.643 100.493C134.56 100.32 134.544 100.118 134.599 99.9327C134.654 99.7472 134.775 99.5927 134.936 99.5033C135.096 99.4139 135.284 99.3969 135.456 99.456C135.628 99.5151 135.772 99.6455 135.855 99.8184C136.779 101.753 136.952 104.003 136.336 106.075C135.719 108.147 134.364 109.871 132.568 110.869C132.474 110.921 132.37 110.949 132.264 110.952Z" fill="#F4F5F7"/>
<path d="M92.3254 47.6112H88.8569C88.7669 47.6136 88.6806 47.6503 88.6133 47.7147C88.5459 47.7791 88.502 47.867 88.4891 47.9629L87.7627 55.4078C87.7576 55.4527 87.7614 55.4982 87.7739 55.5414C87.7864 55.5845 87.8073 55.6243 87.8352 55.6581C87.8631 55.6918 87.8975 55.7188 87.9358 55.7371C87.9742 55.7555 88.0158 55.7648 88.0578 55.7644H91.5264C91.6171 55.7618 91.704 55.7244 91.7714 55.6591C91.8388 55.5937 91.8823 55.5046 91.8941 55.4078L92.6205 47.9629C92.6258 47.9183 92.622 47.873 92.6095 47.83C92.597 47.7871 92.576 47.7476 92.5479 47.7142C92.5199 47.6808 92.4856 47.6543 92.4472 47.6366C92.4088 47.6188 92.3672 47.6101 92.3254 47.6112Z" fill="#023773"/>
<path opacity="0.4" d="M92.0122 47.6111H88.8569C88.7669 47.6136 88.6806 47.6503 88.6133 47.7146C88.5459 47.779 88.502 47.8669 88.4891 47.9628L87.7627 55.4078C87.7576 55.4526 87.7614 55.4982 87.7739 55.5413C87.7864 55.5845 87.8073 55.6243 87.8352 55.658C87.8631 55.6918 87.8975 55.7187 87.9358 55.7371C87.9742 55.7554 88.0158 55.7647 88.0578 55.7644H91.2359C91.326 55.7616 91.4123 55.724 91.4789 55.6586C91.5456 55.5932 91.5882 55.5042 91.599 55.4078L92.3254 47.9628C92.3319 47.9163 92.3284 47.8688 92.3152 47.824C92.302 47.7791 92.2794 47.7382 92.2491 47.7042C92.2188 47.6702 92.1818 47.6442 92.1407 47.628C92.0996 47.6119 92.0557 47.6061 92.0122 47.6111Z" fill="#F4F5F7"/>
<path d="M74.9418 185.274C75.3958 185.274 75.8498 185.201 76.0087 184.976C76.0473 184.915 76.068 184.844 76.068 184.771C76.068 184.697 76.0473 184.626 76.0087 184.565C75.9425 184.456 75.8404 184.378 75.7227 184.346C75.1052 184.165 73.8522 184.956 73.7977 184.99C73.7836 185 73.7725 185.014 73.766 185.031C73.7595 185.047 73.7579 185.066 73.7614 185.083C73.7648 185.103 73.7735 185.121 73.7865 185.135C73.7994 185.148 73.816 185.158 73.834 185.161C74.1997 185.232 74.5703 185.27 74.9418 185.274ZM75.4957 184.507C75.5514 184.499 75.6079 184.499 75.6637 184.507C75.7358 184.526 75.7989 184.573 75.8407 184.639C75.9043 184.756 75.8861 184.815 75.8407 184.844C75.6818 185.103 74.7511 185.108 74.0656 185.005C74.5059 184.736 74.9925 184.567 75.4957 184.507Z" fill="#023773"/>
<path d="M73.8249 185.161H73.8613C74.3153 184.947 75.1415 184.092 75.0553 183.642C75.0553 183.54 74.9599 183.408 74.7193 183.383C74.6342 183.373 74.548 183.382 74.466 183.409C74.3841 183.436 74.308 183.48 74.2426 183.54C73.7886 183.955 73.7387 185.005 73.7341 185.064C73.7336 185.081 73.737 185.098 73.7441 185.113C73.7513 185.129 73.7619 185.142 73.775 185.152C73.7904 185.16 73.8078 185.163 73.8249 185.161ZM74.6603 183.559H74.7102C74.8691 183.559 74.8828 183.642 74.8828 183.662C74.9372 183.93 74.3652 184.605 73.9248 184.898C73.9526 184.449 74.1115 184.022 74.3788 183.676C74.4575 183.604 74.5568 183.563 74.6603 183.559Z" fill="#023773"/>
<path d="M73.4527 175.909H69.7753V185.069H73.4527V175.909Z" fill="#D58745"/>
<path d="M43.1073 180.701L46.7802 181.131L49.1727 172.24L45.4999 171.81L43.1073 180.701Z" fill="#D58745"/>
<path d="M48.4872 182.025C48.9412 182.152 49.3952 182.206 49.5995 182.025C49.6494 181.975 49.6833 181.91 49.6964 181.838C49.7094 181.766 49.7009 181.691 49.6721 181.625C49.6535 181.564 49.6238 181.507 49.5848 181.459C49.5459 181.41 49.4984 181.37 49.4451 181.341C48.8776 181.004 47.4702 181.429 47.4112 181.444C47.3939 181.449 47.3785 181.46 47.3671 181.475C47.3557 181.489 47.3489 181.508 47.3477 181.527C47.3476 181.546 47.3527 181.565 47.3624 181.582C47.372 181.598 47.3858 181.611 47.4021 181.62C47.7525 181.788 48.1155 181.924 48.4872 182.025ZM49.2045 181.439C49.2596 181.453 49.313 181.475 49.3634 181.503C49.4307 181.537 49.4828 181.598 49.5087 181.673C49.545 181.805 49.5087 181.854 49.5087 181.884C49.2908 182.084 48.3782 181.844 47.729 181.561C48.2091 181.419 48.7103 181.379 49.2045 181.444V181.439Z" fill="#023773"/>
<path d="M47.4203 181.629H47.4566C47.9106 181.536 48.9548 180.941 48.973 180.491C48.973 180.384 48.9367 180.237 48.7051 180.149C48.6236 180.118 48.5369 180.104 48.4504 180.109C48.3638 180.114 48.2791 180.138 48.2012 180.178C47.6655 180.457 47.3658 181.463 47.3522 181.502C47.3446 181.516 47.3406 181.532 47.3406 181.549C47.3406 181.565 47.3446 181.581 47.3522 181.595C47.3599 181.607 47.3702 181.616 47.3821 181.622C47.394 181.628 47.4072 181.63 47.4203 181.629ZM48.6007 180.315H48.6552C48.805 180.374 48.8005 180.442 48.8005 180.462C48.8005 180.735 48.0741 181.229 47.5747 181.39C47.7004 180.967 47.9486 180.599 48.2829 180.34C48.3826 180.29 48.4955 180.282 48.6007 180.315Z" fill="#023773"/>
<path d="M46.9754 180.765L42.9575 179.524C42.8884 179.502 42.8143 179.506 42.748 179.536C42.6817 179.567 42.6273 179.621 42.5943 179.69L41.1142 182.851C41.0797 182.931 41.0619 183.018 41.0622 183.106C41.0625 183.194 41.0808 183.282 41.116 183.361C41.1511 183.441 41.202 183.512 41.2653 183.568C41.3286 183.624 41.4025 183.664 41.482 183.686C42.8894 184.092 43.5931 184.219 45.3591 184.761C46.4442 185.098 48.6552 185.909 50.1579 186.373C51.6607 186.837 52.2145 185.318 51.6334 184.986C49.0275 183.496 48.1921 182.294 47.502 181.18C47.3782 180.978 47.1914 180.831 46.9754 180.765Z" fill="#263238"/>
<path d="M73.4118 184.609H69.3985C69.3263 184.609 69.2562 184.636 69.2012 184.686C69.1461 184.736 69.1098 184.806 69.0988 184.883L68.5132 188.376C68.5 188.463 68.5046 188.552 68.5266 188.637C68.5486 188.722 68.5875 188.801 68.6406 188.869C68.6937 188.936 68.7597 188.99 68.8341 189.027C68.9085 189.064 68.9895 189.084 69.0716 189.084C70.5198 189.055 72.6083 188.962 74.4288 188.962C76.5581 188.962 77.7203 189.089 80.2173 189.089C81.7246 189.089 82.0787 187.448 81.4386 187.296C78.5375 186.622 76.8622 186.549 74.3107 184.898C74.0397 184.718 73.7298 184.619 73.4118 184.609Z" fill="#263238"/>
<path opacity="0.2" d="M73.4527 175.909H69.7753V180.633H73.4527V175.909Z" fill="black" fill-opacity="0.92"/>
<path opacity="0.2" d="M45.4999 171.815L49.1728 172.24L47.8425 177.174L44.265 176.397L45.4999 171.815Z" fill="black" fill-opacity="0.92"/>
<path d="M67.4054 84.8113C67.4054 84.8113 65.376 114.679 63.56 126.003C61.5579 138.406 49.9082 176.383 49.9082 176.383L43.2344 175.069C43.2344 175.069 51.6471 139.407 52.5778 127.126C53.5902 113.8 54.8069 86.3306 54.8069 86.3306L67.4054 84.8113Z" fill="#023773"/>
<path opacity="0.3" d="M63.9867 97.2194C64.3499 95.578 65.1853 97.6444 66.1569 101.225C65.4214 110.087 64.4634 120.35 63.5464 126.007C63.3421 127.273 63.0333 128.807 62.6384 130.546C62.9879 117.903 63.0016 101.66 63.9867 97.2194Z" fill="black" fill-opacity="0.92"/>
<path d="M74.338 84.0002C74.338 84.0002 77.003 114.024 77.0938 126.086C77.1891 138.635 74.7874 179.719 74.7874 179.719H68.554C68.554 179.719 66.6835 139.368 65.9072 127.043C65.0582 113.609 61.4852 85.5195 61.4852 85.5195L74.338 84.0002Z" fill="#023773"/>
<path d="M51.302 173.965C51.3292 173.965 50.2532 176.568 50.2532 176.568L42.7441 175.103L43.1981 172.685L51.302 173.965Z" fill="#263238"/>
<path d="M75.877 177.047C75.9042 177.047 75.6364 179.832 75.6364 179.832H68.0637L67.7549 177.35L75.877 177.047Z" fill="#263238"/>
<path d="M54.9885 57.2396C54.489 58.2801 53.9397 59.3744 53.4403 60.454L51.9149 63.7075C51.42 64.792 50.9342 65.8813 50.4666 66.9707C49.999 68.0601 49.5586 69.1446 49.1818 70.2291L49.1455 68.5193C49.4108 69.3973 49.7293 70.2557 50.0989 71.0889C50.2759 71.5188 50.5029 71.9291 50.6981 72.3541C50.8934 72.7791 51.1521 73.1846 51.3837 73.5852C51.8654 74.4132 52.3867 75.2138 52.9455 75.9838C53.2269 76.3697 53.5084 76.7654 53.808 77.1367C54.1077 77.5079 54.4346 77.8939 54.716 78.2114L54.8068 78.3189C55.016 78.566 55.1366 78.8852 55.1469 79.2193C55.1573 79.5533 55.0567 79.8804 54.8634 80.142C54.67 80.4036 54.3963 80.5825 54.0915 80.6468C53.7867 80.7111 53.4705 80.6565 53.1997 80.4927C52.7304 80.2083 52.2757 79.8969 51.8377 79.5597C51.3837 79.2373 50.9842 78.9002 50.5756 78.5436C49.7576 77.8216 48.9898 77.0363 48.2783 76.1938C47.552 75.3377 46.8915 74.4196 46.3034 73.4484C45.6991 72.459 45.1736 71.4164 44.7326 70.3317C44.5383 69.8713 44.5045 69.3511 44.6372 68.8662L44.7008 68.6366C45.0458 67.3615 45.4318 66.1256 45.8585 64.9141C46.2853 63.7026 46.7393 62.5155 47.2205 61.348C47.7018 60.1804 48.2057 59.0275 48.7369 57.8893C49.268 56.7511 49.8038 55.6372 50.4167 54.499C50.7554 53.8476 51.3193 53.3663 51.9859 53.1597C52.6526 52.9532 53.368 53.038 53.9768 53.3958C54.5857 53.7536 55.0387 54.3555 55.2374 55.0706C55.4362 55.7858 55.3647 56.5564 55.0384 57.2151L54.9885 57.2396Z" fill="#D58745"/>
<path d="M57.5944 55.5005C57.776 59.2279 53.8444 66.0719 53.8444 66.0719L45.7496 61.7193C46.7333 58.632 48.2557 55.7752 50.2351 53.3022C54.5163 48.2119 57.4265 52.0809 57.5944 55.5005Z" fill="#263238"/>
<path d="M52.1101 79.7942L53.74 82.7253L57.1313 80.3902C56.539 79.248 55.6113 78.3494 54.4936 77.8352C54.2351 77.7464 53.9557 77.7602 53.7058 77.874C53.4559 77.9878 53.2522 78.1941 53.1316 78.4557L52.1101 79.7942Z" fill="#D58745"/>
<path d="M55.0974 83.9758L56.6728 83.6583C56.8054 83.6319 56.9319 83.5775 57.0449 83.4983C57.1579 83.419 57.2552 83.3165 57.3311 83.1966C57.4071 83.0767 57.4603 82.9418 57.4875 82.7997C57.5148 82.6576 57.5157 82.5111 57.49 82.3686L57.1314 80.4146L53.74 82.7496L53.967 83.3407C54.0599 83.5694 54.2226 83.7571 54.4282 83.8726C54.6338 83.9881 54.87 84.0245 55.0974 83.9758Z" fill="#D58745"/>
<path d="M64.6632 36.7709C64.695 37.0885 64.8811 37.3376 65.0718 37.3181C65.2625 37.2985 65.3896 37.0298 65.3533 36.7123C65.3169 36.3948 65.1353 36.1456 64.9447 36.1603C64.754 36.1749 64.6269 36.4485 64.6632 36.7709Z" fill="#263238"/>
<path d="M64.8539 37.3376C65.3131 38.2865 65.8854 39.1667 66.5564 39.9561C66.1024 40.5276 65.1944 40.3615 65.1944 40.3615L64.8539 37.3376Z" fill="#FF5652"/>
<path d="M63.392 35.0857C63.4156 35.0895 63.4397 35.0875 63.4625 35.0799C63.4853 35.0723 63.5062 35.0593 63.5237 35.0418C63.6811 34.8831 63.8723 34.7686 64.0805 34.7081C64.2887 34.6476 64.5075 34.6431 64.7177 34.6949C64.7391 34.7023 64.7618 34.7048 64.7842 34.7024C64.8066 34.6999 64.8283 34.6924 64.8479 34.6805C64.8675 34.6686 64.8846 34.6524 64.8981 34.633C64.9117 34.6137 64.9213 34.5915 64.9265 34.5679C64.9379 34.5194 64.9315 34.468 64.9087 34.4243C64.8859 34.3807 64.8484 34.3482 64.8039 34.3334C64.5385 34.2653 64.2616 34.2679 63.9973 34.3411C63.7331 34.4143 63.4894 34.5559 63.2876 34.7535C63.2707 34.7709 63.2572 34.7917 63.2481 34.8148C63.2389 34.8379 63.2341 34.8628 63.2341 34.8879C63.2341 34.913 63.2389 34.9379 63.2481 34.9609C63.2572 34.984 63.2707 35.0049 63.2876 35.0222C63.3002 35.0398 63.3159 35.0544 63.3338 35.0653C63.3518 35.0762 63.3715 35.0832 63.392 35.0857Z" fill="#263238"/>
<path d="M55.5106 40.3079C56.3777 43.1363 57.5309 48.3488 55.8874 50.4396C55.8874 50.4396 56.9679 53.2876 61.9437 52.8333C67.4235 52.3448 64.2137 49.6824 64.2137 49.6824C61.1356 49.1939 60.9268 46.8051 61.181 44.5237L55.5106 40.3079Z" fill="#D58745"/>
<path d="M54.7115 51.4702C54.1985 50.586 53.6265 49.5748 54.598 49.1986C55.6649 48.7834 61.6577 48.1093 63.7915 48.6759C65.9253 49.2426 65.4895 51.1185 65.4895 51.1185L54.7115 51.4702Z" fill="#023773"/>
<path d="M72.2586 52.6622C73.0395 53.4341 73.8839 54.2889 74.7238 55.0706C75.5637 55.8522 76.4127 56.6533 77.2662 57.4252C78.1198 58.197 78.9914 58.9249 79.8677 59.6333C80.7439 60.3416 81.6337 60.9865 82.5236 61.5873L80.7076 61.4017C81.4622 61.1851 82.1765 60.8297 82.8187 60.3514C83.5691 59.787 84.2656 59.1439 84.898 58.4315C85.5795 57.6811 86.2178 56.8866 86.8093 56.0525C87.1135 55.6275 87.4177 55.1976 87.7173 54.753C88.017 54.3085 88.2894 53.8395 88.5391 53.4292L88.589 53.351C88.7614 53.0676 89.0228 52.8604 89.3254 52.7671C89.628 52.6738 89.9517 52.7007 90.2374 52.8429C90.5231 52.9851 90.7518 53.233 90.8818 53.5415C91.0117 53.85 91.0342 54.1985 90.9453 54.5234C90.7727 55.1585 90.5911 55.7008 90.3823 56.2674C90.1735 56.8341 89.9555 57.391 89.7104 57.9381C89.2133 59.0542 88.6317 60.1244 87.9716 61.1379C87.2786 62.2126 86.471 63.1963 85.5654 64.069C84.563 65.0318 83.3998 65.7811 82.1377 66.277C81.8667 66.3798 81.5795 66.4236 81.2927 66.406C81.0059 66.3884 80.7253 66.3097 80.4669 66.1745L80.3171 66.0914C79.1898 65.4953 78.0954 64.8298 77.0392 64.0983C76.0087 63.3802 75.0099 62.6327 74.0474 61.8316C73.0849 61.0304 72.1542 60.2195 71.2462 59.389C70.3382 58.5585 69.4665 57.689 68.5812 56.7169C68.1101 56.1881 67.8476 55.4837 67.8488 54.7512C67.8499 54.0188 68.1146 53.3152 68.5874 52.7882C69.0601 52.2612 69.7041 51.9517 70.3844 51.9246C71.0646 51.8974 71.7282 52.1548 72.2359 52.6427L72.2586 52.6622Z" fill="#D58745"/>
<path d="M69.4847 50.1269C69.4847 50.1269 74.061 54.9046 74.5922 84.4547C67.2737 86.3647 60.2322 87.0682 54.7933 86.3257C54.5345 82.6179 54.1486 69.7504 50.6528 56.1845C50.5026 55.6131 50.4645 55.0144 50.5408 54.4263C50.6171 53.8382 50.8062 53.2736 51.0961 52.7683C51.3859 52.263 51.7702 51.8281 52.2246 51.4911C52.679 51.1542 53.1935 50.9225 53.7355 50.8108C54.4301 50.6643 55.161 50.5324 55.8874 50.4298C58.647 50.0051 61.4271 49.7522 64.2138 49.6726C65.9786 49.6881 67.7401 49.8399 69.4847 50.1269Z" fill="#263238"/>
<path d="M65.9344 55.2758C66.3884 58.9738 72.2904 66.0816 72.2904 66.0816L79.2957 58.2655C77.2147 55.9147 74.965 53.7439 72.5674 51.7731C67.4326 47.6452 65.5258 51.8464 65.9344 55.2758Z" fill="#263238"/>
<path d="M90.4913 55.8229L92.8339 53.5122L90.0282 50.4102C89.1001 51.2605 88.4613 52.4188 88.2122 53.7027C88.1848 53.9963 88.257 54.2905 88.4156 54.5312C88.5741 54.7718 88.8083 54.9426 89.0748 55.0119L90.4913 55.8229Z" fill="#D58745"/>
<path d="M93.6965 51.8317L93.0927 50.2343C93.0415 50.0972 92.9654 49.9726 92.8687 49.8678C92.772 49.7629 92.6567 49.6801 92.5297 49.624C92.4027 49.568 92.2666 49.54 92.1293 49.5416C91.9921 49.5432 91.8565 49.5744 91.7307 49.6334L90.01 50.4101L92.8157 53.5122L93.3061 53.1556C93.5028 53.017 93.6491 52.8096 93.7202 52.5684C93.7914 52.3272 93.783 52.067 93.6965 51.8317Z" fill="#D58745"/>
<path d="M54.8114 36.9372C55.4697 40.8453 55.6695 43.1609 57.7125 45.0221C60.786 47.8213 65.0264 45.6425 65.4305 41.6513C65.8118 38.0559 64.6723 32.267 60.9767 31.0067C57.2812 29.7463 54.1531 33.0291 54.8114 36.9372Z" fill="#D58745"/>
<path d="M61.971 38.344C63.2467 38.6567 64.241 37.069 64.3772 36.6196C63.7552 36.6831 62.652 36.3411 62.4341 36.0382C63.1151 36.1017 63.7734 35.198 63.8551 34.8511C63.1326 34.701 62.4927 34.2543 62.0709 33.6054C63.1741 33.581 64.4998 31.4902 63.2876 29.6192C62.0754 27.7482 57.0088 29.3163 56.296 27.9827C55.2336 28.647 56.1779 29.5312 56.1779 29.5312C56.1779 29.5312 49.0093 30.9968 52.3144 33.9718C49.8901 34.2063 49.5495 37.2888 51.5698 38.8569C53.5901 40.4251 53.6946 41.4607 52.891 41.3337C53.2133 41.9981 54.6525 42.086 54.7342 41.4412C55.0747 42.7944 56.0554 44.6263 58.3163 44.3283C60.5772 44.0303 62.7927 40.6254 61.971 38.344Z" fill="#263238"/>
<path d="M52.9409 33.5174C51.2339 33.7714 50.4575 32.7358 50.8843 31.8223C48.7686 32.9849 51.0795 35.5545 52.9409 33.5174Z" fill="#263238"/>
<path d="M60.2049 37.7479C60.4987 38.5666 61.0184 39.269 61.694 39.7606C62.602 40.4054 63.4238 39.7606 63.2694 38.7835C63.1287 37.8847 62.4885 36.4631 61.5442 36.2091C61.3486 36.14 61.1388 36.1325 60.9394 36.1874C60.74 36.2423 60.5593 36.3574 60.4186 36.519C60.2779 36.6807 60.1831 36.8822 60.1452 37.0999C60.1073 37.3176 60.1281 37.5424 60.2049 37.7479Z" fill="#D58745"/>
<path d="M175.598 175.44C172.239 166.911 170.881 156.877 174.726 157.292C178.672 157.702 178.209 172.826 178.849 174.487C177.618 175.626 175.598 175.44 175.598 175.44Z" fill="#023773"/>
<path d="M176.688 159.256C175.861 162.509 174.985 167.536 174.318 171.796C174.699 173.017 175.131 174.238 175.598 175.44C175.598 175.44 177.614 175.626 178.853 174.487C178.345 173.178 178.526 163.486 176.688 159.256Z" fill="#263238"/>
<path d="M176.706 173.877C175.653 155.753 178.522 138.953 186.076 139.71C192.56 140.365 183.107 170.877 183.289 174.395C180.32 175.635 176.706 173.877 176.706 173.877Z" fill="#023773"/>
<path d="M181.6 173.759C182.785 160.731 189.173 145.528 191.915 150.609C195.397 157.057 186.467 172.416 186.226 174.942C183.993 175.459 181.6 173.759 181.6 173.759Z" fill="#023773"/>
<path d="M180.406 144.551C179.639 144.414 179.212 143.902 179.262 143.174C179.316 142.353 179.943 141.537 180.524 141.527C180.806 141.527 181.278 141.684 181.396 142.812L180.942 142.871C180.887 142.333 180.737 142.016 180.538 142.016C180.229 142.016 179.757 142.622 179.72 143.208C179.689 143.696 179.943 143.97 180.483 144.068L180.406 144.551Z" fill="#023773"/>
<path d="M188.56 147.829C188.23 147.801 187.915 147.67 187.652 147.453L187.897 147.048C188.319 147.341 188.646 147.419 188.773 147.253C188.964 146.989 188.832 146.217 188.437 145.812C188.119 145.484 187.747 145.509 187.334 145.9L187.039 145.528C187.145 145.4 187.275 145.295 187.419 145.222C187.564 145.148 187.721 145.107 187.881 145.101C188.041 145.094 188.201 145.123 188.35 145.185C188.499 145.246 188.636 145.34 188.751 145.46C189.304 146.027 189.491 147.062 189.127 147.556C189.06 147.647 188.974 147.72 188.875 147.767C188.776 147.815 188.668 147.836 188.56 147.829Z" fill="#023773"/>
<path d="M177.432 155.206C177.157 155.227 176.885 155.139 176.666 154.959C176.447 154.779 176.296 154.52 176.243 154.229C176.061 153.433 176.424 152.451 176.978 152.245C177.237 152.153 177.737 152.143 178.172 153.183L177.755 153.389C177.55 152.9 177.301 152.636 177.124 152.71C176.833 152.817 176.556 153.545 176.67 154.112C176.774 154.6 177.124 154.766 177.641 154.678L177.709 155.167C177.618 155.188 177.526 155.201 177.432 155.206Z" fill="#023773"/>
<path d="M172.597 165.323C172.376 165.328 172.158 165.262 171.973 165.132C171.787 165.002 171.643 164.815 171.558 164.595C171.24 163.848 171.426 162.807 171.93 162.494C172.171 162.348 172.661 162.24 173.269 163.178L172.897 163.457C172.606 163.012 172.329 162.812 172.157 162.919C171.889 163.085 171.744 163.857 171.971 164.385C172.157 164.82 172.511 164.937 173.024 164.742L173.174 165.206C172.989 165.281 172.794 165.32 172.597 165.323Z" fill="#023773"/>
<path d="M180.642 150.575C180.595 150.575 180.549 150.559 180.51 150.531C180.228 150.363 180.012 150.091 179.902 149.765C179.792 149.439 179.795 149.081 179.911 148.757C180.043 148.433 180.268 148.163 180.553 147.987C180.838 147.811 181.169 147.738 181.496 147.78C181.777 147.834 182.435 148.103 182.481 149.402C182.481 149.467 182.457 149.529 182.414 149.575C182.372 149.621 182.314 149.647 182.254 149.647C182.194 149.647 182.136 149.621 182.093 149.575C182.051 149.529 182.027 149.467 182.027 149.402C182 148.723 181.786 148.313 181.414 148.24C181.188 148.22 180.962 148.277 180.768 148.402C180.573 148.527 180.42 148.715 180.329 148.938C180.165 149.353 180.329 149.774 180.783 150.12C180.823 150.15 180.852 150.193 180.868 150.242C180.883 150.292 180.884 150.345 180.869 150.395C180.854 150.445 180.825 150.488 180.786 150.518C180.747 150.549 180.7 150.565 180.651 150.565L180.642 150.575Z" fill="#F4F5F7"/>
<path d="M186.022 163.76C185.97 163.76 185.919 163.741 185.879 163.705C185.839 163.67 185.813 163.619 185.804 163.564C185.797 163.533 185.797 163.501 185.802 163.469C185.807 163.438 185.818 163.408 185.834 163.381C185.85 163.354 185.871 163.331 185.895 163.313C185.92 163.295 185.947 163.282 185.977 163.276C186.594 163.139 186.935 162.841 186.944 162.436C186.923 162.193 186.833 161.963 186.686 161.777C186.539 161.592 186.342 161.46 186.122 161.4C185.713 161.293 185.35 161.532 185.109 162.069C185.096 162.098 185.078 162.124 185.056 162.145C185.033 162.167 185.007 162.183 184.979 162.193C184.951 162.204 184.921 162.208 184.891 162.206C184.861 162.204 184.832 162.196 184.805 162.182C184.778 162.168 184.754 162.148 184.735 162.124C184.715 162.1 184.7 162.072 184.69 162.041C184.68 162.011 184.676 161.979 184.678 161.947C184.68 161.915 184.688 161.883 184.701 161.855C184.812 161.53 185.026 161.259 185.305 161.088C185.584 160.918 185.911 160.859 186.226 160.921C186.547 161.007 186.834 161.2 187.044 161.474C187.255 161.747 187.379 162.086 187.398 162.441C187.398 162.748 187.252 163.491 186.072 163.755L186.022 163.76Z" fill="#F4F5F7"/>
<path d="M192.405 159.641C192.142 159.641 191.792 159.475 191.402 158.845L191.779 158.572C192.06 159.021 192.328 159.226 192.505 159.124C192.778 158.967 192.959 158.195 192.719 157.658C192.546 157.223 192.192 157.096 191.674 157.277L191.534 156.813C192.269 156.554 192.868 156.813 193.136 157.468C193.44 158.22 193.236 159.256 192.723 159.553C192.626 159.612 192.517 159.643 192.405 159.641Z" fill="#023773"/>
<path d="M191.052 178.542C191.055 175.935 190.187 173.414 188.605 171.439C188.761 171.415 188.903 171.331 189.006 171.204C189.109 171.077 189.167 170.914 189.168 170.745C189.167 170.555 189.096 170.372 188.97 170.237C188.844 170.103 188.674 170.027 188.496 170.027H173.296C173.131 170.03 172.972 170.099 172.852 170.221C172.731 170.343 172.657 170.509 172.645 170.687C172.632 170.864 172.682 171.04 172.784 171.181C172.886 171.321 173.033 171.415 173.196 171.444C172.202 172.686 171.481 174.154 171.087 175.738C170.693 177.321 170.636 178.98 170.92 180.591C171.204 182.202 171.822 183.723 172.728 185.041C173.634 186.359 174.804 187.441 176.152 188.205C176.005 188.286 175.888 188.419 175.82 188.58C175.751 188.742 175.735 188.924 175.775 189.097C175.814 189.269 175.906 189.423 176.036 189.532C176.167 189.642 176.327 189.701 176.493 189.7H185.296C185.49 189.698 185.677 189.615 185.814 189.467C185.952 189.318 186.03 189.118 186.031 188.908C186.03 188.764 185.993 188.622 185.924 188.498C185.854 188.374 185.755 188.273 185.636 188.205C187.271 187.277 188.639 185.887 189.594 184.184C190.548 182.482 191.052 180.531 191.052 178.542Z" fill="#263238"/>
</svg>
