<svg width="192" height="180" viewBox="0 0 192 180" fill="none" xmlns="http://www.w3.org/2000/svg">
<path d="M89.7154 180C139.264 180 179.431 139.706 179.431 90C179.431 40.2944 139.264 0 89.7154 0C40.167 0 0 40.2944 0 90C0 139.706 40.167 180 89.7154 180Z" fill="#011C3A"/>
<path d="M38.762 82.6584C37.8375 82.6645 36.9324 82.393 36.1629 81.8789C35.3935 81.3647 34.7949 80.6315 34.4442 79.7734C34.0934 78.9152 34.0066 77.9715 34.1948 77.0635C34.3831 76.1554 34.8377 75.3246 35.5004 74.6779C49.8899 60.2663 69.3922 52.1719 89.7254 52.1719C110.059 52.1719 129.561 60.2663 143.951 74.6779C144.381 75.1102 144.723 75.6234 144.956 76.1883C145.19 76.7531 145.31 77.3585 145.31 77.9699C145.31 78.5812 145.19 79.1866 144.956 79.7515C144.723 80.3163 144.381 80.8295 143.951 81.2618C143.52 81.6941 143.008 82.037 142.445 82.271C141.882 82.505 141.278 82.6254 140.669 82.6254C140.06 82.6254 139.456 82.505 138.893 82.271C138.33 82.037 137.818 81.6941 137.387 81.2618C124.736 68.5936 107.591 61.4787 89.7155 61.4787C71.8401 61.4787 54.6951 68.5936 42.0436 81.2618C41.6156 81.7004 41.1053 82.0496 40.542 82.2893C39.9788 82.529 39.3738 82.6544 38.762 82.6584Z" fill="#F4F5F7"/>
<path d="M54.5134 98.4602C53.5916 98.4605 52.6904 98.1861 51.9242 97.6719C51.158 97.1577 50.5613 96.4268 50.2097 95.5719C49.8582 94.717 49.7677 93.7766 49.9497 92.87C50.1316 91.9634 50.5779 91.1315 51.2319 90.4797C61.4474 80.2579 75.2869 74.5176 89.7155 74.5176C104.144 74.5176 117.984 80.2579 128.199 90.4797C128.958 91.368 129.355 92.5107 129.311 93.6798C129.267 94.8489 128.786 95.9583 127.962 96.7868C127.139 97.6153 126.034 98.1019 124.869 98.1495C123.704 98.1971 122.564 97.8022 121.676 97.0437C113.201 88.5604 101.718 83.7962 89.7453 83.7962C77.7731 83.7962 66.2897 88.5604 57.8149 97.0437C57.3869 97.4891 56.8742 97.844 56.3071 98.0873C55.7401 98.3306 55.1302 98.4574 54.5134 98.4602Z" fill="#F4F5F7"/>
<path d="M70.2648 114.241C69.3386 114.252 68.4306 113.983 67.6581 113.47C66.8855 112.958 66.2838 112.225 65.9306 111.366C65.5774 110.507 65.4889 109.561 65.6765 108.651C65.8642 107.741 66.3193 106.909 66.9832 106.261C73.0196 100.219 81.1984 96.8262 89.7253 96.8262C98.2523 96.8262 106.431 100.219 112.467 106.261C112.898 106.693 113.24 107.206 113.473 107.771C113.707 108.336 113.827 108.942 113.827 109.553C113.827 110.164 113.707 110.77 113.473 111.334C113.24 111.899 112.898 112.413 112.467 112.845C112.036 113.277 111.525 113.62 110.962 113.854C110.399 114.088 109.795 114.208 109.186 114.208C108.576 114.208 107.973 114.088 107.41 113.854C106.847 113.62 106.335 113.277 105.904 112.845C103.78 110.712 101.258 109.021 98.4821 107.866C95.706 106.712 92.7304 106.118 89.7253 106.118C86.7203 106.118 83.7447 106.712 80.9686 107.866C78.1925 109.021 75.6704 110.712 73.5463 112.845C72.6769 113.723 71.4987 114.225 70.2648 114.241Z" fill="#F4F5F7"/>
<path d="M94.4091 124.396C95.339 125.327 95.9726 126.514 96.2297 127.807C96.4868 129.1 96.3559 130.441 95.8534 131.659C95.3509 132.877 94.4995 133.918 93.4069 134.651C92.3143 135.384 91.0297 135.775 89.7154 135.775C88.4012 135.775 87.1166 135.384 86.024 134.651C84.9314 133.918 84.08 132.877 83.5775 131.659C83.075 130.441 82.9441 129.1 83.2012 127.807C83.4583 126.514 84.0919 125.327 85.0219 124.396C86.2673 123.148 87.9554 122.447 89.7154 122.447C91.4755 122.447 93.1636 123.148 94.4091 124.396Z" fill="#F4F5F7"/>
<path d="M161.69 180.001C178.43 180.001 192 166.388 192 149.595C192 132.803 178.43 119.189 161.69 119.189C144.951 119.189 131.381 132.803 131.381 149.595C131.381 166.388 144.951 180.001 161.69 180.001Z" fill="#034EA2"/>
<path d="M173.862 163.8C173.601 163.801 173.341 163.751 173.099 163.651C172.856 163.552 172.636 163.406 172.45 163.221L148.127 138.801C147.801 138.419 147.631 137.928 147.65 137.426C147.67 136.924 147.877 136.447 148.231 136.092C148.585 135.737 149.06 135.529 149.561 135.509C150.061 135.49 150.551 135.661 150.931 135.988L175.374 160.388C175.56 160.573 175.708 160.794 175.809 161.037C175.91 161.28 175.962 161.541 175.962 161.804C175.962 162.068 175.91 162.329 175.809 162.572C175.708 162.815 175.56 163.036 175.374 163.221C175.176 163.418 174.94 163.572 174.679 163.671C174.419 163.771 174.141 163.815 173.862 163.8Z" fill="#F4F5F7"/>
<path d="M149.519 163.801C149.124 163.803 148.737 163.687 148.408 163.468C148.079 163.249 147.822 162.937 147.671 162.571C147.519 162.205 147.48 161.802 147.558 161.413C147.635 161.025 147.827 160.668 148.107 160.389L172.43 135.989C172.615 135.802 172.835 135.653 173.077 135.552C173.32 135.451 173.58 135.398 173.842 135.398C174.105 135.398 174.365 135.451 174.607 135.552C174.849 135.653 175.069 135.802 175.254 135.989C175.625 136.362 175.833 136.868 175.833 137.395C175.833 137.922 175.625 138.428 175.254 138.802L150.911 163.222C150.541 163.591 150.041 163.798 149.519 163.801Z" fill="#F4F5F7"/>
</svg>
