<svg width="256" height="256" viewBox="0 0 256 256" fill="none" xmlns="http://www.w3.org/2000/svg">
<path d="M256 195.789H0V195.917H256V195.789Z" fill="#EBEBEB"/>
<path d="M230.349 204.027H213.391V204.155H230.349V204.027Z" fill="#EBEBEB"/>
<path d="M169.585 205.419H165.135V205.547H169.585V205.419Z" fill="#EBEBEB"/>
<path d="M212.879 199.275H203.054V199.403H212.879V199.275Z" fill="#EBEBEB"/>
<path d="M48.9728 200.135H26.8595V200.263H48.9728V200.135Z" fill="#EBEBEB"/>
<path d="M56.7757 200.135H53.5347V200.263H56.7757V200.135Z" fill="#EBEBEB"/>
<path d="M115.277 202.296H67.3126V202.424H115.277V202.296Z" fill="#EBEBEB"/>
<path d="M121.344 172.954H22.4819C21.7074 172.952 20.9652 172.644 20.418 172.095C19.8708 171.547 19.5635 170.804 19.5635 170.03V31.0578C19.5703 30.2878 19.8805 29.5515 20.427 29.0089C20.9734 28.4663 21.7119 28.1612 22.4819 28.1599H121.344C122.119 28.1599 122.863 28.4679 123.411 29.0162C123.96 29.5645 124.268 30.3081 124.268 31.0834V170.03C124.268 170.805 123.96 171.549 123.411 172.097C122.863 172.646 122.119 172.954 121.344 172.954ZM22.4819 28.2623C21.7414 28.2637 21.0317 28.5588 20.5085 29.0829C19.9853 29.607 19.6915 30.3173 19.6915 31.0578V170.03C19.6915 170.771 19.9853 171.481 20.5085 172.005C21.0317 172.529 21.7414 172.824 22.4819 172.826H121.344C122.085 172.824 122.795 172.529 123.319 172.005C123.843 171.481 124.138 170.771 124.14 170.03V31.0578C124.138 30.3168 123.843 29.6066 123.319 29.0826C122.795 28.5586 122.085 28.2637 121.344 28.2623H22.4819Z" fill="#EBEBEB"/>
<path d="M232.095 172.954H133.228C132.453 172.952 131.71 172.644 131.162 172.096C130.614 171.548 130.305 170.805 130.304 170.03V31.0578C130.312 30.2873 130.624 29.5511 131.171 29.0086C131.718 28.4661 132.457 28.1612 133.228 28.1599H232.095C232.864 28.1626 233.601 28.4683 234.146 29.0107C234.692 29.5532 235.001 30.2887 235.008 31.0578V170.03C235.008 170.804 234.701 171.546 234.155 172.094C233.609 172.642 232.868 172.951 232.095 172.954ZM133.228 28.2623C132.487 28.2637 131.776 28.5586 131.252 29.0826C130.728 29.6066 130.433 30.3168 130.432 31.0578V170.03C130.433 170.771 130.728 171.481 131.252 172.005C131.776 172.529 132.487 172.824 133.228 172.826H232.095C232.836 172.824 233.546 172.529 234.07 172.005C234.594 171.481 234.889 170.771 234.89 170.03V31.0578C234.889 30.3168 234.594 29.6066 234.07 29.0826C233.546 28.5586 232.836 28.2637 232.095 28.2623H133.228Z" fill="#EBEBEB"/>
<path d="M162.068 144.614H223.585C223.585 145.701 223.165 146.746 222.414 147.531C221.662 148.316 220.636 148.781 219.551 148.828C212.941 149.13 202.767 150.175 199.547 153.83C193.531 160.65 194.115 184.601 201.318 190.146C203.571 191.887 210.156 195.338 210.156 195.338H175.498C175.498 195.338 181.642 191.816 183.788 190.146C190.956 184.555 191.155 160.619 185.114 153.83C182.016 150.349 172.483 149.222 166.088 148.869C165.001 148.809 163.978 148.334 163.23 147.542C162.483 146.751 162.067 145.703 162.068 144.614Z" fill="#F5F5F5"/>
<path d="M215.962 149.053C209.715 149.565 202.23 150.789 199.547 153.83C198.671 154.881 197.978 156.072 197.499 157.353H187.182C186.696 156.075 186.004 154.885 185.134 153.83C182.441 150.805 174.894 149.56 168.75 149.053H215.962Z" fill="#E6E6E6"/>
<path d="M188.273 144.645L189.112 135.086H176.983L176.148 144.645H188.273Z" fill="#EBEBEB"/>
<path d="M188.273 144.645L189.112 135.086H189.763L188.928 144.645H188.273Z" fill="#E0E0E0"/>
<path d="M187.121 143.672L187.786 136.059H178.135L177.469 143.672H187.121Z" fill="#F0F0F0"/>
<path d="M186.383 143.042L186.936 136.688H178.877L178.319 143.042H186.383Z" fill="#FAFAFA"/>
<path d="M192.205 144.614H204.385L203.034 129.167H190.853L192.205 144.614Z" fill="#E6E6E6"/>
<path d="M192.205 144.614H191.626L190.275 129.167H190.853L192.205 144.614Z" fill="#E0E0E0"/>
<path d="M193.311 143.042H203.008L201.933 130.744H192.236L193.311 143.042Z" fill="#F0F0F0"/>
<path d="M194.017 142.029H202.122L201.221 131.758H193.121L194.017 142.029Z" fill="#FAFAFA"/>
<path d="M198.113 136.376C197.982 136.508 197.827 136.612 197.656 136.684C197.484 136.755 197.3 136.791 197.115 136.791C196.929 136.791 196.746 136.755 196.574 136.684C196.403 136.612 196.247 136.508 196.116 136.376C195.854 136.112 195.706 135.754 195.706 135.38C195.706 135.007 195.854 134.649 196.116 134.385C196.382 134.121 196.741 133.974 197.115 133.974C197.489 133.974 197.848 134.121 198.113 134.385C198.376 134.649 198.524 135.007 198.524 135.38C198.524 135.754 198.376 136.112 198.113 136.376Z" fill="#EBEBEB"/>
<path d="M197.514 138.107C197.61 138.01 197.723 137.933 197.848 137.881C197.974 137.828 198.108 137.801 198.244 137.801C198.38 137.801 198.514 137.828 198.639 137.881C198.765 137.933 198.878 138.01 198.973 138.107C199.121 138.249 199.223 138.433 199.265 138.634C199.307 138.836 199.288 139.045 199.209 139.235C199.131 139.425 198.997 139.587 198.825 139.7C198.654 139.813 198.452 139.871 198.246 139.868C198.04 139.872 197.838 139.815 197.665 139.702C197.493 139.59 197.358 139.428 197.279 139.237C197.2 139.047 197.18 138.837 197.222 138.636C197.264 138.434 197.366 138.25 197.514 138.107Z" fill="#F0F0F0"/>
<path d="M41.8406 127.007H99.2819L99.2819 63.4776L41.8406 63.4776L41.8406 127.007Z" fill="#E0E0E0"/>
<path d="M40.0077 127.007L99.584 127.007L99.584 63.4776L40.0077 63.4776L40.0077 127.007Z" fill="#F0F0F0"/>
<path d="M42.5318 124.083H97.1622L97.1622 65.5H42.5318L42.5318 124.083Z" fill="white"/>
<path d="M42.5267 124.083H44.1088L44.1088 65.5H42.5267L42.5267 124.083Z" fill="#E0E0E0"/>
<path d="M43.9398 107.627V109.209H97.3005V107.627H43.9398Z" fill="#E0E0E0"/>
<path d="M42.5267 107.627H98.007V104.975H42.5267V107.627Z" fill="#F0F0F0"/>
<path d="M193.736 74.3525C193.736 74.3525 194.248 70.9733 191.785 68.8076C189.322 66.6418 189.537 65.3516 190.249 65.1826C190.961 65.0137 191.601 67.1845 192.686 67.7785C192.686 67.7785 192.722 64.7065 191.621 63.5545C190.52 62.4025 189.942 59.4892 190.991 59.4585C192.041 59.4277 192.143 61.1993 192.364 62.469C192.584 63.7388 193.746 65.541 193.746 65.541C193.746 65.541 193.971 62.7762 194.683 61.6396C195.395 60.5029 193.5 57.902 194.232 56.7653C194.964 55.6287 196.28 57.7893 196.152 60.2316C196.024 62.6738 194.422 65.2697 194.801 67.8143C194.801 67.8143 195.517 66.0274 196.157 65.8636C196.797 65.6997 197.453 64.5221 197.883 64.0818C198.313 63.6415 198.861 65.1621 197.883 66.5701C196.905 67.9781 194.422 71.7465 194.811 74.7878L193.736 74.3525Z" fill="#E6E6E6"/>
<path d="M192.261 72.8167L191.452 77.8803C191.391 78.2499 191.411 78.6285 191.512 78.9893C191.613 79.3501 191.791 79.6844 192.036 79.9686C192.28 80.2528 192.583 80.4799 192.925 80.634C193.266 80.788 193.638 80.8652 194.012 80.8602H194.872C195.247 80.8652 195.618 80.788 195.96 80.634C196.301 80.4799 196.605 80.2528 196.849 79.9686C197.093 79.6844 197.272 79.3501 197.373 78.9893C197.473 78.6285 197.494 78.2499 197.432 77.8803L196.608 72.8167H192.261Z" fill="#F5F5F5"/>
<path d="M204.462 78.9912H147.425V81.9199H204.462V78.9912Z" fill="#E6E6E6"/>
<path d="M152.566 68.188H150.052V78.9912H152.566V68.188Z" fill="#F0F0F0"/>
<path d="M164.716 68.188H162.202V78.9912H164.716V68.188Z" fill="#F0F0F0"/>
<path d="M178.511 67.9135L176.034 68.3406L177.869 78.9868L180.346 78.5598L178.511 67.9135Z" fill="#F0F0F0"/>
<path d="M155.679 69.6113H153.165V78.9912H155.679V69.6113Z" fill="#F0F0F0"/>
<path d="M161.454 69.6113H158.94V78.9912H161.454V69.6113Z" fill="#F0F0F0"/>
<path d="M176.036 69.6113H173.522V78.9912H176.036V69.6113Z" fill="#F0F0F0"/>
<path d="M168.015 69.2796L165.561 69.825L167.596 78.9814L170.05 78.436L168.015 69.2796Z" fill="#F0F0F0"/>
<path d="M157.85 67.6504H156.595V78.9912H157.85V67.6504Z" fill="#F0F0F0"/>
<path d="M172.795 67.6504H171.54V78.9912H172.795V67.6504Z" fill="#F0F0F0"/>
<path d="M147.43 103.798H204.467V100.869H147.43V103.798Z" fill="#E6E6E6"/>
<path d="M199.327 100.869H201.841V90.0659H199.327V100.869Z" fill="#F0F0F0"/>
<path d="M187.177 100.869H189.691V90.0659H187.177V100.869Z" fill="#F0F0F0"/>
<path d="M171.552 100.432L174.03 100.859L175.865 90.2127L173.387 89.7857L171.552 100.432Z" fill="#F0F0F0"/>
<path d="M196.214 100.869H198.728V91.4893H196.214V100.869Z" fill="#F0F0F0"/>
<path d="M190.438 100.869H192.952V91.4893H190.438V100.869Z" fill="#F0F0F0"/>
<path d="M175.857 100.869H178.371V91.4893H175.857V100.869Z" fill="#F0F0F0"/>
<path d="M181.848 100.312L184.302 100.858L186.337 91.7012L183.883 91.1558L181.848 100.312Z" fill="#F0F0F0"/>
<path d="M194.043 100.869H195.297V89.5283H194.043V100.869Z" fill="#F0F0F0"/>
<path d="M179.098 100.869H180.352V89.5283H179.098V100.869Z" fill="#F0F0F0"/>
<path d="M152.904 100.772H165.146V92.3186H152.904V100.772Z" fill="#F5F5F5"/>
<path d="M128 218.911C182.826 218.911 227.272 216.316 227.272 213.115C227.272 209.914 182.826 207.319 128 207.319C73.1738 207.319 28.7283 209.914 28.7283 213.115C28.7283 216.316 73.1738 218.911 128 218.911Z" fill="#299656"/>
<path d="M170.225 200.31C170.225 200.31 167.665 194.78 170.583 189.322C173.501 183.864 174.321 182.584 172.477 181.468C170.634 180.352 169.779 185.856 169.779 185.856C168.862 183.38 168.767 180.674 169.508 178.14C170.793 174.193 171.602 167.767 169.846 167.076C168.09 166.385 169.513 175.094 167.987 178.063C167.211 175.98 166.71 173.805 166.497 171.592C166.287 168.422 166.615 163.359 165.228 162.063C163.84 160.768 162.954 161.659 164.316 168.658C165.135 172.836 165.587 177.078 165.668 181.335C165.668 181.335 162.662 172.16 160.64 171.894C158.618 171.627 158.623 174.597 160.353 177.172C162.084 179.748 165.417 184.366 165.96 186.742C165.96 186.742 162.657 179.84 159.688 181.954C156.718 184.069 162.273 188.242 164.751 189.747C167.229 191.252 168.95 200.699 168.95 200.699L170.225 200.31Z" fill="#299656"/>
<path opacity="0.2" d="M170.225 200.31C170.225 200.31 167.665 194.78 170.583 189.322C173.501 183.864 174.321 182.584 172.477 181.468C170.634 180.352 169.779 185.856 169.779 185.856C168.862 183.38 168.767 180.674 169.508 178.14C170.793 174.193 171.602 167.767 169.846 167.076C168.09 166.385 169.513 175.094 167.987 178.063C167.211 175.98 166.71 173.805 166.497 171.592C166.287 168.422 166.615 163.359 165.228 162.063C163.84 160.768 162.954 161.659 164.316 168.658C165.135 172.836 165.587 177.078 165.668 181.335C165.668 181.335 162.662 172.16 160.64 171.894C158.618 171.627 158.623 174.597 160.353 177.172C162.084 179.748 165.417 184.366 165.96 186.742C165.96 186.742 162.657 179.84 159.688 181.954C156.718 184.069 162.273 188.242 164.751 189.747C167.229 191.252 168.95 200.699 168.95 200.699L170.225 200.31Z" fill="black"/>
<path d="M168.223 202.578C168.223 202.578 170.691 197.007 167.711 191.601C164.731 186.194 163.891 184.914 165.724 183.772C167.557 182.63 168.468 188.093 168.468 188.093C169.356 185.606 169.419 182.898 168.648 180.372C167.316 176.451 166.431 170.035 168.182 169.318C169.933 168.602 168.612 177.331 170.168 180.275C170.922 178.181 171.397 175.996 171.581 173.778C171.756 170.609 171.366 165.55 172.739 164.234C174.111 162.918 175.007 163.799 173.727 170.813C172.957 175.003 172.556 179.252 172.529 183.511C172.529 183.511 175.427 174.295 177.444 173.998C179.461 173.701 179.492 176.671 177.792 179.272C176.092 181.873 172.82 186.542 172.298 188.923C172.298 188.923 175.519 181.97 178.514 184.043C181.509 186.117 176.005 190.367 173.548 191.913C171.09 193.459 169.482 202.926 169.482 202.926L168.223 202.578Z" fill="#299656"/>
<path d="M179.61 198.61H159.212L160.865 213.207H177.961L179.61 198.61Z" fill="#263238"/>
<path opacity="0.2" d="M219.674 53.4529H111.867C111.166 53.4529 110.597 54.0214 110.597 54.7226V150.477C110.597 151.178 111.166 151.747 111.867 151.747H219.674C220.375 151.747 220.943 151.178 220.943 150.477V54.7226C220.943 54.0214 220.375 53.4529 219.674 53.4529Z" fill="black"/>
<path d="M215.501 51.6353H107.694C106.993 51.6353 106.424 52.2037 106.424 52.905V148.659C106.424 149.361 106.993 149.929 107.694 149.929H215.501C216.202 149.929 216.771 149.361 216.771 148.659V52.905C216.771 52.2037 216.202 51.6353 215.501 51.6353Z" fill="#299656"/>
<path opacity="0.6" d="M106.424 60.416V148.664C106.398 148.967 106.49 149.269 106.681 149.505C106.872 149.742 107.147 149.896 107.448 149.934H215.716C216.023 149.903 216.306 149.752 216.503 149.515C216.7 149.277 216.796 148.972 216.771 148.664V60.416H106.424Z" fill="white"/>
<path d="M215.46 65.5923H107.73V143.555H215.46V65.5923Z" fill="white"/>
<path opacity="0.6" d="M213.166 57.7076C214.06 57.7076 214.784 56.8342 214.784 55.7569C214.784 54.6795 214.06 53.8062 213.166 53.8062C212.273 53.8062 211.548 54.6795 211.548 55.7569C211.548 56.8342 212.273 57.7076 213.166 57.7076Z" fill="white"/>
<path opacity="0.6" d="M207.867 57.7076C208.76 57.7076 209.485 56.8342 209.485 55.7569C209.485 54.6795 208.76 53.8062 207.867 53.8062C206.973 53.8062 206.249 54.6795 206.249 55.7569C206.249 56.8342 206.973 57.7076 207.867 57.7076Z" fill="white"/>
<path opacity="0.6" d="M204.18 55.7569C204.18 56.8321 203.459 57.7025 202.563 57.7025C201.667 57.7025 200.95 56.8321 200.95 55.7569C200.95 54.6817 201.672 53.8062 202.563 53.8062C203.453 53.8062 204.18 54.6766 204.18 55.7569Z" fill="white"/>
<path d="M130.683 74.6958V94.802L125.512 101.038H114.058V74.6958H130.683Z" fill="#299656"/>
<path opacity="0.7" d="M130.683 74.6958V94.802L125.512 101.038H114.058V74.6958H130.683Z" fill="white"/>
<path opacity="0.3" d="M130.683 94.802L125.512 101.038V94.802H130.683Z" fill="#299656"/>
<path opacity="0.3" d="M128.108 78.4949H116.639V79.2475H128.108V78.4949Z" fill="#299656"/>
<path opacity="0.3" d="M128.108 81.3518H116.639V82.1044H128.108V81.3518Z" fill="#299656"/>
<path opacity="0.3" d="M128.108 84.2139H116.639V84.9716H128.108V84.2139Z" fill="#299656"/>
<path opacity="0.3" d="M128.108 87.0759H116.639V87.8286H128.108V87.0759Z" fill="#299656"/>
<path opacity="0.3" d="M125.143 89.938H116.639V90.6957H125.143V89.938Z" fill="#299656"/>
<path d="M157.051 74.6958V94.802L151.88 101.038H140.426V74.6958H157.051Z" fill="#299656"/>
<path opacity="0.7" d="M157.051 74.6958V94.802L151.88 101.038H140.426V74.6958H157.051Z" fill="white"/>
<path opacity="0.3" d="M157.051 94.802L151.88 101.038V94.802H157.051Z" fill="#299656"/>
<path opacity="0.3" d="M154.47 78.4949H143.002V79.2475H154.47V78.4949Z" fill="#299656"/>
<path opacity="0.3" d="M154.47 81.3518H143.002V82.1044H154.47V81.3518Z" fill="#299656"/>
<path opacity="0.3" d="M154.47 84.2139H143.002V84.9716H154.47V84.2139Z" fill="#299656"/>
<path opacity="0.3" d="M154.47 87.0759H143.002V87.8286H154.47V87.0759Z" fill="#299656"/>
<path opacity="0.3" d="M151.506 89.938H143.002V90.6957H151.506V89.938Z" fill="#299656"/>
<path d="M183.419 74.6958V94.802L178.248 101.038H166.794V74.6958H183.419Z" fill="#299656"/>
<path opacity="0.7" d="M183.419 74.6958V94.802L178.248 101.038H166.794V74.6958H183.419Z" fill="white"/>
<path opacity="0.3" d="M183.419 94.802L178.248 101.038V94.802H183.419Z" fill="#299656"/>
<path opacity="0.3" d="M180.838 78.4949H169.37V79.2475H180.838V78.4949Z" fill="#299656"/>
<path opacity="0.3" d="M180.838 81.3518H169.37V82.1044H180.838V81.3518Z" fill="#299656"/>
<path opacity="0.3" d="M180.838 84.2139H169.37V84.9716H180.838V84.2139Z" fill="#299656"/>
<path opacity="0.3" d="M180.838 87.0759H169.37V87.8286H180.838V87.0759Z" fill="#299656"/>
<path opacity="0.3" d="M177.874 89.938H169.37V90.6957H177.874V89.938Z" fill="#299656"/>
<path d="M209.787 74.6958V94.802L204.611 101.038H193.162V74.6958H209.787Z" fill="#299656"/>
<path opacity="0.7" d="M209.787 74.6958V94.802L204.611 101.038H193.162V74.6958H209.787Z" fill="white"/>
<path opacity="0.3" d="M209.787 94.802L204.611 101.038V94.802H209.787Z" fill="#299656"/>
<path opacity="0.3" d="M207.206 78.4949H195.738V79.2475H207.206V78.4949Z" fill="#299656"/>
<path opacity="0.3" d="M207.206 81.3518H195.738V82.1044H207.206V81.3518Z" fill="#299656"/>
<path opacity="0.3" d="M207.206 84.2139H195.738V84.9716H207.206V84.2139Z" fill="#299656"/>
<path opacity="0.3" d="M207.206 87.0759H195.738V87.8286H207.206V87.0759Z" fill="#299656"/>
<path opacity="0.3" d="M204.242 89.938H195.738V90.6957H204.242V89.938Z" fill="#299656"/>
<path d="M130.683 109.512V129.618L125.512 135.854H114.058V109.512H130.683Z" fill="#299656"/>
<path opacity="0.7" d="M130.683 109.512V129.618L125.512 135.854H114.058V109.512H130.683Z" fill="white"/>
<path opacity="0.3" d="M130.683 129.618L125.512 135.854V129.618H130.683Z" fill="#299656"/>
<path opacity="0.3" d="M128.108 113.311H116.639V114.063H128.108V113.311Z" fill="#299656"/>
<path opacity="0.3" d="M128.108 116.168H116.639V116.92H128.108V116.168Z" fill="#299656"/>
<path opacity="0.3" d="M128.108 119.03H116.639V119.788H128.108V119.03Z" fill="#299656"/>
<path opacity="0.3" d="M128.108 121.892H116.639V122.65H128.108V121.892Z" fill="#299656"/>
<path opacity="0.3" d="M125.143 124.754H116.639V125.507H125.143V124.754Z" fill="#299656"/>
<path d="M157.051 109.512V129.618L151.88 135.854H140.426V109.512H157.051Z" fill="#299656"/>
<path opacity="0.7" d="M157.051 109.512V129.618L151.88 135.854H140.426V109.512H157.051Z" fill="white"/>
<path opacity="0.3" d="M157.051 129.618L151.88 135.854V129.618H157.051Z" fill="#299656"/>
<path opacity="0.3" d="M154.47 113.311H143.002V114.063H154.47V113.311Z" fill="#299656"/>
<path opacity="0.3" d="M154.47 116.168H143.002V116.92H154.47V116.168Z" fill="#299656"/>
<path opacity="0.3" d="M154.47 119.03H143.002V119.788H154.47V119.03Z" fill="#299656"/>
<path opacity="0.3" d="M154.47 121.892H143.002V122.65H154.47V121.892Z" fill="#299656"/>
<path opacity="0.3" d="M151.506 124.754H143.002V125.507H151.506V124.754Z" fill="#299656"/>
<path d="M183.419 109.512V129.618L178.248 135.854H166.794V109.512H183.419Z" fill="#299656"/>
<path opacity="0.7" d="M183.419 109.512V129.618L178.248 135.854H166.794V109.512H183.419Z" fill="white"/>
<path opacity="0.3" d="M183.419 129.618L178.248 135.854V129.618H183.419Z" fill="#299656"/>
<path opacity="0.3" d="M180.838 113.311H169.37V114.063H180.838V113.311Z" fill="#299656"/>
<path opacity="0.3" d="M180.838 116.168H169.37V116.92H180.838V116.168Z" fill="#299656"/>
<path opacity="0.3" d="M180.838 119.03H169.37V119.788H180.838V119.03Z" fill="#299656"/>
<path opacity="0.3" d="M180.838 121.892H169.37V122.65H180.838V121.892Z" fill="#299656"/>
<path opacity="0.3" d="M177.874 124.754H169.37V125.507H177.874V124.754Z" fill="#299656"/>
<path d="M209.787 109.512V129.618L204.611 135.854H193.162V109.512H209.787Z" fill="#299656"/>
<path opacity="0.7" d="M209.787 109.512V129.618L204.611 135.854H193.162V109.512H209.787Z" fill="white"/>
<path opacity="0.3" d="M209.787 129.618L204.611 135.854V129.618H209.787Z" fill="#299656"/>
<path opacity="0.3" d="M207.206 113.311H195.738V114.063H207.206V113.311Z" fill="#299656"/>
<path opacity="0.3" d="M207.206 116.168H195.738V116.92H207.206V116.168Z" fill="#299656"/>
<path opacity="0.3" d="M207.206 119.03H195.738V119.788H207.206V119.03Z" fill="#299656"/>
<path opacity="0.3" d="M207.206 121.892H195.738V122.65H207.206V121.892Z" fill="#299656"/>
<path opacity="0.3" d="M204.242 124.754H195.738V125.507H204.242V124.754Z" fill="#299656"/>
<path opacity="0.1" d="M168.94 92.8511H142.403C141.173 92.8511 140.175 93.8482 140.175 95.0783V114.964C140.175 116.194 141.173 117.192 142.403 117.192H168.94C170.17 117.192 171.167 116.194 171.167 114.964V95.0783C171.167 93.8482 170.17 92.8511 168.94 92.8511Z" fill="black"/>
<g opacity="0.1">
<path d="M167.04 91.7196H163.968V88.3967C163.968 86.2974 163.134 84.284 161.65 82.7996C160.165 81.3151 158.152 80.4812 156.052 80.4812C153.953 80.4812 151.94 81.3151 150.455 82.7996C148.971 84.284 148.137 86.2974 148.137 88.3967V91.7196H145.065V88.3967C145.065 85.4826 146.223 82.6879 148.283 80.6274C150.344 78.5668 153.138 77.4092 156.052 77.4092C158.967 77.4092 161.761 78.5668 163.822 80.6274C165.882 82.6879 167.04 85.4826 167.04 88.3967V91.7196Z" fill="black"/>
</g>
<path d="M156.14 91.8271H129.603C128.373 91.8271 127.375 92.8243 127.375 94.0543V113.94C127.375 115.17 128.373 116.168 129.603 116.168H156.14C157.37 116.168 158.367 115.17 158.367 113.94V94.0543C158.367 92.8243 157.37 91.8271 156.14 91.8271Z" fill="#263238"/>
<path opacity="0.2" d="M150.533 91.8271H129.603C128.373 91.8271 127.375 92.8243 127.375 94.0543V113.94C127.375 115.17 128.373 116.168 129.603 116.168H150.533C151.763 116.168 152.76 115.17 152.76 113.94V94.0543C152.76 92.8243 151.763 91.8271 150.533 91.8271Z" fill="white"/>
<path d="M141.624 100.961C141.624 99.2818 140.6 97.9199 139.341 97.9199C138.081 97.9199 137.062 99.2818 137.062 100.961C137.032 101.515 137.148 102.066 137.399 102.561C137.65 103.055 138.026 103.475 138.491 103.777L138.066 110.126H140.626L140.206 103.777C140.668 103.473 141.042 103.053 141.291 102.558C141.54 102.064 141.655 101.514 141.624 100.961Z" fill="#263238"/>
<path d="M154.24 90.6957H151.168V87.3728C151.168 85.2734 150.334 83.2601 148.85 81.7757C147.365 80.2912 145.352 79.4573 143.252 79.4573C141.153 79.4573 139.14 80.2912 137.655 81.7757C136.171 83.2601 135.337 85.2734 135.337 87.3728V90.6957H132.265V87.3728C132.265 84.4587 133.423 81.664 135.483 79.6034C137.544 77.5429 140.338 76.3853 143.252 76.3853C146.167 76.3853 148.961 77.5429 151.022 79.6034C153.082 81.664 154.24 84.4587 154.24 87.3728V90.6957Z" fill="#263238"/>
<g opacity="0.4">
<path d="M154.24 90.6957H151.168V87.3728C151.168 85.2734 150.334 83.2601 148.85 81.7757C147.365 80.2912 145.352 79.4573 143.252 79.4573C141.153 79.4573 139.14 80.2912 137.655 81.7757C136.171 83.2601 135.337 85.2734 135.337 87.3728V90.6957H132.265V87.3728C132.265 84.4587 133.423 81.664 135.483 79.6034C137.544 77.5429 140.338 76.3853 143.252 76.3853C146.167 76.3853 148.961 77.5429 151.022 79.6034C153.082 81.664 154.24 84.4587 154.24 87.3728V90.6957Z" fill="white"/>
</g>
<path opacity="0.2" d="M154.24 87.3728V90.6957H152.156V86.994C152.156 85.6757 151.896 84.3703 151.392 83.1525C150.887 81.9346 150.148 80.8281 149.215 79.8962C148.283 78.9643 147.176 78.2252 145.958 77.7212C144.74 77.2172 143.434 76.9581 142.116 76.9588C140.101 76.9524 138.134 77.5694 136.484 78.7252C138.104 77.4543 140.05 76.665 142.098 76.4474C144.146 76.2298 146.214 76.5928 148.065 77.4948C149.917 78.3967 151.477 79.8014 152.568 81.5481C153.659 83.2949 154.237 85.3134 154.235 87.3728H154.24Z" fill="white"/>
<path d="M110.828 146.242H98.4166V145.766H101.217C101.406 145.764 101.587 145.697 101.731 145.575C101.875 145.454 101.972 145.286 102.006 145.101L103.26 137.636L103.506 136.166H107.756L111.56 145.136C111.611 145.257 111.632 145.389 111.62 145.52C111.609 145.651 111.564 145.777 111.492 145.887C111.419 145.997 111.321 146.086 111.205 146.149C111.089 146.211 110.959 146.243 110.828 146.242Z" fill="#299656"/>
<path opacity="0.4" d="M110.828 146.242H98.4166V145.766H101.217C101.406 145.764 101.587 145.697 101.731 145.575C101.875 145.454 101.972 145.286 102.006 145.101L103.26 137.636L103.506 136.166H107.756L111.56 145.136C111.611 145.257 111.632 145.389 111.62 145.52C111.609 145.651 111.564 145.777 111.492 145.887C111.419 145.997 111.321 146.086 111.205 146.149C111.089 146.211 110.959 146.243 110.828 146.242Z" fill="white"/>
<path opacity="0.2" d="M110.843 145.766H101.217C101.406 145.765 101.587 145.697 101.731 145.576C101.875 145.454 101.972 145.286 102.006 145.101L103.26 137.636H107.715L111.104 145.372C111.123 145.415 111.131 145.462 111.126 145.509C111.122 145.556 111.107 145.601 111.081 145.64C111.055 145.679 111.019 145.711 110.978 145.734C110.936 145.756 110.89 145.767 110.843 145.766Z" fill="black"/>
<path d="M117.499 138.916H92.672C92.6155 138.918 92.5593 138.907 92.5077 138.884C92.4561 138.861 92.4107 138.827 92.3749 138.783C92.3391 138.739 92.314 138.688 92.3016 138.632C92.2892 138.577 92.2898 138.52 92.3034 138.465L95.8362 119.808C95.862 119.688 95.9257 119.579 96.0179 119.498C96.1101 119.417 96.2258 119.368 96.3482 119.357H121.17C121.226 119.355 121.282 119.365 121.334 119.388C121.385 119.411 121.431 119.446 121.466 119.49C121.502 119.534 121.526 119.586 121.538 119.641C121.55 119.696 121.548 119.753 121.533 119.808L118.011 138.46C117.986 138.581 117.923 138.691 117.83 138.773C117.738 138.855 117.622 138.905 117.499 138.916Z" fill="#299656"/>
<path opacity="0.4" d="M117.499 138.916H92.672C92.6155 138.918 92.5593 138.907 92.5077 138.884C92.4561 138.861 92.4107 138.827 92.3749 138.783C92.3391 138.739 92.314 138.688 92.3016 138.632C92.2892 138.577 92.2898 138.52 92.3034 138.465L95.8362 119.808C95.862 119.688 95.9257 119.579 96.0179 119.498C96.1101 119.417 96.2258 119.368 96.3482 119.357H121.17C121.226 119.355 121.282 119.365 121.334 119.388C121.385 119.411 121.431 119.446 121.466 119.49C121.502 119.534 121.526 119.586 121.538 119.641C121.55 119.696 121.548 119.753 121.533 119.808L118.011 138.46C117.986 138.581 117.923 138.691 117.83 138.773C117.738 138.855 117.622 138.905 117.499 138.916Z" fill="white"/>
<path d="M116.987 138.916H92.16C92.1035 138.918 92.0473 138.907 91.9957 138.884C91.9441 138.861 91.8987 138.827 91.8629 138.783C91.8271 138.739 91.802 138.688 91.7896 138.632C91.7772 138.577 91.7778 138.52 91.7914 138.465L95.3242 119.808C95.35 119.688 95.4137 119.579 95.5059 119.498C95.5981 119.417 95.7138 119.368 95.8362 119.357H120.658C120.714 119.355 120.77 119.365 120.822 119.388C120.873 119.411 120.919 119.446 120.954 119.49C120.99 119.534 121.014 119.586 121.026 119.641C121.038 119.696 121.036 119.753 121.021 119.808L117.499 138.46C117.474 138.581 117.411 138.691 117.318 138.773C117.226 138.855 117.11 138.905 116.987 138.916Z" fill="#263238"/>
<path d="M116.659 137.769H92.9229L96.1894 120.509H119.921L116.659 137.769Z" fill="#299656"/>
<path d="M75.2896 146.242V145.659L84.8435 143.729H103.537C103.869 143.729 104.188 143.861 104.424 144.096C104.659 144.331 104.791 144.65 104.791 144.983C104.791 145.316 104.659 145.636 104.424 145.872C104.189 146.108 103.87 146.241 103.537 146.242H75.2896Z" fill="#299656"/>
<path opacity="0.4" d="M104.791 144.988C104.792 145.32 104.661 145.638 104.428 145.874C104.191 146.109 103.871 146.241 103.537 146.242H75.2896V145.664L84.8486 143.729H103.537C103.702 143.729 103.865 143.761 104.018 143.824C104.17 143.888 104.309 143.981 104.425 144.098C104.542 144.215 104.634 144.354 104.697 144.506C104.76 144.659 104.792 144.823 104.791 144.988Z" fill="white"/>
<path opacity="0.4" d="M104.791 144.988C104.792 145.32 104.661 145.638 104.428 145.874C104.191 146.109 103.871 146.241 103.537 146.242H92.1856V145.664L101.745 143.729H103.537C103.702 143.729 103.865 143.761 104.018 143.824C104.17 143.888 104.309 143.981 104.425 144.098C104.542 144.215 104.634 144.354 104.697 144.506C104.76 144.659 104.792 144.823 104.791 144.988Z" fill="white"/>
<path d="M111.621 213.207H114.181L118.774 149.238H115.379L111.621 213.207Z" fill="#263238"/>
<path opacity="0.1" d="M111.621 213.207H114.181L118.548 152.412L118.774 149.34H115.379L115.2 152.412L111.621 213.207Z" fill="white"/>
<path opacity="0.2" d="M115.2 152.258H118.548L118.774 149.34H115.379L115.2 152.258Z" fill="black"/>
<path d="M92.8563 213.207H95.4112L95.831 149.238H92.4365L92.8563 213.207Z" fill="#263238"/>
<path opacity="0.1" d="M92.4365 149.34L92.503 159.662L92.8512 213.207H95.4112L95.7593 159.662L95.8259 149.34H92.4365Z" fill="white"/>
<path opacity="0.2" d="M92.4365 149.34L92.503 159.775H95.7593L95.8259 149.34H92.4365Z" fill="black"/>
<path d="M65.705 213.207H68.2598L72.8576 149.238H69.463L65.705 213.207Z" fill="#263238"/>
<path opacity="0.1" d="M65.6998 213.207H68.2598L72.6323 152.412L72.8576 149.34H69.463L69.2787 152.412L65.6998 213.207Z" fill="white"/>
<path opacity="0.2" d="M69.2787 152.258H72.6323L72.8576 149.34H69.463L69.2787 152.258Z" fill="black"/>
<path d="M140.877 213.207H143.432L139.674 149.238H136.284L140.877 213.207Z" fill="#263238"/>
<path opacity="0.1" d="M136.284 149.34L136.509 152.412L140.877 213.207H143.432L139.858 152.412L139.674 149.34H136.284Z" fill="white"/>
<path opacity="0.2" d="M139.674 149.34H136.284L136.509 152.258H139.858L139.674 149.34Z" fill="black"/>
<path d="M141.256 150.835H67.8809C67.7357 150.835 67.5919 150.807 67.4577 150.751C67.3236 150.695 67.2016 150.614 67.0989 150.511C66.9962 150.409 66.9148 150.287 66.8592 150.153C66.8036 150.018 66.775 149.875 66.775 149.729V147.63H142.362V149.729C142.362 149.875 142.333 150.018 142.277 150.153C142.222 150.287 142.14 150.409 142.038 150.511C141.935 150.614 141.813 150.695 141.679 150.751C141.545 150.807 141.401 150.835 141.256 150.835Z" fill="#299656"/>
<path opacity="0.4" d="M141.256 150.835H67.8809C67.7357 150.835 67.5919 150.807 67.4577 150.751C67.3236 150.695 67.2016 150.614 67.0989 150.511C66.9962 150.409 66.9148 150.287 66.8592 150.153C66.8036 150.018 66.775 149.875 66.775 149.729V147.63H142.362V149.729C142.362 149.875 142.333 150.018 142.277 150.153C142.222 150.287 142.14 150.409 142.038 150.511C141.935 150.614 141.813 150.695 141.679 150.751C141.545 150.807 141.401 150.835 141.256 150.835Z" fill="white"/>
<path opacity="0.2" d="M66.7699 149.233H142.362V147.63H66.7699V149.233Z" fill="black"/>
<path d="M65.1878 148.05H143.949C144.188 148.05 144.417 147.955 144.586 147.786C144.755 147.617 144.85 147.388 144.85 147.149C144.85 146.91 144.755 146.68 144.586 146.511C144.417 146.342 144.188 146.248 143.949 146.248H65.1878C64.9488 146.248 64.7196 146.342 64.5506 146.511C64.3817 146.68 64.2867 146.91 64.2867 147.149C64.2867 147.388 64.3817 147.617 64.5506 147.786C64.7196 147.955 64.9488 148.05 65.1878 148.05Z" fill="#299656"/>
<path opacity="0.4" d="M65.1878 148.05H143.949C144.188 148.05 144.417 147.955 144.586 147.786C144.755 147.617 144.85 147.388 144.85 147.149C144.85 146.91 144.755 146.68 144.586 146.511C144.417 146.342 144.188 146.248 143.949 146.248H65.1878C64.9488 146.248 64.7196 146.342 64.5506 146.511C64.3817 146.68 64.2867 146.91 64.2867 147.149C64.2867 147.388 64.3817 147.617 64.5506 147.786C64.7196 147.955 64.9488 148.05 65.1878 148.05Z" fill="white"/>
<path opacity="0.3" d="M97.5053 130.181C97.3929 130.18 97.282 130.154 97.1806 130.106C97.0792 130.057 96.9897 129.987 96.9184 129.9C96.8472 129.813 96.7958 129.712 96.768 129.603C96.7403 129.494 96.7368 129.38 96.7578 129.27L97.0752 127.636C97.1199 127.414 97.2401 127.213 97.4154 127.068C97.5907 126.924 97.8105 126.844 98.0378 126.843H111.35C111.463 126.843 111.574 126.868 111.676 126.916C111.778 126.965 111.868 127.036 111.939 127.124C112.011 127.21 112.063 127.312 112.091 127.421C112.119 127.53 112.121 127.644 112.097 127.754L111.78 129.387C111.737 129.61 111.618 129.811 111.444 129.956C111.269 130.101 111.049 130.18 110.822 130.181H97.5053Z" fill="white"/>
<path d="M110.822 129.925H97.5104C97.4346 129.926 97.3596 129.911 97.2906 129.879C97.2216 129.848 97.1604 129.802 97.1114 129.744C97.0624 129.686 97.0269 129.618 97.0074 129.545C96.9878 129.472 96.9847 129.395 96.9984 129.321L97.321 127.682C97.352 127.518 97.4397 127.369 97.5688 127.263C97.6978 127.156 97.8601 127.098 98.0275 127.099H111.34C111.415 127.097 111.49 127.113 111.559 127.144C111.628 127.176 111.69 127.222 111.738 127.28C111.787 127.337 111.823 127.405 111.843 127.479C111.862 127.552 111.865 127.628 111.852 127.703L111.534 129.341C111.502 129.506 111.413 129.655 111.283 129.761C111.153 129.868 110.99 129.926 110.822 129.925Z" fill="white"/>
<path d="M99.7619 128.893C100.023 128.52 99.9939 128.049 99.6973 127.842C99.4007 127.634 98.9487 127.768 98.6878 128.141C98.4269 128.514 98.4558 128.985 98.7524 129.193C99.049 129.4 99.5009 129.266 99.7619 128.893Z" fill="#263238"/>
<path d="M102.006 128.512C101.969 128.716 101.866 128.903 101.712 129.043C101.559 129.183 101.363 129.268 101.156 129.285C101.064 129.282 100.974 129.258 100.893 129.215C100.812 129.171 100.743 129.11 100.69 129.035C100.636 128.96 100.601 128.874 100.587 128.783C100.573 128.692 100.58 128.599 100.608 128.512C100.645 128.308 100.749 128.121 100.902 127.982C101.056 127.842 101.251 127.757 101.458 127.739C101.55 127.741 101.641 127.764 101.722 127.807C101.803 127.85 101.874 127.912 101.927 127.987C101.98 128.062 102.015 128.149 102.029 128.24C102.043 128.331 102.035 128.424 102.006 128.512Z" fill="#263238"/>
<path d="M104.09 128.512C104.052 128.716 103.949 128.902 103.795 129.042C103.642 129.182 103.446 129.267 103.24 129.285C103.147 129.283 103.057 129.259 102.975 129.216C102.894 129.173 102.823 129.112 102.77 129.037C102.716 128.962 102.681 128.875 102.666 128.784C102.652 128.693 102.659 128.6 102.687 128.512C102.725 128.307 102.83 128.121 102.984 127.981C103.138 127.842 103.334 127.756 103.542 127.739C103.634 127.742 103.723 127.766 103.804 127.809C103.885 127.853 103.955 127.914 104.008 127.989C104.061 128.064 104.096 128.15 104.11 128.241C104.124 128.332 104.117 128.424 104.09 128.512Z" fill="#263238"/>
<path d="M106.009 128.889C106.27 128.516 106.241 128.045 105.945 127.838C105.648 127.63 105.196 127.765 104.935 128.138C104.674 128.511 104.703 128.981 105 129.189C105.297 129.396 105.749 129.262 106.009 128.889Z" fill="#263238"/>
<path d="M108.252 128.512C108.214 128.716 108.109 128.903 107.955 129.043C107.8 129.182 107.605 129.267 107.397 129.285C107.305 129.282 107.215 129.258 107.135 129.215C107.054 129.171 106.984 129.11 106.931 129.035C106.878 128.96 106.843 128.874 106.829 128.783C106.814 128.692 106.822 128.599 106.849 128.512C106.887 128.308 106.991 128.122 107.145 127.983C107.298 127.843 107.493 127.758 107.699 127.739C107.791 127.741 107.882 127.764 107.963 127.807C108.045 127.851 108.115 127.912 108.169 127.987C108.223 128.062 108.258 128.149 108.273 128.24C108.287 128.331 108.28 128.424 108.252 128.512Z" fill="#263238"/>
<path d="M110.169 128.897C110.43 128.524 110.401 128.054 110.104 127.846C109.808 127.639 109.356 127.773 109.095 128.146C108.834 128.519 108.863 128.99 109.159 129.197C109.456 129.405 109.908 129.27 110.169 128.897Z" fill="#263238"/>
<path opacity="0.3" d="M112.681 130.181C112.595 130.182 112.51 130.164 112.432 130.127C112.354 130.091 112.285 130.038 112.23 129.971C112.172 129.901 112.131 129.818 112.111 129.729C112.09 129.64 112.091 129.548 112.113 129.459L112.517 127.411C112.553 127.243 112.644 127.092 112.776 126.983C112.908 126.873 113.073 126.811 113.244 126.807H115.292C115.378 126.806 115.463 126.824 115.541 126.861C115.619 126.897 115.688 126.95 115.743 127.017C115.801 127.087 115.842 127.17 115.862 127.259C115.883 127.348 115.882 127.44 115.86 127.529L115.456 129.577C115.42 129.745 115.329 129.895 115.197 130.005C115.065 130.115 114.9 130.177 114.729 130.181H112.681Z" fill="white"/>
<path d="M112.681 129.925H114.729C114.839 129.919 114.944 129.879 115.029 129.808C115.114 129.738 115.174 129.643 115.2 129.536L115.604 127.488C115.617 127.44 115.619 127.39 115.609 127.341C115.599 127.293 115.577 127.247 115.546 127.208C115.515 127.169 115.476 127.138 115.431 127.118C115.386 127.097 115.337 127.087 115.287 127.089H113.239C113.127 127.094 113.019 127.136 112.933 127.208C112.847 127.28 112.787 127.378 112.763 127.488L112.358 129.536C112.347 129.584 112.347 129.633 112.359 129.681C112.37 129.728 112.392 129.773 112.423 129.81C112.454 129.848 112.494 129.878 112.539 129.898C112.583 129.918 112.632 129.927 112.681 129.925Z" fill="#263238"/>
<path d="M113.72 129.408C113.705 129.409 113.689 129.406 113.675 129.4C113.661 129.393 113.648 129.384 113.638 129.372C113.62 129.343 113.614 129.307 113.62 129.273C113.627 129.239 113.646 129.208 113.674 129.188L114.488 128.512L113.946 127.836C113.926 127.807 113.919 127.771 113.925 127.737C113.932 127.702 113.952 127.672 113.981 127.652C114.006 127.63 114.038 127.617 114.071 127.617C114.104 127.617 114.136 127.63 114.161 127.652L114.775 128.42C114.795 128.449 114.802 128.485 114.795 128.519C114.788 128.554 114.768 128.584 114.739 128.604L113.823 129.372C113.794 129.396 113.758 129.408 113.72 129.408Z" fill="#299656"/>
<path d="M114.642 128.64H113.26C113.244 128.64 113.228 128.637 113.213 128.63C113.199 128.624 113.186 128.614 113.176 128.601C113.166 128.589 113.159 128.574 113.156 128.559C113.153 128.543 113.153 128.527 113.157 128.512C113.165 128.477 113.184 128.445 113.212 128.422C113.24 128.399 113.275 128.385 113.311 128.384H114.688C114.704 128.383 114.72 128.387 114.734 128.393C114.749 128.4 114.761 128.41 114.771 128.422C114.781 128.435 114.788 128.449 114.791 128.465C114.795 128.48 114.794 128.496 114.79 128.512C114.783 128.546 114.764 128.577 114.737 128.6C114.711 128.624 114.677 128.637 114.642 128.64Z" fill="#299656"/>
<path d="M69.7702 97.3823H80.809C81.974 97.3823 82.9184 96.4379 82.9184 95.2729V84.2342C82.9184 83.0691 81.974 82.1247 80.809 82.1247H69.7702C68.6052 82.1247 67.6608 83.0691 67.6608 84.2342V95.2729C67.6608 96.4379 68.6052 97.3823 69.7702 97.3823Z" fill="#299656"/>
<path d="M74.0966 96.8088L75.2896 101.939L76.4826 96.8088H74.0966Z" fill="#299656"/>
<path opacity="0.3" d="M75.1565 94.3257C73.858 93.5517 72.7739 92.465 72.0031 91.1647C71.2322 89.8644 70.799 88.3918 70.743 86.8812V86.7173L75.2845 84.782L79.8208 86.7173V86.8812C79.7681 88.3919 79.3369 89.8653 78.5667 91.166C77.7964 92.4667 76.7118 93.5532 75.4125 94.3257L75.2793 94.4076L75.1565 94.3257Z" fill="white"/>
<path opacity="0.6" d="M75.2896 85.0637L79.575 86.8864C79.5282 88.3544 79.1107 89.7866 78.3614 91.0498C77.6121 92.3129 76.5554 93.3659 75.2896 94.1108V85.0637Z" fill="white"/>
<path opacity="0.4" d="M75.2896 85.0637L70.999 86.8864C71.0464 88.3549 71.4646 89.7874 72.2149 91.0506C72.9651 92.3138 74.0228 93.3666 75.2896 94.1108V85.0637Z" fill="white"/>
<path d="M71.168 142.904L74.752 143.442C75.5658 143.183 76.4024 143.003 77.2506 142.904C78.1706 142.828 79.0953 142.828 80.0154 142.904C80.0154 142.904 81.6384 143.513 81.6384 145.065C81.6384 145.065 77.8547 146.089 76.4058 145.469L71.168 145.065V142.904Z" fill="#BF7C79"/>
<path opacity="0.2" d="M71.168 142.904L74.752 143.442C75.5658 143.183 76.4024 143.003 77.2506 142.904C78.1706 142.828 79.0953 142.828 80.0154 142.904C80.0154 142.904 81.6384 143.513 81.6384 145.065C81.6384 145.065 77.8547 146.089 76.4058 145.469L71.168 145.065V142.904Z" fill="black"/>
<path d="M80.0461 118.702C80.1018 119.438 80.2462 120.166 80.4762 120.868C80.2883 120.983 80.0721 121.044 79.8515 121.044C79.631 121.044 79.4148 120.983 79.2269 120.868L80.0461 118.702Z" fill="#AA473D"/>
<path d="M81.4438 117.678C81.3056 118.011 81.0598 118.226 80.8909 118.154C80.7219 118.083 80.7066 117.765 80.8397 117.432C80.9728 117.1 81.2237 116.89 81.3926 116.956C81.5616 117.023 81.577 117.35 81.4438 117.678Z" fill="#263238"/>
<path d="M82.2835 116.531C82.2535 116.54 82.2214 116.54 82.1914 116.531C81.9192 116.371 81.6146 116.274 81.3 116.248C80.9854 116.221 80.6689 116.266 80.3738 116.378C80.3296 116.4 80.2784 116.404 80.2313 116.389C80.1843 116.373 80.1453 116.34 80.1229 116.296C80.1005 116.252 80.0965 116.2 80.1119 116.153C80.1272 116.106 80.1607 116.067 80.2048 116.045C80.5557 115.902 80.935 115.843 81.3128 115.872C81.6905 115.901 82.0562 116.018 82.3808 116.214C82.4018 116.226 82.4201 116.243 82.4346 116.263C82.4491 116.283 82.4596 116.305 82.4653 116.329C82.471 116.353 82.4719 116.377 82.468 116.402C82.464 116.426 82.4553 116.449 82.4422 116.47C82.4233 116.493 82.3987 116.51 82.3709 116.521C82.3431 116.532 82.313 116.535 82.2835 116.531Z" fill="#263238"/>
<path d="M79.0477 121.487C78.9299 121.631 78.8122 121.769 78.6842 121.897C77.9672 122.642 77.0403 123.151 76.0269 123.356C75.7702 123.408 75.5101 123.442 75.2487 123.459C74.5601 123.502 73.8706 123.391 73.2302 123.134C72.5899 122.877 72.0149 122.481 71.5469 121.974C71.1246 121.515 70.8005 120.975 70.5946 120.387C69.6781 117.929 70.5946 115.994 71.9207 112.589C72.2155 111.791 72.7092 111.081 73.3551 110.527C74.001 109.973 74.7776 109.593 75.6114 109.424C76.4452 109.254 77.3084 109.3 78.1195 109.557C78.9305 109.815 79.6624 110.275 80.2458 110.894C82.8979 113.69 81.1162 118.825 79.0477 121.487Z" fill="#BF7C79"/>
<path opacity="0.2" d="M76.0269 123.356C75.7701 123.408 75.5101 123.442 75.2486 123.458C74.5601 123.502 73.8706 123.391 73.2302 123.134C72.5899 122.877 72.0149 122.481 71.5469 121.974C71.8758 121.643 72.2458 121.356 72.6477 121.119C73.9659 121.524 75.1392 122.301 76.0269 123.356Z" fill="black"/>
<path d="M64.9882 123.484C65.3261 125.88 70.569 126.776 70.569 126.776C70.569 126.776 73.129 127.954 73.2621 126.93C72.192 125.691 72.0742 124.611 72.4429 123.663C72.6874 123.086 73.0462 122.563 73.4976 122.127C73.7382 121.877 73.9929 121.642 74.2605 121.421L72.6579 114.857C71.5059 117.366 67.584 123.126 64.9882 123.484Z" fill="#BF7C79"/>
<path d="M79.9488 109.056C79.9488 109.056 81.0701 108.918 81.9302 111.007C82.6522 112.763 80.9472 113.147 81.024 115.016C81.1008 116.884 79.3856 117.924 79.3856 117.924C79.3856 117.924 77.952 119.163 76.7283 118.492C76.7283 118.492 75.1309 119.275 74.711 120.642C74.2912 122.01 71.8182 119.542 69.591 119.915C69.591 119.915 68.0858 118.507 68.1984 115.087C68.2836 113.602 68.6483 112.146 69.2736 110.797C69.5689 110.082 70.0034 109.433 70.5519 108.888C71.1004 108.343 71.752 107.913 72.4685 107.622C75.0131 106.465 79.4726 107.325 79.9488 109.056Z" fill="#263238"/>
<path d="M76.4211 117.463C76.3437 117.804 76.3431 118.157 76.4193 118.498C76.4954 118.839 76.6465 119.159 76.8614 119.434C77.4042 120.028 78.2797 119.276 78.633 118.236C78.9402 117.309 79.0477 115.861 78.249 115.676C77.4503 115.492 76.5901 116.465 76.4211 117.463Z" fill="#BF7C79"/>
<path d="M76.9843 125.466C76.2505 127.514 75.5951 129.476 75.0182 131.354C74.6496 132.521 74.3117 133.663 73.9942 134.763C73.7348 135.688 73.4925 136.586 73.2672 137.457C73.1597 137.876 73.0522 138.291 72.9498 138.701C72.3866 140.959 71.9258 143.017 71.5725 144.845C70.9758 147.698 70.5331 150.581 70.2464 153.482L50.176 150.953C50.8723 147.502 51.415 144.486 52.1728 141.225C52.5926 139.443 53.0688 137.59 53.7088 135.557C54.1389 134.098 54.6406 132.547 55.2448 130.862C57.2621 125.076 59.1206 123.474 59.1206 123.474C66.7955 122.245 76.9843 125.466 76.9843 125.466Z" fill="#263238"/>
<path d="M83.6659 143.278L87.2499 143.816C88.0637 143.557 88.9004 143.377 89.7485 143.278C90.6702 143.202 91.5966 143.202 92.5184 143.278C92.5184 143.278 94.1363 143.887 94.1363 145.439C94.1363 145.439 90.3578 146.463 88.9037 145.843L83.671 145.439L83.6659 143.278Z" fill="#BF7C79"/>
<path d="M61.481 209.464L65.2237 209.531L67.0874 200.904L63.3498 200.837L61.481 209.464Z" fill="#EBB376"/>
<path opacity="0.2" d="M63.3498 200.837L67.0874 200.909L66.0224 205.839L62.3206 205.594L63.3498 200.837Z" fill="black"/>
<path d="M73.5078 188.339C72.0817 193.83 70.2593 199.21 68.055 204.436L61.2301 203.924C61.2301 203.924 64.0307 192.983 65.0445 182.958C65.6742 176.773 65.6179 171.653 63.8054 171.259C62.6688 171.008 60.0013 171.013 56.5811 171.095V158.346C66.1709 160.317 75.7146 164.029 76.4416 167.009C77.4554 171.203 75.6838 180.081 73.5078 188.339Z" fill="#299656"/>
<path d="M60.503 204.232L68.6336 204.774L69.8317 201.257L60.8717 200.842L60.503 204.232Z" fill="#299656"/>
<path opacity="0.2" d="M60.503 204.232L68.6336 204.774L69.8317 201.257L60.8717 200.842L60.503 204.232Z" fill="white"/>
<path d="M65.7869 209.347H65.8637C65.8637 209.347 65.9507 209.372 65.961 209.382H65.9917C66.3079 209.483 66.6341 209.548 66.9645 209.577C67.2106 209.623 67.465 209.573 67.6762 209.439C67.7431 209.38 67.7918 209.304 67.8164 209.219C67.8409 209.133 67.8402 209.042 67.8144 208.957C67.8062 208.902 67.7847 208.849 67.7517 208.804C67.7188 208.758 67.6753 208.721 67.625 208.696C67.2714 208.64 66.9092 208.709 66.601 208.891C66.8212 208.659 66.9519 208.356 66.9696 208.036C66.9545 207.96 66.9155 207.892 66.8583 207.84C66.8012 207.788 66.7289 207.756 66.6522 207.749C66.5066 207.728 66.3583 207.762 66.2374 207.846C65.8432 208.184 65.7818 209.244 65.7818 209.306L65.7869 209.347ZM66.1914 209.132L66.1146 209.172C66.0903 208.768 66.2001 208.367 66.4269 208.031C66.4515 208.006 66.4812 207.987 66.5139 207.974C66.5465 207.962 66.5815 207.957 66.6163 207.959H66.6624C66.7853 207.959 66.8109 208.041 66.816 208.092C66.7369 208.501 66.5157 208.87 66.1914 209.132ZM66.2426 209.316C66.6931 209.065 67.3331 208.804 67.5738 208.901C67.5977 208.914 67.6182 208.932 67.6333 208.954C67.6485 208.977 67.658 209.002 67.6608 209.029C67.6759 209.083 67.6763 209.14 67.6618 209.194C67.6474 209.248 67.6188 209.297 67.5789 209.336C67.3946 209.5 66.903 209.49 66.2426 209.316Z" fill="#299656"/>
<path d="M65.6998 208.896L61.5066 208.635C61.4367 208.628 61.3668 208.648 61.3121 208.692C61.2575 208.736 61.2225 208.8 61.2147 208.87L60.8051 212.173C60.7938 212.346 60.8515 212.517 60.9656 212.649C61.0796 212.78 61.2409 212.861 61.4144 212.874C62.8787 212.941 63.5802 212.9 65.4234 213.002C67.0594 213.17 68.7054 213.222 70.3488 213.156C71.8848 213.007 71.7158 211.466 71.0451 211.394C69.4426 211.21 67.328 210.038 66.3245 209.147C66.1505 208.995 65.9304 208.907 65.6998 208.896Z" fill="#263238"/>
<path opacity="0.2" d="M73.5078 188.339C70.9478 186.726 67.9731 184.827 65.0445 182.948C65.6742 176.763 65.6179 171.643 63.8054 171.249C62.6688 170.998 60.0013 171.003 56.5811 171.085V158.346C66.1709 160.317 75.7146 164.029 76.4416 167.009C77.4554 171.203 75.6838 180.081 73.5078 188.339Z" fill="black"/>
<path d="M83.3587 209.464L87.1014 209.531L88.9651 200.904L85.2275 200.837L83.3587 209.464Z" fill="#EBB376"/>
<path opacity="0.2" d="M85.2275 200.837L88.9651 200.909L87.9002 205.839L84.1984 205.594L85.2275 200.837Z" fill="black"/>
<path d="M69.7702 157.097L70.3744 152.264L50.8314 149.043C50.8314 149.043 44.4365 161.71 47.5648 167.936C50.4371 173.629 80.983 170.235 85.6832 171.264C90.3834 172.293 83.1232 203.935 83.1232 203.935L89.9533 204.447C89.9533 204.447 100.5 175.98 98.3347 167.025C97.3722 163.108 81.2698 157.932 69.7702 157.097Z" fill="#299656"/>
<path d="M82.3808 204.232L90.5114 204.774L91.7094 201.257L82.7494 200.842L82.3808 204.232Z" fill="#299656"/>
<path opacity="0.2" d="M82.3808 204.232L90.5114 204.774L91.7094 201.257L82.7494 200.842L82.3808 204.232Z" fill="white"/>
<path d="M87.6646 209.347H87.7414C87.7414 209.347 87.8285 209.372 87.8387 209.382H87.8694C88.1857 209.483 88.5119 209.548 88.8422 209.577C89.0884 209.623 89.3428 209.573 89.5539 209.439C89.6209 209.38 89.6696 209.304 89.6941 209.219C89.7187 209.133 89.718 209.042 89.6922 208.957C89.684 208.902 89.6625 208.849 89.6295 208.804C89.5965 208.758 89.553 208.721 89.5027 208.696C89.1491 208.64 88.7869 208.709 88.4787 208.891C88.699 208.659 88.8296 208.356 88.8474 208.036C88.8323 207.96 88.7933 207.892 88.7361 207.84C88.6789 207.788 88.6066 207.756 88.5299 207.749C88.3843 207.728 88.236 207.762 88.1152 207.846C87.721 208.184 87.6595 209.244 87.6595 209.306L87.6646 209.347ZM88.0691 209.132L87.9923 209.172C87.9681 208.768 88.0778 208.367 88.3046 208.031C88.3293 208.006 88.359 207.987 88.3916 207.974C88.4243 207.962 88.4592 207.957 88.4941 207.959H88.5402C88.663 207.959 88.6886 208.041 88.6938 208.092C88.6155 208.503 88.392 208.872 88.064 209.132H88.0691ZM88.1203 209.316C88.5709 209.065 89.2109 208.804 89.4515 208.901C89.4755 208.914 89.4959 208.932 89.5111 208.954C89.5263 208.977 89.5357 209.002 89.5386 209.029C89.5537 209.083 89.554 209.14 89.5396 209.194C89.5252 209.248 89.4966 209.297 89.4566 209.336C89.2723 209.5 88.7808 209.49 88.1203 209.316Z" fill="#299656"/>
<path d="M87.5776 208.896L83.3843 208.635C83.3144 208.628 83.2446 208.648 83.1899 208.692C83.1352 208.736 83.1002 208.8 83.0925 208.87L82.6829 212.173C82.6716 212.346 82.7293 212.517 82.8433 212.649C82.9574 212.78 83.1187 212.861 83.2922 212.874C84.7565 212.941 85.4579 212.9 87.3011 213.002C88.9372 213.17 90.5832 213.222 92.2266 213.156C93.7882 213.007 93.5987 211.466 92.9229 211.394C91.3203 211.21 89.2058 210.038 88.2022 209.147C88.0282 208.995 87.8081 208.907 87.5776 208.896Z" fill="#263238"/>
<path d="M50.1146 151.245L59.1667 152.433L59.4637 151.096L50.391 149.775L50.1146 151.245Z" fill="black"/>
<path d="M60.2163 151.106L60.1037 152.433L68.4749 153.585V152.269L60.2163 151.106Z" fill="black"/>
<path d="M68.992 152.345V153.585L70.2106 153.743V152.545L68.992 152.345Z" fill="black"/>
<path opacity="0.2" d="M75.0183 131.354C74.6496 132.521 74.3117 133.663 73.9943 134.763C73.7348 135.688 73.4925 136.586 73.2672 137.457C72.6375 134.026 73.7792 129.93 73.7792 129.93L75.0183 131.354Z" fill="black"/>
<path d="M76.9843 125.44C78.6176 125.773 79.1552 138.465 79.2269 139.817C79.2986 141.169 87.2448 143.795 87.2448 143.795V145.643C87.2448 145.643 78.7251 145.05 76.7334 144.235C74.7418 143.421 74.24 131.666 74.24 131.666L76.9843 125.44Z" fill="#BF7C79"/>
<path d="M76.9843 125.44C78.4845 125.906 79.2269 134.277 79.2269 134.277L74.5882 136.192L73.4362 131.538C73.4362 131.538 73.1085 130.591 73.7536 128.594C74.6906 125.681 76.9843 125.44 76.9843 125.44Z" fill="#263238"/>
<path d="M42.3834 167.178H79.36C80.4341 167.178 81.4642 167.605 82.2237 168.364C82.9832 169.124 83.4099 170.154 83.4099 171.228V173.394H38.3334V171.228C38.3334 170.154 38.7601 169.124 39.5196 168.364C40.2791 167.605 41.3092 167.178 42.3834 167.178Z" fill="#299656"/>
<path d="M54.4102 151.782H79.2371C79.5363 151.782 79.8317 151.85 80.1012 151.98C80.3707 152.11 80.6073 152.299 80.7934 152.533C80.9795 152.768 81.1102 153.041 81.1759 153.333C81.2415 153.625 81.2403 153.928 81.1725 154.219L76.7334 173.394H75.7094L79.488 156.59C79.5542 156.299 79.5541 155.998 79.4876 155.707C79.4211 155.417 79.29 155.145 79.104 154.913C78.918 154.68 78.6819 154.492 78.4133 154.363C78.1447 154.234 77.8505 154.168 77.5526 154.168H54.9171L54.4102 151.782Z" fill="#263238"/>
<path d="M63.8106 174.08V190.285C63.8106 190.534 63.7113 190.774 63.5346 190.951C63.358 191.127 63.1183 191.227 62.8685 191.227H58.88C58.6302 191.227 58.3905 191.127 58.2139 190.951C58.0372 190.774 57.9379 190.534 57.9379 190.285V174.08H63.8106Z" fill="#263238"/>
<path d="M41.8765 211.487C41.8765 211.146 41.7756 210.814 41.5866 210.531C41.3975 210.248 41.1288 210.028 40.8145 209.897C40.5001 209.767 40.1543 209.733 39.8205 209.799C39.4868 209.866 39.1803 210.03 38.9397 210.27C38.6991 210.511 38.5353 210.817 38.4689 211.151C38.4025 211.485 38.4366 211.831 38.5668 212.145C38.697 212.459 38.9175 212.728 39.2004 212.917C39.4833 213.106 39.8159 213.207 40.1562 213.207C40.6124 213.207 41.05 213.026 41.3726 212.703C41.6952 212.381 41.8765 211.943 41.8765 211.487Z" fill="#263238"/>
<path opacity="0.2" d="M41.0163 211.487C41.0163 211.316 40.9659 211.15 40.8713 211.009C40.7768 210.867 40.6425 210.757 40.4853 210.692C40.3281 210.627 40.1552 210.61 39.9883 210.643C39.8215 210.676 39.6682 210.758 39.5479 210.878C39.4276 210.999 39.3457 211.152 39.3125 211.319C39.2793 211.486 39.2964 211.659 39.3615 211.816C39.4266 211.973 39.5368 212.107 39.6783 212.202C39.8197 212.296 39.986 212.347 40.1562 212.347C40.3839 212.345 40.6019 212.254 40.7629 212.093C40.9239 211.932 41.015 211.714 41.0163 211.487Z" fill="white"/>
<path d="M83.3229 211.487C83.3239 211.145 83.2234 210.811 83.0342 210.526C82.845 210.242 82.5756 210.02 82.2601 209.888C81.9446 209.757 81.5973 209.723 81.2621 209.789C80.9269 209.855 80.619 210.02 80.3774 210.261C80.1358 210.503 79.9713 210.811 79.9049 211.146C79.8385 211.481 79.8731 211.829 80.0043 212.144C80.1356 212.46 80.3575 212.729 80.642 212.918C80.9266 213.108 81.2609 213.208 81.6026 213.207C82.0584 213.206 82.4952 213.024 82.8175 212.702C83.1398 212.379 83.3215 211.942 83.3229 211.487Z" fill="#263238"/>
<path opacity="0.2" d="M82.4627 211.487C82.4627 211.316 82.4123 211.15 82.3178 211.009C82.2232 210.867 82.0889 210.757 81.9317 210.692C81.7746 210.627 81.6016 210.61 81.4348 210.643C81.2679 210.676 81.1146 210.758 80.9943 210.878C80.874 210.999 80.7921 211.152 80.7589 211.319C80.7257 211.486 80.7428 211.659 80.8079 211.816C80.873 211.973 80.9832 212.107 81.1247 212.202C81.2661 212.296 81.4324 212.347 81.6026 212.347C81.8303 212.345 82.0483 212.254 82.2093 212.093C82.3703 211.932 82.4614 211.714 82.4627 211.487Z" fill="white"/>
<path d="M62.3002 203.929V185.405H59.4534V203.929C48.3635 204.216 41.6205 208.092 40.2739 208.942C40.1944 208.989 40.1291 209.057 40.085 209.138C40.0408 209.219 40.0194 209.31 40.023 209.403V210.939C40.0224 211.01 40.0359 211.082 40.0629 211.148C40.0898 211.214 40.1297 211.275 40.1802 211.326C40.2306 211.377 40.2907 211.417 40.3569 211.445C40.4231 211.472 40.4941 211.487 40.5658 211.487C40.6616 211.486 40.7555 211.46 40.8382 211.411C40.9208 211.363 40.9893 211.293 41.0368 211.21L41.6973 210.053C47.443 208.221 53.4238 207.231 59.4534 207.114V210.186C59.4534 210.279 59.4718 210.37 59.5073 210.456C59.5429 210.541 59.595 210.619 59.6607 210.684C59.7264 210.749 59.8043 210.801 59.89 210.836C59.9757 210.871 60.0675 210.888 60.16 210.888H61.5987C61.7848 210.888 61.9632 210.814 62.0947 210.682C62.2263 210.551 62.3002 210.372 62.3002 210.186V207.114C68.3315 207.23 74.3141 208.22 80.0614 210.053L80.7168 211.21C80.7647 211.294 80.834 211.364 80.9176 211.412C81.0013 211.461 81.0963 211.487 81.193 211.487C81.3374 211.485 81.4754 211.427 81.577 211.324C81.6787 211.222 81.7357 211.083 81.7357 210.939V209.403C81.7393 209.31 81.7179 209.219 81.6738 209.138C81.6296 209.057 81.5643 208.989 81.4848 208.942C80.1331 208.092 73.3952 204.216 62.3002 203.929Z" fill="#263238"/>
<path d="M61.8138 209.761H59.945V213.207H61.8138V209.761Z" fill="#263238"/>
<path opacity="0.2" d="M63.8106 174.065H57.9533V180.797H63.8106V174.065Z" fill="black"/>
<path d="M84.6592 172.395V174.331C84.6592 174.461 84.6335 174.59 84.5835 174.71C84.5335 174.83 84.4603 174.939 84.368 175.031C84.2757 175.123 84.1661 175.196 84.0456 175.245C83.9252 175.295 83.7961 175.32 83.6659 175.319H38.0979C37.968 175.32 37.8392 175.294 37.719 175.245C37.5988 175.196 37.4896 175.123 37.3977 175.031C37.3058 174.939 37.233 174.83 37.1836 174.71C37.1342 174.589 37.1091 174.461 37.1098 174.331V172.395C37.1098 172.133 37.2139 171.882 37.3992 171.697C37.5845 171.511 37.8358 171.407 38.0979 171.407H83.6659C83.9285 171.407 84.1803 171.511 84.3665 171.696C84.5526 171.882 84.6578 172.133 84.6592 172.395Z" fill="#263238"/>
<path d="M63.6928 173.394H37.1046C37.1046 173.394 28.672 159.345 28.672 136.13V127.606C28.6734 125.923 29.3428 124.309 30.5333 123.12C31.7238 121.93 33.3379 121.262 35.0208 121.262H46.2848C47.9332 121.261 49.5172 121.902 50.7013 123.049C51.8854 124.196 52.5766 125.758 52.6285 127.406C52.951 139.387 54.7123 165.289 63.6928 173.394Z" fill="#263238"/>
<path opacity="0.2" d="M57.856 173.394H38.3027C37.933 173.395 37.5701 173.295 37.2538 173.103C36.9376 172.912 36.6805 172.637 36.5107 172.308C34.5856 168.601 28.672 155.581 28.672 136.13V127.606C28.672 125.923 29.3403 124.31 30.53 123.12C31.7197 121.93 33.3332 121.262 35.0157 121.262H44.7437C46.3921 121.261 47.9761 121.902 49.1602 123.049C50.3443 124.196 51.0355 125.758 51.0874 127.406C51.3792 138.091 52.8128 159.908 59.52 170.214C59.7227 170.52 59.8396 170.874 59.8585 171.24C59.8775 171.606 59.7978 171.971 59.6278 172.296C59.4578 172.621 59.2037 172.894 58.892 173.087C58.5804 173.28 58.2226 173.386 57.856 173.394Z" fill="white"/>
<path opacity="0.2" d="M84.6592 172.395V174.331C84.6592 174.593 84.5551 174.844 84.3698 175.029C84.1845 175.215 83.9331 175.319 83.671 175.319H63.2474C63.0721 175.32 62.8985 175.286 62.7364 175.219C62.5743 175.152 62.4269 175.055 62.3027 174.931C62.1786 174.807 62.0801 174.66 62.0129 174.498C61.9456 174.336 61.911 174.163 61.911 173.988V172.744C61.911 172.389 62.0518 172.049 62.3024 171.799C62.553 171.548 62.8929 171.407 63.2474 171.407H83.6659C83.9285 171.407 84.1803 171.511 84.3665 171.696C84.5526 171.882 84.6579 172.133 84.6592 172.395Z" fill="black"/>
<path d="M37.0944 120.509L38.784 118.298C38.784 118.298 45.9981 118.625 46.1722 121.262C46.3462 123.899 37.0944 120.509 37.0944 120.509Z" fill="#299656"/>
<path d="M32.3533 127.13C32.3533 127.13 32.7936 138.854 32.3533 169.114C32.3533 170.138 28.5338 170.097 28.2573 169.114C27.3408 165.668 28.2573 138.153 28.2573 138.153" fill="#299656"/>
<path d="M28.3443 169.267L32.2304 169.4V171.341L28.3443 171.141V169.267Z" fill="#299656"/>
<path opacity="0.2" d="M32.3533 127.13C32.3533 127.13 32.7936 138.854 32.3533 169.114C32.3533 170.138 28.5338 170.097 28.2573 169.114C27.3408 165.668 28.2573 138.153 28.2573 138.153" fill="white"/>
<path d="M26.4243 162.929C26.2144 157.348 25.4515 131.697 28.6566 123.197C28.6566 123.197 31.6723 119.368 41.8765 119.368C52.0806 119.368 55.1526 126.612 55.1526 126.612C55.1526 126.612 55.593 138.332 55.1526 168.596C55.1526 169.62 51.3331 169.585 51.0566 168.596C50.1402 165.156 51.0566 137.636 51.0566 137.636L49.0086 162.673C49.0012 162.757 48.9766 162.838 48.9366 162.912C48.8965 162.986 48.8417 163.052 48.7756 163.104C48.7094 163.156 48.6333 163.194 48.5519 163.216C48.4705 163.238 48.3855 163.243 48.3021 163.231C45.0816 162.719 30.8941 160.727 27.1411 163.287C27.0731 163.331 26.9949 163.356 26.9142 163.36C26.8335 163.365 26.753 163.348 26.6807 163.312C26.6084 163.276 26.5467 163.221 26.5018 163.154C26.4568 163.087 26.4301 163.009 26.4243 162.929Z" fill="#299656"/>
<path d="M51.1437 168.75L55.0298 168.883V170.824L51.1437 170.624V168.75Z" fill="#299656"/>
<path d="M48.512 163.256L48.2048 165.304C48.2048 165.304 32.3686 161.853 27.2384 165.529L26.9312 163.261C26.9312 163.261 30.8941 159.606 48.512 163.256Z" fill="#299656"/>
<path opacity="0.4" d="M26.4243 162.929C26.2144 157.348 25.4515 131.697 28.6566 123.197C28.6566 123.197 31.6723 119.368 41.8765 119.368C52.0806 119.368 55.1526 126.612 55.1526 126.612C55.1526 126.612 55.593 138.332 55.1526 168.596C55.1526 169.62 51.3331 169.585 51.0566 168.596C50.1402 165.156 51.0566 137.636 51.0566 137.636L49.0086 162.673C49.0012 162.757 48.9766 162.838 48.9366 162.912C48.8965 162.986 48.8417 163.052 48.7756 163.104C48.7094 163.156 48.6333 163.194 48.5519 163.216C48.4705 163.238 48.3855 163.243 48.3021 163.231C45.0816 162.719 30.8941 160.727 27.1411 163.287C27.0731 163.331 26.9949 163.356 26.9142 163.36C26.8335 163.365 26.753 163.348 26.6807 163.312C26.6084 163.276 26.5467 163.221 26.5018 163.154C26.4568 163.087 26.4301 163.009 26.4243 162.929Z" fill="white"/>
<path opacity="0.2" d="M51.072 137.636C51.072 137.636 51.2973 129.689 55.168 126.612C55.1526 126.612 50.3296 128.686 51.072 137.636Z" fill="black"/>
<path opacity="0.2" d="M39.4598 120.284C39.4598 120.284 34.8006 122.844 34.0582 157.727C34.0582 157.727 32.0307 122.537 39.4598 120.284Z" fill="black"/>
</svg>
