<svg width="256" height="256" viewBox="0 0 256 256" fill="none" xmlns="http://www.w3.org/2000/svg">
<path d="M256 195.789H0V195.917H256V195.789Z" fill="#EBEBEB"/>
<path d="M227.973 201.651H201.912V201.779H227.973V201.651Z" fill="#EBEBEB"/>
<path d="M51.031 200.135H26.8595V200.263H51.031V200.135Z" fill="#EBEBEB"/>
<path d="M203.776 199.275H193.951V199.403H203.776V199.275Z" fill="#EBEBEB"/>
<path d="M169.585 202.67H162.376V202.798H169.585V202.67Z" fill="#EBEBEB"/>
<path d="M157.814 202.67H139.668V202.798H157.814V202.67Z" fill="#EBEBEB"/>
<path d="M129.132 200.509H99.9526V200.637H129.132V200.509Z" fill="#EBEBEB"/>
<path d="M121.344 172.954H22.4819C21.7075 172.952 20.9652 172.644 20.418 172.095C19.8708 171.547 19.5635 170.804 19.5635 170.03V31.0578C19.5703 30.2878 19.8806 29.5515 20.427 29.0089C20.9734 28.4663 21.7119 28.1612 22.4819 28.1599H121.344C122.119 28.1599 122.863 28.4679 123.411 29.0162C123.96 29.5645 124.268 30.3081 124.268 31.0834V170.03C124.268 170.805 123.96 171.549 123.411 172.097C122.863 172.646 122.119 172.954 121.344 172.954ZM22.4819 28.2623C21.7414 28.2637 21.0317 28.5588 20.5085 29.0829C19.9854 29.607 19.6915 30.3173 19.6915 31.0578V170.03C19.6915 170.771 19.9854 171.481 20.5085 172.005C21.0317 172.529 21.7414 172.824 22.4819 172.826H121.344C122.085 172.824 122.795 172.529 123.319 172.005C123.843 171.481 124.138 170.771 124.14 170.03V31.0578C124.138 30.3168 123.843 29.6066 123.319 29.0826C122.795 28.5586 122.085 28.2637 121.344 28.2623H22.4819Z" fill="#EBEBEB"/>
<path d="M232.095 172.954H133.228C132.453 172.952 131.71 172.644 131.162 172.096C130.614 171.548 130.305 170.805 130.304 170.03V31.0578C130.312 30.2873 130.624 29.5511 131.171 29.0086C131.718 28.4661 132.457 28.1612 133.228 28.1599H232.095C232.864 28.1626 233.601 28.4683 234.146 29.0107C234.692 29.5532 235.001 30.2887 235.008 31.0578V170.03C235.008 170.804 234.701 171.546 234.155 172.094C233.609 172.642 232.868 172.951 232.095 172.954ZM133.228 28.2623C132.487 28.2637 131.776 28.5586 131.252 29.0826C130.728 29.6066 130.433 30.3168 130.432 31.0578V170.03C130.433 170.771 130.728 171.481 131.252 172.005C131.776 172.529 132.487 172.824 133.228 172.826H232.095C232.836 172.824 233.546 172.529 234.07 172.005C234.594 171.481 234.889 170.771 234.89 170.03V31.0578C234.889 30.3168 234.594 29.6066 234.07 29.0826C233.546 28.5586 232.836 28.2637 232.095 28.2623H133.228Z" fill="#EBEBEB"/>
<path d="M168.525 151.25H183.875V106.496H168.525V151.25Z" fill="#E6E6E6"/>
<path d="M215.706 106.501H183.875V151.255H215.706V106.501Z" fill="#F5F5F5"/>
<path d="M206.49 140.18H215.706V134.098H206.49V140.18Z" fill="#F0F0F0"/>
<path d="M206.49 147.948H215.706V141.865H206.49V147.948Z" fill="#F0F0F0"/>
<path d="M167.844 106.501H183.639V104.233H167.844V106.501Z" fill="#E0E0E0"/>
<path d="M216.381 104.233H183.639V106.501H216.381V104.233Z" fill="#F0F0F0"/>
<path d="M156.959 195.789H178.304V154.409H156.959V195.789Z" fill="#E6E6E6"/>
<path d="M222.561 154.409H178.304V195.789H222.561V154.409Z" fill="#F5F5F5"/>
<path d="M181.903 172.621H197.197V159.145H181.903V172.621Z" fill="#F0F0F0"/>
<path d="M181.903 189.834H197.197V176.358H181.903V189.834Z" fill="#F0F0F0"/>
<path d="M156.012 154.404H177.971V151.25H156.012V154.404Z" fill="#E0E0E0"/>
<path d="M223.498 151.255H177.971V154.409H223.498V151.255Z" fill="#F0F0F0"/>
<path d="M133.1 40.5708H92.0474V195.789H133.1V40.5708Z" fill="#EBEBEB"/>
<path d="M130.33 192.65V43.7092H94.8224V192.65H130.33Z" fill="#FAFAFA"/>
<path d="M90.8186 40.5708H49.7664V195.789H90.8186V40.5708Z" fill="#EBEBEB"/>
<path d="M90.8134 195.179H92.0474L92.0474 41.1852H90.8134L90.8134 195.179Z" fill="#E0E0E0"/>
<path d="M88.0435 192.65L88.0435 43.7095H52.5363L52.5363 192.65H88.0435Z" fill="#FAFAFA"/>
<path d="M151.767 38.0159H31.0886C30.7493 38.0159 30.4742 38.2909 30.4742 38.6303V38.7941C30.4742 39.1334 30.7493 39.4085 31.0886 39.4085H151.767C152.106 39.4085 152.381 39.1334 152.381 38.7941V38.6303C152.381 38.2909 152.106 38.0159 151.767 38.0159Z" fill="#E0E0E0"/>
<path d="M130.324 46.6739V43.7095H94.8173V46.6739H130.324Z" fill="#E0E0E0"/>
<path d="M130.324 73.5384V43.7092H94.8173V73.5384H130.324Z" fill="#E0E0E0"/>
<path d="M88.0435 108.923V43.7092H52.5363L52.5363 108.923H88.0435Z" fill="#E0E0E0"/>
<g opacity="0.5">
<path d="M137.994 34.7595H126.259V193.879H137.994V34.7595Z" fill="#F5F5F5"/>
<path d="M134.897 34.7595H129.357V193.879H134.897V34.7595Z" fill="#F0F0F0"/>
<path d="M144.287 34.7595H132.552V193.879H144.287V34.7595Z" fill="#F5F5F5"/>
<path d="M141.189 34.7595H135.649V193.879H141.189V34.7595Z" fill="#F0F0F0"/>
<path d="M150.154 34.7595H138.419V193.879H150.154V34.7595Z" fill="#F5F5F5"/>
</g>
<g opacity="0.5">
<path d="M67.415 34.7595H32.3481V193.879H67.415V34.7595Z" fill="#F5F5F5"/>
<path d="M58.1581 34.7595H41.6051V193.879H58.1581V34.7595Z" fill="#F0F0F0"/>
<path d="M86.2259 34.7595H51.159V193.879H86.2259V34.7595Z" fill="#F5F5F5"/>
<path d="M76.969 34.7595H60.416V193.879H76.969V34.7595Z" fill="#F0F0F0"/>
<path d="M103.762 34.7595H68.695V193.879H103.762V34.7595Z" fill="#F5F5F5"/>
</g>
<path d="M172.063 86.6814H217.078V41.1953L172.063 41.1953V86.6814Z" fill="#FAFAFA"/>
<path d="M186.01 75.2639H203.121C204.585 75.2639 205.773 74.0765 205.773 72.6118V55.2652C205.773 53.8004 204.585 52.613 203.121 52.613H186.01C184.545 52.613 183.357 53.8004 183.357 55.2652V72.6118C183.357 74.0765 184.545 75.2639 186.01 75.2639Z" fill="#F0F0F0"/>
<path d="M196.234 64.2148H208.195C209.218 64.2148 210.048 63.385 210.048 62.3614V50.2372C210.048 49.2136 209.218 48.3838 208.195 48.3838H196.234C195.211 48.3838 194.381 49.2136 194.381 50.2372V62.3614C194.381 63.385 195.211 64.2148 196.234 64.2148Z" fill="white"/>
<path d="M186.307 81.2134H194.606C195.316 81.2134 195.891 80.638 195.891 79.9283V71.5161C195.891 70.8063 195.316 70.231 194.606 70.231H186.307C185.597 70.231 185.021 70.8063 185.021 71.5161V79.9283C185.021 80.638 185.597 81.2134 186.307 81.2134Z" fill="#F0F0F0"/>
<path d="M172.058 41.1953H169.544V86.6814H172.058V41.1953Z" fill="#F0F0F0"/>
<path d="M128 218.911C182.826 218.911 227.272 216.316 227.272 213.115C227.272 209.914 182.826 207.319 128 207.319C73.1738 207.319 28.7283 209.914 28.7283 213.115C28.7283 216.316 73.1738 218.911 128 218.911Z" fill="#034EA2"/>
<path d="M196.49 58.9465L195.978 58.9158C196.044 57.9281 195.906 56.9375 195.572 56.0057C195.238 55.0738 194.716 54.2209 194.037 53.5002C193.359 52.7794 192.539 52.2063 191.629 51.8167C190.719 51.4271 189.739 51.2293 188.749 51.2358H179.477V50.6879H188.739C189.802 50.6804 190.856 50.8928 191.833 51.3118C192.811 51.7309 193.691 52.3475 194.419 53.123C195.147 53.8986 195.707 54.8162 196.063 55.8184C196.42 56.8205 196.565 57.8855 196.49 58.9465Z" fill="#034EA2"/>
<path d="M195.722 62.5583L195.427 67.4236L195.953 67.4555L196.248 62.5902L195.722 62.5583Z" fill="#034EA2"/>
<path d="M180.613 184.202H118.943C118.13 184.211 117.324 184.051 116.576 183.731C115.828 183.412 115.154 182.941 114.598 182.348C114.041 181.755 113.614 181.053 113.343 180.287C113.072 179.52 112.964 178.705 113.024 177.894L120.371 58.8339C120.501 57.1372 121.26 55.5501 122.498 54.3834C123.737 53.2166 125.367 52.5543 127.068 52.5261H188.739C189.551 52.519 190.356 52.6804 191.103 53.0001C191.85 53.3198 192.523 53.7909 193.078 54.3836C193.634 54.9763 194.061 55.6778 194.332 56.4438C194.602 57.2098 194.712 58.0236 194.652 58.8339L187.305 177.894C187.179 179.592 186.422 181.18 185.183 182.347C183.945 183.515 182.315 184.176 180.613 184.202Z" fill="#034EA2"/>
<path opacity="0.2" d="M143.754 79.6467H130.299C129.832 79.6516 129.37 79.5595 128.941 79.3763C128.512 79.1931 128.126 78.9228 127.806 78.5825C127.487 78.2422 127.242 77.8393 127.087 77.3994C126.932 76.9595 126.87 76.4921 126.904 76.0269L127.596 64.8346C127.668 63.8608 128.103 62.9494 128.813 62.2796C129.524 61.6097 130.459 61.2299 131.436 61.2147H144.896C145.362 61.2107 145.824 61.3033 146.253 61.4867C146.682 61.6702 147.068 61.9405 147.387 62.2807C147.706 62.6208 147.951 63.0233 148.106 63.4629C148.262 63.9025 148.325 64.3695 148.291 64.8346L147.599 76.0269C147.525 77.0011 147.09 77.9126 146.379 78.5823C145.667 79.252 144.731 79.6317 143.754 79.6467Z" fill="black"/>
<path opacity="0.2" d="M147.661 173.716C148.211 173.71 148.738 173.495 149.136 173.115C149.535 172.735 149.774 172.218 149.806 171.668L151.235 148.593C151.254 148.332 151.219 148.071 151.132 147.825C151.045 147.58 150.907 147.354 150.729 147.164C150.55 146.974 150.334 146.823 150.094 146.721C149.854 146.619 149.596 146.567 149.335 146.57H114.954L113.285 173.706L147.661 173.716Z" fill="black"/>
<path d="M111.693 136.192H101.176C100.799 136.202 100.439 136.35 100.164 136.609C99.8889 136.868 99.719 137.219 99.6864 137.595L98.9543 149.463C98.9408 149.643 98.9649 149.825 99.0251 149.995C99.0853 150.166 99.1802 150.322 99.304 150.454C99.4277 150.586 99.5774 150.69 99.7437 150.761C99.91 150.832 100.089 150.868 100.27 150.866H110.787C111.166 150.863 111.53 150.717 111.807 150.457C112.083 150.197 112.251 149.842 112.276 149.463L113.009 137.595C113.023 137.414 112.999 137.233 112.939 137.062C112.88 136.891 112.785 136.735 112.661 136.603C112.537 136.471 112.387 136.366 112.22 136.295C112.053 136.224 111.874 136.189 111.693 136.192Z" fill="#034EA2"/>
<path opacity="0.4" d="M111.693 136.192H101.176C100.799 136.202 100.439 136.35 100.164 136.609C99.8889 136.868 99.719 137.219 99.6864 137.595L98.9543 149.463C98.9408 149.643 98.9649 149.825 99.0251 149.995C99.0853 150.166 99.1802 150.322 99.304 150.454C99.4277 150.586 99.5774 150.69 99.7437 150.761C99.91 150.832 100.089 150.868 100.27 150.866H110.787C111.166 150.863 111.53 150.717 111.807 150.457C112.083 150.197 112.251 149.842 112.276 149.463L113.009 137.595C113.023 137.414 112.999 137.233 112.939 137.062C112.88 136.891 112.785 136.735 112.661 136.603C112.537 136.471 112.387 136.366 112.22 136.295C112.053 136.224 111.874 136.189 111.693 136.192Z" fill="white"/>
<path d="M188.605 55.1576C189.076 55.1497 189.543 55.2403 189.977 55.4237C190.411 55.6072 190.801 55.8793 191.123 56.2226C191.445 56.566 191.692 56.973 191.847 57.4174C192.003 57.8618 192.064 58.3338 192.026 58.8031L189.322 102.62C189.295 103.032 189.115 103.418 188.816 103.703C188.517 103.987 188.122 104.149 187.709 104.156H121.661C121.473 104.159 121.287 104.122 121.113 104.049C120.94 103.975 120.784 103.866 120.655 103.729C120.527 103.591 120.428 103.429 120.366 103.251C120.304 103.073 120.279 102.884 120.294 102.697L122.998 58.8799C123.073 57.8812 123.52 56.9469 124.249 56.2609C124.979 55.5749 125.939 55.1868 126.94 55.173H188.605M188.605 54.661H126.94C125.805 54.6759 124.717 55.1159 123.89 55.8941C123.063 56.6724 122.559 57.7323 122.476 58.8645L119.772 102.681C119.752 102.94 119.786 103.201 119.873 103.446C119.959 103.691 120.095 103.915 120.273 104.104C120.451 104.294 120.666 104.444 120.905 104.545C121.144 104.647 121.402 104.697 121.661 104.694H187.709C188.253 104.686 188.774 104.476 189.17 104.103C189.566 103.731 189.809 103.224 189.85 102.681L192.553 58.8645C192.594 58.3236 192.522 57.78 192.342 57.2684C192.162 56.7568 191.877 56.2884 191.505 55.8929C191.134 55.4975 190.684 55.1837 190.185 54.9716C189.686 54.7595 189.148 54.6537 188.605 54.661Z" fill="white"/>
<path d="M155.566 109.814H121.984C121.267 109.823 120.579 110.102 120.056 110.594C119.534 111.086 119.215 111.755 119.163 112.471L117.76 134.932C117.734 135.274 117.779 135.616 117.892 135.939C118.006 136.262 118.185 136.558 118.419 136.807C118.654 137.057 118.937 137.255 119.252 137.389C119.567 137.522 119.906 137.589 120.248 137.585H153.83C154.547 137.576 155.235 137.299 155.758 136.808C156.28 136.317 156.599 135.648 156.652 134.932L158.039 112.471C158.064 112.131 158.019 111.79 157.906 111.468C157.794 111.146 157.615 110.851 157.383 110.602C157.151 110.352 156.87 110.154 156.557 110.018C156.244 109.882 155.907 109.813 155.566 109.814Z" fill="white"/>
<path d="M145.5 142.397H111.913C111.197 142.406 110.509 142.683 109.988 143.174C109.466 143.666 109.148 144.335 109.097 145.05L107.709 167.511C107.683 167.852 107.728 168.196 107.842 168.519C107.955 168.842 108.135 169.138 108.369 169.388C108.603 169.637 108.886 169.836 109.201 169.97C109.516 170.105 109.855 170.172 110.198 170.168H143.785C144.502 170.159 145.189 169.88 145.71 169.388C146.232 168.896 146.55 168.226 146.601 167.511L147.968 145.05C147.994 144.71 147.95 144.369 147.837 144.048C147.725 143.726 147.547 143.432 147.316 143.183C147.084 142.933 146.803 142.735 146.49 142.6C146.178 142.465 145.841 142.396 145.5 142.397Z" fill="white"/>
<path opacity="0.2" d="M172.288 126.464C171.666 126.471 171.069 126.712 170.615 127.139C170.162 127.566 169.886 128.147 169.841 128.768L168.637 148.255C168.615 148.55 168.655 148.848 168.754 149.127C168.853 149.407 169.009 149.663 169.212 149.879C169.415 150.095 169.661 150.267 169.934 150.383C170.207 150.499 170.501 150.557 170.798 150.553H188.995L190.464 126.464H172.288Z" fill="black"/>
<path d="M197.397 122.194H167.89C167.26 122.202 166.657 122.447 166.199 122.879C165.741 123.312 165.462 123.9 165.417 124.528L164.198 144.261C164.175 144.561 164.214 144.863 164.314 145.147C164.413 145.431 164.571 145.691 164.777 145.91C164.982 146.13 165.232 146.304 165.508 146.422C165.785 146.54 166.084 146.599 166.385 146.596H195.891C196.522 146.587 197.126 146.343 197.584 145.91C198.043 145.478 198.323 144.89 198.369 144.261L199.588 124.528C199.611 124.228 199.571 123.926 199.47 123.642C199.37 123.358 199.212 123.098 199.006 122.879C198.8 122.659 198.55 122.485 198.273 122.367C197.996 122.249 197.698 122.19 197.397 122.194Z" fill="#034EA2"/>
<path opacity="0.7" d="M197.397 122.194H167.89C167.26 122.202 166.657 122.447 166.199 122.879C165.741 123.312 165.462 123.9 165.417 124.528L164.198 144.261C164.175 144.561 164.214 144.863 164.314 145.147C164.413 145.431 164.571 145.691 164.777 145.91C164.982 146.13 165.232 146.304 165.508 146.422C165.785 146.54 166.084 146.599 166.385 146.596H195.891C196.522 146.587 197.126 146.343 197.584 145.91C198.043 145.478 198.323 144.89 198.369 144.261L199.588 124.528C199.611 124.228 199.571 123.926 199.47 123.642C199.37 123.358 199.212 123.098 199.006 122.879C198.8 122.659 198.55 122.485 198.273 122.367C197.996 122.249 197.698 122.19 197.397 122.194Z" fill="white"/>
<path d="M219.443 90.3117H201.958C201.329 90.3201 200.726 90.564 200.267 90.9951C199.808 91.4263 199.528 92.0136 199.48 92.6413L198.262 112.379C198.24 112.679 198.28 112.98 198.381 113.263C198.481 113.547 198.64 113.806 198.846 114.025C199.052 114.244 199.301 114.418 199.578 114.536C199.854 114.653 200.152 114.712 200.453 114.708H217.938C218.567 114.7 219.17 114.456 219.628 114.025C220.085 113.593 220.365 113.006 220.411 112.379L221.629 92.6413C221.652 92.3417 221.612 92.0406 221.512 91.7572C221.413 91.4738 221.255 91.2143 221.049 90.9952C220.844 90.7761 220.595 90.6022 220.318 90.4845C220.042 90.3668 219.744 90.308 219.443 90.3117Z" fill="#034EA2"/>
<path opacity="0.7" d="M219.443 90.3117H201.958C201.329 90.3201 200.726 90.564 200.267 90.9951C199.808 91.4263 199.528 92.0136 199.48 92.6413L198.262 112.379C198.24 112.679 198.28 112.98 198.381 113.263C198.481 113.547 198.64 113.806 198.846 114.025C199.052 114.244 199.301 114.418 199.578 114.536C199.854 114.653 200.152 114.712 200.453 114.708H217.938C218.567 114.7 219.17 114.456 219.628 114.025C220.085 113.593 220.365 113.006 220.411 112.379L221.629 92.6413C221.652 92.3417 221.612 92.0406 221.512 91.7572C221.413 91.4738 221.255 91.2143 221.049 90.9952C220.844 90.7761 220.595 90.6022 220.318 90.4845C220.042 90.3668 219.744 90.308 219.443 90.3117Z" fill="white"/>
<path d="M203.541 151.204H196.265C196.004 151.209 195.754 151.312 195.565 151.492C195.376 151.672 195.26 151.916 195.241 152.177L194.729 160.369C194.72 160.493 194.737 160.618 194.778 160.736C194.82 160.854 194.886 160.962 194.972 161.053C195.057 161.144 195.161 161.216 195.276 161.265C195.391 161.314 195.515 161.338 195.64 161.336H202.916C203.178 161.337 203.43 161.236 203.621 161.056C203.811 160.876 203.925 160.63 203.94 160.369L204.452 152.177C204.462 152.051 204.446 151.926 204.404 151.807C204.363 151.689 204.297 151.58 204.211 151.489C204.125 151.397 204.021 151.324 203.906 151.275C203.79 151.226 203.666 151.202 203.541 151.204Z" fill="#034EA2"/>
<path opacity="0.4" d="M203.541 151.204H196.265C196.004 151.209 195.754 151.312 195.565 151.492C195.376 151.672 195.26 151.916 195.241 152.177L194.729 160.369C194.72 160.493 194.737 160.618 194.778 160.736C194.82 160.854 194.886 160.962 194.972 161.053C195.057 161.144 195.161 161.216 195.276 161.265C195.391 161.314 195.515 161.338 195.64 161.336H202.916C203.178 161.337 203.43 161.236 203.621 161.056C203.811 160.876 203.925 160.63 203.94 160.369L204.452 152.177C204.462 152.051 204.446 151.926 204.404 151.807C204.363 151.689 204.297 151.58 204.211 151.489C204.125 151.397 204.021 151.324 203.906 151.275C203.79 151.226 203.666 151.202 203.541 151.204Z" fill="white"/>
<path d="M167.65 115.353C175.41 107.827 175.966 95.8121 168.891 88.5165C161.816 81.2208 149.79 81.4073 142.029 88.933C134.269 96.4588 133.713 108.474 140.788 115.77C147.863 123.065 159.889 122.879 167.65 115.353Z" fill="#034EA2"/>
<path d="M166.488 114.155C173.544 107.312 174.049 96.3872 167.616 89.7533C161.183 83.1194 150.247 83.2886 143.191 90.1313C136.135 96.9739 135.63 107.899 142.063 114.533C148.496 121.167 159.432 120.997 166.488 114.155Z" fill="white"/>
<path d="M159.413 101.931C162.012 99.4117 162.197 95.3878 159.827 92.9437C157.457 90.4996 153.429 90.561 150.83 93.0807C148.232 95.6004 148.047 99.6244 150.417 102.068C152.787 104.513 156.815 104.451 159.413 101.931Z" fill="#034EA2"/>
<path d="M154.573 106.496C149.617 106.496 145.178 108.426 142.74 111.283C143.909 113.185 145.552 114.751 147.507 115.828C149.463 116.905 151.665 117.456 153.897 117.427C156.225 117.407 158.516 116.841 160.585 115.773C162.655 114.706 164.445 113.168 165.811 111.283C163.732 108.416 159.524 106.496 154.573 106.496Z" fill="#034EA2"/>
<path d="M141.312 77.1839H127.831C127.365 77.188 126.903 77.0953 126.474 76.9119C126.045 76.7284 125.659 76.4581 125.34 76.118C125.021 75.7778 124.776 75.3753 124.621 74.9357C124.465 74.4961 124.403 74.0291 124.437 73.564L125.128 62.3717C125.202 61.3975 125.637 60.4861 126.348 59.8163C127.06 59.1466 127.996 58.767 128.973 58.7519H142.423C142.89 58.747 143.352 58.8391 143.781 59.0223C144.21 59.2055 144.596 59.4759 144.916 59.8162C145.235 60.1564 145.48 60.5593 145.635 60.9992C145.79 61.4391 145.852 61.9065 145.818 62.3717L145.132 73.564C145.058 74.534 144.626 75.4418 143.92 76.1109C143.214 76.78 142.285 77.1625 141.312 77.1839Z" fill="white"/>
<path d="M138.875 67.968L132.096 63.4419L131.538 72.4941L138.875 67.968Z" fill="#034EA2"/>
<path d="M184.914 68.7205H152.801C152.603 68.7225 152.407 68.6834 152.225 68.6056C152.043 68.5278 151.88 68.4131 151.744 68.2687C151.609 68.1243 151.505 67.9533 151.44 67.7667C151.374 67.5801 151.348 67.3818 151.363 67.1845L151.48 65.2287C151.512 64.8152 151.697 64.4285 151.999 64.1443C152.302 63.8602 152.699 63.6991 153.114 63.6927H185.226C185.424 63.6908 185.621 63.7299 185.803 63.8076C185.985 63.8854 186.149 64 186.285 64.1443C186.42 64.2887 186.525 64.4595 186.591 64.6462C186.657 64.8328 186.684 65.0311 186.67 65.2287L186.547 67.1845C186.515 67.5981 186.33 67.9848 186.028 68.2689C185.726 68.553 185.329 68.7141 184.914 68.7205Z" fill="white"/>
<path d="M184.392 77.1737H152.279C152.081 77.1749 151.886 77.1352 151.704 77.0572C151.523 76.9791 151.359 76.8644 151.224 76.7201C151.089 76.5759 150.985 76.4053 150.919 76.219C150.853 76.0327 150.826 75.8348 150.84 75.6377L150.958 73.6818C150.991 73.2687 151.177 72.8827 151.478 72.5988C151.78 72.3149 152.177 72.1534 152.591 72.1458H184.704C184.902 72.1439 185.098 72.183 185.281 72.2608C185.463 72.3385 185.627 72.4531 185.762 72.5975C185.898 72.7418 186.002 72.9126 186.069 73.0993C186.135 73.2859 186.162 73.4843 186.148 73.6818L186.025 75.6377C185.994 76.0516 185.809 76.439 185.507 76.7234C185.205 77.0077 184.807 77.1684 184.392 77.1737Z" fill="white"/>
<path d="M195.031 129.92H169.303C169.171 129.922 169.041 129.896 168.919 129.844C168.798 129.793 168.689 129.716 168.599 129.619C168.51 129.523 168.441 129.409 168.398 129.284C168.355 129.159 168.339 129.027 168.351 128.896L168.397 128.164C168.415 127.888 168.536 127.63 168.736 127.44C168.937 127.25 169.201 127.143 169.477 127.14H195.205C195.337 127.138 195.468 127.164 195.589 127.215C195.71 127.267 195.819 127.344 195.909 127.44C195.999 127.537 196.067 127.651 196.11 127.776C196.153 127.9 196.169 128.032 196.157 128.164L196.111 128.896C196.093 129.171 195.972 129.43 195.772 129.62C195.572 129.809 195.307 129.917 195.031 129.92Z" fill="white"/>
<path d="M194.673 135.777H168.96C168.828 135.779 168.697 135.753 168.576 135.702C168.454 135.65 168.345 135.574 168.255 135.477C168.165 135.381 168.096 135.267 168.052 135.142C168.009 135.017 167.992 134.885 168.003 134.753L168.049 134.026C168.067 133.751 168.188 133.493 168.388 133.303C168.589 133.113 168.853 133.006 169.129 133.002H194.857C194.989 133 195.119 133.026 195.241 133.078C195.362 133.13 195.471 133.206 195.561 133.303C195.65 133.399 195.719 133.513 195.762 133.638C195.805 133.763 195.821 133.895 195.809 134.026L195.768 134.753C195.749 135.031 195.625 135.291 195.422 135.481C195.219 135.671 194.951 135.777 194.673 135.777Z" fill="white"/>
<path d="M194.309 141.634H168.581C168.449 141.636 168.319 141.611 168.197 141.559C168.076 141.507 167.967 141.431 167.877 141.334C167.788 141.238 167.719 141.123 167.676 140.999C167.634 140.874 167.617 140.742 167.629 140.61L167.675 139.878C167.692 139.603 167.812 139.345 168.011 139.155C168.211 138.965 168.475 138.858 168.75 138.854H194.478C194.61 138.852 194.741 138.878 194.862 138.93C194.984 138.982 195.093 139.058 195.183 139.155C195.273 139.251 195.342 139.365 195.386 139.49C195.429 139.614 195.446 139.747 195.436 139.878L195.389 140.61C195.371 140.886 195.25 141.144 195.05 141.334C194.85 141.524 194.585 141.631 194.309 141.634Z" fill="white"/>
<path d="M179.455 178.804C180.464 177.825 180.537 176.264 179.618 175.316C178.698 174.368 177.135 174.392 176.126 175.371C175.117 176.349 175.045 177.911 175.964 178.859C176.883 179.807 178.447 179.782 179.455 178.804Z" fill="white"/>
<path d="M180.803 168.356C180.753 169.02 180.456 169.642 179.971 170.099C179.486 170.555 178.847 170.814 178.181 170.824C177.863 170.827 177.548 170.765 177.255 170.64C176.962 170.515 176.699 170.331 176.481 170.099C176.263 169.867 176.096 169.592 175.991 169.292C175.885 168.992 175.843 168.673 175.867 168.356C175.914 167.691 176.21 167.069 176.694 166.612C177.179 166.155 177.817 165.896 178.483 165.888C178.802 165.883 179.118 165.945 179.411 166.07C179.705 166.194 179.969 166.378 180.187 166.611C180.405 166.843 180.573 167.118 180.679 167.418C180.785 167.719 180.827 168.038 180.803 168.356Z" fill="white"/>
<path d="M181.34 159.616C181.292 160.281 180.995 160.903 180.51 161.36C180.024 161.817 179.385 162.075 178.719 162.084C178.401 162.088 178.085 162.025 177.792 161.9C177.5 161.776 177.236 161.591 177.018 161.359C176.801 161.127 176.634 160.852 176.528 160.552C176.422 160.252 176.38 159.933 176.405 159.616C176.453 158.951 176.749 158.329 177.235 157.872C177.72 157.415 178.359 157.157 179.026 157.148C179.344 157.144 179.66 157.207 179.952 157.332C180.245 157.456 180.509 157.641 180.726 157.873C180.944 158.105 181.111 158.38 181.217 158.68C181.322 158.98 181.364 159.299 181.34 159.616Z" fill="white"/>
<path d="M172.008 178.803C173.017 177.825 173.09 176.263 172.171 175.315C171.251 174.367 169.688 174.392 168.679 175.37C167.67 176.348 167.598 177.91 168.517 178.858C169.436 179.806 170.999 179.781 172.008 178.803Z" fill="white"/>
<path d="M173.353 168.356C173.303 169.02 173.006 169.642 172.521 170.099C172.036 170.555 171.398 170.814 170.732 170.824C170.413 170.827 170.098 170.765 169.805 170.64C169.512 170.515 169.249 170.331 169.031 170.099C168.814 169.867 168.647 169.592 168.541 169.292C168.435 168.992 168.393 168.673 168.417 168.356C168.465 167.691 168.76 167.069 169.244 166.612C169.729 166.155 170.368 165.896 171.034 165.888C171.352 165.883 171.668 165.945 171.962 166.07C172.255 166.194 172.519 166.378 172.737 166.611C172.955 166.843 173.123 167.118 173.229 167.418C173.335 167.719 173.377 168.038 173.353 168.356Z" fill="white"/>
<path d="M173.891 159.616C173.842 160.281 173.546 160.903 173.06 161.36C172.575 161.817 171.936 162.075 171.269 162.084C170.951 162.088 170.635 162.025 170.343 161.9C170.05 161.776 169.786 161.591 169.569 161.359C169.351 161.127 169.184 160.852 169.079 160.552C168.973 160.252 168.931 159.933 168.955 159.616C169.004 158.951 169.3 158.329 169.785 157.872C170.271 157.415 170.91 157.157 171.576 157.148C171.894 157.144 172.21 157.207 172.503 157.332C172.795 157.456 173.059 157.641 173.277 157.873C173.494 158.105 173.661 158.38 173.767 158.68C173.873 158.98 173.915 159.299 173.891 159.616Z" fill="white"/>
<path d="M70.2413 103.347L73.1341 105.6L69.3146 107.607C69.3146 107.607 67.5277 105.687 68.4339 104.054L70.2413 103.347Z" fill="#7F3E3B"/>
<path d="M73.2621 109.507L71.5059 110.019C71.2363 110.101 70.9461 110.081 70.6897 109.964C70.4332 109.847 70.2283 109.641 70.1133 109.384L69.3146 107.587L73.1341 105.58L74.0147 107.981C74.073 108.13 74.0995 108.29 74.0927 108.449C74.0858 108.609 74.0457 108.766 73.9748 108.91C73.904 109.053 73.8041 109.18 73.6814 109.283C73.5586 109.386 73.4158 109.462 73.2621 109.507Z" fill="#7F3E3B"/>
<path d="M82.3859 82.7135L80.8499 83.6709C80.3379 84.0037 79.8003 84.3417 79.2781 84.6949C78.2541 85.3861 77.2301 86.0825 76.2061 86.8095C74.2281 88.1971 72.3621 89.7378 70.6253 91.4175L70.3181 91.7247L70.2413 91.8015C70.243 91.7913 70.243 91.7809 70.2413 91.7708C70.2413 91.7452 70.1849 91.8117 70.1337 91.9295C69.9871 92.3064 69.8991 92.7035 69.8726 93.1071C69.7938 94.2388 69.823 95.3755 69.9597 96.5016C70.1952 98.908 70.6969 101.448 71.1885 103.91L68.2701 105.016C66.9824 102.593 65.9675 100.034 65.2441 97.3874C64.8438 95.9595 64.6051 94.4911 64.5325 93.0098C64.4934 92.1057 64.583 91.2007 64.7987 90.3218C64.9475 89.7504 65.1786 89.2037 65.4848 88.6988C65.5733 88.5513 65.6707 88.4094 65.7766 88.2738L65.92 88.0844L66.007 87.982L66.3552 87.5621C66.816 86.9938 67.3024 86.4818 67.7837 85.9545C68.2649 85.4271 68.7769 84.9304 69.2889 84.485C70.3129 83.5173 71.3677 82.6469 72.4429 81.7919C73.5181 80.9369 74.6291 80.1484 75.7657 79.3906C76.3289 79.0117 76.9024 78.6482 77.4809 78.2847C78.0595 77.9212 78.6278 77.5884 79.2883 77.2249L82.3859 82.7135Z" fill="#034EA2"/>
<path d="M70.9478 103.301C69.9389 103.732 68.9003 104.09 67.84 104.371C67.7559 104.399 67.684 104.455 67.6364 104.529C67.5888 104.604 67.5685 104.693 67.5789 104.781C67.6454 105.293 67.7478 105.641 68.0243 105.672C68.3008 105.702 71.3625 104.648 71.5776 104.258C71.7005 104.038 71.5776 103.711 71.4393 103.46C71.3936 103.375 71.317 103.311 71.2254 103.282C71.1339 103.252 71.0344 103.259 70.9478 103.301Z" fill="#263238"/>
<path d="M85.4118 101.1L79.2678 86.0058C79.04 85.4647 78.6174 85.0288 78.0837 84.7842C77.5499 84.5396 76.9439 84.5042 76.3853 84.6848L58.921 90.5472C58.6565 90.6364 58.413 90.7787 58.2055 90.9654C57.998 91.1521 57.8309 91.3793 57.7144 91.6329C57.5978 91.8866 57.5344 92.1614 57.528 92.4404C57.5215 92.7195 57.5721 92.9969 57.6768 93.2557L63.8208 108.349C64.0487 108.89 64.4713 109.326 65.005 109.571C65.5387 109.816 66.1447 109.851 66.7034 109.67L84.1677 103.808C84.4322 103.719 84.6756 103.576 84.8831 103.39C85.0906 103.203 85.2578 102.976 85.3743 102.722C85.4908 102.469 85.5542 102.194 85.5607 101.915C85.5671 101.636 85.5165 101.358 85.4118 101.1Z" fill="#034EA2"/>
<path opacity="0.7" d="M85.4118 101.1L79.2678 86.0058C79.04 85.4647 78.6174 85.0288 78.0837 84.7842C77.5499 84.5396 76.9439 84.5042 76.3853 84.6848L58.921 90.5472C58.6565 90.6364 58.413 90.7787 58.2055 90.9654C57.998 91.1521 57.8309 91.3793 57.7144 91.6329C57.5978 91.8866 57.5344 92.1614 57.528 92.4404C57.5215 92.7195 57.5721 92.9969 57.6768 93.2557L63.8208 108.349C64.0487 108.89 64.4713 109.326 65.005 109.571C65.5387 109.816 66.1447 109.851 66.7034 109.67L84.1677 103.808C84.4322 103.719 84.6756 103.576 84.8831 103.39C85.0906 103.203 85.2578 102.976 85.3743 102.722C85.4908 102.469 85.5542 102.194 85.5607 101.915C85.5671 101.636 85.5165 101.358 85.4118 101.1Z" fill="white"/>
<path d="M98.6521 66.4524C98.5805 66.7545 98.6522 67.0412 98.8774 67.0873C99.1027 67.1333 99.2922 66.9337 99.3894 66.6316C99.4867 66.3295 99.3638 66.0428 99.1641 65.9916C98.9645 65.9404 98.7289 66.1503 98.6521 66.4524Z" fill="#263238"/>
<path d="M98.6522 67.031C98.7842 68.0445 99.0547 69.0351 99.456 69.975C99.2133 70.0722 98.9521 70.1148 98.6911 70.0998C98.4301 70.0847 98.1756 70.0124 97.9456 69.888L98.6522 67.031Z" fill="#630F0F"/>
<path d="M97.9968 64.5121C98.0315 64.525 98.0697 64.525 98.1043 64.5121C98.3148 64.4191 98.5444 64.3775 98.7741 64.3909C99.0038 64.4042 99.227 64.4721 99.4253 64.5889C99.4449 64.6033 99.4672 64.6136 99.4909 64.6191C99.5147 64.6246 99.5392 64.6252 99.5632 64.6209C99.5872 64.6165 99.61 64.6074 99.6303 64.594C99.6506 64.5805 99.6679 64.5631 99.6813 64.5428C99.6949 64.5233 99.7045 64.5014 99.7095 64.4782C99.7146 64.455 99.715 64.431 99.7107 64.4077C99.7064 64.3844 99.6975 64.3621 99.6846 64.3422C99.6716 64.3224 99.6548 64.3052 99.6352 64.2919C99.3877 64.1404 99.1075 64.0502 98.8181 64.0289C98.5287 64.0075 98.2383 64.0556 97.9712 64.169C97.9486 64.178 97.9281 64.1914 97.9107 64.2084C97.8933 64.2254 97.8795 64.2457 97.8699 64.268C97.8604 64.2904 97.8554 64.3144 97.8552 64.3387C97.855 64.363 97.8596 64.3871 97.8688 64.4097C97.8797 64.4362 97.8972 64.4595 97.9196 64.4774C97.942 64.4953 97.9685 64.5073 97.9968 64.5121Z" fill="#263238"/>
<path d="M88.0333 67.5327C87.8951 70.405 87.1885 75.5609 84.8231 76.9177C84.8231 76.9177 84.8845 79.8873 89.9789 81.1417C95.5802 82.5292 93.3427 79.022 93.3427 79.022C90.4653 77.5372 91.1053 75.2895 92.1651 73.2876L88.0333 67.5327Z" fill="#7F3E3B"/>
<path d="M83.8502 77.6908C83.6659 76.7129 83.4713 75.5967 84.4646 75.5046C85.5552 75.4073 91.1513 76.4108 92.8921 77.5526C93.1258 77.6834 93.331 77.8594 93.4959 78.0704C93.6608 78.2813 93.782 78.523 93.8526 78.7813C93.9231 79.0396 93.9415 79.3094 93.9067 79.5748C93.8719 79.8403 93.7846 80.0962 93.6499 80.3276L83.8502 77.6908Z" fill="#263238"/>
<path d="M57.2826 201.964C57.3935 202.086 57.5276 202.184 57.677 202.254C57.8265 202.323 57.9883 202.362 58.153 202.368C58.2554 202.368 58.3834 202.271 58.4295 202.035C58.4423 201.975 58.4421 201.913 58.4288 201.853C58.4156 201.793 58.3896 201.736 58.3527 201.687C58.0045 201.221 56.7194 201.088 56.6682 201.083C56.65 201.081 56.6318 201.085 56.6155 201.093C56.5992 201.101 56.5855 201.113 56.576 201.129C56.5669 201.144 56.5621 201.16 56.5621 201.178C56.5621 201.195 56.5669 201.212 56.576 201.226C56.7864 201.495 57.0231 201.742 57.2826 201.964ZM58.1274 201.713C58.1556 201.737 58.1814 201.765 58.2042 201.795C58.2262 201.823 58.2417 201.857 58.2497 201.892C58.2576 201.927 58.2578 201.964 58.2503 201.999C58.2195 202.168 58.1427 202.184 58.112 202.189C57.8458 202.25 57.2467 201.743 56.8679 201.293C57.3142 201.345 57.7439 201.494 58.1274 201.728V201.713Z" fill="#034EA2"/>
<path d="M56.5965 201.242C56.5965 201.242 56.5965 201.242 56.6375 201.242C57.0829 201.334 58.2196 201.19 58.4346 200.812C58.4679 200.751 58.4795 200.681 58.4674 200.613C58.4553 200.545 58.4202 200.483 58.368 200.438C58.3203 200.386 58.2625 200.345 58.1982 200.317C58.1339 200.289 58.0645 200.274 57.9943 200.274C57.4157 200.274 56.6272 201.057 56.5914 201.088C56.5842 201.102 56.5804 201.118 56.5804 201.134C56.5804 201.15 56.5842 201.166 56.5914 201.18C56.5874 201.201 56.5891 201.222 56.5965 201.242ZM58.2042 200.556L58.2349 200.581C58.3168 200.673 58.2912 200.719 58.2759 200.74C58.1479 200.965 57.3594 201.134 56.8628 201.108C57.1685 200.79 57.5626 200.571 57.9943 200.479C58.0711 200.479 58.1454 200.506 58.2042 200.556Z" fill="#034EA2"/>
<path d="M86.2054 209.372C86.7174 209.372 87.168 209.3 87.3062 209.08C87.3416 209.017 87.3561 208.945 87.3478 208.873C87.3396 208.801 87.3089 208.734 87.2602 208.681C87.1874 208.572 87.0756 208.495 86.9479 208.466C86.2874 208.292 85.0176 209.06 84.9613 209.09C84.9457 209.101 84.9338 209.116 84.9273 209.133C84.9209 209.151 84.9202 209.17 84.9254 209.188C84.9315 209.206 84.9423 209.222 84.9567 209.235C84.9711 209.247 84.9886 209.256 85.0074 209.259C85.4025 209.333 85.8035 209.371 86.2054 209.372ZM86.7174 208.619C86.777 208.614 86.837 208.614 86.8966 208.619C86.9733 208.638 87.0407 208.683 87.0861 208.747C87.1629 208.865 87.1475 208.916 87.127 208.952C86.9734 209.203 85.9955 209.208 85.2685 209.106C85.7192 208.843 86.2197 208.678 86.7379 208.619H86.7174Z" fill="#034EA2"/>
<path d="M85.0279 209.265H85.0637C85.504 209.055 86.3437 208.241 86.226 207.785C86.226 207.683 86.1133 207.555 85.8624 207.529C85.7706 207.515 85.6769 207.522 85.5882 207.55C85.4995 207.577 85.4182 207.624 85.3504 207.688C84.8999 208.087 84.905 209.132 84.905 209.172C84.9046 209.189 84.9087 209.205 84.9168 209.22C84.9249 209.234 84.9367 209.246 84.9511 209.254C84.9618 209.263 84.9746 209.268 84.9881 209.27C85.0016 209.272 85.0153 209.27 85.0279 209.265ZM85.8061 207.698H85.8624C86.0263 207.698 86.0468 207.775 86.0519 207.8C86.1184 208.061 85.5399 208.717 85.1149 209.004C85.1082 208.574 85.2432 208.155 85.4989 207.811C85.5841 207.737 85.6934 207.697 85.8061 207.698Z" fill="#034EA2"/>
<path d="M80.8192 209.172H84.6797L85.0688 200.228H81.2032L80.8192 209.172Z" fill="#7F3E3B"/>
<path d="M52.7002 200.115L56.4378 201.093L60.5748 192.932L56.8372 191.954L52.7002 200.115Z" fill="#7F3E3B"/>
<path d="M56.7245 200.648L53.4221 197.842C53.3612 197.795 53.2865 197.77 53.2096 197.77C53.1327 197.77 53.058 197.795 52.9971 197.842L50.176 199.951C50.1089 200.005 50.0546 200.072 50.0173 200.149C49.98 200.227 49.9606 200.311 49.9606 200.397C49.9606 200.482 49.98 200.567 50.0173 200.644C50.0546 200.721 50.1089 200.789 50.176 200.842C51.3485 201.8 51.968 202.209 53.4221 203.443C54.3181 204.201 56.2278 206.377 57.3798 207.514C58.5318 208.65 59.8118 207.652 59.4278 207.083C58.2086 205.329 57.397 203.324 57.0522 201.216C57.0159 200.993 56.8994 200.791 56.7245 200.648Z" fill="#263238"/>
<path d="M84.5619 208.722H80.343C80.2687 208.721 80.1969 208.748 80.1411 208.797C80.0854 208.846 80.0497 208.914 80.0409 208.988L79.6365 212.419C79.6278 212.506 79.6376 212.593 79.6651 212.677C79.6927 212.76 79.7373 212.836 79.7962 212.901C79.8551 212.965 79.9269 213.017 80.007 213.052C80.0871 213.087 80.1736 213.105 80.2611 213.105C81.7971 213.079 83.968 212.992 85.8931 212.992C88.1305 212.992 88.5094 213.115 91.1309 213.115C92.7129 213.115 92.9894 211.512 92.3085 211.364C89.2365 210.703 88.3149 210.637 85.5347 209.024C85.2429 208.839 84.9072 208.735 84.5619 208.722Z" fill="#263238"/>
<path d="M98.985 84.0191C98.688 87.9155 97.2237 96.1945 91.648 113.009L71.3524 109.189C71.7364 106.475 75.3869 95.0374 76.2164 82.1452C76.2708 81.2957 76.4991 80.4664 76.8872 79.7087C77.2754 78.9511 77.815 78.2812 78.4726 77.7407C79.1303 77.2001 79.892 76.8005 80.7104 76.5664C81.5289 76.3324 82.3868 76.269 83.2308 76.3801H83.3332C86.2381 76.7547 89.1187 77.2983 91.9604 78.0083C93.4568 78.4613 94.9224 79.0102 96.3482 79.6518C97.1876 80.0147 97.8929 80.6306 98.3655 81.4135C98.8382 82.1964 99.0548 83.1073 98.985 84.0191Z" fill="#034EA2"/>
<path opacity="0.2" d="M95.1296 86.3794C94.9965 88.5708 95.8157 93.2248 96.5325 96.7628C97.1879 94.2028 97.6794 92.0831 98.0685 90.2706L95.1296 86.3794Z" fill="black"/>
<path d="M98.9133 82.8313C99.3997 84.0396 99.9373 85.3555 100.449 86.6047C100.961 87.854 101.55 89.1187 102.144 90.3475C103.243 92.7652 104.532 95.0919 105.999 97.3055C106.363 97.8175 106.726 98.3295 107.105 98.7596L107.177 98.8415H107.151H107.116C107.116 98.8415 107.116 98.8415 107.116 98.8774C107.227 98.9591 107.352 99.0214 107.484 99.0617C107.966 99.213 108.465 99.3025 108.969 99.3279C109.586 99.3712 110.204 99.3832 110.822 99.3638C113.531 99.2123 116.228 98.8925 118.897 98.4063L119.921 101.366C118.584 102.02 117.208 102.587 115.799 103.066C114.364 103.569 112.894 103.967 111.401 104.253C110.606 104.404 109.802 104.505 108.995 104.555C108.077 104.615 107.156 104.563 106.25 104.402C105.684 104.305 105.133 104.133 104.612 103.89C104.3 103.747 104.001 103.576 103.721 103.378C103.566 103.267 103.417 103.148 103.276 103.019L103.06 102.815L102.948 102.702C102.375 102.124 101.833 101.515 101.325 100.879C99.472 98.4736 97.8584 95.8928 96.5069 93.1737C95.8413 91.8527 95.2013 90.5267 94.6227 89.175C94.0441 87.8233 93.4861 86.4972 92.9741 85.0431L98.9133 82.8313Z" fill="#034EA2"/>
<path opacity="0.2" d="M135.485 95.6262L128.2 94.1721C127.936 94.1227 127.663 94.1742 127.436 94.3165C127.208 94.4587 127.042 94.6813 126.971 94.9401L124.821 103.076C124.786 103.199 124.777 103.328 124.795 103.455C124.812 103.582 124.856 103.704 124.924 103.812C124.991 103.921 125.081 104.015 125.186 104.087C125.292 104.16 125.411 104.209 125.537 104.233L132.823 105.687C133.087 105.735 133.359 105.683 133.586 105.541C133.814 105.399 133.98 105.177 134.052 104.919L136.192 96.768C136.225 96.6465 136.232 96.5196 136.214 96.3951C136.195 96.2707 136.152 96.1513 136.086 96.0444C136.019 95.9374 135.932 95.8451 135.829 95.7732C135.726 95.7013 135.609 95.6513 135.485 95.6262Z" fill="black"/>
<path d="M132.951 91.8887L125.696 90.2759C125.433 90.2223 125.16 90.2687 124.93 90.406C124.7 90.5434 124.529 90.7617 124.452 91.0183L122.122 99.1027C122.085 99.2255 122.075 99.3546 122.09 99.4818C122.106 99.6089 122.148 99.7315 122.213 99.8417C122.279 99.9519 122.366 100.047 122.47 100.122C122.575 100.197 122.693 100.249 122.819 100.275L130.048 101.888C130.311 101.943 130.584 101.897 130.815 101.759C131.045 101.622 131.216 101.403 131.292 101.146L133.632 93.0611C133.67 92.9394 133.682 92.8112 133.667 92.6846C133.653 92.558 133.613 92.4358 133.549 92.3256C133.485 92.2154 133.398 92.1197 133.296 92.0445C133.193 91.9693 133.075 91.9162 132.951 91.8887Z" fill="white"/>
<path d="M118.272 98.949L120.566 95.5852L124.206 98.9132C124.206 98.9132 122.312 101.473 119.506 101.335L118.272 98.949Z" fill="#7F3E3B"/>
<path d="M117.525 98.816C117.978 99.8121 118.361 100.839 118.671 101.888C118.699 101.972 118.757 102.044 118.833 102.09C118.909 102.136 118.998 102.153 119.086 102.139C119.598 102.057 119.941 101.949 119.967 101.673C119.992 101.396 118.861 98.3603 118.467 98.1555C118.331 98.1191 118.189 98.1144 118.051 98.142C117.914 98.1695 117.784 98.2285 117.673 98.3143C117.63 98.3368 117.591 98.3678 117.56 98.4055C117.529 98.4432 117.506 98.4868 117.492 98.5336C117.478 98.5804 117.474 98.6296 117.48 98.6781C117.485 98.7266 117.5 98.7735 117.525 98.816Z" fill="#263238"/>
<path d="M125.02 95.0681L125.471 95.9437C125.65 96.2904 125.71 96.6861 125.644 97.0705C125.577 97.4549 125.387 97.8071 125.102 98.0736L124.201 98.9133L120.561 95.5853L122.476 94.377C122.685 94.2442 122.92 94.1566 123.165 94.1196C123.41 94.0826 123.661 94.0971 123.9 94.1621C124.139 94.2271 124.363 94.3412 124.556 94.4972C124.748 94.6532 124.907 94.8477 125.02 95.0681Z" fill="#7F3E3B"/>
<path opacity="0.2" d="M85.0637 200.233L84.8486 205.261H80.9882L81.2032 200.233H85.0637Z" fill="black"/>
<path opacity="0.2" d="M56.8371 191.959L60.5747 192.932L58.281 197.453L54.7021 196.163L56.8371 191.959Z" fill="black"/>
<path d="M88.7245 63.324C88.0384 67.0923 87.4445 69.2632 88.8474 71.6338C90.9619 75.2178 95.9642 74.629 97.7664 71.1218C99.3843 67.9832 100.239 62.3461 96.9728 59.9704C96.2526 59.4438 95.4097 59.1101 94.5242 59.0009C93.6386 58.8918 92.7399 59.011 91.9134 59.347C91.0869 59.683 90.3601 60.2248 89.8019 60.9209C89.2438 61.617 88.8729 62.4442 88.7245 63.324Z" fill="#7F3E3B"/>
<path d="M95.1859 67.0156C97.1059 67.758 98.2579 64.9984 97.7459 64.0051C98.3808 63.6211 100.915 63.0323 100.623 61.0867C100.332 59.1411 98.4115 58.5779 97.0086 56.0128C96.5325 56.2636 96.6605 57.8252 96.6605 57.8252C96.6605 57.8252 95.5085 55.7772 92.5235 55.8131C89.5386 55.8489 88.4275 54.615 88.4275 54.615C88.4275 54.615 88.6528 56.5606 89.7587 57.0368C88.0845 57.5078 88.0845 60.1087 85.7088 60.4262C86.2515 61.4502 87.5776 61.4502 87.5776 61.4502C87.5776 61.4502 86.2054 62.638 86.4768 64.1228C86.7482 65.6076 88.3354 69.1865 86.4358 70.4307C90.5472 71.9001 96 70.2412 95.1859 67.0156Z" fill="#263238"/>
<path d="M94.2899 66.4012C94.0799 67.331 94.1806 68.3041 94.5766 69.1712C95.0886 70.3027 96.1126 70.0108 96.5939 68.9715C97.0189 68.0396 97.2544 66.3295 96.4249 65.5359C95.5955 64.7423 94.5613 65.2851 94.2899 66.4012Z" fill="#7F3E3B"/>
<path d="M84.4493 111.652C84.4493 111.652 79.2013 140.467 76.8 151.521C74.1683 163.625 60.7642 196.014 60.7642 196.014L54.0365 193.843C54.0365 193.843 62.4538 163 66.2477 150.835C67.0413 137.861 68.6541 117.33 71.3677 109.184L84.4493 111.652Z" fill="#034EA2"/>
<path opacity="0.5" d="M84.4493 111.652C84.4493 111.652 79.2013 140.467 76.8 151.521C74.1683 163.625 60.7642 196.014 60.7642 196.014L54.0365 193.843C54.0365 193.843 62.4538 163 66.2477 150.835C67.0413 137.861 68.6541 117.33 71.3677 109.184L84.4493 111.652Z" fill="black"/>
<path d="M62.1875 194.591C62.2131 194.591 60.6515 196.941 60.6515 196.941L53.0944 194.453L53.9904 192.195L62.1875 194.591Z" fill="#034EA2"/>
<path opacity="0.3" d="M82.0685 121.728C77.1533 122.516 77.5117 137.088 78.0851 145.249C79.5187 138.132 81.2851 128.758 82.5856 121.728C82.4135 121.714 82.2406 121.714 82.0685 121.728Z" fill="black"/>
<path d="M91.648 113.009C91.648 113.009 92.7386 139.827 92.3187 151.598C91.8835 163.85 86.3079 203.95 86.3079 203.95H79.7645C79.7645 203.95 79.6263 165.402 81.1315 152.602C80.8141 139.489 78.3053 110.495 78.3053 110.495L91.648 113.009Z" fill="#034EA2"/>
<path opacity="0.5" d="M91.648 113.009C91.648 113.009 92.7386 139.827 92.3187 151.598C91.8835 163.85 86.3079 203.95 86.3079 203.95H79.7645C79.7645 203.95 79.6263 165.402 81.1315 152.602C80.8141 139.489 78.3053 110.495 78.3053 110.495L91.648 113.009Z" fill="black"/>
<path d="M87.552 201.344C87.5827 201.344 87.1834 204.058 87.1834 204.058H79.2423L79.0272 201.636L87.552 201.344Z" fill="#034EA2"/>
<path d="M71.3523 108.447C70.6816 108.416 70.6355 110.024 70.8403 110.495C71.0451 110.966 73.9943 111.252 81.8176 113.009C89.641 114.765 91.5763 114.857 91.8221 114.749C92.0679 114.642 92.5645 112.471 92.0832 112.404C91.6019 112.338 83.5635 111.048 80.1587 110.259C76.7539 109.471 72.3047 108.493 71.3523 108.447Z" fill="#263238"/>
</svg>
