<svg width="256" height="256" viewBox="0 0 256 256" fill="none" xmlns="http://www.w3.org/2000/svg">
<path d="M256 195.789H0V195.917H256V195.789Z" fill="#E0E0E0"/>
<path d="M201.308 199.68H192.676V199.808H201.308V199.68Z" fill="#E0E0E0"/>
<path d="M229.663 199.619H206.848V199.747H229.663V199.619Z" fill="#E0E0E0"/>
<path d="M164.214 200.479H135.813V200.607H164.214V200.479Z" fill="#E0E0E0"/>
<path d="M132.864 200.479H122.255V200.607H132.864V200.479Z" fill="#E0E0E0"/>
<path d="M77.5987 199.491H72.9395V199.619H77.5987V199.491Z" fill="#E0E0E0"/>
<path d="M88.1408 199.491H80.4403V199.619H88.1408V199.491Z" fill="#E0E0E0"/>
<path d="M68.3264 201.8H34.2477V201.928H68.3264V201.8Z" fill="#E0E0E0"/>
<path d="M121.344 172.954H22.4819C21.7075 172.952 20.9652 172.644 20.418 172.096C19.8708 171.547 19.5635 170.805 19.5635 170.03V31.058C19.5703 30.2879 19.8806 29.5516 20.427 29.009C20.9734 28.4664 21.7119 28.1614 22.4819 28.16H121.344C122.119 28.16 122.863 28.468 123.411 29.0163C123.96 29.5646 124.268 30.3082 124.268 31.0836V170.03C124.268 170.805 123.96 171.549 123.411 172.097C122.863 172.646 122.119 172.954 121.344 172.954ZM22.4819 28.2624C21.7414 28.2638 21.0317 28.5589 20.5085 29.083C19.9854 29.6071 19.6915 30.3174 19.6915 31.058V170.03C19.6915 170.771 19.9854 171.481 20.5085 172.005C21.0317 172.529 21.7414 172.824 22.4819 172.826H121.344C122.085 172.824 122.795 172.529 123.319 172.005C123.843 171.481 124.138 170.771 124.14 170.03V31.058C124.138 30.317 123.843 29.6067 123.319 29.0827C122.795 28.5587 122.085 28.2638 121.344 28.2624H22.4819Z" fill="#E0E0E0"/>
<path d="M232.095 172.954H133.228C132.453 172.952 131.71 172.644 131.162 172.096C130.614 171.548 130.305 170.805 130.304 170.03V31.058C130.312 30.2875 130.624 29.5512 131.171 29.0087C131.718 28.4663 132.457 28.1613 133.228 28.16H232.095C232.864 28.1627 233.601 28.4684 234.146 29.0108C234.692 29.5533 235.001 30.2888 235.008 31.058V170.03C235.008 170.804 234.701 171.546 234.155 172.094C233.609 172.642 232.868 172.951 232.095 172.954ZM133.228 28.2624C132.487 28.2638 131.776 28.5587 131.252 29.0827C130.728 29.6067 130.433 30.317 130.432 31.058V170.03C130.433 170.771 130.728 171.481 131.252 172.005C131.776 172.529 132.487 172.824 133.228 172.826H232.095C232.836 172.824 233.546 172.529 234.07 172.005C234.594 171.481 234.889 170.771 234.89 170.03V31.058C234.889 30.317 234.594 29.6067 234.07 29.0827C233.546 28.5587 232.836 28.2638 232.095 28.2624H133.228Z" fill="#E0E0E0"/>
<path d="M162.708 133.396H138.46V195.789H162.708V133.396Z" fill="#E0E0E0"/>
<path d="M158.101 195.789H162.709V182.687H153.272L158.101 195.789Z" fill="#F0F0F0"/>
<path d="M72.0845 133.396H47.8362V195.789H72.0845V133.396Z" fill="#E0E0E0"/>
<path d="M162.703 133.396H68.0653V187.75H162.703V133.396Z" fill="#F0F0F0"/>
<path d="M116.931 137.344V171.372H159.135V137.344H116.931Z" fill="#E0E0E0"/>
<path d="M71.639 137.349V171.377H113.843V137.349H71.639Z" fill="#E0E0E0"/>
<path d="M159.135 182.687V180.183H116.931V182.687H159.135Z" fill="#E0E0E0"/>
<path d="M113.843 182.687V180.183H71.639V182.687H113.843Z" fill="#E0E0E0"/>
<path d="M159.13 177.848V175.345H116.925V177.848H159.13Z" fill="#E0E0E0"/>
<path d="M113.838 177.854V175.35H71.6339V177.854H113.838Z" fill="#E0E0E0"/>
<path d="M96.9165 141.01H88.576C86.7815 141.01 85.0057 140.645 83.357 139.936C81.7082 139.227 80.2211 138.19 78.9863 136.888H106.496C105.263 138.19 103.777 139.226 102.13 139.935C100.483 140.643 98.7094 141.009 96.9165 141.01Z" fill="#F0F0F0"/>
<path d="M142.633 141.01H134.287C132.493 141.011 130.717 140.646 129.068 139.937C127.419 139.228 125.932 138.191 124.698 136.888H152.223C150.988 138.191 149.501 139.228 147.852 139.937C146.204 140.646 144.428 141.011 142.633 141.01Z" fill="#F0F0F0"/>
<path d="M72.6733 195.789H68.0653V182.687H77.5015L72.6733 195.789Z" fill="#F0F0F0"/>
<path d="M162.186 37.8829H34.9952V110.536H162.186V37.8829Z" fill="#E0E0E0"/>
<path d="M169.221 35.6404H30.72C30.5476 35.6404 30.3822 35.7089 30.2602 35.8308C30.1383 35.9528 30.0698 36.1182 30.0698 36.2906C30.0691 36.3764 30.0854 36.4615 30.1178 36.541C30.1502 36.6205 30.198 36.6928 30.2584 36.7537C30.3189 36.8146 30.3908 36.863 30.47 36.896C30.5492 36.929 30.6342 36.946 30.72 36.946H169.221C169.307 36.946 169.392 36.929 169.471 36.896C169.55 36.863 169.622 36.8146 169.683 36.7537C169.743 36.6928 169.791 36.6205 169.823 36.541C169.856 36.4615 169.872 36.3764 169.871 36.2906C169.871 36.1182 169.803 35.9528 169.681 35.8308C169.559 35.7089 169.394 35.6404 169.221 35.6404Z" fill="#E0E0E0"/>
<path d="M164.971 37.8829H36.2957V110.536H164.971V37.8829Z" fill="#E6E6E6"/>
<path d="M162.186 110.536H34.9952V115.712H162.186V110.536Z" fill="#E0E0E0"/>
<path d="M169.61 110.536H40.9344V115.712H169.61V110.536Z" fill="#E6E6E6"/>
<path d="M161.065 106.634V41.7843L40.192 41.7843V106.634L161.065 106.634Z" fill="#F5F5F5"/>
<path d="M100.014 106.634L122.906 41.7843H133.709L110.817 106.634H100.014Z" fill="#FAFAFA"/>
<path d="M113.142 106.634L136.033 41.7843H140.242L117.356 106.634H113.142Z" fill="#FAFAFA"/>
<path d="M161.065 106.634V41.7843H160.568V106.634H161.065Z" fill="#E0E0E0"/>
<path d="M40.2381 34.473H33.5258V97.0497H40.2381V34.473Z" fill="#EBEBEB"/>
<path d="M42.8544 34.473H37.6269V97.0497H42.8544V34.473Z" fill="#E0E0E0"/>
<path d="M46.9504 34.473H40.2381V97.0497H46.9504V34.473Z" fill="#EBEBEB"/>
<path d="M49.5667 34.473H44.3392V97.0497H49.5667V34.473Z" fill="#E0E0E0"/>
<path d="M53.6627 34.473H46.9504V97.0497H53.6627V34.473Z" fill="#EBEBEB"/>
<path d="M158.566 34.473H154.701V97.0497H158.566V34.473Z" fill="#EBEBEB"/>
<path d="M160.082 34.473H157.066V97.0497H160.082V34.473Z" fill="#E0E0E0"/>
<path d="M162.437 34.473H158.572V97.0497H162.437V34.473Z" fill="#EBEBEB"/>
<path d="M163.948 34.473H160.932V97.0497H163.948V34.473Z" fill="#E0E0E0"/>
<path d="M166.303 34.473H162.437V97.0497H166.303V34.473Z" fill="#EBEBEB"/>
<path d="M201.487 61.6193H192.906V85.033H201.487V61.6193Z" fill="#E6E6E6"/>
<path d="M189.645 88.9396L187.658 94.3514H189.645L201.795 88.9396H189.645Z" fill="#F0F0F0"/>
<path d="M187.658 88.9396V94.3514L199.813 88.9396H187.658Z" fill="#E0E0E0"/>
<path d="M210.427 88.9396L208.44 94.3514H210.427L222.577 88.9396H210.427Z" fill="#F0F0F0"/>
<path d="M208.44 88.9396V94.3514L220.595 88.9396H208.44Z" fill="#E0E0E0"/>
<path d="M178.744 89.1904H191.959V85.0688H178.744V89.1904Z" fill="#E0E0E0"/>
<path d="M229.663 85.0688H191.954V89.1905H229.663V85.0688Z" fill="#F0F0F0"/>
<path d="M215.782 85.033H194.898L192.312 56.6631H213.197L215.782 85.033Z" fill="#E0E0E0"/>
<path d="M216.863 85.033H195.978L193.398 56.6631H214.282L216.863 85.033Z" fill="#F0F0F0"/>
<path d="M198.835 81.8944L196.823 59.8016H211.425L213.437 81.8944H198.835Z" fill="#FAFAFA"/>
<path d="M80.5939 124.288C80.5939 124.288 71.5878 108.769 84.0806 96.4148C84.0806 96.4148 87.3421 98.5396 87.2909 101.397C87.2397 104.254 83.799 104.981 84.5414 107.356C85.2838 109.732 88.5299 112.082 86.3949 114.053C84.2598 116.024 86.7379 117.775 86.5945 120.197C86.4512 122.619 80.5939 124.288 80.5939 124.288Z" fill="#E0E0E0"/>
<path d="M81.2749 125.706C81.2749 125.706 84.9255 108.14 69.1763 100.352C69.1763 100.352 66.7546 103.398 67.7018 106.092C68.649 108.785 72.1408 108.39 72.192 110.884C72.2432 113.377 69.8983 116.623 72.5402 117.821C75.1821 119.02 73.3901 121.467 74.2912 123.709C75.1924 125.952 81.2749 125.706 81.2749 125.706Z" fill="#E0E0E0"/>
<path d="M67.4816 121.815C67.4816 121.815 67.7786 133.397 79.2576 133.397C90.7367 133.397 91.0336 121.815 91.0336 121.815H67.4816Z" fill="#F0F0F0"/>
<path d="M202.931 195.789H204.104L207.442 179.323L208.031 176.44L211.671 158.52H225.644L233.216 195.789H234.389L226.673 157.809C226.646 157.679 226.575 157.564 226.472 157.481C226.37 157.398 226.241 157.352 226.109 157.353H211.205C211.074 157.352 210.946 157.397 210.844 157.48C210.742 157.563 210.672 157.679 210.647 157.809L207.447 173.568L206.848 176.451L202.931 195.789Z" fill="#EBEBEB"/>
<path d="M180.5 195.789H181.673L189.245 158.5H203.218L206.848 176.451L207.432 179.323L210.775 195.789H211.968L208.041 176.44L207.447 173.568L204.247 157.809C204.22 157.68 204.149 157.564 204.047 157.481C203.944 157.398 203.816 157.353 203.684 157.353H188.78C188.648 157.353 188.519 157.398 188.417 157.481C188.314 157.564 188.243 157.68 188.216 157.809L180.5 195.789Z" fill="#EBEBEB"/>
<path d="M214.943 157.926H189.271C186.915 157.926 184.653 157.002 182.97 155.352C181.288 153.703 180.318 151.46 180.27 149.105L179.313 110.08C179.3 109.212 179.459 108.35 179.782 107.544C180.105 106.738 180.585 106.004 181.193 105.385C181.802 104.766 182.528 104.273 183.328 103.937C184.128 103.6 184.988 103.426 185.856 103.424H201.948C203.559 103.424 205.114 104.017 206.316 105.089C207.518 106.162 208.284 107.64 208.466 109.24L214.943 157.926Z" fill="#E6E6E6"/>
<path d="M200.94 153.006H226.063C226.996 153.006 227.891 153.377 228.551 154.036C229.21 154.696 229.581 155.591 229.581 156.524V156.646C229.581 156.986 229.446 157.311 229.206 157.552C228.966 157.792 228.64 157.926 228.301 157.926H200.94V153.006Z" fill="#E6E6E6"/>
<path d="M128 218.911C182.826 218.911 227.272 216.316 227.272 213.115C227.272 209.914 182.826 207.319 128 207.319C73.1738 207.319 28.7283 209.914 28.7283 213.115C28.7283 216.316 73.1738 218.911 128 218.911Z" fill="#F5F5F5"/>
<path d="M95.5136 65.6794C95.5156 64.7257 95.4385 63.7736 95.2832 62.8327C94.597 58.6739 92.4668 54.8901 89.2671 52.1465C86.0674 49.4028 82.0029 47.8748 77.7882 47.8311H77.6346C74.8069 47.8328 72.0203 48.5069 69.5045 49.7977C66.9887 51.0885 64.8159 52.9591 63.1654 55.2551C62.8941 55.6288 62.6534 56.0128 62.4077 56.3968C62.3877 56.4222 62.3705 56.4496 62.3565 56.4787C60.6757 59.2585 59.7902 62.4463 59.7965 65.6947V65.7306C59.807 69.506 61.0138 73.1809 63.2435 76.2276C65.4732 79.2743 68.6111 81.536 72.2065 82.6878C75.802 83.8397 79.67 83.8224 83.255 82.6385C86.84 81.4546 89.9576 79.165 92.16 76.0986C92.4262 75.7248 92.672 75.3459 92.9126 74.9568C92.9327 74.9315 92.9498 74.904 92.9638 74.8749C94.6425 72.1022 95.5247 68.9206 95.5136 65.6794ZM60.5594 65.2749C60.6185 62.3516 61.4354 59.4936 62.9299 56.9805H68.5158C67.6622 59.6636 67.2152 62.4594 67.1898 65.2749H60.5594ZM69.2992 56.9805H77.2659V65.2749H67.9578C67.9747 62.4575 68.4272 59.6596 69.2992 56.9805ZM78.0339 56.2125V48.5735C79.1413 48.6738 80.2018 49.068 81.1059 49.7152C83.0054 51.0157 84.5978 53.2992 85.7139 56.2125H78.0339ZM85.9904 56.9805C86.6238 58.8985 87.0361 60.8825 87.2192 62.8941C87.296 63.6928 87.3318 64.4864 87.3421 65.2749H78.0339V56.9805H85.9904ZM76.1395 48.7885C76.5071 48.6841 76.8846 48.6188 77.2659 48.5939V56.2279H69.5859C71.0195 52.3674 73.344 49.5616 76.1395 48.7731V48.7885ZM77.2659 66.0583V74.3527H69.3146C68.681 72.43 68.2721 70.4404 68.096 68.4237C68.0243 67.625 67.9834 66.8314 67.9731 66.0429L77.2659 66.0583ZM77.2659 75.1207V82.7597C76.1587 82.6586 75.0984 82.2645 74.1939 81.6179C72.2995 80.3175 70.7072 78.0339 69.5859 75.1207H77.2659ZM79.1603 82.56C78.7929 82.6649 78.4153 82.7301 78.0339 82.7546V75.1053H85.7139C84.2803 78.9504 81.9558 81.7613 79.1603 82.5447V82.56ZM78.0339 74.368V66.048H87.3421C87.3276 68.8656 86.8751 71.6639 86.0006 74.3424L78.0339 74.368ZM88.1101 66.048H94.7661C94.7041 68.9709 93.8875 71.8282 92.3955 74.3424H86.784C87.6376 71.6593 88.0846 68.8635 88.1101 66.048ZM94.7661 65.28H88.1101C88.1101 64.4711 88.0589 63.6519 87.9821 62.8275C87.8073 60.843 87.4141 58.8839 86.8096 56.9856H92.3853C93.4628 58.8151 94.1903 60.8291 94.5306 62.9248C94.6525 63.7028 94.7243 64.4877 94.7456 65.2749L94.7661 65.28ZM87.6646 51.7991C89.3381 53.0045 90.781 54.5012 91.9245 56.2176H86.528C85.3811 53.0483 83.6557 50.5395 81.5411 49.0855L81.3773 48.9779C83.6351 49.4835 85.7669 50.4415 87.6442 51.7939L87.6646 51.7991ZM73.9072 48.9882C71.7517 50.4064 69.9802 52.9869 68.7872 56.2176H63.4112L63.785 55.6698C66.2164 52.2756 69.8123 49.8953 73.8867 48.9831L73.9072 48.9882ZM60.5952 66.048H67.2256C67.2256 66.857 67.2768 67.6762 67.3536 68.5005C67.5308 70.4846 67.924 72.4435 68.5261 74.3424H62.9197C61.84 72.514 61.1124 70.4995 60.7744 68.4032C60.6469 67.6242 60.5751 66.8372 60.5594 66.048H60.5952ZM63.4317 75.1104H68.7872C69.9341 78.2797 71.6595 80.7885 73.7741 82.2426L73.943 82.3501C69.641 81.373 65.8783 78.7815 63.4317 75.1104ZM81.408 82.3347C83.5584 80.9216 85.3299 78.336 86.528 75.1053H91.8938C91.7709 75.2896 91.648 75.4739 91.52 75.6531C89.0865 79.0489 85.4861 81.4279 81.408 82.3347Z" fill="#022D5E"/>
<path opacity="0.8" d="M95.5136 65.6794C95.5156 64.7257 95.4385 63.7736 95.2832 62.8327C94.597 58.6739 92.4668 54.8901 89.2671 52.1465C86.0674 49.4028 82.0029 47.8748 77.7882 47.8311H77.6346C74.8069 47.8328 72.0203 48.5069 69.5045 49.7977C66.9887 51.0885 64.8159 52.9591 63.1654 55.2551C62.8941 55.6288 62.6534 56.0128 62.4077 56.3968C62.3877 56.4222 62.3705 56.4496 62.3565 56.4787C60.6757 59.2585 59.7902 62.4463 59.7965 65.6947V65.7306C59.807 69.506 61.0138 73.1809 63.2435 76.2276C65.4732 79.2743 68.6111 81.536 72.2065 82.6878C75.802 83.8397 79.67 83.8224 83.255 82.6385C86.84 81.4546 89.9576 79.165 92.16 76.0986C92.4262 75.7248 92.672 75.3459 92.9126 74.9568C92.9327 74.9315 92.9498 74.904 92.9638 74.8749C94.6425 72.1022 95.5247 68.9206 95.5136 65.6794ZM60.5594 65.2749C60.6185 62.3516 61.4354 59.4936 62.9299 56.9805H68.5158C67.6622 59.6636 67.2152 62.4594 67.1898 65.2749H60.5594ZM69.2992 56.9805H77.2659V65.2749H67.9578C67.9747 62.4575 68.4272 59.6596 69.2992 56.9805ZM78.0339 56.2125V48.5735C79.1413 48.6738 80.2018 49.068 81.1059 49.7152C83.0054 51.0157 84.5978 53.2992 85.7139 56.2125H78.0339ZM85.9904 56.9805C86.6238 58.8985 87.0361 60.8825 87.2192 62.8941C87.296 63.6928 87.3318 64.4864 87.3421 65.2749H78.0339V56.9805H85.9904ZM76.1395 48.7885C76.5071 48.6841 76.8846 48.6188 77.2659 48.5939V56.2279H69.5859C71.0195 52.3674 73.344 49.5616 76.1395 48.7731V48.7885ZM77.2659 66.0583V74.3527H69.3146C68.681 72.43 68.2721 70.4404 68.096 68.4237C68.0243 67.625 67.9834 66.8314 67.9731 66.0429L77.2659 66.0583ZM77.2659 75.1207V82.7597C76.1587 82.6586 75.0984 82.2645 74.1939 81.6179C72.2995 80.3175 70.7072 78.0339 69.5859 75.1207H77.2659ZM79.1603 82.56C78.7929 82.6649 78.4153 82.7301 78.0339 82.7546V75.1053H85.7139C84.2803 78.9504 81.9558 81.7613 79.1603 82.5447V82.56ZM78.0339 74.368V66.048H87.3421C87.3276 68.8656 86.8751 71.6639 86.0006 74.3424L78.0339 74.368ZM88.1101 66.048H94.7661C94.7041 68.9709 93.8875 71.8282 92.3955 74.3424H86.784C87.6376 71.6593 88.0846 68.8635 88.1101 66.048ZM94.7661 65.28H88.1101C88.1101 64.4711 88.0589 63.6519 87.9821 62.8275C87.8073 60.843 87.4141 58.8839 86.8096 56.9856H92.3853C93.4628 58.8151 94.1903 60.8291 94.5306 62.9248C94.6525 63.7028 94.7243 64.4877 94.7456 65.2749L94.7661 65.28ZM87.6646 51.7991C89.3381 53.0045 90.781 54.5012 91.9245 56.2176H86.528C85.3811 53.0483 83.6557 50.5395 81.5411 49.0855L81.3773 48.9779C83.6351 49.4835 85.7669 50.4415 87.6442 51.7939L87.6646 51.7991ZM73.9072 48.9882C71.7517 50.4064 69.9802 52.9869 68.7872 56.2176H63.4112L63.785 55.6698C66.2164 52.2756 69.8123 49.8953 73.8867 48.9831L73.9072 48.9882ZM60.5952 66.048H67.2256C67.2256 66.857 67.2768 67.6762 67.3536 68.5005C67.5308 70.4846 67.924 72.4435 68.5261 74.3424H62.9197C61.84 72.514 61.1124 70.4995 60.7744 68.4032C60.6469 67.6242 60.5751 66.8372 60.5594 66.048H60.5952ZM63.4317 75.1104H68.7872C69.9341 78.2797 71.6595 80.7885 73.7741 82.2426L73.943 82.3501C69.641 81.373 65.8783 78.7815 63.4317 75.1104ZM81.408 82.3347C83.5584 80.9216 85.3299 78.336 86.528 75.1053H91.8938C91.7709 75.2896 91.648 75.4739 91.52 75.6531C89.0865 79.0489 85.4861 81.4279 81.408 82.3347Z" fill="#FAFAFA"/>
<path d="M212.117 74.1888H51.1437V113.193H212.117V74.1888Z" fill="#022D5E"/>
<path opacity="0.6" d="M212.117 74.1888H51.1437V113.193H212.117V74.1888Z" fill="#FAFAFA"/>
<path d="M208.486 77.8188H47.5136V116.823H208.486V77.8188Z" fill="#022D5E"/>
<path opacity="0.3" d="M208.486 77.8188H47.5136V116.823H208.486V77.8188Z" fill="black"/>
<path d="M204.856 81.449H43.8835V120.453H204.856V81.449Z" fill="#022D5E"/>
<path opacity="0.1" d="M204.856 81.449H43.8835V120.453H204.856V81.449Z" fill="#FAFAFA"/>
<path d="M197.176 112.773V89.1289L51.5635 89.1289V112.773L197.176 112.773Z" fill="#022D5E"/>
<path opacity="0.9" d="M197.176 112.773V89.1289L51.5635 89.1289V112.773L197.176 112.773Z" fill="#FAFAFA"/>
<path d="M172.682 89.1289V112.773H173.537V89.1289H172.682Z" fill="#022D5E"/>
<path opacity="0.6" d="M172.682 89.1289V112.773H173.537V89.1289H172.682Z" fill="#FAFAFA"/>
<path d="M55.1936 92.3904V109.512H56.0486V92.3904H55.1936Z" fill="#022D5E"/>
<path opacity="0.6" d="M55.1936 92.3904V109.512H56.0486V92.3904H55.1936Z" fill="#FAFAFA"/>
<path d="M184.54 103.936C183.919 103.936 183.307 103.782 182.759 103.489C182.212 103.196 181.745 102.773 181.399 102.256C181.054 101.739 180.842 101.146 180.781 100.527C180.721 99.909 180.813 99.2852 181.051 98.7113C181.289 98.1373 181.664 97.6308 182.145 97.2367C182.625 96.8425 183.195 96.5729 183.804 96.4516C184.413 96.3303 185.043 96.3612 185.638 96.5414C186.232 96.7216 186.773 97.0456 187.213 97.4848C187.742 98.0133 188.102 98.6867 188.248 99.4199C188.394 100.153 188.319 100.913 188.033 101.604C187.746 102.294 187.262 102.885 186.64 103.3C186.019 103.715 185.288 103.936 184.54 103.936ZM184.54 97.408C183.903 97.4082 183.285 97.6295 182.793 98.034C182.3 98.4386 181.963 99.0015 181.839 99.6268C181.715 100.252 181.812 100.901 182.113 101.463C182.414 102.025 182.9 102.465 183.489 102.708C184.078 102.952 184.734 102.983 185.343 102.798C185.953 102.612 186.48 102.221 186.833 101.69C187.187 101.16 187.345 100.523 187.282 99.8889C187.219 99.2546 186.937 98.6619 186.486 98.2119C186.233 97.9511 185.931 97.7434 185.597 97.601C185.262 97.4586 184.903 97.3843 184.54 97.3824V97.408Z" fill="#022D5E"/>
<path d="M189.44 105.544C189.372 105.543 189.305 105.53 189.243 105.503C189.18 105.477 189.124 105.438 189.076 105.39L186.491 102.804C186.437 102.759 186.394 102.702 186.363 102.639C186.332 102.575 186.315 102.506 186.312 102.435C186.31 102.365 186.321 102.294 186.347 102.229C186.373 102.163 186.412 102.103 186.462 102.054C186.512 102.004 186.571 101.965 186.637 101.939C186.703 101.913 186.773 101.901 186.844 101.904C186.914 101.907 186.983 101.924 187.047 101.955C187.11 101.985 187.167 102.029 187.213 102.083L189.798 104.668C189.894 104.764 189.947 104.894 189.947 105.029C189.947 105.164 189.894 105.294 189.798 105.39C189.704 105.487 189.575 105.542 189.44 105.544Z" fill="#022D5E"/>
<g opacity="0.6">
<path d="M184.54 103.936C183.919 103.936 183.307 103.782 182.759 103.489C182.212 103.196 181.745 102.773 181.399 102.256C181.054 101.739 180.842 101.146 180.781 100.527C180.721 99.909 180.813 99.2852 181.051 98.7113C181.289 98.1373 181.664 97.6308 182.145 97.2367C182.625 96.8425 183.195 96.5729 183.804 96.4516C184.413 96.3303 185.043 96.3612 185.638 96.5414C186.232 96.7216 186.773 97.0456 187.213 97.4848C187.742 98.0133 188.102 98.6867 188.248 99.4199C188.394 100.153 188.319 100.913 188.033 101.604C187.746 102.294 187.262 102.885 186.64 103.3C186.019 103.715 185.288 103.936 184.54 103.936ZM184.54 97.408C183.903 97.4082 183.285 97.6295 182.793 98.034C182.3 98.4386 181.963 99.0015 181.839 99.6268C181.715 100.252 181.812 100.901 182.113 101.463C182.414 102.025 182.9 102.465 183.489 102.708C184.078 102.952 184.734 102.983 185.343 102.798C185.953 102.612 186.48 102.221 186.833 101.69C187.187 101.16 187.345 100.523 187.282 99.8889C187.219 99.2546 186.937 98.6619 186.486 98.2119C186.233 97.9511 185.931 97.7434 185.597 97.601C185.262 97.4586 184.903 97.3843 184.54 97.3824V97.408Z" fill="#FAFAFA"/>
<path d="M189.44 105.544C189.372 105.543 189.305 105.53 189.243 105.503C189.18 105.477 189.124 105.438 189.076 105.39L186.491 102.804C186.437 102.759 186.394 102.702 186.363 102.639C186.332 102.575 186.315 102.506 186.312 102.435C186.31 102.365 186.321 102.294 186.347 102.229C186.373 102.163 186.412 102.103 186.462 102.054C186.512 102.004 186.571 101.965 186.637 101.939C186.703 101.913 186.773 101.901 186.844 101.904C186.914 101.907 186.983 101.924 187.047 101.955C187.11 101.985 187.167 102.029 187.213 102.083L189.798 104.668C189.894 104.764 189.947 104.894 189.947 105.029C189.947 105.164 189.894 105.294 189.798 105.39C189.704 105.487 189.575 105.542 189.44 105.544Z" fill="#FAFAFA"/>
</g>
<path d="M149.806 50.6112H133.709V51.0106H149.806V50.6112Z" fill="#022D5E"/>
<path d="M149.806 52.3059H133.709V52.7053H149.806V52.3059Z" fill="#022D5E"/>
<path d="M149.806 54.0057H133.709V54.4051H149.806V54.0057Z" fill="#022D5E"/>
<path d="M149.806 55.7004H133.709V56.0998H149.806V55.7004Z" fill="#022D5E"/>
<path d="M149.806 57.3951H133.709V57.7945H149.806V57.3951Z" fill="#022D5E"/>
<path d="M144.205 59.095H133.709V59.4943H144.205V59.095Z" fill="#022D5E"/>
<g opacity="0.5">
<path d="M149.806 50.6112H133.709V51.0106H149.806V50.6112Z" fill="#FAFAFA"/>
<path d="M149.806 52.3059H133.709V52.7053H149.806V52.3059Z" fill="#FAFAFA"/>
<path d="M149.806 54.0057H133.709V54.4051H149.806V54.0057Z" fill="#FAFAFA"/>
<path d="M149.806 55.7004H133.709V56.0998H149.806V55.7004Z" fill="#FAFAFA"/>
<path d="M149.806 57.3953H133.709V57.7946H149.806V57.3953Z" fill="#FAFAFA"/>
<path d="M144.205 59.0951H133.709V59.4945H144.205V59.0951Z" fill="#FAFAFA"/>
</g>
<path d="M52.9152 123.822H35.7632V124.078H52.9152V123.822Z" fill="#022D5E"/>
<path d="M52.9152 124.907H35.7632V125.163H52.9152V124.907Z" fill="#022D5E"/>
<path d="M52.9152 125.993H35.7632V126.249H52.9152V125.993Z" fill="#022D5E"/>
<path d="M52.9152 127.078H35.7632V127.334H52.9152V127.078Z" fill="#022D5E"/>
<path d="M52.9152 128.164H35.7632V128.42H52.9152V128.164Z" fill="#022D5E"/>
<path d="M46.5459 129.254H35.7632V129.51H46.5459V129.254Z" fill="#022D5E"/>
<g opacity="0.4">
<path d="M52.9152 123.822H35.7632V124.078H52.9152V123.822Z" fill="#FAFAFA"/>
<path d="M52.9152 124.907H35.7632V125.163H52.9152V124.907Z" fill="#FAFAFA"/>
<path d="M52.9152 125.993H35.7632V126.249H52.9152V125.993Z" fill="#FAFAFA"/>
<path d="M52.9152 127.078H35.7632V127.334H52.9152V127.078Z" fill="#FAFAFA"/>
<path d="M52.9152 128.164H35.7632V128.42H52.9152V128.164Z" fill="#FAFAFA"/>
<path d="M46.5459 129.254H35.7632V129.51H46.5459V129.254Z" fill="#FAFAFA"/>
</g>
<path d="M109.286 53.1251C108.428 53.1251 107.605 53.466 106.998 54.0729C106.391 54.6797 106.051 55.5028 106.051 56.361V67.0362C106.051 67.8944 106.391 68.7174 106.998 69.3242C107.605 69.9311 108.428 70.272 109.286 70.272C110.145 70.272 110.968 69.9311 111.574 69.3242C112.181 68.7174 112.522 67.8944 112.522 67.0362V56.361C112.522 55.5028 112.181 54.6797 111.574 54.0729C110.968 53.466 110.145 53.1251 109.286 53.1251Z" fill="#022D5E"/>
<path opacity="0.2" d="M109.286 53.1251C108.428 53.1251 107.605 53.466 106.998 54.0729C106.391 54.6797 106.051 55.5028 106.051 56.361V67.0362C106.051 67.8944 106.391 68.7174 106.998 69.3242C107.605 69.9311 108.428 70.272 109.286 70.272C110.145 70.272 110.968 69.9311 111.574 69.3242C112.181 68.7174 112.522 67.8944 112.522 67.0362V56.361C112.522 55.5028 112.181 54.6797 111.574 54.0729C110.968 53.466 110.145 53.1251 109.286 53.1251Z" fill="#FAFAFA"/>
<path d="M117.396 46.7609C116.541 46.765 115.722 47.1077 115.118 47.7141C114.515 48.3205 114.176 49.1412 114.176 49.9967V67.0361C114.176 67.8943 114.517 68.7173 115.124 69.3242C115.731 69.931 116.554 70.2719 117.412 70.2719C118.27 70.2719 119.093 69.931 119.7 69.3242C120.307 68.7173 120.648 67.8943 120.648 67.0361V49.9967C120.648 49.5705 120.563 49.1485 120.4 48.7549C120.236 48.3613 119.997 48.0039 119.694 47.7032C119.392 47.4025 119.034 47.1645 118.639 47.0028C118.245 46.8411 117.823 46.7589 117.396 46.7609Z" fill="#022D5E"/>
<path opacity="0.3" d="M117.396 46.7609C116.541 46.765 115.722 47.1077 115.118 47.7141C114.515 48.3205 114.176 49.1412 114.176 49.9967V67.0361C114.176 67.8943 114.517 68.7173 115.124 69.3242C115.731 69.931 116.554 70.2719 117.412 70.2719C118.27 70.2719 119.093 69.931 119.7 69.3242C120.307 68.7173 120.648 67.8943 120.648 67.0361V49.9967C120.648 49.5705 120.563 49.1485 120.4 48.7549C120.236 48.3613 119.997 48.0039 119.694 47.7032C119.392 47.4025 119.034 47.1645 118.639 47.0028C118.245 46.8411 117.823 46.7589 117.396 46.7609Z" fill="black"/>
<path d="M125.501 59.4893C124.643 59.4893 123.82 59.8302 123.213 60.437C122.606 61.0439 122.266 61.8669 122.266 62.7251V67.0361C122.266 67.8943 122.606 68.7174 123.213 69.3242C123.82 69.9311 124.643 70.272 125.501 70.272C125.927 70.2727 126.348 70.1895 126.741 70.0271C127.134 69.8648 127.492 69.6266 127.793 69.326C128.094 69.0255 128.333 68.6686 128.496 68.2756C128.658 67.8827 128.742 67.4615 128.742 67.0361V62.7251C128.742 62.2997 128.658 61.8785 128.496 61.4856C128.333 61.0927 128.094 60.7357 127.793 60.4352C127.492 60.1347 127.134 59.8964 126.741 59.7341C126.348 59.5718 125.927 59.4886 125.501 59.4893Z" fill="#022D5E"/>
<path opacity="0.6" d="M125.501 59.4893C124.643 59.4893 123.82 59.8302 123.213 60.437C122.606 61.0439 122.266 61.8669 122.266 62.7251V67.0361C122.266 67.8943 122.606 68.7174 123.213 69.3242C123.82 69.9311 124.643 70.272 125.501 70.272C125.927 70.2727 126.348 70.1895 126.741 70.0271C127.134 69.8648 127.492 69.6266 127.793 69.326C128.094 69.0255 128.333 68.6686 128.496 68.2756C128.658 67.8827 128.742 67.4615 128.742 67.0361V62.7251C128.742 62.2997 128.658 61.8785 128.496 61.4856C128.333 61.0927 128.094 60.7357 127.793 60.4352C127.492 60.1347 127.134 59.8964 126.741 59.7341C126.348 59.5718 125.927 59.4886 125.501 59.4893Z" fill="#FAFAFA"/>
<path d="M193.848 132.675H206.93L184.596 109.512L193.848 132.675Z" fill="#022D5E"/>
<g opacity="0.1">
<path d="M193.848 132.675H206.93L184.596 109.512L193.848 132.675Z" fill="black"/>
</g>
<g style="mix-blend-mode:multiply">
<path d="M181.274 120.448L184.596 109.512L186.481 120.448H181.274Z" fill="#022D5E"/>
</g>
<path d="M184.596 109.512V141.921L186.911 139.612L193.848 132.675L184.596 109.512Z" fill="#022D5E"/>
<path opacity="0.3" d="M184.596 109.512V141.921L186.911 139.612L193.848 132.675L184.596 109.512Z" fill="#FAFAFA"/>
<path d="M207.729 39.9923H179.057C177.604 39.9977 176.211 40.577 175.183 41.604C174.155 42.6311 173.575 44.0227 173.568 45.4758V60.2829C173.575 61.7351 174.155 63.126 175.182 64.1529C176.208 65.1798 177.599 65.7597 179.052 65.7664H200.09L199.936 70.9427L205.245 65.7664H207.718C209.172 65.761 210.564 65.1817 211.592 64.1547C212.62 63.1276 213.2 61.736 213.207 60.2829V45.4758C213.2 44.0245 212.621 42.6344 211.595 41.6076C210.57 40.5809 209.18 40.0004 207.729 39.9923ZM178.412 46.3001C178.412 45.8928 178.573 45.5021 178.861 45.214C179.149 44.926 179.54 44.7641 179.948 44.7641H186.547C186.955 44.7641 187.345 44.926 187.633 45.214C187.921 45.5021 188.083 45.8928 188.083 46.3001C188.083 46.7075 187.921 47.0982 187.633 47.3863C187.345 47.6743 186.955 47.8361 186.547 47.8361H179.942C179.536 47.8348 179.147 47.6724 178.86 47.3845C178.573 47.0965 178.412 46.7066 178.412 46.3001ZM206.1 60.6361H194.693C194.472 60.6748 194.246 60.6647 194.029 60.6065C193.813 60.5483 193.612 60.4435 193.44 60.2993C193.268 60.1551 193.13 59.9751 193.036 59.7719C192.941 59.5688 192.892 59.3473 192.892 59.1232C192.892 58.899 192.941 58.6776 193.036 58.4744C193.13 58.2713 193.268 58.0913 193.44 57.9471C193.612 57.8029 193.813 57.6981 194.029 57.6399C194.246 57.5817 194.472 57.5715 194.693 57.6102H206.1C206.321 57.5715 206.548 57.5817 206.764 57.6399C206.981 57.6981 207.182 57.8029 207.354 57.9471C207.525 58.0913 207.663 58.2713 207.758 58.4744C207.852 58.6776 207.902 58.899 207.902 59.1232C207.902 59.3473 207.852 59.5688 207.758 59.7719C207.663 59.9751 207.525 60.1551 207.354 60.2993C207.182 60.4435 206.981 60.5483 206.764 60.6065C206.548 60.6647 206.321 60.6748 206.1 60.6361ZM206.1 54.231H181.478C181.258 54.2697 181.031 54.2596 180.815 54.2014C180.598 54.1432 180.397 54.0383 180.225 53.8942C180.054 53.75 179.916 53.57 179.821 53.3668C179.726 53.1637 179.677 52.9422 179.677 52.7181C179.677 52.4939 179.726 52.2725 179.821 52.0693C179.916 51.8661 180.054 51.6861 180.225 51.542C180.397 51.3978 180.598 51.2929 180.815 51.2347C181.031 51.1765 181.258 51.1664 181.478 51.2051H206.1C206.321 51.1664 206.548 51.1765 206.764 51.2347C206.981 51.2929 207.182 51.3978 207.354 51.542C207.525 51.6861 207.663 51.8661 207.758 52.0693C207.852 52.2725 207.902 52.4939 207.902 52.7181C207.902 52.9422 207.852 53.1637 207.758 53.3668C207.663 53.57 207.525 53.75 207.354 53.8942C207.182 54.0383 206.981 54.1432 206.764 54.2014C206.548 54.2596 206.321 54.2697 206.1 54.231ZM206.1 47.8259H191.524C191.116 47.8259 190.726 47.6641 190.438 47.376C190.15 47.088 189.988 46.6973 189.988 46.2899C189.988 45.8825 190.15 45.4918 190.438 45.2038C190.726 44.9157 191.116 44.7539 191.524 44.7539H206.1C206.508 44.7539 206.899 44.9157 207.187 45.2038C207.475 45.4918 207.636 45.8825 207.636 46.2899C207.636 46.6973 207.475 47.088 207.187 47.376C206.899 47.6641 206.508 47.8259 206.1 47.8259Z" fill="#022D5E"/>
<path d="M162.888 86.9273C161.663 83.5635 159.794 80.4712 157.384 77.824H116.675C114.265 80.4712 112.395 83.5635 111.171 86.9273L116.803 114.964C121.111 119.635 126.904 122.67 133.196 123.554C139.489 124.438 145.894 123.116 151.322 119.813C156.751 116.51 160.869 111.43 162.976 105.435C165.083 99.4401 165.05 92.9006 162.883 86.9273H162.888Z" fill="#022D5E"/>
<path opacity="0.1" d="M162.888 86.9273C161.663 83.5635 159.794 80.4712 157.384 77.824H116.675C114.265 80.4712 112.395 83.5635 111.171 86.9273L116.803 114.964C121.111 119.635 126.904 122.67 133.196 123.554C139.489 124.438 145.894 123.116 151.322 119.813C156.751 116.51 160.869 111.43 162.976 105.435C165.083 99.4401 165.05 92.9006 162.883 86.9273H162.888Z" fill="#FAFAFA"/>
<path d="M164.511 97.5923C164.22 104.057 161.652 110.211 157.261 114.964H116.813C113.398 111.254 111.067 106.678 110.074 101.734C109.081 96.7901 109.464 91.6686 111.181 86.9274H162.893C164.135 90.3397 164.685 93.9652 164.511 97.5923Z" fill="#022D5E"/>
<path opacity="0.9" d="M164.511 97.5923C164.22 104.057 161.652 110.211 157.261 114.964H116.813C113.398 111.254 111.067 106.678 110.074 101.734C109.081 96.7901 109.464 91.6686 111.181 86.9274H162.893C164.135 90.3397 164.685 93.9652 164.511 97.5923Z" fill="#FAFAFA"/>
<path opacity="0.3" d="M164.511 97.5923C164.192 104.395 161.356 110.837 156.553 115.666C151.75 120.494 145.324 123.365 138.523 123.72C131.721 124.075 125.031 121.889 119.752 117.586C114.472 113.283 110.981 107.172 109.957 100.439C108.932 93.7056 110.447 86.8321 114.207 81.1538C117.968 75.4755 123.705 71.3979 130.304 69.7134C136.903 68.029 143.892 68.8579 149.914 72.0392C155.936 75.2205 160.56 80.527 162.888 86.9273C164.13 90.3398 164.681 93.9649 164.511 97.5923Z" fill="white"/>
<path opacity="0.4" d="M152.535 73.6051L112.978 109.681C112.78 109.315 112.585 108.947 112.394 108.575C111.185 106.153 110.344 103.565 109.901 100.895L144.067 69.7344C147.09 70.5311 149.954 71.8403 152.535 73.6051Z" fill="white"/>
<path opacity="0.4" d="M163.118 87.5879L125.952 121.503C122.097 119.802 118.684 117.237 115.978 114.007L156.59 76.969C159.55 79.9627 161.783 83.5956 163.118 87.5879Z" fill="white"/>
<path d="M164.5 80.4608C161.363 75.0205 156.682 70.6331 151.05 67.8537C145.419 65.0743 139.089 64.0278 132.863 64.8467C126.636 65.6656 120.792 68.3131 116.071 72.4541C111.349 76.5952 107.962 82.0437 106.338 88.1103C104.714 94.1768 104.925 100.589 106.946 106.535C108.967 112.481 112.707 117.694 117.691 121.515C122.676 125.335 128.682 127.591 134.949 127.997C141.216 128.403 147.463 126.942 152.899 123.797C160.179 119.584 165.491 112.654 167.666 104.529C169.841 96.4039 168.703 87.7474 164.5 80.4608ZM115.348 108.846C112.873 104.559 111.724 99.6337 112.048 94.6936C112.371 89.7534 114.153 85.0202 117.166 81.0924C120.18 77.1645 124.29 74.2185 128.978 72.6268C133.666 71.0351 138.721 70.8692 143.503 72.1501C148.285 73.4311 152.58 76.1012 155.844 79.823C159.109 83.5448 161.197 88.1511 161.843 93.0593C162.49 97.9676 161.667 102.957 159.478 107.398C157.289 111.838 153.832 115.53 149.545 118.006C146.699 119.65 143.556 120.717 140.297 121.146C137.039 121.576 133.727 121.359 130.552 120.508C127.377 119.658 124.4 118.19 121.793 116.189C119.185 114.188 116.997 111.693 115.354 108.846H115.348Z" fill="#022D5E"/>
<path opacity="0.1" d="M164.5 80.4608C161.363 75.0205 156.682 70.6331 151.05 67.8537C145.419 65.0743 139.089 64.0278 132.863 64.8467C126.636 65.6656 120.792 68.3131 116.071 72.4541C111.349 76.5952 107.962 82.0437 106.338 88.1103C104.714 94.1768 104.925 100.589 106.946 106.535C108.967 112.481 112.707 117.694 117.691 121.515C122.676 125.335 128.682 127.591 134.949 127.997C141.216 128.403 147.463 126.942 152.899 123.797C160.179 119.584 165.491 112.654 167.666 104.529C169.841 96.4039 168.703 87.7474 164.5 80.4608ZM115.348 108.846C112.873 104.559 111.724 99.6337 112.048 94.6936C112.371 89.7534 114.153 85.0202 117.166 81.0924C120.18 77.1645 124.29 74.2185 128.978 72.6268C133.666 71.0351 138.721 70.8692 143.503 72.1501C148.285 73.4311 152.58 76.1012 155.844 79.823C159.109 83.5448 161.197 88.1511 161.843 93.0593C162.49 97.9676 161.667 102.957 159.478 107.398C157.289 111.838 153.832 115.53 149.545 118.006C146.699 119.65 143.556 120.717 140.297 121.146C137.039 121.576 133.727 121.359 130.552 120.508C127.377 119.658 124.4 118.19 121.793 116.189C119.185 114.188 116.997 111.693 115.354 108.846H115.348Z" fill="black"/>
<path d="M64.0307 128.968L67.9527 129.879L64.7015 132.306C64.7015 132.306 62.3719 131.251 62.2643 129.597L64.0307 128.968Z" fill="#C9916C"/>
<path d="M70.0519 132.49L67.2256 134.374L64.7015 132.306L67.9527 129.884L70.0519 132.49Z" fill="#C9916C"/>
<path d="M114.417 113.039C110.249 116.111 105.974 119.03 101.678 121.882C97.3824 124.733 93.0304 127.514 88.6579 130.243C84.2855 132.972 79.872 135.644 75.4432 138.24C73.2314 139.561 70.9991 140.841 68.7872 142.141C67.6885 142.841 66.4906 143.371 65.2339 143.713C64.5634 143.891 63.8778 144.006 63.1859 144.056C62.4178 144.119 61.6448 144.079 60.8871 143.939C60.3456 143.831 59.8305 143.619 59.3714 143.312C58.9122 143.006 58.518 142.612 58.2113 142.153C57.9045 141.694 57.6913 141.179 57.5838 140.638C57.4763 140.096 57.4766 139.539 57.5847 138.998C57.6197 138.824 57.6676 138.653 57.728 138.486C57.9752 137.76 58.3196 137.071 58.752 136.438C59.1377 135.868 59.5766 135.337 60.0627 134.851C60.9887 133.934 62.0466 133.161 63.2013 132.557C65.4387 131.282 67.6608 129.997 69.9136 128.732C74.3987 126.198 78.9248 123.73 83.4611 121.293C87.9974 118.856 92.5901 116.495 97.2083 114.191C101.827 111.887 106.481 109.645 111.232 107.576C111.949 107.259 112.758 107.218 113.503 107.461C114.249 107.704 114.878 108.214 115.27 108.893C115.663 109.572 115.791 110.372 115.629 111.139C115.468 111.906 115.029 112.586 114.396 113.05L114.417 113.039Z" fill="#022D5E"/>
<path opacity="0.1" d="M114.417 113.039C110.249 116.111 105.974 119.03 101.678 121.882C97.3824 124.733 93.0304 127.514 88.6579 130.243C84.2855 132.972 79.872 135.644 75.4432 138.24C73.2314 139.561 70.9991 140.841 68.7872 142.141C67.6885 142.841 66.4906 143.371 65.2339 143.713C64.5634 143.891 63.8778 144.006 63.1859 144.056C62.4178 144.119 61.6448 144.079 60.8871 143.939C60.3456 143.831 59.8305 143.619 59.3714 143.312C58.9122 143.006 58.518 142.612 58.2113 142.153C57.9045 141.694 57.6913 141.179 57.5838 140.638C57.4763 140.096 57.4766 139.539 57.5847 138.998C57.6197 138.824 57.6676 138.653 57.728 138.486C57.9752 137.76 58.3196 137.071 58.752 136.438C59.1377 135.868 59.5766 135.337 60.0627 134.851C60.9887 133.934 62.0466 133.161 63.2013 132.557C65.4387 131.282 67.6608 129.997 69.9136 128.732C74.3987 126.198 78.9248 123.73 83.4611 121.293C87.9974 118.856 92.5901 116.495 97.2083 114.191C101.827 111.887 106.481 109.645 111.232 107.576C111.949 107.259 112.758 107.218 113.503 107.461C114.249 107.704 114.878 108.214 115.27 108.893C115.663 109.572 115.791 110.372 115.629 111.139C115.468 111.906 115.029 112.586 114.396 113.05L114.417 113.039Z" fill="black"/>
<path d="M69.714 104.714C69.458 105.129 69.1661 105.631 68.8896 106.102C68.6132 106.573 68.3418 107.064 68.0858 107.561C67.5738 108.539 67.0618 109.532 66.5498 110.541C66.0378 111.549 65.6231 112.589 65.2032 113.613C64.9984 114.125 64.7834 114.637 64.594 115.149L64.3072 115.932C64.2509 116.081 64.2407 116.142 64.2048 116.25C64.169 116.357 64.1536 116.46 64.1229 116.562C63.9231 117.574 63.8219 118.603 63.8208 119.634C63.7952 120.735 63.8208 121.856 63.8823 122.988C63.9437 124.119 64.0051 125.256 64.1075 126.392C64.2099 127.529 64.3123 128.686 64.4199 129.812L62.4436 130.217C62.0954 129.075 61.824 127.939 61.5527 126.787C61.2813 125.635 61.0765 124.477 60.8768 123.3C60.6772 122.122 60.544 120.94 60.457 119.716C60.3505 118.434 60.3831 117.145 60.5543 115.871C60.585 115.692 60.6106 115.523 60.6567 115.359C60.7028 115.195 60.7488 114.964 60.7898 114.847L61.0407 113.976C61.2045 113.398 61.394 112.824 61.5885 112.256C61.9828 111.114 62.4128 109.993 62.8941 108.887C63.3754 107.781 63.8874 106.701 64.4301 105.636C64.7117 105.124 65.0087 104.576 65.3107 104.049C65.6128 103.521 65.9149 103.025 66.2938 102.467L69.714 104.714Z" fill="#C9916C"/>
<path d="M67.5277 210.432C67.1822 210.421 66.8389 210.373 66.5037 210.289C66.4858 210.286 66.4692 210.277 66.4564 210.264C66.4435 210.251 66.435 210.235 66.432 210.217C66.4288 210.199 66.4309 210.18 66.4382 210.162C66.4454 210.145 66.4575 210.13 66.473 210.12C66.6112 210.028 67.8195 209.249 68.2855 209.459C68.3373 209.483 68.3817 209.52 68.4141 209.567C68.4466 209.614 68.4658 209.669 68.4698 209.725C68.4938 209.817 68.4922 209.913 68.4651 210.003C68.438 210.093 68.3865 210.175 68.3162 210.237C68.0855 210.395 67.8054 210.465 67.5277 210.432ZM66.7443 210.156C67.4407 210.294 67.9629 210.268 68.1626 210.084C68.2065 210.042 68.2385 209.989 68.2556 209.93C68.2727 209.872 68.2741 209.81 68.2599 209.751C68.2592 209.725 68.2512 209.7 68.2367 209.678C68.2222 209.656 68.2018 209.639 68.178 209.628C67.9373 209.521 67.2359 209.859 66.7443 210.156Z" fill="#022D5E"/>
<path d="M66.4986 210.294C66.4835 210.298 66.4675 210.298 66.4525 210.294C66.4378 210.286 66.4256 210.274 66.4174 210.26C66.4093 210.245 66.4054 210.228 66.4064 210.212C66.4064 210.166 66.4064 209.019 66.8416 208.635C66.8954 208.587 66.9587 208.55 67.0276 208.528C67.0964 208.506 67.1691 208.499 67.241 208.507C67.3164 208.508 67.3893 208.535 67.4471 208.583C67.5049 208.632 67.5442 208.699 67.5584 208.773C67.6506 209.219 66.9235 210.079 66.5344 210.309C66.5214 210.307 66.5091 210.302 66.4986 210.294ZM67.1795 208.676C67.1019 208.677 67.0272 208.706 66.9696 208.758C66.7179 209.129 66.5889 209.569 66.601 210.017C66.9798 209.71 67.4304 209.065 67.3741 208.794C67.3741 208.747 67.3382 208.696 67.2205 208.681L67.1795 208.676Z" fill="#022D5E"/>
<path d="M85.6627 210.432C85.2409 210.426 84.8207 210.378 84.4083 210.289C84.3887 210.286 84.3704 210.278 84.3565 210.264C84.3425 210.25 84.3337 210.231 84.3315 210.212C84.3293 210.192 84.3329 210.173 84.3421 210.155C84.3512 210.138 84.3654 210.124 84.3827 210.115C84.5619 210.022 86.1491 209.213 86.6355 209.48C86.6823 209.504 86.722 209.539 86.7507 209.583C86.7795 209.627 86.7962 209.678 86.7994 209.731C86.8105 209.815 86.8005 209.901 86.7701 209.98C86.7397 210.06 86.6899 210.131 86.6253 210.186C86.3422 210.376 86.0023 210.463 85.6627 210.432ZM84.7206 210.155C85.6064 210.304 86.2566 210.263 86.5024 210.048C86.5432 210.01 86.5743 209.963 86.593 209.91C86.6117 209.857 86.6175 209.801 86.6099 209.746C86.6097 209.725 86.6039 209.704 86.5931 209.686C86.5823 209.668 86.5669 209.654 86.5485 209.643C86.2822 209.5 85.3709 209.843 84.7206 210.155Z" fill="#022D5E"/>
<path d="M84.4237 210.294C84.4156 210.297 84.4069 210.299 84.3981 210.299C84.3893 210.299 84.3806 210.297 84.3725 210.294C84.3578 210.286 84.3459 210.274 84.3385 210.26C84.3311 210.245 84.3287 210.228 84.3316 210.212C84.3316 210.166 84.4288 209.091 84.9255 208.676C85.0682 208.556 85.2519 208.498 85.4375 208.512C85.6986 208.538 85.7703 208.671 85.7908 208.778C85.8624 209.229 84.9255 210.089 84.4493 210.314L84.4237 210.294ZM85.376 208.676C85.2558 208.677 85.1398 208.721 85.0484 208.799C84.7547 209.146 84.5758 209.575 84.5364 210.028C85.0176 209.736 85.6576 209.06 85.6116 208.789C85.6116 208.789 85.6116 208.696 85.4272 208.681L85.376 208.676Z" fill="#022D5E"/>
<path d="M75.776 89.3389C76.0883 91.7299 76.8 96.5785 75.0695 98.0429C75.0695 98.0429 75.5815 100.48 79.9437 100.762C84.7667 101.074 82.4013 98.519 82.4013 98.519C79.8106 97.7203 80.0051 95.7696 80.5837 93.9673L75.776 89.3389Z" fill="#C9916C"/>
<path d="M84.7206 84.48C84.6899 84.4794 84.6598 84.4705 84.6336 84.4544C84.6113 84.4432 84.5915 84.4275 84.5755 84.4083C84.5594 84.3891 84.5474 84.3669 84.5402 84.3429C84.5331 84.319 84.5308 84.2938 84.5337 84.269C84.5365 84.2441 84.5444 84.2201 84.5568 84.1984C84.6898 83.9276 84.8864 83.693 85.1298 83.5147C85.3732 83.3363 85.6562 83.2196 85.9546 83.1744C86.0004 83.1762 86.044 83.1945 86.0773 83.226C86.1107 83.2575 86.1314 83.3 86.1358 83.3457C86.1402 83.3913 86.1279 83.437 86.1011 83.4742C86.0744 83.5115 86.035 83.5378 85.9904 83.5482C85.7569 83.589 85.5361 83.6832 85.3451 83.8236C85.1541 83.9639 84.9982 84.1465 84.8896 84.3572C84.8751 84.3909 84.8517 84.4201 84.822 84.4418C84.7922 84.4634 84.7572 84.4766 84.7206 84.48Z" fill="black"/>
<path d="M86.098 86.5792C86.4507 87.2824 86.8987 87.9337 87.4292 88.5146C87.2771 88.6468 87.0979 88.7442 86.9042 88.8C86.7105 88.8557 86.507 88.8684 86.3079 88.8371L86.098 86.5792Z" fill="#DE5753"/>
<path d="M85.76 86.057C85.7907 86.3796 85.9853 86.6202 86.1901 86.5997C86.3949 86.5793 86.5485 86.3079 86.5178 85.9853C86.487 85.6628 86.2925 85.4221 86.0826 85.4426C85.8726 85.4631 85.7293 85.7396 85.76 86.057Z" fill="black"/>
<path d="M86.016 85.4682L86.7635 85.1764C86.7635 85.1764 86.4051 85.8113 86.016 85.4682Z" fill="black"/>
<path d="M80.041 210.196H84.0294L84.2957 200.97H80.3072L80.041 210.196Z" fill="#C9916C"/>
<path d="M61.9315 210.196H65.92L67.2 200.97H63.2166L61.9315 210.196Z" fill="#C9916C"/>
<path d="M66.1658 209.736H61.6858C61.609 209.735 61.5345 209.762 61.4761 209.812C61.4178 209.862 61.3795 209.931 61.3683 210.007L60.8563 213.55C60.8462 213.64 60.8551 213.73 60.8824 213.816C60.9097 213.902 60.9548 213.981 61.0147 214.048C61.0746 214.115 61.148 214.169 61.2301 214.206C61.3122 214.243 61.4012 214.262 61.4912 214.262C63.0272 214.236 63.8054 214.144 65.7766 214.144C66.985 214.144 68.7565 214.267 70.4307 214.267C72.105 214.267 72.192 212.613 71.4957 212.465C68.3725 211.794 67.881 210.867 66.8262 209.981C66.6421 209.824 66.4081 209.737 66.1658 209.736Z" fill="black"/>
<path d="M84.1626 209.736H79.6877C79.6106 209.734 79.5355 209.76 79.4769 209.811C79.4183 209.861 79.3803 209.931 79.3702 210.007L78.8582 213.55C78.8489 213.64 78.8585 213.73 78.8864 213.816C78.9143 213.902 78.9599 213.981 79.0202 214.048C79.0805 214.115 79.1542 214.169 79.2366 214.206C79.3189 214.242 79.408 214.262 79.4982 214.262C81.0342 214.236 81.8125 214.144 83.7786 214.144C84.992 214.144 87.4957 214.267 89.1699 214.267C90.8442 214.267 90.9312 212.613 90.2349 212.465C87.1117 211.794 85.8829 210.867 84.8282 209.981C84.6427 209.823 84.4066 209.736 84.1626 209.736Z" fill="black"/>
<path d="M84.2906 200.97L84.1574 205.727H80.1689L80.3072 200.97H84.2906Z" fill="#CE6F64"/>
<path d="M63.2115 200.97H67.2L66.5395 205.727H62.551L63.2115 200.97Z" fill="#CE6F64"/>
<path d="M71.4138 105.329C70.6568 106.511 69.7801 107.613 68.7975 108.616L68.3418 108.314L63.2935 104.96C63.2935 104.96 66.048 98.816 68.1216 98.5037C70.1031 98.1863 71.5469 100.234 72.2176 102.426C72.4736 103.219 72.0486 104.294 71.4138 105.329Z" fill="#022D5E"/>
<path opacity="0.6" d="M71.4138 105.329C70.6568 106.511 69.7801 107.613 68.7975 108.616L68.3418 108.314L63.2935 104.96C63.2935 104.96 66.048 98.816 68.1216 98.5037C70.1031 98.1863 71.5469 100.234 72.2176 102.426C72.4736 103.219 72.0486 104.294 71.4138 105.329Z" fill="#FAFAFA"/>
<path d="M71.4138 105.329C70.6569 106.511 69.7801 107.613 68.7975 108.616L68.3418 108.314C68.5671 106.47 69.2839 104.643 70.1031 104.064C70.6048 104.115 71.0503 104.648 71.4138 105.329Z" fill="#022D5E"/>
<path opacity="0.4" d="M71.4138 105.329C70.6569 106.511 69.7801 107.613 68.7975 108.616L68.3418 108.314C68.5671 106.47 69.2839 104.643 70.1031 104.064C70.6048 104.115 71.0503 104.648 71.4138 105.329Z" fill="#FAFAFA"/>
<path d="M88.6836 108.396C88.4429 109.932 88.1306 111.739 87.7108 113.884C87.1988 116.629 86.482 119.921 85.5757 123.858L69.4221 122.834C70.1184 116.275 70.3898 112.22 68.1216 98.5242C70.4149 98.2039 72.7285 98.0516 75.0439 98.0685C77.496 98.0524 79.9462 98.2116 82.3757 98.5447C85.5092 99.0567 89.0317 99.9988 89.0317 99.9988C89.0317 99.9988 89.9328 100.352 88.6836 108.396Z" fill="#022D5E"/>
<path opacity="0.6" d="M88.6836 108.396C88.4429 109.932 88.1306 111.739 87.7108 113.884C87.1988 116.629 86.482 119.921 85.5757 123.858L69.4221 122.834C70.1184 116.275 70.3898 112.22 68.1216 98.5242C70.4149 98.2039 72.7285 98.0516 75.0439 98.0685C77.496 98.0524 79.9462 98.2116 82.3757 98.5447C85.5092 99.0567 89.0317 99.9988 89.0317 99.9988C89.0317 99.9988 89.9328 100.352 88.6836 108.396Z" fill="#FAFAFA"/>
<path d="M88.6836 108.396C88.4429 109.932 88.1306 111.739 87.7107 113.884C86.8223 111.995 86.0844 110.038 85.504 108.032H88.5044L88.6836 108.396Z" fill="#022D5E"/>
<path opacity="0.4" d="M88.6836 108.396C88.4429 109.932 88.1306 111.739 87.7107 113.884C86.8223 111.995 86.0844 110.038 85.504 108.032H88.5044L88.6836 108.396Z" fill="#FAFAFA"/>
<path d="M74.8954 85.975C75.5047 89.8816 75.6839 91.5507 77.8599 93.3785C81.1316 96.1331 85.7959 94.5254 86.3642 90.5113C86.8762 86.9017 85.7907 81.1161 81.792 79.9181C80.9125 79.6482 79.9785 79.6079 79.0789 79.801C78.1794 79.9942 77.3442 80.4143 76.653 81.0214C75.9617 81.6285 75.4373 82.4024 75.1296 83.2695C74.822 84.1366 74.7413 85.068 74.8954 85.975Z" fill="#C9916C"/>
<path d="M81.3056 123.581C81.3056 123.581 81.0496 130.693 80.4352 139.663C79.9232 147.19 79.1501 156.017 78.0698 163.052L78.039 163.246C76.0986 175.698 67.5021 204.8 67.5021 204.8H62.0646C62.0646 204.8 66.5446 176.691 67.5277 164.352C70.0211 133.187 63.7747 129.659 69.4221 122.788L81.3056 123.581Z" fill="#022D5E"/>
<path opacity="0.3" d="M81.3056 123.581C81.3056 123.581 81.0496 130.693 80.4352 139.663C79.9232 147.19 79.1501 156.017 78.0698 163.052L78.039 163.246C76.0986 175.698 67.5021 204.8 67.5021 204.8H62.0646C62.0646 204.8 66.5446 176.691 67.5277 164.352C70.0211 133.187 63.7747 129.659 69.4221 122.788L81.3056 123.581Z" fill="black"/>
<path d="M80.4352 139.663C79.9232 147.19 79.1501 156.017 78.0698 163.052C76.2317 153.912 73.2109 140.565 77.2659 131.82C78.2336 134.303 79.36 137.109 80.4352 139.663Z" fill="#022D5E"/>
<path opacity="0.4" d="M80.4352 139.663C79.9232 147.19 79.1501 156.017 78.0698 163.052C76.2317 153.912 73.2109 140.565 77.2659 131.82C78.2336 134.303 79.36 137.109 80.4352 139.663Z" fill="black"/>
<path d="M85.5757 123.863C85.5757 123.863 90.1837 151.173 89.9072 163.328C89.6358 175.974 85.0022 204.8 85.0022 204.8H79.616C79.616 204.8 80.4659 176.707 79.9897 164.291C79.4777 150.753 73.7433 123.09 73.7433 123.09L85.5757 123.863Z" fill="#022D5E"/>
<path opacity="0.3" d="M85.5757 123.863C85.5757 123.863 90.1837 151.173 89.9072 163.328C89.6358 175.974 85.0022 204.8 85.0022 204.8H79.616C79.616 204.8 80.4659 176.707 79.9897 164.291C79.4777 150.753 73.7433 123.09 73.7433 123.09L85.5757 123.863Z" fill="black"/>
<path d="M78.6944 205.056H85.9187L86.4819 202.634L78.4384 202.691L78.6944 205.056Z" fill="black"/>
<path d="M61.2762 205.056H68.5005L69.0637 202.634L61.3274 202.691L61.2762 205.056Z" fill="black"/>
<path d="M69.2378 121.856L68.4186 123.259C68.352 123.366 68.48 123.489 68.6644 123.5L85.6064 124.6C85.7498 124.6 85.8778 124.549 85.8932 124.457L86.1338 123.018C86.1338 122.921 86.0263 122.829 85.8676 122.819L69.4836 121.754C69.4376 121.752 69.3917 121.76 69.3492 121.777C69.3067 121.795 69.2687 121.822 69.2378 121.856Z" fill="black"/>
<path d="M71.3165 123.822L70.8813 123.791C70.7942 123.791 70.7277 123.735 70.7379 123.684L71.0656 121.815C71.0656 121.764 71.1526 121.723 71.2397 121.728L71.68 121.754C71.767 121.754 71.8285 121.81 71.8234 121.866L71.4957 123.73C71.4854 123.786 71.4035 123.827 71.3165 123.822Z" fill="#022D5E"/>
<path opacity="0.3" d="M71.3165 123.822L70.8813 123.791C70.7942 123.791 70.7277 123.735 70.7379 123.684L71.0656 121.815C71.0656 121.764 71.1526 121.723 71.2397 121.728L71.68 121.754C71.767 121.754 71.8285 121.81 71.8234 121.866L71.4957 123.73C71.4854 123.786 71.4035 123.827 71.3165 123.822Z" fill="black"/>
<path d="M81.92 124.508L81.4848 124.483C81.3978 124.483 81.3312 124.426 81.3414 124.37L81.6691 122.506C81.6691 122.45 81.7562 122.414 81.8483 122.419L82.2835 122.445C82.3706 122.445 82.4371 122.501 82.4269 122.557L82.0992 124.421C82.1043 124.477 82.0224 124.513 81.92 124.508Z" fill="#022D5E"/>
<path opacity="0.3" d="M81.92 124.508L81.4848 124.483C81.3978 124.483 81.3312 124.426 81.3414 124.37L81.6691 122.506C81.6691 122.45 81.7562 122.414 81.8483 122.419L82.2835 122.445C82.3706 122.445 82.4371 122.501 82.4269 122.557L82.0992 124.421C82.1043 124.477 82.0224 124.513 81.92 124.508Z" fill="black"/>
<path d="M89.9482 104.095C90.5626 106.143 91.1463 108.216 91.7146 110.285L93.4298 116.475L93.6448 117.243L93.7011 117.432L93.7267 117.53V117.581C93.7451 117.649 93.7673 117.715 93.7933 117.78C93.919 118.092 94.0917 118.382 94.3053 118.641C94.9166 119.286 95.6249 119.832 96.4045 120.259C98.1906 121.225 100.08 121.988 102.036 122.532L101.74 124.529C99.4436 124.41 97.1821 123.921 95.0426 123.08C93.8588 122.616 92.7679 121.943 91.8221 121.093C91.2803 120.591 90.8299 119.998 90.4909 119.342C90.3994 119.165 90.319 118.982 90.2503 118.794L90.1939 118.656L90.1581 118.559L90.0915 118.369L89.8202 117.596C89.1034 115.548 88.4378 113.5 87.808 111.421C87.1783 109.343 86.5587 107.295 85.9955 105.206L89.9482 104.095Z" fill="#C9916C"/>
<path d="M89.0317 99.9783C91.0797 100.649 93.2301 107.346 93.2301 107.346L85.8368 110.531C85.8368 110.531 82.7648 103.014 84.1268 101.315C85.4887 99.6148 86.6816 99.2103 89.0317 99.9783Z" fill="#022D5E"/>
<path opacity="0.6" d="M89.0317 99.9783C91.0797 100.649 93.2301 107.346 93.2301 107.346L85.8368 110.531C85.8368 110.531 82.7648 103.014 84.1268 101.315C85.4887 99.6148 86.6816 99.2103 89.0317 99.9783Z" fill="#FAFAFA"/>
<path d="M85.0791 79.6929C83.7735 78.0801 73.6871 76.9281 73.1495 81.321C69.5655 83.8298 72.9651 90.3118 73.4771 91.9604C71.0042 92.6465 63.0375 95.3703 68.8691 100.664C74.7008 105.958 83.4458 105.057 85.1559 99.579C86.354 95.7492 82.5498 89.339 82.6317 87.0964C82.7136 84.8538 87.3165 82.4321 85.0791 79.6929Z" fill="black"/>
<path d="M74.1837 92.7693C74.165 92.7699 74.1464 92.766 74.1295 92.758C74.1126 92.75 74.0978 92.7381 74.0864 92.7232C73.1597 91.5968 69.9341 85.6781 71.0656 82.8621C71.2411 82.4252 71.5386 82.048 71.9227 81.7756C72.3067 81.5033 72.761 81.3472 73.2314 81.3261C73.2479 81.3239 73.2648 81.3252 73.2808 81.3298C73.2968 81.3344 73.3118 81.3422 73.3247 81.3527C73.3377 81.3632 73.3483 81.3763 73.356 81.3911C73.3638 81.4059 73.3684 81.4221 73.3696 81.4387C73.374 81.4719 73.3652 81.5056 73.3451 81.5324C73.325 81.5592 73.2952 81.577 73.2621 81.5821C72.8392 81.5977 72.4297 81.7343 72.0821 81.9757C71.7345 82.2171 71.4635 82.5532 71.3011 82.944C70.2106 85.6678 73.3748 91.4483 74.281 92.5542C74.2972 92.5723 74.3077 92.5947 74.3111 92.6187C74.3146 92.6427 74.3109 92.6671 74.3005 92.689C74.2901 92.7109 74.2735 92.7292 74.2527 92.7417C74.2319 92.7542 74.2079 92.7602 74.1837 92.759V92.7693Z" fill="black"/>
<path d="M81.833 86.8558C81.9472 87.6035 82.3075 88.2917 82.857 88.8116C83.584 89.5079 84.2701 89.0318 84.3366 88.146C84.3981 87.3524 84.0909 86.0366 83.2307 85.6679C82.3705 85.2993 81.7254 85.97 81.833 86.8558Z" fill="#C9916C"/>
<path d="M99.5277 121.979L102.436 120.991L101.98 124.488C101.98 124.488 100.833 125 99.3485 123.709L97.9302 122.803L99.0464 122.194C99.1994 122.107 99.3606 122.035 99.5277 121.979Z" fill="#C9916C"/>
<path d="M104.468 120.98L103.578 124.037L101.98 124.483L102.436 120.991L104.468 120.98Z" fill="#C9916C"/>
</svg>
