<svg width="256" height="256" viewBox="0 0 256 256" fill="none" xmlns="http://www.w3.org/2000/svg">
<path d="M256 195.789H0V195.917H256V195.789Z" fill="#EBEBEB"/>
<path d="M230.349 204.027H213.392V204.155H230.349V204.027Z" fill="#EBEBEB"/>
<path d="M169.585 205.419H165.135V205.547H169.585V205.419Z" fill="#EBEBEB"/>
<path d="M212.879 199.276H203.054V199.404H212.879V199.276Z" fill="#EBEBEB"/>
<path d="M48.9727 200.136H26.8594V200.264H48.9727V200.136Z" fill="#EBEBEB"/>
<path d="M56.7756 200.136H53.5347V200.264H56.7756V200.136Z" fill="#EBEBEB"/>
<path d="M115.277 202.296H67.3125V202.424H115.277V202.296Z" fill="#EBEBEB"/>
<path d="M121.344 172.954H22.4819C21.7074 172.952 20.9651 172.644 20.4179 172.096C19.8708 171.548 19.5635 170.805 19.5635 170.03V31.0581C19.5702 30.288 19.8805 29.5518 20.4269 29.0092C20.9734 28.4666 21.7118 28.1615 22.4819 28.1602H121.344C122.119 28.1602 122.863 28.4682 123.411 29.0164C123.959 29.5647 124.267 30.3083 124.267 31.0837V170.03C124.267 170.806 123.959 171.549 123.411 172.097C122.863 172.646 122.119 172.954 121.344 172.954ZM22.4819 28.2626C21.7413 28.2639 21.0316 28.559 20.5085 29.0832C19.9853 29.6073 19.6915 30.3175 19.6915 31.0581V170.03C19.6915 170.771 19.9853 171.481 20.5085 172.005C21.0316 172.529 21.7413 172.824 22.4819 172.826H121.344C122.085 172.824 122.795 172.529 123.319 172.005C123.843 171.481 124.138 170.771 124.139 170.03V31.0581C124.138 30.3171 123.843 29.6068 123.319 29.0828C122.795 28.5589 122.085 28.2639 121.344 28.2626H22.4819Z" fill="#EBEBEB"/>
<path d="M232.095 172.954H133.228C132.453 172.952 131.71 172.644 131.162 172.096C130.614 171.548 130.306 170.805 130.304 170.03V31.0581C130.312 30.2876 130.624 29.5513 131.171 29.0088C131.718 28.4664 132.457 28.1615 133.228 28.1602H232.095C232.864 28.1628 233.601 28.4685 234.147 29.011C234.692 29.5534 235.001 30.2889 235.008 31.0581V170.03C235.008 170.804 234.702 171.546 234.156 172.094C233.609 172.642 232.869 172.951 232.095 172.954ZM133.228 28.2626C132.487 28.2639 131.776 28.5589 131.252 29.0828C130.729 29.6068 130.434 30.3171 130.432 31.0581V170.03C130.434 170.771 130.729 171.481 131.252 172.005C131.776 172.529 132.487 172.824 133.228 172.826H232.095C232.836 172.824 233.546 172.529 234.07 172.005C234.594 171.481 234.889 170.771 234.89 170.03V31.0581C234.889 30.3171 234.594 29.6068 234.07 29.0828C233.546 28.5589 232.836 28.2639 232.095 28.2626H133.228Z" fill="#EBEBEB"/>
<path d="M102.006 158.101H97.6895H94.8428L102.82 164.705H104.284H105.59L103.726 161.874L109.163 164.705H110.474H112.02L102.006 158.101Z" fill="#E0E0E0"/>
<path d="M45.4399 164.705H48.2969L54.6406 161.403L51.8707 164.705H54.6406L62.6175 158.101H55.4547L45.4399 164.705Z" fill="#E0E0E0"/>
<path d="M53.1711 164.705L59.7708 158.101H55.4547L45.4399 164.705H46.9862L54.6406 160.497L51.8707 164.705H53.1711Z" fill="#F0F0F0"/>
<path d="M30.853 164.706V196.03H127.324V164.706H30.853ZM125.747 176.994H48.2969V166.754H125.747V176.994Z" fill="#E0E0E0"/>
<path d="M46.1875 164.706V196.03H127.324V164.706H46.1875ZM125.747 176.994H48.2969V166.754H125.747V176.994Z" fill="#EBEBEB"/>
<path d="M125.747 166.738H111.626V176.973H125.747V166.738Z" fill="#E0E0E0"/>
<path d="M68.7462 171.853H48.2969V176.973H68.7462V171.853Z" fill="#E0E0E0"/>
<path d="M83.1845 173.932H70.0312V176.973H83.1845V173.932Z" fill="#E0E0E0"/>
<path d="M101.735 170.752H86.2261V176.973H101.735V170.752Z" fill="#E0E0E0"/>
<path d="M63.6927 179.2L63.319 180.424H58.286L57.9122 179.2H48.2969V192.794H73.3081V179.2H63.6927Z" fill="#E0E0E0"/>
<path d="M89.8763 179.2L89.5025 180.424H84.4747L84.1009 179.2H74.4805V192.794H99.4968V179.2H89.8763Z" fill="#E0E0E0"/>
<path d="M116.065 179.2L115.692 180.424H110.664L110.285 179.2H100.669V192.794H125.681V179.2H116.065Z" fill="#E0E0E0"/>
<path d="M110.331 116.639H43.8782C42.88 116.639 42.0708 117.448 42.0708 118.446V157.169C42.0708 158.167 42.88 158.976 43.8782 158.976H110.331C111.329 158.976 112.138 158.167 112.138 157.169V118.446C112.138 117.448 111.329 116.639 110.331 116.639Z" fill="#E0E0E0"/>
<path d="M111.98 116.639H45.5271C44.5289 116.639 43.7197 117.448 43.7197 118.446V157.169C43.7197 158.167 44.5289 158.976 45.5271 158.976H111.98C112.978 158.976 113.787 158.167 113.787 157.169V118.446C113.787 117.448 112.978 116.639 111.98 116.639Z" fill="#E6E6E6"/>
<path d="M111.724 156.918V118.697H45.7729V156.918H111.724Z" fill="#F0F0F0"/>
<path d="M193.004 69.9173C198.196 68.6044 201.341 63.331 200.028 58.1387C198.715 52.9465 193.442 49.8016 188.25 51.1145C183.057 52.4274 179.912 57.7008 181.225 62.8931C182.538 68.0853 187.812 71.2302 193.004 69.9173Z" fill="#E0E0E0"/>
<path d="M198.638 62.3922C199.684 57.9614 196.94 53.5217 192.509 52.4759C188.078 51.4302 183.639 54.1743 182.593 58.6052C181.547 63.036 184.291 67.4757 188.722 68.5215C193.153 69.5673 197.593 66.8231 198.638 62.3922Z" fill="#F0F0F0"/>
<path d="M190.239 54.8506V60.6106L186.419 58.4499" fill="#F0F0F0"/>
<path d="M190.239 61.1226C190.149 61.1232 190.061 61.1003 189.983 61.056L186.163 58.88C186.046 58.8125 185.961 58.7014 185.925 58.5709C185.89 58.4405 185.907 58.3013 185.974 58.1837C186.041 58.0657 186.151 57.979 186.282 57.9425C186.412 57.9061 186.552 57.9228 186.67 57.9892L189.742 59.7197V54.8352C189.742 54.6995 189.796 54.5692 189.892 54.4732C189.988 54.3772 190.119 54.3232 190.254 54.3232C190.39 54.3232 190.52 54.3772 190.616 54.4732C190.712 54.5692 190.766 54.6995 190.766 54.8352V60.5952C190.766 60.731 190.712 60.8613 190.616 60.9573C190.52 61.0533 190.39 61.1072 190.254 61.1072L190.239 61.1226Z" fill="#E0E0E0"/>
<path d="M58.5577 60.5391C58.5577 60.5391 58.0866 57.4671 60.3394 55.4754C62.5922 53.4837 62.3874 52.3215 61.7474 52.1679C61.1074 52.0143 60.5135 53.9906 59.5253 54.5333C59.5253 54.5333 59.4895 51.7173 60.4981 50.678C61.5068 49.6386 62.0341 46.966 61.0716 46.9199C60.109 46.8738 60.0169 48.5071 59.8223 49.6642C59.5501 50.6567 59.1233 51.6 58.5577 52.4597C58.5577 52.4597 58.3477 49.9356 57.6975 48.8757C57.0473 47.8159 58.7829 45.4658 58.1122 44.4265C57.4415 43.3871 56.2588 45.3685 56.3561 47.5906C56.4533 49.8127 57.9433 52.1986 57.5951 54.5129C57.5951 54.5129 56.9397 52.8847 56.3509 52.7362C55.7621 52.5877 55.1733 51.5074 54.774 51.1081C54.3746 50.7087 53.8882 52.0911 54.774 53.3762C55.6597 54.6613 57.9433 58.102 57.5951 60.8821L58.5577 60.5391Z" fill="#E6E6E6"/>
<path d="M59.9038 59.1362L60.636 63.7442C60.6902 64.0798 60.6707 64.4232 60.579 64.7505C60.4874 65.0778 60.3256 65.3813 60.105 65.6399C59.8844 65.8985 59.6101 66.1061 59.3014 66.2482C58.9926 66.3903 58.6566 66.4636 58.3166 66.4629H57.5333C57.1932 66.4635 56.857 66.3901 56.548 66.2481C56.239 66.106 55.9646 65.8986 55.7436 65.6401C55.5225 65.3816 55.3603 65.0782 55.2679 64.7509C55.1756 64.4236 55.1554 64.0801 55.2088 63.7442L55.9461 59.1362H59.9038Z" fill="#E6E6E6"/>
<path d="M48.7577 67.4458H100.838V64.768H48.7577V67.4458Z" fill="#E0E0E0"/>
<path d="M96.1486 64.7734H98.4424V54.9123H96.1486V64.7734Z" fill="#EBEBEB"/>
<path d="M85.0534 64.7734H87.3472V54.9123H85.0534V64.7734Z" fill="#EBEBEB"/>
<path d="M70.7855 64.3833L73.0459 64.7729L74.7218 55.0501L72.4614 54.6605L70.7855 64.3833Z" fill="#EBEBEB"/>
<path d="M93.3019 64.7734H95.5957V56.2077H93.3019V64.7734Z" fill="#EBEBEB"/>
<path d="M88.0334 64.7734H90.3271V56.2077H88.0334V64.7734Z" fill="#EBEBEB"/>
<path d="M74.716 64.7734H77.0098V56.2077H74.716V64.7734Z" fill="#EBEBEB"/>
<path d="M80.1866 64.2704L82.4258 64.7681L84.2841 56.4063L82.045 55.9087L80.1866 64.2704Z" fill="#EBEBEB"/>
<path d="M91.3204 64.7734H92.4673V54.4208H91.3204V64.7734Z" fill="#EBEBEB"/>
<path d="M77.6754 64.7734H78.8223V54.4208H77.6754V64.7734Z" fill="#EBEBEB"/>
<path d="M100.838 84.7466H48.7578V87.4243H100.838V84.7466Z" fill="#E0E0E0"/>
<path d="M53.4476 74.8853H51.1538V84.7515H53.4476V74.8853Z" fill="#EBEBEB"/>
<path d="M64.5428 74.8853H62.249V84.7515H64.5428V74.8853Z" fill="#EBEBEB"/>
<path d="M77.1379 74.6358L74.8774 75.0254L76.5534 84.7482L78.8138 84.3586L77.1379 74.6358Z" fill="#EBEBEB"/>
<path d="M56.2942 76.1855H54.0005V84.7513H56.2942V76.1855Z" fill="#EBEBEB"/>
<path d="M61.5682 76.1855H59.2744V84.7513H61.5682V76.1855Z" fill="#EBEBEB"/>
<path d="M74.8748 76.1855H72.5811V84.7513H74.8748V76.1855Z" fill="#EBEBEB"/>
<path d="M67.5594 75.8852L65.3203 76.3828L67.1787 84.7446L69.4178 84.2469L67.5594 75.8852Z" fill="#EBEBEB"/>
<path d="M58.2758 74.3936H57.1289V84.7462H58.2758V74.3936Z" fill="#EBEBEB"/>
<path d="M71.9257 74.3936H70.7788V84.7462H71.9257V74.3936Z" fill="#EBEBEB"/>
<path d="M95.8466 76.9434H84.6646V84.6592H95.8466V76.9434Z" fill="#EBEBEB"/>
<path d="M128 218.911C182.826 218.911 227.272 216.316 227.272 213.115C227.272 209.914 182.826 207.319 128 207.319C73.174 207.319 28.7285 209.914 28.7285 213.115C28.7285 216.316 73.174 218.911 128 218.911Z" fill="#F5F5F5"/>
<path d="M46.3615 194.12C46.3615 193.966 45.8495 178.76 43.3868 176.379C41.0213 174.085 38.2975 176.297 38.1797 176.379L37.8521 175.985C37.8828 175.959 41.0469 173.379 43.7401 175.985C46.3461 178.514 46.853 193.439 46.8735 194.074L46.3615 194.12Z" fill="#407BFF"/>
<path d="M46.5919 197.12C46.5202 196.372 44.8972 178.821 51.5173 171.218L51.9065 171.556C45.4143 178.985 47.0681 196.884 47.1039 197.064L46.5919 197.12Z" fill="#407BFF"/>
<path d="M46.454 195.2L45.942 195.164C45.942 194.959 47.2373 174.628 42.4092 170.194L42.7573 169.815C47.7596 174.418 46.5103 194.35 46.454 195.2Z" fill="#407BFF"/>
<path d="M47.1038 195.185H46.5918C46.5918 194.622 46.7505 181.397 50.5291 179.231C50.8929 178.996 51.3078 178.851 51.7389 178.81C52.17 178.768 52.6049 178.83 53.0072 178.99C55.3009 179.943 56.4324 184.003 56.4785 184.172L55.9665 184.31C55.9665 184.269 54.8555 180.316 52.7972 179.466C52.4647 179.331 52.1041 179.28 51.7471 179.317C51.3901 179.353 51.0475 179.477 50.7492 179.676C47.242 181.688 47.1038 195.072 47.1038 195.185Z" fill="#407BFF"/>
<path d="M45.6243 195.195L45.1123 195.164C45.1123 195.062 45.6755 184.765 42.9056 181.145C42.24 180.285 41.5283 179.87 40.7756 179.927C38.9836 180.05 37.4681 182.692 37.4579 182.717L37.0073 182.466C37.079 182.349 38.6713 179.558 40.7398 179.394C41.6716 179.328 42.5369 179.804 43.2998 180.818C46.2028 184.606 45.6499 194.765 45.6243 195.195Z" fill="#407BFF"/>
<path d="M46.1107 196.608C46.039 195.584 44.2931 172.032 47.3753 167.844L47.7849 168.151C44.8153 172.17 46.6073 196.311 46.6227 196.567L46.1107 196.608Z" fill="#407BFF"/>
<path d="M53.8009 181.432C53.8009 181.432 51.9628 182.113 52.5107 183.716C53.0585 185.319 58.8799 187.955 58.8799 187.955C58.8799 187.955 61.3171 185.718 59.0796 182.083C56.8422 178.448 53.8521 180.286 53.8009 181.432Z" fill="#407BFF"/>
<path opacity="0.2" d="M53.8009 181.432C53.8009 181.432 51.9628 182.113 52.5107 183.716C53.0585 185.319 58.8799 187.955 58.8799 187.955C58.8799 187.955 61.3171 185.718 59.0796 182.083C56.8422 178.448 53.8521 180.286 53.8009 181.432Z" fill="white"/>
<path d="M45.7982 178.381C45.7982 178.381 47.7592 178.299 47.8462 179.989C47.9333 181.678 43.6222 186.368 43.6222 186.368C43.6222 186.368 40.5093 185.247 41.1749 181.028C41.8405 176.809 45.3067 177.342 45.7982 178.381Z" fill="#407BFF"/>
<path opacity="0.2" d="M45.7982 178.381C45.7982 178.381 47.7592 178.299 47.8462 179.989C47.9333 181.678 43.6222 186.368 43.6222 186.368C43.6222 186.368 40.5093 185.247 41.1749 181.028C41.8405 176.809 45.3067 177.342 45.7982 178.381Z" fill="white"/>
<path d="M44.1345 170.291C44.1345 170.291 45.4453 170.148 45.3377 169.354C45.2302 168.561 40.2536 166.507 37.3198 169.82C37.3198 169.82 39.1989 173.051 41.9278 173.092C44.6568 173.133 44.1345 170.291 44.1345 170.291Z" fill="#407BFF"/>
<path opacity="0.2" d="M44.1345 170.291C44.1345 170.291 45.4453 170.148 45.3377 169.354C45.2302 168.561 40.2536 166.507 37.3198 169.82C37.3198 169.82 39.1989 173.051 41.9278 173.092C44.6568 173.133 44.1345 170.291 44.1345 170.291Z" fill="white"/>
<path d="M46.5922 168.356C46.5922 168.356 45.4095 168.929 45.0562 168.197C44.7029 167.465 47.8671 163.077 52.1116 164.352C52.1116 164.352 52.2242 168.09 49.9407 169.564C47.6572 171.039 46.5922 168.356 46.5922 168.356Z" fill="#407BFF"/>
<path opacity="0.2" d="M46.5922 168.356C46.5922 168.356 45.4095 168.929 45.0562 168.197C44.7029 167.465 47.8671 163.077 52.1116 164.352C52.1116 164.352 52.2242 168.09 49.9407 169.564C47.6572 171.039 46.5922 168.356 46.5922 168.356Z" fill="white"/>
<path d="M40.3814 180.787C40.3814 180.787 41.2825 180.06 40.3097 179.702C39.3369 179.343 34.5549 179.451 34.5088 184.182C34.5088 184.182 40.0742 185.108 40.7603 183.306C41.4464 181.504 40.3814 180.787 40.3814 180.787Z" fill="#407BFF"/>
<path opacity="0.2" d="M40.3814 180.787C40.3814 180.787 41.2825 180.06 40.3097 179.702C39.3369 179.343 34.5549 179.451 34.5088 184.182C34.5088 184.182 40.0742 185.108 40.7603 183.306C41.4464 181.504 40.3814 180.787 40.3814 180.787Z" fill="white"/>
<path d="M51.7119 170.173C51.7119 170.173 50.8057 169.441 51.7836 169.088C52.7615 168.735 57.5334 168.832 57.5846 173.568C57.5846 173.568 52.0191 174.489 51.3279 172.687C50.6367 170.885 51.7119 170.173 51.7119 170.173Z" fill="#407BFF"/>
<path opacity="0.2" d="M51.7119 170.173C51.7119 170.173 50.8057 169.441 51.7836 169.088C52.7615 168.735 57.5334 168.832 57.5846 173.568C57.5846 173.568 52.0191 174.489 51.3279 172.687C50.6367 170.885 51.7119 170.173 51.7119 170.173Z" fill="white"/>
<path d="M48.7885 173.982C48.7885 173.982 48.7066 173.097 49.4234 173.445C50.1402 173.793 52.6285 176.481 50.048 179.031C50.048 179.031 46.5716 176.471 47.1962 175.114C47.8208 173.757 48.7885 173.982 48.7885 173.982Z" fill="#407BFF"/>
<path opacity="0.2" d="M48.7885 173.982C48.7885 173.982 48.7066 173.097 49.4234 173.445C50.1402 173.793 52.6285 176.481 50.048 179.031C50.048 179.031 46.5716 176.471 47.1962 175.114C47.8208 173.757 48.7885 173.982 48.7885 173.982Z" fill="white"/>
<path d="M39.5725 175.247C39.5725 175.247 40.1152 174.541 39.3216 174.454C38.528 174.367 34.9952 175.309 35.84 178.841C35.84 178.841 40.1511 178.519 40.3354 177.049C40.5197 175.58 39.5725 175.247 39.5725 175.247Z" fill="#407BFF"/>
<path opacity="0.2" d="M39.5725 175.247C39.5725 175.247 40.1152 174.541 39.3216 174.454C38.528 174.367 34.9952 175.309 35.84 178.841C35.84 178.841 40.1511 178.519 40.3354 177.049C40.5197 175.58 39.5725 175.247 39.5725 175.247Z" fill="white"/>
<path d="M54.1489 208.302H39.3469L37.7495 192.097H55.7412L54.1489 208.302Z" fill="#407BFF"/>
<path opacity="0.5" d="M54.1489 208.302H39.3469L37.7495 192.097H55.7412L54.1489 208.302Z" fill="white"/>
<path d="M56.5352 190.311H36.9614V193.884H56.5352V190.311Z" fill="#407BFF"/>
<path opacity="0.2" d="M56.5352 190.311H36.9614V193.884H56.5352V190.311Z" fill="white"/>
<path d="M174.09 208.302L174.121 208.113L174.986 197.985H178.678L176.041 208.302" fill="#263238"/>
<path d="M208.251 208.302L208.22 208.113L207.349 197.985H203.663L206.3 208.302" fill="#263238"/>
<path d="M169.226 208.302L169.257 208.113L170.936 197.985H174.623L171.177 208.302" fill="#263238"/>
<path d="M213.115 208.302L213.079 208.113L211.405 197.985H207.718L211.164 208.302" fill="#263238"/>
<g opacity="0.2">
<path d="M169.226 208.302L169.257 208.113L170.936 197.985H174.623L171.177 208.302" fill="white"/>
<path d="M213.115 208.302L213.079 208.113L211.405 197.985H207.718L211.164 208.302" fill="white"/>
</g>
<path d="M213.391 137.365H168.955C167.829 137.365 166.917 138.277 166.917 139.402V198.206C166.917 199.331 167.829 200.243 168.955 200.243H213.391C214.517 200.243 215.429 199.331 215.429 198.206V139.402C215.429 138.277 214.517 137.365 213.391 137.365Z" fill="#407BFF"/>
<path opacity="0.4" d="M213.391 137.365H168.955C167.829 137.365 166.917 138.277 166.917 139.402V198.206C166.917 199.331 167.829 200.243 168.955 200.243H213.391C214.517 200.243 215.429 199.331 215.429 198.206V139.402C215.429 138.277 214.517 137.365 213.391 137.365Z" fill="white"/>
<path opacity="0.5" d="M213.447 151.076H168.893V173.773H213.447V151.076Z" fill="white"/>
<path opacity="0.5" d="M213.447 175.283H168.893V197.98H213.447V175.283Z" fill="white"/>
<path opacity="0.5" d="M213.447 139.623H168.893V149.56H213.447V139.623Z" fill="white"/>
<path opacity="0.5" d="M194.816 141.276H187.525C187.306 141.275 187.092 141.213 186.907 141.098C186.722 140.982 186.572 140.817 186.475 140.621L185.989 139.623H196.352L195.84 140.621C195.746 140.814 195.601 140.978 195.42 141.093C195.239 141.209 195.03 141.272 194.816 141.276Z" fill="black"/>
<path opacity="0.5" d="M194.816 152.725H187.525C187.306 152.725 187.092 152.664 186.906 152.548C186.72 152.432 186.571 152.266 186.475 152.069L185.989 151.076H196.352L195.84 152.069C195.747 152.263 195.602 152.427 195.421 152.543C195.24 152.659 195.03 152.722 194.816 152.725Z" fill="black"/>
<path opacity="0.5" d="M194.816 176.937H187.525C187.306 176.937 187.092 176.876 186.906 176.76C186.72 176.644 186.571 176.478 186.475 176.282L185.989 175.283H196.352L195.84 176.282C195.747 176.475 195.602 176.64 195.421 176.755C195.24 176.871 195.03 176.934 194.816 176.937Z" fill="black"/>
<path d="M204.129 130.427L207.979 137.365H203.187L204.129 130.427Z" fill="#407BFF"/>
<path opacity="0.2" d="M204.129 130.427L207.979 137.365H203.187L204.129 130.427Z" fill="black"/>
<path d="M205.414 137.365H196.352L199.189 125.625H208.251L205.414 137.365Z" fill="#407BFF"/>
<path opacity="0.5" d="M197.601 136.433L199.987 126.556H207.001L204.615 136.433H197.601Z" fill="white"/>
<path d="M178.898 132.02L176.65 137.365H182.661L178.898 132.02Z" fill="#407BFF"/>
<path d="M191.171 137.365H179.661L176.958 129.024H188.472L191.171 137.365Z" fill="#407BFF"/>
<path opacity="0.2" d="M191.171 137.365H179.661L176.958 129.024H188.472L191.171 137.365Z" fill="white"/>
<path opacity="0.5" d="M180.296 136.162L178.371 130.228H187.837L189.757 136.162H180.296Z" fill="white"/>
<path d="M139.894 74.6445H66.3346C63.3938 74.6445 61.0098 77.0285 61.0098 79.9693V210.545C61.0098 213.486 63.3938 215.87 66.3346 215.87H139.894C142.834 215.87 145.218 213.486 145.218 210.545V79.9693C145.218 77.0285 142.834 74.6445 139.894 74.6445Z" fill="#263238"/>
<path d="M142.377 79.7184V210.524C142.377 210.797 142.322 211.067 142.216 211.319C142.111 211.57 141.956 211.798 141.761 211.989C141.566 212.18 141.334 212.329 141.08 212.43C140.827 212.53 140.555 212.578 140.283 212.572H65.72C65.4719 212.576 65.2256 212.529 64.9959 212.435C64.7662 212.341 64.5579 212.202 64.3834 212.025C64.2089 211.849 64.0718 211.639 63.9803 211.408C63.8889 211.178 63.845 210.931 63.8512 210.683V79.5494C63.8416 79.3303 63.8756 79.1114 63.9511 78.9055C64.0267 78.6995 64.1423 78.5106 64.2913 78.3497C64.4404 78.1887 64.6198 78.059 64.8194 77.9678C65.0189 77.8767 65.2345 77.8261 65.4538 77.8188H84.0957C84.3555 77.8241 84.6079 77.9062 84.8211 78.0547C85.0343 78.2032 85.1988 78.4115 85.2938 78.6534L86.0669 80.558C86.1615 80.7997 86.326 81.0077 86.5394 81.1555C86.7528 81.3032 87.0054 81.384 87.265 81.3875H119.009C119.268 81.3862 119.52 81.3074 119.734 81.1614C119.947 81.0154 120.112 80.8088 120.207 80.5683L120.98 78.6585C121.074 78.4157 121.238 78.2063 121.452 78.0568C121.665 77.9073 121.918 77.8245 122.178 77.8188H140.554C141.046 77.8336 141.513 78.0408 141.854 78.3961C142.194 78.7513 142.382 79.2261 142.377 79.7184Z" fill="#407BFF"/>
<path opacity="0.3" d="M142.377 79.7184V210.524C142.377 210.797 142.322 211.067 142.216 211.319C142.111 211.57 141.956 211.798 141.761 211.989C141.566 212.18 141.334 212.329 141.08 212.43C140.827 212.53 140.555 212.578 140.283 212.572H65.72C65.4719 212.576 65.2256 212.529 64.9959 212.435C64.7662 212.341 64.5579 212.202 64.3834 212.025C64.2089 211.849 64.0718 211.639 63.9803 211.408C63.8889 211.178 63.845 210.931 63.8512 210.683V79.5494C63.8416 79.3303 63.8756 79.1114 63.9511 78.9055C64.0267 78.6995 64.1423 78.5106 64.2913 78.3497C64.4404 78.1887 64.6198 78.059 64.8194 77.9678C65.0189 77.8767 65.2345 77.8261 65.4538 77.8188H84.0957C84.3555 77.8241 84.6079 77.9062 84.8211 78.0547C85.0343 78.2032 85.1988 78.4115 85.2938 78.6534L86.0669 80.558C86.1615 80.7997 86.326 81.0077 86.5394 81.1555C86.7528 81.3032 87.0054 81.384 87.265 81.3875H119.009C119.268 81.3862 119.52 81.3074 119.734 81.1614C119.947 81.0154 120.112 80.8088 120.207 80.5683L120.98 78.6585C121.074 78.4157 121.238 78.2063 121.452 78.0568C121.665 77.9073 121.918 77.8245 122.178 77.8188H140.554C141.046 77.8336 141.513 78.0408 141.854 78.3961C142.194 78.7513 142.382 79.2261 142.377 79.7184Z" fill="black"/>
<path opacity="0.6" d="M142.377 86.6304H63.8516V202.962H142.377V86.6304Z" fill="white"/>
<path opacity="0.6" d="M72.5094 83.502H73.4771V82.2066H72.5094V83.502Z" fill="white"/>
<path opacity="0.6" d="M70.9273 83.502H71.895V81.7765H70.9273V83.502Z" fill="white"/>
<path opacity="0.6" d="M69.3453 83.502H70.313V81.3464H69.3453V83.502Z" fill="white"/>
<path opacity="0.6" d="M67.7633 83.502H68.731V80.9164H67.7633V83.502Z" fill="white"/>
<path opacity="0.6" d="M133.488 81.7358H132.915V83.0312H133.488V81.7358Z" fill="white"/>
<path opacity="0.6" d="M133.883 83.502H138.465V81.2645H133.883V83.502Z" fill="white"/>
<path opacity="0.6" d="M103.101 78.0032C103.101 78.2169 103.038 78.4257 102.919 78.6034C102.8 78.781 102.632 78.9195 102.434 79.0013C102.237 79.083 102.02 79.1044 101.81 79.0627C101.6 79.0211 101.408 78.9182 101.257 78.7671C101.106 78.616 101.003 78.4235 100.961 78.2139C100.92 78.0044 100.941 77.7872 101.023 77.5898C101.104 77.3924 101.243 77.2236 101.421 77.1049C101.598 76.9862 101.807 76.9229 102.021 76.9229C102.163 76.9222 102.304 76.9497 102.435 77.0037C102.566 77.0578 102.686 77.1373 102.786 77.2378C102.887 77.3382 102.966 77.4576 103.02 77.589C103.074 77.7203 103.102 77.8611 103.101 78.0032Z" fill="white"/>
<path opacity="0.6" d="M105.282 78.0032C105.282 78.1399 105.242 78.2736 105.166 78.3872C105.09 78.5009 104.982 78.5895 104.856 78.6418C104.729 78.6941 104.59 78.7078 104.456 78.6811C104.322 78.6545 104.199 78.5886 104.102 78.492C104.006 78.3953 103.94 78.2721 103.913 78.1381C103.887 78.004 103.9 77.865 103.953 77.7387C104.005 77.6124 104.093 77.5044 104.207 77.4285C104.321 77.3525 104.454 77.312 104.591 77.312C104.774 77.312 104.95 77.3848 105.08 77.5145C105.209 77.6441 105.282 77.8199 105.282 78.0032Z" fill="white"/>
<path d="M142.377 86.6304H63.8516V100.06H142.377V86.6304Z" fill="#407BFF"/>
<path d="M139.044 94.4434V93.4194H138.132C138.074 93.1592 137.97 92.9114 137.825 92.6873L138.47 92.0422L137.728 91.2998L137.083 91.9449C136.858 91.8027 136.61 91.7005 136.351 91.6428V90.7314H135.327V91.6479C135.067 91.7066 134.82 91.8087 134.595 91.95L133.949 91.3049L133.222 92.037L133.867 92.6822C133.723 92.9063 133.619 93.1541 133.56 93.4143H132.649V94.4383H133.56C133.62 94.6966 133.724 94.9426 133.867 95.1654L133.222 95.8105L133.949 96.5426L134.595 95.8975C134.821 96.0383 135.068 96.142 135.327 96.2047V97.111H136.351V96.2047C136.61 96.1429 136.857 96.0392 137.083 95.8975L137.728 96.5426L138.455 95.8105L137.81 95.1654C137.954 94.9426 138.058 94.6966 138.117 94.4383L139.044 94.4434ZM135.849 94.8786C135.659 94.8786 135.474 94.8224 135.316 94.7169C135.159 94.6115 135.036 94.4617 134.964 94.2864C134.892 94.1112 134.873 93.9184 134.91 93.7325C134.948 93.5467 135.039 93.3761 135.174 93.2424C135.308 93.1087 135.479 93.0179 135.665 92.9815C135.851 92.9452 136.044 92.9649 136.219 93.0381C136.394 93.1114 136.543 93.2349 136.648 93.393C136.752 93.5511 136.807 93.7367 136.806 93.9263C136.806 94.0518 136.782 94.1761 136.733 94.2919C136.685 94.4078 136.615 94.513 136.526 94.6015C136.437 94.69 136.331 94.7601 136.215 94.8076C136.099 94.8552 135.974 94.8793 135.849 94.8786Z" fill="white"/>
<path d="M70.6406 91.1055L67.1846 94.3874H68.2546V96.7426H73.0265V94.3874H74.0915L70.6406 91.1055Z" fill="white"/>
<path opacity="0.4" d="M117.704 122.609C117.707 125.496 116.853 128.319 115.251 130.72C113.65 133.122 111.371 134.995 108.705 136.102C106.039 137.208 103.104 137.499 100.272 136.937C97.4406 136.376 94.8391 134.987 92.7971 132.946C90.755 130.905 89.3641 128.305 88.8004 125.474C88.2367 122.642 88.5255 119.707 89.6303 117.04C90.7351 114.373 92.6061 112.093 95.0068 110.49C97.4074 108.887 100.23 108.031 103.117 108.032C105.032 108.029 106.93 108.404 108.7 109.135C110.471 109.866 112.08 110.939 113.435 112.294C114.79 113.648 115.865 115.256 116.597 117.026C117.33 118.796 117.706 120.693 117.704 122.609Z" fill="black"/>
<path opacity="0.8" d="M114.145 132.163C112.776 133.744 111.082 135.012 109.179 135.881C107.276 136.75 105.209 137.2 103.117 137.2C101.025 137.2 98.9575 136.75 97.0547 135.881C95.1519 135.012 93.4582 133.744 92.0884 132.163C92.6167 130.268 93.6239 128.541 95.0129 127.149C96.4019 125.756 98.126 124.745 100.019 124.211C99.0069 123.545 98.2363 122.571 97.8219 121.432C97.4075 120.293 97.3714 119.051 97.7189 117.891C98.0665 116.73 98.7792 115.712 99.7512 114.988C100.723 114.265 101.903 113.874 103.114 113.874C104.326 113.874 105.505 114.265 106.477 114.988C107.449 115.712 108.162 116.73 108.51 117.891C108.857 119.051 108.821 120.293 108.407 121.432C107.992 122.571 107.222 123.545 106.209 124.211C108.103 124.745 109.827 125.757 111.217 127.149C112.607 128.542 113.615 130.268 114.145 132.163Z" fill="white"/>
<g opacity="0.5">
<path d="M75.7247 145.859V146.125H74.1631V143.975H75.6991V144.241H74.4908V144.896H75.5711V145.157H74.4908V145.854L75.7247 145.859Z" fill="black"/>
<path d="M76.0112 145.152H76.8407V145.408H76.0112V145.152Z" fill="black"/>
<path d="M79.9949 145.188V146.125H79.7031V145.224C79.7031 144.901 79.5495 144.747 79.2832 144.747C79.212 144.74 79.1401 144.75 79.073 144.775C79.006 144.8 78.9455 144.839 78.8961 144.891C78.8467 144.943 78.8098 145.005 78.7882 145.074C78.7666 145.142 78.7608 145.214 78.7712 145.285V146.125H78.4794V145.224C78.4794 144.901 78.3258 144.747 78.0544 144.747C77.9832 144.74 77.9113 144.75 77.8442 144.775C77.7772 144.8 77.7167 144.839 77.6673 144.891C77.6179 144.943 77.581 145.005 77.5594 145.074C77.5378 145.142 77.532 145.214 77.5424 145.285V146.125H77.312V144.496H77.5936V144.742C77.6572 144.655 77.7416 144.586 77.8392 144.54C77.9367 144.494 78.0442 144.474 78.1517 144.481C78.2653 144.473 78.3789 144.497 78.4794 144.55C78.58 144.604 78.6634 144.684 78.72 144.783C78.791 144.685 78.8853 144.606 78.9943 144.553C79.1033 144.501 79.2237 144.476 79.3447 144.481C79.4362 144.477 79.5276 144.492 79.6124 144.527C79.6972 144.562 79.7733 144.615 79.8354 144.682C79.8974 144.749 79.9439 144.83 79.9715 144.917C79.999 145.004 80.007 145.097 79.9949 145.188Z" fill="black"/>
<path d="M81.8328 145.142V146.125H81.5512V145.92C81.4914 145.998 81.4136 146.06 81.3244 146.101C81.2351 146.142 81.1373 146.161 81.0392 146.155C80.6706 146.155 80.4351 145.956 80.4351 145.674C80.4351 145.392 80.604 145.198 81.0904 145.198H81.5563V145.142C81.5563 144.891 81.413 144.747 81.1211 144.747C80.9358 144.747 80.7556 144.808 80.6091 144.921L80.4863 144.701C80.6794 144.557 80.916 144.483 81.157 144.491C81.5768 144.481 81.8328 144.696 81.8328 145.142ZM81.5359 145.628V145.408H81.0802C80.7883 145.408 80.7064 145.526 80.7064 145.664C80.7064 145.802 80.8395 145.925 81.0648 145.925C81.1646 145.931 81.2637 145.906 81.3483 145.853C81.4328 145.799 81.4984 145.721 81.5359 145.628Z" fill="black"/>
<path d="M82.3242 143.995C82.3242 143.969 82.3294 143.943 82.3395 143.919C82.3496 143.895 82.3644 143.874 82.383 143.856C82.4016 143.837 82.4237 143.823 82.4479 143.814C82.4721 143.804 82.4979 143.8 82.5239 143.8C82.5621 143.801 82.5992 143.814 82.6306 143.836C82.6619 143.858 82.686 143.888 82.7 143.924C82.7139 143.96 82.717 143.999 82.709 144.036C82.7009 144.073 82.682 144.108 82.6546 144.134C82.6272 144.161 82.5925 144.179 82.5549 144.186C82.5173 144.193 82.4784 144.189 82.4432 144.174C82.4079 144.159 82.3778 144.134 82.3567 144.102C82.3355 144.071 82.3242 144.033 82.3242 143.995ZM82.3805 144.507H82.6724V146.135H82.3805V144.507Z" fill="black"/>
<path d="M83.2358 143.872H83.5277V146.15H83.2358V143.872Z" fill="black"/>
</g>
<g opacity="0.8">
<path d="M128.537 156.769H77.6906C76.6694 156.769 75.6901 156.364 74.968 155.642C74.246 154.92 73.8403 153.94 73.8403 152.919C73.8403 151.898 74.246 150.919 74.968 150.197C75.6901 149.475 76.6694 149.069 77.6906 149.069H128.537C129.558 149.069 130.538 149.475 131.26 150.197C131.982 150.919 132.388 151.898 132.388 152.919C132.388 153.94 131.982 154.92 131.26 155.642C130.538 156.364 129.558 156.769 128.537 156.769Z" fill="white"/>
</g>
<g opacity="0.5">
<path d="M75.8988 163.671C75.8988 164.137 75.5609 164.419 75.0028 164.419H74.4908V165.069H74.1836V162.918H75.0233C75.5609 162.918 75.8988 163.2 75.8988 163.671ZM75.5916 163.671C75.5916 163.364 75.3868 163.185 74.9926 163.185H74.4806V164.152H74.9926C75.3868 164.152 75.5916 163.973 75.5916 163.671Z" fill="black"/>
<path d="M77.5833 164.085V165.068H77.312V164.864C77.2525 164.942 77.1747 165.004 77.0854 165.045C76.9961 165.086 76.8981 165.105 76.8 165.099C76.4313 165.099 76.1958 164.9 76.1958 164.618C76.1958 164.336 76.3648 164.142 76.8512 164.142H77.312V164.085C77.312 163.835 77.1686 163.691 76.8768 163.691C76.6914 163.69 76.5112 163.752 76.3648 163.865L76.2419 163.645C76.437 163.501 76.6752 163.427 76.9177 163.435C77.312 163.425 77.5833 163.64 77.5833 164.085ZM77.2864 164.572V164.352H76.8307C76.5388 164.352 76.4569 164.469 76.4569 164.608C76.4569 164.746 76.5952 164.869 76.8153 164.869C76.9193 164.882 77.0247 164.859 77.1146 164.806C77.2046 164.752 77.274 164.67 77.312 164.572H77.2864Z" fill="black"/>
<path d="M77.9263 164.895L78.0492 164.664C78.2178 164.776 78.4155 164.834 78.6175 164.833C78.8888 164.833 79.0066 164.752 79.0066 164.613C79.0066 164.245 77.9826 164.562 77.9826 163.912C77.9826 163.625 78.2437 163.425 78.6584 163.425C78.866 163.422 79.0707 163.473 79.2523 163.574L79.1243 163.804C78.9846 163.718 78.8228 163.673 78.6584 163.676C78.3973 163.676 78.2744 163.774 78.2744 163.902C78.2744 164.286 79.2984 163.973 79.2984 164.603C79.2984 164.9 79.0271 165.089 78.597 165.089C78.3588 165.095 78.1246 165.027 77.9263 164.895Z" fill="black"/>
<path d="M79.4624 164.895L79.5853 164.664C79.7561 164.775 79.9553 164.834 80.1587 164.833C80.4301 164.833 80.5427 164.751 80.5427 164.613C80.5427 164.245 79.5187 164.562 79.5187 163.912C79.5187 163.625 79.7798 163.425 80.1997 163.425C80.4072 163.423 80.6118 163.474 80.7936 163.574L80.6656 163.804C80.5237 163.718 80.3605 163.674 80.1946 163.676C79.9386 163.676 79.8106 163.774 79.8106 163.902C79.8106 164.286 80.8346 163.973 80.8346 164.603C80.8346 164.9 80.5632 165.089 80.128 165.089C79.8916 165.093 79.6596 165.025 79.4624 164.895Z" fill="black"/>
<path d="M83.6403 163.44L83.031 165.069H82.7494L82.2784 163.84L81.8022 165.074H81.5206L80.896 163.44H81.1725L81.6486 164.736L82.1606 163.44H82.432L82.944 164.741L83.4253 163.44H83.6403Z" fill="black"/>
<path d="M83.7426 164.254C83.7406 164.087 83.7884 163.923 83.88 163.782C83.9716 163.642 84.1028 163.532 84.257 163.467C84.4111 163.401 84.5813 163.383 84.7459 163.414C84.9104 163.446 85.0619 163.525 85.1811 163.643C85.3002 163.761 85.3817 163.911 85.4152 164.076C85.4486 164.24 85.4325 164.41 85.3688 164.565C85.3052 164.72 85.197 164.853 85.0578 164.946C84.9187 165.039 84.7549 165.089 84.5874 165.089C84.476 165.094 84.3648 165.076 84.2607 165.036C84.1566 164.996 84.062 164.935 83.9826 164.856C83.9033 164.778 83.841 164.684 83.7997 164.58C83.7584 164.477 83.739 164.366 83.7426 164.254ZM85.1353 164.254C85.1353 164.183 85.1211 164.111 85.0936 164.045C85.066 163.978 85.0257 163.918 84.9748 163.867C84.9239 163.816 84.8635 163.776 84.7971 163.748C84.7306 163.721 84.6594 163.707 84.5874 163.707C84.5155 163.707 84.4442 163.721 84.3778 163.748C84.3113 163.776 84.2509 163.816 84.2 163.867C84.1492 163.918 84.1088 163.978 84.0813 164.045C84.0538 164.111 84.0396 164.183 84.0396 164.254C84.0396 164.326 84.0538 164.398 84.0813 164.464C84.1088 164.531 84.1492 164.591 84.2 164.642C84.2509 164.693 84.3113 164.733 84.3778 164.761C84.4442 164.788 84.5155 164.802 84.5874 164.802C84.6594 164.802 84.7306 164.788 84.7971 164.761C84.8635 164.733 84.9239 164.693 84.9748 164.642C85.0257 164.591 85.066 164.531 85.0936 164.464C85.1211 164.398 85.1353 164.326 85.1353 164.254Z" fill="black"/>
<path d="M86.7173 163.425V163.712H86.6508C86.5799 163.712 86.5098 163.726 86.4449 163.754C86.3799 163.783 86.3216 163.824 86.2734 163.876C86.2253 163.928 86.1885 163.989 86.1653 164.056C86.1421 164.123 86.1331 164.194 86.1388 164.265V165.074H85.8418V163.446H86.1234V163.717C86.1851 163.618 86.2735 163.538 86.3785 163.486C86.4835 163.434 86.6009 163.413 86.7173 163.425Z" fill="black"/>
<path d="M88.6013 162.816V165.094H88.3197V164.838C88.2523 164.928 88.1639 165.001 88.0622 165.049C87.9604 165.097 87.8485 165.12 87.736 165.115C87.5267 165.098 87.3312 165.004 87.1886 164.849C87.046 164.695 86.9668 164.493 86.9668 164.283C86.9668 164.073 87.046 163.87 87.1886 163.716C87.3312 163.562 87.5267 163.467 87.736 163.451C87.8446 163.447 87.9527 163.468 88.0514 163.513C88.1502 163.559 88.2368 163.627 88.3044 163.712V162.816H88.6013ZM88.3095 164.28C88.3045 164.173 88.2681 164.07 88.205 163.983C88.1418 163.897 88.0546 163.83 87.9542 163.793C87.8537 163.755 87.7445 163.748 87.6399 163.772C87.5354 163.796 87.4402 163.85 87.3661 163.927C87.292 164.005 87.2423 164.103 87.2232 164.208C87.2041 164.314 87.2163 164.422 87.2584 164.521C87.3005 164.62 87.3706 164.704 87.4601 164.763C87.5496 164.822 87.6544 164.854 87.7616 164.854C87.8398 164.86 87.9185 164.849 87.9915 164.82C88.0646 164.792 88.1301 164.747 88.1831 164.689C88.236 164.631 88.275 164.562 88.2969 164.487C88.3188 164.411 88.3231 164.332 88.3095 164.255V164.28Z" fill="black"/>
</g>
<g opacity="0.8">
<path d="M128.537 175.713H77.6906C76.6694 175.713 75.6901 175.308 74.968 174.585C74.246 173.863 73.8403 172.884 73.8403 171.863C73.8403 170.842 74.246 169.862 74.968 169.14C75.6901 168.418 76.6694 168.013 77.6906 168.013H128.537C129.558 168.013 130.538 168.418 131.26 169.14C131.982 169.862 132.388 170.842 132.388 171.863C132.388 172.884 131.982 173.863 131.26 174.585C130.538 175.308 129.558 175.713 128.537 175.713Z" fill="white"/>
</g>
<path d="M115.738 191.585H90.4909C89.9852 191.585 89.4846 191.486 89.0174 191.292C88.5503 191.099 88.1259 190.815 87.7683 190.458C87.4108 190.1 87.1272 189.676 86.9337 189.208C86.7402 188.741 86.6406 188.241 86.6406 187.735C86.6406 187.229 86.7402 186.729 86.9337 186.262C87.1272 185.794 87.4108 185.37 87.7683 185.012C88.1259 184.655 88.5503 184.371 89.0174 184.178C89.4846 183.984 89.9852 183.885 90.4909 183.885H115.738C116.759 183.885 117.738 184.29 118.46 185.012C119.182 185.735 119.588 186.714 119.588 187.735C119.588 188.756 119.182 189.735 118.46 190.458C117.738 191.18 116.759 191.585 115.738 191.585Z" fill="#407BFF"/>
<path d="M97.736 189.032C97.5227 189.032 97.3187 189 97.124 188.936C96.9293 188.869 96.776 188.784 96.664 188.68L96.812 188.368C96.9187 188.461 97.0547 188.539 97.22 188.6C97.3853 188.661 97.5573 188.692 97.736 188.692C97.8987 188.692 98.0307 188.673 98.132 188.636C98.2333 188.599 98.308 188.548 98.356 188.484C98.404 188.417 98.428 188.343 98.428 188.26C98.428 188.164 98.396 188.087 98.332 188.028C98.2707 187.969 98.1893 187.923 98.088 187.888C97.9893 187.851 97.88 187.819 97.76 187.792C97.64 187.765 97.5187 187.735 97.396 187.7C97.276 187.663 97.1653 187.616 97.064 187.56C96.9653 187.504 96.8853 187.429 96.824 187.336C96.7627 187.24 96.732 187.117 96.732 186.968C96.732 186.824 96.7693 186.692 96.844 186.572C96.9213 186.449 97.0387 186.352 97.196 186.28C97.356 186.205 97.5587 186.168 97.804 186.168C97.9667 186.168 98.128 186.189 98.288 186.232C98.448 186.275 98.5867 186.336 98.704 186.416L98.572 186.736C98.452 186.656 98.3253 186.599 98.192 186.564C98.0587 186.527 97.9293 186.508 97.804 186.508C97.6467 186.508 97.5173 186.528 97.416 186.568C97.3147 186.608 97.24 186.661 97.192 186.728C97.1467 186.795 97.124 186.869 97.124 186.952C97.124 187.051 97.1547 187.129 97.216 187.188C97.28 187.247 97.3613 187.293 97.46 187.328C97.5613 187.363 97.672 187.395 97.792 187.424C97.912 187.451 98.032 187.481 98.152 187.516C98.2747 187.551 98.3853 187.596 98.484 187.652C98.5853 187.708 98.6667 187.783 98.728 187.876C98.7893 187.969 98.82 188.089 98.82 188.236C98.82 188.377 98.7813 188.509 98.704 188.632C98.6267 188.752 98.5067 188.849 98.344 188.924C98.184 188.996 97.9813 189.032 97.736 189.032ZM99.3484 189V186.88H99.7324V189H99.3484ZM99.5404 186.472C99.4657 186.472 99.403 186.448 99.3524 186.4C99.3044 186.352 99.2804 186.293 99.2804 186.224C99.2804 186.152 99.3044 186.092 99.3524 186.044C99.403 185.996 99.4657 185.972 99.5404 185.972C99.615 185.972 99.6764 185.996 99.7244 186.044C99.775 186.089 99.8004 186.147 99.8004 186.216C99.8004 186.288 99.7764 186.349 99.7284 186.4C99.6804 186.448 99.6177 186.472 99.5404 186.472ZM101.394 189.8C101.199 189.8 101.01 189.772 100.826 189.716C100.644 189.663 100.496 189.585 100.382 189.484L100.566 189.188C100.664 189.273 100.786 189.34 100.93 189.388C101.074 189.439 101.224 189.464 101.382 189.464C101.632 189.464 101.816 189.405 101.934 189.288C102.051 189.171 102.11 188.992 102.11 188.752V188.304L102.15 187.884L102.13 187.46V186.88H102.494V188.712C102.494 189.085 102.4 189.36 102.214 189.536C102.027 189.712 101.754 189.8 101.394 189.8ZM101.346 188.912C101.14 188.912 100.956 188.869 100.794 188.784C100.634 188.696 100.506 188.575 100.41 188.42C100.316 188.265 100.27 188.087 100.27 187.884C100.27 187.679 100.316 187.5 100.41 187.348C100.506 187.193 100.634 187.073 100.794 186.988C100.956 186.903 101.14 186.86 101.346 186.86C101.527 186.86 101.692 186.897 101.842 186.972C101.991 187.044 102.11 187.156 102.198 187.308C102.288 187.46 102.334 187.652 102.334 187.884C102.334 188.113 102.288 188.304 102.198 188.456C102.11 188.608 101.991 188.723 101.842 188.8C101.692 188.875 101.527 188.912 101.346 188.912ZM101.39 188.576C101.531 188.576 101.656 188.547 101.766 188.488C101.875 188.429 101.96 188.348 102.022 188.244C102.086 188.14 102.118 188.02 102.118 187.884C102.118 187.748 102.086 187.628 102.022 187.524C101.96 187.42 101.875 187.34 101.766 187.284C101.656 187.225 101.531 187.196 101.39 187.196C101.248 187.196 101.122 187.225 101.01 187.284C100.9 187.34 100.814 187.42 100.75 187.524C100.688 187.628 100.658 187.748 100.658 187.884C100.658 188.02 100.688 188.14 100.75 188.244C100.814 188.348 100.9 188.429 101.01 188.488C101.122 188.547 101.248 188.576 101.39 188.576ZM104.359 186.86C104.533 186.86 104.685 186.893 104.815 186.96C104.949 187.027 105.053 187.128 105.127 187.264C105.202 187.4 105.239 187.572 105.239 187.78V189H104.855V187.824C104.855 187.619 104.805 187.464 104.703 187.36C104.605 187.256 104.465 187.204 104.283 187.204C104.147 187.204 104.029 187.231 103.927 187.284C103.826 187.337 103.747 187.416 103.691 187.52C103.638 187.624 103.611 187.753 103.611 187.908V189H103.227V186.88H103.595V187.452L103.535 187.3C103.605 187.161 103.711 187.053 103.855 186.976C103.999 186.899 104.167 186.86 104.359 186.86ZM107.024 189V186.88H107.408V189H107.024ZM107.216 186.472C107.141 186.472 107.079 186.448 107.028 186.4C106.98 186.352 106.956 186.293 106.956 186.224C106.956 186.152 106.98 186.092 107.028 186.044C107.079 185.996 107.141 185.972 107.216 185.972C107.291 185.972 107.352 185.996 107.4 186.044C107.451 186.089 107.476 186.147 107.476 186.216C107.476 186.288 107.452 186.349 107.404 186.4C107.356 186.448 107.293 186.472 107.216 186.472ZM109.273 186.86C109.447 186.86 109.599 186.893 109.729 186.96C109.863 187.027 109.967 187.128 110.041 187.264C110.116 187.4 110.153 187.572 110.153 187.78V189H109.769V187.824C109.769 187.619 109.719 187.464 109.617 187.36C109.519 187.256 109.379 187.204 109.197 187.204C109.061 187.204 108.943 187.231 108.841 187.284C108.74 187.337 108.661 187.416 108.605 187.52C108.552 187.624 108.525 187.753 108.525 187.908V189H108.141V186.88H108.509V187.452L108.449 187.3C108.519 187.161 108.625 187.053 108.769 186.976C108.913 186.899 109.081 186.86 109.273 186.86Z" fill="white"/>
<path d="M194.611 94.6791L172.626 94.4743C172.124 94.4675 171.646 94.2621 171.295 93.9032C170.945 93.5442 170.751 93.0609 170.757 92.5594L170.967 85.929C170.97 85.6809 171.021 85.4357 171.118 85.2075C171.216 84.9793 171.357 84.7726 171.535 84.599C171.712 84.4255 171.922 84.2886 172.152 84.1961C172.382 84.1037 172.629 84.0575 172.877 84.0602L194.893 84.2701C195.394 84.2768 195.873 84.4822 196.223 84.8412C196.573 85.2002 196.767 85.6834 196.761 86.185L196.552 92.8154C196.549 93.0659 196.496 93.3134 196.397 93.5433C196.298 93.7733 196.153 93.9811 195.973 94.1547C195.792 94.3282 195.578 94.464 195.345 94.554C195.111 94.644 194.861 94.6866 194.611 94.6791Z" fill="#407BFF"/>
<path d="M183.296 93.0049C183.296 93.0049 180.511 99.1489 174.418 101.028C174.418 101.028 177.797 99.1336 177.623 92.6772L183.296 93.0049Z" fill="#407BFF"/>
<path d="M176.461 89.2927L176.973 89.5794L176.737 89.9736L176.225 89.6562V90.2399H175.775V89.6562L175.263 89.9736L175.032 89.5794L175.544 89.2927L175.032 89.0059L175.263 88.6117L175.775 88.9291V88.3403H176.225V88.9291L176.737 88.6117L176.973 89.0059L176.461 89.2927Z" fill="white"/>
<path d="M179.604 89.2927L180.116 89.5794L179.881 89.9736L179.369 89.6562V90.2399H178.918V89.6562L178.406 89.9736L178.176 89.5999L178.688 89.3132L178.176 89.0264L178.411 88.6322L178.923 88.9496V88.3608H179.374V88.9496L179.886 88.6322L180.121 89.0264L179.604 89.2927Z" fill="white"/>
<path d="M182.753 89.2927L183.265 89.5794L183.029 89.9736L182.517 89.6562V90.2399H182.062V89.6562L181.55 89.9736L181.319 89.5794L181.831 89.2927L181.319 89.0059L181.55 88.6117L182.062 88.9291V88.3403H182.517V88.9291L183.029 88.6117L183.265 89.0059L182.753 89.2927Z" fill="white"/>
<path d="M185.897 89.2927L186.409 89.5794L186.173 89.9736L185.661 89.6562V90.2399H185.211V89.6562L184.699 89.9736L184.468 89.5794L184.98 89.2927L184.468 89.0059L184.699 88.6117L185.211 88.9291V88.3403H185.661V88.9291L186.173 88.6117L186.409 89.0059L185.897 89.2927Z" fill="white"/>
<path d="M189.041 89.2927L189.553 89.5794L189.317 89.9736L188.805 89.6562V90.2399H188.354V89.6562L187.842 89.9736L187.607 89.5794L188.119 89.2927L187.607 89.0059L187.842 88.6117L188.354 88.9291V88.3403H188.805V88.9291L189.317 88.6117L189.553 89.0059L189.041 89.2927Z" fill="white"/>
<path d="M192.189 89.2927L192.701 89.5794L192.466 89.9736L191.954 89.6562V90.2399H191.488V89.6562L190.976 89.9736L190.746 89.5794L191.258 89.2927L190.746 89.0059L190.976 88.6117L191.488 88.9291V88.3403H191.944V88.9291L192.456 88.6117L192.691 89.0059L192.189 89.2927Z" fill="white"/>
<path d="M159.815 105.472C162.744 105.928 165.586 114.949 166.82 115.712C168.054 116.475 166.994 107.264 166.994 107.264L169.339 106.952C169.339 106.952 172.114 120.837 168.064 120.735C164.992 120.658 161.305 115.502 160.384 112.876L159.815 105.472Z" fill="#EBB376"/>
<path opacity="0.1" d="M168.064 120.699C166.195 120.653 164.101 118.733 162.544 116.644C161.655 115.484 160.934 114.203 160.404 112.84L160.102 109.051L159.815 105.467C162.744 105.923 165.586 114.944 166.82 115.707C168.054 116.47 166.994 107.259 166.994 107.259L169.339 106.947C169.339 106.947 172.114 120.802 168.064 120.699Z" fill="black"/>
<path opacity="0.2" d="M162.545 116.644C161.655 115.484 160.934 114.203 160.405 112.84L160.103 109.051C160.103 109.051 163.297 112.267 162.545 116.644Z" fill="black"/>
<path d="M149.033 86.8147C149.033 86.8147 143.816 86.7533 144.066 93.9264C144.317 101.1 149.335 101.197 147.65 103.27C149.147 103.905 150.756 104.232 152.381 104.232C154.007 104.232 155.616 103.905 157.112 103.27C157.112 103.27 156.185 102.907 156.626 101.591C157.066 100.275 159.483 98.391 159.698 95.616C159.913 92.841 154.429 86.0979 149.033 86.8147Z" fill="#263238"/>
<path d="M154.189 100.547C154.189 100.547 160.845 99.3128 159.734 92.9845C158.823 87.7979 156.401 86.1339 154.189 85.3915C153.236 85.0706 152.205 85.07 151.252 85.3898C150.299 85.7097 149.476 86.3324 148.91 87.1631C148.91 87.1631 144.394 85.8831 145.178 93.3071C145.961 100.731 150.866 103.936 154.189 100.547Z" fill="#263238"/>
<path d="M166.323 206.587L163.364 205.072L164.439 200.648L165.432 196.598L169.16 197.817L167.659 202.461L166.323 206.587Z" fill="#EBB376"/>
<path d="M162.54 204.375C162.714 204.047 166.687 206.351 166.687 206.351C166.687 206.351 167.931 210.176 170.097 211.983C172.263 213.791 170.158 214.569 167.419 213.207L160.64 209.828C158.72 208.85 160.737 207.795 162.54 204.375Z" fill="#263238"/>
<path d="M168.033 208.297C167.603 207.949 167.216 207.55 166.881 207.109C166.879 207.097 166.879 207.085 166.881 207.073C166.879 207.058 166.879 207.042 166.881 207.027C166.879 207.017 166.879 207.007 166.881 206.996C166.886 206.978 166.896 206.961 166.912 206.95C166.948 206.915 167.767 206.131 168.448 206.177C168.548 206.184 168.646 206.212 168.734 206.26C168.822 206.308 168.9 206.374 168.96 206.454C169.025 206.514 169.069 206.592 169.086 206.679C169.104 206.765 169.094 206.855 169.057 206.935C168.934 207.145 168.545 207.211 168.115 207.227C168.452 207.328 168.754 207.521 168.986 207.785C169.025 207.84 169.052 207.903 169.065 207.969C169.078 208.035 169.077 208.103 169.063 208.169C169.006 208.445 168.858 208.532 168.745 208.558C168.615 208.566 168.484 208.547 168.362 208.502C168.239 208.457 168.128 208.387 168.033 208.297ZM167.291 207.227C167.767 207.785 168.407 208.389 168.679 208.323C168.704 208.323 168.776 208.323 168.812 208.123C168.819 208.087 168.819 208.051 168.811 208.015C168.803 207.98 168.788 207.947 168.766 207.918C168.556 207.601 167.798 207.36 167.291 207.227ZM168.653 206.505C168.58 206.452 168.492 206.422 168.402 206.418C167.977 206.463 167.577 206.642 167.26 206.93C167.982 207.002 168.73 206.971 168.832 206.792C168.863 206.735 168.796 206.638 168.75 206.582C168.722 206.552 168.689 206.526 168.653 206.505Z" fill="#407BFF"/>
<path opacity="0.2" d="M167.624 202.552L164.408 200.735L165.412 196.639L169.154 197.837L167.624 202.552Z" fill="black"/>
<path d="M161.101 210.284H157.716L156.749 205.932L155.868 201.943L159.826 201.339L160.502 206.075L161.101 210.284Z" fill="#EBB376"/>
<path d="M156.6 210.15C156.6 209.777 161.208 210.068 161.208 210.068C161.208 210.068 164.029 212.936 166.769 213.581C169.508 214.226 167.977 215.869 164.915 215.869H157.322C155.136 215.869 156.508 214.016 156.6 210.15Z" fill="#263238"/>
<path d="M163.599 211.241C162.938 211.159 162.295 210.963 161.7 210.662L161.659 210.632V210.606C161.649 210.575 161.649 210.541 161.659 210.509C161.659 210.468 162.063 209.398 162.683 209.137C162.776 209.094 162.877 209.071 162.98 209.071C163.083 209.071 163.184 209.094 163.277 209.137C163.487 209.239 163.584 209.367 163.579 209.526C163.579 209.766 163.236 210.007 162.862 210.207C163.207 210.145 163.563 210.184 163.886 210.319C163.945 210.352 163.998 210.396 164.04 210.448C164.082 210.501 164.113 210.562 164.132 210.627C164.17 210.713 164.179 210.809 164.159 210.901C164.139 210.993 164.09 211.076 164.019 211.139C163.896 211.221 163.747 211.257 163.599 211.241ZM162.12 210.586C162.796 210.867 163.656 211.123 163.85 210.944C163.85 210.944 163.927 210.883 163.881 210.703C163.873 210.669 163.857 210.637 163.835 210.61C163.813 210.582 163.785 210.56 163.753 210.545C163.42 210.35 162.637 210.468 162.12 210.586ZM162.939 209.321C162.875 209.322 162.813 209.336 162.755 209.362C162.395 209.599 162.119 209.943 161.966 210.345C162.647 210.089 163.303 209.731 163.313 209.526C163.313 209.459 163.215 209.403 163.154 209.372C163.087 209.338 163.014 209.321 162.939 209.321Z" fill="#407BFF"/>
<path opacity="0.2" d="M160.512 206.172L156.759 206.019L155.873 201.984L159.831 201.359L160.512 206.172Z" fill="black"/>
<path d="M144.599 130.632L152.909 129.301L160.44 127.765L162.488 140.053C162.488 140.053 173.092 155.413 175.662 165.98C178.232 176.548 168.591 201.063 168.591 201.063L164.163 199.102C164.163 199.102 167.234 175.524 167.163 172.693C167.117 170.849 161.07 162.35 156.841 156.621C156.718 158.06 158.09 172.401 158.09 172.401L161.075 203.838H155.494C136.305 144.246 144.599 130.632 144.599 130.632Z" fill="#263238"/>
<path opacity="0.6" d="M155.494 203.817H161.055L158.07 172.38C158.07 172.38 156.708 157.942 156.82 156.6C157.655 157.732 158.561 158.966 159.478 160.241C163.2 165.417 167.106 171.187 167.158 172.667C167.229 175.503 164.157 199.081 164.157 199.081L168.586 201.042C168.586 201.042 178.227 176.517 175.657 165.955C173.087 155.392 162.483 140.032 162.483 140.032L160.435 127.744L152.904 129.28L144.594 130.611C144.594 130.611 136.305 144.246 155.494 203.817Z" fill="white"/>
<path d="M163.911 197.1L170.45 199.352L168.991 201.595L163.62 199.675L163.911 197.1Z" fill="#407BFF"/>
<path d="M154.696 203.064L161.69 202.107L161.342 204.718L155.566 205.445L154.696 203.064Z" fill="#407BFF"/>
<path opacity="0.2" d="M156.821 156.6C157.655 157.732 158.561 158.966 159.478 160.241C158.014 152.653 156.288 145.265 156.288 145.265C156.069 149.051 156.248 152.851 156.821 156.6Z" fill="black"/>
<path d="M160.292 128.246L145.132 129.296C145.132 129.296 144.927 121.175 143.719 116.951C143.555 116.383 143.376 115.789 143.176 115.154C142.894 114.263 142.572 113.306 142.203 112.261C142.116 112.016 141.896 111.401 141.63 110.689C141.419 110.121 141.377 109.505 141.509 108.913C141.64 108.322 141.94 107.781 142.372 107.356C142.792 106.935 143.326 106.645 143.908 106.522C145.024 106.276 146.125 106.046 146.724 105.953C148.995 105.593 151.287 105.376 153.585 105.303C155.53 105.303 157.681 105.416 158.91 105.503L159.975 105.585C159.975 105.585 160.456 105.692 160.763 108.513C161.04 111.166 160.906 118.6 160.292 128.246Z" fill="#407BFF"/>
<path d="M153.088 108.544C149.263 107.853 148.188 106.153 148.188 106.153C150.748 103.972 148.925 99.876 148.925 99.876L153.533 100.977C153.392 101.616 153.298 102.264 153.252 102.917C153.072 105.728 154.342 105.82 154.342 105.82C155.044 107.361 153.088 108.544 153.088 108.544Z" fill="#EBB376"/>
<path opacity="0.2" d="M153.498 100.951C153.356 101.59 153.262 102.239 153.216 102.892C151.009 102.262 148.91 99.8506 148.91 99.8506L153.498 100.951Z" fill="black"/>
<path d="M153.159 87.8182C157.179 88.1817 158.279 90.4498 158.203 94.6226C158.105 99.8348 156.626 103.414 151.695 101.852C144.998 99.7375 146.478 87.2191 153.159 87.8182Z" fill="#EBB376"/>
<path d="M155.648 94.1621C155.917 94.7933 156.261 95.3898 156.672 95.9387C156.539 96.0934 156.366 96.2086 156.172 96.2718C155.978 96.335 155.77 96.3438 155.571 96.2971L155.648 94.1621Z" fill="#D58745"/>
<path d="M153.19 93.6144C153.19 93.9421 152.97 94.1981 152.75 94.1879C152.53 94.1776 152.371 93.8909 152.391 93.5581C152.412 93.2253 152.612 92.9744 152.832 92.9847C153.052 92.9949 153.211 93.2816 153.19 93.6144Z" fill="#263238"/>
<path d="M152.735 92.9948L153.477 92.7593C153.477 92.7593 153.088 93.343 152.735 92.9948Z" fill="#263238"/>
<path d="M157.312 93.8189C157.286 94.1466 157.092 94.4026 156.872 94.3872C156.652 94.3719 156.488 94.0954 156.513 93.7626C156.539 93.4298 156.728 93.1738 156.954 93.1891C157.179 93.2045 157.333 93.4861 157.312 93.8189Z" fill="#263238"/>
<path d="M156.856 93.1843L157.599 92.9487C157.599 92.9487 157.184 93.5478 156.856 93.1843Z" fill="#263238"/>
<path d="M151.598 91.469C151.551 91.4677 151.505 91.4495 151.47 91.4178C151.436 91.3817 151.417 91.3341 151.417 91.2847C151.417 91.2352 151.436 91.1876 151.47 91.1516C151.737 90.9191 152.055 90.7518 152.398 90.663C152.741 90.5741 153.1 90.5661 153.446 90.6396C153.47 90.6449 153.493 90.655 153.513 90.6691C153.533 90.6832 153.55 90.7011 153.563 90.7218C153.576 90.7424 153.585 90.7655 153.589 90.7896C153.593 90.8137 153.593 90.8384 153.587 90.8623C153.582 90.8861 153.572 90.9087 153.558 90.9287C153.544 90.9487 153.526 90.9657 153.505 90.9788C153.484 90.9919 153.461 91.0008 153.437 91.0049C153.413 91.0091 153.388 91.0085 153.365 91.0031C153.081 90.9426 152.787 90.9471 152.505 91.0162C152.223 91.0854 151.96 91.2174 151.736 91.4024C151.719 91.4228 151.698 91.4393 151.675 91.4508C151.651 91.4623 151.625 91.4685 151.598 91.469Z" fill="#263238"/>
<path d="M157.911 91.5865C157.869 91.5854 157.827 91.5711 157.793 91.5456C157.608 91.3695 157.385 91.2383 157.141 91.162C156.896 91.0856 156.638 91.0662 156.385 91.1052C156.338 91.1163 156.288 91.1086 156.246 91.0838C156.204 91.059 156.173 91.019 156.16 90.9721C156.148 90.9253 156.154 90.8754 156.178 90.8332C156.202 90.791 156.241 90.76 156.288 90.7468C156.598 90.6927 156.916 90.7107 157.218 90.7995C157.52 90.8883 157.798 91.0455 158.029 91.2588C158.048 91.2742 158.064 91.2932 158.075 91.3147C158.087 91.3362 158.094 91.3598 158.096 91.384C158.099 91.4083 158.096 91.4329 158.089 91.4562C158.082 91.4795 158.07 91.5012 158.055 91.52C158.037 91.5413 158.015 91.5584 157.991 91.5699C157.966 91.5814 157.939 91.5871 157.911 91.5865Z" fill="#263238"/>
<path d="M148.152 94.2082C148.152 94.2082 150.328 91.0696 150.272 88.4943C150.272 88.4943 158.536 85.9343 158.203 94.0802C158.203 94.0802 159.626 86.9685 152.73 86.1851C145.833 85.4018 144.947 95.524 148.25 98.8572C148.25 98.852 146.801 96.164 148.152 94.2082Z" fill="#263238"/>
<path d="M148.731 95.1094C148.733 94.8774 148.689 94.6473 148.603 94.4322C148.516 94.2172 148.387 94.0213 148.225 93.8558C148.062 93.6904 147.868 93.5586 147.655 93.468C147.441 93.3773 147.212 93.3296 146.98 93.3276C145.721 93.3532 144.896 95.8569 147.943 96.7529C148.378 96.8809 148.67 96.4662 148.731 95.1094Z" fill="#EBB376"/>
<path d="M155.182 98.1712C154.691 98.1954 154.206 98.0585 153.8 97.7811C153.394 97.5038 153.09 97.1014 152.934 96.6352C152.927 96.6127 152.924 96.589 152.926 96.5654C152.929 96.5419 152.935 96.519 152.946 96.4981C152.957 96.4771 152.972 96.4586 152.99 96.4435C153.008 96.4283 153.029 96.4169 153.052 96.4099C153.075 96.4028 153.099 96.4004 153.124 96.4027C153.148 96.405 153.171 96.4121 153.193 96.4235C153.214 96.435 153.233 96.4505 153.248 96.4692C153.264 96.488 153.275 96.5096 153.282 96.5328C153.419 96.9378 153.687 97.2853 154.044 97.5193C154.402 97.7533 154.828 97.8603 155.254 97.8231C155.302 97.8202 155.349 97.8363 155.385 97.8679C155.422 97.8995 155.444 97.944 155.448 97.992C155.451 98.0401 155.435 98.0874 155.403 98.1237C155.372 98.1601 155.327 98.1826 155.279 98.1866L155.182 98.1712Z" fill="#263238"/>
<path d="M158.142 92.9435C158.103 92.9432 158.065 92.9306 158.034 92.9077C158.003 92.8847 157.979 92.8524 157.968 92.8155C156.401 87.6955 150.4 88.4942 150.344 88.5044C150.32 88.5078 150.296 88.5065 150.273 88.5006C150.25 88.4947 150.229 88.4843 150.21 88.4701C150.191 88.4558 150.175 88.4379 150.162 88.4175C150.15 88.397 150.142 88.3744 150.139 88.3508C150.136 88.3273 150.137 88.3033 150.143 88.2803C150.149 88.2573 150.159 88.2356 150.173 88.2166C150.188 88.1976 150.206 88.1816 150.226 88.1695C150.246 88.1574 150.269 88.1494 150.293 88.146C150.354 88.146 156.657 87.3012 158.316 92.708C158.323 92.7308 158.325 92.7548 158.323 92.7786C158.32 92.8024 158.313 92.8255 158.302 92.8465C158.29 92.8675 158.275 92.886 158.256 92.9009C158.237 92.9158 158.216 92.9268 158.193 92.9332L158.142 92.9435Z" fill="#263238"/>
<path d="M168.55 101.591C168.55 101.591 170.665 101.555 170.736 101.924C170.808 102.293 170.67 105.39 170.388 105.826C170.081 106.219 169.729 106.575 169.339 106.885L169.543 112.374L168.284 112.814L167.142 107.792C167.142 107.792 165.847 106.527 166.226 104.924C166.605 103.322 168.55 101.591 168.55 101.591Z" fill="#EBB376"/>
<path opacity="0.1" d="M168.55 101.591C168.55 101.591 170.665 101.555 170.736 101.924C170.808 102.293 170.67 105.39 170.388 105.826C170.081 106.219 169.729 106.575 169.339 106.885L169.543 112.374L168.284 112.814L167.142 107.792C167.142 107.792 165.847 106.527 166.226 104.924C166.605 103.322 168.55 101.591 168.55 101.591Z" fill="black"/>
<path d="M164.961 104.295C164.959 104.341 164.968 104.386 164.985 104.429C165.003 104.471 165.029 104.51 165.062 104.541C165.096 104.573 165.136 104.597 165.179 104.612C165.223 104.626 165.269 104.632 165.314 104.628L168.898 104.351C168.998 104.341 169.091 104.296 169.161 104.224C169.23 104.152 169.272 104.057 169.277 103.957L169.533 96.7888C169.536 96.7398 169.529 96.6907 169.512 96.6446C169.495 96.5984 169.47 96.5561 169.436 96.5202C169.403 96.4844 169.362 96.4556 169.317 96.4358C169.272 96.416 169.224 96.4054 169.175 96.4048L165.591 96.6813C165.487 96.702 165.393 96.7572 165.324 96.8381C165.255 96.9189 165.216 97.0206 165.212 97.1267L164.961 104.295Z" fill="#263238"/>
<path opacity="0.5" d="M165.612 97.055L165.376 104.284C165.369 104.327 165.372 104.371 165.386 104.412C165.399 104.454 165.422 104.491 165.452 104.522C165.482 104.553 165.52 104.576 165.561 104.59C165.602 104.604 165.645 104.608 165.688 104.602L168.735 104.366C168.94 104.366 169.308 104.208 169.313 104.003L169.569 96.753C169.569 96.5482 169.216 96.415 169.011 96.4304L165.939 96.6659C165.845 96.6763 165.759 96.7225 165.698 96.7949C165.637 96.8674 165.606 96.9605 165.612 97.055Z" fill="white"/>
<path d="M161.306 109.732L162.673 106.542C162.673 106.542 163.118 102.267 163.333 101.806C163.548 101.346 167.03 101.52 167.429 101.494C167.829 101.469 167.736 105.734 167.373 106.184C167.009 106.635 165.586 106.993 165.586 106.993L163.4 111.232L161.306 109.732Z" fill="#EBB376"/>
<path d="M157.455 108.001C157.087 109.466 155.668 110.592 152.735 110.561C151.071 110.533 149.459 109.981 148.127 108.984C147.066 108.205 146.148 107.249 145.413 106.158C145.838 106.081 146.268 106.015 146.698 105.948C148.969 105.588 151.261 105.371 153.559 105.298C154.772 105.298 156.058 105.334 157.143 105.39C157.524 106.205 157.633 107.12 157.455 108.001Z" fill="#EBB376"/>
<path d="M145.09 128.149L144.456 130.924L160.819 130.063L160.348 127.324L145.09 128.149Z" fill="#263238"/>
<path d="M154.389 130.519C154.237 130.52 154.091 130.464 153.978 130.363C153.866 130.262 153.795 130.122 153.779 129.971L153.59 128.2C153.575 128.032 153.626 127.865 153.733 127.734C153.786 127.671 153.852 127.619 153.926 127.582C154 127.545 154.081 127.523 154.163 127.519L156.549 127.355C156.71 127.344 156.868 127.396 156.991 127.5C157.114 127.605 157.19 127.753 157.205 127.913L157.369 129.659C157.383 129.823 157.334 129.987 157.23 130.115C157.178 130.177 157.113 130.229 157.04 130.266C156.967 130.303 156.887 130.325 156.805 130.33L154.44 130.519H154.389ZM154.102 128.144L154.286 129.915C154.29 129.942 154.304 129.966 154.325 129.983C154.345 130 154.372 130.009 154.399 130.007L156.764 129.823C156.778 129.821 156.792 129.817 156.804 129.81C156.817 129.803 156.827 129.793 156.836 129.782C156.854 129.761 156.863 129.733 156.862 129.705L156.693 127.959C156.692 127.946 156.689 127.933 156.683 127.921C156.677 127.909 156.669 127.899 156.659 127.89C156.649 127.881 156.637 127.875 156.624 127.871C156.612 127.867 156.598 127.866 156.585 127.867L154.199 128.031C154.185 128.03 154.17 128.033 154.156 128.039C154.143 128.046 154.131 128.055 154.122 128.067C154.117 128.079 154.115 128.092 154.115 128.105C154.115 128.118 154.117 128.131 154.122 128.144H154.102Z" fill="white"/>
<path d="M156.672 129.024H155.791C155.723 129.024 155.658 128.997 155.61 128.949C155.562 128.901 155.535 128.836 155.535 128.768C155.536 128.701 155.564 128.636 155.612 128.589C155.659 128.541 155.724 128.514 155.791 128.512H156.672C156.739 128.514 156.804 128.541 156.851 128.589C156.899 128.636 156.926 128.701 156.928 128.768C156.928 128.836 156.901 128.901 156.853 128.949C156.805 128.997 156.74 129.024 156.672 129.024Z" fill="white"/>
<path opacity="0.2" d="M147.349 116.403C145.9 116.915 144.277 116.019 143.176 115.154C142.894 114.263 142.572 113.306 142.203 112.261C142.116 112.016 141.896 111.401 141.63 110.69C141.419 110.122 141.377 109.505 141.509 108.913C141.64 108.322 141.94 107.781 142.372 107.356C145.157 109.983 149.284 115.743 147.349 116.403Z" fill="black"/>
<path d="M142.336 107.008C142.626 106.774 142.962 106.602 143.322 106.503C143.682 106.405 144.058 106.381 144.427 106.434C144.796 106.486 145.151 106.615 145.469 106.811C145.786 107.006 146.06 107.265 146.273 107.571C148.521 110.792 152.294 116.147 152.75 116.409C153.4 116.787 158.305 112.266 162.678 106.532L165.355 107.556C165.355 107.556 158.438 121.779 153.528 121.841C149.847 121.887 144.312 114.422 141.798 110.669C141.411 110.103 141.251 109.412 141.35 108.733C141.45 108.055 141.802 107.439 142.336 107.008Z" fill="#EBB376"/>
<path opacity="0.2" d="M147.348 133.197C147.348 133.197 146.099 136.591 143.012 137.805V139.023C143.012 139.023 147.538 137.098 148.173 133.903L147.348 133.197Z" fill="black"/>
<path opacity="0.2" d="M143.836 151.076L148.173 150.262L149.207 158.976L145.055 159.58L144.456 153.907L148.204 153.375L147.989 151.224L147.927 153.134L143.713 153.81L143.836 151.076Z" fill="black"/>
</svg>
