<svg width="256" height="256" viewBox="0 0 256 256" fill="none" xmlns="http://www.w3.org/2000/svg">
<path d="M256 195.789H0V195.917H256V195.789Z" fill="#EBEBEB"/>
<path d="M230.349 204.027H213.392V204.155H230.349V204.027Z" fill="#EBEBEB"/>
<path d="M169.585 205.42H165.136V205.548H169.585V205.42Z" fill="#EBEBEB"/>
<path d="M212.879 199.276H203.054V199.404H212.879V199.276Z" fill="#EBEBEB"/>
<path d="M48.9727 200.136H26.8594V200.264H48.9727V200.136Z" fill="#EBEBEB"/>
<path d="M56.7761 200.136H53.5352V200.264H56.7761V200.136Z" fill="#EBEBEB"/>
<path d="M115.277 202.296H67.3125V202.424H115.277V202.296Z" fill="#EBEBEB"/>
<path d="M121.344 172.954H22.4819C21.7074 172.952 20.9651 172.644 20.4179 172.096C19.8708 171.547 19.5635 170.805 19.5635 170.03V31.0579C19.5702 30.2879 19.8805 29.5516 20.4269 29.009C20.9734 28.4664 21.7118 28.1613 22.4819 28.16H121.344C122.119 28.16 122.863 28.468 123.411 29.0163C123.959 29.5645 124.267 30.3082 124.267 31.0835V170.03C124.267 170.805 123.959 171.549 123.411 172.097C122.863 172.646 122.119 172.954 121.344 172.954ZM22.4819 28.2624C21.7413 28.2638 21.0316 28.5589 20.5085 29.083C19.9853 29.6071 19.6915 30.3174 19.6915 31.0579V170.03C19.6915 170.771 19.9853 171.481 20.5085 172.005C21.0316 172.529 21.7413 172.824 22.4819 172.826H121.344C122.085 172.824 122.795 172.529 123.319 172.005C123.843 171.481 124.138 170.771 124.139 170.03V31.0579C124.138 30.3169 123.843 29.6067 123.319 29.0827C122.795 28.5587 122.085 28.2638 121.344 28.2624H22.4819Z" fill="#EBEBEB"/>
<path d="M232.094 172.954H133.227C132.452 172.952 131.709 172.644 131.161 172.096C130.614 171.548 130.305 170.805 130.304 170.03V31.0579C130.312 30.2874 130.623 29.5511 131.17 29.0087C131.718 28.4662 132.457 28.1613 133.227 28.16H232.094C232.864 28.1627 233.601 28.4684 234.146 29.0108C234.691 29.5533 235.001 30.2888 235.008 31.0579V170.03C235.008 170.804 234.701 171.546 234.155 172.094C233.609 172.642 232.868 172.951 232.094 172.954ZM133.227 28.2624C132.486 28.2638 131.776 28.5587 131.252 29.0827C130.728 29.6067 130.433 30.3169 130.432 31.0579V170.03C130.433 170.771 130.728 171.481 131.252 172.005C131.776 172.529 132.486 172.824 133.227 172.826H232.094C232.835 172.824 233.546 172.529 234.07 172.005C234.594 171.481 234.889 170.771 234.89 170.03V31.0579C234.889 30.3169 234.594 29.6067 234.07 29.0827C233.546 28.5587 232.835 28.2638 232.094 28.2624H133.227Z" fill="#EBEBEB"/>
<path d="M201.257 38.9939H51.8604V108.892H201.257V38.9939Z" fill="#E6E6E6"/>
<path d="M203.505 38.9939H52.9102V108.892H203.505V38.9939Z" fill="#F0F0F0"/>
<path d="M201.257 108.892H51.8604V112.456H201.257V108.892Z" fill="#E6E6E6"/>
<path d="M207.253 108.892H56.6582V112.456H207.253V108.892Z" fill="#F0F0F0"/>
<path d="M200.355 105.743V42.1478L56.0636 42.1478V105.743H200.355Z" fill="#FAFAFA"/>
<path d="M71.542 105.743L80.3126 42.1478H93.9983L85.2278 105.743H71.542Z" fill="white"/>
<path d="M57.5182 102.605C57.4585 102.605 57.4012 102.581 57.3589 102.539C57.3167 102.497 57.293 102.439 57.293 102.38V44.1958C57.293 44.1361 57.3167 44.0788 57.3589 44.0365C57.4012 43.9943 57.4585 43.9706 57.5182 43.9706C57.5478 43.9706 57.5771 43.9764 57.6045 43.9877C57.6318 43.999 57.6566 44.0156 57.6775 44.0365C57.6985 44.0575 57.7151 44.0823 57.7264 44.1096C57.7377 44.137 57.7435 44.1663 57.7435 44.1958V102.4C57.7396 102.457 57.714 102.509 57.672 102.548C57.63 102.586 57.5749 102.606 57.5182 102.605Z" fill="#F0F0F0"/>
<path d="M88.166 105.743L96.9366 42.1478H102.272L93.5011 105.743H88.166Z" fill="white"/>
<path d="M200.355 105.743V42.1478H199.956V105.743H200.355Z" fill="#E6E6E6"/>
<path opacity="0.6" d="M204.247 46.8992H54.8553L54.5635 43.3715H203.96L204.247 46.8992Z" fill="#EBEBEB"/>
<path opacity="0.6" d="M204.247 52.6797H54.8553L54.5635 49.152H203.96L204.247 52.6797Z" fill="#EBEBEB"/>
<path opacity="0.6" d="M204.247 58.4653H54.8553L54.5635 54.9376H203.96L204.247 58.4653Z" fill="#EBEBEB"/>
<path opacity="0.6" d="M204.247 64.2458H54.8553L54.5635 60.7181H203.96L204.247 64.2458Z" fill="#EBEBEB"/>
<path opacity="0.6" d="M204.247 70.0314H54.8553L54.5635 66.5037H203.96L204.247 70.0314Z" fill="#EBEBEB"/>
<path opacity="0.6" d="M204.247 75.8118H54.8553L54.5635 72.2842H203.96L204.247 75.8118Z" fill="#EBEBEB"/>
<path d="M224.768 126.464H201.969V195.789H224.768V126.464Z" fill="#E6E6E6"/>
<path d="M218.681 195.789H224.768V186.22H212.296L218.681 195.789Z" fill="#FAFAFA"/>
<path d="M162.606 126.464H139.807V195.789H162.606V126.464Z" fill="#E6E6E6"/>
<path d="M224.768 126.464H157.292V192.497H224.768V126.464Z" fill="#FAFAFA"/>
<path d="M163.38 195.789H157.292V186.22H169.764L163.38 195.789Z" fill="#FAFAFA"/>
<path d="M220.042 151.071H162.012V167.593H220.042V151.071Z" fill="#F0F0F0"/>
<path d="M220.042 171.126H162.012V187.648H220.042V171.126Z" fill="#F0F0F0"/>
<path d="M171.131 149.637H210.944V150.441C210.944 151.075 210.692 151.683 210.244 152.132C209.795 152.58 209.187 152.832 208.553 152.832H173.527C172.893 152.832 172.285 152.58 171.836 152.132C171.388 151.683 171.136 151.075 171.136 150.441V149.637H171.131Z" fill="#FAFAFA"/>
<path d="M220.042 131.011H162.012V147.533H220.042V131.011Z" fill="#F0F0F0"/>
<path d="M171.131 129.582H210.944V130.386C210.944 131.02 210.692 131.628 210.244 132.077C209.795 132.525 209.187 132.777 208.553 132.777H173.527C172.893 132.777 172.285 132.525 171.836 132.077C171.388 131.628 171.136 131.02 171.136 130.386V129.582H171.131Z" fill="#FAFAFA"/>
<path d="M171.131 169.692H210.944V170.496C210.944 171.13 210.692 171.738 210.244 172.187C209.795 172.635 209.187 172.887 208.553 172.887H173.527C172.893 172.887 172.285 172.635 171.836 172.187C171.388 171.738 171.136 171.13 171.136 170.496V169.692H171.131Z" fill="#FAFAFA"/>
<path d="M27.351 141.245C28.6208 137.595 38.615 142.556 42.711 148.598C45.4195 152.622 47.0733 156.918 47.831 162.688C47.7389 156.104 47.6365 149.033 47.5341 142.356C46.7097 140.692 44.8307 136.852 43.4841 133.811C38.9785 123.663 28.2675 119.885 24.5401 113.48C19.6915 105.083 19.7222 92.4877 23.8489 87.9514C27.4329 83.9987 39.3113 110.7 40.6528 113.684C45.2608 123.924 46.592 131.558 47.4521 138.936C47.3549 132.664 47.2627 126.909 47.1859 122.465C46.935 107.976 46.6176 103.316 46.4742 101.883C45.9622 101.181 45.3939 100.347 45.0509 99.927C42.1785 96.2253 35.799 91.8221 32.6144 86.441C27.9603 78.5869 28.7129 69.1866 31.9744 65.6845C35.415 62.0237 41.472 70.656 44.6515 79.2474C47.831 87.8387 46.4845 96.0205 47.3856 103.142C47.575 104.535 47.7645 109.839 47.9488 117.197C48.9216 109.281 50.8569 103.977 54.4409 99.0362C58.8544 92.9587 62.6637 85.5603 66.2989 86.5178C69.9341 87.4752 67.9782 97.2698 65.1008 104.141C62.5408 110.259 49.9046 116.367 48.0409 121.288C48.2611 131.261 48.4557 143.892 48.599 155.653C49.5923 149.576 48.9062 149.069 52.992 139.781C55.4189 134.252 65.367 127.437 66.5549 131.236C67.7427 135.035 65.9353 142.213 62.1824 147.241C59.1513 151.301 52.4544 151.296 50.8723 153.81C50.5088 154.399 49.3363 156.652 48.6246 157.942C48.7833 172.303 48.8601 184.975 48.7782 189.297L48.1229 189.343C48.1587 188.227 48.0768 180.92 47.9488 171.254C46.3155 166.134 35.328 163.113 31.9334 157.763C28.3801 152.151 25.8253 145.618 27.351 141.245Z" fill="#E6E6E6"/>
<path d="M37.6832 195.789H58.7776C59.3365 195.788 59.8781 195.595 60.3109 195.241C60.7437 194.888 61.0413 194.396 61.1533 193.848L62.6483 186.465H33.792L35.328 193.848C35.4393 194.392 35.7338 194.882 36.1624 195.235C36.5911 195.588 37.1278 195.784 37.6832 195.789Z" fill="#F0F0F0"/>
<path d="M33.2085 189.327H63.2526C63.6011 189.327 63.9372 189.198 64.1969 188.966C64.4566 188.734 64.6216 188.414 64.6606 188.068L65.275 182.61C65.2966 182.412 65.2763 182.212 65.2154 182.022C65.1544 181.833 65.0543 181.658 64.9215 181.51C64.7887 181.362 64.6262 181.243 64.4445 181.162C64.2628 181.081 64.0661 181.038 63.867 181.038H32.5941C32.395 181.038 32.1983 181.081 32.0166 181.162C31.8349 181.243 31.6724 181.362 31.5396 181.51C31.4068 181.658 31.3067 181.833 31.2458 182.022C31.1849 182.212 31.1645 182.412 31.1861 182.61L31.8005 188.068C31.8395 188.414 32.0046 188.734 32.2642 188.966C32.5239 189.198 32.86 189.327 33.2085 189.327Z" fill="#F0F0F0"/>
<path d="M91.0539 162.621H73.0264V195.789H91.0539V162.621Z" fill="#E0E0E0"/>
<path d="M137.001 195.789H76.6415L70.2979 150.784H130.658L137.001 195.789Z" fill="#E6E6E6"/>
<path d="M145.808 195.789H79.0378L72.6992 150.784H139.464L145.808 195.789Z" fill="#F0F0F0"/>
<path d="M85.5706 188.754L80.2305 157.819H132.931L138.271 188.754H85.5706Z" fill="white"/>
<path d="M108.216 188.754L90.3066 157.819H95.9233L113.838 188.754H108.216Z" fill="#FAFAFA"/>
<path d="M116.219 188.754L98.3037 157.819H107.888L125.798 188.754H116.219Z" fill="#FAFAFA"/>
<path d="M128 218.911C182.826 218.911 227.272 216.316 227.272 213.115C227.272 209.914 182.826 207.319 128 207.319C73.174 207.319 28.7285 209.914 28.7285 213.115C28.7285 216.316 73.174 218.911 128 218.911Z" fill="#F5F5F5"/>
<path d="M39.5622 113.423C39.5072 113.424 39.4541 113.403 39.4133 113.366C39.3726 113.329 39.3471 113.278 39.342 113.224L38.2054 99.5533C38.2025 99.4979 38.2211 99.4435 38.2574 99.4015C38.2936 99.3596 38.3447 99.3332 38.3999 99.328C38.4575 99.3237 38.5145 99.3423 38.5586 99.3796C38.6026 99.417 38.6302 99.4702 38.6354 99.5277L39.7721 113.198C39.7764 113.256 39.7578 113.313 39.7205 113.357C39.6831 113.401 39.6299 113.428 39.5724 113.434L39.5622 113.423Z" fill="#DDA646"/>
<path d="M40.2381 121.544C40.183 121.544 40.1299 121.524 40.0892 121.487C40.0484 121.45 40.023 121.399 40.0179 121.344L39.6749 117.207C39.672 117.178 39.675 117.149 39.6836 117.122C39.6922 117.094 39.7062 117.069 39.7248 117.047C39.7435 117.025 39.7663 117.007 39.792 116.994C39.8177 116.981 39.8458 116.973 39.8745 116.972C39.9032 116.969 39.9321 116.972 39.9596 116.98C39.9871 116.989 40.0126 117.003 40.0346 117.022C40.0565 117.04 40.0745 117.063 40.0875 117.089C40.1005 117.114 40.1081 117.142 40.1101 117.171L40.4531 121.308C40.4574 121.366 40.4388 121.423 40.4015 121.467C40.3641 121.511 40.3109 121.538 40.2534 121.544H40.2381Z" fill="#DDA646"/>
<path d="M155.423 160.445H49.7049C48.3729 160.419 47.0968 159.906 46.1183 159.002C45.1398 158.098 44.5268 156.866 44.3954 155.54L38.4409 83.968C38.3772 83.3428 38.4466 82.7113 38.6444 82.1149C38.8422 81.5184 39.1639 80.9706 39.5885 80.5073C40.0131 80.0441 40.5308 79.6759 41.1078 79.427C41.6848 79.1781 42.3079 79.054 42.9362 79.063H148.649C149.981 79.089 151.258 79.6025 152.237 80.5064C153.217 81.4103 153.831 82.6419 153.963 83.968L159.918 155.53C159.982 156.156 159.914 156.788 159.716 157.386C159.519 157.983 159.197 158.532 158.773 158.996C158.348 159.46 157.83 159.829 157.253 160.079C156.675 160.329 156.052 160.454 155.423 160.445Z" fill="white"/>
<path d="M155.422 160.65H49.7045C48.3206 160.628 46.9934 160.096 45.9763 159.158C44.9592 158.219 44.3234 156.939 44.1902 155.561L38.2357 83.9936C38.1755 83.3406 38.2524 82.6823 38.4614 82.0607C38.6703 81.4391 39.0067 80.8681 39.4491 80.384C39.8892 79.8967 40.4274 79.508 41.0283 79.2433C41.6292 78.9786 42.2792 78.8439 42.9358 78.848H148.648C150.038 78.8701 151.37 79.4051 152.389 80.3503C153.408 81.2955 154.042 82.584 154.168 83.968L160.117 155.53C160.183 156.183 160.11 156.842 159.903 157.464C159.696 158.087 159.36 158.659 158.917 159.142C158.474 159.626 157.933 160.01 157.331 160.27C156.729 160.53 156.078 160.659 155.422 160.65ZM42.9358 79.2781C42.3348 79.2683 41.7386 79.3862 41.1865 79.6238C40.6344 79.8615 40.1391 80.2136 39.7331 80.6568C39.3271 81.1 39.0198 81.6244 38.8314 82.1951C38.643 82.7659 38.5778 83.3702 38.6401 83.968L44.5947 155.525C44.7214 156.802 45.3129 157.988 46.2569 158.858C47.2009 159.727 48.4315 160.219 49.7147 160.241H155.422C156.022 160.25 156.617 160.131 157.167 159.894C157.718 159.657 158.212 159.305 158.617 158.863C159.023 158.421 159.33 157.899 159.519 157.329C159.707 156.76 159.774 156.158 159.713 155.561L153.758 83.9936C153.633 82.7161 153.041 81.5294 152.097 80.6598C151.153 79.7901 149.922 79.2983 148.638 79.2781H42.9358Z" fill="#DDA646"/>
<path d="M148.649 79.0733H42.9362C42.3088 79.0644 41.6867 79.1882 41.1105 79.4365C40.5343 79.6848 40.017 80.0521 39.5926 80.5142C39.1682 80.9763 38.8462 81.5228 38.6477 82.118C38.4492 82.7132 38.3787 83.3437 38.4408 83.968H153.963C153.828 82.6437 153.213 81.4146 152.234 80.5128C151.255 79.611 149.98 79.099 148.649 79.0733Z" fill="#DDA646"/>
<path d="M45.4095 81.5258C45.4241 81.6607 45.4098 81.7972 45.3675 81.9261C45.3253 82.0551 45.2562 82.1736 45.1647 82.2739C45.0732 82.3741 44.9614 82.4537 44.8368 82.5074C44.7122 82.5612 44.5775 82.5878 44.4419 82.5856C44.1542 82.5795 43.8788 82.4684 43.6675 82.2731C43.4562 82.0779 43.3237 81.812 43.295 81.5258C43.2813 81.391 43.2962 81.2549 43.3387 81.1262C43.3812 80.9976 43.4504 80.8794 43.5418 80.7794C43.6331 80.6794 43.7445 80.5997 43.8688 80.5457C43.993 80.4917 44.1272 80.4645 44.2627 80.4659C44.551 80.4698 44.8276 80.5801 45.0394 80.7758C45.2512 80.9715 45.383 81.2386 45.4095 81.5258Z" fill="white"/>
<path d="M49.7103 81.5258C49.7249 81.6607 49.7106 81.7972 49.6683 81.9261C49.6261 82.0551 49.557 82.1736 49.4655 82.2739C49.374 82.3741 49.2622 82.4537 49.1376 82.5074C49.013 82.5612 48.8784 82.5878 48.7427 82.5856C48.4586 82.5746 48.1881 82.4613 47.9811 82.2665C47.7741 82.0717 47.6445 81.8086 47.6163 81.5258C47.6026 81.391 47.6175 81.2549 47.66 81.1262C47.7025 80.9976 47.7717 80.8794 47.8631 80.7794C47.9544 80.6794 48.0658 80.5997 48.19 80.5457C48.3143 80.4917 48.4485 80.4645 48.5839 80.4659C48.8687 80.4747 49.1404 80.5873 49.3478 80.7825C49.5553 80.9777 49.6842 81.2421 49.7103 81.5258Z" fill="white"/>
<path d="M54.0111 81.5258C54.0256 81.6607 54.0113 81.7972 53.9691 81.9261C53.9269 82.0551 53.8577 82.1736 53.7662 82.2739C53.6747 82.3741 53.5629 82.4537 53.4383 82.5074C53.3137 82.5612 53.1791 82.5878 53.0434 82.5856C52.7558 82.5795 52.4803 82.4684 52.269 82.2731C52.0577 82.0779 51.9252 81.812 51.8965 81.5258C51.8828 81.391 51.8977 81.2549 51.9403 81.1262C51.9828 80.9976 52.052 80.8794 52.1433 80.7794C52.2347 80.6794 52.3461 80.5997 52.4703 80.5457C52.5945 80.4917 52.7288 80.4645 52.8642 80.4659C53.1525 80.4698 53.4292 80.5801 53.641 80.7758C53.8527 80.9715 53.9846 81.2386 54.0111 81.5258Z" fill="white"/>
<path d="M146.247 151.066H57.3435C56.2845 151.046 55.2696 150.638 54.4911 149.92C53.7126 149.202 53.2246 148.223 53.1195 147.169L48.9415 97.28C48.8916 96.7824 48.9476 96.28 49.1057 95.8056C49.2639 95.3312 49.5207 94.8957 49.8592 94.5276C50.1978 94.1596 50.6104 93.8674 51.0699 93.6702C51.5295 93.473 52.0255 93.3754 52.5255 93.3837H141.445C142.504 93.4035 143.518 93.8111 144.297 94.5292C145.075 95.2474 145.563 96.2261 145.669 97.28L149.821 147.195C149.867 147.69 149.808 148.188 149.649 148.659C149.49 149.129 149.233 149.561 148.896 149.926C148.559 150.291 148.149 150.581 147.693 150.778C147.236 150.974 146.744 151.072 146.247 151.066Z" fill="#F0F0F0"/>
<path opacity="0.1" d="M118.743 102.098L91.1972 135.265C90.3314 136.307 89.7487 137.554 89.5053 138.886C89.2619 140.218 89.3659 141.591 89.8075 142.871C90.249 144.152 91.0131 145.297 92.026 146.196C93.0389 147.095 94.2664 147.717 95.5902 148.004L140.288 157.665C141.686 157.969 143.14 157.885 144.494 157.425C145.849 156.965 147.052 156.144 147.976 155.052C148.899 153.959 149.508 152.636 149.736 151.224C149.965 149.812 149.805 148.364 149.273 147.036L132.137 104.202C131.63 102.931 130.802 101.814 129.733 100.96C128.664 100.107 127.391 99.5461 126.039 99.3338C124.688 99.1215 123.304 99.2647 122.025 99.7493C120.746 100.234 119.614 101.043 118.743 102.098Z" fill="#263238"/>
<path opacity="0.1" d="M57.4262 106.747L47.8313 132.608C47.544 133.398 47.4612 134.247 47.5907 135.077C47.7203 135.907 48.0579 136.691 48.5721 137.356C49.0863 138.02 49.7604 138.544 50.5315 138.877C51.3026 139.211 52.1457 139.344 52.9821 139.264L81.0038 136.515C81.8955 136.427 82.7472 136.101 83.4689 135.57C84.1906 135.039 84.7557 134.324 85.1043 133.498C85.453 132.673 85.5724 131.769 85.45 130.881C85.3275 129.994 84.9678 129.156 84.4086 128.456L65.9766 105.364C65.426 104.677 64.7028 104.148 63.8809 103.832C63.059 103.515 62.1679 103.423 61.2985 103.563C60.4291 103.704 59.6125 104.073 58.9322 104.632C58.2519 105.191 57.7322 105.921 57.4262 106.747Z" fill="#263238"/>
<path d="M128.245 93.7472L102.492 131.123C101.687 132.291 101.196 133.645 101.065 135.057C100.934 136.468 101.167 137.89 101.742 139.186C102.318 140.481 103.216 141.608 104.351 142.457C105.487 143.306 106.821 143.85 108.226 144.036L155.566 150.339C157.054 150.537 158.569 150.327 159.948 149.73C161.326 149.134 162.517 148.174 163.392 146.954C164.267 145.733 164.794 144.297 164.916 142.8C165.038 141.303 164.751 139.801 164.085 138.455L142.499 94.761C141.859 93.4665 140.891 92.3621 139.691 91.5572C138.492 90.7524 137.103 90.275 135.663 90.1726C134.222 90.0701 132.78 90.3461 131.478 90.9731C130.177 91.6002 129.063 92.5565 128.245 93.7472Z" fill="#DDA646"/>
<path d="M109.347 140.698C108.492 140.581 107.679 140.255 106.981 139.749C106.282 139.242 105.72 138.571 105.344 137.795C104.956 137.061 104.773 136.235 104.816 135.406C104.858 134.577 105.124 133.775 105.584 133.084L131.404 95.5955C131.871 94.9268 132.517 94.4031 133.268 94.0843C134.018 93.7656 134.844 93.6647 135.649 93.7933C136.504 93.9087 137.318 94.2342 138.016 94.7408C138.715 95.2474 139.277 95.9193 139.653 96.6963L161.28 140.498C161.668 141.232 161.85 142.057 161.808 142.886C161.765 143.715 161.5 144.518 161.039 145.208C160.573 145.878 159.928 146.403 159.177 146.723C158.426 147.043 157.6 147.144 156.794 147.016L109.347 140.698Z" fill="white"/>
<path d="M133.452 107.044L136.468 107.443C137.411 107.576 138.272 108.052 138.886 108.779C139.501 109.506 139.827 110.434 139.801 111.386L139.596 115.318C139.591 115.46 139.576 115.602 139.55 115.743L137.405 127.596C137.251 128.412 136.785 129.137 136.105 129.615C135.425 130.093 134.585 130.287 133.765 130.156C132.894 130.032 132.09 129.617 131.485 128.978C130.88 128.339 130.508 127.515 130.432 126.638L129.566 114.391C129.556 114.25 129.556 114.108 129.566 113.966L129.766 110.029C129.788 109.582 129.903 109.144 130.106 108.744C130.308 108.345 130.593 107.993 130.941 107.711C131.289 107.429 131.693 107.224 132.125 107.109C132.558 106.994 133.01 106.972 133.452 107.044ZM133.212 133.443L134.031 133.55C134.875 133.669 135.645 134.095 136.196 134.745C136.746 135.396 137.038 136.226 137.016 137.078C136.998 137.479 136.895 137.873 136.714 138.232C136.534 138.591 136.279 138.908 135.967 139.162C135.655 139.416 135.293 139.601 134.905 139.705C134.516 139.809 134.11 139.83 133.713 139.766L132.894 139.653C132.051 139.535 131.28 139.111 130.73 138.461C130.179 137.811 129.887 136.982 129.909 136.131C129.926 135.729 130.029 135.335 130.209 134.975C130.39 134.616 130.644 134.298 130.956 134.044C131.268 133.79 131.631 133.605 132.02 133.502C132.408 133.398 132.815 133.378 133.212 133.443Z" fill="#DDA646"/>
<path d="M67.3276 99.4611L60.2569 126.275C60.0436 127.089 60.0407 127.945 60.2483 128.761C60.4558 129.577 60.8672 130.328 61.4437 130.942C62.0203 131.555 62.7433 132.013 63.5449 132.271C64.3465 132.53 65.2006 132.58 66.0271 132.419L93.4549 127.068C94.3252 126.895 95.1332 126.492 95.7952 125.901C96.4573 125.31 96.9493 124.553 97.2203 123.708C97.4914 122.863 97.5315 121.961 97.3367 121.095C97.1419 120.229 96.7191 119.431 96.1122 118.784L75.7756 97.3056C75.1656 96.6575 74.3932 96.1846 73.5386 95.9361C72.684 95.6876 71.7784 95.6726 70.9161 95.8927C70.0537 96.1127 69.266 96.5597 68.635 97.1873C68.0039 97.8148 67.5524 98.6 67.3276 99.4611Z" fill="#DDA646"/>
<path d="M65.9708 130.258C65.4672 130.349 64.9487 130.311 64.4635 130.149C63.9784 129.986 63.5423 129.703 63.1957 129.326C62.8382 128.963 62.5799 128.515 62.4454 128.023C62.3109 127.532 62.3048 127.015 62.4277 126.52L69.5138 99.6352C69.6367 99.1654 69.8906 98.7403 70.246 98.4094C70.6014 98.0785 71.0435 97.8555 71.5209 97.7664C72.0249 97.6764 72.5435 97.715 73.0286 97.8788C73.5137 98.0426 73.9496 98.3262 74.2959 98.7034L94.7042 120.207C95.0622 120.57 95.3213 121.018 95.4566 121.509C95.592 122.001 95.5991 122.518 95.4773 123.013C95.3536 123.482 95.0993 123.906 94.744 124.236C94.3887 124.566 93.947 124.788 93.4703 124.877L65.9708 130.258Z" fill="white"/>
<path d="M72.8527 105.948L74.5987 105.605C75.1624 105.514 75.7398 105.635 76.22 105.944C76.7001 106.253 77.049 106.729 77.1996 107.279L77.8243 109.619C77.8479 109.705 77.8667 109.792 77.8806 109.88L78.9916 117.248C79.0782 117.744 78.9654 118.254 78.6778 118.667C78.3901 119.081 77.9509 119.364 77.4556 119.455C76.9363 119.541 76.4031 119.447 75.9448 119.188C75.4865 118.929 75.1307 118.521 74.9366 118.031L72.1001 111.027C72.0657 110.946 72.0366 110.862 72.0131 110.776L71.3679 108.431C71.2841 108.171 71.2567 107.895 71.2878 107.623C71.3189 107.351 71.4077 107.089 71.5482 106.854C71.6888 106.619 71.8778 106.416 72.1028 106.26C72.3277 106.104 72.5834 105.998 72.8527 105.948ZM77.7936 121.452L78.2697 121.359C78.7747 121.272 79.294 121.377 79.7253 121.654C80.1566 121.931 80.4685 122.359 80.5993 122.854C80.6715 123.085 80.6942 123.328 80.666 123.569C80.6378 123.809 80.5593 124.04 80.4356 124.248C80.3119 124.456 80.1458 124.635 79.9482 124.774C79.7506 124.913 79.5258 125.009 79.2886 125.056L78.8124 125.148C78.3082 125.236 77.7894 125.132 77.3582 124.856C76.927 124.58 76.6147 124.153 76.4828 123.658C76.4107 123.427 76.3879 123.184 76.4161 122.943C76.4443 122.703 76.5227 122.471 76.6463 122.263C76.77 122.055 76.936 121.875 77.1336 121.735C77.3313 121.595 77.5561 121.499 77.7936 121.452Z" fill="#DDA646"/>
<path d="M198.84 105.472L194.867 106.762L198.062 110.541C198.969 109.755 199.754 108.839 200.392 107.822C200.557 107.534 200.602 107.193 200.517 106.872C200.433 106.551 200.226 106.277 199.941 106.107L198.84 105.472Z" fill="#7F3E3B"/>
<path d="M193.04 109.885L195.421 112.778L198.068 110.561L194.868 106.783L193.04 109.885Z" fill="#7F3E3B"/>
<path d="M200.126 74.5882C201.094 77.2506 201.985 79.913 202.829 82.6112C203.674 85.3094 204.453 88.0179 205.133 90.8544L205.374 91.945L205.487 92.5133L205.543 92.8V92.8717V92.9792L205.574 93.1942C205.686 94.1683 205.637 95.1542 205.43 96.1126C205.104 97.6504 204.61 99.1476 203.956 100.577C202.763 103.249 201.294 105.788 199.573 108.155L196.916 106.685C197.858 104.125 198.79 101.509 199.476 98.9747C199.815 97.7871 200.051 96.5726 200.182 95.3446C200.225 94.9207 200.204 94.4927 200.121 94.0749L199.901 93.2762L199.614 92.329C198.81 89.769 197.894 87.1322 196.988 84.5107C196.081 81.8893 195.175 79.2422 194.305 76.6157L200.126 74.5882Z" fill="#7F3E3B"/>
<path d="M178.012 58.7469C178.079 59.0694 177.966 59.3664 177.761 59.4227C177.556 59.479 177.331 59.2538 177.249 58.9107C177.167 58.5677 177.29 58.2912 177.5 58.24C177.71 58.1888 177.946 58.4294 178.012 58.7469Z" fill="#263238"/>
<path d="M177.997 59.3613C177.824 60.4336 177.511 61.4785 177.065 62.4691C177.317 62.5707 177.588 62.6151 177.859 62.5992C178.13 62.5833 178.394 62.5074 178.632 62.377L177.997 59.3613Z" fill="#630F0F"/>
<path d="M177.152 56.832C177.121 56.832 177.091 56.8246 177.063 56.8103C177.035 56.7961 177.012 56.7754 176.994 56.7501C176.979 56.7296 176.968 56.7065 176.963 56.682C176.957 56.6575 176.956 56.6321 176.961 56.6073C176.965 56.5825 176.974 56.5588 176.988 56.5376C177.001 56.5164 177.019 56.4982 177.04 56.4838C177.297 56.3245 177.589 56.2293 177.891 56.2061C178.193 56.1829 178.496 56.2325 178.775 56.3507C178.799 56.3602 178.82 56.3743 178.838 56.3922C178.856 56.41 178.87 56.4312 178.879 56.4546C178.889 56.478 178.894 56.503 178.893 56.5283C178.893 56.5535 178.888 56.5784 178.878 56.6016C178.858 56.6489 178.821 56.6866 178.774 56.7067C178.727 56.7268 178.674 56.7277 178.627 56.7091C178.409 56.6128 178.171 56.5704 177.933 56.5856C177.695 56.6007 177.464 56.673 177.26 56.7962C177.229 56.8201 177.191 56.8328 177.152 56.832Z" fill="#263238"/>
<path d="M188.984 59.7606C189.343 63.4778 188.815 67.0771 189.645 70.3078C189.645 70.3078 188.723 73.3082 183.23 73.3082C177.188 73.3082 180.46 70.3078 180.46 70.3078C183.788 69.5245 183.793 67.0771 183.311 64.7782L188.984 59.7606Z" fill="#7F3E3B"/>
<path d="M190.817 71.337C191.289 70.3898 191.601 69.0432 190.628 68.7053C189.558 68.3315 183.839 68.1933 181.765 68.9101C181.212 69.0562 180.738 69.4127 180.445 69.9034C180.151 70.3942 180.061 70.9803 180.193 71.5366L190.817 71.337Z" fill="#263238"/>
<path d="M203.162 206.177C203.539 206.08 203.903 205.939 204.248 205.757C204.266 205.749 204.282 205.735 204.292 205.718C204.303 205.7 204.309 205.681 204.309 205.66C204.309 205.639 204.301 205.619 204.289 205.602C204.276 205.586 204.258 205.574 204.237 205.568C204.058 205.507 202.471 204.979 202.051 205.338C202.005 205.378 201.971 205.429 201.952 205.487C201.933 205.544 201.93 205.606 201.944 205.665C201.952 205.772 201.987 205.876 202.046 205.965C202.105 206.055 202.186 206.128 202.281 206.177C202.567 206.276 202.877 206.276 203.162 206.177ZM203.92 205.665C203.224 205.983 202.66 206.09 202.384 205.947C202.32 205.915 202.265 205.868 202.226 205.808C202.186 205.749 202.163 205.68 202.159 205.609C202.151 205.586 202.15 205.561 202.156 205.537C202.163 205.513 202.176 205.492 202.194 205.476C202.404 205.312 203.265 205.491 203.92 205.686V205.665Z" fill="#DDA646"/>
<path d="M204.227 205.768C204.241 205.764 204.254 205.758 204.266 205.749C204.277 205.741 204.287 205.73 204.294 205.717C204.301 205.705 204.305 205.691 204.307 205.677C204.309 205.663 204.308 205.648 204.304 205.635C204.304 205.583 203.889 204.365 203.28 204.099C203.209 204.061 203.131 204.039 203.05 204.034C202.97 204.028 202.89 204.04 202.814 204.068C202.737 204.086 202.669 204.13 202.622 204.192C202.574 204.255 202.55 204.332 202.553 204.411C202.553 204.923 203.659 205.65 204.161 205.788L204.227 205.768ZM202.947 204.232C203.034 204.212 203.124 204.223 203.203 204.262C203.595 204.58 203.882 205.008 204.028 205.491C203.516 205.261 202.789 204.677 202.778 204.38C202.778 204.355 202.778 204.293 202.901 204.242L202.947 204.232Z" fill="#DDA646"/>
<path d="M175.197 209.306C175.585 209.295 175.972 209.242 176.349 209.147C176.369 209.141 176.387 209.13 176.402 209.115C176.416 209.099 176.426 209.08 176.431 209.06C176.433 209.039 176.429 209.018 176.42 208.999C176.411 208.98 176.397 208.964 176.38 208.952C176.221 208.855 174.797 207.98 174.306 208.23C174.251 208.258 174.206 208.301 174.174 208.353C174.142 208.406 174.126 208.466 174.127 208.527C174.116 208.63 174.129 208.734 174.167 208.83C174.204 208.926 174.264 209.012 174.342 209.08C174.594 209.247 174.895 209.326 175.197 209.306ZM176.047 208.998C175.299 209.147 174.721 209.121 174.48 208.916C174.426 208.871 174.385 208.812 174.36 208.745C174.335 208.679 174.327 208.608 174.337 208.538C174.337 208.456 174.372 208.43 174.403 208.415C174.654 208.287 175.468 208.66 176.047 208.998Z" fill="#DDA646"/>
<path d="M176.323 209.147C176.343 209.151 176.364 209.151 176.384 209.147C176.399 209.136 176.411 209.121 176.419 209.104C176.427 209.087 176.431 209.068 176.43 209.05C176.43 208.998 176.317 207.724 175.805 207.304C175.745 207.25 175.674 207.211 175.597 207.188C175.52 207.165 175.439 207.159 175.36 207.171C175.282 207.17 175.206 207.197 175.145 207.247C175.084 207.296 175.043 207.365 175.027 207.442C174.935 207.954 175.816 208.901 176.276 209.152L176.323 209.147ZM175.432 207.36C175.52 207.358 175.606 207.389 175.672 207.447C175.979 207.847 176.157 208.331 176.184 208.835C175.729 208.486 175.16 207.759 175.222 207.468C175.222 207.468 175.222 207.375 175.375 207.36H175.421H175.432Z" fill="#DDA646"/>
<path d="M181.079 208.988H177.034L176.993 199.629H181.038L181.079 208.988Z" fill="#7F3E3B"/>
<path d="M209.234 205.527L205.343 206.239L202.553 197.028L206.444 196.316L209.234 205.527Z" fill="#7F3E3B"/>
<path d="M204.606 205.204L209.025 204.18C209.101 204.162 209.182 204.17 209.253 204.205C209.325 204.239 209.381 204.298 209.414 204.37L210.878 207.713C210.913 207.797 210.93 207.887 210.926 207.978C210.923 208.068 210.899 208.157 210.858 208.237C210.816 208.318 210.758 208.388 210.686 208.444C210.614 208.499 210.531 208.538 210.443 208.558C208.907 208.896 208.129 208.978 206.183 209.439C204.99 209.72 202.553 210.432 200.899 210.821C199.245 211.21 198.713 209.613 199.363 209.285C202.261 207.898 203.224 206.725 204.017 205.599C204.16 205.401 204.369 205.262 204.606 205.204Z" fill="#263238"/>
<path d="M177.081 208.517H181.494C181.573 208.517 181.65 208.545 181.711 208.595C181.771 208.646 181.813 208.716 181.827 208.794L182.487 212.378C182.503 212.466 182.499 212.557 182.476 212.644C182.453 212.731 182.41 212.811 182.352 212.88C182.294 212.948 182.221 213.003 182.139 213.04C182.057 213.077 181.968 213.096 181.878 213.094C180.286 213.069 177.992 212.977 175.99 212.977C173.65 212.977 172.816 213.105 170.071 213.105C168.413 213.105 168.023 211.425 168.72 211.277C171.904 210.58 173.297 210.509 176.098 208.824C176.391 208.634 176.731 208.528 177.081 208.517Z" fill="#263238"/>
<path d="M198.656 71.3523C202.43 74.0096 203.567 80.8499 203.567 80.8499L195.016 85.1814C193.664 82.4779 192.616 79.6325 191.893 76.6976C190.976 72.6528 195.974 69.4682 198.656 71.3523Z" fill="#DDA646"/>
<path opacity="0.2" d="M194.381 75.7146L197.75 83.7837L195.016 85.1814C194.168 83.4683 193.429 81.7036 192.804 79.8976L194.381 75.7146Z" fill="black"/>
<path d="M173.512 89.088C173.543 93.5987 173.814 99.2102 174.485 106.173H196.096C196.357 102.999 195.031 88.0333 198.252 73.047C198.309 72.7831 198.311 72.5104 198.259 72.2455C198.206 71.9807 198.1 71.7293 197.948 71.5068C197.795 71.2844 197.598 71.0955 197.369 70.9518C197.141 70.8082 196.885 70.7127 196.618 70.6714C194.922 70.4 193.213 70.2171 191.498 70.1235C188.437 69.9468 185.369 69.9468 182.308 70.1235C181.073 70.2306 179.844 70.4015 178.627 70.6355C177.721 70.8195 176.886 71.2554 176.218 71.8931C175.549 72.5308 175.075 73.3443 174.848 74.24C174.176 77.0013 173.779 79.8227 173.665 82.6624C173.568 84.5056 173.496 86.6406 173.512 89.088Z" fill="#DDA646"/>
<path opacity="0.2" d="M180.332 80.6195C178.903 81.6435 176.169 82.1555 173.676 82.3654C173.717 81.705 173.768 81.0803 173.824 80.4915C174.495 80.1382 175.14 79.8157 175.749 79.5187L180.332 80.6195Z" fill="black"/>
<g opacity="0.2">
<path d="M176.993 199.629L177.019 204.831H181.058L181.038 199.629H176.993Z" fill="black"/>
<path d="M206.443 196.316L202.552 197.033L203.996 201.779L207.887 201.062L206.443 196.316Z" fill="black"/>
</g>
<path d="M188.417 55.4086C189.005 59.3869 189.553 61.6806 188.017 64.1894C187.529 65.0053 186.828 65.6722 185.988 66.1181C185.149 66.5639 184.204 66.7718 183.254 66.719C182.305 66.6663 181.389 66.3551 180.604 65.8189C179.819 65.2828 179.196 64.5423 178.801 63.6774C177.219 60.3699 176.518 54.4154 179.984 51.9014C180.719 51.3393 181.589 50.9805 182.507 50.8611C183.425 50.7417 184.358 50.866 185.212 51.2214C186.067 51.5768 186.813 52.1509 187.375 52.8859C187.938 53.6208 188.297 54.4909 188.417 55.4086Z" fill="#7F3E3B"/>
<path d="M180.142 58.3168C178.642 57.6563 178.785 55.296 179.241 54.3027C177.505 54.8966 174.997 55.2397 174.546 53.4733C174.095 51.7069 175.626 51.1437 174.689 49.6333C173.752 48.1229 176.737 46.4794 178.13 48.6093C179.523 50.7392 182.963 49.7869 185.185 47.7542C186.803 46.2746 189.169 48.1843 188.232 50.1146C188.232 50.1146 193.096 49.8022 192.128 53.1046C191.16 56.407 189.793 56.5197 190.106 58.8698C190.321 60.457 190.505 63.6826 188.6 64.1382C186.296 64.6656 180.552 62.6227 180.142 58.3168Z" fill="#263238"/>
<path opacity="0.2" d="M180.112 62.6227C179.672 62.9402 179.216 63.2781 178.75 63.6467L178.776 63.703C179.231 64.6625 179.959 65.4659 180.87 66.0122C181.162 65.7306 181.325 64.7834 181.868 64.7987C183.491 64.8448 186.63 64.1638 187.152 62.3309L180.112 62.6227Z" fill="black"/>
<path d="M181.377 58.2605C181.489 59.1451 181.354 60.0434 180.987 60.8563C180.527 61.7933 179.8 61.1942 179.518 60.0422C179.262 59.0182 179.195 57.2723 179.861 56.7603C180.527 56.2483 181.249 57.0931 181.377 58.2605Z" fill="#7F3E3B"/>
<path d="M182.154 106.189C182.154 106.189 185.549 137.073 187.617 148.644C189.886 161.316 201.631 201.088 201.631 201.088L208.87 199.552C208.87 199.552 200.786 162.34 199.68 149.796C198.497 136.177 196.096 106.189 196.096 106.189H182.154Z" fill="#DDA646"/>
<path opacity="0.3" d="M182.154 106.189C182.154 106.189 185.549 137.073 187.617 148.644C189.886 161.316 201.631 201.088 201.631 201.088L208.87 199.552C208.87 199.552 200.786 162.34 199.68 149.796C198.554 136.852 198.554 136.878 196.096 106.189H182.154Z" fill="black"/>
<path d="M200.013 198.656C199.983 198.656 201.242 201.298 201.242 201.298L209.408 199.552L208.83 197.084L200.013 198.656Z" fill="#263238"/>
<path opacity="0.2" d="M184.627 117.197C189.891 118.221 188.565 138.01 187.535 148.183C186.286 141.015 184.581 127.155 183.439 117.34C183.807 117.157 184.227 117.107 184.627 117.197Z" fill="black"/>
<path d="M174.485 106.189C174.485 106.189 172.765 136.397 172.729 148.731C172.688 161.531 175.545 203.515 175.545 203.515H182.396C182.396 203.515 184.239 162.294 185.027 149.704C185.887 135.977 188.698 106.184 188.698 106.184L174.485 106.189Z" fill="#DDA646"/>
<path opacity="0.3" d="M174.485 106.189C174.485 106.189 172.765 136.397 172.729 148.731C172.688 161.531 175.545 203.515 175.545 203.515H182.396C182.396 203.515 184.239 162.294 185.027 149.704C185.887 135.977 188.698 106.184 188.698 106.184L174.485 106.189Z" fill="black"/>
<path d="M174.336 200.796C174.305 200.796 174.613 203.638 174.613 203.638H182.938L183.26 201.078L174.336 200.796Z" fill="#263238"/>
<path d="M183.051 77.6909C182.231 77.7677 181.54 77.8138 180.787 77.8342C180.035 77.8547 179.318 77.8701 178.586 77.865C177.111 77.865 175.637 77.7728 174.152 77.609C172.645 77.4536 171.15 77.197 169.677 76.841C168.117 76.4744 166.603 75.937 165.161 75.2384L164.992 75.1514C164.676 74.997 164.394 74.7816 164.161 74.5176C163.928 74.2535 163.75 73.9461 163.637 73.613C163.524 73.2798 163.478 72.9276 163.501 72.5765C163.524 72.2254 163.617 71.8825 163.774 71.5674C163.845 71.4221 163.929 71.2833 164.025 71.1526C164.636 70.3427 165.331 69.5996 166.098 68.9357C166.789 68.3213 167.481 67.7734 168.177 67.2512C169.57 66.2016 170.993 65.2749 172.421 64.3738C173.85 63.4726 175.309 62.6381 176.779 61.8138C178.248 60.9894 179.728 60.247 181.264 59.5354C181.601 59.4004 181.976 59.3896 182.321 59.5048C182.666 59.6201 182.958 59.854 183.147 60.1649C183.336 60.4757 183.408 60.8435 183.351 61.2026C183.294 61.5617 183.111 61.889 182.835 62.1261C181.55 63.1142 180.224 64.0922 178.939 65.0957C177.654 66.0992 176.379 67.0874 175.104 68.1011C173.829 69.1149 172.616 70.1491 171.454 71.1731C170.875 71.6851 170.317 72.1971 169.82 72.7552C169.374 73.209 168.969 73.7026 168.612 74.2298L167.481 70.1338C168.596 70.5476 169.748 70.8545 170.921 71.0502C172.177 71.2636 173.444 71.4106 174.715 71.4906C176.011 71.5725 177.321 71.6186 178.637 71.6186C179.298 71.6186 179.958 71.6186 180.613 71.6186C181.269 71.6186 181.96 71.5674 182.533 71.5366H182.6C183.374 71.5358 184.121 71.8275 184.689 72.3534C185.258 72.8792 185.606 73.6003 185.666 74.3724C185.726 75.1445 185.491 75.9107 185.01 76.5174C184.529 77.1242 183.836 77.5269 183.071 77.6448L183.051 77.6909Z" fill="#7F3E3B"/>
<path d="M185.918 58.7366L183.358 59.305C183.358 59.305 179.933 58.88 179.149 61.4605L181.197 63.191L184.331 63.703C184.827 63.7802 185.334 63.6977 185.78 63.4675L186.579 63.0528C186.76 62.9593 186.915 62.8217 187.03 62.6527C187.144 62.4836 187.214 62.2884 187.234 62.0851L187.423 60.0371C187.442 59.8432 187.414 59.6476 187.342 59.4667C187.269 59.2858 187.155 59.1249 187.007 58.9975C186.86 58.8701 186.684 58.78 186.494 58.7346C186.305 58.6892 186.107 58.6899 185.918 58.7366Z" fill="#7F3E3B"/>
<path d="M180.921 80.681C176.615 81.879 171.705 80.384 171.705 80.384L173.512 70.743C173.512 70.743 177.788 70.3642 180.46 70.3078C187.336 70.144 188.683 78.5306 180.921 80.681Z" fill="#DDA646"/>
</svg>
